<svg width="80" height="48" viewBox="0 0 80 48" fill="none" xmlns="http://www.w3.org/2000/svg">
<path d="M22.6226 17.3244C22.6226 18.3045 22.7286 19.0992 22.914 19.682C23.1259 20.2648 23.3908 20.9005 23.7617 21.5893C23.8941 21.8012 23.9471 22.0131 23.9471 22.1986C23.9471 22.4635 23.7882 22.7284 23.4438 22.9933L21.7749 24.1058C21.5365 24.2648 21.2981 24.3443 21.0862 24.3443C20.8213 24.3443 20.5564 24.2118 20.2915 23.9734C19.9206 23.576 19.6028 23.1522 19.3379 22.7284C19.0729 22.278 18.808 21.7747 18.5167 21.1654C16.4504 23.6025 13.8544 24.8211 10.7286 24.8211C8.50341 24.8211 6.72858 24.1853 5.43057 22.9138C4.13255 21.6423 3.4703 19.9469 3.4703 17.8277C3.4703 15.576 4.265 13.7482 5.8809 12.3707C7.49679 10.9933 9.64249 10.3045 12.371 10.3045C13.2716 10.3045 14.1988 10.384 15.1789 10.5164C16.159 10.6489 17.1657 10.8608 18.2253 11.0992V9.16544C18.2253 7.1522 17.8014 5.74822 16.9802 4.92703C16.1326 4.10584 14.7021 3.70849 12.6624 3.70849C11.7352 3.70849 10.7816 3.81445 9.80143 4.05286C8.82129 4.29127 7.86765 4.58266 6.9405 4.95352C6.51666 5.13895 6.19878 5.24491 6.01335 5.29789C5.82792 5.35087 5.69547 5.37736 5.58951 5.37736C5.21865 5.37736 5.03322 5.11246 5.03322 4.55617V3.25816C5.03322 2.83431 5.0862 2.51643 5.21865 2.331C5.3511 2.14557 5.58951 1.96014 5.96037 1.77471C6.88752 1.29789 8.0001 0.900539 9.29812 0.582659C10.5961 0.238288 11.9736 0.0793473 13.4306 0.0793473C16.5829 0.0793473 18.8875 0.794579 20.371 2.22504C21.8279 3.65551 22.5696 5.82769 22.5696 8.7416V17.3244H22.6226ZM11.8677 21.3509C12.7418 21.3509 13.6425 21.1919 14.5961 20.8741C15.5498 20.5562 16.3975 19.9734 17.1127 19.1787C17.5365 18.6754 17.8544 18.1191 18.0133 17.4833C18.1723 16.8476 18.2782 16.0793 18.2782 15.1787V14.0661C17.51 13.8807 16.6888 13.7217 15.8412 13.6158C14.9935 13.5098 14.1723 13.4568 13.3511 13.4568C11.5763 13.4568 10.2782 13.8012 9.40408 14.5164C8.5299 15.2317 8.10606 16.2383 8.10606 17.5628C8.10606 18.8078 8.42394 19.735 9.08619 20.3707C9.72196 21.033 10.6491 21.3509 11.8677 21.3509ZM33.1392 24.2118C32.6624 24.2118 32.3445 24.1323 32.1326 23.9469C31.9206 23.788 31.7352 23.4171 31.5763 22.9138L25.3511 2.43696C25.1922 1.90716 25.1127 1.56279 25.1127 1.37736C25.1127 0.95352 25.3246 0.715109 25.7484 0.715109H28.3445C28.8478 0.715109 29.1922 0.794579 29.3776 0.98001C29.5895 1.13895 29.7484 1.50981 29.9074 2.01312L34.3577 19.5495L38.4902 2.01312C38.6226 1.48332 38.7816 1.13895 38.9935 0.98001C39.2054 0.821069 39.5763 0.715109 40.0531 0.715109H42.1723C42.6756 0.715109 43.02 0.794579 43.2319 0.98001C43.4438 1.13895 43.6292 1.50981 43.7352 2.01312L47.9206 19.7615L52.5034 2.01312C52.6624 1.48332 52.8478 1.13895 53.0332 0.98001C53.2451 0.821069 53.5895 0.715109 54.0663 0.715109H56.5299C56.9537 0.715109 57.1922 0.92703 57.1922 1.37736C57.1922 1.50981 57.1657 1.64226 57.1392 1.8012C57.1127 1.96014 57.0597 2.17206 56.9537 2.46345L50.5696 22.9403C50.4107 23.4701 50.2253 23.8144 50.0133 23.9734C49.8014 24.1323 49.4571 24.2383 49.0067 24.2383H46.7286C46.2253 24.2383 45.8809 24.1588 45.669 23.9734C45.4571 23.788 45.2716 23.4436 45.1657 22.9138L41.0597 5.82769L36.9802 22.8873C36.8478 23.4171 36.6888 23.7615 36.4769 23.9469C36.265 24.1323 35.8941 24.2118 35.4173 24.2118H33.1392ZM67.1789 24.927C65.8014 24.927 64.4239 24.7681 63.0994 24.4502C61.7749 24.1323 60.7418 23.788 60.0531 23.3906C59.6292 23.1522 59.3378 22.8873 59.2319 22.6489C59.1259 22.4105 59.0729 22.1456 59.0729 21.9072V20.5562C59.0729 19.9999 59.2849 19.735 59.6822 19.735C59.8412 19.735 60.0001 19.7615 60.159 19.8144C60.318 19.8674 60.5564 19.9734 60.8213 20.0793C61.722 20.4767 62.7021 20.7946 63.7352 21.0065C64.7948 21.2184 65.8279 21.3244 66.8875 21.3244C68.5564 21.3244 69.8544 21.033 70.7551 20.4502C71.6557 19.8674 72.1325 19.0197 72.1325 17.9337C72.1325 17.1919 71.8941 16.5827 71.4173 16.0793C70.9405 15.576 70.0398 15.1257 68.7418 14.7019L64.9008 13.5098C62.967 12.9005 61.5365 11.9999 60.6623 10.8078C59.7882 9.64226 59.3378 8.34425 59.3378 6.96676C59.3378 5.85418 59.5763 4.87405 60.0531 4.02637C60.5299 3.17869 61.1657 2.43696 61.9604 1.85418C62.7551 1.24491 63.6557 0.794579 64.7153 0.476698C65.7749 0.158817 66.8875 0.0263672 68.0531 0.0263672C68.6359 0.0263672 69.2451 0.0528572 69.8279 0.132327C70.4372 0.211798 70.9935 0.317758 71.5498 0.423718C72.0796 0.556169 72.5829 0.688619 73.0597 0.847559C73.5365 1.0065 73.9074 1.16544 74.1723 1.32438C74.5431 1.5363 74.808 1.74822 74.967 1.98663C75.1259 2.19855 75.2054 2.48994 75.2054 2.8608V4.10584C75.2054 4.66213 74.9935 4.95352 74.5961 4.95352C74.3842 4.95352 74.0398 4.84756 73.5895 4.63564C72.0796 3.9469 70.3842 3.60253 68.5034 3.60253C66.9935 3.60253 65.8014 3.84094 64.9802 4.34425C64.159 4.84756 63.7352 5.61577 63.7352 6.70186C63.7352 7.44359 64.0001 8.07935 64.5299 8.58266C65.0597 9.08597 66.0398 9.58928 67.4438 10.0396L71.2054 11.2317C73.1127 11.8409 74.4902 12.6886 75.3114 13.7747C76.1325 14.8608 76.5299 16.1058 76.5299 17.4833C76.5299 18.6224 76.2915 19.6555 75.8412 20.5562C75.3643 21.4568 74.7286 22.2515 73.9074 22.8873C73.0862 23.5495 72.1061 24.0264 70.967 24.3707C69.7749 24.7416 68.5299 24.927 67.1789 24.927Z" fill="white"/>
<path fill-rule="evenodd" clip-rule="evenodd" d="M72.1855 37.8011C63.4703 44.2382 50.808 47.6555 39.9206 47.6555C24.6623 47.6555 10.914 42.0131 0.529854 32.6356C-0.291338 31.8939 0.450384 30.8872 1.43052 31.47C12.6623 37.9866 26.5166 41.9336 40.8477 41.9336C50.5166 41.9336 61.1391 39.9204 70.914 35.7879C72.3709 35.1257 73.6159 36.7415 72.1855 37.8011Z" fill="white"/>
<path fill-rule="evenodd" clip-rule="evenodd" d="M75.8147 33.6686C74.7021 32.2381 68.4505 32.9799 65.616 33.3242C64.7684 33.4302 64.6359 32.6885 65.4041 32.1322C70.3842 28.6355 78.5697 29.6421 79.5233 30.8077C80.477 31.9997 79.2584 40.1852 74.5962 44.1057C73.8809 44.715 73.1922 44.3971 73.5101 43.6024C74.5697 40.9799 76.9273 35.0726 75.8147 33.6686Z" fill="white"/>
</svg>
