<svg width="21" height="13" viewBox="0 0 21 13" fill="none" xmlns="http://www.w3.org/2000/svg"><path fill-rule="evenodd" clip-rule="evenodd" d="M.5 2.5A2.5 2.5 0 013 0h9.375a2.5 2.5 0 012.479 2.172L18.74.445a1.25 1.25 0 011.76 1.141v9.328a1.25 1.25 0 01-1.758 1.141l-3.888-1.727a2.5 2.5 0 01-2.479 2.172H3A2.5 2.5 0 01.5 10V2.5zm14.375 6.469l4.375 1.945V1.586l-4.375 1.945V8.97zM3 1.25A1.25 1.25 0 001.75 2.5V10A1.25 1.25 0 003 11.25h9.375a1.25 1.25 0 001.25-1.25V2.5a1.25 1.25 0 00-1.25-1.25H3z" fill="#fff"/></svg>