<svg width="2484" height="390" viewBox="0 0 2484 390" fill="none" xmlns="http://www.w3.org/2000/svg">
<path d="M292.27 102.15H306.314L346.337 62.1263L348.303 45.134C325.375 24.8971 297.667 10.8392 267.795 4.28827C237.924 -2.26262 206.875 -1.09024 177.583 7.69468C148.29 16.4796 121.721 32.587 100.384 54.4954C79.048 76.4038 63.6488 103.39 55.6416 132.904C60.1004 131.077 65.0396 130.78 69.6849 132.062L149.731 118.861C149.731 118.861 153.804 112.12 155.91 112.542C173.062 93.7049 196.765 82.1365 222.167 80.2046C247.569 78.2727 272.748 86.1234 292.551 102.15H292.27Z" fill="white"/>
<path d="M403.352 132.904C394.153 99.0269 375.265 68.5714 349.005 45.2744L292.832 101.447C304.539 111.013 313.921 123.113 320.27 136.833C326.62 150.553 329.77 165.536 329.485 180.651V190.622C336.05 190.622 342.551 191.915 348.617 194.428C354.682 196.94 360.194 200.623 364.836 205.265C369.478 209.907 373.161 215.419 375.673 221.484C378.186 227.55 379.479 234.051 379.479 240.616C379.479 247.181 378.186 253.682 375.673 259.748C373.161 265.813 369.478 271.325 364.836 275.967C360.194 280.609 354.682 284.292 348.617 286.804C342.551 289.317 336.05 290.61 329.485 290.61H229.497L219.526 300.721V360.686L229.497 370.656H329.485C357.406 370.874 384.656 362.098 407.203 345.628C429.75 329.158 446.398 305.868 454.682 279.203C462.967 252.538 462.449 223.915 453.204 197.568C443.96 171.22 426.481 148.548 403.352 132.904Z" fill="white"/>
<path d="M129.369 370.095H229.357V290.048H129.369C122.245 290.047 115.205 288.514 108.725 285.554L94.6818 289.908L54.3777 329.931L50.8669 343.974C73.4686 361.041 101.047 370.218 129.369 370.095Z" fill="white"/>
<path d="M129.369 110.435C102.277 110.597 75.9118 119.216 53.9563 135.089C32.0009 150.963 15.5512 173.297 6.90502 198.972C-1.74119 224.648 -2.15223 252.383 5.72933 278.304C13.6109 304.225 29.3914 327.036 50.8669 343.553L108.866 285.554C101.495 282.224 95.0426 277.156 90.0616 270.784C85.0807 264.412 81.7199 256.927 80.2678 248.971C78.8157 241.014 79.3155 232.825 81.7244 225.104C84.1333 217.383 88.3794 210.362 94.0983 204.643C99.8172 198.925 106.838 194.679 114.559 192.27C122.279 189.861 130.469 189.361 138.426 190.813C146.382 192.265 153.867 195.626 160.239 200.607C166.611 205.588 171.679 212.04 175.009 219.411L233.008 161.412C220.834 145.498 205.145 132.615 187.165 123.772C169.186 114.928 149.405 110.364 129.369 110.435Z" fill="white"/>
<path d="M726.768 314.203C709.553 314.422 692.471 311.164 676.545 304.625C660.619 298.086 646.177 288.399 634.083 276.145C621.609 264.412 611.709 250.214 605.013 234.452C598.316 218.69 594.969 201.708 595.183 184.583C594.978 167.46 598.329 150.481 605.025 134.72C611.721 118.96 621.616 104.76 634.083 93.0215C646.117 80.641 660.533 70.8244 676.462 64.1633C692.391 57.5021 709.503 54.1341 726.768 54.2621C743.219 54.0429 759.55 57.0958 774.81 63.2434C790.071 69.3911 803.957 78.5108 815.662 90.0724L790.665 115.491C773.547 98.9471 750.572 89.8582 726.768 90.2128C714.421 90.0612 702.176 92.4798 690.813 97.3151C679.45 102.15 669.218 109.296 660.765 118.299C651.981 127.014 645.051 137.417 640.393 148.881C635.735 160.345 633.445 172.633 633.662 185.005C633.559 197.236 635.904 209.364 640.558 220.675C645.213 231.986 652.083 242.252 660.765 250.868C678.156 268.198 701.624 278.057 726.174 278.346C750.724 278.634 774.417 269.33 792.21 252.412C803.226 240.349 809.984 225.008 811.449 208.738H727.19V172.787H846.417C847.589 180.027 848.059 187.364 847.821 194.695C848.563 209.867 846.22 225.032 840.934 239.273C835.647 253.515 827.528 266.536 817.067 277.55C805.435 289.66 791.382 299.183 775.823 305.499C760.265 311.814 743.55 314.78 726.768 314.203ZM1003.98 290.329C987.981 305.667 966.674 314.23 944.509 314.23C922.344 314.23 901.037 305.667 885.036 290.329C877.072 282.607 870.8 273.314 866.617 263.04C862.435 252.766 860.434 241.734 860.741 230.645C860.443 219.558 862.448 208.529 866.629 198.256C870.811 187.982 877.079 178.689 885.036 170.962C901.053 155.656 922.355 147.115 944.509 147.115C966.663 147.115 987.965 155.656 1003.98 170.962C1011.94 178.689 1018.21 187.982 1022.39 198.256C1026.57 208.529 1028.58 219.558 1028.28 230.645C1028.57 241.744 1026.54 252.782 1022.34 263.057C1018.13 273.332 1011.83 282.619 1003.84 290.329H1003.98ZM911.297 266.877C915.553 271.422 920.696 275.045 926.409 277.522C932.122 279.999 938.282 281.277 944.509 281.277C950.736 281.277 956.896 279.999 962.609 277.522C968.322 275.045 973.465 271.422 977.721 266.877C982.362 262.081 985.995 256.404 988.407 250.181C990.819 243.959 991.961 237.316 991.765 230.645C991.972 223.952 990.835 217.285 988.424 211.038C986.012 204.791 982.373 199.091 977.721 194.273C973.409 189.775 968.231 186.195 962.499 183.75C956.767 181.304 950.6 180.044 944.369 180.044C938.137 180.044 931.97 181.304 926.238 183.75C920.506 186.195 915.328 189.775 911.016 194.273C906.365 199.091 902.726 204.791 900.314 211.038C897.902 217.285 896.766 223.952 896.973 230.645C896.795 237.326 897.959 243.974 900.395 250.198C902.831 256.421 906.49 262.092 911.156 266.877H911.297ZM1186.83 290.329C1170.82 305.667 1149.52 314.23 1127.35 314.23C1105.19 314.23 1083.88 305.667 1067.88 290.329C1059.91 282.607 1053.64 273.314 1049.46 263.04C1045.28 252.766 1043.28 241.734 1043.58 230.645C1043.29 219.558 1045.29 208.529 1049.47 198.256C1053.65 187.982 1059.92 178.689 1067.88 170.962C1083.88 155.624 1105.19 147.061 1127.35 147.061C1149.52 147.061 1170.82 155.624 1186.83 170.962C1194.78 178.689 1201.05 187.982 1205.23 198.256C1209.41 208.529 1211.42 219.558 1211.12 230.645C1211.43 241.734 1209.43 252.766 1205.24 263.04C1201.06 273.314 1194.79 282.607 1186.83 290.329ZM1094.14 266.877C1098.4 271.422 1103.54 275.045 1109.25 277.522C1114.96 279.999 1121.13 281.277 1127.35 281.277C1133.58 281.277 1139.74 279.999 1145.45 277.522C1151.16 275.045 1156.31 271.422 1160.56 266.877C1165.2 262.081 1168.84 256.404 1171.25 250.181C1173.66 243.959 1174.8 237.316 1174.61 230.645C1174.81 223.952 1173.68 217.285 1171.27 211.038C1168.85 204.791 1165.22 199.091 1160.56 194.273C1156.25 189.775 1151.07 186.195 1145.34 183.75C1139.61 181.304 1133.44 180.044 1127.21 180.044C1120.98 180.044 1114.81 181.304 1109.08 183.75C1103.35 186.195 1098.17 189.775 1093.86 194.273C1089.21 199.091 1085.57 204.791 1083.16 211.038C1080.74 217.285 1079.61 223.952 1079.82 230.645C1079.64 237.326 1080.8 243.974 1083.24 250.198C1085.67 256.421 1089.33 262.092 1094 266.877H1094.14ZM1307.04 389.194C1290.2 389.729 1273.7 384.475 1260.27 374.308C1248.35 365.347 1238.96 353.442 1233.03 339.761L1265.05 326.42C1268.53 334.596 1273.98 341.784 1280.92 347.345C1288.34 353.327 1297.65 356.464 1307.18 356.192C1313.22 356.559 1319.27 355.621 1324.91 353.44C1330.56 351.259 1335.67 347.887 1339.9 343.553C1348.36 333.347 1352.53 320.261 1351.55 307.041V294.963H1350.29C1344.94 301.319 1338.18 306.342 1330.55 309.632C1322.92 312.923 1314.63 314.392 1306.33 313.922C1295.79 313.954 1285.35 311.799 1275.69 307.593C1266.02 303.387 1257.33 297.222 1250.16 289.487C1242.39 281.813 1236.25 272.642 1232.12 262.528C1227.99 252.414 1225.96 241.568 1226.15 230.645C1225.95 219.659 1227.98 208.747 1232.11 198.564C1236.23 188.38 1242.37 179.135 1250.16 171.383C1257.31 163.615 1265.99 157.419 1275.66 153.189C1285.33 148.958 1295.78 146.785 1306.33 146.807C1315.27 146.791 1324.09 148.758 1332.17 152.565C1339.16 155.618 1345.4 160.173 1350.43 165.906H1351.69V152.565H1386.52V302.125C1387.44 313.957 1385.93 325.85 1382.09 337.079C1378.25 348.307 1372.16 358.634 1364.19 367.427C1356.6 374.688 1347.63 380.355 1337.82 384.094C1328 387.833 1317.53 389.567 1307.04 389.194ZM1309.56 281.341C1315.56 281.473 1321.51 280.283 1327 277.856C1332.48 275.429 1337.37 271.825 1341.3 267.298C1349.97 257.369 1354.53 244.518 1354.08 231.347C1354.6 217.955 1350.04 204.861 1341.3 194.695C1337.37 190.161 1332.49 186.551 1327 184.123C1321.52 181.695 1315.56 180.51 1309.56 180.651C1303.4 180.525 1297.29 181.712 1291.62 184.133C1285.95 186.555 1280.87 190.155 1276.7 194.695C1267.41 204.495 1262.37 217.566 1262.66 231.067C1262.52 237.689 1263.68 244.274 1266.09 250.443C1268.5 256.613 1272.11 262.245 1276.7 267.017C1280.85 271.601 1285.92 275.249 1291.59 277.719C1297.26 280.189 1303.38 281.423 1309.56 281.341ZM1448.45 63.6711V309.147H1411.8V63.6711H1448.45ZM1549 314.203C1538.02 314.485 1527.11 312.498 1516.93 308.365C1506.76 304.233 1497.55 298.045 1489.88 290.189C1482.09 282.39 1475.98 273.09 1471.9 262.854C1467.82 252.619 1465.86 241.66 1466.15 230.645C1465.73 219.603 1467.54 208.59 1471.48 198.264C1475.41 187.937 1481.38 178.509 1489.04 170.54C1496.25 162.935 1504.97 156.921 1514.65 152.882C1524.32 148.844 1534.73 146.87 1545.21 147.088C1554.85 146.986 1564.4 148.85 1573.3 152.565C1581.31 155.798 1588.61 160.569 1594.78 166.608C1600.08 171.728 1604.8 177.428 1608.82 183.6C1612.08 188.812 1614.86 194.312 1617.11 200.031L1620.9 209.58L1508.56 255.783C1511.95 263.589 1517.64 270.183 1524.86 274.696C1532.08 279.208 1540.49 281.427 1549 281.061C1557.28 281.083 1565.42 278.96 1572.63 274.899C1579.84 270.838 1585.88 264.978 1590.15 257.889L1618.23 276.848C1611.07 287.102 1601.89 295.797 1591.27 302.406C1578.64 310.388 1563.94 314.489 1549 314.203ZM1502.1 228.118L1576.81 197.082C1574.5 191.61 1570.39 187.097 1565.15 184.303C1559.29 180.991 1552.65 179.294 1545.91 179.387C1534.48 179.683 1523.63 184.478 1515.72 192.729C1510.98 197.261 1507.31 202.783 1504.95 208.9C1502.6 215.018 1501.62 221.58 1502.1 228.118ZM1812.87 314.203C1797.29 314.472 1781.8 311.588 1767.36 305.725C1752.91 299.862 1739.8 291.14 1728.81 280.084C1717.82 269.027 1709.17 255.863 1703.4 241.383C1697.62 226.903 1694.83 211.404 1695.19 195.818C1694.83 180.232 1697.62 164.734 1703.4 150.253C1709.17 135.773 1717.82 122.609 1728.81 111.553C1739.8 100.496 1752.91 91.7741 1767.36 85.911C1781.8 80.048 1797.29 77.1644 1812.87 77.4335C1828.65 76.9402 1844.33 80.0185 1858.76 86.4383C1873.18 92.8581 1885.96 102.454 1896.15 114.508L1875.93 134.168C1868.45 124.758 1858.85 117.246 1847.92 112.243C1836.98 107.241 1825.03 104.889 1813.01 105.38C1801.45 105.119 1789.95 107.199 1779.21 111.495C1768.48 115.79 1758.72 122.213 1750.52 130.377C1742 138.943 1735.35 149.179 1730.97 160.441C1726.6 171.702 1724.6 183.747 1725.1 195.818C1724.6 207.889 1726.6 219.934 1730.97 231.196C1735.35 242.457 1742 252.693 1750.52 261.26C1758.72 269.423 1768.48 275.846 1779.21 280.141C1789.95 284.437 1801.45 286.517 1813.01 286.257C1826.43 286.407 1839.72 283.531 1851.87 277.842C1864.03 272.152 1874.75 263.797 1883.23 253.395L1903.45 273.618C1892.86 286.279 1879.57 296.404 1864.55 303.249C1848.36 310.723 1830.7 314.466 1812.87 314.203ZM1957.8 309.147H1928.73V82.3486H1957.8V309.147ZM2005.27 172.647C2020.5 157.519 2041.09 149.029 2062.56 149.029C2084.03 149.029 2104.63 157.519 2119.86 172.647C2127.31 180.511 2133.13 189.771 2136.98 199.894C2140.84 210.016 2142.66 220.801 2142.33 231.628C2142.66 242.455 2140.84 253.241 2136.98 263.363C2133.13 273.486 2127.31 282.745 2119.86 290.61C2104.63 305.737 2084.03 314.227 2062.56 314.227C2041.09 314.227 2020.5 305.737 2005.27 290.61C1997.82 282.745 1992 273.486 1988.14 263.363C1984.28 253.241 1982.47 242.455 1982.8 231.628C1982.47 220.801 1984.28 210.016 1988.14 199.894C1992 189.771 1997.82 180.511 2005.27 172.647ZM2026.89 272.354C2031.47 277.194 2036.99 281.05 2043.11 283.685C2049.23 286.32 2055.83 287.679 2062.49 287.679C2069.16 287.679 2075.75 286.32 2081.87 283.685C2087.99 281.05 2093.51 277.194 2098.09 272.354C2103.17 266.902 2107.12 260.493 2109.7 253.501C2112.28 246.509 2113.44 239.074 2113.12 231.628C2113.44 224.183 2112.28 216.747 2109.7 209.756C2107.12 202.764 2103.17 196.355 2098.09 190.903C2093.51 186.062 2087.99 182.207 2081.87 179.572C2075.75 176.937 2069.16 175.578 2062.49 175.578C2055.83 175.578 2049.23 176.937 2043.11 179.572C2036.99 182.207 2031.47 186.062 2026.89 190.903C2021.81 196.355 2017.87 202.764 2015.29 209.756C2012.71 216.747 2011.54 224.183 2011.87 231.628C2011.58 239.06 2012.78 246.475 2015.38 253.442C2017.98 260.409 2021.94 266.789 2027.03 272.213L2026.89 272.354ZM2303.4 309.147H2275.32V287.661H2274.47C2269.48 295.822 2262.4 302.509 2253.97 307.041C2245.22 312.11 2235.29 314.775 2225.18 314.764C2216.98 315.326 2208.75 314.026 2201.11 310.962C2193.48 307.898 2186.63 303.149 2181.09 297.07C2170.45 283.614 2165.1 266.73 2166.06 249.604V154.11H2195.13V244.267C2195.13 273.196 2207.91 287.661 2233.47 287.661C2239.15 287.838 2244.79 286.656 2249.92 284.213C2255.05 281.771 2259.52 278.138 2262.96 273.618C2270.49 264.069 2274.51 252.217 2274.33 240.054V154.11H2303.4V309.147ZM2402.13 314.203C2392.27 314.235 2382.52 312.131 2373.55 308.034C2364.58 303.937 2356.6 297.944 2350.17 290.47C2335.61 274.389 2327.81 253.313 2328.4 231.628C2327.81 209.944 2335.61 188.868 2350.17 172.787C2356.6 165.312 2364.58 159.32 2373.55 155.223C2382.52 151.126 2392.27 149.021 2402.13 149.054C2413.18 148.88 2424.09 151.487 2433.87 156.637C2442.46 160.96 2449.73 167.507 2454.93 175.596H2456.19L2454.93 154.11V82.3486H2484V309.147H2455.91V287.661H2454.65C2449.45 295.75 2442.18 302.297 2433.58 306.619C2423.89 311.724 2413.08 314.33 2402.13 314.203ZM2406.9 287.661C2413.47 287.757 2419.99 286.454 2426.02 283.839C2432.05 281.224 2437.45 277.357 2441.87 272.494C2451.75 261.25 2456.79 246.567 2455.91 231.628C2456.79 216.689 2451.75 202.006 2441.87 190.762C2437.42 185.873 2432 181.967 2425.96 179.294C2419.91 176.622 2413.37 175.241 2406.76 175.241C2400.15 175.241 2393.61 176.622 2387.57 179.294C2381.52 181.967 2376.1 185.873 2371.65 190.762C2366.75 196.293 2362.98 202.737 2360.57 209.725C2358.16 216.714 2357.16 224.11 2357.61 231.488C2357.16 238.866 2358.16 246.262 2360.57 253.25C2362.98 260.239 2366.75 266.683 2371.65 272.213C2376.08 277.163 2381.52 281.104 2387.6 283.769C2393.68 286.434 2400.26 287.761 2406.9 287.661Z" fill="white"/>
</svg>
