<svg width="108" height="20" viewBox="0 0 108 20" fill="none" xmlns="http://www.w3.org/2000/svg">
<path fill-rule="evenodd" clip-rule="evenodd" d="M49.412 6.856C49.412 3.233 47.036 0.479998 42.138 0.479998H32.284V19.52H36.922V4.595H42.167C44.109 4.595 44.804 5.697 44.804 6.971C44.804 8.276 44.079 9.348 42.138 9.348H37.646L44.02 19.52H49.295C49.295 19.52 44.948 12.68 44.977 12.68C47.672 12.043 49.412 10.16 49.412 6.856ZM24.518 0.479998H29.155V19.52H24.518V0.479998ZM12.665 12.333H8.761L11.649 6.479H11.707L18.2 19.52H23.532L13.824 0.479998H9.709L0 19.52H5.216L6.789 16.332H14.606L12.665 12.333ZM66.338 9.638C67.816 8.826 68.598 7.522 68.598 5.609C68.598 2.537 66.309 0.478998 62.455 0.478998H51.615V19.52H62.89C66.832 19.52 69.411 17.404 69.411 14.188C69.411 11.956 68.164 10.275 66.338 9.638ZM56.254 4.508H62.456C63.383 4.508 64.108 5.233 64.108 6.189C64.108 7.145 63.383 7.869 62.426 7.869H56.254V4.509V4.508ZM62.571 15.521H56.253V11.637H62.571C63.701 11.637 64.571 12.449 64.571 13.55C64.571 14.68 63.701 15.521 62.571 15.521ZM84.045 11.116C84.045 14.006 82.712 15.608 80.075 15.608C77.467 15.608 76.133 14.006 76.133 11.116V0.479998H71.381V10.768C71.381 16.651 74.481 19.926 80.075 19.926C85.668 19.926 88.798 16.651 88.798 10.768V0.479998H84.045V11.116ZM101.173 8.044C96.771 6.972 95.811 6.87 95.811 5.609C95.811 4.634 96.913 4.16 98.767 4.16C101.231 4.16 103.854 4.778 105.346 5.696L106.824 1.813C104.912 0.798998 102.1 0.072998 98.825 0.072998C93.927 0.072998 91.175 2.509 91.175 5.783C91.175 9.307 93.231 10.738 97.955 11.753C101.634 12.564 102.418 13.07 102.418 14.1C102.418 15.22 101.404 15.723 99.405 15.723C96.507 15.723 93.884 15.02 91.783 13.869L90.363 17.926C92.653 19.143 96.072 19.926 99.52 19.926C104.331 19.926 107.2 17.694 107.2 13.956C107.201 10.956 105.26 9.029 101.173 8.044Z" fill="#00205B"/>
</svg>
