<svg fill="none" xmlns="http://www.w3.org/2000/svg" viewBox="0 0 120 37"><path d="M44.15 11.02c0 .6-.07 1.17-.2 1.7l-1.13-1.37h-6.05l4.34 5.21c-1 .56-2.21.87-3.58.87-4 0-6.65-2.56-6.65-6.41s2.65-6.41 6.65-6.41c3.97.01 6.62 2.56 6.62 6.41zm4.97-2.84C47.89 4.04 43.98.24 37.53.24c-7.91 0-12.04 5.7-12.04 10.78 0 5.36 4.34 10.78 12.04 10.78.14 0 .28-.02.41-.02l3.9-4.75 3.06-3.56 3.99-5.02.23-.27zM11.58 5.82l3.39 8.16H8.5l3.08-8.16zM8.47.8L0 21.8h5.54l1.57-4.16h9.39l1.72 4.16h5.64L14.53.8H8.47zm104.67 1.08C110.49.74 108.37.25 106.03.25c-4.87 0-8.01 2.4-8.01 6.04 0 7.54 10.69 6.28 10.69 9.73 0 1.23-1.08 1.94-3.08 1.94-2.31 0-4.16-.71-7.17-2.71v4.53c2.09 1.08 3.91 2.03 7.58 2.03 4.68 0 8.07-2.34 8.07-6.38 0-7.33-10.69-6.44-10.69-9.61 0-1.05 1.2-1.73 3.08-1.73 1.79 0 3.6.53 6.65 1.88V1.88h-.01zM90.56.52h-5.24v21h5.24v-21zM72.4.52v11.7c0 3.76-2.56 5.21-5.33 5.21-3.02 0-5.21-1.82-5.21-4.84V.52h-5.24v11.95c0 6.5 4.4 9.33 10.5 9.33 5.76 0 10.5-2.4 10.5-9.36V.52H72.4zm40.67 29.13h-2.98v5.47h3.05v-.35h-2.62v-2.22H113v-.35h-2.49V30h2.56v-.35zm-6.58.39c-.77-.35-1.26-.46-1.88-.46-1.69 0-2.93 1.19-2.93 2.79 0 1.62 1.27 2.82 2.97 2.82.63 0 1.29-.15 1.94-.46v-2.09h-1.58v.35h1.15v1.48c-.43.21-.87.34-1.5.34-1.72 0-2.53-1.19-2.53-2.41 0-1.39 1.03-2.41 2.41-2.41.66 0 1.27.18 1.94.55v-.5h.01zm-7.8-.39h-.43v4.78l-4.14-4.78h-.36v5.47h.42v-4.78l4.15 4.78h.35v-5.47h.01zm-9.01 3.22h-2.35l1.17-2.57 1.18 2.57zm-1.06-3.26h-.23l-2.53 5.51h.44l.87-1.89h2.67l.87 1.89h.44l-2.53-5.51zm-5.83.04h-.42v2.53h-3.65v-2.53h-.43v5.47h.43v-2.59h3.65v2.59h.42v-5.47zm-7.77.38c-.67-.3-1.31-.46-1.92-.46-1.5 0-2.87 1.14-2.87 2.81 0 1.6 1.24 2.8 2.91 2.8.63 0 1.31-.18 1.94-.51v-.44c-.75.39-1.33.56-1.95.56-1.43 0-2.45-.99-2.45-2.41 0-1.38 1.03-2.42 2.39-2.42.65 0 1.27.17 1.95.53v-.46zm-9.91 1.98l-2.08-2.36h-.54l2.35 2.67-2.48 2.8h.54l2.21-2.5 2.21 2.5h.54l-2.49-2.8 2.35-2.67h-.54l-2.07 2.36zm-5.47-2.36h-2.98v5.47h3.05v-.35h-2.62v-2.22h2.49v-.35h-2.49V30h2.56v-.35h-.01zm58.39-28.36c.33 0 .64.08.92.25.28.17.51.39.67.67.17.28.25.59.25.92 0 .33-.08.64-.25.92a1.84 1.84 0 01-1.59.92c-.33 0-.64-.08-.92-.25-.29-.16-.51-.39-.67-.67-.17-.28-.25-.59-.25-.92 0-.33.08-.64.25-.92a1.84 1.84 0 011.59-.92zm0 .31c-.42 0-.79.15-1.08.45-.3.3-.45.66-.45 1.09 0 .42.15.79.45 1.09.3.3.66.45 1.09.45.42 0 .78-.15 1.08-.45.3-.3.45-.66.45-1.08 0-.42-.15-.78-.45-1.09-.31-.31-.67-.46-1.09-.46zm-.41 2.52h-.32V2.14h.69c.24 0 .41.02.51.06.1.04.18.1.24.19s.09.18.09.29c0 .15-.05.28-.16.38-.11.1-.24.16-.41.18.07.03.14.08.21.15.07.07.15.19.25.35l.24.39h-.39l-.17-.31c-.13-.22-.22-.37-.3-.43-.07-.07-.17-.1-.29-.1h-.19v.83zm0-1.71v.6h.39c.17 0 .29-.02.36-.07.08-.05.12-.12.12-.23 0-.11-.04-.19-.11-.23-.07-.04-.21-.07-.39-.07h-.37zm-68 6.47l-3.99 5.01-3.06 3.56L26.53 37h6.04l13.06-15.98.49-.57 1.09 1.35h6.06l-4.1-4.96 6.42-7.92.23-.28v-7.3l-6.2 7.54z" fill="#fff"/></svg>