<svg viewBox="0 0 144 56" xmlns="http://www.w3.org/2000/svg" xml:space="preserve" xmlns:vectornator="http://vectornator.io" clip-rule="evenodd" stroke-linecap="round" stroke-linejoin="round"><g vectornator:layerName="Untitled" fill-rule="evenodd"><path d="M22.193.414c-.41.25-.819.882-1.146 1.773a17.908 17.908 0 00-.493 1.526l-.116.48c-.047.195-.092.39-.133.585-.029.138-.067.307-.084.376-.103.4-.336 1.648-.46 2.465a30.59 30.59 0 00-.191 1.295c-.088.704-.13 1.032-.184 1.44-.025.196-.064.52-.086.721l-.082.752a99.023 99.023 0 00-.254 2.81c-.073.929-.096 2.89-.037 3.174.028.138.05.298.05.355-.009.267.24.915.494 1.295.15.222.755.836.825.836.02 0 .07.032.115.073.09.08.51.344.55.344.013 0 .12.063.237.14.193.128 1.237.654 1.297.654.013 0 .113.04.222.088.23.101.264.115.66.262.38.142.377.143.746-.089.353-.222.39-.282.302-.48l-.21-.463a2.827 2.827 0 01-.15-.368c0-.04-1.62-1.123-1.813-1.211-.06-.027-.11-.064-.11-.082 0-.018-.037-.044-.083-.059a.397.397 0 01-.136-.078 1.984 1.984 0 00-.26-.174 4.06 4.06 0 01-.25-.154 8.765 8.765 0 00-.315-.207 3.757 3.757 0 01-.386-.279l-.115-.105v-3.73l-.103-.055c-.315-.168-.294-.755.034-.958.605-.372 1.252.398.753.897l-.14.141v3.513l.197.123c.11.068.218.14.243.16.024.021.09.062.144.092.054.029.12.069.143.089.024.02.157.108.295.195.138.087.5.322.804.522.695.457.673.46.423-.086-.237-.52-.476-1.038-.716-1.556a61.898 61.898 0 00-.472-1.02c-.05-.102-.06-.752-.06-4.232v-4.11L22 7.959c-.453-.427-.072-1.126.55-1.01.46.087.597.789.202 1.047l-.109.071v4.048c0 3.894.004 4.054.08 4.224l.235.512c.085.183.182.397.215.475.078.18.104.154.37-.35a5.05 5.05 0 01.234-.416c.02-.022.036-1.041.036-2.265v-2.226l-.106-.07c-.32-.208-.31-.74.018-.973.602-.429 1.296.494.715.952l-.126.099v4.552l-.119.215c-.065.118-.16.286-.209.372-.138.242-.23.409-.356.64l-.115.213.195.435.361.785c.24.507.41.882.41.902 0 .015.21.473.407.893.088.185.14.198.398.098.155-.058.311-.11.47-.157.368-.107.373-.114.318-.526-.046-.344-.1-1.117-.175-2.458-.06-1.085-.12-3.2-.166-5.765-.068-3.868-.164-5.46-.41-6.746l-.087-.46a20.81 20.81 0 00-.252-1.106c-.202-.735-.385-1.288-.544-1.65a3.103 3.103 0 01-.104-.272c-.343-1.141-1.5-2.02-2.143-1.628m11.604.381c-.228.063-.5.179-.5.213 0 .018-.024.032-.05.032-.043 0-.31.188-.619.435-.324.26-1.053 1.04-1.39 1.486-.09.12-.18.238-.273.355-.019.023-.135.192-.258.376a5.52 5.52 0 01-.25.355c-.023.02-.354.57-.59.982-.326.57-.703 1.31-1 1.963a31.34 31.34 0 01-.212.457.968.968 0 00-.08.201c0 .02-.047.14-.104.265a1.42 1.42 0 00-.105.281.16.16 0 01-.036.093c-.02.022-.115.256-.21.52-.097.264-.193.518-.214.564-.02.046-.069.187-.107.313-.038.127-.124.4-.19.606-.188.585-.196.611-.268.877l-.103.376c-.14.511-.249.966-.293 1.233a21.87 21.87 0 01-.087.501c-.334 1.763-.38 3.594-.174 7.097.02.344.08.446.23.398.051-.016.28-.041.51-.055l.414-.026.034-.125c.02-.069.054-.313.078-.543.114-1.099.14-1.338.25-2.36l.17-1.566.101-1.003c.034-.345.082-.805.105-1.024.042-.387.082-.762.161-1.524.05-.474.085-.688.132-.794.021-.046.16-.375.307-.73a57.5 57.5 0 01.73-1.717c.046-.105.125-.293.173-.418.048-.124.115-.287.148-.362.056-.126.09-.202.244-.564l.184-.428c.07-.16.214-.508.322-.772.107-.265.221-.534.252-.598.05-.104.048-.133-.024-.25-.396-.65.614-1.213 1.036-.577.21.316-.042.881-.393.881-.057 0-.106.056-.159.178-.278.642-.55 1.286-.82 1.932a43.772 43.772 0 01-.535 1.242c-.048.11-.088.21-.088.224 0 .024-.046.134-.209.497-.205.457-.4.92-.585 1.385a.924.924 0 01-.057.154c-.065.149-.128.648-.34 2.732-.025.238-.044.251.551-.363.506-.522.532-.557.71-.971.247-.583.242-.573.34-.786.176-.395.25-.567.28-.668.017-.057.074-.198.126-.313.113-.25.224-.5.331-.752.153-.366.15-.348.064-.491-.3-.493.326-1.088.826-.784.46.282.38.904-.144 1.095-.14.051-.154.071-.329.493-.1.245-.204.489-.31.731-.052.115-.12.27-.15.345l-.118.271-.15.366c-.135.33-.198.477-.45 1.044-.057.13-.332.443-.897 1.02l-.815.833-.026.316c-.032.369-.07.727-.237 2.259-.02.195-.068.656-.103 1.024l-.1 1.023c-.045.45-.053.435.28.499.154.03.383.082.51.117.48.131.468.134.6-.163.155-.347.205-.462.34-.787.062-.15.146-.347.186-.439.041-.092.126-.29.19-.439.062-.149.147-.346.188-.438.183-.41.208-.476.208-.53a.17.17 0 01.036-.099c.02-.022.124-.265.233-.54.11-.277.222-.558.251-.627.064-.148.202-.503.433-1.107l.28-.731c.132-.339.502-1.39.713-2.026a9.4 9.4 0 01.185-.522c.022-.046.106-.3.188-.564.154-.502.31-1.004.47-1.504a10.383 10.383 0 00.175-.595l.08-.282c.142-.5.655-2.509.716-2.8l.126-.584c.108-.5.18-.875.268-1.378.038-.219.086-.482.106-.585.02-.104.058-.338.085-.522.025-.18.054-.357.086-.535.285-1.48-.484-2.583-1.59-2.279M72.895 24.14v3.3h1.546v-2.381h2.423v-1.337h-2.423v-1.504H77.7v-.663c0-.653 0-.664-.094-.69-.052-.013-1.132-.024-2.402-.025h-2.308v3.3m5.522-.22c.01 2.255.027 3.109.063 3.185.027.058.06.156.073.22l.025.115h1.68l-.062-.094a2.823 2.823 0 01-.162-.345l-.1-.25-.012-2.956-.013-2.956h-1.505l.013 3.081m3.856-1.406c-1.146.255-1.61.975-1.607 2.49.003 1.818.72 2.6 2.38 2.6 1.02 0 2.137-.531 2.04-.97-.008-.03.031-.149.085-.262.15-.31.161-.348.211-.674.198-1.311-.142-2.525-.818-2.922-.454-.266-1.654-.403-2.29-.262m3.404.14c0 .034.017.105.038.157.022.053.127.378.234.723.154.495.532 1.682.897 2.82l.19.595.157.49h1.816l.022-.114c.012-.064.041-.181.064-.261.022-.08.08-.288.126-.46.124-.457.25-.913.378-1.368.123-.444.152-.48.205-.258.025.102.085.326.135.498.2.697.234.82.328 1.177.046.176.114.425.152.553l.067.234h1.781l.085-.22a5.26 5.26 0 00.128-.365c.08-.274.678-2.165 1.131-3.572l.19-.595.027-.094h-1.546l-.09.303c-.05.166-.126.406-.166.533-.05.16-.099.32-.145.48-.07.252-.146.502-.225.752l-.214.68c-.143.457-.156.472-.21.253-.039-.152-.08-.303-.124-.453-.046-.16-.089-.32-.13-.48-.04-.154-.082-.307-.128-.46a64.775 64.775 0 01-.393-1.369l-.067-.241-.653.012-.653.011-.14.48c-.15.517-.222.773-.344 1.233-.053.195-.109.39-.166.584-.058.192-.113.385-.166.578-.082.303-.127.39-.127.246a.602.602 0 00-.039-.185c-.046-.112-.219-.671-.565-1.83-.239-.798-.284-.943-.319-1.033-.046-.12-1.54-.152-1.54-.033m-2.209 1.043c.355.148.496.767.403 1.775-.059.653-.176.837-.584.92-.877.18-1.236-.425-1.083-1.82.065-.592.143-.762.401-.876.168-.074.686-.074.863 0m-60.096 2.759c-.137.05-.306.114-.375.142-.07.028-.182.071-.25.096-.28.103-.44.178-.44.207 0 .017-.057.043-.128.059-.268.059-1.698.855-1.835 1.02a3.248 3.248 0 01-.239.184c-.279.203-.51.465-.675.767-.074.133-.167.299-.208.367-.076.127-.09.169-.19.543-.162.599-.192 2.303-.07 3.843.154 1.932.315 3.493.502 4.888.022.16.06.47.084.689.024.218.062.5.083.627.022.126.06.361.085.522l.105.647.084.502c.136.733.282 1.464.44 2.193.026.137.075.35.107.47l.123.46a20.47 20.47 0 00.445 1.389l.08.187c.59 1.485 1.201 1.988 1.98 1.63.187-.085.815-.698.815-.795 0-.034.015-.062.034-.062.16 0 .857-1.863 1.133-3.029l.086-.355c.02-.08.057-.259.081-.397s.062-.335.085-.438c.238-1.08.35-2.88.418-6.788.076-4.237.204-7.233.362-8.443l.022-.17-.526-.174c-.653-.215-.616-.217-.734.046l-.222.49-.375.836c-.035.08-.16.35-.277.596-.075.154-.146.31-.213.47 0 .01-.057.136-.126.282l-.127.264.142.27c.164.314.336.624.514.93l.14.242v4.558l.101.08c.351.275.322.76-.06.991-.605.37-1.2-.488-.669-.965l.127-.114v-4.378l-.167-.308c-.087-.16-.173-.322-.258-.485-.05-.097-.105-.177-.122-.177-.032 0-.296.535-.465.94-.033.086-.074.17-.123.248-.05.058-.045 8.21.006 8.21.022 0 .08.043.128.095a.596.596 0 01-.658.97c-.398-.158-.46-.827-.098-1.02.086-.047.086-.054.086-4.177 0-3.979.003-4.136.08-4.29.044-.09.112-.237.152-.329.04-.092.143-.317.228-.5.15-.327.3-.654.448-.983l.22-.48c.34-.73.335-.71.146-.624-.117.053-2.11 1.344-2.224 1.44-.04.034-.052.446-.052 1.797v1.754l.127.114c.297.266.216.774-.15.948-.607.288-1.142-.476-.667-.95l.147-.147v-1.834c0-1.404.012-1.85.052-1.9.05-.064 2.351-1.584 2.58-1.704a.642.642 0 00.125-.08c.046-.056.291-.213.332-.213.024 0 .044-.017.044-.037 0-.02.058-.06.13-.09.128-.053.207-.19.518-.897.14-.32.135-.333-.246-.564-.13-.078-.235-.157-.235-.175 0-.06-.268-.025-.523.07m5.85.982c-.178.046-.355.088-.533.125-.298.06-.286.034-.238.505l.102 1.02c.033.345.08.806.104 1.024.024.218.062.566.083.773l.084.773c.024.218.06.543.076.721l.032.325.604.612c1.135 1.152 1.02 1.015 1.18 1.391.034.08.111.255.171.388.06.132.11.25.11.26 0 .023.182.46.651 1.555l.117.272.15.355c.06.136.12.22.162.22.444 0 .662.688.323 1.02-.477.468-1.285-.118-.94-.683.067-.112.076-.16.042-.23-.082-.18-.16-.363-.237-.546l-.247-.585c-.05-.118-.099-.236-.147-.355l-.15-.366-.252-.584a16.07 16.07 0 00-.14-.324l-.15-.334c-.068-.155-1.034-1.19-1.11-1.19-.033 0-.024.152.05.803l.08.731.087.804c.026.242.074.498.106.57.025.05.044.104.058.158 0 .014.04.114.09.223l.141.323.145.335c.117.263.175.401.46 1.086.04.1.114.275.292.69l.188.438.142.323c.048.11.088.21.088.222 0 .013.047.127.104.252.058.126.105.237.105.247 0 .01.05.127.11.26.06.132.132.297.161.367l.142.323c.048.11.088.217.088.24 0 .024.102.088.227.144.37.163.51.557.305.863-.417.624-1.423.06-1.033-.58.093-.15.11-.078-.162-.687a1.743 1.743 0 01-.089-.222c0-.014-.047-.127-.104-.253a2.676 2.676 0 01-.105-.246c0-.01-.049-.127-.109-.26s-.132-.298-.16-.367l-.608-1.44a66.14 66.14 0 00-.31-.732l-.16-.355c-.05-.11-.095-.22-.136-.334a4.125 4.125 0 00-.135-.334c-.09-.2-.178-.403-.263-.606-.044-.107-.07-.274-.126-.794l-.085-.793c-.064-.592-.126-1.184-.184-1.776a216.467 216.467 0 00-.357-3.352c-.058-.523-.113-1.047-.165-1.57-.052-.518-.1-.696-.172-.65-.026.014-.25-.007-.499-.048-.554-.093-.583-.08-.583.276 0 .133-.017.38-.038.548-.308 2.432-.01 6.48.624 8.514.018.057.074.245.124.418.147.504.175.594.254.814.04.115.112.331.157.48.085.275.276.83.34.982.02.046.074.173.123.282.048.11.087.222.087.253 0 .03.016.072.035.094.038.058.068.12.09.186.15.398.338.811.762 1.67.255.517.475.95.488.961.027.023.204.341.274.49.024.053.057.095.075.095.017 0 .03.03.03.063 0 .034.017.062.038.062.02 0 .046.036.057.08.02.078.671 1.063.771 1.166.03.03.054.068.054.084a.63.63 0 00.115.155c.063.07.18.21.26.313.46.594 1.125 1.233 1.645 1.58 1.493.998 2.665.031 2.327-1.919-.03-.18-.06-.36-.088-.54a19.57 19.57 0 00-.082-.5c-.02-.104-.055-.3-.08-.44a44.738 44.738 0 00-.295-1.545 8.64 8.64 0 01-.084-.376 4.893 4.893 0 00-.084-.355 5.355 5.355 0 01-.085-.355 13.88 13.88 0 00-.113-.48c-.033-.125-.065-.25-.096-.376a9.648 9.648 0 00-.082-.314 6.559 6.559 0 01-.087-.355 7.35 7.35 0 00-.127-.48l-.173-.585a38.46 38.46 0 00-.322-1.065 66.007 66.007 0 00-.81-2.49 33.1 33.1 0 01-.215-.6 26.15 26.15 0 00-.355-.983 40.642 40.642 0 01-.167-.438c-.06-.162-.123-.322-.19-.48a5 5 0 01-.124-.335 5.35 5.35 0 00-.124-.334 9.3 9.3 0 01-.124-.314 9.608 9.608 0 00-.268-.636 1.13 1.13 0 01-.089-.253.165.165 0 00-.035-.094.858.858 0 01-.09-.186 24.373 24.373 0 00-.318-.783c-.04-.098-.093-.178-.115-.178-.022 0-.028-.012-.013-.027.015-.015.006-.053-.02-.085a.274.274 0 01-.053-.129.958.958 0 00-.077-.229 14.334 14.334 0 01-.13-.292l-.282-.658c-.283-.664-.244-.639-.767-.502" fill="#64bc44"/><path d="M99.685 19.344c-.189.091-.178.674.014.746.406.155.682.004.682-.373 0-.387-.316-.557-.696-.373M32.44 20.676c-.898.198-1.64.8-1.343 1.09.126.122.306.27.445.367.08.056.156.112.167.125.052.057.42.292.627.402.126.067.24.132.25.144.048.053 1.105.542 1.17.542.022 0 .177.044.344.098.582.188.658.207.844.211.564.012.397-1.396-.26-2.179-.516-.617-1.494-.965-2.244-.8m7.916.042c-1.627.084-2.324.719-2.57 2.336-.11.728-.06 2.019.1 2.631.398 1.524 1.595 2.11 3.806 1.86 1.03-.116 1.103-.138 1.066-.329-.163-.84-.273-1.284-.312-1.26-.405.25-2.088.206-2.487-.066-.71-.483-.805-2.78-.142-3.424.377-.366 1.392-.438 2.552-.18.121.027.124.02.243-.507l.087-.376c.096-.4.077-.494-.108-.53a8.514 8.514 0 00-2.235-.155m55.494.05c-.588.097-.794.172-.784.283.026.256.145.546.215.518.8-.326 2.084-.288 2.413.072.205.224.377 1.038.22 1.036-.033 0-.247-.028-.477-.062-1.863-.27-2.695.213-2.693 1.563 0 .741.218 1.213.647 1.4.375.165.411.17 1.295.168.91-.001 1.21-.044 1.765-.255l.177-.068v-1.7c0-1.817-.013-1.944-.237-2.361-.283-.528-1.385-.785-2.54-.594m3.78 2.474v2.401h.668v-4.804h-.668v2.403m-38.39-1.864c-.102.04-.26.104-.349.143a1.53 1.53 0 01-.178.07c-.009 0-.096.036-.193.08-.118.053-.236.104-.355.154l-.177.075v.694h-.752v1.295h.752v1.096c0 1.205.04 1.561.223 1.953.29.623 1.263.819 2.596.523.39-.087.383-.073.272-.564-.033-.15-.063-.302-.09-.453-.047-.256-.053-.264-.157-.238-1.195.294-1.34.148-1.34-1.34v-.977h1.503v-1.295h-1.504v-.647c0-.357-.013-.646-.03-.644a2.243 2.243 0 00-.22.075m-34.4.01c-.36.057-.716.14-1.065.25a6.939 6.939 0 00-.48.162c-.046.022-.19.085-.32.14-1.896.818-2.36 2.794-.905 3.854.123.089.256.191.296.228.04.038.126.094.188.126a.96.96 0 01.135.08c.05.052.684.335.75.335a.33.33 0 01.118.037c.04.02.157.06.26.089.104.027.235.066.293.084.057.019.236.055.396.082l.52.086c1.243.213 2.58-.147 3.31-.892.376-.385.375-.381.202-.844-.198-.529-.26-1.098-.165-1.517.102-.45.14-.58.213-.727.124-.25.102-.33-.182-.637-.235-.256-.643-.565-.745-.565a.041.041 0 01-.04-.042c0-.023-.034-.042-.076-.042a.193.193 0 01-.115-.038c-.244-.231-1.84-.384-2.587-.248m-6.183 1.063c-.137.008-.415.037-.616.064l-.366.049.01 1.589.012 1.59.376.055c.691.103 2.453.028 2.83-.12.143-.057.142-.068-.01-.328a1.75 1.75 0 01-.126-.236.952.952 0 00-.056-.154c-.264-.617-.182-1.481.19-2.025.145-.21.133-.279-.057-.314a49.17 49.17 0 01-.432-.085c-.302-.061-1.312-.11-1.755-.085m24.008.102c-.999.258-1.36.843-1.418 2.29-.077 1.925.634 2.761 2.348 2.761 1.663 0 2.402-.802 2.402-2.606 0-1.525-.459-2.221-1.637-2.486-.329-.074-1.345-.05-1.695.041m10.977-.02c-.685.115-.862.149-.982.187l-.314.098-.188.059-.01 2.28-.01 2.282h1.504v-3.541l.185-.047c.258-.065.737-.058.907.013.38.158.41.316.41 2.123l.001 1.452h1.504v-1.515c-.003-1.432-.039-2.016-.146-2.307-.105-.29-.268-.562-.436-.728-.187-.186-.239-.21-.813-.385-.174-.052-1.244-.034-1.612.028m9.478-.002c-.939.205-1.37.797-1.498 2.055-.243 2.385 1.144 3.448 3.716 2.85.103-.024.241-.054.306-.067.131-.026.134-.094.022-.619-.125-.591-.116-.574-.283-.547-1.636.261-2.218.108-2.218-.582v-.145h2.978l-.025-.762c-.05-1.47-.366-1.98-1.362-2.188-.335-.07-1.307-.067-1.636.005m5.956-.021l-.225.088a1.07 1.07 0 00-.26.153l-.12.101v-.258H68.97v4.846h1.504v-3.238l.094-.104c.242-.268.88-.367 1.462-.227l.114.028v-1.43l-.49.003c-.27.001-.529.018-.575.038m-22.285 1.744c0 1.829.02 2.023.245 2.492.385.797 1.283 1.02 2.95.732.252-.044.4-.077.71-.16l.345-.088.178-.044v-4.592H51.76l-.01 1.786-.012 1.785-.327.058c-.385.067-.745.014-.912-.135-.215-.192-.22-.227-.236-1.917l-.015-1.577h-1.455v1.66m-29.997-1.558c-.012.012-.208.06-.437.108a44.15 44.15 0 00-1.036.227c-.43.093-.402.017-.402 1.13 0 1.088-.02 1.02.334 1.1l.418.095c.775.176 1.118.246 1.21.246.116 0 .116-2.892 0-2.915-.037-.007-.075-.002-.087.01m-17.31.208c-1.014.302-1.566.99-1.27 1.581.298.592 1.082.985 1.97.989l.407.001v-2.631l-.47.005c-.259.003-.545.028-.637.055m1.827 1.239l.01 1.312.252-.01c.854-.034 1.688-.088 1.728-.113.07-.043.066-2.296-.005-2.352-.03-.023-.288-.053-.575-.067a87.45 87.45 0 01-.97-.054l-.45-.028.01 1.312m2.737-1.109c-.018.018-.032.516-.032 1.106 0 1.194.002 1.2.264 1.152.076-.015.42-.045.762-.067.343-.022.714-.052.823-.067l.198-.028v-.973c0-.906-.005-.975-.076-.998a7.533 7.533 0 00-.679-.064 71.76 71.76 0 01-.916-.066c-.172-.015-.327-.013-.344.005m91.773.208l.177.028v1.7l-.156.038-.387.093c-.334.08-1.353.068-1.553-.018-.337-.145-.51-.656-.412-1.219.076-.436.132-.504.545-.66.081-.03 1.553.001 1.786.038m-89.037.005c-.04.016-.053.234-.053.89 0 .644.014.88.053.911.05.042.915.013 1.67-.056l.324-.03v-.807c0-.804 0-.809-.094-.83-.212-.048-1.812-.113-1.9-.078m7.04.037c-.012.012-.349.04-.748.063-.4.023-.76.052-.8.064-.068.022-.073.086-.063.762l.011.738.857.056c.47.031.922.06 1.002.063l.146.007.012-.888.011-.888h-.203a.7.7 0 00-.225.023m-4.312.093c-.013.013-.024.368-.024.79v.765h.974c.701 0 .987-.014 1.023-.05.09-.09.07-1.4-.023-1.447-.08-.041-1.912-.096-1.95-.058m54.928.327c.14.092.198.203.23.445l.026.198h-.765c-.49 0-.766-.015-.766-.042 0-.278.247-.622.482-.67.24-.05.668-.013.793.07m-20.444-.019c.362.125.43.334.431 1.33.002 1.096-.072 1.264-.606 1.375-.25.052-.604.003-.773-.108-.39-.255-.42-2.122-.042-2.501.136-.136.711-.192.99-.096M34.59 24.709c-.668.179-1.539.523-2.026.801-.35.201-1.049.653-1.107.717a4.842 4.842 0 01-.219.183c-.275.22-.28.405-.023.631 1.277 1.12 3.385.612 3.895-.937.041-.127.092-.273.112-.326.02-.053.037-.289.037-.525 0-.618-.097-.697-.669-.544" fill="#233343"/><path d="M27.583 27.636c.04.01.106.01.146 0 .04-.011.008-.02-.073-.02-.08 0-.113.009-.073.02m-8.309 1.496c-.026.057-.03.093-.01.08.055-.033.13-.185.091-.185-.018 0-.054.048-.08.105" fill="#70ad5a"/></g></svg>