<svg xmlns="http://www.w3.org/2000/svg" xml:space="preserve" xmlns:vectornator="http://vectornator.io" viewBox="0 0 144 56" clip-rule="evenodd" stroke-linecap="round" stroke-linejoin="round"><g vectornator:layerName="Layer 1" fill-rule="evenodd"><path d="M.803 19.247c-1.18.64-1.02 3.417.227 3.938.606.253 3.19.259 3.79.008 1.306-.545 1.46-3.311.22-3.952-.54-.28-3.72-.275-4.237.006m9.419-.031c-1.114.437-1.857 1.105-2.288 2.057-.259.573-.267.832-.27 8.173l-.003 7.582h5.908v-6.44c0-8.308-.243-7.74 3.316-7.74h2.23l.51.51.51.51v13.16h5.907v-7.5c0-8.57.04-8.224-1.045-9.315-1.192-1.2-1.008-1.173-8.201-1.162-4.405.008-6.294.055-6.574.165m19.934.1c-.83.32-1.68 1.12-2.059 1.937-.277.6-.283.75-.321 8.193l-.039 7.582h6.052l.004-6.531c.006-8.25-.248-7.646 3.212-7.647 3.568 0 3.348-.512 3.348 7.807v6.372h5.916l-.036-7.714-.037-7.713-.359-.61c-.434-.738-.998-1.233-1.873-1.641l-.657-.307-6.236.006c-5.902.005-6.273.019-6.915.266m19.97.1c-2.068.985-2.158 1.344-2.158 8.619 0 7.293.104 7.7 2.219 8.649l.79.354L57.382 37c5.987-.035 6.436-.053 6.866-.285.881-.475 1.431-1.014 1.798-1.76l.368-.75v-12.34l-.368-.75c-.367-.746-.917-1.285-1.798-1.76-.43-.232-.877-.25-6.893-.283l-6.434-.035-.795.378m18.062 7.209v7.582l.309.661c.751 1.613 1.923 2.163 4.603 2.159 3.229-.005 2.858.358 7.298-7.153.555-.939 1.58-2.667 2.276-3.84l2.523-4.25a149.28 149.28 0 011.459-2.43l.204-.312h-4.822l-.719 1.215c-.395.668-1.667 2.81-2.827 4.76a3597.7 3597.7 0 00-3.22 5.42L74.16 32.31l-.034-6.634-.034-6.635h-5.906l.002 7.583m21.35-7.39c-1.19.424-1.055.23-6.45 9.326a4173.147 4173.147 0 01-3.57 6.013c-.68 1.141-1.268 2.16-1.309 2.265-.062.162.28.19 2.289.19h2.36l.72-1.214c.913-1.542 5.11-8.613 6.292-10.602l.898-1.51v4.661h.464c.959 0 2.138.812 2.574 1.772.864 1.9-.629 4.268-2.692 4.268h-.345v2.626h5.908l-.003-7.648c-.004-8.636.044-8.215-1.046-9.273-1.04-1.009-4.371-1.487-6.09-.874m-29.829 3.87c.712.47.721.531.726 4.905.007 5.442.15 5.212-3.238 5.212-3.385-.001-3.322.097-3.322-5.186 0-5.29-.067-5.185 3.348-5.185 1.856 0 2.146.03 2.486.255M.046 30.792v6.236h5.909V24.556H.046v6.236" fill="#0c5c9c"/><path d="M89.622 29.162c-2.186 1.154-1.549 4.436.91 4.69 1.614.167 2.862-.91 2.862-2.47 0-1.914-2.058-3.125-3.772-2.22" fill="#ec1c2c"/></g></svg>