<svg xmlns="http://www.w3.org/2000/svg" xml:space="preserve" xmlns:vectornator="http://vectornator.io" viewBox="0 0 144 56" clip-rule="evenodd" stroke-linecap="round" stroke-linejoin="round"><g fill-rule="evenodd" vectornator:layerName="Symbols"><path d="M87.203 34.42a66.28 66.28 0 002.317.002c.173-.002.208.048.208.213-.005 3.239-.005 6.478-.001 9.717 0 .145-.02.208-.19.205a64.648 64.648 0 00-2.004 0c-.156.002-.193-.048-.183-.19.012-.169.003-.338.003-.558a6.556 6.556 0 01-1.584.818c-1.038.36-2.068.31-3.053-.161-.866-.414-1.407-1.127-1.685-2.043a5.251 5.251 0 01-.237-1.518c-.004-2.082 0-4.163-.006-6.244 0-.181.035-.243.231-.24.789.013 1.578.01 2.366.001.169-.002.212.04.212.21-.005 1.92-.013 3.842.01 5.762.005.453.009.923.2 1.355.18.408.52.62.944.673.765.096 1.455-.149 2.104-.536.107-.064.067-.17.067-.26.002-2.307.006-4.614-.004-6.92-.001-.232.05-.291.285-.286zm28.089.089c.841.344 1.457.94 1.892 1.722.421.755.619 1.577.695 2.436.047.534.058 1.064.005 1.599-.017.175-.109.14-.205.14h-3.137c-1.046 0-2.092.005-3.137-.005-.185-.002-.213.063-.193.22.137 1.087 1.035 1.861 2.021 2.006.975.142 1.889-.034 2.765-.47.418-.207.416-.198.638.211.223.41.447.818.693 1.213.086.138.051.182-.061.256-.624.407-1.322.62-2.031.815-.742.204-1.501.245-2.255.181-1.847-.156-3.408-1.186-4.097-3.053a6.328 6.328 0 01-.372-2.69c.106-1.415.58-2.692 1.618-3.698.731-.71 1.624-1.099 2.645-1.215.871-.099 1.706 0 2.516.332zm3.936-.087c.78.012 1.561.01 2.341 0 .183-.003.224.046.223.225-.007 1.815-.016 3.631.004 5.447.005.472.02.952.13 1.42.127.542.541.86 1.057.912.703.07 1.35-.122 1.957-.473.135-.077.178-.166.178-.321-.006-2.298-.004-4.596-.004-6.894v-.026c0-.286.009-.286.319-.286.764 0 1.528.005 2.292-.004.161-.001.198.047.198.201-.005 3.246-.005 6.492 0 9.738.001.164-.051.197-.202.195-.66-.008-1.32-.009-1.979 0-.16.003-.21-.043-.196-.2.013-.159.002-.32.002-.52-.216.124-.413.236-.607.35-.835.49-1.731.748-2.702.653-1.6-.158-2.79-1.183-3.114-2.823a8.835 8.835 0 01-.145-1.733 751.05 751.05 0 00-.003-5.617c-.001-.205.055-.248.251-.244zm-41.318.561c.8.601 1.262 1.423 1.53 2.367.234.825.31 1.668.288 2.522-.004.15-.03.3-.047.45-.017.152-.137.08-.206.08-1.046.005-2.092.004-3.138.004H73.27c-.27 0-.297.028-.247.304.137.752.556 1.3 1.225 1.66.623.335 1.289.327 1.973.272.634-.051 1.186-.316 1.746-.563.188-.083.27-.087.375.12.224.443.486.867.74 1.294.107.178.12.278-.1.405-.685.396-1.42.64-2.187.8-1.156.242-2.301.232-3.423-.185-.992-.368-1.75-1.012-2.297-1.913-.411-.679-.626-1.42-.718-2.203-.148-1.25-.005-2.457.552-3.59.71-1.443 1.853-2.36 3.453-2.609 1.268-.197 2.485-.013 3.547.785zm-22.49-4.357c1.477.116 2.8.633 3.898 1.655.257.24.263.25-.001.474-.565.48-1.14.946-1.703 1.428-.108.092-.152.08-.235-.02-.536-.644-1.23-.98-2.059-1.092-.731-.099-1.428-.007-2.08.316-1.06.524-1.64 1.425-1.95 2.537-.233.838-.233 1.693-.177 2.541.064.979.317 1.914.953 2.706.429.534.983.865 1.637 1.032.81.206 1.62.196 2.42-.062a3.161 3.161 0 001.47-1.012l2.065 1.746c-.423.417-.858.792-1.364 1.074a6.854 6.854 0 01-2.859.857c-1.403.107-2.73-.113-3.976-.775-1.287-.683-2.164-1.736-2.722-3.061-.374-.89-.542-1.824-.596-2.791-.083-1.477.154-2.89.843-4.193.917-1.736 2.365-2.806 4.292-3.231a7.272 7.272 0 012.145-.129zm53.331 3.744c.143.067.136.132.094.248-.213.584-.423 1.17-.631 1.756-.042.12-.12.137-.239.129-.71-.051-1.396.032-2.031.385-.423.235-.793.528-1.08.92-.07.097-.078.202-.078.316.002 2.049-.001 4.098.006 6.147.001.214-.043.292-.277.288a69.702 69.702 0 00-2.268-.003c-.162.002-.216-.03-.216-.205.006-3.222.007-6.444 0-9.666 0-.186.052-.223.227-.22.668.01 1.335.01 2.003 0 .161-.002.203.046.197.201-.011.305-.003.61-.003.985.431-.46.878-.797 1.396-1.034.528-.242 1.068-.42 1.661-.444.433-.018.84.012 1.239.197zM68.282 18.673c.896.835 1.494 1.868 1.68 3.07.237 1.54.018 3.043-.814 4.39-.603.978-1.528 1.562-2.626 1.882-.892.259-1.773.297-2.642-.094-.207-.093-.388-.23-.602-.357v7.3a5.285 5.285 0 011.27-.551c1.201-.33 2.333-.218 3.385.487.606.407.878 1.007 1.032 1.689.191.842.249 1.695.246 2.556-.005 1.76-.004 3.52.004 5.279 0 .194-.056.236-.24.233a68.345 68.345 0 00-2.124 0c-.2.003-.258-.055-.258-.257.008-1.823.005-3.647.004-5.471 0-.532-.01-1.065-.195-1.572-.153-.418-.484-.631-.908-.708-.76-.138-1.43.118-2.078.48-.137.078-.152.18-.151.315.002 2.306-.002 4.612.006 6.918.001.232-.06.3-.294.296a66.577 66.577 0 00-2.148-.002c-.17.002-.224-.052-.221-.22.008-.54.003-1.077.003-1.616V18.07c0-.28.013-.28.307-.28.628 0 1.256.01 1.883-.004.194-.005.256.054.23.238-.01.084-.001.17-.001.288.436-.244.853-.457 1.314-.58 1.486-.398 2.808-.11 3.938.941zm63.815 15.75c.166-.001.236.089.314.206a727.66 727.66 0 001.801 2.678c.026.039.065.07.11.119.375-.547.747-1.087 1.116-1.629.279-.411.554-.826.83-1.24.062-.095.139-.134.257-.133.861.005 1.722.002 2.582.003.046 0 .109-.005.134.02.047.048-.019.082-.044.118l-1.763 2.588c-.476.7-.95 1.4-1.43 2.096-.093.134-.088.222.014.36.848 1.146 1.683 2.301 2.523 3.453l.965 1.326c.031.043.057.09.103.165h-1.467c-.483 0-.965-.008-1.448.004a.345.345 0 01-.32-.165l-2.156-3.122c-.313.447-.621.881-.924 1.319-.414.599-.822 1.202-1.239 1.8-.056.079-.114.167-.244.166-.941-.005-1.881-.002-2.857-.002.134-.291.331-.507.498-.739.885-1.226 1.777-2.448 2.667-3.67.145-.2.285-.403.446-.588.08-.093.074-.16.013-.245l-1.948-2.725-1.459-2.05c-.017-.024-.021-.057-.039-.11 1.002 0 1.984.004 2.965-.003zm-38.311.18c.718 2.215 1.445 4.428 2.17 6.642.019.06.04.12.074.216l.453-1.272c.657-1.87 1.317-3.74 1.967-5.612.046-.134.107-.152.22-.152.837.003 1.674.002 2.543.002-.269.705-.527 1.388-.789 2.07-.605 1.572-1.212 3.142-1.816 4.714-.405 1.055-.808 2.112-1.21 3.169-.048.124-.12.179-.269.177a114.31 114.31 0 00-2.268-.002c-.152 0-.216-.053-.272-.2-.936-2.48-1.882-4.956-2.823-7.434-.312-.822-.617-1.646-.935-2.495h1.163c.515 0 1.03.005 1.544-.003.142-.002.202.039.248.18zm-19.683 1.858c-.65.38-.89 1.03-1.088 1.706-.064.219.036.218.199.216.602-.006 1.205-.003 1.807-.003.61 0 1.221-.001 1.832.002.165 0 .265.034.236-.237-.09-.844-.7-1.817-1.7-1.91-.458-.043-.89-.004-1.286.226zm37.839.271c-.429.449-.666 1.01-.753 1.648h3.823c.293 0 .292-.013.253-.327-.11-.872-.663-1.699-1.699-1.828-.608-.076-1.19.054-1.624.507zM57.648 18.265c.842.582 1.316 1.416 1.61 2.37.273.886.319 1.796.292 2.715-.014.48.057.418-.427.42H56.18c-1.03 0-2.059.003-3.089-.003-.2-.001-.272.015-.225.26.086.44.236.83.543 1.165.4.435.886.703 1.466.794.975.155 1.892-.033 2.769-.473l.04-.02c.353-.175.372-.155.586.209.236.4.455.811.69 1.213.079.136.067.21-.075.299-.692.432-1.457.663-2.24.848-.62.147-1.25.179-1.88.139-1.046-.067-2.008-.382-2.832-1.061-1.005-.828-1.508-1.916-1.707-3.176-.219-1.388-.04-2.713.613-3.961.668-1.278 1.701-2.115 3.124-2.397 1.303-.258 2.559-.121 3.686.659zm24.09-.462c.897.334 1.569.942 2.026 1.777.424.771.634 1.605.705 2.482a8.2 8.2 0 01.005 1.526c-.017.169-.077.185-.217.184-1.045-.004-2.09-.002-3.136-.002-1.038 0-2.076.007-3.113-.006-.2-.002-.23.069-.207.233.152 1.105 1.032 1.837 2.034 1.992 1.01.156 1.947-.075 2.848-.516.318-.155.317-.15.492.166.246.44.488.884.75 1.316.077.127.046.166-.058.235-.525.348-1.113.546-1.708.728a6.928 6.928 0 01-2.403.286c-1.835-.093-3.484-1.064-4.234-2.93a6.288 6.288 0 01-.418-2.892c.114-1.393.592-2.65 1.625-3.641.711-.682 1.565-1.072 2.548-1.197.844-.107 1.667-.038 2.462.259zm-38.885-3.361c-.007 2.097-.004 4.194-.004 6.292l.045.027.72-1.046c1.21-1.777 2.421-3.555 3.636-5.33.05-.073.102-.163.22-.163 1.028.002 2.056 0 3.13 0-.25.351-.475.67-.705.985-.755 1.037-1.512 2.073-2.268 3.11-.588.806-1.174 1.614-1.768 2.416-.094.127-.1.206-.001.339 1.018 1.376 2.028 2.759 3.04 4.14.614.838 1.228 1.675 1.839 2.514.033.047.081.099.059.19h-1.172c-.7 0-1.4-.001-2.1.003-.12 0-.191-.025-.268-.139-1.03-1.528-2.072-3.05-3.11-4.573-.395-.582-.788-1.165-1.184-1.746-.02-.03-.054-.051-.113-.107v.292c0 2.01-.004 4.018.005 6.027 0 .201-.048.252-.25.25-.82-.013-1.641-.01-2.462-.002-.156 0-.2-.038-.199-.197.005-4.436.005-8.872 0-13.308 0-.158.043-.199.199-.197.829.008 1.657.01 2.486-.001.18-.002.226.043.225.224zm31.039-1.506c-.006 2.459-.004 4.918-.004 7.377 0 2.443-.003 4.886.005 7.328.001.227-.062.285-.284.281a71.796 71.796 0 00-2.268 0c-.174.002-.209-.048-.209-.214.005-4.797.004-9.595.002-14.392 0-.141.02-.19.186-.213.79-.11 1.578-.245 2.365-.375.179-.03.207.046.207.208zm17.48 4.568c.343 0 .667.106.979.245.065.029.085.073.055.155-.229.62-.448 1.243-.675 1.864-.07.19-.238.097-.352.09-1.133-.079-2.07.297-2.832 1.143-.188.208-.227.416-.226.671.005 2.002 0 4.003.008 6.004.001.203-.05.25-.25.246a71.213 71.213 0 00-2.268 0c-.197.002-.243-.06-.243-.248.005-3.215.006-6.43 0-9.644 0-.195.057-.247.247-.243.668.01 1.336.009 2.003 0 .172-.002.225.056.22.223-.011.302-.004.604-.004.965.447-.495.949-.819 1.5-1.072a4.368 4.368 0 011.837-.399zm-27.97 2.627c-.107.053-.138.095-.137.202.002 1.637.003 3.275-.002 4.912 0 .123.045.184.151.236.347.174.708.295 1.09.374.847.175 1.817-.244 2.26-.972.38-.621.551-1.288.505-2.032a3.44 3.44 0 00-.093-1.069c-.207-.853-.681-1.495-1.52-1.806-.767-.284-1.521-.21-2.254.155zm-9.67-.166c-.52.412-.738 1.006-.891 1.627-.033.135.038.156.157.155.627-.005 1.254-.002 1.88-.002.62 0 1.24-.01 1.858.006.204.005.23-.079.202-.236-.062-.343-.147-.676-.32-.987-.616-1.11-2.071-1.209-2.886-.563zm25.971-.387c-.478.04-.921.192-1.237.575a3.025 3.025 0 00-.689 1.592h3.847c.26 0 .263-.014.23-.3-.126-1.074-.885-1.977-2.15-1.867z" fill="#003369"/><path d="M33.571 27.852c-.013.083-.074.116-.118.16-.397.399-.796.796-1.194 1.194-2.077 2.073-4.155 4.146-6.226 6.225-.152.153-.223.146-.37-.002a2810.164 2810.164 0 00-7.39-7.381c-.136-.135-.16-.205-.01-.354a2583.51 2583.51 0 007.409-7.397c.142-.144.213-.139.353.002 2.465 2.471 4.935 4.936 7.404 7.402.05.05.098.104.142.15" fill="#259be1"/><path d="M16.762 44.656c-1.264-1.26-2.514-2.51-3.77-3.753-.09-.09-.082-.182-.082-.283v-6.822c0-6.211 0-12.422-.004-18.634a.53.53 0 01.168-.419 493.154 493.154 0 003.516-3.511c.136-.137.199-.122.325.005 2.044 2.05 4.091 4.095 6.144 6.136.143.142.14.21 0 .35-3.316 3.303-6.625 6.612-9.94 9.914-.165.164-.165.25 0 .412.76.74 1.496 1.506 2.258 2.244 2.603 2.523 5.133 5.12 7.715 7.663.152.15.147.22-.002.368-2.064 2.052-4.122 4.11-6.181 6.167-.051.051-.097.107-.147.163M8.704 19.128v17.446l-.053.045c-.04-.057-.07-.123-.118-.171a7778.537 7778.537 0 00-8.43-8.416c-.117-.117-.151-.177-.013-.315 2.832-2.818 5.657-5.642 8.484-8.465.033-.034.068-.065.13-.124" fill="#003369"/></g></svg>