<svg width="400" height="107" viewBox="0 0 400 107" fill="none" xmlns="http://www.w3.org/2000/svg"><path fill-rule="evenodd" clip-rule="evenodd" d="M73.075 3.542l-.658.708.708-.659c.39-.362.708-.681.708-.708 0-.126-.145 0-.758.659zm-1.361 3.541c.002.459.034.626.072.373a2.932 2.932 0 00-.002-.833c-.04-.205-.071.002-.07.46zm9.018 2.329c.02.135.1.303.179.375.078.071.088.036.023-.079-.066-.114-.036-.208.066-.208.102 0 .14-.075.083-.167-.156-.252-.392-.199-.351.079zm-.586.866c-.012.03-.032.112-.044.18-.041.132-.1.258-.173.375-.082.138.05.069.294-.154.244-.222.444-.416.444-.43 0-.053-.501-.025-.521.029zM75.5 11.869c0 .184.46.164.577-.026.053-.086-.055-.145-.24-.131-.185.014-.337.085-.337.157zm1.756-.026c.117.19.577.21.577.026 0-.072-.151-.143-.337-.157-.185-.014-.293.045-.24.131zm-29.923.876c0 .029.244.272.542.541l.542.49-.49-.542c-.456-.505-.594-.618-.594-.489zm18.66 4.323c.691.736.84.868.84.743 0-.027-.356-.383-.791-.792l-.792-.743.743.792zm-3.16 3.375c.311.32.603.583.649.583.046 0-.171-.263-.482-.583-.311-.321-.603-.584-.649-.584-.046 0 .171.263.482.584zm.988 1.306c.477.525.496.531.44.152-.024-.16-.111-.293-.194-.294-.082-.002-.263-.07-.4-.152-.138-.082-.069.05.154.294zm10.084.462c-.063.102-.021.243.093.313.113.071.142.163.063.205-.08.041-.056.055.053.029.108-.025.196.081.194.236-.002.155.053.463.121.685.103.333.076.385-.152.297-.184-.07-.277-.02-.277.148 0 .15.079.206.192.136.12-.074.148-.046.074.074a.477.477 0 01-.368.192c-.405 0-4.095 2.514-4.011 2.733.089.233-.502.318-.641.093-.055-.088-.228-.069-.41.044-.173.108-.287.241-.253.295.033.055-.09.11-.274.124-.281.021-.301-.015-.124-.228.28-.337-.117-.609-.551-.377-.354.19-.406.392-.067.262.368-.141.458.08.139.342-.159.13-.187.184-.062.12.338-.175.506.234.338.822-.247.86-.192 1.822.097 1.711.257-.098.262.42.01 1.142-.115.329-.112.329.147.01.223-.273.264-.281.264-.051 0 .149-.075.318-.167.375a.363.363 0 00-.153.301c.008.129.044.12.102-.025.062-.155.151-.105.293.167.133.255.148.462.044.598-.107.14-.095.209.037.209.108 0 .144.085.08.189-.065.105.047.314.25.467.202.152.391.423.421.602.03.179.148.303.263.276.248-.059 1.02.626.909.806-.042.069.054.268.214.442.159.174.23.225.156.114-.095-.144-.038-.178.197-.117.188.049.294.182.246.308-.046.121.08.309.282.417.287.153.339.151.24-.009-.083-.134-.046-.176.104-.121.128.046.21.178.184.292-.03.126.052.169.208.109.141-.054.257-.016.257.084 0 .112.106.095.281-.047.247-.201.267-.193.168.074-.093.245-.051.282.218.197.201-.064.333-.03.333.087 0 .133.211.157.687.076.453-.076.652-.058.583.054-.065.106.176.165.646.158.413-.006.75-.078.75-.159s.263-.099.584-.038c.398.074.583.047.583-.087 0-.125.13-.156.354-.084.263.083.32.057.223-.101-.094-.151-.052-.182.146-.106.152.058.277.029.277-.065s.073-.126.162-.071c.297.184 1.209-.41 1.093-.712-.058-.151-.053-.222.013-.157.065.065.237.026.383-.088.239-.186.241-.173.025.126-.132.184.221-.112.786-.656.751-.723.982-1.044.857-1.194-.123-.148-.075-.235.172-.314.388-.123.742-.677.59-.922-.055-.09-.017-.164.086-.164.102 0 .134-.083.071-.185-.063-.102-.016-.246.105-.321.179-.11.175-.189-.02-.429-.214-.262-.208-.282.052-.184.341.127.359.056.106-.417-.157-.293-.144-.331.083-.244.234.09.269-.066.267-1.183-.002-.767-.06-1.197-.144-1.064-.107.169-.163.139-.232-.125-.05-.192-.023-.306.061-.255.083.052.151.014.151-.083s-.122-.176-.271-.176c-.223 0-.233-.045-.059-.254.116-.14.162-.303.103-.361-.058-.059-.108-.001-.109.129-.001.129-.102.048-.223-.181-.145-.274-.165-.488-.06-.625.107-.139.094-.208-.037-.208-.109 0-.151-.075-.094-.167.056-.092.019-.167-.084-.167-.102 0-.14-.074-.084-.164.058-.095-.009-.123-.157-.066-.17.065-.259.004-.259-.178 0-.168.077-.231.193-.159.121.075.147.045.069-.08-.071-.115-.268-.153-.463-.092-.234.075-.303.048-.222-.083.065-.106.02-.32-.101-.477-.167-.216-.131-.208.152.033.626.535.414.21-.358-.548-.519-.509-.768-.657-.859-.509-.078.127-.061.166.045.101.095-.059.275.019.4.173.196.241.193.259-.022.126-.138-.085-.325-.158-.417-.161-.092-.004-.146-.13-.121-.282.026-.151-.042-.33-.15-.397-.136-.083-.153-.048-.056.113.117.194.096.198-.125.018-.217-.176-.284-.176-.367 0-.056.119-.067.028-.024-.201.067-.367.051-.383-.134-.136-.289.385-1.05.026-.967-.457.044-.261.014-.283-.159-.115-.117.114-.367.199-.555.189-.281-.016-.29-.033-.05-.096.16-.042.291-.153.291-.247s-.261-.017-.581.172c-.319.188-.563.261-.541.162.021-.099-.065-.218-.193-.264-.127-.047-.186-.012-.132.076.055.088-.01.16-.143.16-.134 0-.243-.057-.243-.127 0-.181.631-.359.832-.235.092.058.168.025.168-.072 0-.295-1.267-.208-1.521.105-.197.242-.193.267.029.185.172-.065.265.008.281.219.019.253-.035.284-.274.156-.201-.108-.367-.095-.514.041-.172.159-.188.151-.078-.042.161-.281.26-1.007.138-1.007-.046 0-.23.078-.409.174-.386.207-.812.029-.461-.193.151-.095.16-.144.027-.145a.408.408 0 00-.313.182zM6.542 23.948c.16.042.423.042.583 0 .16-.042.029-.076-.292-.076-.32 0-.452.034-.291.076zm59.873.721c-.058.094-.193.125-.302.071-.108-.054-.066.009.093.139.159.131.234.298.166.373-.067.074-.033.084.076.021.108-.062.186-.261.173-.443-.029-.375-.059-.399-.206-.161zm-12.832.998c-.21.09-.241.143-.083.143.137 0 .4-.065.583-.143.21-.091.241-.144.084-.144-.138 0-.4.065-.584.144zm-27.177 1.708l-.489.542.541-.49c.505-.456.619-.594.49-.594-.029 0-.273.244-.542.542zm23.105 6.72c.445.474.471.484.424.16-.047-.316-.213-.477-.541-.525-.196-.029-.167.063.117.365zM26 34.052c0 .029.244.273.542.542l.541.489-.489-.541c-.456-.505-.594-.619-.594-.49zm24.384.668c-.057.092-.017.112.09.046.106-.065.193-.035.193.067 0 .103.075.14.166.084.092-.057.167-.019.167.083 0 .102.075.14.167.083.091-.056.166-.178.166-.269 0-.092-.075-.121-.166-.064-.092.057-.167.036-.167-.046 0-.202-.49-.189-.616.016zm19.52.391a.412.412 0 00.333.321c.277.041.278.027.002-.278-.355-.391-.387-.396-.335-.043zm-49.821 6.056c.452.458.859.833.904.833.046 0-.286-.375-.737-.833-.451-.459-.858-.834-.904-.834-.046 0 .286.375.737.834zM15.5 43.385c0 .029.244.273.542.542l.541.49-.489-.542c-.456-.505-.594-.618-.594-.49zm1.333 1.334c0 .029.244.272.542.541l.542.49-.49-.542c-.456-.505-.594-.618-.594-.489zm34.52 1.406c.05.317-.045.373-.353.208-.243-.13-.333-.126-.333.012 0 .105-.113.147-.25.095-.138-.053-.25-.016-.25.083s-.109.138-.242.087c-.172-.067-.211-.012-.135.19.096.256.076.259-.207.033-.286-.228-.302-.223-.194.066.101.269.081.284-.139.101-.22-.183-.24-.168-.139.101.101.271.081.285-.144.102-.22-.178-.347-.142-.782.224-.506.425-.726.879-.31.639.115-.066.032.074-.184.312-.216.237-.484.397-.594.354-.111-.042-.347.094-.524.304l-.323.381.403-.334.404-.333-.393.542c-.362.498-.654.763-.414.375.057-.092.063-.167.014-.167-.17 0-.61 1.011-.511 1.172.055.089.018.161-.082.161-.131 0-.132.095-.004.334.14.261.126.333-.062.333-.164 0-.211.114-.146.359.068.262.036.324-.117.23-.16-.099-.178-.035-.077.265.165.486.159 1.9-.01 2.523-.109.401-.086.446.185.35.254-.09.272-.069.102.115-.288.311-.261.491.075.491.22 0 .239.045.083.2-.292.292-.244.473.092.347.255-.095.263-.074.063.172-.162.198-.171.281-.032.281.108 0 .15.075.094.167-.057.092-.019.167.083.167.102 0 .132.087.066.195-.079.126-.033.161.129.099.146-.056.249-.002.249.131 0 .125-.074.181-.164.125-.096-.059-.112-.016-.039.102.069.112.247.157.396.1.148-.057.216-.05.151.015s-.025.238.088.384c.187.239.174.241-.126.02-.249-.183-.228-.12.083.25.559.667 1.049 1.068 1.192.98.065-.041.173.014.239.122.076.122.049.15-.072.076-.105-.065-.192-.08-.192-.033 0 .184 1.499.954 1.662.853.094-.058.171-.022.171.081 0 .102.075.14.167.083.092-.057.167-.019.167.085 0 .112.134.145.333.082.204-.065.333-.03.333.09 0 .126.15.158.417.091.229-.057.417-.034.417.053 0 .086.393.165.875.176 1.52.034 1.958.086 1.958.232 0 .079.112.1.25.047.137-.052.25-.017.25.08 0 .096.093.144.207.106.114-.038.311.035.438.163.127.127.338.19.468.14.151-.058.194-.02.118.102-.08.13-.026.157.167.083.157-.06.247-.046.199.031-.119.193.714.553.957.414.108-.061.14-.05.072.025-.172.189.497.63.733.484.106-.065.15-.05.097.035-.052.085.17.328.493.539.323.212.536.286.473.164-.062-.122.049-.015.247.237.198.253.43.416.516.363.086-.053.139-.035.117.041-.022.075.538.693 1.245 1.373.708.681 1.286 1.178 1.286 1.105 0-.072.115-.037.254.079.14.116.222.244.181.284-.04.04.406.666.991 1.39.584.724 1.18 1.543 1.323 1.82.143.276.333.503.422.503.09 0 .144.057.121.128-.067.206.577 1.538.743 1.538.084 0 .115.06.07.133-.045.073.063.572.24 1.109.178.541.322 1.437.322 2.008 0 .572-.144 1.467-.322 2.008-.177.538-.285 1.037-.24 1.11.045.073.011.132-.075.132-.166 0-.636.998-.569 1.209.022.068-.034.125-.124.125-.175 0-.927 1.332-.87 1.541.018.069-.033.125-.113.125-.081 0-.469.432-.863.959-.724.968-4.413 4.847-4.626 4.864-.063.005-.602.377-1.198.827-.719.53-1.47 1.014-2.25 1.45-.642.348-1.204.673-1.25.724a.415.415 0 01-.25.102c-.354.02-1.083.283-1.083.39 0 .062-.132.122-.292.134-.16.012-.629.062-1.042.111-.412.049-1.218.137-1.791.194-.573.058-1.042.179-1.042.268 0 .09-.07.121-.155.068-.189-.117-1.345.413-1.345.617 0 .08-.068.103-.151.052-.57-.352-3.63 3.318-3.263 3.912.055.089.022.162-.074.162s-.176.168-.178.375c-.004.648-.105 1.285-.222 1.401-.176.177-.131 1.359.057 1.475.094.058.13.169.082.246-.133.216.254 1.836.439 1.836.09 0 .125.061.079.135-.311.504 1.893 3.03 3.282 3.761 1.577.829 7.949.511 7.949-.398 0-.101.067-.143.148-.093.745.461 3.121-3.508 3.186-5.322.056-1.586.075-1.75.206-1.75.068 0 .114-.168.104-.375-.01-.206.097-.687.239-1.068s.214-.737.16-.792c-.054-.054-.007-.098.106-.098.112 0 .158-.075.101-.167-.057-.091-.019-.166.083-.166.103 0 .14-.075.084-.167-.057-.092-.019-.167.083-.167.102 0 .14-.075.083-.166-.056-.092-.019-.167.084-.167.102 0 .144-.069.092-.152-.052-.084-.032-.178.043-.209.076-.031.463-.543.86-1.139.396-.596.978-1.402 1.291-1.792.313-.389.534-.708.491-.708-.043 0 .437-.498 1.068-1.106.63-.609 1.099-1.183 1.041-1.276-.057-.093-.023-.119.076-.058.1.062.23.034.289-.062.059-.095.546-.539 1.083-.986.537-.447.925-.869.863-.939-.063-.069-.028-.077.077-.017.106.06.418-.097.694-.348.276-.252.581-.476.677-.497.096-.022.571-.29 1.056-.595.485-.306 1.126-.653 1.424-.773.298-.119.541-.295.541-.391 0-.096.041-.133.092-.083.05.05.55-.052 1.111-.226.562-.175 1.475-.325 2.03-.332.555-.008 1.199-.093 1.43-.19.231-.096.512-.16.623-.142.296.048 1.881-.788 1.881-.992 0-.095.076-.126.17-.068.42.259 3.109-3.195 2.759-3.545-.051-.051-.016-.186.078-.299.65-.783.45-5.408-.234-5.408-.089 0-.115-.047-.058-.104.556-.556-3.195-4.298-3.999-3.99-.119.046-.216.022-.216-.052 0-.227-1.195-.497-2.229-.503-.539-.003-1.224-.087-1.522-.185-.299-.099-.608-.164-.688-.146-.079.018-.332-.045-.561-.14l-1.042-.435c-.343-.144-.625-.228-.625-.187 0 .041-.131-.042-.291-.185-.161-.142-.858-.618-1.55-1.057a26.03 26.03 0 01-2.497-1.866c-.682-.587-1.316-1.067-1.409-1.067a.169.169 0 01-.169-.167c-.001-.301-1.128-1.575-1.3-1.469-.093.057-.126.035-.073-.05.112-.181-1.278-2.095-1.436-1.977-.06.044-.073.033-.031-.025.113-.155-.391-1.062-.591-1.062-.095 0-.126-.075-.069-.167.056-.091.019-.166-.084-.166-.102 0-.14-.075-.083-.167.057-.092.019-.167-.083-.167-.103 0-.14-.075-.084-.166.057-.092.019-.167-.083-.167-.102 0-.14-.075-.083-.167.056-.091.019-.166-.084-.166-.102 0-.14-.075-.083-.167.057-.092.026-.167-.068-.167s-.132-.102-.084-.228-.025-.341-.162-.478a.664.664 0 01-.15-.631c.065-.248.038-.343-.078-.272-.111.069-.145-.014-.09-.224.048-.183.012-.333-.079-.333-.104 0-.134-.414-.08-1.084.062-.781.031-1.083-.114-1.083-.125 0-.161-.126-.095-.333.065-.204.03-.334-.09-.334-.108 0-.152-.112-.1-.25.062-.16-.003-.25-.182-.25-.216 0-.234-.044-.078-.2.257-.256.26-.523.005-.365-.134.082-.159.027-.081-.176.087-.228.05-.272-.162-.19-.241.092-.247.07-.044-.179.206-.254.197-.272-.083-.167-.28.105-.29.086-.084-.168.199-.245.199-.265-.004-.143-.176.106-.211.074-.135-.122.124-.325-.283-.697-.58-.53-.173.099-.174.078-.006-.103.318-.342-.906-1.573-1.271-1.277-.2.161-.226.161-.127-.005.19-.317-.044-.597-.312-.374-.17.141-.247.103-.331-.161-.06-.189-.179-.301-.264-.249-.085.053-.154.012-.154-.091 0-.102-.075-.14-.167-.083-.092.057-.167.014-.167-.094 0-.147-.063-.144-.25.011-.206.171-.25.156-.25-.084 0-.252-.037-.26-.281-.062-.246.201-.267.193-.172-.063.126-.336.056-.358-.391-.119-.254.136-.322.118-.322-.083 0-.21-.254-.256-1.417-.256-.779 0-1.408.056-1.397.125zm-22.242.319c-.226.227-.102.423.14.221.154-.127.48-.171.837-.113.348.056.547.031.489-.062-.11-.178-1.297-.215-1.466-.046zm44.643 1.217c-.064.102-.268.137-.456.078-.225-.071-.302-.046-.227.075.067.108.022.147-.113.095-.575-.22-2.778 2.117-2.552 2.707.044.114.002.255-.093.314-.096.058-.128.286-.073.505.056.225.026.398-.07.398-.094 0-.17.263-.17.584 0 .32.076.583.17.583.096 0 .126.174.07.398-.055.22-.023.447.073.506.095.059.132.211.084.338-.049.128.06.382.243.565.183.182.3.364.262.402-.135.136 1.121 1.296 1.751 1.617.705.36.779.371 2.43.371 1.564 0 1.75-.023 1.75-.217 0-.092.075-.12.167-.063.092.056.167.019.167-.084 0-.102.068-.144.152-.092.834.516 2.577-2.297 2.567-4.141-.01-1.699-.037-1.933-.224-1.933-.084 0-.109-.11-.058-.244.054-.14-.108-.435-.38-.694-.261-.248-.362-.393-.224-.324.137.07-.106-.222-.542-.649-.436-.426-.867-.729-.958-.672-.092.056-.167.018-.167-.084 0-.102-.075-.14-.166-.083-.092.056-.167.028-.167-.063 0-.092-.131-.176-.292-.187-2.578-.176-2.849-.177-2.954-.006zm-15.587.589c.311.321.528.583.482.583-.046 0-.338-.262-.649-.583-.311-.321-.528-.583-.482-.583.046 0 .338.262.649.583zm-23.756-.232c.165.697.318.96.604 1.034.435.114.403.448-.043.448-.64 0-.142.241.539.261.362.011.614-.025.56-.079a.454.454 0 00-.279-.099c-.1 0-.216-.104-.258-.231-.047-.141-.003-.186.111-.115.355.219.188-.002-.55-.726-.407-.399-.714-.621-.684-.493zm12.91.024c-.143.466-.105.625.107.448.129-.107.194-.261.144-.342-.087-.14-.223-.198-.251-.106zm-12.227.666l.489.542-.541-.49c-.298-.269-.542-.512-.542-.541 0-.129.138-.016.594.489zM3.24 50.542l-.49.541.542-.489c.298-.269.541-.513.541-.542 0-.129-.137-.015-.593.49zm6.927.041c.311.321.603.584.648.584.046 0-.171-.263-.482-.584-.311-.321-.603-.583-.648-.583-.046 0 .171.262.482.583zm24.513-.44c-.008.128-.119.185-.259.132-.136-.052-.316.032-.404.189-.087.156-.206.235-.265.177-.058-.058-.291.065-.517.275-.226.21-.915.652-1.531.983-.617.331-1.533.894-2.037 1.251-1.554 1.099-4.529 3.017-4.68 3.017-.079 0-.097.12-.041.267.075.195.02.25-.207.207-.651-.126-1.361.912-.755 1.104.307.097.058 1.088-.274 1.088-.054 0-.05-.049.011-.109.06-.061.026-.211-.076-.334-.143-.171-.123-.223.085-.223.331 0 .356-.265.036-.388-.128-.049-.372.023-.541.161-.17.138-.215.204-.1.146.115-.058.218-.026.229.071.012.097.032.233.046.301.014.069.419.527.901 1.017.482.491.856.801.83.689-.026-.112.088-.226.253-.253.247-.042.265-.007.099.193-.159.192-.156.286.015.445.144.133.181.136.111.01-.059-.105.014-.237.162-.294.213-.082.249-.024.174.274-.094.372-.091.373.167.044.259-.328.262-.328.174.042-.06.258-.028.338.105.255.376-.235.583-.178.521.145-.051.264.003.305.283.216.21-.067.399-.025.48.105.107.174.19.17.427-.023.257-.21.282-.208.2.01-.078.21.13.25 1.288.25.76 0 1.379-.037 1.376-.083-.02-.301.067-.347.297-.156.216.18.286.179.4-.004a.323.323 0 01.374-.131c.131.05.329-.057.443-.238.166-.267.252-.291.45-.127.204.169.225.151.126-.112-.108-.289-.092-.294.195-.065.251.2.285.203.17.013-.106-.177-.073-.21.13-.132.149.057.323.021.386-.081.069-.111.039-.138-.076-.067-.124.076-.155.025-.09-.146.071-.183.162-.212.301-.097.143.119.434-.079 1.022-.695.453-.474.673-.753.489-.62-.299.217-.312.215-.126-.024.114-.146.153-.319.088-.384s.003-.072.152-.015c.148.057.326.012.395-.1.086-.139.052-.165-.108-.08-.129.068-.046-.04.183-.239.229-.199.33-.319.225-.265-.105.053-.231-.011-.282-.141-.065-.171.012-.219.275-.172.339.061.344.049.068-.159-.264-.199-.267-.235-.031-.325.146-.056.222-.173.169-.259-.053-.086-.02-.203.073-.261.093-.057.169-.012.169.1s.049.156.107.097c.059-.059.003-.235-.125-.392-.205-.253-.197-.272.079-.169.238.09.286.055.208-.149A1.658 1.658 0 0137 55.56c0-.044-.094-.026-.208.04-.115.066-.04-.065.166-.292.293-.322.375-.613.375-1.321 0-.782-.052-.931-.375-1.072-.403-.178-.436-.777-.067-1.238.156-.194.137-.219-.099-.13-.161.06-.292.032-.292-.062s-.087-.118-.192-.052c-.121.074-.148.045-.072-.077.066-.107.185-.155.264-.106.079.049.191.013.248-.081.058-.093.028-.169-.066-.169s-.129-.112-.076-.249c.054-.141-.019-.292-.171-.35-.147-.057-.215-.188-.152-.293.063-.105-.018-.084-.18.048-.238.193-.321.197-.428.024-.1-.162-.216-.17-.474-.032-.256.137-.362.131-.424-.024-.062-.153-.087-.148-.097.019zm2.153 2.274c0 .229.029.416.064.416s.1-.187.144-.416c.044-.229.015-.417-.064-.417s-.144.188-.144.417zm-14.894.954c-.152.571-.126.828.072.705.098-.06.137-.219.086-.352-.051-.133-.024-.199.06-.147.256.159.355-.193.112-.395-.18-.149-.25-.108-.33.189zM37.167 54c0 .367-.057.667-.125.667-.069 0-.125-.3-.125-.667 0-.367.056-.667.125-.667.068 0 .125.3.125.667zm-35.462.167c0 .32.035.452.077.291.041-.16.041-.423 0-.583-.042-.16-.077-.029-.077.292zM22.9 57.25c-.199.15-.235.241-.098.245.121.003.165.09.099.197-.075.121-.046.148.076.072.107-.066.152-.189.1-.274-.052-.084.022-.108.164-.054.143.055.259.021.259-.075 0-.307-.275-.358-.6-.111zm-12.587.028c-.012.03-.031.149-.042.264a.237.237 0 01-.229.208c-.177 0-.269.245-.141.373.022.022.243-.172.491-.43.322-.337.378-.471.196-.471-.14 0-.264.025-.275.056zM5.965 58.97c-.157.062.196.113.785.113s.942-.051.785-.113c-.157-.062-.51-.113-.785-.113s-.628.051-.785.113zm55.962 7.072l.49.541-.542-.489c-.505-.456-.618-.594-.49-.594.029 0 .273.244.542.542zm-56.26 4.091c0 .074.081.215.181.315.13.13.123.217-.026.309-.123.076-.165.059-.103-.04.057-.093-.081-.253-.308-.356-.251-.114-.411-.124-.411-.024 0 .09.079.163.177.163.097 0 .127.08.066.178-.071.115-.23.072-.455-.125-.19-.167-.294-.215-.231-.107.067.116-.025.241-.224.304s-.291.188-.223.304c.062.108-.049.053-.248-.121-.221-.194-.362-.239-.362-.116 0 .112-.075.156-.167.1-.091-.057-.166-.019-.166.083 0 .102-.063.148-.139.101-.077-.048-.139.02-.139.149s.062.197.139.149c.076-.047.139 0 .139.103 0 .104-.132.16-.292.125-.16-.035-.271-.158-.246-.274.025-.116-.035-.161-.133-.101-.125.078-.119.183.02.35.244.294.125.442-.241.301-.15-.057-.225-.19-.167-.295.059-.105-.235.137-.654.538-.511.491-.739.837-.697 1.057.046.237-.007.301-.189.231-.143-.055-.208-.026-.15.068.056.091.011.165-.101.165-.126 0-.084.141.111.375.172.206.206.281.076.166-.462-.405-.495-.172-.484 3.376.008 2.668.06 3.554.204 3.468.106-.064.08.025-.057.197-.229.287-.224.303.065.195.269-.101.284-.081.101.139-.182.221-.168.241.102.14.269-.101.284-.081.105.14-.255.314.137.746.494.544.173-.098.175-.078.008.101-.282.304.567 1.247.885.983.148-.122.198-.094.18.103-.013.15.161.396.386.547.335.225.383.23.264.026-.08-.138.058-.037.305.223.26.273.554.434.694.381.134-.052.244-.028.244.052s.15.107.333.059c.194-.051.334-.005.334.108 0 .108.083.145.185.082a.223.223 0 01.305.08c.086.138.246.147.554.029.3-.113.452-.109.494.016.033.1.512.189 1.078.2.571.011.976.087.923.173-.052.084.031.105.183.047.154-.059.278-.026.278.074 0 .1.15.142.333.094.183-.048.333-.022.333.059 0 .08.125.098.278.039.202-.078.24-.046.139.117-.101.163-.063.195.139.117.153-.059.278-.029.278.065s.075.125.166.068c.092-.057.167-.019.167.083 0 .103.075.14.167.084.091-.057.166-.019.166.083 0 .102.075.14.167.083.092-.056.167-.019.167.084 0 .102.075.14.166.083.092-.057.167-.011.167.101 0 .113.049.156.109.096.059-.06.215.022.345.181.141.171.185.187.109.039-.071-.138.117-.007.417.291s.615.551.699.563l.307.042a.593.593 0 01.292.172c.08.088.051.102-.07.032-.402-.231-.203.008.334.4.415.304.483.322.291.08-.137-.175.463.391 1.334 1.257.87.866 1.658 1.575 1.75 1.577.091.001.166.1.166.22s.188.37.417.556c.229.186.31.282.18.213-.15-.079-.119.032.083.302.176.235.388.386.471.335.083-.05.106-.019.051.07-.098.158.754 1.6.895 1.516.038-.024.058-.019.044.01-.014.03.298.742.694 1.584.757 1.612 1.072 2.818 1.097 4.196.018 1.001.426 2.584.666 2.584.095 0 .126.075.069.166-.057.092-.019.167.083.167.103 0 .146.065.097.145-.158.256 1.122 1.834 2.045 2.523l.892.665h7.49l.706-.486c1.225-.842 2.813-2.915 2.485-3.243-.057-.057-.028-.104.065-.104.574 0 .996-4.584.458-4.972-.085-.061-.175-.299-.201-.528-.026-.229-.12-.442-.209-.473-.09-.03-.121-.124-.069-.208.052-.084.01-.152-.092-.152s-.14-.075-.083-.167c.056-.092.019-.167-.084-.167-.102 0-.145-.065-.096-.146.536-.867-3.516-3.687-5.299-3.687-.847 0-2.943-.395-3.896-.733-.39-.139-.71-.199-.711-.135-.002.065-.058.034-.125-.068-.151-.23-1.904-1.145-2.093-1.093-.076.02-.098-.028-.049-.107.095-.154-1.222-.969-1.451-.898-.076.023-.093-.031-.037-.12.088-.143-.474-.574-.77-.59-.062-.003-.174-.074-.25-.158-.08-.086-.059-.105.049-.044.103.059-.504-.585-1.349-1.432-.845-.846-1.743-1.801-1.996-2.122-.253-.321-.403-.471-.334-.333.075.147.065.193-.024.111a.597.597 0 01-.173-.292l-.041-.307c-.012-.084-.265-.399-.563-.699-.298-.3-.448-.489-.333-.42.362.219.226-.059-.25-.512-.252-.24-.364-.381-.249-.315.166.096.169.033.017-.3-.106-.233-.255-.384-.332-.336-.078.048-.096-.029-.042-.172.055-.142.012-.258-.095-.258s-.148-.075-.091-.167c.057-.092.026-.167-.068-.167s-.124-.124-.065-.277c.078-.203.046-.24-.117-.139-.163.101-.195.063-.117-.14.059-.152.041-.277-.039-.277-.081 0-.107-.15-.059-.333.061-.234.005-.334-.188-.334-.221 0-.241-.064-.103-.322.235-.438.219-.511-.111-.511-.22 0-.239-.044-.083-.2.274-.274.252-1.319-.038-1.732-.154-.221-.184-.422-.085-.578.231-.367.186-.491-.135-.37-.256.095-.264.074-.063-.172.17-.21.176-.281.024-.281-.12 0-.163-.112-.102-.269.076-.199.032-.241-.173-.163-.23.089-.241.065-.064-.148.155-.187.159-.254.013-.254-.108 0-.142-.087-.076-.195.083-.134.026-.159-.181-.079-.266.102-.274.082-.069-.171.176-.216.179-.253.013-.153-.155.093-.204.042-.167-.173.036-.209-.05-.305-.278-.308a.405.405 0 01-.391-.315c-.043-.222.005-.275.164-.184.124.071-.037-.148-.356-.487-.544-.576-.596-.596-.814-.316-.222.284-.228.283-.125-.015.16-.46-.197-.837-.534-.564-.221.179-.241.164-.14-.105.105-.28.086-.289-.167-.083-.253.206-.272.196-.167-.084.105-.28.087-.289-.166-.083-.254.206-.272.197-.167-.083.098-.26.076-.281-.121-.117-.165.137-.272.144-.348.021-.061-.098-.18-.135-.265-.082-.086.053-.155-.036-.155-.197 0-.228-.045-.249-.2-.093-.311.311-.822.236-.919-.134-.089-.342-2.381-.535-2.381-.2zm1.893.284c-.035.091-.356.166-.713.166-.356 0-.618-.05-.58-.11.038-.061-.007-.136-.099-.167-.093-.031.197-.056.644-.056.473 0 .786.07.748.167zm-5.227 1.788c0 .107-.082.101-.223-.016-.169-.141-.306-.096-.573.188-.354.377-.37.416-.37.883 0 .143-.069.217-.152.166-.252-.156-.105-.563.389-1.079.436-.455.929-.53.929-.142zm9.846.085c.295.333.31.379.057.167-.19-.16-.384-.253-.43-.207-.046.046-.084-.029-.084-.167 0-.32-.016-.328.457.207zm38.904-.357c-.772.191-1.568.624-1.468.799.058.101.046.131-.027.066-.195-.177-.783.188-.65.403.064.104.038.137-.061.076-.185-.114-.766.651-.766 1.01 0 .117-.059.213-.132.213-.805 0-.705 3.917.12 4.742.142.142.197.26.121.263-.075.003.009.116.187.25.178.135.26.245.182.245-.36 0 .597.763 1.494 1.19 1.368.651 4.584.623 4.584-.041 0-.093.075-.122.166-.066.092.057.167.019.167-.083 0-.102.072-.142.161-.087.293.181 1.482-1.246 1.845-2.217.388-1.034.409-3.53.032-3.656-.102-.034-.147-.163-.099-.288.048-.124-.069-.382-.259-.572-.191-.191-.294-.347-.231-.347.309 0-1.122-1.249-1.762-1.538-.718-.324-2.879-.541-3.604-.362zM27.5 72.51c0 .097-.075.13-.167.073-.091-.056-.166-.019-.166.084 0 .102-.075.14-.167.083-.092-.057-.167-.019-.167.083 0 .103-.07.143-.156.09-.375-.232-2.169 1.852-1.929 2.241.058.093.018.169-.089.169s-.151.113-.099.25c.053.138.015.25-.083.25-.11 0-.138.168-.072.431.07.279.047.393-.065.323-.109-.067-.173.147-.173.58 0 .432.064.646.173.579.112-.07.135.044.065.323-.066.264-.038.431.072.431.098 0 .136.112.083.25-.052.137-.008.25.099.25.107 0 .141.086.075.192-.065.106.02.293.189.417.169.123.243.224.164.224-.078 0 .118.244.437.542.318.298.387.392.154.208l-.426-.333.332.392c.46.543 1.697 1.243 1.937 1.095.11-.068.153-.051.098.039-.061.098.565.16 1.631.16.952 0 1.693-.06 1.648-.133-.045-.073.021-.093.148-.044.632.242 3.125-2.241 2.883-2.871-.047-.122-.031-.221.035-.221.065 0 .119-.675.119-1.5s-.06-1.5-.135-1.5c-.074 0-.09-.073-.035-.161.366-.593-2.165-3.282-2.75-2.921-.09.056-.163.04-.163-.035 0-.075-.6-.158-1.333-.184-.98-.036-1.334.007-1.334.159 0 .162-.044.164-.2.008-.247-.247-.633-.261-.633-.023zm-1.167.709c0 .029-.243.272-.541.541l-.542.49.49-.542c.456-.505.593-.618.593-.489zm-6.75 13.948c.452.458.784.833.738.833-.046 0-.453-.375-.904-.833-.452-.459-.784-.834-.738-.834.046 0 .453.375.904.834zm54.584 7.51c0 .097-.064.137-.141.089-.234-.144-1.371.238-1.469.493-.051.132-.152.202-.226.157-.073-.046-.478.3-.899.769-.68.756-.853 1.092-.785 1.523.011.069-.063.125-.165.125-.101 0-.142.11-.09.245.051.135.022.289-.066.343-.744.46.097 3.336 1.341 4.579 1.243 1.243 4.118 2.085 4.579 1.341.054-.088.208-.118.343-.066.134.052.244.011.244-.091 0-.101.057-.175.125-.164 1.177.185 2.921-2.032 3.155-4.012.102-.861-.208-2.508-.473-2.508-.088 0-.113-.075-.057-.167.057-.091.019-.166-.083-.166-.102 0-.142-.072-.088-.16.274-.443-1.836-2.158-2.732-2.221-.282-.02-.513-.092-.513-.161s-.45-.125-1-.125c-.593 0-1 .072-1 .177zm-69.5 1.182c0 .072-.105.09-.233.041-.129-.049-.284-.008-.345.091-.062.1-.183.137-.27.083-.214-.132-1.122.448-1.736 1.107-.275.295-.387.476-.25.401.138-.075.037.066-.223.314-.284.269-.435.551-.377.702.062.164.029.211-.097.133-.128-.079-.158-.028-.088.153.057.15.032.316-.055.37-.21.13-.208 2.746.002 2.746.089 0 .118.112.065.25-.052.138-.008.25.099.25.107 0 .148.075.091.167-.057.091-.019.166.083.166.103 0 .14.075.084.167-.057.092-.019.167.083.167.102 0 .144.068.092.152-.24.388 1.981 2.195 2.389 1.943.086-.054.187-.007.224.104.091.271 2.996.281 3.086.01.035-.105.154-.156.265-.113.33.126 1.726-.862 2.261-1.601 1.144-1.578 1.119-4.883-.045-5.885-.195-.168-.243-.251-.105-.183.137.067-.009-.151-.325-.486-.593-.628-.783-.761-.575-.4.067.115-.082-.005-.329-.265-.253-.266-.555-.434-.689-.382-.131.05-.286.014-.344-.08-.058-.094-.21-.13-.339-.081-.128.049-.233.031-.233-.041 0-.071-.487-.13-1.083-.13s-1.083.059-1.083.13z" fill="#fff"/><path fill-rule="evenodd" clip-rule="evenodd" d="M284.667 22.789c-.321.038-.752.227-.959.419l-.375.35v9.36c0 5.148-.049 9.409-.108 9.469-.06.059-.513-.123-1.007-.405-2.75-1.574-6.69-2.267-11.836-2.082-2.614.094-3.163.169-5.299.727-7.968 2.08-11.157 9.06-10.681 23.373.185 5.55.58 8.231 1.678 11.389.98 2.818 3.165 5.239 6.003 6.653 5.726 2.852 16.589 2.491 21.07-.699.651-.463.653-.462.783.515.208 1.574.609 1.7 5.131 1.615l2.962-.056.804-.936V53.023c0-32.847.121-29.975-1.264-30.202-.829-.136-5.828-.159-6.902-.032zm-151.75 2.216c-10.255 1.415-14.391 5.105-15.5 13.828-1.063 8.362 1.339 14.639 6.583 17.204 3.601 1.76 5.053 2.002 13.667 2.277 14.346.459 15.232.886 15.235 7.353.003 6.044-1.644 7.889-7.894 8.846-1.744.267-10.375.097-11.841-.233-4.362-.982-5.759-2.382-6.084-6.099-.197-2.257-.024-2.181-4.963-2.181-5.218 0-5.248.023-4.796 3.726.874 7.166 4.051 10.906 10.988 12.935 3.896 1.14 11.335 1.676 16.188 1.167 11.293-1.185 16.164-4.935 18.178-13.995.355-1.592.402-6.766.079-8.632-1.101-6.365-4.029-9.594-10.257-11.312-1.468-.405-2.972-.547-7.583-.713-5.968-.215-11.053-.515-11.75-.692a5.83 5.83 0 00-1.183-.15c-3.147-.005-4.817-2.21-4.817-6.36 0-4.649 1.182-6.511 4.666-7.354 2.384-.576 2.962-.62 8.096-.62 10.443 0 12.203.999 12.994 7.378.161 1.297.36 1.362 4.34 1.426 5.563.089 5.554.098 4.922-4.971-.858-6.875-5.374-11.151-13.185-12.486-4.577-.783-11.782-.936-16.083-.342zm94.333 14.939c-2.312.141-5.847 1.286-7.442 2.411-.647.456-.755.396-.853-.473-.152-1.352-.248-1.382-4.398-1.382-3.57 0-3.572 0-3.981.409l-.409.409v41.197l.398.398c.794.795 7.847.876 8.672.1l.43-.404.001-10.596c.001-15.308.318-18.188 2.259-20.494 2.698-3.208 11.32-3.668 13.895-.742 1.248 1.417 1.231 1.2 1.336 17.428l.092 14.288.924.924 3.392.053c3.682.059 4.622-.071 4.973-.684.303-.529.295-26.626-.008-29.619-1.063-10.48-6.223-14.018-19.281-13.223zm107.833.054c-8.65.891-13.232 4.788-14.604 12.419-1.5 8.343-.74 19.088 1.7 24.053 2.988 6.077 11.878 8.782 23.154 7.045 7.27-1.12 11.716-5.871 11.746-12.552.008-1.7-.028-1.713-4.566-1.713-4.412 0-4.319-.031-4.647 1.556-.617 2.988-2.688 4.053-8.078 4.156-8.761.167-10.378-1.893-10.367-13.212.004-4.319.064-5.083.611-7.75.778-3.797 3.215-5.162 9.218-5.162 5.764 0 8.75 1.65 8.75 4.833 0 .822.445.912 4.513.912 4.541 0 4.579-.014 4.559-1.712-.072-6.277-3.449-10.4-9.989-12.197-2.405-.661-8.704-1.016-12-.676zm43.667-.001c-9.371.842-14.735 5.344-14.747 12.378-.004 2.217-.199 2.125 4.505 2.125h3.84l.41-.409c.225-.225.409-.586.409-.803 0-3.233 2.384-4.558 8.527-4.74 7.289-.215 9.305 1.042 9.588 5.982l.084 1.446-6.642.082c-6.299.079-9.541.246-11.224.581-6.134 1.22-9.273 4.097-10.408 9.539-.304 1.457-.357 6.319-.081 7.386.901 3.481 1.896 5.263 3.827 6.853 3.063 2.523 6.521 3.47 12.745 3.488 5.271.016 8.305-.572 11.187-2.166l1.02-.565.093.689c.19 1.417.507 1.545 3.979 1.609 1.662.031 3.273.009 3.58-.049l.558-.105V66.091c0-19.462.085-18.164-1.33-20.336-1.905-2.924-4.707-4.488-10.003-5.583-1.145-.237-7.903-.356-9.917-.175zm-211.952.679c-.385.225-.629 1.184-.471 1.857.128.548.653 1.96 7.343 19.717 6.188 16.427 7.163 19.068 7.163 19.392 0 .283-.869 2.647-2.581 7.025-4.414 11.282-4.53 10.416 1.397 10.416 5.073 0 4.419.449 6.198-4.25 2.143-5.66 2.515-6.642 4.319-11.416l2.583-6.834 2.802-7.416c1.055-2.796 2.755-7.296 3.779-10 7.949-21.009 7.771-18.667 1.412-18.667-5.081 0-4.31-.656-6.464 5.5-.689 1.971-1.678 4.783-2.197 6.25-1.256 3.554-2.508 7.11-3.755 10.667-1.672 4.78-2.177 6.167-2.286 6.277-.069.068-.903-2.066-1.855-4.743-.952-2.677-2.014-5.655-2.362-6.618-.527-1.47-1.05-2.942-1.569-4.416a333.458 333.458 0 00-1.336-3.75c-.22-.596-.821-2.284-1.336-3.75-1.556-4.431-1.611-4.568-2.043-5l-.418-.417-4.019.005c-2.36.003-4.136.074-4.304.171zm135.991.032c-.612.466-.622.805-.622 21.225 0 22.098-.052 21.009 1.007 21.378.838.292 6.851.253 7.575-.05.86-.359.834.308.834-21.539V41.36l-.808-.86h-3.856c-2.827 0-3.928.056-4.13.208zm-27.783 8.366c5.792.731 7.543 2.688 8.207 9.176.65 6.347-.29 12.317-2.266 14.389-2.803 2.939-11.231 3.291-14.427.603-3.415-2.874-3.462-19.438-.063-22.422 1.831-1.608 4.815-2.217 8.549-1.746zM391.362 66.25c-.031.917-.118 1.929-.194 2.25-.077.321-.23.996-.341 1.5-.575 2.609-2.136 4.141-4.91 4.817a79.12 79.12 0 00-1.5.38c-.953.253-7.004.238-7.836-.02-1.781-.551-2.125-.693-2.657-1.1-1.869-1.425-1.981-6.468-.179-8.05.637-.56 2.173-1.186 2.97-1.21.322-.013.642-.064.952-.151.229-.074 3.416-.123 7.083-.109l6.667.026-.055 1.667zm-330.029-.698c0 .029.244.273.542.542l.542.489-.49-.541c-.456-.505-.594-.619-.594-.49zm10.215 37.498c.203.211.399.361.437.334.097-.069-.509-.717-.672-.717-.074 0 .032.172.235.383zm-14.308 1.992l-.49.541.542-.489c.505-.456.618-.594.489-.594-.029 0-.272.244-.541.542zM26.756 1.363c-.813.429-2.65 2.237-2.507 2.468.057.093.038.169-.042.169-.404 0-1.203 2.397-1.205 3.617-.008 3.571-3.233 8.513-8.169 12.516-.87.706-1.638 1.359-1.705 1.45-.068.092-.124.106-.125.031-.002-.075-.227.023-.501.218C10.906 22.968 7.836 24 6.049 24 4.071 24 .978 26.155.261 28.032c-.387 1.013-.328 6.719.072 6.972.138.087.19.159.116.16-.074.002.001.235.167.519.382.656 2.357 2.52 2.546 2.403.079-.048.169-.009.202.089.032.097.17.195.306.217.136.022.415.133.622.247.206.113.375.157.375.096 0-.06.098-.028.218.072.12.1 1.077.289 2.125.421 2.064.258 3.175.573 4.282 1.211.389.225.709.349.711.276.001-.072.057-.052.125.045.067.096.688.564 1.379 1.038 1.572 1.079 3.516 2.861 4.664 4.275.483.595.954 1.036 1.046.979.093-.057.117-.021.053.083-.152.245.72 1.558.943 1.42.098-.061.122-.025.055.082-.149.242.197.904.405.776.088-.055.109.027.047.189-.081.209-.051.249.111.15.14-.087.181-.072.111.041-.144.233.051.731.24.614.081-.05.098.038.038.195-.081.209-.051.249.111.15.143-.089.181-.072.106.048-.229.371.072 1.066.359.829.227-.187.235-.168.065.152-.247.463-.244.554.014.491.115-.028.152-.019.083.019-.174.098-.156 1.17.022 1.28.08.05.11.414.065.81-.071.628-.031.745.312.924.216.113.262.168.101.122-.309-.088-.418.309-.132.485.088.054.112.221.055.371-.075.196-.043.234.116.135.148-.091.181-.072.101.058-.227.368.058.875.391.696.304-.162.511-.079.511.207 0 .086-.105.116-.234.067-.356-.137-.211.683.192 1.086l.334.334.255-.51c.238-.477.234-.517-.063-.611-.606-.192.104-1.23.755-1.104.227.043.282-.012.207-.207-.056-.147-.038-.267.041-.267.151 0 3.126-1.918 4.68-3.017.504-.357 1.42-.92 2.037-1.251.616-.331 1.305-.773 1.531-.983.226-.21.454-.338.506-.286.053.053.213-.049.356-.226.144-.176.214-.227.156-.112-.145.286.004.261.318-.054.144-.144.262-.184.262-.088 0 .095.125.125.278.066.201-.077.24-.046.141.115-.092.148-.073.181.058.1.108-.066.152-.191.1-.276-.053-.085-.017-.155.08-.155s.177.07.177.156.144.146.32.132c.25-.018.287-.087.167-.311-.104-.196-.29-.264-.577-.211-.233.042-.552-.003-.709-.101-.223-.138-.15-.161.34-.106.352.04.625-.002.625-.095 0-.092-.121-.12-.268-.063-.185.07-.241.03-.18-.128.112-.293-1.123-1.518-1.374-1.363-.106.065-.166.02-.14-.106.025-.122-.084-.21-.244-.198-.16.013-.254-.036-.209-.107.109-.177-.404-.361-.625-.224-.1.062-.129.032-.067-.069.291-.471-3.004-.926-3.542-.489-.205.166-.227.147-.13-.111.099-.263.055-.294-.292-.207-.224.056-.452.032-.505-.055-.054-.086-.248-.128-.432-.092-.212.041-.293-.003-.22-.12.075-.122-.008-.153-.246-.09-.198.051-.322.033-.277-.04.119-.192-.365-.344-.693-.218-.165.063-.235.038-.173-.062.132-.213-1.007-.765-1.269-.615-.108.062-.141.052-.073-.024.16-.177-.489-.635-.708-.499-.091.056-.166.003-.166-.117 0-.277-.625-.679-.844-.544-.09.056-.144.014-.118-.093.025-.107-.101-.281-.279-.387-.873-.519-4.926-4.501-4.926-4.84 0-.024-.411-.669-.915-1.434-.503-.765-1.069-1.804-1.259-2.31-.189-.506-.393-.999-.452-1.095-.132-.214-.163-.392-.302-1.764-.583-5.739 9.342-15.795 16.122-16.334.885-.07 1.709-.189 1.83-.264.121-.075.347-.146.501-.157 1.593-.117 4.098-2.929 4.748-5.328.55-2.034-.449-6.584-1.446-6.584-.088 0-.16-.104-.16-.23 0-.127-.206-.365-.458-.529-.252-.163-.557-.436-.678-.605-.743-1.041-6.953-1.478-8.608-.606zm21.977.11c-1.91 1.389-3.865 5.537-3.152 6.689.067.109.158.546.202.972.114 1.091.885 2.692 1.74 3.612.754.811 2.142 1.87 2.146 1.637.002-.073.058-.048.125.056.22.339 1.759.76 3.289.9 1.968.18 2.444.315 4.196 1.182 1.874.927 1.79.895 1.634.626-.079-.136-.071-.173.019-.091.083.076.151.22.151.319s.105.215.232.258c.158.053.189.004.098-.153-.079-.136-.071-.173.019-.091.083.076.151.2.151.275 0 .245 1.959 1.663 2.149 1.555.101-.058.13-.046.064.028-.141.156 2.005 2.421 2.246 2.37.09-.018.186.101.214.266.071.426.417.799.622.673.103-.064.123-.026.05.092-.137.223.203.727.405.602.071-.044.119.051.107.21-.013.16.062.274.165.255.104-.019.179.093.167.25-.012.157.077.264.199.239.121-.025.173.031.115.125-.168.271.076.549.311.354.143-.119.207-.073.225.162.013.181-.048.284-.136.23-.088-.055.003.237.203.648.199.411.451.713.559.671.108-.041.196.037.196.175 0 .137-.075.203-.167.146-.101-.062-.123.012-.055.188.061.16.111.325.111.366 0 .042.136.004.301-.085.434-.232.831.04.551.377-.177.213-.157.249.124.228.184-.014.298-.084.253-.157-.045-.073-.002-.132.095-.132s.176.075.176.167c0 .091.085.166.187.166.135 0 .133-.066-.008-.235-.123-.148-.134-.272-.032-.336a.191.191 0 01.262.058c.142.23.736.149.645-.087-.084-.219 3.606-2.733 4.011-2.733a.477.477 0 00.368-.192c.074-.12.046-.148-.074-.074-.113.07-.192.014-.192-.136 0-.168.093-.218.277-.148.228.088.255.036.152-.297a2.811 2.811 0 01-.121-.685c.002-.19-.089-.253-.277-.193-.24.077-.245.064-.031-.09.17-.122.183-.181.042-.182-.115-.002-.209-.087-.209-.19 0-.137.062-.136.229.003a.546.546 0 00.487.091c.325-.125.674.455.443.734-.111.135-.101.145.034.033.121-.1.301-.1.489.001.239.128.293.097.274-.156-.016-.211-.109-.284-.281-.219-.218.081-.224.054-.04-.172.185-.229.173-.261-.084-.219-.165.026-.376-.009-.467-.078-.329-.25-1.638-.387-1.496-.157.086.138.063.169-.065.09-.107-.066-.156-.182-.11-.258.124-.199-.317-.331-.772-.23-.299.066-.334.046-.149-.083.265-.187-.498-.478-.992-.378-.137.027-.194-.007-.126-.076.159-.161-.49-.623-.696-.496-.085.053-.209.008-.275-.099-.08-.13-.042-.155.113-.074.129.067.086.002-.094-.145-.181-.146-.424-.229-.54-.185-.116.045-.193-.01-.171-.121.021-.111-.091-.192-.251-.179-.159.012-.254-.036-.21-.107.126-.202-.379-.542-.601-.405-.122.075-.157.053-.088-.058.135-.218-.547-.732-.78-.587-.091.056-.116.022-.056-.075.06-.097-.264-.489-.72-.871-3.311-2.772-6.004-7.749-6.005-11.097 0-1.696-1.267-4.007-2.822-5.148L57.205 1h-7.822l-.65.473zm27.14.645c-.208.04-.339.135-.292.212.047.076-.064.1-.248.051-.184-.048-.435-.004-.558.098-.122.102-.272.135-.332.075-.06-.06-.11-.018-.11.095 0 .112-.062.166-.138.119-.225-.14-1.811 1.595-2.097 2.294-.474 1.156-.267 4.499.258 4.174.077-.048.098.023.046.158-.1.26.918 1.498 1.479 1.798.232.125.294.123.214-.007-.07-.113-.015-.144.145-.082.142.054.222.157.178.228-.132.214.796.508 1.304.413.301-.057.433-.027.365.084-.067.108.149.172.58.172.43 0 .646-.064.579-.172-.067-.11.065-.141.366-.086.582.106 1.096-.04.953-.272-.068-.11.022-.132.247-.06.257.081.355.042.355-.144 0-.142.096-.218.219-.172.217.084.902-.53.822-.736-.023-.06.04-.108.139-.108.314 0 .666-.617.48-.841-.12-.145-.067-.228.191-.295.278-.073.34-.188.277-.516-.044-.232-.016-.382.062-.333.158.097.175.012.233-1.14.022-.435-.019-.792-.093-.792-.073 0-.09-.161-.038-.359.057-.22.028-.319-.075-.255-.102.063-.141-.045-.098-.27.31-1.621-3.17-3.762-5.413-3.331zM5.833 3.381c-.32.1-.621.224-.666.275-.046.052-.191.117-.322.146-2.02.438-3.187 4.366-2 6.733.417.832 1.143 1.658 1.347 1.533.078-.048.141-.004.141.098 0 .844 3.781 1.22 5.167.514.855-.436 1.863-1.331 1.734-1.54-.048-.077-.01-.14.085-.14.591 0 1.001-2.85.654-4.54-.204-.995-2.038-2.979-2.494-2.697-.08.049-.146.025-.146-.055 0-.396-2.52-.631-3.5-.327zM63 20.417c.311.32.528.583.482.583-.046 0-.338-.263-.649-.583-.311-.321-.528-.584-.482-.584.046 0 .338.263.649.584zm13.208 2.203c-.286.102-.262.324.035.324.133 0 .198-.072.143-.16-.054-.088.005-.123.132-.076a.277.277 0 01.178.313c-.041.178-.008.185.15.03.112-.111.406-.159.658-.109.258.052.507.009.573-.099.083-.133-.023-.159-.355-.086-.349.076-.408.059-.228-.067.25-.175-.826-.233-1.286-.07zm2.054.361c-.101.164.165.411.613.571.173.062.296.022.303-.099.007-.112.077-.053.155.13.079.184.149.231.155.105.01-.194.055-.194.294 0 .198.16.244.166.155.018-.251-.419-1.524-.97-1.675-.725zm1.828 1.007c-.052.086-.019.203.074.26.093.058.169.054.169-.009 0-.062.132-.012.292.113.237.184.233.156-.026-.147-.36-.422-.377-.429-.509-.217zm224.41 1.007c-4.678 1.708-3.895 9.297 1.057 10.245 4.784.915 8.002-2.889 6.382-7.547-.885-2.545-4.382-3.814-7.439-2.698zm-223.191.039c.121.157.171.363.112.459-.059.095-.032.174.059.174.344 0 .333-.3-.023-.603-.287-.245-.319-.251-.148-.03zm-28.976.593c0 .096-.131.142-.291.101-.378-.095-1.804.631-1.752.893.021.11-.058.163-.178.117-.289-.111-.846.519-.686.777.08.129.056.16-.064.086-.263-.162-.885.898-.759 1.294.059.187.032.272-.066.211-.091-.056-.211.066-.266.271-.156.582-.122 1.426.062 1.54a.383.383 0 01.164.301c-.001.123-.07.103-.181-.051-.14-.196-.158-.16-.083.166.053.23.097.478.098.552.001.074.09.08.197.014.133-.082.16-.028.085.168-.17.443.325 1.279.68 1.146.245-.092.258-.069.08.151-.321.394 1.022 1.595 1.42 1.271.234-.189.254-.177.151.097-.105.28-.086.289.167.083.25-.203.272-.197.178.054-.084.224.027.324.51.458.814.226 2.368.224 2.368-.004 0-.097.074-.13.164-.074.232.143 1.715-.539 1.595-.734-.054-.087-.01-.213.097-.279.122-.076.151-.049.076.072-.231.374.178.185.638-.294.283-.296.416-.568.339-.693-.083-.134-.059-.163.069-.084.293.181.874-1.27.981-2.447.074-.818.041-1.027-.184-1.153-.152-.084-.274-.244-.273-.354.002-.122.066-.103.164.05.255.394.205-.087-.08-.767-.135-.325-.314-.548-.397-.496-.084.051-.141-.037-.129-.197.013-.159-.068-.272-.179-.25-.112.022-.163-.064-.114-.191.097-.253-.568-.805-.799-.663-.079.049-.123-.001-.097-.111.025-.11-.059-.238-.186-.284-.155-.056-.188-.013-.099.13.087.142.066.173-.063.094-.108-.067-.151-.192-.097-.28.054-.087-.176-.273-.51-.412-.771-.322-2.75-.523-2.75-.279zm-23 .319c-4.108.693-5.718 5.76-2.722 8.57 2.512 2.356 6.644 1.516 8.004-1.626.306-.708.401-2.922.149-3.473A5.15 5.15 0 0134.59 29c-.139-.51-.307-.833-.435-.833-.085 0-.155-.106-.155-.236 0-.908-3.138-2.243-4.667-1.985zm53.137.973c-.057.057-.003.3.121.539.124.239.187.496.141.572-.047.075-.006.137.091.137.214 0 .209-.093-.048-.802-.11-.303-.247-.504-.305-.446zm-14.787.478c-.198.238-.085.77.163.77.079 0 .101.131.05.291-.075.231-.059.243.073.057.192-.271.081-.682-.185-.682-.1 0-.043-.101.126-.224.188-.138.24-.266.134-.332-.095-.059-.258-.004-.361.12zm.428 3.047c-.061.062-.111.337-.111.612 0 .621.188.469.268-.216.061-.522.035-.587-.157-.396zm.167 1.125c-.134.351.121 1.148.398 1.239.207.068.208.04.007-.203-.128-.156-.227-.506-.219-.777.015-.54-.045-.624-.186-.259zM81.833 34c-.137.089-.184.163-.104.164.08.002.042.13-.084.285-.153.189-.16.241-.021.157.186-.112.624-.776.507-.77-.026.001-.16.075-.298.164zm-12.194.779c.261.485 1.01 1.134.967.839-.048-.324-.41-.757-.813-.973-.276-.148-.297-.13-.154.134zM48.926 47.056c-.263.192-.267.222-.031.222.149 0 .272-.067.272-.149 0-.082.086-.095.192-.03.119.074.147.046.074-.073-.148-.239-.139-.24-.507.03zm8.317.637c-.071.123-.066.166.011.095.185-.167 1.43 1.048 1.297 1.265-.058.093-.018.113.09.046.256-.158.289-.101-.538-.913-.546-.536-.763-.661-.86-.493zm-10.003.652c-.399.441-.006.533.405.094.277-.295.303-.383.109-.383-.139 0-.37.13-.514.289zm-12.333.312c.37.386.403.472.156.408-.172-.045-.4-.266-.506-.49-.244-.519-.219-.513.35.082zm11.728.468c-.294.342-.514.708-.426.708.034 0 .228-.225.431-.5.402-.543.398-.678-.005-.208zm-41.611.369c-.898.306-2.606 1.739-2.423 2.034.047.076.012.139-.078.139-.221 0-.578 1.117-.457 1.432.055.143.026.208-.068.15-.26-.161-.197 1.582.092 2.554.154.518.352.864.495.864.131 0 .2.1.153.222-.117.304 1.381 1.665 1.698 1.543.137-.052.206-.027.154.056-.153.248 1.086.581 2.16.581s2.313-.333 2.16-.581c-.052-.083.035-.101.192-.041.193.074.247.047.167-.083-.074-.12-.035-.161.104-.108.123.047.445-.153.717-.444.271-.292.388-.47.259-.395-.158.091-.195.071-.113-.061.066-.107.189-.152.273-.1.215.133.848-.946.761-1.298-.04-.16-.012-.255.061-.209.225.139.336-.387.336-1.591 0-3.505-3.281-5.809-6.643-4.664zm54.043.04c.147.225.211.472.142.548-.069.076-.032.084.083.018.225-.129.039-.646-.31-.861-.101-.062-.063.071.085.295zm-22.85 1.853c-.057.092-.017.112.091.046.105-.066.192-.035.192.067 0 .102.075.14.167.083.091-.056.166-.161.166-.232 0-.187-.496-.158-.616.036zm.528.53l-.149.479c-.071.235.196.604.437.604.074 0 .126-.206.117-.458l-.017-.459-.147.417c-.123.346-.136.31-.077-.208.071-.631-.02-.838-.164-.375zm8.432 1.652c-.006.726.033 1.276.087 1.223.159-.159.202-1.847.057-2.209-.084-.211-.137.148-.144.986zm-22.774-.047c-.131.212-.403.009-.403-.302 0-.212.046-.222.248-.055.137.113.206.274.155.357zM36.917 54c0 .367.056.667.125.667.068 0 .125-.3.125-.667 0-.367-.057-.667-.125-.667-.069 0-.125.3-.125.667zm-.105 1.449c-.126.155-.141.229-.035.165a.188.188 0 01.279.093c.046.115.09.041.098-.165.015-.449-.041-.465-.342-.093zm-.091.661c.06.06.026.21-.076.333-.137.165-.136.224.001.224.103 0 .187-.032.187-.07 0-.038.046-.188.101-.333.06-.156.014-.264-.111-.264-.116 0-.163.049-.102.11zm-.388.89c-.181.117-.19.162-.031.164.119.002.171.079.113.172-.058.093-.174.127-.258.075-.084-.052-.109.021-.054.164.137.355.184.331.48-.242.266-.513.189-.616-.25-.333zM24 58.018c0 .082-.122.149-.27.149-.186 0-.225.068-.125.216.08.119.011.069-.154-.111-.221-.241-.246-.359-.098-.451.234-.144.647-.019.647.197zm-16.873.93c-.22.042-.446.043-.667.003-.207-.04-.077-.074.29-.076.367-.001.536.031.377.073zm16.812.015c-.052.085.082.322.299.525.216.204.437.301.489.215.053-.085-.081-.321-.298-.525-.217-.203-.437-.3-.49-.215zm10.391.958c-.116.139-.244.221-.284.18-.041-.04-.22.073-.399.252-.179.179-.398.281-.486.227-.089-.055-.161-.016-.161.087 0 .102-.067.145-.148.095-.081-.051-.246.027-.367.173-.198.238-.155.238.43-.007.83-.347 2.054-1.261 1.689-1.261-.035 0-.158.114-.274.254zm-9.497.009c0 .225.488.369.638.189.141-.171.091-.219-.228-.219-.225 0-.41.013-.41.03zm.85.391c-.176.111-.065.232.452.496.813.415.809.414.809.115 0-.139-.125-.211-.305-.177-.199.039-.307-.04-.308-.223-.002-.228-.031-.237-.15-.049-.122.192-.157.185-.206-.038-.04-.185-.131-.224-.292-.124zm3.861 1.299c.253.038.628.037.833-.003.205-.039-.002-.071-.46-.069-.459.001-.626.033-.373.072zm-24.08 8.77c.209.116.321.275.25.354-.072.078-.033.087.086.018.28-.162-.05-.598-.445-.589-.197.004-.167.064.109.217zm.704-.084c.092.031.137.106.099.167-.038.06.224.11.58.11.357 0 .678-.075.713-.166.038-.097-.275-.167-.748-.167-.447 0-.737.025-.644.056zm1.9.065c.054.268.582.379.794.167.102-.102.036-.193-.185-.25-.189-.05-.302-.022-.251.061.052.083.02.151-.069.151-.089 0-.201-.077-.247-.171-.047-.094-.066-.075-.042.042zm-3.86.149c-.627.181-.635.197-.259.501.155.126.232.146.172.045-.062-.102.069-.266.295-.369.26-.118.442-.126.506-.021a.2.2 0 00.274.056c.111-.069.093-.158-.053-.25-.261-.165-.226-.167-.935.038zm4.959.157c0 .097.069.133.155.08.085-.053.203-.018.261.076.059.095.177.129.262.077.085-.053.155-.012.155.09s.075.14.167.083c.091-.056.166-.019.166.084 0 .102.075.14.167.083.092-.057.167-.011.167.101 0 .113.049.155.109.095.061-.06.225-.017.366.097.204.166.23.165.128-.005-.285-.475-2.103-1.22-2.103-.861zm-6.379.505c-.32.187-.242.485.128.485.127 0 .219-.149.205-.334a4.536 4.536 0 00-.031-.328l-.302.177zm-1.417 1.197c-.96.971-1.03 1.112-.538 1.075.184-.014.334-.121.334-.239 0-.416.023-.468.37-.838.267-.284.404-.329.573-.188.147.122.223.126.223.012 0-.095-.093-.216-.208-.269-.115-.053-.031-.051.186.004.279.07.374.036.323-.116-.142-.426-.406-.309-1.263.559zm10.048-.55c-.065.106-.074.238-.019.293.055.055.1.008.1-.104 0-.112.076-.157.169-.1.094.058.119.194.057.302-.062.108-.051.14.025.071.153-.138.749.332.749.591 0 .09.192.341.426.558.239.221.374.479.308.586-.074.12-.045.147.076.072.265-.164-.18-.901-1.077-1.782-.46-.451-.734-.615-.814-.487zm14.321 1.879l-.49.542.542-.49c.505-.456.618-.593.489-.593-.029 0-.272.243-.541.541zm8.313 3.459c0 .595.031.839.068.541.037-.36.037-.723 0-1.083-.037-.298-.068-.054-.068.542zM.261 81.483c-.051.082.038.292.198.466.16.174.235.231.167.127-.068-.105-.074-.239-.013-.3.06-.06.017-.109-.095-.109S.36 81.592.417 81.5c.056-.092.065-.167.019-.167-.045 0-.125.068-.175.15zm.672.991c-.048.077.164.383.471.681.402.389.594.483.686.334.076-.122.06-.165-.039-.104-.2.124-1.104-.776-.942-.938.062-.063.068-.114.012-.114-.056 0-.14.063-.188.141zm18.484 4.693c.451.458.858.833.904.833.046 0-.286-.375-.738-.833-.451-.459-.858-.834-.904-.834-.046 0 .286.375.738.834z" fill="#fff"/></svg>