<svg width="205" height="113" viewBox="0 0 225 124" fill="none" xmlns="http://www.w3.org/2000/svg"><path d="M0 9h176v109a6 6 0 01-6 6H6a6 6 0 01-6-6V9z" fill="#fff"/><path d="M9.056 29.526V28.41h2.352v-6.276h-.096L9.368 24.21l-.828-.744 2.136-2.316h2.076v7.26h2.028v1.116H9.056zm5.484 21.346H8.756v-1.284l2.736-2.388c.432-.384.764-.748.996-1.092.24-.344.36-.708.36-1.092v-.132c0-.44-.12-.776-.36-1.008-.24-.24-.588-.36-1.044-.36-.464 0-.824.124-1.08.372a2.171 2.171 0 00-.54.948l-1.176-.444c.08-.264.196-.516.348-.756.152-.248.344-.468.576-.66.24-.192.52-.344.84-.456a3.485 3.485 0 011.128-.168c.432 0 .816.064 1.152.192.344.12.632.288.864.504.232.216.408.476.528.78.12.296.18.624.18.984 0 .336-.052.648-.156.936-.096.28-.236.552-.42.816a4.912 4.912 0 01-.636.744c-.248.24-.52.48-.816.72l-2.028 1.704h4.332v1.14zm-3.288 16.425c.536 0 .932-.112 1.188-.336.264-.232.396-.52.396-.864v-.084c0-.384-.128-.676-.384-.876-.248-.208-.584-.312-1.008-.312-.408 0-.756.092-1.044.276-.28.184-.516.436-.708.756l-.912-.78c.128-.184.276-.36.444-.528.168-.168.36-.312.576-.432.216-.128.464-.228.744-.3.28-.08.596-.12.948-.12.392 0 .756.048 1.092.144.336.096.628.24.876.432a1.9 1.9 0 01.576.684c.136.264.204.564.204.9 0 .264-.044.504-.132.72-.08.216-.196.408-.348.576a1.81 1.81 0 01-.516.396c-.2.104-.412.18-.636.228v.06c.24.048.468.128.684.24.216.104.408.244.576.42.168.168.3.372.396.612.096.232.144.5.144.804 0 .368-.072.704-.216 1.008a2.207 2.207 0 01-.624.768 2.88 2.88 0 01-.96.504 4.407 4.407 0 01-1.26.168 3.76 3.76 0 01-1.044-.132 3.22 3.22 0 01-.792-.324 3.385 3.385 0 01-.612-.48 4.726 4.726 0 01-.444-.564l.996-.768c.208.336.452.612.732.828.288.208.68.312 1.176.312.528 0 .932-.12 1.212-.36.28-.248.42-.588.42-1.02v-.096c0-.432-.148-.76-.444-.984-.288-.232-.708-.348-1.26-.348h-.9v-1.128h.864zm1.092 26.266v-1.632H8.36v-1.152l3.504-5.592h1.764v5.688h1.176v1.056h-1.176v1.632h-1.284zM9.5 90.875h2.844v-4.452h-.072L9.5 90.875zm4.632 16.822h-3.804l-.216 2.976h.096a2.45 2.45 0 01.696-.78c.272-.2.644-.3 1.116-.3.36 0 .692.06.996.18.312.12.58.292.804.516.232.224.412.5.54.828.136.32.204.684.204 1.092 0 .416-.068.8-.204 1.152a2.62 2.62 0 01-.588.9 2.761 2.761 0 01-.948.588 3.76 3.76 0 01-1.284.204 3.538 3.538 0 01-1.788-.456 3.2 3.2 0 01-.588-.48 4.726 4.726 0 01-.444-.564l.984-.768c.104.16.212.312.324.456.12.136.252.256.396.36.144.104.308.184.492.24.192.056.408.084.648.084.52 0 .916-.14 1.188-.42.272-.288.408-.676.408-1.164v-.096c0-.488-.14-.868-.42-1.14-.272-.272-.664-.408-1.176-.408-.376 0-.672.068-.888.204a2.927 2.927 0 00-.564.456l-1.116-.156.312-4.668h4.824v1.164z" fill="#D14671"/><path d="M0 6a6 6 0 016-6h164a6 6 0 016 6v3H0V6z" fill="#EAEAEA"/><circle cx="5.673" cy="4.479" r="1.493" fill="#6422F1"/><circle cx="9.854" cy="4.479" r="1.493" fill="#F46591"/><circle cx="14.033" cy="4.479" r="1.493" fill="#2BD38D"/><rect x="21" y="23" width="86" height="7" rx="3.5" fill="#D7D7D7"/><rect x="41.203" y="44.023" width="52.548" height="7.166" rx="3.583" fill="#EAEAEA"/><rect x="21" y="44" width="16" height="7" rx="3.5" fill="#EAEAEA"/><rect x="21.497" y="65" width="37.62" height="7.166" rx="3.583" fill="#D7D7D7"/><rect x="21.497" y="85" width="37.62" height="7.166" rx="3.583" fill="#EAEAEA"/><rect x="21" y="106" width="60" height="7" rx="3.5" fill="#EAEAEA"/><rect x="62.7" y="85" width="33.44" height="7.166" rx="3.583" fill="#D7D7D7"/><rect x="99.723" y="85" width="22.691" height="7.166" rx="3.583" fill="#EAEAEA"/><rect x="64" y="65" width="37.62" height="7.166" rx="3.583" fill="#EAEAEA"/><g filter="url(#filter0_d)"><rect x="140" y="44" width="81" height="63" rx="5" fill="#D14671"/></g><path d="M148.311 69.225l8.25 6.485 6.476-8.9 7.896 6.306 4.79-5.948 4.392 5.59 11.222-5.948 3.505 8.9 7.895-4.07 9.936 4.428" stroke="#fff" stroke-opacity=".1" stroke-width="2.11" stroke-miterlimit="10" stroke-linecap="round" stroke-linejoin="round"/><path d="M146 85.84l9.483-9.89 6.447 6.066 7.942-16.788 7.942 2.576L186.176 57l1.915 31 4.906-15.957 5.699 6.898 5.326-8.145L215 74.702" stroke="#fff" stroke-miterlimit="10" stroke-linecap="round" stroke-linejoin="round"/><circle cx="146" cy="86" r=".7" fill="#D14671" stroke="#fff" stroke-width=".6"/><circle cx="155" cy="76" r=".7" fill="#D14671" stroke="#fff" stroke-width=".6"/><circle cx="162" cy="82" r=".7" fill="#D14671" stroke="#fff" stroke-width=".6"/><circle cx="170" cy="65" r=".7" fill="#D14671" stroke="#fff" stroke-width=".6"/><circle cx="186" cy="57" r=".7" fill="#D14671" stroke="#fff" stroke-width=".6"/><circle cx="216" cy="75" r=".7" fill="#D14671" stroke="#fff" stroke-width=".6"/><circle cx="188" cy="88" r=".7" fill="#D14671" stroke="#fff" stroke-width=".6"/><circle cx="178" cy="68" r=".7" fill="#D14671" stroke="#fff" stroke-width=".6"/><circle cx="193" cy="72" r=".7" fill="#D14671" stroke="#fff" stroke-width=".6"/><circle cx="204" cy="71" r=".7" fill="#D14671" stroke="#fff" stroke-width=".6"/><circle cx="199" cy="79" r=".7" fill="#D14671" stroke="#fff" stroke-width=".6"/><rect x="145" y="96" width="72" height="2" fill="#fff"/><defs><filter id="filter0_d" x="136" y="44" width="89" height="71" filterUnits="userSpaceOnUse" color-interpolation-filters="sRGB"><feFlood flood-opacity="0" result="BackgroundImageFix"/><feColorMatrix in="SourceAlpha" type="matrix" values="0 0 0 0 0 0 0 0 0 0 0 0 0 0 0 0 0 0 127 0"/><feOffset dy="4"/><feGaussianBlur stdDeviation="2"/><feColorMatrix type="matrix" values="0 0 0 0 0 0 0 0 0 0 0 0 0 0 0 0 0 0 0.17 0"/><feBlend mode="normal" in2="BackgroundImageFix" result="effect1_dropShadow"/><feBlend mode="normal" in="SourceGraphic" in2="effect1_dropShadow" result="shape"/></filter></defs></svg>