<svg width="76" height="76" viewBox="0 0 76 76" fill="none" xmlns="http://www.w3.org/2000/svg"><circle cx="38" cy="38" r="38" fill="#1E1F27"/><path d="M47.092 19c-1.853 0-3.458.515-4.569 1.022-1.09-.376-2.897-1.018-5.066-.555-1.264.227-2.425.764-3.49 1.585-1.754-.869-3.586-1.402-5.507-1.49-1.182-.095-6 .468-7.729 3.082-.635 1.03-1.271 2.337-1.544 3.926-.274 1.402-.274 2.994.18 6.266.274 2.242.64 3.739 1.456 6.82.093.282.547 1.779 1.91 5.894.27.745.817 2.147 1.907 3.454.728.935 1.456 1.497 2.364 1.497 1.183 0 2-.84 2.727-1.774l.163-.194c-.067.11-.127.23-.163.38-.18.935.909 1.683 1.818 2.056.728.372 1.544.467 2.18.467.816 0 1.456-.186 1.818-.277.312-.11.987-.41 1.707-.902.032 2.388.054 5.207.11 5.853.274 2.432.91 4.112 2.092 5.047.908.748 2.545.843 2.637.843 1.634 0 4.18-1.121 5.27-2.896.546-.843.727-1.592.908-2.621.181-.56.362-3.83.454-4.484.125-1.034.22-2.053.316-3.042.6.16 1.339.332 2.141.332 1.452 0 3.362-1.03 3.725-1.22.727-.558 2.18-1.865 1.544-2.986-.362-.658-.909-.658-2.272-.468 0 0-2.18.278-2.365.183-.131-.051-.334-.183-.56-.354.471-.753.89-1.498 1.38-2.166a40.033 40.033 0 002.184-5.141 42.908 42.908 0 001.54-5.517c.64-2.805.82-4.112.455-5.61-.724-2.617-3.362-4.86-4.452-5.513-.728-.376-2.542-1.497-5.269-1.497zm0 1.87c2.273 0 3.817.934 4.633 1.307 1.002.562 3.274 2.432 3.455 4.206.092 1.03.181 2.06-.455 4.77-.362 1.306-.727 2.99-1.547 5.327-.455 1.307-.998 2.899-2.088 4.864-.028.047-.06.098-.089.15.107-.395.181-.713.181-.713.181-.935.181-1.683.089-2.804-.092-.563-.181-1.965-.181-2.527 0-.278.27-3.177.362-4.207.092-1.68-.909-3.739-1.179-4.111-1.363-2.15-2.09-3.363-3.546-4.58a14.311 14.311 0 00-1.829-1.38c.668-.167 1.406-.302 2.194-.302zm-8.03.383c1.185.03 2.19.365 2.94.646 1.91.654 3.088 1.68 3.635 2.147 1.182 1.03 1.817 2.06 3.18 4.21.1.205.36.64.565 1.246-1.86-.176-3.096.496-3.838 1.183-1.09.935-1 2.337-.908 3.363 0 .748.184 1.687 1.547 4.864.544 1.402 1.087 2.895 1.634 3.925a8.97 8.97 0 001.004 1.588 2.58 2.58 0 00-.642.468c-.544.653-.636 1.31-.817 2.527-.181.934-.362 2.895-.454 4.484 0 .653-.27 3.834-.363 4.301-.273.935-.365 1.402-.727 1.965-.636 1.026-2.635 1.87-3.817 1.774-.362 0-.909 0-1.363-.372-1.001-.749-1.363-2.432-1.456-3.74-.092-.934 0-7.668-.18-9.165-.093-.372-.182-1.307-.91-1.96-.305-.263-.937-.398-1.534-.49.008-.314.025-.628.082-.913.089-.562.27-.843.454-1.31.09-.278.27-.65.455-1.118.817-2.618.632-6.08.178-8.23-.09-.187-.455-1.68-1.726-2.52-1.363-.843-2.819-.376-3.636-.095a5.242 5.242 0 00-1.004.42c.057-.39.106-.785.188-1.168.362-1.87.728-3.458 1.91-5.047 1.271-1.592 2.723-2.618 4.36-2.899.433-.07.848-.095 1.242-.084zm-11.223.164c.213-.003.394 0 .529.015 1.42.077 2.78.42 4.129 1.004-.167.19-.334.38-.494.584-1.544 1.87-1.91 3.83-2.272 5.795a21.254 21.254 0 00-.184 7.197l-.178 1.775c-.092.935-.277 2.713.724 4.583.352.62.739 1.146 1.165 1.595a47.664 47.664 0 01-2.89 3.546c-.547.653-1.001 1.12-1.363 1.12-.093 0-.455-.185-1.002-.839-1-1.121-1.363-2.337-1.544-2.804-1.09-3.367-1.726-5.518-1.818-5.799-.728-2.99-1.09-4.484-1.455-6.635-.455-2.99-.455-4.487-.182-5.7.274-1.31.728-2.34 1.183-3.085 1.114-1.8 4.175-2.311 5.652-2.352zm20.855 9.852c.29 0 .607.037.94.11-.01.872-.362 3.61-.362 3.98 0 .748.181 2.242.181 2.804.093 1.03.093 1.588 0 2.337 0 0-.135.668-.273 1.143-.423-.982-.891-2.154-1.456-3.48-1.363-3.177-1.452-3.83-1.452-4.298 0-.657 0-1.497.543-1.87a2.73 2.73 0 011.879-.726zm-14.11.274c.181.022.348.077.508.168.728.376.909 1.31.909 1.31.455 2.056.636 5.142-.092 7.198-.089.372-.27.654-.362.935-.181.467-.362.934-.547 1.774a10.2 10.2 0 00-.078 1.034c-.629-.136-1.222-.366-1.648-.658-.727-.372-1.27-1.03-1.633-1.778-.639-1.402-.546-2.71-.454-3.454l.177-2.155a23.532 23.532 0 01-.174-3.154 4.324 4.324 0 011.722-.957c.547-.139 1.144-.332 1.672-.263zm13.403.628c-.238.01-.49.055-.625.102-.362.095-.454.095-.547.281-.088.187.185.468.277.654.089 0 .362.281.725.19a1.41 1.41 0 00.546-.376c.093-.095.455-.563.181-.749-.092-.095-.32-.117-.557-.102zm-13.608.68a.739.739 0 00-.288.08c-.089 0-.27.09-.362.277-.093.186 0 .372.092.467.181.282.455.563.909.563.092 0 .455 0 .724-.282 0 0 .277-.28.277-.558-.092-.19-.273-.281-.547-.376-.206-.07-.51-.194-.805-.172zm-1.673 12.232a7.774 7.774 0 001.964.726 2.764 2.764 0 01-.757.953c-.639.468-1.455.749-2.272.935-.184 0-.273.095-.454.095-.44.128-.867.27-1.158.58.892-1.018 1.786-2.143 2.677-3.29zm17.525.748c.397.307.788.533 1.129.654.547.186 1.001.186 2.638 0-.274.277-1.09.745-2.273.935-.76.076-1.704-.11-2.47-.336.07-.53.152-.833.287-.975.05-.048.352-.143.689-.278zm-13.687.281c.188.033.338.059.366.088.181.19.273.657.273.843.011.161.018.566.025.848-.749.901-1.953 1.402-2.208 1.49-.362.186-1.452.372-2.542 0 .909-.282 1.818-.56 2.542-1.122.635-.467 1.182-1.212 1.544-2.147z" fill="#fff"/></svg>