<svg height="100%" xmlns="http://www.w3.org/2000/svg" xml:space="preserve" width="100%" xmlns:vectornator="http://vectornator.io" version="1.1" viewBox="0 0 283.5 170.1" fill-rule="evenodd" clip-rule="evenodd" stroke-linecap="round" stroke-linejoin="round"><g id="layer1 copy" vectornator:layerName="layer1 copy"><path d="M99.893 14.116h89.571c1.215 0 2.201.64 2.201 1.43V136.82c0 .789-.986 1.429-2.201 1.429h-89.57c-1.216 0-2.202-.64-2.202-1.429V15.546c0-.79.986-1.43 2.201-1.43z" fill-rule="evenodd" fill="#464353" opacity="1"/><text x="0" font-family="sans-serif" y="0" text-anchor="middle" vectornator:text="column file" fill="#fff" font-size="9" vectornator:width="46.018" opacity="1" transform="translate(121.433 19.605)"><tspan x="23.009" y="9" textLength="43.018">column file</tspan></text><path d="M104.745 79.939h79.077v53.985h-79.077V79.939z" fill-rule="evenodd" fill="#d14671" opacity="1"/><path d="M80.984 91.275l-70.571-.072c-.783-.001-1.426-.207-1.438-.462L8.87 86.96c-.007-.256.626-.463 1.413-.462l70.57.071.13 4.706z" fill-rule="evenodd" fill="#fff" opacity="1"/><path d="M181.069 90.275l-74.691-.036c-.829 0-1.509-.104-1.522-.231l-.111-1.89c-.008-.129.662-.232 1.495-.232l74.692.036.137 2.353z" fill-rule="evenodd" fill="#61cfee" opacity="1"/><path d="M118.724 89.47l-1.269.556-10.251 4.504-.904.395a.553.553 0 01-.401.012.502.502 0 01-.289-.257.426.426 0 01-.037-.172l-.027-2.678c-.002-.255-.229-.462-.508-.465l-25.13-.072c-.28 0-.508-.207-.513-.462l-.037-3.781c-.002-.256.223-.463.503-.462l25.13.072c.278-.001.5-.206.5-.46l-.027-2.737a.422.422 0 01.034-.171.48.48 0 01.285-.256.552.552 0 01.401.016l.911.406 10.341 4.61 1.282.57c.174.08.284.241.285.417a.455.455 0 01-.279.414zm22.969 65.05l-.587-1.274-4.753-10.29-.417-.908a.523.523 0 01-.012-.4.509.509 0 01.274-.287.473.473 0 01.182-.036l2.84-.003a.504.504 0 00.494-.505l.134-25.129a.504.504 0 01.491-.508l4.011-.005c.271 0 .49.227.488.507l-.134 25.129a.497.497 0 00.486.504l2.903-.003c.063 0 .124.012.182.036a.493.493 0 01.27.287.522.522 0 01-.017.401l-.433.907-4.914 10.301-.607 1.277a.486.486 0 01-.881-.001z" fill-rule="evenodd" fill="#fff" opacity="1"/><text x="0" font-family="sans-serif" y="0" text-anchor="middle" vectornator:text="copy value mov 0x1234], x" fill="#fff" font-size="9" vectornator:width="64.031" opacity="1" transform="translate(20.688 47.571)"><tspan x="32.016" y="20" textLength="43.027">copy value </tspan> <tspan x="32.016" y="31" textLength="61.031"> mov [0x1234], x</tspan></text><text x="0" font-family="sans-serif" y="0" text-anchor="middle" vectornator:text="Sliding area of file mapped to RAM" fill="#d14671" font-size="9" vectornator:width="82.036" opacity="1" transform="translate(197.317 100.232)"><tspan x="42.268" y="9" textLength="60.038">Sliding area of </tspan> <tspan x="41.018" y="20" textLength="79.036"> file mapped to RAM</tspan></text><text x="0" font-family="sans-serif" y="0" text-anchor="middle" vectornator:text="Moves down once exhausted" fill="#fff" font-size="9" vectornator:width="66.549" opacity="1" transform="translate(157.041 141.399)"><tspan x="34.525" y="9" textLength="53.024">Moves down </tspan> <tspan x="33.275" y="20" textLength="63.549"> once exhausted</tspan></text><text x="0" font-family="sans-serif" y="0" text-anchor="middle" vectornator:text="Increment file offset" fill="#fff" font-size="9" vectornator:width="45.517" opacity="1" transform="translate(27.084 97.627)"><tspan x="24.009" y="20" textLength="42.517">Increment </tspan> <tspan x="22.759" y="31" textLength="35.859"> file offset</tspan></text></g></svg>