<svg height="100%" xmlns="http://www.w3.org/2000/svg" xml:space="preserve" width="100%" xmlns:vectornator="http://vectornator.io" version="1.1" viewBox="0 0 180 105" fill-rule="evenodd" clip-rule="evenodd" stroke-linecap="round" stroke-linejoin="round"><g id="layer1 copy" vectornator:layerName="layer1 copy"><path d="M60.384 3.913h66.793c.906 0 1.641.489 1.641 1.091v92.573c0 .603-.735 1.09-1.641 1.09H60.384c-.907 0-1.641-.487-1.641-1.09V5.004c0-.602.734-1.09 1.64-1.09z" fill-rule="evenodd" fill="#464353" opacity="1"/><path d="M30.195 59.9l.036-24.128c0-.268.104-.487.231-.492l1.89-.035c.129-.003.232.213.232.483l-.036 24.128-2.353.045z" fill-rule="evenodd" fill="#fff" opacity="1"/><path d="M31.149 71.06l-.279-.854-2.252-6.904-.197-.61a.492.492 0 01-.006-.269.32.32 0 01.128-.194.168.168 0 01.086-.026l1.34-.018c.127-.001.23-.154.232-.342l.036-16.925c0-.188.103-.342.23-.345l1.891-.025c.128-.001.232.15.231.339l-.035 16.925c0 .187.102.337.229.336l1.369-.018c.03 0 .058.008.085.023a.308.308 0 01.128.192.493.493 0 01-.008.27l-.203.614-2.305 6.964-.285.864c-.04.117-.12.19-.208.192-.088 0-.169-.072-.207-.188z" fill-rule="evenodd" fill="#fff" opacity="1"/><path d="M67.672 70.288h52.217V94.21H67.672V70.288z" fill-rule="evenodd" fill="#d14671" opacity="1"/><text x="0" font-family="sans-serif" y="0" text-anchor="middle" vectornator:text="data column file" fill="#fff" font-size="6" vectornator:width="45.023" opacity="1" transform="translate(70.615 4.913)"><tspan x="22.512" y="6" textLength="42.023">data column file</tspan></text><path d="M67.672 15.185h52.217v23.922H67.672V15.185zm0 27.742h52.217v23.922H67.672V42.927z" fill-rule="evenodd" fill="#d14671" opacity="1"/><path d="M119.97 84.922l.369-.173 2.984-1.406.263-.123a.151.151 0 01.201.076c.007.017.01.035.011.054l.007.836a.149.149 0 00.148.145l7.314.022c.082 0 .148.065.149.144l.011 1.18a.144.144 0 01-.146.145l-7.314-.023a.146.146 0 00-.146.144l.008.854a.14.14 0 01-.01.054.144.144 0 01-.083.079.142.142 0 01-.116-.005l-.266-.126-3.009-1.44-.373-.177a.145.145 0 01-.083-.13.141.141 0 01.081-.13z" fill-rule="evenodd" fill="#61cfee" opacity="1"/><text x="0" font-family="sans-serif" y="0" text-anchor="middle" vectornator:text="memory page" fill="#fff" font-size="5" vectornator:width="33.569" opacity="1" transform="translate(132.959 82.073)"><tspan x="16.784" y="5" textLength="30.569">memory page</tspan></text><text x="0" font-family="sans-serif" y="0" text-anchor="middle" vectornator:text="Read value at row N" fill="#fff" font-size="5" vectornator:width="36.19" opacity="1" transform="translate(13.472 21.154)"><tspan x="18.79" y="5" textLength="32.244">Read value at </tspan> <tspan x="18.095" y="11" textLength="13.057"> row N</tspan></text><text x="0" font-family="sans-serif" y="0" text-anchor="middle" vectornator:text="Page +Offset" fill="#fff" font-size="5" vectornator:width="16.25" opacity="1" transform="translate(23.265 75.206)"><tspan x="8.125" y="5" textLength="11.677">Page </tspan> <tspan x="8.125" y="11" textLength="2.92"> + </tspan> <tspan x="8.125" y="17" textLength="13.249"> Offset</tspan></text><path d="M68.137 85.138l-.763.313-6.16 2.532-.543.222a.347.347 0 01-.24.007.294.294 0 01-.174-.144.238.238 0 01-.023-.097l-.015-1.506c-.002-.143-.138-.26-.306-.261l-15.1-.041c-.168 0-.306-.116-.308-.26l-.023-2.126c-.001-.144.134-.26.303-.26l15.1.04c.167 0 .3-.115.3-.257l-.016-1.54c0-.033.007-.065.02-.096a.282.282 0 01.172-.144.353.353 0 01.24.01l.548.227 6.214 2.593.77.32c.105.045.17.136.172.235 0 .099-.065.19-.168.233z" fill-rule="evenodd" fill="#fff" opacity="1"/><path d="M71.182 82.249l44.23.085c.491 0 .893.244.901.546l.066 4.47c.004.303-.392.548-.886.547l-44.23-.085-.081-5.563z" fill-rule="evenodd" fill="#61cfee" opacity="1"/></g></svg>