<svg height="100%" xmlns="http://www.w3.org/2000/svg" xml:space="preserve" width="100%" xmlns:vectornator="http://vectornator.io" version="1.1" viewBox="0 0 127.575 113.4" fill-rule="evenodd" clip-rule="evenodd" stroke-linecap="round" stroke-linejoin="round"><defs><linearGradient y1="93.625" id="LinearGradient" x1="29.53" y2="73.947" x2="29.53" gradientUnits="userSpaceOnUse" gradientTransform="translate(8.125 -17.74)"><stop stop-color="#d14671" offset="0"/><stop stop-color="#fff" offset="1"/></linearGradient></defs><g id="layer1 copy" vectornator:layerName="layer1 copy"><path d="M44.91 8.168h40.135c.544 0 .986.45.986 1.003v85.065a.995.995 0 01-.987 1.002H44.91a.994.994 0 01-.987-1.002V9.17a.995.995 0 01.986-1.003z" opacity="1" fill="#464353"/><text x="0" font-family="sans-serif" y="0" text-anchor="middle" vectornator:text="Table" fill="#fff" font-size="5" vectornator:width="54.197" opacity="1" transform="translate(36.154 13.987)"><tspan x="27.098" y="5" textLength="12.507">Table</tspan></text><path d="M39.094 93.892l.297-.319 2.401-2.574.21-.227c.03-.032.032-.068.007-.1a.23.23 0 00-.137-.073.449.449 0 00-.092-.01l-1.427-.006c-.136 0-.247-.058-.248-.128l-.039-6.31c0-.07-.11-.127-.246-.129l-2.016-.009c-.136 0-.247.056-.246.126l.038 6.31c0 .07-.11.126-.244.126l-1.46-.007a.447.447 0 00-.091.009c-.063.013-.112.039-.136.071-.025.033-.022.07.008.1l.216.23 2.458 2.596.304.322c.042.044.128.071.222.072.094 0 .18-.027.221-.07z" opacity="1" fill="#d14671"/><path d="M37.655 83.159V48.635c0-.468.012-.848.027-.848h2.31c.015 0 .027.38.027.848V83.16c0 .468-.012.848-.027.848h-2.31c-.015 0-.027-.38-.027-.848z" opacity="1" fill="url(#LinearGradient)"/><path stroke="#61cfee" stroke-width=".5" d="M49.926 48.135h31.872c.432 0 .783.218.783.488v41.41c0 .27-.35.488-.783.488H49.926c-.432 0-.783-.219-.783-.489v-41.41c0-.269.35-.487.783-.487z" fill="#5f5e67" stroke-linecap="round" opacity="1" stroke-linejoin="round"/><path d="M53.078 52.346h25.568c.347 0 .628.027.628.06v5.019c0 .033-.281.06-.628.06H53.078c-.347 0-.628-.027-.628-.06v-5.02c0-.032.281-.059.628-.059z" fill-opacity=".204" fill="#d14671" opacity="1"/><path d="M53.078 58.634h25.568c.347 0 .628.027.628.06v5.019c0 .032-.281.059-.628.059H53.078c-.347 0-.628-.027-.628-.06v-5.019c0-.032.281-.059.628-.059z" fill-opacity=".404" fill="#d14671" opacity="1"/><path d="M53.078 64.737h25.568c.347 0 .628.026.628.059v5.02c0 .032-.281.058-.628.058H53.078c-.347 0-.628-.026-.628-.059v-5.02c0-.032.281-.058.628-.058z" fill-opacity=".577" fill="#d14671" opacity="1"/><path d="M53.078 71.024h25.568c.347 0 .628.027.628.06v5.019c0 .033-.281.06-.628.06H53.078c-.347 0-.628-.027-.628-.06v-5.02c0-.032.281-.059.628-.059z" fill-opacity=".691" fill="#d14671" opacity="1"/><path d="M53.136 77.162h25.567c.347 0 .629.027.629.06v5.019c0 .032-.282.059-.629.059H53.136c-.347 0-.629-.027-.629-.06v-5.019c0-.032.282-.059.629-.059z" fill-opacity=".842" fill="#d14671" opacity="1"/><path d="M53.136 83.45h25.567c.347 0 .629.026.629.059v5.02c0 .032-.282.059-.629.059H53.136c-.347 0-.629-.027-.629-.06V83.51c0-.033.282-.06.629-.06z" opacity="1" fill="#d14671"/><text x="0" font-family="sans-serif" y="0" text-anchor="middle" vectornator:text="designated timestamp column" fill="#fff" font-size="5" vectornator:width="54.197" opacity="1" transform="translate(37.837 29.331)"><tspan x="27.098" y="5" textLength="24.465">designated </tspan> <tspan x="27.098" y="11" textLength="23.061"> timestamp </tspan> <tspan x="27.098" y="17" textLength="16.118"> column</tspan></text><path d="M92.662 92.67h25.567c.347 0 .629.026.629.058v5.02c0 .033-.282.06-.629.06H92.662c-.347 0-.628-.027-.628-.06v-5.02c0-.032.28-.059.628-.059z" fill-opacity=".204" fill="#d14671" opacity="1"/><text x="0" font-family="sans-serif" y="0" text-anchor="middle" vectornator:text="Time" fill="#fff" font-size="5" vectornator:width="27.098" opacity="1" transform="translate(8.55 69.874)"><tspan x="13.549" y="5" textLength="10.928">Time</tspan></text><path d="M74.392 95.495l.437.297 3.521 2.401.31.21a.128.128 0 00.138.007.226.226 0 00.1-.137.334.334 0 00.013-.092l.008-1.427c.001-.136.08-.247.175-.248l8.633-.039c.096 0 .174-.11.176-.246l.013-2.016c0-.136-.077-.246-.173-.246l-8.633.038c-.095 0-.172-.11-.171-.244l.009-1.46a.33.33 0 00-.012-.091.22.22 0 00-.098-.136.128.128 0 00-.138.008l-.313.216-3.552 2.459-.44.303c-.06.043-.098.129-.098.222 0 .094.036.18.096.221z" opacity="1" fill="#d14671"/><path d="M62.21 91.079l6.926 6.927c.094.094.163.177.154.186l-1.36 1.36c-.008.009-.092-.06-.186-.154l-6.926-6.927c-.094-.094-.163-.178-.154-.186l1.36-1.36c.008-.01.092.06.186.154z" opacity="1" fill="#f8004d"/><path d="M69.136 92.47l-6.926 6.928c-.094.094-.178.163-.187.154l-1.36-1.36c-.008-.009.06-.092.155-.186l6.926-6.927c.094-.094.178-.163.187-.154l1.36 1.36c.008.008-.06.092-.155.186z" opacity="1" fill="#f8004d"/><text x="0" font-family="sans-serif" y="0" text-anchor="middle" vectornator:text="INSERT rejected" fill="#d14671" font-size="5" vectornator:width="54.197" opacity="1" transform="translate(58.932 102.568)"><tspan x="27.098" y="5" textLength="37.336">INSERT rejected</tspan></text><text x="0" font-family="sans-serif" y="0" text-anchor="middle" vectornator:text="older timestamp value" fill="#fff" font-size="5" vectornator:width="33.632" opacity="1" transform="translate(88.63 73.971)"><tspan x="17.511" y="5" textLength="12.507">older </tspan> <tspan x="17.511" y="11" textLength="24.451"> timestamp </tspan> <tspan x="16.816" y="17" textLength="11.953"> value</tspan></text></g></svg>