<svg width="661" height="411" viewBox="0 0 661 411" fill="none" xmlns="http://www.w3.org/2000/svg"><rect x="40.757" width="586" height="411" rx="8" fill="#3D3F4D"/><path d="M40.378 6.216a6 6 0 016-6h574a6 6 0 016 6v26h-586v-26z" fill="#2F313C"/><circle cx="60.556" cy="16.36" r="5.381" fill="#6422F1"/><circle cx="75.623" cy="16.36" r="5.381" fill="#F46591"/><circle cx="90.693" cy="16.36" r="5.381" fill="#2BD38D"/><path d="M413.378 87.216a6 6 0 016-6h235a6 6 0 016 6v258a6 6 0 01-6 6h-235a6 6 0 01-6-6v-258z" fill="#282A36"/><path d="M627.378 241.216a90.004 90.004 0 00-55.559-83.149 89.995 89.995 0 00-98.081 19.509 90.004 90.004 0 00-26.36 63.64h38.804a51.193 51.193 0 0131.604-47.299 51.194 51.194 0 0170.788 47.299h38.804z" fill="#2F313B"/><path d="M447.378 241.216a90 90 0 01176.293-25.563l-37.205 11.022a51.195 51.195 0 00-100.284 14.541h-38.804z" fill="#D14671"/><circle cx="532.726" cy="234.793" r="12" transform="rotate(78.99 532.726 234.793)" fill="#D14671"/><circle cx="532.726" cy="234.793" r="9.5" transform="rotate(78.99 532.726 234.793)" stroke="#53555E" stroke-width="5"/><path d="M544.179 238.677l69.038-19.545-70.184 13.656s.11 4.053 1.146 5.889z" fill="#53555E"/><path d="M541.887 226.898l71.33-7.766-70.184 13.656c-.306-1.571-1.418-3.799-1.146-5.89z" fill="#53555E"/><path d="M512.814 116.034c0-4.045-2.511-6.351-5.789-6.351-3.297 0-5.79 2.306-5.79 6.351 0 4.027 2.493 6.351 5.79 6.351.772 0 1.503-.127 2.167-.38l.996 1.225h2.439l-1.769-2.222c1.207-1.08 1.956-2.771 1.956-4.974zm-6.695 1.884l1.582 2.088a3.42 3.42 0 01-.676.067c-1.902 0-3.14-1.419-3.14-4.039 0-2.62 1.238-4.039 3.14-4.039 1.895 0 3.139 1.419 3.139 4.039 0 1.346-.332 2.379-.906 3.061l-.917-1.177h-2.222zm14.529.35c.006 1.243-.845 1.895-1.768 1.895-.972 0-1.6-.682-1.606-1.775v-5.445h-2.572v5.904c.006 2.167 1.274 3.49 3.139 3.49 1.395 0 2.397-.719 2.813-1.805h.097v1.684h2.469v-9.273h-2.572v5.325zm8.855 4.129c2.294 0 3.84-1.117 4.202-2.837l-2.379-.157c-.259.706-.923 1.074-1.781 1.074-1.286 0-2.1-.851-2.1-2.233v-.007h6.314v-.706c0-3.151-1.908-4.709-4.359-4.709-2.728 0-4.497 1.938-4.497 4.8 0 2.94 1.745 4.775 4.6 4.775zm-2.058-5.753c.054-1.057.857-1.902 1.998-1.902 1.117 0 1.889.797 1.895 1.902h-3.893zm7.992 5.572h2.572v-5.246c0-1.141.833-1.926 1.968-1.926.356 0 .845.06 1.087.139v-2.282a3.891 3.891 0 00-.809-.091c-1.038 0-1.89.604-2.228 1.751h-.096v-1.618h-2.494v9.273zm6.956 0h2.572v-9.273h-2.572v9.273zm1.292-10.468c.767 0 1.395-.586 1.395-1.304 0-.713-.628-1.298-1.395-1.298-.76 0-1.388.585-1.388 1.298 0 .718.628 1.304 1.388 1.304zm7.566 10.649c2.294 0 3.84-1.117 4.202-2.837l-2.379-.157c-.259.706-.923 1.074-1.781 1.074-1.285 0-2.1-.851-2.1-2.233v-.007h6.314v-.706c0-3.151-1.907-4.709-4.358-4.709-2.729 0-4.498 1.938-4.498 4.8 0 2.94 1.745 4.775 4.6 4.775zm-2.058-5.753c.054-1.057.857-1.902 1.998-1.902 1.117 0 1.889.797 1.895 1.902h-3.893zm15.708-1.057c-.23-1.708-1.606-2.765-3.948-2.765-2.373 0-3.937 1.099-3.931 2.886-.006 1.389.87 2.288 2.681 2.65l1.606.32c.809.163 1.177.459 1.189.924-.012.549-.61.942-1.509.942-.918 0-1.528-.393-1.685-1.147l-2.529.132c.241 1.775 1.751 2.868 4.208 2.868 2.402 0 4.123-1.226 4.129-3.055-.006-1.34-.881-2.143-2.68-2.511l-1.679-.338c-.863-.187-1.183-.483-1.177-.93-.006-.555.622-.917 1.419-.917.893 0 1.424.488 1.551 1.086l2.355-.145zm-51.657 171.867c3.921 0 6.725-2.156 6.716-5.139.009-2.173-1.372-3.724-3.937-4.048v-.136c1.952-.35 3.298-1.731 3.29-3.691.008-2.753-2.404-4.917-6.017-4.917-3.58 0-6.273 2.096-6.324 5.113h3.537c.042-1.329 1.261-2.19 2.769-2.19 1.492 0 2.489.903 2.481 2.216.008 1.372-1.159 2.301-2.838 2.301h-1.628v2.71h1.628c1.977 0 3.213.989 3.204 2.395.009 1.389-1.185 2.344-2.872 2.344-1.628 0-2.847-.852-2.915-2.131h-3.716c.06 3.051 2.787 5.173 6.622 5.173zm16.213.145c4.389 0 7.04-3.341 7.048-9.093.009-5.711-2.676-8.983-7.048-8.983-4.381 0-7.04 3.264-7.049 8.983-.017 5.735 2.651 9.085 7.049 9.093zm0-3.059c-2.003 0-3.299-2.012-3.29-6.034.009-3.963 1.295-5.958 3.29-5.958 1.986 0 3.281 1.995 3.281 5.958.009 4.022-1.287 6.034-3.281 6.034zm16.523 3.059c4.389 0 7.04-3.341 7.048-9.093.009-5.711-2.676-8.983-7.048-8.983-4.38 0-7.04 3.264-7.048 8.983-.017 5.735 2.65 9.085 7.048 9.093zm0-3.059c-2.003 0-3.298-2.012-3.29-6.034.009-3.963 1.296-5.958 3.29-5.958 1.986 0 3.281 1.995 3.281 5.958.009 4.022-1.286 6.034-3.281 6.034zm12.748-10.415h-3.75l3.75 6.545-3.886 6.546h3.75l2.539-4.526 2.583 4.526h3.707l-3.895-6.546 3.793-6.545h-3.724l-2.464 4.577-2.403-4.577zm-47.029 38.091h1.321v-4.879h4.73v-1.172h-4.73v-3.686h5.22v-1.172h-6.541v10.909zm11.041.192c1.427 0 2.173-.767 2.429-1.3h.064v1.108h1.257v-5.391c0-2.599-1.982-2.898-3.026-2.898-1.235 0-2.642.427-3.281 1.918l1.193.426c.277-.596.932-1.236 2.131-1.236 1.156 0 1.726.613 1.726 1.662v.043c0 .607-.618.554-2.11.746-1.518.197-3.174.532-3.174 2.407 0 1.598 1.235 2.515 2.791 2.515zm.192-1.13c-1.002 0-1.726-.447-1.726-1.321 0-.959.873-1.257 1.853-1.385.533-.064 1.961-.213 2.174-.468v1.15c0 1.023-.81 2.024-2.301 2.024zm11.648-5.412c-.394-1.161-1.279-1.939-2.898-1.939-1.726 0-3.004.981-3.004 2.366 0 1.129.671 1.885 2.173 2.237l1.364.319c.825.192 1.214.586 1.214 1.151 0 .703-.745 1.278-1.917 1.278-1.028 0-1.673-.442-1.897-1.321l-1.193.299c.293 1.39 1.438 2.13 3.111 2.13 1.902 0 3.196-1.038 3.196-2.45 0-1.14-.714-1.859-2.173-2.216l-1.215-.298c-.969-.24-1.406-.565-1.406-1.193 0-.704.746-1.215 1.747-1.215 1.097 0 1.55.607 1.769 1.172l1.129-.32zm5.6-1.832h-1.748v-1.96h-1.257v1.96h-1.236v1.065h1.236v5.114c0 1.428 1.151 2.109 2.216 2.109.469 0 .767-.085.938-.149l-.256-1.129c-.107.021-.277.064-.554.064-.554 0-1.087-.171-1.087-1.236v-4.773h1.748v-1.065zm5.233 8.352c1.662 0 2.876-.831 3.26-2.066l-1.215-.341c-.319.852-1.06 1.278-2.045 1.278-1.475 0-2.493-.953-2.551-2.706h5.939v-.533c0-3.046-1.811-4.091-3.516-4.091-2.216 0-3.686 1.748-3.686 4.262 0 2.514 1.449 4.197 3.814 4.197zm-2.551-4.922c.085-1.273.985-2.407 2.423-2.407 1.364 0 2.237 1.022 2.237 2.407h-4.66zm7.851 4.752h1.257v-5.178c0-1.108.874-1.917 2.067-1.917.336 0 .682.064.767.085v-1.279c-.144-.01-.474-.021-.661-.021-.98 0-1.832.554-2.13 1.364h-.085v-1.236h-1.215v8.182z" fill="#fff"/><path d="M.378 87a6 6 0 016-6h389a6 6 0 016 6v280a6 6 0 01-6 6h-389a6 6 0 01-6-6V87z" fill="#282A36"/><path d="M19.378 143.216h363m-363 78h363m-363 47h363" stroke="#3D3F4D" stroke-dasharray="5 5"/><path d="M173.066 109.852h-2.613v12.364h2.613v-12.364zm4.675 7.003c.006-1.195.718-1.896 1.756-1.896 1.033 0 1.654.677 1.648 1.812v5.445h2.572v-5.904c0-2.162-1.268-3.49-3.199-3.49-1.377 0-2.373.676-2.789 1.757h-.109v-1.636h-2.451v9.273h2.572v-5.361zm15.718-1.268c-.229-1.708-1.606-2.765-3.948-2.765-2.372 0-3.936 1.099-3.93 2.886-.006 1.389.869 2.288 2.68 2.65l1.606.32c.809.163 1.177.459 1.19.924-.013.549-.61.942-1.51.942-.917 0-1.527-.393-1.684-1.147l-2.529.132c.241 1.775 1.75 2.868 4.207 2.868 2.403 0 4.124-1.226 4.13-3.055-.006-1.34-.882-2.143-2.681-2.511l-1.678-.338c-.863-.187-1.183-.483-1.177-.93-.006-.555.621-.917 1.418-.917.894 0 1.425.488 1.552 1.086l2.354-.145zm6.763-2.644h-1.745v-2.221h-2.571v2.221h-1.268v1.932h1.268v4.829c-.012 1.818 1.225 2.717 3.091 2.639a5.003 5.003 0 001.394-.242l-.404-1.914c-.127.025-.399.085-.64.085-.513 0-.87-.193-.87-.906v-4.491h1.745v-1.932zm4.32 9.448c1.37 0 2.257-.598 2.71-1.461h.073v1.286h2.438v-6.254c0-2.21-1.871-3.14-3.936-3.14-2.221 0-3.682 1.063-4.038 2.753l2.378.193c.175-.615.725-1.068 1.648-1.068.876 0 1.377.441 1.377 1.201v.036c0 .598-.634.677-2.246.834-1.835.169-3.483.784-3.483 2.855 0 1.835 1.31 2.765 3.079 2.765zm.736-1.775c-.791 0-1.358-.368-1.358-1.075 0-.724.597-1.08 1.503-1.207.561-.078 1.479-.211 1.787-.416v.984c0 .971-.803 1.714-1.932 1.714zm9.052-3.761c.006-1.195.719-1.896 1.757-1.896 1.032 0 1.654.677 1.648 1.812v5.445h2.572v-5.904c0-2.162-1.268-3.49-3.2-3.49-1.376 0-2.372.676-2.789 1.757h-.108v-1.636h-2.451v9.273h2.571v-5.361zm12.194 5.542c2.469 0 4.02-1.449 4.141-3.58h-2.427c-.151.99-.803 1.545-1.684 1.545-1.202 0-1.98-1.008-1.98-2.783 0-1.75.784-2.752 1.98-2.752.941 0 1.545.621 1.684 1.545h2.427c-.109-2.143-1.733-3.55-4.154-3.55-2.813 0-4.551 1.95-4.551 4.794 0 2.819 1.708 4.781 4.564 4.781zm10.013 0c2.294 0 3.84-1.117 4.202-2.837l-2.379-.157c-.259.706-.923 1.074-1.78 1.074-1.286 0-2.101-.851-2.101-2.233v-.007h6.314v-.706c0-3.151-1.907-4.709-4.358-4.709-2.729 0-4.498 1.938-4.498 4.8 0 2.94 1.745 4.775 4.6 4.775zm-2.058-5.753c.054-1.057.857-1.902 1.998-1.902 1.117 0 1.889.797 1.896 1.902h-3.894z" fill="#fff"/><path d="M207.816 312.381h10.472v3.835h4.411v-3.835h2.706v-3.697h-2.706v-14.286h-5.774l-9.109 14.35v3.633zm10.558-3.697h-5.913v-.171l5.742-9.087h.171v9.258zm13.94-8.832h-4.688l4.688 8.182-4.858 8.182h4.687l3.175-5.657 3.228 5.657h4.634l-4.868-8.182 4.74-8.182h-4.655l-3.079 5.721-3.004-5.721z" fill="#D14671"/><path d="M264.665 307.034h1.278c-.058-1.646-1.576-2.876-3.686-2.876-2.088 0-3.729 1.214-3.729 3.046 0 1.471 1.066 2.344 2.77 2.834l1.343.384c1.15.319 2.173.724 2.173 1.811 0 1.193-1.151 1.981-2.663 1.981-1.3 0-2.451-.575-2.557-1.811h-1.364c.128 1.79 1.577 3.005 3.921 3.005 2.514 0 3.941-1.385 3.941-3.154 0-2.045-1.939-2.706-3.068-3.004l-1.108-.298c-.809-.213-2.109-.64-2.109-1.811 0-1.044.959-1.812 2.408-1.812 1.321 0 2.322.629 2.45 1.705zm3.429 8.182h1.257v-5.114c0-1.198.874-2.045 1.854-2.045.953 0 1.619.623 1.619 1.555v5.604h1.278v-5.327c0-1.055.661-1.832 1.812-1.832.894 0 1.661.474 1.661 1.683v5.476h1.258v-5.476c0-1.923-1.034-2.813-2.493-2.813-1.172 0-2.03.538-2.451 1.385h-.085c-.405-.873-1.118-1.385-2.194-1.385-1.066 0-1.854.512-2.195 1.385h-.107v-1.278h-1.214v8.182zm15.445.192c1.427 0 2.173-.767 2.429-1.3h.064v1.108h1.257v-5.391c0-2.599-1.982-2.898-3.026-2.898-1.236 0-2.642.427-3.281 1.918l1.193.426c.277-.596.932-1.236 2.131-1.236 1.156 0 1.726.613 1.726 1.662v.043c0 .607-.618.554-2.11.746-1.518.197-3.174.532-3.174 2.407 0 1.598 1.235 2.515 2.791 2.515zm.191-1.13c-1.001 0-1.725-.447-1.725-1.321 0-.959.873-1.257 1.853-1.385.533-.064 1.961-.213 2.174-.468v1.15c0 1.023-.81 2.024-2.302 2.024zm7.11-9.971h-1.257v10.909h1.257v-10.909zm3.56 0h-1.257v10.909h1.257v-10.909zm5.733 11.079c1.662 0 2.876-.831 3.26-2.066l-1.215-.341c-.319.852-1.06 1.278-2.045 1.278-1.476 0-2.493-.953-2.552-2.706h5.94v-.533c0-3.046-1.812-4.091-3.516-4.091-2.216 0-3.686 1.748-3.686 4.262 0 2.514 1.449 4.197 3.814 4.197zm-2.552-4.922c.085-1.273.986-2.407 2.424-2.407 1.364 0 2.237 1.022 2.237 2.407h-4.661zm7.852 4.752h1.257v-5.178c0-1.108.873-1.917 2.067-1.917.335 0 .681.064.767.085v-1.279c-.144-.01-.474-.021-.661-.021-.98 0-1.832.554-2.13 1.364h-.086v-1.236h-1.214v8.182zm11.291-10.909h-1.321v10.909h1.321v-10.909zm3.735 5.987c0-1.428.885-2.237 2.088-2.237 1.167 0 1.875.761 1.875 2.045v5.114h1.258v-5.199c0-2.088-1.114-3.09-2.77-3.09-1.236 0-2.003.554-2.387 1.385h-.106v-1.278h-1.215v8.182h1.257v-4.922zm13.313-1.428c-.394-1.161-1.278-1.939-2.898-1.939-1.725 0-3.004.981-3.004 2.366 0 1.129.671 1.885 2.174 2.237l1.363.319c.826.192 1.215.586 1.215 1.151 0 .703-.746 1.278-1.918 1.278-1.028 0-1.673-.442-1.896-1.321l-1.193.299c.292 1.39 1.438 2.13 3.11 2.13 1.902 0 3.196-1.038 3.196-2.45 0-1.14-.713-1.859-2.173-2.216l-1.214-.298c-.97-.24-1.407-.565-1.407-1.193 0-.704.746-1.215 1.747-1.215 1.098 0 1.551.607 1.769 1.172l1.129-.32zm5.6-1.832h-1.747v-1.96h-1.257v1.96h-1.236v1.065h1.236v5.114c0 1.428 1.15 2.109 2.216 2.109.468 0 .767-.085.937-.149l-.256-1.129c-.106.021-.277.064-.554.064-.554 0-1.086-.171-1.086-1.236v-4.773h1.747v-1.065zm4.299 8.374c1.427 0 2.173-.767 2.429-1.3h.063v1.108h1.258v-5.391c0-2.599-1.982-2.898-3.026-2.898-1.236 0-2.642.427-3.281 1.918l1.193.426c.277-.596.932-1.236 2.131-1.236 1.155 0 1.725.613 1.725 1.662v.043c0 .607-.617.554-2.109.746-1.518.197-3.175.532-3.175 2.407 0 1.598 1.236 2.515 2.792 2.515zm.191-1.13c-1.001 0-1.726-.447-1.726-1.321 0-.959.874-1.257 1.854-1.385.533-.064 1.96-.213 2.173-.468v1.15c0 1.023-.809 2.024-2.301 2.024zm7.11-3.984c0-1.428.884-2.237 2.088-2.237 1.167 0 1.875.761 1.875 2.045v5.114h1.257v-5.199c0-2.088-1.113-3.09-2.77-3.09-1.235 0-2.002.554-2.386 1.385h-.106v-1.278h-1.215v8.182h1.257v-4.922zm10.841 5.092c1.811 0 3.005-1.108 3.218-2.557h-1.257c-.235.895-.981 1.428-1.961 1.428-1.491 0-2.45-1.236-2.45-3.132 0-1.854.98-3.068 2.45-3.068 1.108 0 1.769.682 1.961 1.427h1.257c-.213-1.534-1.513-2.557-3.239-2.557-2.216 0-3.686 1.748-3.686 4.241 0 2.45 1.406 4.218 3.707 4.218zm8.486 0c1.662 0 2.876-.831 3.26-2.066l-1.215-.341c-.319.852-1.06 1.278-2.045 1.278-1.476 0-2.493-.953-2.552-2.706h5.94v-.533c0-3.046-1.812-4.091-3.516-4.091-2.216 0-3.686 1.748-3.686 4.262 0 2.514 1.449 4.197 3.814 4.197zm-2.552-4.922c.085-1.273.986-2.407 2.424-2.407 1.364 0 2.237 1.022 2.237 2.407h-4.661z" fill="#fff"/><rect x="33.378" y="143.216" width="25" height="174" fill="#E7A5B9"/><rect x="77.378" y="223.216" width="25" height="93.5" fill="#EB92AE"/><rect x="121.378" y="270.216" width="25" height="46.75" fill="#EC779B"/><rect x="165.378" y="293.216" width="25" height="23.375" fill="#D14671"/><path d="M32.077 333.21h4.108V335h1.005v-1.79h1.194v-.937H37.19v-6h-1.278l-3.835 6.068v.869zm4.108-.937h-2.966v-.068l2.898-4.586h.068v4.654zm-.176 10.494c-.263-.774-.853-1.293-1.932-1.293-1.15 0-2.003.654-2.003 1.577 0 .753.447 1.257 1.449 1.492l.909.213c.55.128.81.39.81.767 0 .468-.498.852-1.279.852-.685 0-1.115-.295-1.264-.881l-.795.199c.195.927.958 1.421 2.073 1.421 1.268 0 2.131-.693 2.131-1.634 0-.76-.476-1.239-1.449-1.477l-.81-.199c-.646-.16-.937-.376-.937-.795 0-.469.497-.81 1.165-.81.731 0 1.033.405 1.179.781l.753-.213zm3.648 4.347c1.108 0 1.917-.554 2.173-1.378l-.81-.227c-.213.568-.707.852-1.364.852-.983 0-1.661-.636-1.7-1.804h3.959v-.355c0-2.032-1.207-2.728-2.344-2.728-1.477 0-2.457 1.165-2.457 2.841 0 1.676.966 2.799 2.543 2.799zm-1.701-3.282c.056-.848.656-1.605 1.615-1.605.91 0 1.492.682 1.492 1.605h-3.108zM43.19 347h.838v-3.452c0-.738.582-1.278 1.378-1.278.224 0 .454.042.511.057v-.853a8.176 8.176 0 00-.44-.014c-.654 0-1.222.37-1.42.909H44v-.824h-.81V347zm8.347-5.455h-.91l-1.505 4.347h-.057l-1.505-4.347h-.91L48.668 347h.853l2.017-5.455zm3.198 5.569c1.108 0 1.917-.554 2.173-1.378l-.81-.227c-.213.568-.706.852-1.363.852-.984 0-1.662-.636-1.701-1.804h3.96v-.355c0-2.032-1.208-2.728-2.345-2.728-1.477 0-2.457 1.165-2.457 2.841 0 1.676.966 2.799 2.543 2.799zm-1.701-3.282c.056-.848.657-1.605 1.615-1.605.91 0 1.492.682 1.492 1.605h-3.107zM58.268 347h.838v-3.452c0-.738.582-1.278 1.378-1.278.224 0 .454.042.511.057v-.853a8.175 8.175 0 00-.44-.014c-.654 0-1.222.37-1.42.909h-.057v-.824h-.81V347zm7.584-4.233c-.262-.774-.852-1.293-1.932-1.293-1.15 0-2.002.654-2.002 1.577 0 .753.447 1.257 1.449 1.492l.909.213c.55.128.81.39.81.767 0 .468-.498.852-1.28.852-.684 0-1.114-.295-1.263-.881l-.796.199c.196.927.96 1.421 2.074 1.421 1.268 0 2.13-.693 2.13-1.634 0-.76-.475-1.239-1.448-1.477l-.81-.199c-.646-.16-.937-.376-.937-.795 0-.469.497-.81 1.164-.81.732 0 1.034.405 1.18.781l.752-.213zm15.378-7.648c1.692 0 2.95-1.061 2.95-2.488 0-1.108-.657-1.914-1.757-2.097v-.068c.882-.269 1.432-.993 1.432-1.977 0-1.236-.976-2.336-2.59-2.336-1.51 0-2.762.929-2.813 2.302h1.023c.038-.87.865-1.381 1.772-1.381.963 0 1.585.584 1.585 1.466 0 .92-.72 1.517-1.755 1.517h-.7v.937h.7c1.325 0 2.062.674 2.062 1.637 0 .924-.805 1.551-1.926 1.551-1.01 0-1.81-.52-1.875-1.364h-1.074c.064 1.372 1.274 2.301 2.966 2.301zm.779 7.648c-.263-.774-.853-1.293-1.932-1.293-1.15 0-2.003.654-2.003 1.577 0 .753.447 1.257 1.449 1.492l.909.213c.55.128.81.39.81.767 0 .468-.498.852-1.279.852-.685 0-1.115-.295-1.264-.881l-.796.199c.196.927.96 1.421 2.074 1.421 1.268 0 2.131-.693 2.131-1.634 0-.76-.476-1.239-1.449-1.477l-.81-.199c-.646-.16-.937-.376-.937-.795 0-.469.497-.81 1.165-.81.731 0 1.033.405 1.179.781l.753-.213zm3.647 4.347c1.108 0 1.918-.554 2.174-1.378l-.81-.227c-.213.568-.706.852-1.364.852-.983 0-1.661-.636-1.7-1.804h3.959v-.355c0-2.032-1.207-2.728-2.344-2.728-1.477 0-2.457 1.165-2.457 2.841 0 1.676.966 2.799 2.542 2.799zm-1.7-3.282c.056-.848.656-1.605 1.615-1.605.91 0 1.492.682 1.492 1.605h-3.108zM89.19 347h.838v-3.452c0-.738.582-1.278 1.378-1.278.223 0 .454.042.511.057v-.853a8.176 8.176 0 00-.44-.014c-.654 0-1.222.37-1.42.909H90v-.824h-.81V347zm8.347-5.455h-.91l-1.505 4.347h-.057l-1.505-4.347h-.91L94.667 347h.853l2.017-5.455zm3.198 5.569c1.108 0 1.917-.554 2.173-1.378l-.81-.227c-.213.568-.706.852-1.363.852-.984 0-1.662-.636-1.701-1.804h3.959v-.355c0-2.032-1.207-2.728-2.344-2.728-1.477 0-2.457 1.165-2.457 2.841 0 1.676.966 2.799 2.543 2.799zm-1.701-3.282c.056-.848.657-1.605 1.615-1.605.91 0 1.492.682 1.492 1.605h-3.107zm5.234 3.168h.838v-3.452c0-.738.582-1.278 1.378-1.278.224 0 .454.042.511.057v-.853a8.174 8.174 0 00-.44-.014c-.653 0-1.222.37-1.421.909h-.056v-.824h-.81V347zm7.584-4.233c-.262-.774-.852-1.293-1.931-1.293-1.151 0-2.003.654-2.003 1.577 0 .753.447 1.257 1.449 1.492l.909.213c.55.128.809.39.809.767 0 .468-.497.852-1.278.852-.685 0-1.115-.295-1.264-.881l-.796.199c.196.927.959 1.421 2.074 1.421 1.268 0 2.131-.693 2.131-1.634 0-.76-.476-1.239-1.449-1.477l-.81-.199c-.646-.16-.937-.376-.937-.795 0-.469.497-.81 1.165-.81.731 0 1.033.405 1.179.781l.752-.213zM122.281 335h5.506v-.938h-4.057v-.068l1.96-2.096c1.5-1.607 1.944-2.357 1.944-3.324 0-1.347-1.091-2.421-2.625-2.421-1.53 0-2.694 1.04-2.694 2.574h1.006c0-.993.644-1.653 1.654-1.653.946 0 1.67.579 1.67 1.5 0 .805-.473 1.402-1.483 2.506l-2.881 3.153V335zm3.728 7.767c-.263-.774-.853-1.293-1.932-1.293-1.151 0-2.003.654-2.003 1.577 0 .753.447 1.257 1.449 1.492l.909.213c.55.128.81.39.81.767 0 .468-.498.852-1.279.852-.685 0-1.115-.295-1.264-.881l-.796.199c.196.927.959 1.421 2.074 1.421 1.268 0 2.131-.693 2.131-1.634 0-.76-.476-1.239-1.449-1.477l-.809-.199c-.647-.16-.938-.376-.938-.795 0-.469.497-.81 1.165-.81.731 0 1.033.405 1.179.781l.753-.213zm3.648 4.347c1.107 0 1.917-.554 2.173-1.378l-.81-.227c-.213.568-.707.852-1.363.852-.984 0-1.662-.636-1.701-1.804h3.959v-.355c0-2.032-1.207-2.728-2.344-2.728-1.477 0-2.457 1.165-2.457 2.841 0 1.676.966 2.799 2.543 2.799zm-1.701-3.282c.056-.848.656-1.605 1.615-1.605.909 0 1.492.682 1.492 1.605h-3.107zM133.19 347h.838v-3.452c0-.738.582-1.278 1.378-1.278.224 0 .454.042.511.057v-.853a8.174 8.174 0 00-.44-.014c-.654 0-1.222.37-1.421.909H134v-.824h-.81V347zm8.347-5.455h-.909l-1.506 4.347h-.057l-1.505-4.347h-.91l2.018 5.455h.852l2.017-5.455zm3.198 5.569c1.108 0 1.917-.554 2.173-1.378l-.81-.227c-.213.568-.706.852-1.363.852-.984 0-1.662-.636-1.701-1.804h3.959v-.355c0-2.032-1.207-2.728-2.344-2.728-1.477 0-2.457 1.165-2.457 2.841 0 1.676.966 2.799 2.543 2.799zm-1.701-3.282c.056-.848.657-1.605 1.615-1.605.91 0 1.492.682 1.492 1.605h-3.107zm5.234 3.168h.838v-3.452c0-.738.582-1.278 1.378-1.278.224 0 .454.042.511.057v-.853a8.174 8.174 0 00-.44-.014c-.653 0-1.222.37-1.421.909h-.056v-.824h-.81V347zm7.584-4.233c-.262-.774-.852-1.293-1.931-1.293-1.151 0-2.003.654-2.003 1.577 0 .753.447 1.257 1.449 1.492l.909.213c.55.128.809.39.809.767 0 .468-.497.852-1.278.852-.685 0-1.115-.295-1.264-.881l-.796.199c.196.927.959 1.421 2.074 1.421 1.268 0 2.131-.693 2.131-1.634 0-.76-.476-1.239-1.449-1.477l-.81-.199c-.646-.16-.937-.376-.937-.795 0-.469.497-.81 1.165-.81.731 0 1.033.405 1.179.781l.752-.213z" fill="#E7A5B9"/><path d="M169.882 326.273h-1.734l-2.161 1.368v1.636l1.999-1.253h.051V335h1.845v-8.727zm.638 16.828c-.135-1.005-.945-1.627-2.322-1.627-1.396 0-2.316.647-2.312 1.698-.004.817.511 1.346 1.576 1.559l.945.188c.476.096.693.27.7.543-.007.324-.359.554-.888.554-.54 0-.899-.23-.991-.674l-1.488.078c.142 1.044 1.03 1.687 2.475 1.687 1.414 0 2.426-.721 2.429-1.797-.003-.789-.518-1.261-1.576-1.478l-.988-.198c-.507-.111-.696-.285-.692-.547-.004-.327.366-.54.834-.54.526 0 .838.288.913.639l1.385-.085zm3.563 4.006c1.349 0 2.258-.657 2.471-1.669l-1.399-.093c-.153.416-.543.632-1.047.632-.757 0-1.236-.5-1.236-1.314v-.003h3.714v-.416c0-1.853-1.122-2.77-2.564-2.77-1.605 0-2.645 1.14-2.645 2.824 0 1.729 1.026 2.809 2.706 2.809zm-1.211-3.385c.032-.621.504-1.118 1.175-1.118.657 0 1.112.468 1.115 1.118h-2.29zm4.701 3.278h1.513v-3.086c0-.671.49-1.133 1.158-1.133.209 0 .497.036.639.082v-1.342a2.267 2.267 0 00-.476-.054c-.611 0-1.111.355-1.31 1.03h-.057v-.952h-1.467V347zm9.343-5.455h-1.601l-1.129 3.903h-.057l-1.133-3.903h-1.598l1.907 5.455h1.704l1.907-5.455zm3.075 5.562c1.349 0 2.258-.657 2.471-1.669l-1.399-.093c-.152.416-.543.632-1.047.632-.757 0-1.236-.5-1.236-1.314v-.003h3.714v-.416c0-1.853-1.122-2.77-2.564-2.77-1.605 0-2.645 1.14-2.645 2.824 0 1.729 1.026 2.809 2.706 2.809zm-1.211-3.385c.032-.621.504-1.118 1.175-1.118.657 0 1.112.468 1.115 1.118h-2.29zm4.702 3.278h1.512v-3.086c0-.671.49-1.133 1.158-1.133.21 0 .497.036.639.082v-1.342a2.267 2.267 0 00-.476-.054c-.61 0-1.111.355-1.31 1.03h-.057v-.952h-1.466V347z" fill="#fff"/></svg>