<svg width="94" height="122" viewBox="0 0 94 122" fill="none" xmlns="http://www.w3.org/2000/svg"><path d="M8.1 89.9L47.6 110l38-20.1V11.3H8.1v78.6z" fill="#fff"/><path d="M86.4 11.6L7.3 91.3l41 20.3 38.1-19.5V11.6z" fill="#F2F3F2"/><path d="M5.5 37.5v54.1l1.4.7 39.5 20.1 1.2.6 1.2-.6 38.1-20.1 1.4-.7V8.7H5.5v28.8zm2.6 52.6V11.3h77.6v78.8l-38.1 20.1L8.1 90.1z" fill="#DCDEDC"/><path d="M46.9 12.6c.4 0 .8 0 1.2.1L46.9 15c-1.8-.1-3.4 1.3-3.5 3.1-.1 1.8 1.3 3.4 3.1 3.5h.4c.8 0 1.6-.3 2.2-.8l1.3 2.2c-1 .7-2.2 1.1-3.5 1.1-3.2.1-5.9-2.3-6-5.5-.1-3.2 2.3-5.9 5.5-6h.5zm4.1 4.9l1.5 2.5-1.5 2.4-1.4-2.4h-2.9l1.5-2.5H51zm-2.4-.9c0-.4.1-.8.3-1.1.2-.3.6-.6.9-.8l.2-.1c.4-.2.5-.3.5-.5s-.3-.4-.5-.4c-.4 0-.7.2-.9.6l-.5-.5c.1-.2.3-.4.5-.6.3-.2.6-.2.9-.2.3 0 .7.1.9.3.2.2.4.5.4.8 0 .5-.3.9-.9 1.1l-.3.2c-.3.2-.5.3-.6.6h1.8v.7l-2.7-.1zm-1.7 12.5l9.5-5.4v-15H37.3v14.9l9.6 5.5zm43.3 35.4H3.6l-3.2 7 3.2 7h86.6l3.1-7-3.1-7z" fill="#FF492C"/><path d="M17.3 49.49c.66 0 1.24.133 1.74.4s.887.65 1.16 1.15c.274.493.41 1.06.41 1.7 0 .633-.14 1.19-.42 1.67a2.97 2.97 0 01-1.2 1.11c-.513.267-1.106.4-1.78.4h-2.13c-.046 0-.07.027-.07.08v3.82c0 .053-.02.097-.06.13a.176.176 0 01-.13.05h-1.75a.176.176 0 01-.13-.05.176.176 0 01-.05-.13V49.67c0-.053.017-.097.05-.13a.176.176 0 01.13-.05h4.23zm-.32 4.74c.467 0 .837-.133 1.11-.4.28-.267.42-.613.42-1.04 0-.447-.14-.803-.42-1.07-.273-.273-.643-.41-1.11-.41h-1.9c-.046 0-.07.027-.07.08v2.76c0 .053.024.08.07.08h1.9zm11.2 1.12c.054.38.07.803.05 1.27-.006.127-.07.19-.19.19h-4.63c-.06 0-.083.023-.07.07.034.2.09.4.17.6.26.56.79.84 1.59.84.64-.007 1.144-.267 1.51-.78.047-.06.094-.09.14-.09.027 0 .06.02.1.06l1.08 1.06c.054.053.08.1.08.14 0 .02-.02.06-.06.12a3.24 3.24 0 01-1.27.95c-.526.227-1.1.34-1.72.34-.853 0-1.58-.193-2.18-.58a3.28 3.28 0 01-1.28-1.64c-.213-.5-.32-1.153-.32-1.96 0-.553.077-1.04.23-1.46a3.332 3.332 0 011.21-1.69c.574-.42 1.254-.63 2.04-.63 1 0 1.804.29 2.41.87.607.58.977 1.353 1.11 2.32zm-3.5-1.36c-.633 0-1.05.293-1.25.88a3.36 3.36 0 00-.1.48c0 .047.027.07.08.07H26c.06 0 .08-.023.06-.07a15 15 0 00-.08-.42 1.278 1.278 0 00-.47-.7c-.22-.16-.496-.24-.83-.24zm8.7-1.8c.36 0 .647.07.86.21.074.04.1.113.08.22l-.31 1.71c-.006.12-.076.157-.21.11a1.578 1.578 0 00-.52-.08c-.08 0-.193.01-.34.03a1.517 1.517 0 00-.91.4c-.246.233-.37.547-.37.94v4.09c0 .053-.02.097-.06.13a.164.164 0 01-.12.05h-1.76a.2.2 0 01-.13-.05.176.176 0 01-.05-.13v-7.35a.2.2 0 01.05-.13.2.2 0 01.13-.05h1.76c.047 0 .087.017.12.05.04.04.06.083.06.13v.57c0 .027.01.047.03.06.014.013.027.007.04-.02.414-.593.964-.89 1.65-.89zm6.39.09c.054 0 .097.017.13.05.034.033.05.077.05.13v1.42a.175.175 0 01-.05.13.176.176 0 01-.13.05h-1.45c-.053 0-.08.023-.08.07v5.69a.176.176 0 01-.05.13.176.176 0 01-.13.05h-1.75a.176.176 0 01-.13-.05.176.176 0 01-.05-.13v-5.69c0-.047-.026-.07-.08-.07h-.88a.176.176 0 01-.13-.05.176.176 0 01-.05-.13v-1.42c0-.053.017-.097.05-.13a.176.176 0 01.13-.05h.88c.054 0 .08-.027.08-.08v-.33c0-.62.094-1.103.28-1.45.194-.34.5-.583.92-.73.427-.147 1.017-.21 1.77-.19h.57c.047 0 .087.017.12.05.04.04.06.083.06.13v1.21c0 .053-.02.097-.06.13a.151.151 0 01-.12.06h-.5c-.346.007-.59.077-.73.21-.133.14-.2.39-.2.75v.16c0 .053.027.08.08.08h1.45zm4.35 7.84c-.84 0-1.56-.22-2.16-.66-.6-.44-1.01-1.04-1.23-1.8a5.305 5.305 0 01-.21-1.53c0-.587.07-1.117.21-1.59.234-.74.65-1.32 1.25-1.74.6-.42 1.32-.63 2.16-.63.814 0 1.514.207 2.1.62.574.42.98 1 1.22 1.74.167.5.25 1.023.25 1.57 0 .54-.07 1.047-.21 1.52-.22.78-.63 1.39-1.23 1.83-.593.447-1.31.67-2.15.67zm0-1.81c.327 0 .607-.1.84-.3.234-.2.4-.477.5-.83.074-.32.11-.67.11-1.05 0-.42-.036-.773-.11-1.06-.113-.34-.283-.607-.51-.8a1.318 1.318 0 00-.85-.28c-.333 0-.613.093-.84.28-.226.193-.39.46-.49.8-.08.233-.12.587-.12 1.06 0 .453.037.803.11 1.05.1.353.267.63.5.83.234.2.52.3.86.3zm8.79-6.12c.36 0 .647.07.86.21.08.04.107.113.08.22l-.31 1.71c-.006.12-.076.157-.21.11a1.578 1.578 0 00-.52-.08c-.08 0-.19.01-.33.03-.36.033-.666.167-.92.4-.246.233-.37.547-.37.94v4.09c0 .053-.02.097-.06.13A.176.176 0 0151 60h-1.75a.2.2 0 01-.13-.05.176.176 0 01-.05-.13v-7.35a.2.2 0 01.05-.13.2.2 0 01.13-.05H51c.054 0 .097.017.13.05.04.04.06.083.06.13v.57c0 .027.007.047.02.06.027.013.044.007.05-.02.414-.593.964-.89 1.65-.89zm10.45-.02c.78 0 1.39.233 1.83.7.44.473.66 1.137.66 1.99v4.96a.176.176 0 01-.05.13.164.164 0 01-.12.05h-1.76a.2.2 0 01-.13-.05.176.176 0 01-.05-.13v-4.5c0-.407-.103-.73-.31-.97-.213-.24-.496-.36-.85-.36a1.1 1.1 0 00-.85.36c-.22.24-.33.56-.33.96v4.51a.176.176 0 01-.05.13.2.2 0 01-.13.05h-1.74a.176.176 0 01-.13-.05.176.176 0 01-.05-.13v-4.5c0-.4-.11-.723-.33-.97-.22-.24-.506-.36-.86-.36-.313 0-.58.093-.8.28-.213.193-.34.46-.38.8v4.75a.176.176 0 01-.05.13.2.2 0 01-.13.05H55a.176.176 0 01-.13-.05.176.176 0 01-.05-.13v-7.35a.2.2 0 01.05-.13.176.176 0 01.13-.05h1.75a.2.2 0 01.13.05.2.2 0 01.05.13v.59c0 .027.01.047.03.06.02.007.04-.007.06-.04.414-.607 1.05-.91 1.91-.91.5 0 .937.107 1.31.32.374.207.66.507.86.9.027.06.064.06.11 0 .214-.413.51-.72.89-.92.374-.2.794-.3 1.26-.3zm10.76 3.18c.06.38.08.803.06 1.27-.013.127-.08.19-.2.19h-4.63c-.06 0-.08.023-.06.07.027.2.08.4.16.6.26.56.79.84 1.59.84.64-.007 1.147-.267 1.52-.78.04-.06.084-.09.13-.09.034 0 .07.02.11.06l1.08 1.06c.047.053.07.1.07.14 0 .02-.02.06-.06.12-.326.413-.75.73-1.27.95-.52.227-1.09.34-1.71.34-.86 0-1.586-.193-2.18-.58a3.26 3.26 0 01-1.29-1.64c-.206-.5-.31-1.153-.31-1.96 0-.553.074-1.04.22-1.46a3.332 3.332 0 011.21-1.69c.574-.42 1.257-.63 2.05-.63 1 0 1.804.29 2.41.87.607.58.974 1.353 1.1 2.32zm-3.5-1.36c-.626 0-1.04.293-1.24.88a4.39 4.39 0 00-.11.48c0 .047.027.07.08.07h2.59c.06 0 .08-.023.06-.07a19.64 19.64 0 00-.07-.42c-.093-.3-.25-.533-.47-.7-.226-.16-.506-.24-.84-.24zm8.7-1.8c.36 0 .647.07.86.21.08.04.11.113.09.22l-.31 1.71c-.013.12-.086.157-.22.11a1.523 1.523 0 00-.52-.08c-.08 0-.19.01-.33.03-.36.033-.666.167-.92.4-.246.233-.37.547-.37.94v4.09a.176.176 0 01-.05.13.2.2 0 01-.13.05h-1.76a.164.164 0 01-.12-.05.161.161 0 01-.06-.13v-7.35c0-.047.02-.09.06-.13a.164.164 0 01.12-.05h1.76a.2.2 0 01.13.05.2.2 0 01.05.13v.57c0 .027.01.047.03.06.02.013.037.007.05-.02.407-.593.954-.89 1.64-.89zM38.06 34.68a.2.2 0 01.05-.13.164.164 0 01.12-.05h1.76a.2.2 0 01.13.05c.034.04.05.083.05.13v10.14a.176.176 0 01-.05.13.2.2 0 01-.13.05h-1.76a.164.164 0 01-.12-.05.176.176 0 01-.05-.13v-4.14c0-.047-.026-.07-.08-.07h-3.32c-.046 0-.07.023-.07.07v4.14a.176.176 0 01-.05.13.2.2 0 01-.13.05h-1.76a.164.164 0 01-.12-.05.161.161 0 01-.06-.13V34.68c0-.047.02-.09.06-.13a.164.164 0 01.12-.05h1.76a.2.2 0 01.13.05c.034.04.05.083.05.13v4.03c0 .053.024.08.07.08h3.32c.054 0 .08-.027.08-.08v-4.03zm4.84 1.74c-.34 0-.623-.113-.85-.34a1.12 1.12 0 01-.34-.84c0-.353.11-.64.33-.86.22-.22.507-.33.86-.33.354 0 .64.11.86.33.22.22.33.507.33.86 0 .34-.113.62-.34.84a1.15 1.15 0 01-.85.34zM42 45a.2.2 0 01-.13-.05.176.176 0 01-.05-.13v-7.36c0-.053.017-.097.05-.13a.199.199 0 01.13-.05h1.76c.047 0 .087.017.12.05.04.033.06.077.06.13v7.36c0 .053-.02.097-.06.13a.164.164 0 01-.12.05H42zm8.29-7.53c0-.047.02-.09.06-.13a.164.164 0 01.12-.05h1.76a.2.2 0 01.13.05c.034.04.05.083.05.13v6.84c0 1.307-.376 2.24-1.13 2.8-.753.567-1.726.85-2.92.85a9.57 9.57 0 01-1.17-.08c-.1-.013-.15-.077-.15-.19l.06-1.55c0-.133.07-.19.21-.17.36.06.69.09.99.09.64 0 1.134-.137 1.48-.41.34-.287.51-.737.51-1.35 0-.033-.01-.053-.03-.06-.02-.007-.04.003-.06.03-.38.407-.933.61-1.66.61-.653 0-1.25-.157-1.79-.47-.546-.313-.936-.82-1.17-1.52-.146-.46-.22-1.057-.22-1.79 0-.78.09-1.413.27-1.9a2.936 2.936 0 011.06-1.47c.5-.373 1.084-.56 1.75-.56.767 0 1.354.23 1.76.69.02.02.04.027.06.02.02-.007.03-.023.03-.05v-.36zm-.12 4.84c.08-.293.12-.703.12-1.23 0-.307-.01-.543-.03-.71a2.767 2.767 0 00-.1-.49 1.416 1.416 0 00-.45-.65c-.206-.16-.466-.24-.78-.24-.3 0-.553.08-.76.24-.213.167-.37.383-.47.65-.14.3-.21.707-.21 1.22 0 .56.06.96.18 1.2.087.273.244.49.47.65.227.167.494.25.8.25.32 0 .587-.083.8-.25.207-.16.35-.373.43-.64zm7.78-5.14c.8 0 1.444.247 1.93.74.487.487.73 1.15.73 1.99v4.92a.176.176 0 01-.05.13.164.164 0 01-.12.05h-1.76a.2.2 0 01-.13-.05.176.176 0 01-.05-.13v-4.49c0-.393-.113-.717-.34-.97-.22-.247-.516-.37-.89-.37-.366 0-.663.123-.89.37-.226.253-.34.577-.34.97v4.49a.176.176 0 01-.05.13.176.176 0 01-.13.05h-1.75a.176.176 0 01-.13-.05.176.176 0 01-.05-.13V34.68a.2.2 0 01.05-.13.176.176 0 01.13-.05h1.75c.054 0 .097.017.13.05.034.04.05.083.05.13V38c0 .027.01.047.03.06.02.007.034 0 .04-.02.414-.58 1.027-.87 1.84-.87z" fill="#252530"/><path d="M31.2 75.4c-.073 0-.12-.033-.14-.1l-1.82-6.77-.01-.04c0-.06.037-.09.11-.09h.98c.074 0 .12.033.14.1l1.14 4.56c.007.02.017.03.03.03.014 0 .024-.01.03-.03l1.09-4.56c.02-.067.064-.1.13-.1h.96c.074 0 .12.033.14.1l1.16 4.57c.007.02.017.03.03.03.014 0 .024-.01.03-.03l1.12-4.57c.02-.067.067-.1.14-.1h.93c.094 0 .13.043.11.13l-1.73 6.77c-.02.067-.066.1-.14.1h-.93c-.073 0-.12-.033-.14-.1l-1.17-4.77c-.006-.02-.016-.033-.03-.04-.013 0-.023.013-.03.04l-1.12 4.77c-.02.067-.063.1-.13.1h-.88zm7.41 0a.124.124 0 01-.09-.04.108.108 0 01-.03-.08v-6.76c0-.033.01-.06.03-.08a.124.124 0 01.09-.04h.92c.034 0 .06.013.08.04.027.02.04.047.04.08v6.76c0 .033-.013.06-.04.08a.095.095 0 01-.08.04h-.92zm6.57-6.88c0-.033.01-.06.03-.08a.124.124 0 01.09-.04h.92c.034 0 .06.013.08.04.027.02.04.047.04.08v6.76c0 .033-.013.06-.04.08a.095.095 0 01-.08.04h-.89c-.066 0-.113-.027-.14-.08l-2.88-4.72c-.013-.02-.026-.03-.04-.03-.013.007-.02.023-.02.05l.02 4.66c0 .033-.013.06-.04.08a.095.095 0 01-.08.04h-.92a.124.124 0 01-.09-.04.108.108 0 01-.03-.08v-6.76c0-.033.01-.06.03-.08a.124.124 0 01.09-.04h.89c.067 0 .114.027.14.08l2.87 4.72c.014.02.027.027.04.02.014 0 .02-.013.02-.04l-.01-4.66zm7.22-.12c.034 0 .06.013.08.04.027.02.04.047.04.08v.77c0 .033-.013.06-.04.08a.095.095 0 01-.08.04h-1.84c-.033 0-.05.017-.05.05v5.82c0 .033-.01.06-.03.08a.124.124 0 01-.09.04h-.92a.095.095 0 01-.08-.04.095.095 0 01-.04-.08v-5.82c0-.033-.016-.05-.05-.05h-1.77a.124.124 0 01-.09-.04.108.108 0 01-.03-.08v-.77c0-.033.01-.06.03-.08a.124.124 0 01.09-.04h4.87zm5.93.88c0 .033-.013.06-.04.08a.095.095 0 01-.08.04H54.8c-.033 0-.05.017-.05.05v1.87c0 .033.017.05.05.05h2.29c.034 0 .064.01.09.03.02.027.03.057.03.09v.76c0 .033-.01.063-.03.09a.146.146 0 01-.09.03H54.8c-.033 0-.05.017-.05.05v1.93c0 .033.017.05.05.05h3.41c.034 0 .06.013.08.04.027.02.04.047.04.08v.76c0 .033-.013.06-.04.08a.095.095 0 01-.08.04h-4.5a.124.124 0 01-.09-.04.108.108 0 01-.03-.08v-6.76c0-.033.01-.06.03-.08a.124.124 0 01.09-.04h4.5c.034 0 .06.013.08.04.027.02.04.047.04.08v.76zm5.11 6.12a.141.141 0 01-.14-.09l-1.32-2.88c-.013-.027-.033-.04-.06-.04h-1.2c-.033 0-.05.017-.05.05v2.84c0 .033-.013.06-.04.08a.095.095 0 01-.08.04h-.92a.124.124 0 01-.09-.04.108.108 0 01-.03-.08v-6.76c0-.033.01-.06.03-.08a.124.124 0 01.09-.04h2.75c.407 0 .767.083 1.08.25.314.173.557.413.73.72.174.313.26.67.26 1.07 0 .46-.12.85-.36 1.17-.233.327-.56.553-.98.68-.013 0-.023.007-.03.02a.042.042 0 000 .04l1.41 2.91c.014.027.02.047.02.06 0 .053-.036.08-.11.08h-.96zm-2.72-6c-.033 0-.05.017-.05.05v1.99c0 .033.017.05.05.05h1.5c.32 0 .58-.097.78-.29.194-.187.29-.437.29-.75s-.096-.567-.29-.76c-.2-.193-.46-.29-.78-.29h-1.5z" fill="#fff"/><path d="M34.03 93.46c-.02.02-.026.04-.02.06.014.02.034.03.06.03H38c.047 0 .087.017.12.05a.15.15 0 01.06.12v1.41a.15.15 0 01-.06.12.163.163 0 01-.12.05h-6.52a.176.176 0 01-.13-.05.164.164 0 01-.05-.12v-1.34a.3.3 0 01.09-.22c.474-.46.957-.963 1.45-1.51.494-.547.804-.887.93-1.02.267-.32.54-.627.82-.92.88-.973 1.32-1.697 1.32-2.17 0-.34-.12-.62-.36-.84-.24-.213-.553-.32-.94-.32-.386 0-.7.107-.94.32-.246.22-.37.51-.37.87v.36a.163.163 0 01-.05.12.163.163 0 01-.12.05h-1.71a.164.164 0 01-.12-.05.151.151 0 01-.06-.12v-.68c.034-.52.2-.983.5-1.39.3-.4.697-.707 1.19-.92.5-.213 1.06-.32 1.68-.32.687 0 1.284.13 1.79.39.507.253.897.597 1.17 1.03.28.44.42.923.42 1.45 0 .407-.103.823-.31 1.25-.2.427-.503.887-.91 1.38-.3.373-.623.747-.97 1.12-.346.367-.863.897-1.55 1.59l-.22.22zm8.86 2c-1.066 0-1.906-.297-2.52-.89-.62-.593-.93-1.403-.93-2.43v-3.83c0-1.007.31-1.803.93-2.39.614-.593 1.454-.89 2.52-.89 1.06 0 1.904.297 2.53.89.62.587.93 1.383.93 2.39v3.83c0 1.027-.31 1.837-.93 2.43-.626.593-1.47.89-2.53.89zm0-1.75c.434 0 .777-.133 1.03-.4.26-.267.39-.623.39-1.07v-3.99c0-.44-.13-.793-.39-1.06-.253-.267-.596-.4-1.03-.4-.426 0-.766.133-1.02.4-.26.267-.39.62-.39 1.06v3.99c0 .447.13.803.39 1.07.254.267.594.4 1.02.4zm7.52-.25c-.02.02-.023.04-.01.06.007.02.027.03.06.03h3.93c.047 0 .087.017.12.05a.16.16 0 01.05.12v1.41a.163.163 0 01-.05.12.163.163 0 01-.12.05h-6.53a.164.164 0 01-.12-.05.164.164 0 01-.05-.12v-1.34a.32.32 0 01.08-.22c.48-.46.964-.963 1.45-1.51.494-.547.804-.887.93-1.02.274-.32.55-.627.83-.92.88-.973 1.32-1.697 1.32-2.17 0-.34-.12-.62-.36-.84-.246-.213-.563-.32-.95-.32-.386 0-.7.107-.94.32-.24.22-.36.51-.36.87v.36a.163.163 0 01-.05.12.175.175 0 01-.13.05H47.8a.164.164 0 01-.12-.05.164.164 0 01-.05-.12v-.68c.027-.52.19-.983.49-1.39.3-.4.7-.707 1.2-.92.5-.213 1.057-.32 1.67-.32.687 0 1.284.13 1.79.39.514.253.907.597 1.18 1.03.274.44.41.923.41 1.45 0 .407-.1.823-.3 1.25-.206.427-.513.887-.92 1.38-.3.373-.623.747-.97 1.12-.346.367-.863.897-1.55 1.59l-.22.22zm11.46-3c.194.44.29.95.29 1.53 0 .527-.086 1.01-.26 1.45a2.862 2.862 0 01-1.17 1.45c-.546.353-1.193.53-1.94.53-.733 0-1.376-.183-1.93-.55a3.167 3.167 0 01-1.2-1.5 4.174 4.174 0 01-.23-1.22c0-.113.057-.17.17-.17h1.72c.114 0 .17.057.17.17.04.32.094.557.16.71.087.253.23.45.43.59.194.14.427.21.7.21.54 0 .914-.237 1.12-.71.134-.287.2-.623.2-1.01 0-.46-.073-.833-.22-1.12-.22-.453-.59-.68-1.11-.68-.106 0-.22.03-.34.09a7.963 7.963 0 00-.42.27.202.202 0 01-.11.04.135.135 0 01-.13-.08l-.86-1.21a.162.162 0 01-.03-.1c0-.06.02-.107.06-.14l2.3-2.02c.02-.02.03-.04.03-.06-.006-.02-.023-.03-.05-.03h-3.41a.199.199 0 01-.13-.05.164.164 0 01-.05-.12v-1.41c0-.047.017-.087.05-.12a.2.2 0 01.13-.05h6.04c.054 0 .097.017.13.05a.16.16 0 01.05.12v1.6a.33.33 0 01-.1.22l-1.9 1.74c-.02.02-.026.037-.02.05 0 .02.02.03.06.03.84.167 1.44.667 1.8 1.5z" fill="#252530"/></svg>