<svg xmlns="http://www.w3.org/2000/svg" xml:space="preserve" xmlns:vectornator="http://vectornator.io" viewBox="0 0 144 56" clip-rule="evenodd" stroke-linecap="round" stroke-linejoin="round"><defs><linearGradient y1="37.422" id="a" x1="5.474" y2="7.45" x2="32.46" gradientUnits="userSpaceOnUse" gradientTransform="translate(0 12.243) scale(.98478)"><stop stop-color="#ff5416" offset="0"/><stop stop-color="#ff5115" offset=".254"/><stop stop-color="#ff4712" offset=".461"/><stop stop-color="#ff350e" offset=".652"/><stop stop-color="#ff1e08" offset=".833"/><stop stop-color="red" offset="1"/></linearGradient><linearGradient y1="39.359" id="b" x1="10.708" y2="21.645" x2="26.658" gradientUnits="userSpaceOnUse" gradientTransform="translate(0 12.243) scale(.98478)"><stop stop-color="#ff5416" offset="0"/><stop stop-color="#ff5115" offset=".254"/><stop stop-color="#ff4712" offset=".461"/><stop stop-color="#ff350e" offset=".652"/><stop stop-color="#ff1e08" offset=".833"/><stop stop-color="red" offset="1"/></linearGradient></defs><g vectornator:layerName="Untitled" fill-rule="evenodd"><path d="M61.964 36.842V16.269h3.714v7.448c1.258-1.197 2.879-1.862 4.59-1.862 4.016 0 7.579 3.06 7.579 7.67 0 4.61-3.563 7.68-7.58 7.68a6.63 6.63 0 01-4.77-2.014v1.65h-3.533zm12.169-7.317c0-2.577-1.832-4.378-4.228-4.378-2.335 0-4.136 1.71-4.227 4.197v.18c0 2.577 1.832 4.379 4.227 4.379 2.396 0 4.228-1.802 4.228-4.378zm5.435 7.317V16.269h3.714v20.573h-3.714zm8.907 5.334l2.164-5.163-5.878-14.795h4.016l3.744 10.336 3.805-10.336h4.076L92.43 42.186h-3.955v-.01zM56.066 22.218v1.862c-1.288-1.41-3.09-2.214-4.942-2.214-4.015 0-7.578 3.06-7.578 7.669 0 4.62 3.563 7.67 7.578 7.67 1.923 0 3.744-.836 5.063-2.336v1.983h3.241V22.218h-3.362zm-.362 7.307c0 2.546-1.832 4.378-4.227 4.378-2.396 0-4.227-1.832-4.227-4.378 0-2.547 1.831-4.378 4.227-4.378 2.335 0 4.136 1.74 4.227 4.197v.18z" fill="#fff"/><path d="M18.992 12.243L3.1 41.331 0 39.157l14.705-26.913h4.287zm.222 0l15.892 29.088 3.1-2.174-14.705-26.913h-4.287z" fill="url(#a)"/><path d="M34.885 41.502l-15.782-12.36-15.782 12.36 3.221 2.255 12.561-9.834 12.56 9.834 3.222-2.255z" fill="url(#b)"/></g></svg>