<svg xmlns="http://www.w3.org/2000/svg" xml:space="preserve" xmlns:vectornator="http://vectornator.io" viewBox="0 0 144 56" clip-rule="evenodd" stroke-linecap="round" stroke-linejoin="round"><path d="M17.272 16.81h4.44v22.376h-4.44V16.809zm36.575 22.38h4.885L48.527 16.81H41.2v22.376h4.45v-7.082h4.982l3.215 7.087zM45.65 28.116v-6.94l3.157 6.945H45.65v-.005zM32.93 16.814v-.005h-8.992v22.382h8.986v-.005c3.622-.069 6.539-3.04 6.539-6.7a6.64 6.64 0 00-1.723-4.484 6.63 6.63 0 001.723-4.483 6.687 6.687 0 00-6.534-6.705zm-.08 4.42c1.224.024 2.208 1.032 2.208 2.28a2.282 2.282 0 01-2.183 2.271h-4.507v-4.551h4.483zm.006 13.527h-4.493V30.21h4.502a2.273 2.273 0 012.193 2.27 2.274 2.274 0 01-2.202 2.282zM9 16.814v-.005H0v22.377h8.996v-.005c3.622-.068 6.539-3.04 6.539-6.7a6.687 6.687 0 00-1.723-4.483 6.678 6.678 0 001.723-4.484c.005-3.656-2.917-6.622-6.534-6.7zm-.087 4.42a2.267 2.267 0 012.217 2.28 2.278 2.278 0 01-2.183 2.271H4.429v-4.551h4.484zm.004 13.527H4.424V30.21h4.503a2.275 2.275 0 012.203 2.27 2.276 2.276 0 01-2.213 2.282z" vectornator:layerName="Untitled" fill-rule="evenodd" fill="#e2001a"/></svg>