<svg width="102" height="20" viewBox="0 0 102 20" fill="none" xmlns="http://www.w3.org/2000/svg"><path fill-rule="evenodd" clip-rule="evenodd" d="M0 0v2.066h101.013V0H0zm74.442 3.519c-2.408-.007-4.474 0-4.595.014-1.631.22-2.75.847-3.234 1.823-.428.847-.47 1.233-.47 4.154 0 2.322.014 2.7.136 3.205.263 1.14.725 1.76 1.687 2.238 1.076.541 1.076.54 6.298.54 4.566 0 4.636-.006 5.184-.155 1.568-.45 2.288-1.127 2.665-2.516.114-.406.13-.805.13-3.312 0-3.12-.016-3.276-.444-4.145-.399-.805-1.182-1.354-2.393-1.674-.562-.15-.718-.158-4.964-.172zm0 2.992c2.493.014 2.614.022 2.998.171.47.186.713.42.933.904.143.32.163.498.185 1.645.035 1.432-.042 2.117-.291 2.552-.406.72-.699.768-4.275.732-3.148-.029-3.242-.034-3.662-.454-.392-.4-.483-.842-.483-2.445 0-1.552.063-1.965.405-2.428.235-.328.62-.528 1.204-.628.214-.036 1.554-.063 2.986-.049zM0 3.626v11.761h5.755c3.412 0 6.013-.029 6.39-.072 1.746-.2 2.737-.748 3.235-1.803.37-.79.399-1.053.399-4.038 0-2.408-.015-2.8-.13-3.206-.377-1.382-1.16-2.095-2.713-2.444-.62-.135-.913-.148-6.79-.169L0 3.626zm3.633 2.992l7.379.042.35.178c.3.15.392.25.57.606l.214.427v1.603c0 1.482-.014 1.624-.15 1.93a2.13 2.13 0 01-.356.521c-.413.385-.593.398-4.46.398H3.632l.001-5.705zM49.01 3.626v11.761h3.634v-3.07l3.154.02c3.013.021 3.164.03 3.4.165.434.256.532.554.554 1.794l.029 1.09h3.633l-.03-1.482c-.035-1.581-.09-1.864-.453-2.342-.214-.285-.7-.578-1.156-.699l-.334-.084.285-.08c.157-.043.463-.184.677-.312.47-.285.791-.777.92-1.383.092-.491.105-2.436.013-2.92-.242-1.261-.842-1.93-2.053-2.287-.37-.106-1.033-.123-6.34-.15l-5.932-.021h-.001zm6.503 2.985c3.113-.021 3.598 0 3.954.185.356.185.456.498.427 1.331-.021.656-.035.714-.22.906-.145.136-.32.236-.512.292-.207.05-1.404.078-3.413.078h-3.105V6.625l2.869-.014zM23.314 3.632l-3.16 5.813a1486.102 1486.102 0 00-3.186 5.877c-.015.036.854.065 1.994.065h2.017l.519-1.033.514-1.033 3.675.013 3.682.022.544 1.011.54 1.02h4.032l-.22-.414c-.121-.221-1.576-2.856-3.228-5.855l-3.012-5.45-2.351-.022-2.36-.014zm2.331 2.779c.021 0 .54.955 1.16 2.13.613 1.169 1.12 2.145 1.12 2.173 0 .021-1.012.042-2.251.042-1.453 0-2.238-.028-2.224-.07.057-.179 2.167-4.275 2.195-4.275zm7.195-2.779v2.85h5.058v8.905h3.704l.013-4.44.023-4.43 2.513-.021 2.509-.014v-2.85H32.84zm52.216.054l.014 5.855.022 5.864 1.8.022 1.797.013v-4.252c0-3.982.007-4.247.12-4.14.065.07 1.583 1.973 3.37 4.238l3.248 4.119 2.792.022 2.794.013V3.686h-3.562v4.245c0 2.437-.029 4.233-.065 4.219-.035-.014-1.559-1.925-3.39-4.248l-3.334-4.216h-5.606zM0 17.079v2.065h101.013v-2.066L0 17.079z" fill="#fff"/></svg>