<svg xmlns="http://www.w3.org/2000/svg" xml:space="preserve" xmlns:vectornator="http://vectornator.io" viewBox="0 0 144 56" clip-rule="evenodd" stroke-linecap="round" stroke-linejoin="round"><g fill-rule="evenodd" vectornator:layerName="Untitled"><path d="M52.652 15.267c-.01.025-.022.704-.027 1.507l-.01 1.461-1.645.019-1.646.018v3.588l1.655.01 1.654.009.011 8.072c.011 7.63.015 8.087.078 8.35.265 1.099.804 1.826 1.693 2.282l.272.14 2.783.01c2.236.008 2.784 0 2.785-.037.022-.945-.013-3.305-.049-3.328-.024-.016-.75-.028-1.614-.028-1.242.001-1.575-.008-1.599-.046-.039-.061-.04-15.345 0-15.406.021-.035.41-.048 1.654-.056l1.625-.01.01-1.784.01-1.784H57l-.023-.091c-.012-.05-.017-.729-.01-1.508l.013-1.416-2.155-.01c-1.705-.007-2.16 0-2.173.038M.084 18.26c-.033.034-.042.474-.035 1.803l.008 1.759.02-1.776.018-1.775 23.94-.01 23.94-.009-.01 1.785-.01 1.785-23.911.018-23.912.019 23.92.01 23.92.008.02-.083c.012-.046.017-.865.01-1.821l-.01-1.739-23.931-.009c-18.584-.007-23.942 0-23.977.035m74.909-.017l13.296.01v3.587H74.977c-9.054 0-13.318-.012-13.33-.038-.011-.02-.015-.016-.01.01.008.038 2.566.047 13.34.047h13.33v-3.625h-26.61l13.296.01m-13.354 1.747c0 .966.005 1.361.01.878a73.42 73.42 0 000-1.756c-.005-.483-.01-.088-.01.878M2.002 23.637c-.984.24-1.635.846-1.866 1.74-.153.592-.188 3.648-.048 4.14.185.645.554 1.116 1.068 1.363.525.253.348.244 4.859.244 3.116 0 4.08.011 4.115.045.031.032.044.243.044.714s-.013.683-.044.714c-.035.034-1.206.044-5.05.044H.077l.01 1.573.01 1.573 6.182-.002c3.665 0 6.255-.014 6.362-.035.992-.191 1.652-.991 1.823-2.21.077-.547.05-3.175-.036-3.6-.165-.811-.545-1.358-1.145-1.648-.422-.203-.327-.199-4.57-.2-3.002 0-3.934-.01-3.968-.044-.046-.047-.066-1.335-.022-1.45.02-.054.487-.06 4.892-.06 2.678 0 4.89-.014 4.916-.03.036-.023.044-.342.037-1.47l-.01-1.44-6.177-.005c-5.015-.004-6.214.004-6.378.044m32.454.017c-1.363.279-2.123.91-2.445 2.034-.075.26-.132 9.995-.06 10.067.017.017.954.031 2.082.031h2.05l.018-4.614.02-4.615 1.673-.01 1.673-.01v9.247l2.028.01c1.116.005 2.056.004 2.09-.002.057-.011.062-.35.07-4.623l.01-4.612h3.218l.01 4.583c.005 2.686.023 4.6.042 4.623.024.029.642.038 2.127.03l2.093-.009v-9.94l-.094-.325c-.304-1.05-1.015-1.666-2.165-1.88-.478-.09-5.677-.089-6.074 0-.512.115-1.173.539-1.173.752 0 .084-.097.028-.203-.117-.22-.3-.633-.524-1.176-.636-.455-.094-5.342-.08-5.814.016m41.761-.014c-1.14.177-1.851.89-2.136 2.14-.04.18-.05.936-.05 3.958v3.736l.09.314c.297 1.045.883 1.644 1.87 1.91.4.107 9.878.108 10.283 0 .925-.246 1.6-.847 1.882-1.678.151-.444.175-.82.163-2.58l-.011-1.628-2.08-.01-2.081-.01v1.379c-.001.758-.015 1.399-.03 1.424-.024.037-.59.045-2.71.037l-2.679-.01-.01-3.042-.009-3.042 2.71.01 2.71.009.01 1.07c.006.801.02 1.08.055 1.1.08.051 4.037.038 4.088-.014.07-.069.062-2.805-.01-3.174-.145-.764-.55-1.323-1.176-1.623-.577-.277-.556-.274-2.395-.287-4.703-.034-8.225-.029-8.484.011m-60.066.035c-.012.032-.022.655-.022 1.384 0 .73.01 1.352.022 1.384.02.053.486.059 4.892.06 2.678 0 4.89.013 4.916.03.036.022.044.216.037.84l-.01.812-3.958.02c-4.254.023-4.101.016-4.557.222-.574.258-1.037.898-1.19 1.644-.023.113-.05.224-.08.335-.047.152-.044 2.855.002 3.16.181 1.18.73 1.857 1.72 2.114.245.063.578.067 6.313.068h6.055l.011-4.873c.008-3.44-.001-4.96-.03-5.169-.153-1.094-.812-1.813-1.867-2.035-.409-.085-12.22-.082-12.254.004m44.361-.033c-1.063.178-1.778.892-2 2-.097.481-.11 7.403-.015 7.905.225 1.186.817 1.877 1.825 2.128.289.072.42.073 6.244.064l5.949-.01v-3.07l-4.883-.018c-2.685-.01-4.886-.023-4.891-.028-.05-.047-.002-1.446.05-1.466.033-.012 2.224-.022 4.87-.022 2.647 0 4.826-.013 4.843-.03.07-.07.014-5.477-.059-5.74-.256-.915-.845-1.51-1.669-1.683-.245-.051-9.965-.08-10.263-.03m7.634 2.882c.088.034.088 1.512 0 1.546-.136.052-5.33.024-5.375-.029-.029-.035-.039-.27-.032-.767l.01-.717 1.979-.019c1.088-.01 2.29-.023 2.67-.028.38-.005.716.002.748.014m-42.143 5.54c0 .654-.008.757-.058.777-.077.03-5.244.03-5.32 0-.051-.02-.059-.123-.059-.777v-.754h5.437v.754m-.252 5.303l25.694.009.024.076c.014.043.033.069.043.06.01-.01 0-.054-.023-.096l-.042-.077-25.695.009-25.695.01 25.694.009m35.887.018c-.01.025-.013.762-.008 1.637l.01 1.59.01-1.618.008-1.618h26.63v3.365l-13.296.01-13.297.009h26.612v-3.403l-13.326-.01c-10.64-.007-13.329 0-13.343.038M.057 39.059c0 .915.005 1.284.01.82a77.07 77.07 0 000-1.664c-.005-.452-.01-.072-.01.844m51.412.092c0 .87.012 1.564.027 1.54.035-.057.037-3.084.002-3.106-.016-.01-.029.695-.029 1.566M12.942 40.77c7.066.005 18.616.005 25.669 0 7.052-.005 1.27-.01-12.847-.01-14.118 0-19.888.005-12.822.01" fill="#f3731b"/><path d="M.094 18.3c-.01.025-.014.832-.008 1.794l.01 1.747H24c13.149 0 23.921-.01 23.94-.02.019-.012.033-.78.033-1.794v-1.773h-23.93c-19.111 0-23.935.01-23.95.046m61.558 1.71c-.006.967-.005 1.774.002 1.794.008.025 4.506.037 13.324.037H88.29v-3.587H61.66l-.01 1.757M.078 39.059v1.682H25.76c22.568 0 25.686-.006 25.704-.054.028-.073.029-3.181 0-3.254-.019-.052-2.555-.057-25.704-.057H.077v1.683m61.574-.047c-.006.9-.005 1.658.003 1.683.01.037 2.707.046 13.324.046H88.29v-3.365H61.661l-.01 1.636" fill="#060606"/></g></svg>