<svg xmlns="http://www.w3.org/2000/svg" xml:space="preserve" xmlns:vectornator="http://vectornator.io" viewBox="0 0 144 56" clip-rule="evenodd" stroke-linecap="round" stroke-linejoin="round"><g fill-rule="evenodd" vectornator:layerName="Untitled"><path d="M7.078 23.274h4.541v-2.279H0v2.279h4.542v11.715h2.536V23.274m93.036-2.279H89.757V34.99h10.457v-2.22h-8.018v-3.738h7.019v-2.218h-7.019v-3.598h7.918v-2.22M77.267 34.99h9.876v-2.22h-7.418V20.995h-2.458V34.99m-3.486-1.903v-5.92h-2.428v4.805a5.425 5.425 0 01-1.54.783 6.063 6.063 0 01-1.908.291c-.735 0-1.397-.127-1.99-.382a4.614 4.614 0 01-1.53-1.06A4.64 4.64 0 0163.396 30a5.716 5.716 0 01-.346-2.017 5.243 5.243 0 011.336-3.53c.415-.456.904-.82 1.468-1.08a4.284 4.284 0 011.827-.393c.448 0 .86.037 1.234.11.688.126 1.343.39 1.927.775a8.9 8.9 0 01.837.625l1.591-1.873a9.092 9.092 0 00-1.132-.816 7.215 7.215 0 00-1.235-.594 7.92 7.92 0 00-1.417-.371 10.145 10.145 0 00-1.703-.131c-1.074 0-2.064.195-2.968.583a7.094 7.094 0 00-3.855 3.907 7.409 7.409 0 00-.54 2.818c0 1.034.176 1.993.53 2.879a6.82 6.82 0 001.499 2.306 6.888 6.888 0 002.336 1.53c.91.37 1.924.553 3.039.553a9.09 9.09 0 001.795-.171 8.83 8.83 0 002.989-1.177c.428-.269.82-.55 1.173-.846m-16.267 0v-5.92h-2.427v4.805a5.415 5.415 0 01-1.54.783 6.062 6.062 0 01-1.908.291c-.735 0-1.397-.127-1.99-.382a4.614 4.614 0 01-1.529-1.06A4.642 4.642 0 0147.13 30a5.718 5.718 0 01-.346-2.017 5.244 5.244 0 011.336-3.53 4.57 4.57 0 011.469-1.08 4.284 4.284 0 011.825-.393c.45 0 .86.037 1.235.11a5.59 5.59 0 011.03.302c.313.128.612.285.898.474.285.188.565.395.836.624l1.592-1.873a9.077 9.077 0 00-1.133-.816 7.214 7.214 0 00-1.234-.594 7.913 7.913 0 00-1.418-.371 10.147 10.147 0 00-1.704-.131c-1.074 0-2.063.195-2.968.583a7.25 7.25 0 00-2.335 1.581 7.09 7.09 0 00-1.52 2.325 7.41 7.41 0 00-.54 2.819c0 1.034.176 1.993.53 2.879a6.826 6.826 0 001.5 2.306 6.884 6.884 0 002.335 1.53c.911.37 1.924.553 3.04.553a9.07 9.07 0 001.794-.171 8.834 8.834 0 002.988-1.177c.43-.269.82-.55 1.174-.846M22.122 23.052c2.716 0 4.938 2.23 4.938 4.956 0 2.726-2.222 4.956-4.938 4.956-2.716 0-4.938-2.23-4.938-4.956 0-2.726 2.222-4.956 4.938-4.956zm0-2.332c-3.994 0-7.261 3.28-7.261 7.288 0 4.009 3.267 7.289 7.26 7.289 3.995 0 7.263-3.28 7.263-7.289 0-4.008-3.268-7.288-7.262-7.288z" fill="#fff"/><path d="M34.651 20.704h-5.603a10.138 10.138 0 013.078 7.288 10.14 10.14 0 01-3.078 7.288h5.602c3.949 0 7.178-3.28 7.178-7.288 0-4.009-3.23-7.288-7.177-7.288" fill="#ffa852"/></g></svg>