<svg width="95" height="24" viewBox="0 0 95 24" fill="none" xmlns="http://www.w3.org/2000/svg"><g clip-path="url(#clip0)"><path d="M37.803 17.194l.873 1.304c.037.05.058.11.062.171 0 .108-.108.155-.23.155h-1.186a.404.404 0 01-.321-.12s-.712-.636-1.488-1.32c-2.656-.203-4.405-1.848-4.405-5.466 0-3.463 2.026-5.217 4.971-5.217 2.978 0 4.973 1.754 4.973 5.217.003 3.21-1.363 4.749-3.25 5.276zM36.098 7.97c-1.871 0-3.249.947-3.249 4.006 0 3.277 1.35 4.07 3.253 4.07 1.902 0 3.239-.793 3.239-4.07-.004-3.075-1.416-4.006-3.243-4.006zm13.946 9.07c-.936.155-2.253.373-3.32.373-2.61 0-3.99-.886-3.99-3.541V8.607a.141.141 0 01.092-.149.13.13 0 01.062-.007h1.304c.107 0 .168.047.168.14v5.358c0 1.521.721 2.127 2.287 2.127.583 0 1.258-.047 1.779-.093.092-.016.154-.047.154-.155V8.592c0-.11.03-.14.153-.14h1.304c.107 0 .169.046.169.14v8.245a.183.183 0 01-.093.182.176.176 0 01-.069.02zm10.272-3.465h-6.414c-.093 0-.139.016-.139.157.062 1.956 1.366 2.391 3.253 2.391.712 0 1.49-.062 2.317-.12.062 0 .14.016.14.11v.03l-.14.947c-.03.108-.077.108-.183.14-.88.13-1.767.198-2.656.202-2.623 0-4.387-1.102-4.387-4.56 0-3.338 1.897-4.47 4.203-4.47 2.809 0 4.144 1.583 4.144 5.03 0 .098-.046.143-.138.143zM56.22 9.633c-1.505 0-2.471.84-2.471 2.562 0 .12.03.155.139.155h4.756c.108 0 .169-.015.169-.14-.045-1.74-1.06-2.577-2.593-2.577zm8.53 7.794a15.064 15.064 0 01-2.502-.233c-.118-.032-.153-.062-.153-.17v-.944a.12.12 0 01.035-.085.118.118 0 01.084-.035h.046c.414.015 1.397.093 2.21.093 1.09 0 2.394-.046 2.394-1.257 0-2.096-4.862-1.15-4.862-4.146 0-1.833 1.897-2.267 3.557-2.267.787.021 1.572.099 2.348.233.108.031.169.092.169.17l-.153.9c0 .063-.047.11-.139.11h-.03a21.337 21.337 0 00-2.195-.14c-.905 0-1.933.046-1.933 1.01 0 1.66 4.85.915 4.85 3.99.005 1.964-1.483 2.771-3.727 2.771zm10.054-.31c-.03.092-.077.12-.185.139-.523.081-1.05.13-1.58.144-1.458 0-2.102-.653-2.102-2.221V9.662c0-.108-.046-.155-.153-.155H69.74c-.107 0-.153-.062-.153-.17v-.745c0-.094.046-.14.153-.14h1.057c.092 0 .138-.046.138-.155v-2.04c0-.11.03-.156.153-.188l1.304-.139c.108 0 .169.047.169.155v2.212c0 .109.03.154.154.154h1.66c.119 0 .154.047.154.156v.746c0 .092-.03.139-.154.139h-1.66c-.108 0-.154.062-.154.17v5.098c0 .9.138 1.273 1.29 1.273h.936c.137 0 .153.062.153.155l-.136.929zm5.371.201h-3.544c-.108 0-.14-.03-.14-.156V6.93c0-.12.047-.17.14-.17h3.759c2.717 0 5.003 1.087 5.003 4.953 0 4.285-2.302 5.605-5.218 5.605zm.292-9.332h-2.18c-.118 0-.168.062-.168.155v7.734c0 .108.03.154.153.154h2.226c1.81 0 3.253-1.165 3.253-4.08 0-2.891-1.32-3.963-3.284-3.963zm11.141 9.332h-4.312c-.106 0-.137-.062-.137-.156V6.914c0-.108.046-.154.153-.154h3.929c1.504 0 3.177.62 3.177 2.562 0 1.506-.86 2.204-1.459 2.329v.092c.568.12 2.041.498 2.041 2.609 0 2.3-1.918 2.966-3.392 2.966zm-.935-9.332H88.94a.146.146 0 00-.166.103.15.15 0 00-.004.07v2.823c0 .12.03.172.153.172h1.994c.63 0 1.857-.156 1.857-1.615 0-1.398-1.09-1.553-2.102-1.553zm.64 4.374h-2.39c-.107 0-.152.031-.152.155v3.37c0 .108.045.14.153.14h2.253c1.028 0 2.18-.264 2.18-1.833.002-1.315-.873-1.832-2.044-1.832z" fill="#fff"/><path d="M26.25 21.25l-.89-.72c-2.078-1.939-1.93-4.569-1.816-5.621a19.15 19.15 0 00.055-4.005c-.038-.374-.09-.747-.161-1.112-.108-.563-.54-2.32-.979-3.16l-1.983 3.432-.482.832-.567.984a7.663 7.663 0 01-.613 3.19 7.584 7.584 0 01-1.876 2.638 7.475 7.475 0 01-2.795 1.6 7.413 7.413 0 01-3.2.271l.096.165 1.305 2.265.493.858.565.984c.313-.029.633-.068.96-.12a18.534 18.534 0 003.631-1.074 8.533 8.533 0 011.725-.5c1.449-.252 2.81-.044 4.01.6a.44.44 0 00.407.01L26.2 21.72a.28.28 0 00.15-.221.287.287 0 00-.1-.25zM8.15.662A11.827 11.827 0 004.743 2.5a12.617 12.617 0 00-2.768 3l6.048.03a7.428 7.428 0 016.212-.722 7.492 7.492 0 012.761 1.637 7.602 7.602 0 011.838 2.65l2.51-4.35a11.127 11.127 0 00-1.835-1.938C18.074 1.62 15.597.167 11.947.002c-.013-.002-1.685-.075-3.798.66zM8.122 18.6a7.527 7.527 0 01-2.334-2.149 7.63 7.63 0 01-1.253-2.93 7.671 7.671 0 01.05-3.192A7.623 7.623 0 015.93 7.44L.894 7.414a11.42 11.42 0 00-.765 2.76c-.385 2.623.092 5.262 1.412 7.84a11.665 11.665 0 002.601 3.106c1.03.886 2.201 1.59 3.462 2.083 1.17.452 2.4.72 3.65.797l-3.006-5.334-.126-.066z" fill="#D14671"/><path d="M11.066 23.88a12.054 12.054 0 01-3.424-.775 11.965 11.965 0 01-3.432-2.066c-1.626-1.39-2.431-2.81-2.577-3.08-1.304-2.558-1.779-5.174-1.4-7.775l.015-.09c-.204 2.4.302 4.8 1.507 7.153.15.279.971 1.727 2.63 3.144a11.91 11.91 0 006.299 2.814l.382.675z" fill="url(#paint0_radial)"/><path d="M13.335 23.52l-.409-.71-1.786-3.105c.166.017.345.028.55.034l1.841 3.198c3.778-.185 6.703-3.29 11.29-.84l-.566.255c-4.547-2.072-6.787.897-10.92 1.168z" fill="url(#paint1_radial)"/><path d="M19.145 8.28a7.606 7.606 0 00-1.84-2.648 7.497 7.497 0 00-2.761-1.634 7.433 7.433 0 00-6.21.72L2.555 4.69c-.202.26-.397.529-.585.808l6.048.032a7.428 7.428 0 016.212-.722 7.492 7.492 0 012.762 1.636 7.602 7.602 0 011.838 2.65l2.515-4.35a3.611 3.611 0 00-.093-.12L19.145 8.28z" fill="url(#paint2_radial)"/></g><defs><radialGradient id="paint0_radial" cx="0" cy="0" r="1" gradientUnits="userSpaceOnUse" gradientTransform="matrix(1115.92 0 0 1403.79 5872.07 -1835.38)"><stop offset=".18" stop-color="#fff"/><stop offset="1" stop-color="#fff" stop-opacity="0"/></radialGradient><radialGradient id="paint1_radial" cx="0" cy="0" r="1" gradientUnits="userSpaceOnUse" gradientTransform="matrix(724.512 0 0 202.032 7677.07 -24.547)"><stop offset=".18" stop-color="#fff"/><stop offset="1" stop-color="#fff" stop-opacity="0"/></radialGradient><radialGradient id="paint2_radial" cx="0" cy="0" r="1" gradientUnits="userSpaceOnUse" gradientTransform="matrix(1123.36 0 0 317.182 13183 -285.768)"><stop offset=".18" stop-color="#fff"/><stop offset="1" stop-color="#fff" stop-opacity="0"/></radialGradient><clipPath id="clip0"><rect width="95" height="24" fill="#fff"/></clipPath></defs></svg>