<svg id="b3476446-c29b-489b-91f9-6dd64a8ef5f6" data-name="Layer 1" xmlns="http://www.w3.org/2000/svg" width="713.367" height="781.276" viewBox="0 0 713.367 781.276"><path d="M872.748 765.287l-229.214.76c-60.81-18.273-110.633-81.737-110.948-176.888a269.465 269.465 0 013.238-42.812l184.622-41.478 142.424-31.995a283.261 283.261 0 0129.257 30.42l-136.19 71.912-64.248 33.926 72.194-24.907 149.844-51.694a363.37 363.37 0 0124.916 44.672l-45.211 46.725 51.144-33.482q.328.77.653 1.541c32.414 76.95-7.803 173.086-72.48 173.3zM835.08 451.338c-34.663 9.955-77.28 22.533-121.095 35.607-63.352 18.908-129.21 38.861-177.155 53.447l.03-.17a65.899 65.899 0 0112.16-28.225c35.518-46.18 80.743-78.439 131.077-90.42h.005a188.907 188.907 0 0143.201-5.153c40.046-.133 77.978 12.427 111.777 34.914z" transform="translate(-243.316 -59.362)" fill="#f2f2f2"/><ellipse cx="360.217" cy="710.536" rx="228" ry="17" fill="#3f3d56"/><path d="M569.533 488.16c0 122.84-73.026 165.73-163.108 165.73S243.316 611 243.316 488.16s163.109-279.11 163.109-279.11 163.108 156.27 163.108 279.11z" transform="translate(-243.316 -59.362)" fill="#f2f2f2"/><polygon points="157.167 575.737 158.837 472.932 228.358 345.747 159.099 456.805 159.85 410.579 207.763 318.562 160.048 398.346 160.048 398.347 161.399 315.208 212.706 241.951 161.611 302.134 162.455 149.687 157.152 351.5 157.588 343.174 105.424 263.329 156.751 359.156 151.891 452.008 151.746 449.543 91.61 365.517 151.564 458.25 150.956 469.862 150.847 470.036 150.897 470.99 138.566 706.562 155.041 706.562 157.018 584.884 216.825 492.38 157.167 575.737" fill="#3f3d56"/><path d="M764.22 88.492v648.2a29.14 29.14 0 01-29.13 29.11H471.94a29.08 29.08 0 01-29.13-29.11v-648.2a29.127 29.127 0 0129.13-29.13h39.38v5.05a23.987 23.987 0 0023.98 23.99h133.84a23.79 23.79 0 0014.22-4.68 22.285 22.285 0 002.36-1.98 23.917 23.917 0 007.4-17.33v-5.05h41.97a29.121 29.121 0 0129.13 29.13z" transform="translate(-243.316 -59.362)" fill="#3f3d56"/><path d="M591.543 313.163c.009 18.09-10.742 24.41-24.007 24.416q-.462 0-.92-.01-.922-.02-1.825-.083c-11.972-.842-21.277-7.477-21.285-24.3-.008-17.41 22.232-39.391 23.9-41.017l.003-.001.095-.093s24.03 23 24.039 41.088z" transform="translate(-243.316 -59.362)" fill="#d14671"/><path d="M566.66 334.812l8.78-12.278-8.8 13.626-.024 1.41q-.922-.02-1.825-.084l.938-18.097-.007-.14.016-.027.089-1.71-8.836-13.65 8.862 12.37.022.362.708-13.673-7.564-14.107 7.656 11.704.73-28.348.004-.095v.093l-.113 22.356 7.518-8.867-7.55 10.792-.193 12.243 7.022-11.753-7.049 13.553-.107 6.807 10.19-16.359-10.229 18.734z" transform="translate(-243.316 -59.362)" fill="#3f3d56"/><polygon points="474.198 484.701 246.198 484.701 246.198 506.979 246.198 540.906 246.198 559.994 265.287 540.906 474.198 540.906 474.198 484.701" fill="#d14671"/><rect x="297.065" y="498.348" width="128.267" height="10.4" fill="#fff"/><rect x="297.065" y="513.948" width="128.267" height="10.4" fill="#fff"/><polygon points="246.198 382.201 474.198 382.201 474.198 404.479 474.198 438.406 474.198 457.494 455.11 438.406 246.198 438.406 246.198 382.201" fill="#d14671"/><rect x="285.065" y="396.848" width="128.267" height="10.4" fill="#fff"/><rect x="285.065" y="412.448" width="128.267" height="10.4" fill="#fff"/><path d="M480.515 205.808V389.4h246V205.808zm31.699 2.311a3.962 3.962 0 11-3.963 3.963 3.962 3.962 0 013.963-3.963zm-23.775 7.925a3.962 3.962 0 113.963-3.962 3.962 3.962 0 01-3.963 3.962zm7.925-3.962a3.962 3.962 0 113.963 3.962 3.962 3.962 0 01-3.963-3.962zm136.373 125.807h-132.41v-98.4h132.41z" transform="translate(-243.316 -59.362)" fill="#f2f2f2"/><rect x="469.99" y="149.748" width="7.925" height=".991" fill="#fff"/><rect x="469.99" y="152.72" width="7.925" height=".991" fill="#fff"/><rect x="469.99" y="155.691" width="7.925" height=".991" fill="#fff"/><rect x="410.224" y="178.475" width="59.766" height="2.972" fill="#fff"/><rect x="410.224" y="188.712" width="59.766" height="2.972" fill="#fff"/><rect x="410.224" y="198.948" width="59.766" height="2.972" fill="#fff"/><rect x="410.224" y="209.184" width="59.766" height="2.972" fill="#fff"/><rect x="410.224" y="219.42" width="59.766" height="2.972" fill="#fff"/><rect x="410.224" y="229.656" width="59.766" height="2.972" fill="#fff"/><rect x="410.224" y="239.893" width="59.766" height="2.972" fill="#fff"/><rect x="410.224" y="250.129" width="59.766" height="2.972" fill="#fff"/><rect x="410.224" y="260.365" width="59.766" height="2.972" fill="#fff"/><rect x="410.224" y="270.601" width="59.766" height="2.972" fill="#fff"/><circle cx="264.935" cy="285.461" r="3.962" fill="#fff"/><circle cx="278.473" cy="285.461" r="3.962" fill="#fff"/><circle cx="292.012" cy="285.461" r="3.962" fill="#fff"/><rect x="410.224" y="304.942" width="59.766" height="16.84" fill="#d14671"/><path d="M388.223 594.882l-2.19 76.68-23.37 89.826s5.112 15.336 1.46 18.988-20.448 10.224-20.448 10.224l13.876-191.336z" transform="translate(-243.316 -59.362)" fill="#2f2e41"/><path d="M337.486 780.001s-8.334 18.335 3.334 20.002 65.56 6.111 62.226-3.334-43.892-18.334-43.892-18.334z" transform="translate(-243.316 -59.362)" fill="#2f2e41"/><path d="M306.43 526.965s8.764 47.47 14.606 55.502-2.92 66.457-2.92 66.457-13.146 83.983-7.304 97.128 4.382 8.763 3.652 16.066-2.191 13.146 0 19.718 2.19 5.842 2.921 9.494 0 23.37 0 23.37 31.402 10.953 36.514-5.113c0 0-7.302-10.224-5.112-18.257a97.258 97.258 0 003.652-24.83v-15.336l33.593-125.61 8.033-45.277s-2.19-46.009-10.224-50.39-77.41-2.922-77.41-2.922z" transform="translate(-243.316 -59.362)" fill="#2f2e41"/><path d="M319.576 811.048s-10.954 24.1 4.382 26.29 86.174 8.033 81.792-4.382-57.693-24.1-57.693-24.1z" transform="translate(-243.316 -59.362)" fill="#2f2e41"/><circle cx="90.143" cy="228.099" r="29.212" fill="#ffb9b9"/><path d="M312.932 300.37l.544 37.305 35.813.121s-9.089-29.203-5.018-35.31-31.34-2.116-31.34-2.116z" transform="translate(-243.316 -59.362)" fill="#ffb9b9"/><path d="M366.314 358.269s-25.56-32.863-45.278-18.988-27.02 46.739-27.02 46.739l4.381 92.016s10.955 13.145 4.382 21.909-10.224 6.572-5.112 13.145 10.955 11.685 8.764 13.875 2.19 3.652 2.19 3.652l77.411 2.19s-2.19-2.92 4.382-11.684-1.46-20.448 0-24.83 2.921.73 3.651-9.493-27.75-128.531-27.75-128.531z" transform="translate(-243.316 -59.362)" fill="#3f3d56"/><path d="M359.011 546.683s1.461 18.257 12.415 21.179c4.108 1.095 7.19-.993 9.436-4.031a17.935 17.935 0 00.573-20.121l-2.706-4.33z" transform="translate(-243.316 -59.362)" fill="#ffb9b9"/><path d="M291.46 321.39s-.73 14.605 0 16.796 1.46 4.382 0 6.572-.73 9.494.73 10.224-2.921 7.303-1.46 11.685 2.92 5.842 3.65 7.303 1.908 4.077 1.908 4.077 21.462-45.704 38.99-34.75 31.401 14.607 31.401 14.607-9.493-51.12-75.22-36.515z" transform="translate(-243.316 -59.362)" fill="#3f3d56"/><path d="M323.227 355.348s-23.369 2.19-21.908 32.863-2.191 78.87-2.191 78.87 40.166 61.345 46.738 65.727 7.303 3.651 6.573 7.303-1.46 6.572 1.46 9.493a25.217 25.217 0 005.843 4.382s23.369-8.033 21.178-15.336-12.415-18.987-12.415-18.987-17.527-28.482-18.257-32.863-.73-3.652-2.921-5.843-8.033-10.954-8.033-15.336v-13.875l6.122-74.151a21.496 21.496 0 00-5.7-16.648c-3.476-3.636-8.73-6.53-16.489-5.6z" transform="translate(-243.316 -59.362)" fill="#3f3d56"/><path d="M352.298 264.934a11.903 11.903 0 0011.03-2.526c2.854-2.712 3.814-7.412 1.782-10.785-1.754-2.914-5.165-4.338-8.411-5.351a74.47 74.47 0 00-22.117-3.374c-3.576 0-7.31.304-10.37 2.154-1.514.916-2.796 2.173-4.293 3.116-2.752 1.734-6.057 2.31-9.079 3.516a23.29 23.29 0 00-13.273 14.056 28.065 28.065 0 00-1.29 6.602 36.175 36.175 0 003.156 17.931c4.075 8.885 11.83 16.356 12.926 26.07 4.175-3.505 5.399-9.384 8.633-13.772a17.856 17.856 0 019.747-6.616 5.676 5.676 0 002.952-1.32 4.89 4.89 0 00.924-2.66l2.004-14.431c.408-2.937.96-6.147 3.213-8.074a11.423 11.423 0 014.786-2.076 77.185 77.185 0 0112.492-2.037" transform="translate(-243.316 -59.362)" fill="#2f2e41"/><path d="M302.68 477.514l40.995 53.2s-37.749-31.555-40.995-53.2z" transform="translate(-243.316 -59.362)" opacity=".1"/><polygon points="98.713 359.249 98.325 409.493 122.135 445.208 102.654 405.164 98.713 359.249" opacity=".1"/><path d="M785.104 751.623l-4.744-3.525s-3.141 17.544.363 20.172 16.647 7.01 16.647 12.266 29.79 12.266 30.666 4.381-2.628-12.266-2.628-12.266-14.019-14.019-15.771-16.647-6.133-7.886-6.133-7.886z" transform="translate(-243.316 -59.362)" fill="#2f2e41"/><path d="M855.197 533.46s-.131.77-.36 2.18c-.21 1.254-.499 3.024-.849 5.205-3.68 22.456-14.413 88.562-13.686 90.744.876 2.629 7.01 12.266 0 14.895a5.435 5.435 0 00-2.181 2.374 50.924 50.924 0 00-3.706 8.744c-4.18 12.126-8.648 31.533-11.233 44.974-1.13 5.905-1.901 10.654-2.129 13.142a7.146 7.146 0 00-.026 1.735c.876 3.504-5.257 15.77-7.886 19.275s-7.009 7.01-6.133 10.514-21.904 13.143-24.532 7.01-2.629-9.638-3.505-11.39-1.752-14.02 2.629-15.771 1.752-32.418 6.133-38.551c1.463-2.042 3.697-8.955 6.036-17.27a568.5 568.5 0 002.76-10.207c3.698-14.255 6.975-28.598 6.975-28.598l-.877-102.51 48.19-6.134 1.235 2.725 2.462 5.406zm2.629 168.222s7.009-7.01 10.513 0 7.01 34.17 13.143 40.303 14.018 36.799 5.257 38.551-18.4-2.628-19.276-7.885-19.275-32.418-19.275-35.047 12.266-12.266 12.266-12.266z" transform="translate(-243.316 -59.362)" fill="#2f2e41"/><path d="M750.058 485.27s11.39 102.511 14.018 112.149 16.647 46.436 21.028 52.57 32.418 56.074 35.923 58.702 10.514 9.638 10.514 9.638 13.142 13.142 14.894 15.77 16.647-5.256 17.524-10.513-.876-14.019-1.753-17.523 1.753-8.762-.876-11.39-15.77-15.771-15.77-21.904-22.78-42.056-31.542-49.942-7.01-21.027-7.01-21.027v-53.446l48.19-14.895s-2.63-42.056-8.763-42.056-86.74-14.018-96.377-6.133z" transform="translate(-243.316 -59.362)" fill="#2f2e41"/><circle cx="577.711" cy="250.676" r="28.913" fill="#9f616a"/><path d="M811.39 332.818s-3.506 13.143-7.886 16.648 11.39 18.399 11.39 18.399l29.79 1.752 5.256-16.647s-9.638-19.275-7.01-31.542-31.54 11.39-31.54 11.39z" transform="translate(-243.316 -59.362)" fill="#9f616a"/><path d="M799.123 347.713s7.885.876 9.638 3.505 14.018 10.514 23.656 8.761 15.77-4.38 17.523-3.504 5.257 19.275 5.257 19.275l-9.638 28.037 1.753 77.103 2.628 21.027s5.257-7.009-15.77-2.628-48.19-3.505-56.951-4.38-23.656-3.506-24.533-8.763 2.629-24.532 2.629-24.532l14.018-58.703 8.762-31.541z" transform="translate(-243.316 -59.362)" fill="#3f3d56"/><path d="M807.41 343.759s-7.411-3.931-10.04-.427-35.922 8.762-35.922 11.39-7.01 73.598-5.257 79.731-3.505 13.142-3.505 13.142l-6.133 26.285s-16.647 49.941-9.638 51.694 13.143 0 15.771 0 1.753-33.294 8.762-42.056 16.647-30.666 18.4-35.046 23.656-64.836 22.78-71.846 4.782-32.867 4.782-32.867zm36.397 3.954s7.01 0 7.885 1.753 9.638 13.142 13.143 15.77 15.77 14.019 15.77 16.647-25.408 21.904-25.408 21.904-10.514 51.694-5.257 69.217 13.142 59.579 9.638 62.207-11.39 3.505-11.39 0-5.257-41.18-9.638-49.065-17.523-57.826-12.266-71.845 17.523-66.588 17.523-66.588z" transform="translate(-243.316 -59.362)" fill="#d0cde1"/><path d="M728.154 434.453s-.876 27.161 8.761 41.18a166.505 166.505 0 0115.771 29.789s15.771-4.38 18.4-9.638 19.275-.876 19.275-2.628-20.151-10.514-21.904-12.266-7.885-1.753-11.39-5.257-4.38-11.39-4.38-11.39l-3.505-22.78z" transform="translate(-243.316 -59.362)" fill="#9f616a"/><path d="M801.113 292.211a16.662 16.662 0 01-6.484-1.485c-4.405-2.375-5.573-9.14-2.22-12.855a16.613 16.613 0 013.08-2.477l6.66-4.533c2.946-2.005 5.961-4.042 9.397-4.988a29.332 29.332 0 019.605-.567 64.906 64.906 0 0118.4 3.346c5.873 2.156 11.352 5.763 14.909 10.91 5.639 8.158 5.716 19.162 2.61 28.582s-9.005 17.621-14.818 25.657l-3.016-14.717c-.269-1.31-.616-2.747-1.706-3.523-2.71-1.928-6.024 2.03-9.35 2.005-2.137-.017-3.93-1.774-4.74-3.752a21.38 21.38 0 01-1.051-6.296c-.397-4.508-1.973-10.782-6.242-13.268-3.98-2.317-10.562-1.633-15.034-2.039z" transform="translate(-243.316 -59.362)" fill="#2f2e41"/><path d="M802.735 534.166s2.959 85.595 4.711 88.223 0-88.492 0-88.492z" transform="translate(-243.316 -59.362)" opacity=".1"/><path d="M768.457 354.722h-7.01s-29.789 40.304-26.284 42.932 0 9.638 0 9.638l-7.01 13.142s-8.76 7.886-6.132 9.638 6.133 8.762 6.133 8.762 17.523-2.629 22.78 7.885l11.364-14.346z" transform="translate(-243.316 -59.362)" fill="#d0cde1"/><path d="M848.188 430.072s-19.276.876-41.18-13.142l-21.904-9.638s-19.275-29.79-21.028-24.532 2.629 15.77 2.629 15.77S738 404 739.583 412.381c.327 1.727 14.856-2.46 14.856-2.46s-2.629 16.647 12.266 17.523 19.275-2.629 19.275-2.629 63.084 52.57 73.598 35.923-11.39-30.666-11.39-30.666z" transform="translate(-243.316 -59.362)" fill="#9f616a"/><path d="M870.968 378.379l9.638 3.504v26.285l3.504 5.257s-.876 10.514-3.504 13.143-7.886 1.752-6.133 7.885a33.209 33.209 0 01.876 12.266s-15.771 20.152-16.647 17.524-13.143-35.047-14.895-35.047 17.523-50.817 17.523-50.817z" transform="translate(-243.316 -59.362)" fill="#d0cde1"/><path d="M755.753 511.117s-9.06-8.762-4.53-9.2 20.3-9.2 22.93-4.819-18.4 14.019-18.4 14.019z" transform="translate(-243.316 -59.362)" fill="#2f2e41"/><path d="M454.006 744.01c0 22.468-13.356 30.313-29.834 30.313q-.572 0-1.143-.013a48.69 48.69 0 01-2.267-.103c-14.87-1.053-26.423-9.301-26.423-30.198 0-21.625 27.634-48.912 29.71-50.931l.003-.004.12-.116s29.834 28.583 29.834 51.051z" transform="translate(-243.316 -59.362)" fill="#d14671"/><path d="M423.085 770.886l10.912-15.247-10.939 16.921-.029 1.75a48.69 48.69 0 01-2.267-.103l1.176-22.48-.009-.174.02-.033.111-2.123-10.966-16.963 11 15.37.026.452.889-16.985-9.388-17.528 9.503 14.547.925-35.213.003-.12v.117l-.154 27.767 9.346-11.008-9.384 13.4-.247 15.207 8.726-14.594-8.763 16.832-.138 8.454 12.67-20.313-12.717 23.263z" transform="translate(-243.316 -59.362)" fill="#3f3d56"/></svg>