<svg xmlns="http://www.w3.org/2000/svg" width="605" height="50"><defs><style type="text/css">@namespace &quot;http://www.w3.org/2000/svg&quot;;text.terminal{font-family:-apple-system,BlinkMacSystemFont,&quot;Segoe UI&quot;,Roboto,Ubuntu,Cantarell,Helvetica,sans-serif;font-size:12px;fill:#fff;font-weight:700}polygon,rect{fill:none;stroke:none}rect.terminal{fill:none;stroke:#be2f5b}</style></defs><polygon points="9 17 1 13 1 21"/><polygon points="17 17 9 13 9 21"/><rect x="31" y="3" width="44" height="32" rx="10"/><rect x="29" y="1" width="44" height="32" class="terminal" rx="10"/><text class="terminal" x="39" y="21">SET</text><rect x="95" y="3" width="68" height="32" rx="10"/><rect x="93" y="1" width="68" height="32" class="terminal" rx="10"/><text class="terminal" x="103" y="21">PARAM</text><rect x="183" y="3" width="176" height="32" rx="10"/><rect x="181" y="1" width="176" height="32" class="terminal" rx="10"/><text class="terminal" x="191" y="21">maxUncommittedRows</text><rect x="379" y="3" width="30" height="32" rx="10"/><rect x="377" y="1" width="30" height="32" class="terminal" rx="10"/><text class="terminal" x="387" y="21">=</text><a xmlns:xlink="http://www.w3.org/1999/xlink" xlink:href="#n" xlink:title="n"><rect x="429" y="3" width="28" height="32"/><rect x="427" y="1" width="28" height="32" class="nonterminal" fill="rgba(255,255,255,.1)" stroke="none"/><text class="nonterminal" x="437" y="21" font-family="-apple-system,BlinkMacSystemFont,&quot;Segoe UI&quot;,Roboto,Ubuntu,Cantarell,Helvetica,sans-serif" font-size="12" fill="#e289a4" font-weight="400">n</text></a><path xmlns:svg="http://www.w3.org/2000/svg" d="M17 17h2m0 0h10m44 0h10m0 0h10m68 0h10m0 0h10m176 0h10m0 0h10m30 0h10m0 0h10m28 0h10m3 0h-3" fill="none" stroke="#636273"/><polygon points="475 17 483 13 483 21"/><polygon points="475 17 467 13 467 21"/></svg>