<svg xmlns="http://www.w3.org/2000/svg" width="361" height="81"><defs><style type="text/css">@namespace &quot;http://www.w3.org/2000/svg&quot;;text.terminal{font-family:-apple-system,BlinkMacSystemFont,&quot;Segoe UI&quot;,Roboto,Ubuntu,Cantarell,Helvetica,sans-serif;font-size:12px;fill:#fff;font-weight:700}polygon,rect{fill:none;stroke:none}rect.terminal{fill:none;stroke:#be2f5b}</style></defs><polygon points="9 61 1 57 1 65"/><polygon points="17 61 9 57 9 65"/><rect x="31" y="47" width="58" height="32" rx="10"/><rect x="29" y="45" width="58" height="32" class="terminal" rx="10"/><text class="terminal" x="39" y="65">DROP</text><rect x="109" y="47" width="78" height="32" rx="10"/><rect x="107" y="45" width="78" height="32" class="terminal" rx="10"/><text class="terminal" x="117" y="65">COLUMN</text><a xmlns:xlink="http://www.w3.org/1999/xlink" xlink:href="#columnName" xlink:title="columnName"><rect x="227" y="47" width="102" height="32"/><rect x="225" y="45" width="102" height="32" class="nonterminal" fill="rgba(255,255,255,.1)" stroke="none"/><text class="nonterminal" x="235" y="65" font-family="-apple-system,BlinkMacSystemFont,&quot;Segoe UI&quot;,Roboto,Ubuntu,Cantarell,Helvetica,sans-serif" font-size="12" fill="#e289a4" font-weight="400">columnName</text></a><rect x="227" y="3" width="24" height="32" rx="10"/><rect x="225" y="1" width="24" height="32" class="terminal" rx="10"/><text class="terminal" x="235" y="21">,</text><svg:path xmlns:svg="http://www.w3.org/2000/svg" d="m17 61 h2 m0 0 h10 m58 0 h10 m0 0 h10 m78 0 h10 m20 0 h10 m102 0 h10 m-142 0 l20 0 m-1 0 q-9 0 -9 -10 l0 -24 q0 -10 10 -10 m122 44 l20 0 m-20 0 q10 0 10 -10 l0 -24 q0 -10 -10 -10 m-122 0 h10 m24 0 h10 m0 0 h78 m23 44 h-3" fill="none" stroke="#636273"/><polygon points="367 61 375 57 375 65"/><polygon points="367 61 359 57 359 65"/></svg>