<svg xmlns="http://www.w3.org/2000/svg" width="600" height="110">
    <defs>
        <style type="text/css">
            @namespace "http://www.w3.org/2000/svg";
                .line                 {fill: none; stroke: #636273;}
                .bold-line            {stroke: #636273; shape-rendering: crispEdges; stroke-width: 2; }
                .thin-line            {stroke: #636273; shape-rendering: crispEdges}
                .filled               {fill: #636273; stroke: none;}
                text.terminal         {font-family: -apple-system, BlinkMacSystemFont, "Segoe UI", Roboto, Ubuntu, Cantarell, Helvetica, sans-serif;
                font-size: 12px;
                fill: #ffffff;
                font-weight: bold;
                }
                text.nonterminal      {font-family: -apple-system, BlinkMacSystemFont, "Segoe UI", Roboto, Ubuntu, Cantarell, Helvetica, sans-serif;
                font-size: 12px;
                fill: #e289a4;
                font-weight: normal;
                }
                text.regexp           {font-family: -apple-system, BlinkMacSystemFont, "Segoe UI", Roboto, Ubuntu, Cantarell, Helvetica, sans-serif;
                font-size: 12px;
                fill: #00141F;
                font-weight: normal;
                }
                rect, circle, polygon {fill: none; stroke: none;}
                rect.terminal         {fill: none; stroke: #be2f5b;}
                rect.nonterminal      {fill: rgba(255,255,255,0.1); stroke: none;}
                rect.text             {fill: none; stroke: none;}
                polygon.regexp        {fill: #C7ECFF; stroke: #038cbc;}
        </style>
       </defs>
         <polygon points="9 17 1 13 1 21"/>
         <polygon points="17 17 9 13 9 21"/>
         <rect x="31" y="3" width="76" height="32" rx="10"/>
         <rect x="29" y="1" width="76" height="32" class="terminal" rx="10"/>
         <text class="terminal" x="39" y="21">RESUME</text>
         <rect x="127" y="3" width="50" height="32" rx="10"/>
         <rect x="125" y="1" width="50" height="32" class="terminal" rx="10"/>
         <text class="terminal" x="135" y="21">WAL</text>
         <rect x="217" y="35" width="60" height="32" rx="10"/>
         <rect x="215" y="33" width="60" height="32" class="terminal" rx="10"/>
         <text class="terminal" x="225" y="53">FROM</text>
         <rect x="317" y="35" width="120" height="32" rx="10"/>
         <rect x="315" y="33" width="120" height="32" class="terminal" rx="10"/>
         <text class="terminal" x="325" y="53">TRANSACTION</text>
         <rect x="317" y="79" width="46" height="32" rx="10"/>
         <rect x="315" y="77" width="46" height="32" class="terminal" rx="10"/>
         <text class="terminal" x="325" y="97">TXN</text><a xmlns:xlink="http://www.w3.org/1999/xlink" xlink:href="#sequencerTxn" xlink:title="sequencerTxn">
            <rect x="477" y="35" width="108" height="32"/>
            <rect x="475" y="33" width="108" height="32" class="nonterminal"/>
            <text class="nonterminal" x="485" y="53">sequencerTxn</text></a><path xmlns:svg="http://www.w3.org/2000/svg" class="line" d="m17 17 h2 m0 0 h10 m76 0 h10 m0 0 h10 m50 0 h10 m20 0 h10 m0 0 h378 m-408 0 h20 m388 0 h20 m-428 0 q10 0 10 10 m408 0 q0 -10 10 -10 m-418 10 v12 m408 0 v-12 m-408 12 q0 10 10 10 m388 0 q10 0 10 -10 m-398 10 h10 m60 0 h10 m20 0 h10 m120 0 h10 m-160 0 h20 m140 0 h20 m-180 0 q10 0 10 10 m160 0 q0 -10 10 -10 m-170 10 v24 m160 0 v-24 m-160 24 q0 10 10 10 m140 0 q10 0 10 -10 m-150 10 h10 m46 0 h10 m0 0 h74 m20 -44 h10 m108 0 h10 m23 -32 h-3"/>
         <polygon points="623 17 631 13 631 21"/>
         <polygon points="623 17 615 13 615 21"/></svg>