<svg xmlns="http://www.w3.org/2000/svg" width="861" height="81"><defs><style type="text/css">@namespace &quot;http://www.w3.org/2000/svg&quot;;text.nonterminal,text.terminal{font-family:-apple-system,BlinkMacSystemFont,&quot;Segoe UI&quot;,Roboto,Ubuntu,Cantarell,Helvetica,sans-serif;font-size:12px}text.terminal{fill:#fff;font-weight:700}text.nonterminal{fill:#e289a4;font-weight:400}polygon,rect{fill:none;stroke:none}rect.terminal{fill:none;stroke:#be2f5b}rect.nonterminal{fill:rgba(255,255,255,.1);stroke:none}</style></defs><polygon points="9 17 1 13 1 21"/><polygon points="17 17 9 13 9 21"/><rect x="31" y="3" width="76" height="32" rx="10"/><rect x="29" y="1" width="76" height="32" class="terminal" rx="10"/><text class="terminal" x="39" y="21">RENAME</text><rect x="127" y="3" width="78" height="32" rx="10"/><rect x="125" y="1" width="78" height="32" class="terminal" rx="10"/><text class="terminal" x="135" y="21">COLUMN</text><a xmlns:xlink="http://www.w3.org/1999/xlink" xlink:href="#columnName" xlink:title="columnName"><rect x="225" y="3" width="102" height="32"/><rect x="223" y="1" width="102" height="32" class="nonterminal"/><text class="nonterminal" x="233" y="21">columnName</text></a><rect x="347" y="3" width="38" height="32" rx="10"/><rect x="345" y="1" width="38" height="32" class="terminal" rx="10"/><text class="terminal" x="355" y="21">TO</text><a xmlns:xlink="http://www.w3.org/1999/xlink" xlink:href="#newColumnName" xlink:title="newColumnName"><rect x="405" y="3" width="130" height="32"/><rect x="403" y="1" width="130" height="32" class="nonterminal"/><text class="nonterminal" x="413" y="21">newColumnName</text></a><path xmlns:svg="http://www.w3.org/2000/svg" d="M17 17h2m0 0h10m76 0h10m0 0h10m78 0h10m0 0h10m102 0h10m0 0h10m38 0h10m0 0h10m130 0h10m3 0h-3" fill="none" stroke="#636273"/><polygon points="553 17 561 13 561 21"/><polygon points="553 17 545 13 545 21"/></svg>