<svg xmlns="http://www.w3.org/2000/svg" width="447" height="125"><defs><style type="text/css">@namespace &quot;http://www.w3.org/2000/svg&quot;;text.terminal{font-family:-apple-system,BlinkMacSystemFont,&quot;Segoe UI&quot;,Roboto,Ubuntu,Cantarell,Helvetica,sans-serif;font-size:12px;fill:#fff;font-weight:700}polygon,rect{fill:none;stroke:none}rect.terminal{fill:none;stroke:#be2f5b}</style></defs><polygon points="9 61 1 57 1 65"/><polygon points="17 61 9 57 9 65"/><rect x="31" y="47" width="74" height="32" rx="10"/><rect x="29" y="45" width="74" height="32" class="terminal" rx="10"/><text class="terminal" x="39" y="65">BACKUP</text><rect x="145" y="47" width="62" height="32" rx="10"/><rect x="143" y="45" width="62" height="32" class="terminal" rx="10"/><text class="terminal" x="153" y="65">TABLE</text><a xmlns:xlink="http://www.w3.org/1999/xlink" xlink:href="#tableName" xlink:title="tableName"><rect x="247" y="47" width="88" height="32"/><rect x="245" y="45" width="88" height="32" class="nonterminal" fill="rgba(255,255,255,.1)" stroke="none"/><text class="nonterminal" x="255" y="65" font-family="-apple-system,BlinkMacSystemFont,&quot;Segoe UI&quot;,Roboto,Ubuntu,Cantarell,Helvetica,sans-serif" font-size="12" fill="#e289a4" font-weight="400">tableName</text></a><rect x="247" y="3" width="24" height="32" rx="10"/><rect x="245" y="1" width="24" height="32" class="terminal" rx="10"/><text class="terminal" x="255" y="21">,</text><rect x="145" y="91" width="92" height="32" rx="10"/><rect x="143" y="89" width="92" height="32" class="terminal" rx="10"/><text class="terminal" x="153" y="109">DATABASE</text><rect x="395" y="47" width="24" height="32" rx="10"/><rect x="393" y="45" width="24" height="32" class="terminal" rx="10"/><text class="terminal" x="403" y="65">;</text><path xmlns:svg="http://www.w3.org/2000/svg" d="M17 61h2m0 0h10m74 0h10m20 0h10m62 0h10m20 0h10m88 0h10m-128 0h20m-1 0q-9 0-9-10V27q0-10 10-10m108 44h20m-20 0q10 0 10-10V27q0-10-10-10m-108 0h10m24 0h10m0 0h64M113 61h20m230 0h20m-270 0q10 0 10 10m250 0q0-10 10-10M123 71v24m250 0V71M123 95q0 10 10 10m230 0q10 0 10-10m-240 10h10m92 0h10m0 0h118m20-44h10m24 0h10m3 0h-3" fill="none" stroke="#636273"/><polygon points="437 61 445 57 445 65"/><polygon points="437 61 429 57 429 65"/></svg>