<svg xmlns="http://www.w3.org/2000/svg" width="449" height="37"><defs><style type="text/css">@namespace &quot;http://www.w3.org/2000/svg&quot;;text.nonterminal,text.terminal{font-family:-apple-system,BlinkMacSystemFont,&quot;Segoe UI&quot;,Roboto,Ubuntu,Cantarell,Helvetica,sans-serif;font-size:12px}text.terminal{fill:#fff;font-weight:700}text.nonterminal{fill:#e289a4;font-weight:400}polygon,rect{fill:none;stroke:none}rect.terminal{fill:none;stroke:#be2f5b}rect.nonterminal{fill:rgba(255,255,255,.1);stroke:none}</style></defs><polygon points="9 17 1 13 1 21"/><polygon points="17 17 9 13 9 21"/><rect x="31" y="3" width="48" height="32" rx="10"/><rect x="29" y="1" width="48" height="32" class="terminal" rx="10"/><text class="terminal" x="39" y="21">cast</text><rect x="99" y="3" width="26" height="32" rx="10"/><rect x="97" y="1" width="26" height="32" class="terminal" rx="10"/><text class="terminal" x="107" y="21">(</text><a xmlns:xlink="http://www.w3.org/1999/xlink" xlink:href="#columnRef" xlink:title="columnRef"><rect x="145" y="3" width="86" height="32"/><rect x="143" y="1" width="86" height="32" class="nonterminal"/><text class="nonterminal" x="153" y="21">columnRef</text></a><rect x="251" y="3" width="34" height="32" rx="10"/><rect x="249" y="1" width="34" height="32" class="terminal" rx="10"/><text class="terminal" x="259" y="21">as</text><a xmlns:xlink="http://www.w3.org/1999/xlink" xlink:href="#typeDef" xlink:title="typeDef"><rect x="305" y="3" width="70" height="32"/><rect x="303" y="1" width="70" height="32" class="nonterminal"/><text class="nonterminal" x="313" y="21">typeDef</text></a><rect x="395" y="3" width="26" height="32" rx="10"/><rect x="393" y="1" width="26" height="32" class="terminal" rx="10"/><text class="terminal" x="403" y="21">)</text><path xmlns:svg="http://www.w3.org/2000/svg" d="M17 17h2m0 0h10m48 0h10m0 0h10m26 0h10m0 0h10m86 0h10m0 0h10m34 0h10m0 0h10m70 0h10m0 0h10m26 0h10m3 0h-3" fill="none" stroke="#636273"/><polygon points="439 17 447 13 447 21"/><polygon points="439 17 431 13 431 21"/></svg>