<svg xmlns="http://www.w3.org/2000/svg" width="1089" height="800"><defs><style type="text/css">@namespace &quot;http://www.w3.org/2000/svg&quot;;text.nonterminal,text.terminal{font-family:-apple-system,BlinkMacSystemFont,&quot;Segoe UI&quot;,Roboto,Ubuntu,Cantarell,Helvetica,sans-serif;font-size:12px}text.terminal{fill:#fff;font-weight:700}text.nonterminal{fill:#e289a4;font-weight:400}polygon,rect{fill:none;stroke:none}rect.terminal{fill:none;stroke:#be2f5b}rect.nonterminal{fill:rgba(255,255,255,.1);stroke:none}</style></defs><polygon points="9 17 1 13 1 21"/><polygon points="17 17 9 13 9 21"/><rect x="31" y="3" width="58" height="32" rx="10"/><rect x="29" y="1" width="58" height="32" class="terminal" rx="10"/><text class="terminal" x="39" y="21">COPY</text><a xmlns:xlink="http://www.w3.org/1999/xlink" xlink:href="#id" xlink:title="id"><rect x="129" y="3" width="30" height="32"/><rect x="127" y="1" width="30" height="32" class="nonterminal"/><text class="nonterminal" x="137" y="21">id</text></a><rect x="179" y="3" width="74" height="32" rx="10"/><rect x="177" y="1" width="74" height="32" class="terminal" rx="10"/><text class="terminal" x="187" y="21">CANCEL</text><a xmlns:xlink="http://www.w3.org/1999/xlink" xlink:href="#tableName" xlink:title="tableName"><rect x="129" y="47" width="88" height="32"/><rect x="127" y="45" width="88" height="32" class="nonterminal"/><text class="nonterminal" x="137" y="65">tableName</text></a><rect x="237" y="47" width="60" height="32" rx="10"/><rect x="235" y="45" width="60" height="32" class="terminal" rx="10"/><text class="terminal" x="245" y="65">FROM</text><a xmlns:xlink="http://www.w3.org/1999/xlink" xlink:href="#fileName" xlink:title="fileName"><rect x="317" y="47" width="74" height="32"/><rect x="315" y="45" width="74" height="32" class="nonterminal"/><text class="nonterminal" x="325" y="65">fileName</text></a><rect x="431" y="79" width="58" height="32" rx="10"/><rect x="429" y="77" width="58" height="32" class="terminal" rx="10"/><text class="terminal" x="439" y="97">WITH</text><rect x="529" y="111" width="74" height="32" rx="10"/><rect x="527" y="109" width="74" height="32" class="terminal" rx="10"/><text class="terminal" x="537" y="129">HEADER</text><a xmlns:xlink="http://www.w3.org/1999/xlink" xlink:href="#true" xlink:title="true"><rect x="643" y="111" width="46" height="32"/><rect x="641" y="109" width="46" height="32" class="nonterminal"/><text class="nonterminal" x="651" y="129">true</text></a><a xmlns:xlink="http://www.w3.org/1999/xlink" xlink:href="#false" xlink:title="false"><rect x="643" y="155" width="50" height="32"/><rect x="641" y="153" width="50" height="32" class="nonterminal"/><text class="nonterminal" x="651" y="173">false</text></a><rect x="529" y="199" width="100" height="32" rx="10"/><rect x="527" y="197" width="100" height="32" class="terminal" rx="10"/><text class="terminal" x="537" y="217">TIMESTAMP</text><a xmlns:xlink="http://www.w3.org/1999/xlink" xlink:href="#columnName" xlink:title="columnName"><rect x="649" y="199" width="102" height="32"/><rect x="647" y="197" width="102" height="32" class="nonterminal"/><text class="nonterminal" x="657" y="217">columnName</text></a><rect x="529" y="243" width="96" height="32" rx="10"/><rect x="527" y="241" width="96" height="32" class="terminal" rx="10"/><text class="terminal" x="537" y="261">DELIMITER</text><a xmlns:xlink="http://www.w3.org/1999/xlink" xlink:href="#delimiter" xlink:title="delimiter"><rect x="645" y="243" width="76" height="32"/><rect x="643" y="241" width="76" height="32" class="nonterminal"/><text class="nonterminal" x="653" y="261">delimiter</text></a><rect x="529" y="287" width="76" height="32" rx="10"/><rect x="527" y="285" width="76" height="32" class="terminal" rx="10"/><text class="terminal" x="537" y="305">FORMAT</text><a xmlns:xlink="http://www.w3.org/1999/xlink" xlink:href="#format" xlink:title="format"><rect x="625" y="287" width="62" height="32"/><rect x="623" y="285" width="62" height="32" class="nonterminal"/><text class="nonterminal" x="633" y="305">format</text></a><rect x="529" y="331" width="120" height="32" rx="10"/><rect x="527" y="329" width="120" height="32" class="terminal" rx="10"/><text class="terminal" x="537" y="349">PARTITION BY</text><rect x="689" y="331" width="58" height="32" rx="10"/><rect x="687" y="329" width="58" height="32" class="terminal" rx="10"/><text class="terminal" x="697" y="349">NONE</text><rect x="689" y="375" width="56" height="32" rx="10"/><rect x="687" y="373" width="56" height="32" class="terminal" rx="10"/><text class="terminal" x="697" y="393">YEAR</text><rect x="689" y="419" width="70" height="32" rx="10"/><rect x="687" y="417" width="70" height="32" class="terminal" rx="10"/><text class="terminal" x="697" y="437">MONTH</text><rect x="689" y="463" width="48" height="32" rx="10"/><rect x="687" y="461" width="48" height="32" class="terminal" rx="10"/><text class="terminal" x="697" y="481">DAY</text><rect x="689" y="507" width="60" height="32" rx="10"/><rect x="687" y="505" width="60" height="32" class="terminal" rx="10"/><text class="terminal" x="697" y="525">HOUR</text><rect x="529" y="551" width="92" height="32" rx="10"/><rect x="527" y="549" width="92" height="32" class="terminal" rx="10"/><text class="terminal" x="537" y="569">ON ERROR</text><rect x="661" y="551" width="96" height="32" rx="10"/><rect x="659" y="549" width="96" height="32" class="terminal" rx="10"/><text class="terminal" x="669" y="569">SKIP_ROW</text><rect x="661" y="595" width="122" height="32" rx="10"/><rect x="659" y="593" width="122" height="32" class="terminal" rx="10"/><text class="terminal" x="669" y="613">SKIP_COLUMN</text><rect x="661" y="639" width="66" height="32" rx="10"/><rect x="659" y="637" width="66" height="32" class="terminal" rx="10"/><text class="terminal" x="669" y="657">ABORT</text><path xmlns:svg="http://www.w3.org/2000/svg" d="M17 17h2m0 0h10m58 0h10m20 0h10m30 0h10m0 0h10m74 0h10m0 0h590M97 17h20m734 0h20M97 17q10 0 10 10m754 0q0-10 10-10M107 27v24m754 0V27M107 51q0 10 10 10m734 0q10 0 10-10M117 61h10m88 0h10m0 0h10m60 0h10m0 0h10m74 0h10m20 0h10m0 0h402m-432 0h20m412 0h20m-452 0q10 0 10 10m432 0q0-10 10-10M409 71v12m432 0V71M409 83q0 10 10 10m412 0q10 0 10-10M419 93h10m58 0h10m20 0h10m0 0h284m-314 0h20m294 0h20m-334 0q10 0 10 10m314 0q0-10 10-10m-324 10v12m314 0v-12m-314 12q0 10 10 10m294 0q10 0 10-10m-304 10h10m74 0h10m20 0h10m46 0h10m0 0h4m-90 0h20m70 0h20m-110 0q10 0 10 10m90 0q0-10 10-10m-100 10v24m90 0v-24m-90 24q0 10 10 10m70 0q10 0 10-10m-80 10h10m50 0h10m20-44h90m-304-10v20m314 0v-20m-314 20v68m314 0v-68m-314 68q0 10 10 10m294 0q10 0 10-10m-304 10h10m100 0h10m0 0h10m102 0h10m0 0h52m-304-10v20m314 0v-20m-314 20v24m314 0v-24m-314 24q0 10 10 10m294 0q10 0 10-10m-304 10h10m96 0h10m0 0h10m76 0h10m0 0h82m-304-10v20m314 0v-20m-314 20v24m314 0v-24m-314 24q0 10 10 10m294 0q10 0 10-10m-304 10h10m76 0h10m0 0h10m62 0h10m0 0h116m-304-10v20m314 0v-20m-314 20v24m314 0v-24m-314 24q0 10 10 10m294 0q10 0 10-10m-304 10h10m120 0h10m20 0h10m58 0h10m0 0h12m-110 0h20m90 0h20m-130 0q10 0 10 10m110 0q0-10 10-10m-120 10v24m110 0v-24m-110 24q0 10 10 10m90 0q10 0 10-10m-100 10h10m56 0h10m0 0h14m-100-10v20m110 0v-20m-110 20v24m110 0v-24m-110 24q0 10 10 10m90 0q10 0 10-10m-100 10h10m70 0h10m-100-10v20m110 0v-20m-110 20v24m110 0v-24m-110 24q0 10 10 10m90 0q10 0 10-10m-100 10h10m48 0h10m0 0h22m-100-10v20m110 0v-20m-110 20v24m110 0v-24m-110 24q0 10 10 10m90 0q10 0 10-10m-100 10h10m60 0h10m0 0h10m20-176h24m-304-10v20m314 0v-20m-314 20v200m314 0V355M507 555q0 10 10 10m294 0q10 0 10-10m-304 10h10m92 0h10m20 0h10m96 0h10m0 0h26m-162 0h20m142 0h20m-182 0q10 0 10 10m162 0q0-10 10-10m-172 10v24m162 0v-24m-162 24q0 10 10 10m142 0q10 0 10-10m-152 10h10m122 0h10m-152-10v20m162 0v-20m-162 20v24m162 0v-24m-162 24q0 10 10 10m142 0q10 0 10-10m-152 10h10m66 0h10m0 0h56m83-636h-3" fill="none" stroke="#636273"/><polygon points="881 17 889 13 889 21"/><polygon points="881 17 873 13 873 21"/></svg>