<svg xmlns="http://www.w3.org/2000/svg" width="967" height="637"><defs xmlns="http://www.w3.org/1999/xhtml"><style type="text/css">
   text.nonterminal,
   text.terminal {
     font-family: -apple-system, BlinkMacSystemFont, "Segoe UI", Roboto,
       Ubuntu, Cantarell, Helvetica, sans-serif;
     font-size: 12px;
   }
   text.terminal {
     fill: #fff;
     font-weight: 700;
   }
   text.nonterminal {
     fill: #e289a4;
     font-weight: 400;
   }
   polygon,
   rect {
     fill: none;
     stroke: none;
   }
   rect.terminal {
     fill: none;
     stroke: #be2f5b;
   }
   rect.nonterminal {
     fill: rgba(255, 255, 255, 0.1);
     stroke: none;
   }
   .line {
     fill: none;
     stroke: #636273;
   }
 </style></defs>
          <polygon points="9 17 1 13 1 21"/>
          <polygon points="17 17 9 13 9 21"/>
          <rect x="31" y="3" width="72" height="32" rx="10"/>
          <rect x="29" y="1" width="72" height="32" class="terminal" rx="10"/>
          <text class="terminal" x="39" y="21">CREATE</text>
          <rect x="123" y="3" width="62" height="32" rx="10"/>
          <rect x="121" y="1" width="62" height="32" class="terminal" rx="10"/>
          <text class="terminal" x="131" y="21">TABLE</text>
          <rect x="225" y="35" width="34" height="32" rx="10"/>
          <rect x="223" y="33" width="34" height="32" class="terminal" rx="10"/>
          <text class="terminal" x="233" y="53">IF</text>
          <rect x="279" y="35" width="48" height="32" rx="10"/>
          <rect x="277" y="33" width="48" height="32" class="terminal" rx="10"/>
          <text class="terminal" x="287" y="53">NOT</text>
          <rect x="347" y="35" width="70" height="32" rx="10"/>
          <rect x="345" y="33" width="70" height="32" class="terminal" rx="10"/>
          <text class="terminal" x="355" y="53">EXISTS</text><a xmlns:xlink="http://www.w3.org/1999/xlink" xlink:href="#tableName" xlink:title="tableName">
             <rect x="457" y="3" width="88" height="32"/>
             <rect x="455" y="1" width="88" height="32" class="nonterminal"/>
             <text class="nonterminal" x="465" y="21">tableName</text></a><rect x="156" y="145" width="26" height="32" rx="10"/>
          <rect x="154" y="143" width="26" height="32" class="terminal" rx="10"/>
          <text class="terminal" x="164" y="163">(</text><a xmlns:xlink="http://www.w3.org/1999/xlink" xlink:href="#columnName" xlink:title="columnName">
             <rect x="222" y="145" width="102" height="32"/>
             <rect x="220" y="143" width="102" height="32" class="nonterminal"/>
             <text class="nonterminal" x="230" y="163">columnName</text></a><a xmlns:xlink="http://www.w3.org/1999/xlink" xlink:href="#typeDef" xlink:title="typeDef">
             <rect x="344" y="145" width="70" height="32"/>
             <rect x="342" y="143" width="70" height="32" class="nonterminal"/>
             <text class="nonterminal" x="352" y="163">typeDef</text></a><rect x="222" y="101" width="24" height="32" rx="10"/>
          <rect x="220" y="99" width="24" height="32" class="terminal" rx="10"/>
          <text class="terminal" x="230" y="119">,</text>
          <rect x="454" y="145" width="26" height="32" rx="10"/>
          <rect x="452" y="143" width="26" height="32" class="terminal" rx="10"/>
          <text class="terminal" x="462" y="163">)</text>
          <rect x="156" y="211" width="38" height="32" rx="10"/>
          <rect x="154" y="209" width="38" height="32" class="terminal" rx="10"/>
          <text class="terminal" x="164" y="229">AS</text>
          <rect x="214" y="211" width="26" height="32" rx="10"/>
          <rect x="212" y="209" width="26" height="32" class="terminal" rx="10"/>
          <text class="terminal" x="222" y="229">(</text><a xmlns:xlink="http://www.w3.org/1999/xlink" xlink:href="#selectSql" xlink:title="selectSql">
             <rect x="260" y="211" width="76" height="32"/>
             <rect x="258" y="209" width="76" height="32" class="nonterminal"/>
             <text class="nonterminal" x="268" y="229">selectSql</text></a><rect x="356" y="211" width="26" height="32" rx="10"/>
          <rect x="354" y="209" width="26" height="32" class="terminal" rx="10"/>
          <text class="terminal" x="364" y="229">)</text>
          <rect x="442" y="211" width="24" height="32" rx="10"/>
          <rect x="440" y="209" width="24" height="32" class="terminal" rx="10"/>
          <text class="terminal" x="450" y="229">,</text><a xmlns:xlink="http://www.w3.org/1999/xlink" xlink:href="#castDef" xlink:title="castDef">
             <rect x="486" y="211" width="68" height="32"/>
             <rect x="484" y="209" width="68" height="32" class="nonterminal"/>
             <text class="nonterminal" x="494" y="229">castDef</text></a><rect x="654" y="211" width="24" height="32" rx="10"/>
          <rect x="652" y="209" width="24" height="32" class="terminal" rx="10"/>
          <text class="terminal" x="662" y="229">,</text><a xmlns:xlink="http://www.w3.org/1999/xlink" xlink:href="#indexDef" xlink:title="indexDef">
             <rect x="698" y="211" width="76" height="32"/>
             <rect x="696" y="209" width="76" height="32" class="nonterminal"/>
             <text class="nonterminal" x="706" y="229">indexDef</text></a><rect x="45" y="309" width="92" height="32" rx="10"/>
          <rect x="43" y="307" width="92" height="32" class="terminal" rx="10"/>
          <text class="terminal" x="53" y="327">timestamp</text>
          <rect x="157" y="309" width="26" height="32" rx="10"/>
          <rect x="155" y="307" width="26" height="32" class="terminal" rx="10"/>
          <text class="terminal" x="165" y="327">(</text><a xmlns:xlink="http://www.w3.org/1999/xlink" xlink:href="#columnRef" xlink:title="columnRef">
             <rect x="203" y="309" width="86" height="32"/>
             <rect x="201" y="307" width="86" height="32" class="nonterminal"/>
             <text class="nonterminal" x="211" y="327">columnRef</text></a><rect x="309" y="309" width="26" height="32" rx="10"/>
          <rect x="307" y="307" width="26" height="32" class="terminal" rx="10"/>
          <text class="terminal" x="317" y="327">)</text>
          <rect x="375" y="341" width="98" height="32" rx="10"/>
          <rect x="373" y="339" width="98" height="32" class="terminal" rx="10"/>
          <text class="terminal" x="383" y="359">PARTITION</text>
          <rect x="493" y="341" width="38" height="32" rx="10"/>
          <rect x="491" y="339" width="38" height="32" class="terminal" rx="10"/>
          <text class="terminal" x="501" y="359">BY</text>
          <rect x="571" y="341" width="58" height="32" rx="10"/>
          <rect x="569" y="339" width="58" height="32" class="terminal" rx="10"/>
          <text class="terminal" x="579" y="359">NONE</text>
          <rect x="571" y="385" width="56" height="32" rx="10"/>
          <rect x="569" y="383" width="56" height="32" class="terminal" rx="10"/>
          <text class="terminal" x="579" y="403">YEAR</text>
          <rect x="571" y="429" width="70" height="32" rx="10"/>
          <rect x="569" y="427" width="70" height="32" class="terminal" rx="10"/>
          <text class="terminal" x="579" y="447">MONTH</text>
          <rect x="571" y="473" width="48" height="32" rx="10"/>
          <rect x="569" y="471" width="48" height="32" class="terminal" rx="10"/>
          <text class="terminal" x="579" y="491">DAY</text>
          <rect x="571" y="517" width="60" height="32" rx="10"/>
          <rect x="569" y="515" width="60" height="32" class="terminal" rx="10"/>
          <text class="terminal" x="579" y="535">HOUR</text>
          <rect x="761" y="341" width="74" height="32" rx="10"/>
          <rect x="759" y="339" width="74" height="32" class="terminal" rx="10"/>
          <text class="terminal" x="769" y="359">BYPASS</text>
          <rect x="875" y="309" width="50" height="32" rx="10"/>
          <rect x="873" y="307" width="50" height="32" class="terminal" rx="10"/>
          <text class="terminal" x="883" y="327">WAL</text>
          <rect x="501" y="603" width="58" height="32" rx="10"/>
          <rect x="499" y="601" width="58" height="32" class="terminal" rx="10"/>
          <text class="terminal" x="509" y="621">WITH</text><a xmlns:xlink="http://www.w3.org/1999/xlink" xlink:href="#tableParameter" xlink:title="tableParameter">
             <rect x="579" y="603" width="118" height="32"/>
             <rect x="577" y="601" width="118" height="32" class="nonterminal"/>
             <text class="nonterminal" x="587" y="621">tableParameter</text></a><a xmlns:xlink="http://www.w3.org/1999/xlink" xlink:href="#tableTargetVolumeDef" xlink:title="tableTargetVolumeDef">
             <rect x="757" y="603" width="162" height="32"/>
             <rect x="755" y="601" width="162" height="32" class="nonterminal"/>
             <text class="nonterminal" x="765" y="621">tableTargetVolumeDef</text></a><path class="line" d="m17 17 h2 m0 0 h10 m72 0 h10 m0 0 h10 m62 0 h10 m20 0 h10 m0 0 h202 m-232 0 h20 m212 0 h20 m-252 0 q10 0 10 10 m232 0 q0 -10 10 -10 m-242 10 v12 m232 0 v-12 m-232 12 q0 10 10 10 m212 0 q10 0 10 -10 m-222 10 h10 m34 0 h10 m0 0 h10 m48 0 h10 m0 0 h10 m70 0 h10 m20 -32 h10 m88 0 h10 m2 0 l2 0 m2 0 l2 0 m2 0 l2 0 m-453 142 l2 0 m2 0 l2 0 m2 0 l2 0 m22 0 h10 m26 0 h10 m20 0 h10 m102 0 h10 m0 0 h10 m70 0 h10 m-232 0 l20 0 m-1 0 q-9 0 -9 -10 l0 -24 q0 -10 10 -10 m212 44 l20 0 m-20 0 q10 0 10 -10 l0 -24 q0 -10 -10 -10 m-212 0 h10 m24 0 h10 m0 0 h168 m20 44 h10 m26 0 h10 m0 0 h334 m-698 0 h20 m678 0 h20 m-718 0 q10 0 10 10 m698 0 q0 -10 10 -10 m-708 10 v46 m698 0 v-46 m-698 46 q0 10 10 10 m678 0 q10 0 10 -10 m-688 10 h10 m38 0 h10 m0 0 h10 m26 0 h10 m0 0 h10 m76 0 h10 m0 0 h10 m26 0 h10 m40 0 h10 m24 0 h10 m0 0 h10 m68 0 h10 m-152 0 l20 0 m-1 0 q-9 0 -9 -10 l0 -12 q0 -10 10 -10 m132 32 l20 0 m-20 0 q10 0 10 -10 l0 -12 q0 -10 -10 -10 m-132 0 h10 m0 0 h122 m-172 32 h20 m172 0 h20 m-212 0 q10 0 10 10 m192 0 q0 -10 10 -10 m-202 10 v14 m192 0 v-14 m-192 14 q0 10 10 10 m172 0 q10 0 10 -10 m-182 10 h10 m0 0 h162 m60 -34 h10 m24 0 h10 m0 0 h10 m76 0 h10 m-160 0 l20 0 m-1 0 q-9 0 -9 -10 l0 -12 q0 -10 10 -10 m140 32 l20 0 m-20 0 q10 0 10 -10 l0 -12 q0 -10 -10 -10 m-140 0 h10 m0 0 h130 m-180 32 h20 m180 0 h20 m-220 0 q10 0 10 10 m200 0 q0 -10 10 -10 m-210 10 v14 m200 0 v-14 m-200 14 q0 10 10 10 m180 0 q10 0 10 -10 m-190 10 h10 m0 0 h170 m42 -100 l2 0 m2 0 l2 0 m2 0 l2 0 m-853 132 l2 0 m2 0 l2 0 m2 0 l2 0 m22 0 h10 m0 0 h646 m-676 0 h20 m656 0 h20 m-696 0 q10 0 10 10 m676 0 q0 -10 10 -10 m-686 10 v12 m676 0 v-12 m-676 12 q0 10 10 10 m656 0 q10 0 10 -10 m-666 10 h10 m92 0 h10 m0 0 h10 m26 0 h10 m0 0 h10 m86 0 h10 m0 0 h10 m26 0 h10 m20 0 h10 m0 0 h296 m-326 0 h20 m306 0 h20 m-346 0 q10 0 10 10 m326 0 q0 -10 10 -10 m-336 10 v12 m326 0 v-12 m-326 12 q0 10 10 10 m306 0 q10 0 10 -10 m-316 10 h10 m98 0 h10 m0 0 h10 m38 0 h10 m20 0 h10 m58 0 h10 m0 0 h12 m-110 0 h20 m90 0 h20 m-130 0 q10 0 10 10 m110 0 q0 -10 10 -10 m-120 10 v24 m110 0 v-24 m-110 24 q0 10 10 10 m90 0 q10 0 10 -10 m-100 10 h10 m56 0 h10 m0 0 h14 m-100 -10 v20 m110 0 v-20 m-110 20 v24 m110 0 v-24 m-110 24 q0 10 10 10 m90 0 q10 0 10 -10 m-100 10 h10 m70 0 h10 m-100 -10 v20 m110 0 v-20 m-110 20 v24 m110 0 v-24 m-110 24 q0 10 10 10 m90 0 q10 0 10 -10 m-100 10 h10 m48 0 h10 m0 0 h22 m-100 -10 v20 m110 0 v-20 m-110 20 v24 m110 0 v-24 m-110 24 q0 10 10 10 m90 0 q10 0 10 -10 m-100 10 h10 m60 0 h10 m0 0 h10 m80 -240 h10 m0 0 h194 m-224 0 h20 m204 0 h20 m-244 0 q10 0 10 10 m224 0 q0 -10 10 -10 m-234 10 v12 m224 0 v-12 m-224 12 q0 10 10 10 m204 0 q10 0 10 -10 m-194 10 h10 m0 0 h84 m-114 0 h20 m94 0 h20 m-134 0 q10 0 10 10 m114 0 q0 -10 10 -10 m-124 10 v12 m114 0 v-12 m-114 12 q0 10 10 10 m94 0 q10 0 10 -10 m-104 10 h10 m74 0 h10 m20 -32 h10 m50 0 h10 m22 -32 l2 0 m2 0 l2 0 m2 0 l2 0 m-508 294 l2 0 m2 0 l2 0 m2 0 l2 0 m22 0 h10 m0 0 h206 m-236 0 h20 m216 0 h20 m-256 0 q10 0 10 10 m236 0 q0 -10 10 -10 m-246 10 v12 m236 0 v-12 m-236 12 q0 10 10 10 m216 0 q10 0 10 -10 m-226 10 h10 m58 0 h10 m0 0 h10 m118 0 h10 m40 -32 h10 m0 0 h172 m-202 0 h20 m182 0 h20 m-222 0 q10 0 10 10 m202 0 q0 -10 10 -10 m-212 10 v12 m202 0 v-12 m-202 12 q0 10 10 10 m182 0 q10 0 10 -10 m-192 10 h10 m162 0 h10 m23 -32 h-3"/>
          <polygon points="957 585 965 581 965 589"/>
          <polygon points="957 585 949 581 949 589"/></svg>