<svg xmlns="http://www.w3.org/2000/svg" width="635" height="37"><defs><style type="text/css">@namespace &quot;http://www.w3.org/2000/svg&quot;;text.nonterminal,text.terminal{font-family:-apple-system,BlinkMacSystemFont,&quot;Segoe UI&quot;,Roboto,Ubuntu,Cantarell,Helvetica,sans-serif;font-size:12px}text.terminal{fill:#fff;font-weight:700}text.nonterminal{fill:#e289a4;font-weight:400}polygon,rect{fill:none;stroke:none}rect.terminal{fill:none;stroke:#be2f5b}rect.nonterminal{fill:rgba(255,255,255,.1);stroke:none}</style></defs><polygon points="9 17 1 13 1 21"/><polygon points="17 17 9 13 9 21"/><rect x="31" y="3" width="70" height="32" rx="10"/><rect x="29" y="1" width="70" height="32" class="terminal" rx="10"/><text class="terminal" x="39" y="21">SELECT</text><a xmlns:xlink="http://www.w3.org/1999/xlink" xlink:href="#someSelectStatement" xlink:title="someSelectStatement"><rect x="121" y="3" width="160" height="32"/><rect x="119" y="1" width="160" height="32" class="nonterminal"/><text class="nonterminal" x="129" y="21">someSelectStatement</text></a><rect x="301" y="3" width="92" height="32" rx="10"/><rect x="299" y="1" width="92" height="32" class="terminal" rx="10"/><text class="terminal" x="309" y="21">timestamp</text><rect x="413" y="3" width="26" height="32" rx="10"/><rect x="411" y="1" width="26" height="32" class="terminal" rx="10"/><text class="terminal" x="421" y="21">(</text><a xmlns:xlink="http://www.w3.org/1999/xlink" xlink:href="#columnName" xlink:title="columnName"><rect x="459" y="3" width="102" height="32"/><rect x="457" y="1" width="102" height="32" class="nonterminal"/><text class="nonterminal" x="467" y="21">columnName</text></a><rect x="581" y="3" width="26" height="32" rx="10"/><rect x="579" y="1" width="26" height="32" class="terminal" rx="10"/><text class="terminal" x="589" y="21">)</text><path xmlns:svg="http://www.w3.org/2000/svg" d="M17 17h2m0 0h10m70 0h10m0 0h10m160 0h10m0 0h10m92 0h10m0 0h10m26 0h10m0 0h10m102 0h10m0 0h10m26 0h10m3 0h-3" fill="none" stroke="#636273"/><polygon points="625 17 633 13 633 21"/><polygon points="625 17 617 13 617 21"/></svg>