<svg xmlns="http://www.w3.org/2000/svg" width="427" height="37">
   <defs>
        <style type="text/css">
            @namespace "http://www.w3.org/2000/svg";
                .line                 {fill: none; stroke: #636273;}
                .bold-line            {stroke: #636273; shape-rendering: crispEdges; stroke-width: 2; }
                .thin-line            {stroke: #636273; shape-rendering: crispEdges}
                .filled               {fill: #636273; stroke: none;}
                text.terminal         {font-family: -apple-system, BlinkMacSystemFont, "Segoe UI", Roboto, Ubuntu, Cantarell, Helvetica, sans-serif;
                font-size: 12px;
                fill: #ffffff;
                font-weight: bold;
                }
                text.nonterminal      {font-family: -apple-system, BlinkMacSystemFont, "Segoe UI", Roboto, Ubuntu, Cantarell, Helvetica, sans-serif;
                font-size: 12px;
                fill: #e289a4;
                font-weight: normal;
                }
                text.regexp           {font-family: -apple-system, BlinkMacSystemFont, "Segoe UI", Roboto, Ubuntu, Cantarell, Helvetica, sans-serif;
                font-size: 12px;
                fill: #00141F;
                font-weight: normal;
                }
                rect, circle, polygon {fill: none; stroke: none;}
                rect.terminal         {fill: none; stroke: #be2f5b;}
                rect.nonterminal      {fill: rgba(255,255,255,0.1); stroke: none;}
                rect.text             {fill: none; stroke: none;}
                polygon.regexp        {fill: #C7ECFF; stroke: #038cbc;}
        </style>
    </defs>
    <polygon points="9 17 1 13 1 21"/>
    <polygon points="17 17 9 13 9 21"/>
    <rect x="31" y="3" width="80" height="32" rx="10"/>
    <rect x="29" y="1" width="80" height="32" class="terminal" rx="10"/>
    <text class="terminal" x="39" y="21">EXPLAIN</text><a xmlns:xlink="http://www.w3.org/1999/xlink" xlink:href="#statement" xlink:title="statement">
    <rect x="131" y="3" width="86" height="32"/>
    <rect x="129" y="1" width="86" height="32" class="nonterminal"/>
    <text class="nonterminal" x="139" y="21">statement</text></a><svg:path xmlns:svg="http://www.w3.org/2000/svg" class="line" d="m17 17 h2 m0 0 h10 m80 0 h10 m0 0 h10 m86 0 h10 m3 0 h-3"/>
    <polygon points="235 17 243 13 243 21"/>
    <polygon points="235 17 227 13 227 21"/>
</svg>
