<svg xmlns="http://www.w3.org/2000/svg" width="883" height="97"><defs><style type="text/css">@namespace &quot;http://www.w3.org/2000/svg&quot;;text.nonterminal,text.terminal{font-family:-apple-system,BlinkMacSystemFont,&quot;Segoe UI&quot;,Roboto,Ubuntu,Cantarell,Helvetica,sans-serif;font-size:12px}text.terminal{fill:#fff;font-weight:700}text.nonterminal{fill:#e289a4;font-weight:400}polygon,rect{fill:none;stroke:none}rect.terminal{fill:none;stroke:#be2f5b}rect.nonterminal{fill:rgba(255,255,255,.1);stroke:none}</style></defs><polygon points="9 61 1 57 1 65"/><polygon points="17 61 9 57 9 65"/><rect x="31" y="47" width="70" height="32" rx="10"/><rect x="29" y="45" width="70" height="32" class="terminal" rx="10"/><text class="terminal" x="39" y="65">SELECT</text><a xmlns:xlink="http://www.w3.org/1999/xlink" xlink:href="#column" xlink:title="column"><rect x="141" y="47" width="64" height="32"/><rect x="139" y="45" width="64" height="32" class="nonterminal"/><text class="nonterminal" x="149" y="65">column</text></a><rect x="141" y="3" width="24" height="32" rx="10"/><rect x="139" y="1" width="24" height="32" class="terminal" rx="10"/><text class="terminal" x="149" y="21">,</text><rect x="245" y="47" width="28" height="32" rx="10"/><rect x="243" y="45" width="28" height="32" class="terminal" rx="10"/><text class="terminal" x="253" y="65">,</text><a xmlns:xlink="http://www.w3.org/1999/xlink" xlink:href="#aggregation" xlink:title="aggregation"><rect x="313" y="47" width="96" height="32"/><rect x="311" y="45" width="96" height="32" class="nonterminal"/><text class="nonterminal" x="321" y="65">aggregation</text></a><rect x="313" y="3" width="24" height="32" rx="10"/><rect x="311" y="1" width="24" height="32" class="terminal" rx="10"/><text class="terminal" x="321" y="21">,</text><rect x="449" y="47" width="60" height="32" rx="10"/><rect x="447" y="45" width="60" height="32" class="terminal" rx="10"/><text class="terminal" x="457" y="65">FROM</text><a xmlns:xlink="http://www.w3.org/1999/xlink" xlink:href="#table" xlink:title="table"><rect x="529" y="47" width="52" height="32"/><rect x="527" y="45" width="52" height="32" class="nonterminal"/><text class="nonterminal" x="537" y="65">table</text></a><rect x="621" y="47" width="90" height="32" rx="10"/><rect x="619" y="45" width="90" height="32" class="terminal" rx="10"/><text class="terminal" x="629" y="65">GROUP BY</text><a xmlns:xlink="http://www.w3.org/1999/xlink" xlink:href="#column" xlink:title="column"><rect x="751" y="47" width="64" height="32"/><rect x="749" y="45" width="64" height="32" class="nonterminal"/><text class="nonterminal" x="759" y="65">column</text></a><rect x="751" y="3" width="24" height="32" rx="10"/><rect x="749" y="1" width="24" height="32" class="terminal" rx="10"/><text class="terminal" x="759" y="21">,</text><path xmlns:svg="http://www.w3.org/2000/svg" d="M17 61h2m0 0h10m70 0h10m20 0h10m64 0h10m-104 0h20m-1 0q-9 0-9-10V27q0-10 10-10m84 44h20m-20 0q10 0 10-10V27q0-10-10-10m-84 0h10m24 0h10m0 0h40m20 44h10m28 0h10m20 0h10m96 0h10m-136 0h20m-1 0q-9 0-9-10V27q0-10 10-10m116 44h20m-20 0q10 0 10-10V27q0-10-10-10m-116 0h10m24 0h10m0 0h72m20 44h10m60 0h10m0 0h10m52 0h10m20 0h10m90 0h10m20 0h10m64 0h10m-104 0h20m-1 0q-9 0-9-10V27q0-10 10-10m84 44h20m-20 0q10 0 10-10V27q0-10-10-10m-84 0h10m24 0h10m0 0h40M589 61h20m234 0h20m-274 0q10 0 10 10m254 0q0-10 10-10M599 71v14m254 0V71M599 85q0 10 10 10m234 0q10 0 10-10M609 95h10m0 0h224m23-34h-3" fill="none" stroke="#636273"/><polygon points="873 61 881 57 881 65"/><polygon points="873 61 865 57 865 65"/></svg>