<svg xmlns="http://www.w3.org/2000/svg" width="600" height="69"><defs><style type="text/css">@namespace &quot;http://www.w3.org/2000/svg&quot;;text.nonterminal,text.terminal{font-family:-apple-system,BlinkMacSystemFont,&quot;Segoe UI&quot;,Roboto,Ubuntu,Cantarell,Helvetica,sans-serif;font-size:12px}text.terminal{fill:#fff;font-weight:700}text.nonterminal{fill:#e289a4;font-weight:400}polygon,rect{fill:none;stroke:none}rect.terminal{fill:none;stroke:#be2f5b}rect.nonterminal{fill:rgba(255,255,255,.1);stroke:none}</style></defs><polygon points="9 17 1 13 1 21"/><polygon points="17 17 9 13 9 21"/><rect x="31" y="3" width="64" height="32" rx="10"/><rect x="29" y="1" width="64" height="32" class="terminal" rx="10"/><text class="terminal" x="39" y="21">INDEX</text><rect x="115" y="3" width="26" height="32" rx="10"/><rect x="113" y="1" width="26" height="32" class="terminal" rx="10"/><text class="terminal" x="123" y="21">(</text><a xmlns:xlink="http://www.w3.org/1999/xlink" xlink:href="#columnRef" xlink:title="columnRef"><rect x="161" y="3" width="86" height="32"/><rect x="159" y="1" width="86" height="32" class="nonterminal"/><text class="nonterminal" x="169" y="21">columnRef</text></a><rect x="287" y="35" width="88" height="32" rx="10"/><rect x="285" y="33" width="88" height="32" class="terminal" rx="10"/><text class="terminal" x="295" y="53">CAPACITY</text><a xmlns:xlink="http://www.w3.org/1999/xlink" xlink:href="#valueBlockSize" xlink:title="valueBlockSize"><rect x="395" y="35" width="114" height="32"/><rect x="393" y="33" width="114" height="32" class="nonterminal"/><text class="nonterminal" x="403" y="53">valueBlockSize</text></a><rect x="549" y="3" width="26" height="32" rx="10"/><rect x="547" y="1" width="26" height="32" class="terminal" rx="10"/><text class="terminal" x="557" y="21">)</text><path xmlns:svg="http://www.w3.org/2000/svg" d="M17 17h2m0 0h10m64 0h10m0 0h10m26 0h10m0 0h10m86 0h10m20 0h10m0 0h232m-262 0h20m242 0h20m-282 0q10 0 10 10m262 0q0-10 10-10M265 27v12m262 0V27M265 39q0 10 10 10m242 0q10 0 10-10M275 49h10m88 0h10m0 0h10m114 0h10m20-32h10m26 0h10m3 0h-3" fill="none" stroke="#636273"/><polygon points="593 17 601 13 601 21"/><polygon points="593 17 585 13 585 21"/></svg>