<svg xmlns="http://www.w3.org/2000/svg" width="923" height="257"><defs><style type="text/css">@namespace &quot;http://www.w3.org/2000/svg&quot;;text.nonterminal,text.terminal{font-family:-apple-system,BlinkMacSystemFont,&quot;Segoe UI&quot;,Roboto,Ubuntu,Cantarell,Helvetica,sans-serif;font-size:12px}text.terminal{fill:#fff;font-weight:700}text.nonterminal{fill:#e289a4;font-weight:400}polygon,rect{fill:none;stroke:none}rect.terminal{fill:none;stroke:#be2f5b}rect.nonterminal{fill:rgba(255,255,255,.1);stroke:none}</style></defs><polygon points="9 17 1 13 1 21"/><polygon points="17 17 9 13 9 21"/><a xmlns:xlink="http://www.w3.org/1999/xlink" xlink:href="#user_1" xlink:title="user_1"><rect x="51" y="3" width="64" height="32"/><rect x="49" y="1" width="64" height="32" class="nonterminal"/><text class="nonterminal" x="59" y="21">user_1</text></a><a xmlns:xlink="http://www.w3.org/1999/xlink" xlink:href="#user_2" xlink:title="user_2"><rect x="51" y="47" width="64" height="32"/><rect x="49" y="45" width="64" height="32" class="nonterminal"/><text class="nonterminal" x="59" y="65">user_2</text></a><rect x="51" y="91" width="32" height="32" rx="10"/><rect x="49" y="89" width="32" height="32" class="terminal" rx="10"/><text class="terminal" x="59" y="109">...</text><rect x="155" y="3" width="108" height="32" rx="10"/><rect x="153" y="1" width="108" height="32" class="terminal" rx="10"/><text class="terminal" x="163" y="21">TCP requests</text><a xmlns:xlink="http://www.w3.org/1999/xlink" xlink:href="#network_IO_thread" xlink:title="network_IO_thread"><rect x="283" y="3" width="144" height="32"/><rect x="281" y="1" width="144" height="32" class="nonterminal"/><text class="nonterminal" x="291" y="21">network_IO_thread</text></a><rect x="447" y="3" width="106" height="32" rx="10"/><rect x="445" y="1" width="106" height="32" class="terminal" rx="10"/><text class="terminal" x="455" y="21">write_queue</text><a xmlns:xlink="http://www.w3.org/1999/xlink" xlink:href="#worker_1" xlink:title="worker_1"><rect x="593" y="3" width="78" height="32"/><rect x="591" y="1" width="78" height="32" class="nonterminal"/><text class="nonterminal" x="601" y="21">worker_1</text></a><rect x="691" y="3" width="56" height="32" rx="10"/><rect x="689" y="1" width="56" height="32" class="terminal" rx="10"/><text class="terminal" x="699" y="21">write</text><a xmlns:xlink="http://www.w3.org/1999/xlink" xlink:href="#table_1" xlink:title="table_1"><rect x="787" y="3" width="68" height="32"/><rect x="785" y="1" width="68" height="32" class="nonterminal"/><text class="nonterminal" x="795" y="21">table_1</text></a><a xmlns:xlink="http://www.w3.org/1999/xlink" xlink:href="#table_2" xlink:title="table_2"><rect x="787" y="47" width="68" height="32"/><rect x="785" y="45" width="68" height="32" class="nonterminal"/><text class="nonterminal" x="795" y="65">table_2</text></a><rect x="787" y="91" width="32" height="32" rx="10"/><rect x="785" y="89" width="32" height="32" class="terminal" rx="10"/><text class="terminal" x="795" y="109">...</text><a xmlns:xlink="http://www.w3.org/1999/xlink" xlink:href="#worker_2" xlink:title="worker_2"><rect x="593" y="135" width="78" height="32"/><rect x="591" y="133" width="78" height="32" class="nonterminal"/><text class="nonterminal" x="601" y="153">worker_2</text></a><rect x="691" y="135" width="56" height="32" rx="10"/><rect x="689" y="133" width="56" height="32" class="terminal" rx="10"/><text class="terminal" x="699" y="153">write</text><a xmlns:xlink="http://www.w3.org/1999/xlink" xlink:href="#table_3" xlink:title="table_3"><rect x="787" y="135" width="68" height="32"/><rect x="785" y="133" width="68" height="32" class="nonterminal"/><text class="nonterminal" x="795" y="153">table_3</text></a><a xmlns:xlink="http://www.w3.org/1999/xlink" xlink:href="#table_4" xlink:title="table_4"><rect x="787" y="179" width="68" height="32"/><rect x="785" y="177" width="68" height="32" class="nonterminal"/><text class="nonterminal" x="795" y="197">table_4</text></a><rect x="787" y="223" width="32" height="32" rx="10"/><rect x="785" y="221" width="32" height="32" class="terminal" rx="10"/><text class="terminal" x="795" y="241">...</text><path xmlns:svg="http://www.w3.org/2000/svg" d="M17 17h2m20 0h10m64 0h10M19 17h20m84 0h20M19 17q10 0 10 10m104 0q0-10 10-10M29 27v24m104 0V27M29 51q0 10 10 10m84 0q10 0 10-10M39 61h10m64 0h10M29 51v20m104 0V51M29 71v24m104 0V71M29 95q0 10 10 10m84 0q10 0 10-10m-94 10h10m32 0h10m0 0h32m20-88h10m108 0h10m0 0h10m144 0h10m0 0h10m106 0h10m20 0h10m78 0h10m0 0h10m56 0h10m20 0h10m68 0h10m-108 0h20m88 0h20m-128 0q10 0 10 10m108 0q0-10 10-10M765 27v24m108 0V27M765 51q0 10 10 10m88 0q10 0 10-10m-98 10h10m68 0h10m-98-10v20m108 0V51M765 71v24m108 0V71M765 95q0 10 10 10m88 0q10 0 10-10m-98 10h10m32 0h10m0 0h36M561 17h20m302 0h20m-342 0q10 0 10 10m322 0q0-10 10-10M571 27v112m322 0V27M571 139q0 10 10 10m302 0q10 0 10-10m-312 10h10m78 0h10m0 0h10m56 0h10m20 0h10m68 0h10m-108 0h20m88 0h20m-128 0q10 0 10 10m108 0q0-10 10-10m-118 10v24m108 0v-24m-108 24q0 10 10 10m88 0q10 0 10-10m-98 10h10m68 0h10m-98-10v20m108 0v-20m-108 20v24m108 0v-24m-108 24q0 10 10 10m88 0q10 0 10-10m-98 10h10m32 0h10m0 0h36m43-220h-3" fill="none" stroke="#636273"/><polygon points="913 17 921 13 921 21"/><polygon points="913 17 905 13 905 21"/></svg>