<svg xmlns="http://www.w3.org/2000/svg" width="980" height="350"><defs><style type="text/css">@namespace &quot;http://www.w3.org/2000/svg&quot;;text.nonterminal,text.terminal{font-family:-apple-system,BlinkMacSystemFont,&quot;Segoe UI&quot;,Roboto,Ubuntu,Cantarell,Helvetica,sans-serif;font-size:12px}text.terminal{fill:#fff;font-weight:700}text.nonterminal{fill:#e289a4;font-weight:400}polygon,rect{fill:none;stroke:none}rect.terminal{fill:none;stroke:#be2f5b}rect.nonterminal{fill:rgba(255,255,255,.1);stroke:none}</style></defs><polygon points="9 61 1 57 1 65"/><polygon points="17 61 9 57 9 65"/><rect x="31" y="47" width="70" height="32" rx="10"/><rect x="29" y="45" width="70" height="32" class="terminal" rx="10"/><text class="terminal" x="39" y="65">INSERT</text><rect x="141" y="79" width="56" height="32" rx="10"/><rect x="139" y="77" width="56" height="32" class="terminal" rx="10"/><text class="terminal" x="149" y="97">batch</text><a xmlns:xlink="http://www.w3.org/1999/xlink" xlink:href="#batchCount" xlink:title="batchCount"><rect x="217" y="79" width="92" height="32"/><rect x="215" y="77" width="92" height="32" class="nonterminal"/><text class="nonterminal" x="225" y="97">batchCount</text></a><rect x="349" y="47" width="56" height="32" rx="10"/><rect x="347" y="45" width="56" height="32" class="terminal" rx="10"/><text class="terminal" x="357" y="65">INTO</text><a xmlns:xlink="http://www.w3.org/1999/xlink" xlink:href="#tableName" xlink:title="tableName"><rect x="425" y="47" width="88" height="32"/><rect x="423" y="45" width="88" height="32" class="nonterminal"/><text class="nonterminal" x="433" y="65">tableName</text></a><rect x="553" y="47" width="26" height="32" rx="10"/><rect x="551" y="45" width="26" height="32" class="terminal" rx="10"/><text class="terminal" x="561" y="65">(</text><a xmlns:xlink="http://www.w3.org/1999/xlink" xlink:href="#columnName" xlink:title="columnName"><rect x="619" y="47" width="102" height="32"/><rect x="617" y="45" width="102" height="32" class="nonterminal"/><text class="nonterminal" x="627" y="65">columnName</text></a><rect x="619" y="3" width="24" height="32" rx="10"/><rect x="617" y="1" width="24" height="32" class="terminal" rx="10"/><text class="terminal" x="627" y="21">,</text><rect x="761" y="47" width="26" height="32" rx="10"/><rect x="759" y="45" width="26" height="32" class="terminal" rx="10"/><text class="terminal" x="769" y="65">)</text><rect x="419" y="233" width="72" height="32" rx="10"/><rect x="417" y="231" width="72" height="32" class="terminal" rx="10"/><text class="terminal" x="427" y="251">VALUES</text><rect x="531" y="233" width="26" height="32" rx="10"/><rect x="529" y="231" width="26" height="32" class="terminal" rx="10"/><text class="terminal" x="539" y="251">(</text><a xmlns:xlink="http://www.w3.org/1999/xlink" xlink:href="#value" xlink:title="value"><rect x="597" y="233" width="54" height="32"/><rect x="595" y="231" width="54" height="32" class="nonterminal"/><text class="nonterminal" x="605" y="251">value</text></a><rect x="597" y="189" width="24" height="32" rx="10"/><rect x="595" y="187" width="24" height="32" class="terminal" rx="10"/><text class="terminal" x="605" y="207">,</text><rect x="691" y="233" width="26" height="32" rx="10"/><rect x="689" y="231" width="26" height="32" class="terminal" rx="10"/><text class="terminal" x="699" y="251">)</text><rect x="531" y="145" width="24" height="32" rx="10"/><rect x="529" y="143" width="24" height="32" class="terminal" rx="10"/><text class="terminal" x="539" y="163">,</text><rect x="419" y="277" width="70" height="32" rx="10"/><rect x="417" y="275" width="70" height="32" class="terminal" rx="10"/><text class="terminal" x="427" y="295">SELECT</text><a xmlns:xlink="http://www.w3.org/1999/xlink" xlink:href="#queryDef" xlink:title="queryDef"><rect x="509" y="277" width="78" height="32"/><rect x="507" y="275" width="78" height="32" class="nonterminal"/><text class="nonterminal" x="517" y="295">queryDef</text></a><a xmlns:xlink="http://www.w3.org/1999/xlink" xlink:href="#mainQuery" xlink:title="mainQuery"><rect x="607" y="277" width="88" height="32"/><rect x="605" y="275" width="88" height="32" class="nonterminal"/><text class="nonterminal" x="615" y="295">mainQuery</text></a><rect x="777" y="233" width="24" height="32" rx="10"/><rect x="775" y="231" width="24" height="32" class="terminal" rx="10"/><text class="terminal" x="785" y="251">;</text><path xmlns:svg="http://www.w3.org/2000/svg" d="M17 61h2m0 0h10m70 0h10m20 0h10m0 0h178m-208 0h20m188 0h20m-228 0q10 0 10 10m208 0q0-10 10-10M119 71v12m208 0V71M119 83q0 10 10 10m188 0q10 0 10-10M129 93h10m56 0h10m0 0h10m92 0h10m20-32h10m56 0h10m0 0h10m88 0h10m20 0h10m26 0h10m20 0h10m102 0h10m-142 0h20m-1 0q-9 0-9-10V27q0-10 10-10m122 44h20m-20 0q10 0 10-10V27q0-10-10-10m-122 0h10m24 0h10m0 0h78m20 44h10m26 0h10m-274 0h20m254 0h20m-294 0q10 0 10 10m274 0q0-10 10-10M531 71v14m274 0V71M531 85q0 10 10 10m254 0q10 0 10-10M541 95h10m0 0h244m22-34h2m2 0h2m2 0h2M375 247h2m2 0h2m2 0h2m22 0h10m72 0h10m20 0h10m26 0h10m20 0h10m54 0h10m-94 0h20m-1 0q-9 0-9-10v-24q0-10 10-10m74 44h20m-20 0q10 0 10-10v-24q0-10-10-10m-74 0h10m24 0h10m0 0h30m20 44h10m26 0h10m-226 0h20m-1 0q-9 0-9-10v-68q0-10 10-10m206 88h20m-20 0q10 0 10-10v-68q0-10-10-10m-206 0h10m24 0h10m0 0h162m-338 88h20m338 0h20m-378 0q10 0 10 10m358 0q0-10 10-10m-368 10v24m358 0v-24m-358 24q0 10 10 10m338 0q10 0 10-10m-348 10h10m70 0h10m0 0h10m78 0h10m0 0h10m88 0h10m0 0h42m20-44h10m24 0h10m3 0h-3" fill="none" stroke="#636273"/><polygon points="819 247 827 243 827 251"/><polygon points="819 247 811 243 811 251"/></svg>