<svg xmlns="http://www.w3.org/2000/svg" width="747" height="81"><defs><style type="text/css">@namespace &quot;http://www.w3.org/2000/svg&quot;;text.nonterminal,text.terminal{font-family:-apple-system,BlinkMacSystemFont,&quot;Segoe UI&quot;,Roboto,Ubuntu,Cantarell,Helvetica,sans-serif;font-size:12px}text.terminal{fill:#fff;font-weight:700}text.nonterminal{fill:#e289a4;font-weight:400}polygon,rect{fill:none;stroke:none}rect.terminal{fill:none;stroke:#be2f5b}rect.nonterminal{fill:rgba(255,255,255,.1);stroke:none}</style></defs><polygon points="9 17 1 13 1 21"/><polygon points="17 17 9 13 9 21"/><rect x="31" y="3" width="70" height="32" rx="10"/><rect x="29" y="1" width="70" height="32" class="terminal" rx="10"/><text class="terminal" x="39" y="21">SELECT</text><a xmlns:xlink="http://www.w3.org/1999/xlink" xlink:href="#someSelectStatement" xlink:title="someSelectStatement"><rect x="121" y="3" width="160" height="32"/><rect x="119" y="1" width="160" height="32" class="nonterminal"/><text class="nonterminal" x="129" y="21">someSelectStatement</text></a><rect x="301" y="3" width="60" height="32" rx="10"/><rect x="299" y="1" width="60" height="32" class="terminal" rx="10"/><text class="terminal" x="309" y="21">LIMIT</text><a xmlns:xlink="http://www.w3.org/1999/xlink" xlink:href="#numberOfRecords" xlink:title="numberOfRecords"><rect x="401" y="3" width="132" height="32"/><rect x="399" y="1" width="132" height="32" class="nonterminal"/><text class="nonterminal" x="409" y="21">numberOfRecords</text></a><a xmlns:xlink="http://www.w3.org/1999/xlink" xlink:href="#upperBound" xlink:title="upperBound"><rect x="401" y="47" width="96" height="32"/><rect x="399" y="45" width="96" height="32" class="nonterminal"/><text class="nonterminal" x="409" y="65">lowerBound</text></a><rect x="517" y="47" width="24" height="32" rx="10"/><rect x="515" y="45" width="24" height="32" class="terminal" rx="10"/><text class="terminal" x="525" y="65">,</text><a xmlns:xlink="http://www.w3.org/1999/xlink" xlink:href="#lowerBound" xlink:title="lowerBound"><rect x="561" y="47" width="94" height="32"/><rect x="559" y="45" width="94" height="32" class="nonterminal"/><text class="nonterminal" x="569" y="65">upperBound</text></a><rect x="695" y="3" width="24" height="32" rx="10"/><rect x="693" y="1" width="24" height="32" class="terminal" rx="10"/><text class="terminal" x="703" y="21">;</text><path xmlns:svg="http://www.w3.org/2000/svg" d="M17 17h2m0 0h10m70 0h10m0 0h10m160 0h10m0 0h10m60 0h10m20 0h10m132 0h10m0 0h122m-294 0h20m274 0h20m-314 0q10 0 10 10m294 0q0-10 10-10M379 27v24m294 0V27M379 51q0 10 10 10m274 0q10 0 10-10M389 61h10m96 0h10m0 0h10m24 0h10m0 0h10m94 0h10m20-44h10m24 0h10m3 0h-3" fill="none" stroke="#636273"/><polygon points="737 17 745 13 745 21"/><polygon points="737 17 729 13 729 21"/></svg>