<svg xmlns="http://www.w3.org/2000/svg" width="473" height="37"><defs><style type="text/css">@namespace &quot;http://www.w3.org/2000/svg&quot;;text.nonterminal,text.terminal{font-family:-apple-system,BlinkMacSystemFont,&quot;Segoe UI&quot;,Roboto,Ubuntu,Cantarell,Helvetica,sans-serif;font-size:12px}text.terminal{fill:#fff;font-weight:700}text.nonterminal{fill:#e289a4;font-weight:400}polygon,rect{fill:none;stroke:none}rect.terminal{fill:none;stroke:#be2f5b}rect.nonterminal{fill:rgba(255,255,255,.1);stroke:none}</style></defs><polygon points="9 17 1 13 1 21"/><polygon points="17 17 9 13 9 21"/><rect x="31" y="3" width="76" height="32" rx="10"/><rect x="29" y="1" width="76" height="32" class="terminal" rx="10"/><text class="terminal" x="39" y="21">RENAME</text><rect x="127" y="3" width="62" height="32" rx="10"/><rect x="125" y="1" width="62" height="32" class="terminal" rx="10"/><text class="terminal" x="135" y="21">TABLE</text><a xmlns:xlink="http://www.w3.org/1999/xlink" xlink:href="#oldName" xlink:title="oldName"><rect x="209" y="3" width="76" height="32"/><rect x="207" y="1" width="76" height="32" class="nonterminal"/><text class="nonterminal" x="217" y="21">oldName</text></a><rect x="305" y="3" width="38" height="32" rx="10"/><rect x="303" y="1" width="38" height="32" class="terminal" rx="10"/><text class="terminal" x="313" y="21">TO</text><a xmlns:xlink="http://www.w3.org/1999/xlink" xlink:href="#newName" xlink:title="newName"><rect x="363" y="3" width="82" height="32"/><rect x="361" y="1" width="82" height="32" class="nonterminal"/><text class="nonterminal" x="371" y="21">newName</text></a><path xmlns:svg="http://www.w3.org/2000/svg" d="M17 17h2m0 0h10m76 0h10m0 0h10m62 0h10m0 0h10m76 0h10m0 0h10m38 0h10m0 0h10m82 0h10m3 0h-3" fill="none" stroke="#636273"/><polygon points="463 17 471 13 471 21"/><polygon points="463 17 455 13 455 21"/></svg>