<svg xmlns="http://www.w3.org/2000/svg" width="447" height="125"><defs><style type="text/css">@namespace &quot;http://www.w3.org/2000/svg&quot;;polygon,rect{fill:none;stroke:none}</style></defs><polygon points="9 17 1 13 1 21"/><polygon points="17 17 9 13 9 21"/><rect x="31" y="3" width="138" height="32" rx="10"/><rect x="29" y="1" width="138" height="32" class="terminal" rx="10" fill="none" stroke="#be2f5b"/><text class="terminal" x="39" y="21" font-family="-apple-system,BlinkMacSystemFont,&quot;Segoe UI&quot;,Roboto,Ubuntu,Cantarell,Helvetica,sans-serif" font-size="12" fill="#fff" font-weight="700">TRUNCATE TABLE</text><a xmlns:xlink="http://www.w3.org/1999/xlink" xlink:href="#tableName" xlink:title="tableName"><rect x="189" y="3" width="88" height="32"/><rect x="187" y="1" width="88" height="32" class="nonterminal" fill="rgba(255,255,255,.1)" stroke="none"/><text class="nonterminal" x="197" y="21" font-family="-apple-system,BlinkMacSystemFont,&quot;Segoe UI&quot;,Roboto,Ubuntu,Cantarell,Helvetica,sans-serif" font-size="12" fill="#e289a4" font-weight="400">tableName</text></a><path xmlns:svg="http://www.w3.org/2000/svg" d="M17 17h2m0 0h10m138 0h10m0 0h10m88 0h10m3 0h-3" fill="none" stroke="#636273"/><polygon points="295 17 303 13 303 21"/><polygon points="295 17 287 13 287 21"/></svg>