<svg xmlns="http://www.w3.org/2000/svg" width="427" height="37"><defs><style type="text/css">@namespace &quot;http://www.w3.org/2000/svg&quot;;text.nonterminal,text.terminal{font-family:-apple-system,BlinkMacSystemFont,&quot;Segoe UI&quot;,Roboto,Ubuntu,Cantarell,Helvetica,sans-serif;font-size:12px}text.terminal{fill:#fff;font-weight:700}text.nonterminal{fill:#e289a4;font-weight:400}polygon,rect{fill:none;stroke:none}rect.terminal{fill:none;stroke:#be2f5b}rect.nonterminal{fill:rgba(255,255,255,.1);stroke:none}</style></defs><polygon points="9 17 1 13 1 21"/><polygon points="17 17 9 13 9 21"/><rect x="31" y="3" width="70" height="32" rx="10"/><rect x="29" y="1" width="70" height="32" class="terminal" rx="10"/><text class="terminal" x="39" y="21">WHERE</text><a xmlns:xlink="http://www.w3.org/1999/xlink" xlink:href="#column" xlink:title="column"><rect x="121" y="3" width="64" height="32"/><rect x="119" y="1" width="64" height="32" class="nonterminal"/><text class="nonterminal" x="129" y="21">column</text></a><rect x="205" y="3" width="30" height="32" rx="10"/><rect x="203" y="1" width="30" height="32" class="terminal" rx="10"/><text class="terminal" x="213" y="21">=</text><rect x="255" y="3" width="24" height="32" rx="10"/><rect x="253" y="1" width="24" height="32" class="terminal" rx="10"/><text class="terminal" x="263" y="21">&apos;</text><a xmlns:xlink="http://www.w3.org/1999/xlink" xlink:href="#string" xlink:title="string"><rect x="299" y="3" width="56" height="32"/><rect x="297" y="1" width="56" height="32" class="nonterminal"/><text class="nonterminal" x="307" y="21">string</text></a><rect x="375" y="3" width="24" height="32" rx="10"/><rect x="373" y="1" width="24" height="32" class="terminal" rx="10"/><text class="terminal" x="383" y="21">&apos;</text><path xmlns:svg="http://www.w3.org/2000/svg" d="M17 17h2m0 0h10m70 0h10m0 0h10m64 0h10m0 0h10m30 0h10m0 0h10m24 0h10m0 0h10m56 0h10m0 0h10m24 0h10m3 0h-3" fill="none" stroke="#636273"/><polygon points="417 17 425 13 425 21"/><polygon points="417 17 409 13 409 21"/></svg>