<svg xmlns="http://www.w3.org/2000/svg" width="619" height="113"><defs><style type="text/css">@namespace &quot;http://www.w3.org/2000/svg&quot;;text.nonterminal,text.terminal{font-family:-apple-system,BlinkMacSystemFont,&quot;Segoe UI&quot;,Roboto,Ubuntu,Cantarell,Helvetica,sans-serif;font-size:12px}text.terminal{fill:#fff;font-weight:700}text.nonterminal{fill:#e289a4;font-weight:400}polygon,rect{fill:none;stroke:none}rect.terminal{fill:none;stroke:#be2f5b}rect.nonterminal{fill:rgba(255,255,255,.1);stroke:none}</style></defs><polygon points="9 61 1 57 1 65"/><polygon points="17 61 9 57 9 65"/><rect x="31" y="47" width="70" height="32" rx="10"/><rect x="29" y="45" width="70" height="32" class="terminal" rx="10"/><text class="terminal" x="39" y="65">WHERE</text><rect x="141" y="79" width="48" height="32" rx="10"/><rect x="139" y="77" width="48" height="32" class="terminal" rx="10"/><text class="terminal" x="149" y="97">NOT</text><a xmlns:xlink="http://www.w3.org/1999/xlink" xlink:href="#columnName" xlink:title="columnName"><rect x="229" y="47" width="102" height="32"/><rect x="227" y="45" width="102" height="32" class="nonterminal"/><text class="nonterminal" x="237" y="65">columnName</text></a><rect x="351" y="47" width="32" height="32" rx="10"/><rect x="349" y="45" width="32" height="32" class="terminal" rx="10"/><text class="terminal" x="359" y="65">in</text><rect x="403" y="47" width="26" height="32" rx="10"/><rect x="401" y="45" width="26" height="32" class="terminal" rx="10"/><text class="terminal" x="411" y="65">(</text><a xmlns:xlink="http://www.w3.org/1999/xlink" xlink:href="#string" xlink:title="string"><rect x="469" y="47" width="56" height="32"/><rect x="467" y="45" width="56" height="32" class="nonterminal"/><text class="nonterminal" x="477" y="65">string</text></a><rect x="469" y="3" width="24" height="32" rx="10"/><rect x="467" y="1" width="24" height="32" class="terminal" rx="10"/><text class="terminal" x="477" y="21">,</text><rect x="565" y="47" width="26" height="32" rx="10"/><rect x="563" y="45" width="26" height="32" class="terminal" rx="10"/><text class="terminal" x="573" y="65">)</text><path xmlns:svg="http://www.w3.org/2000/svg" d="M17 61h2m0 0h10m70 0h10m20 0h10m0 0h58m-88 0h20m68 0h20m-108 0q10 0 10 10m88 0q0-10 10-10m-98 10v12m88 0V71m-88 12q0 10 10 10m68 0q10 0 10-10m-78 10h10m48 0h10m20-32h10m102 0h10m0 0h10m32 0h10m0 0h10m26 0h10m20 0h10m56 0h10m-96 0h20m-1 0q-9 0-9-10V27q0-10 10-10m76 44h20m-20 0q10 0 10-10V27q0-10-10-10m-76 0h10m24 0h10m0 0h32m20 44h10m26 0h10m3 0h-3" fill="none" stroke="#636273"/><polygon points="609 61 617 57 617 65"/><polygon points="609 61 601 57 601 65"/></svg>