<svg xmlns="http://www.w3.org/2000/svg" width="567" height="257"><defs><style type="text/css">@namespace &quot;http://www.w3.org/2000/svg&quot;;text.terminal{font-family:-apple-system,BlinkMacSystemFont,&quot;Segoe UI&quot;,Roboto,Ubuntu,Cantarell,Helvetica,sans-serif;font-size:12px;fill:#fff;font-weight:700}polygon,rect{fill:none;stroke:none}rect.terminal{fill:none;stroke:#be2f5b}</style></defs><polygon points="9 17 1 13 1 21"/><polygon points="17 17 9 13 9 21"/><rect x="31" y="3" width="70" height="32" rx="10"/><rect x="29" y="1" width="70" height="32" class="terminal" rx="10"/><text class="terminal" x="39" y="21">WHERE</text><a xmlns:xlink="http://www.w3.org/1999/xlink" xlink:href="#timestampColumn" xlink:title="timestampColumn"><rect x="121" y="3" width="134" height="32"/><rect x="119" y="1" width="134" height="32" class="nonterminal" fill="rgba(255,255,255,.1)" stroke="none"/><text class="nonterminal" x="129" y="21" font-family="-apple-system,BlinkMacSystemFont,&quot;Segoe UI&quot;,Roboto,Ubuntu,Cantarell,Helvetica,sans-serif" font-size="12" fill="#e289a4" font-weight="400">timestampColumn</text></a><rect x="275" y="3" width="30" height="32" rx="10"/><rect x="273" y="1" width="30" height="32" class="terminal" rx="10"/><text class="terminal" x="283" y="21">IN</text><rect x="345" y="3" width="52" height="32" rx="10"/><rect x="343" y="1" width="52" height="32" class="terminal" rx="10"/><text class="terminal" x="353" y="21">yyyy</text><rect x="345" y="47" width="80" height="32" rx="10"/><rect x="343" y="45" width="80" height="32" class="terminal" rx="10"/><text class="terminal" x="353" y="65">yyyy-MM</text><rect x="345" y="91" width="106" height="32" rx="10"/><rect x="343" y="89" width="106" height="32" class="terminal" rx="10"/><text class="terminal" x="353" y="109">YYYY-MM-dd</text><rect x="345" y="135" width="126" height="32" rx="10"/><rect x="343" y="133" width="126" height="32" class="terminal" rx="10"/><text class="terminal" x="353" y="153">yyyy-MM-ddThh</text><rect x="345" y="179" width="156" height="32" rx="10"/><rect x="343" y="177" width="156" height="32" class="terminal" rx="10"/><text class="terminal" x="353" y="197">yyyy-MM-ddThh:mm</text><rect x="345" y="223" width="174" height="32" rx="10"/><rect x="343" y="221" width="174" height="32" class="terminal" rx="10"/><text class="terminal" x="353" y="241">yyyy-MM-ddThh:mm:ss</text><path xmlns:svg="http://www.w3.org/2000/svg" d="M17 17h2m0 0h10m70 0h10m0 0h10m134 0h10m0 0h10m30 0h10m20 0h10m52 0h10m0 0h122m-214 0h20m194 0h20m-234 0q10 0 10 10m214 0q0-10 10-10M323 27v24m214 0V27M323 51q0 10 10 10m194 0q10 0 10-10M333 61h10m80 0h10m0 0h94M323 51v20m214 0V51M323 71v24m214 0V71M323 95q0 10 10 10m194 0q10 0 10-10m-204 10h10m106 0h10m0 0h68M323 95v20m214 0V95m-214 20v24m214 0v-24m-214 24q0 10 10 10m194 0q10 0 10-10m-204 10h10m126 0h10m0 0h48m-204-10v20m214 0v-20m-214 20v24m214 0v-24m-214 24q0 10 10 10m194 0q10 0 10-10m-204 10h10m156 0h10m0 0h18m-204-10v20m214 0v-20m-214 20v24m214 0v-24m-214 24q0 10 10 10m194 0q10 0 10-10m-204 10h10m174 0h10m23-220h-3" fill="none" stroke="#636273"/><polygon points="557 17 565 13 565 21"/><polygon points="557 17 549 13 549 21"/></svg>