<svg xmlns="http://www.w3.org/2000/svg" width="619" height="37"><defs><style type="text/css">@namespace &quot;http://www.w3.org/2000/svg&quot;;text.nonterminal,text.terminal{font-family:-apple-system,BlinkMacSystemFont,&quot;Segoe UI&quot;,Roboto,Ubuntu,Cantarell,Helvetica,sans-serif;font-size:12px}text.terminal{fill:#fff;font-weight:700}text.nonterminal{fill:#e289a4;font-weight:400}polygon,rect{fill:none;stroke:none}rect.terminal{fill:none;stroke:#be2f5b}rect.nonterminal{fill:rgba(255,255,255,.1);stroke:none}</style></defs><polygon points="9 17 1 13 1 21"/><polygon points="17 17 9 13 9 21"/><rect x="31" y="3" width="70" height="32" rx="10"/><rect x="29" y="1" width="70" height="32" class="terminal" rx="10"/><text class="terminal" x="39" y="21">WHERE</text><rect x="121" y="3" width="36" height="32" rx="10"/><rect x="119" y="1" width="36" height="32" class="terminal" rx="10"/><text class="terminal" x="129" y="21">eq</text><rect x="177" y="3" width="26" height="32" rx="10"/><rect x="175" y="1" width="26" height="32" class="terminal" rx="10"/><text class="terminal" x="185" y="21">(</text><a xmlns:xlink="http://www.w3.org/1999/xlink" xlink:href="#column" xlink:title="column"><rect x="223" y="3" width="64" height="32"/><rect x="221" y="1" width="64" height="32" class="nonterminal"/><text class="nonterminal" x="231" y="21">column</text></a><rect x="307" y="3" width="24" height="32" rx="10"/><rect x="305" y="1" width="24" height="32" class="terminal" rx="10"/><text class="terminal" x="315" y="21">,</text><a xmlns:xlink="http://www.w3.org/1999/xlink" xlink:href="#value" xlink:title="value"><rect x="351" y="3" width="54" height="32"/><rect x="349" y="1" width="54" height="32" class="nonterminal"/><text class="nonterminal" x="359" y="21">value</text></a><rect x="425" y="3" width="24" height="32" rx="10"/><rect x="423" y="1" width="24" height="32" class="terminal" rx="10"/><text class="terminal" x="433" y="21">,</text><a xmlns:xlink="http://www.w3.org/1999/xlink" xlink:href="#precision" xlink:title="precision"><rect x="469" y="3" width="76" height="32"/><rect x="467" y="1" width="76" height="32" class="nonterminal"/><text class="nonterminal" x="477" y="21">precision</text></a><rect x="565" y="3" width="26" height="32" rx="10"/><rect x="563" y="1" width="26" height="32" class="terminal" rx="10"/><text class="terminal" x="573" y="21">)</text><path xmlns:svg="http://www.w3.org/2000/svg" d="M17 17h2m0 0h10m70 0h10m0 0h10m36 0h10m0 0h10m26 0h10m0 0h10m64 0h10m0 0h10m24 0h10m0 0h10m54 0h10m0 0h10m24 0h10m0 0h10m76 0h10m0 0h10m26 0h10m3 0h-3" fill="none" stroke="#636273"/><polygon points="609 17 617 13 617 21"/><polygon points="609 17 601 13 601 21"/></svg>