<svg xmlns="http://www.w3.org/2000/svg" width="387" height="257"><defs><style type="text/css">@namespace &quot;http://www.w3.org/2000/svg&quot;;text.nonterminal,text.terminal{font-family:-apple-system,BlinkMacSystemFont,&quot;Segoe UI&quot;,Roboto,Ubuntu,Cantarell,Helvetica,sans-serif;font-size:12px}text.terminal{fill:#fff;font-weight:700}text.nonterminal{fill:#e289a4;font-weight:400}polygon,rect{fill:none;stroke:none}rect.terminal{fill:none;stroke:#be2f5b}rect.nonterminal{fill:rgba(255,255,255,.1);stroke:none}</style></defs><polygon points="9 17 1 13 1 21"/><polygon points="17 17 9 13 9 21"/><rect x="31" y="3" width="70" height="32" rx="10"/><rect x="29" y="1" width="70" height="32" class="terminal" rx="10"/><text class="terminal" x="39" y="21">WHERE</text><a xmlns:xlink="http://www.w3.org/1999/xlink" xlink:href="#column" xlink:title="column"><rect x="121" y="3" width="64" height="32"/><rect x="119" y="1" width="64" height="32" class="nonterminal"/><text class="nonterminal" x="129" y="21">column</text></a><rect x="225" y="3" width="30" height="32" rx="10"/><rect x="223" y="1" width="30" height="32" class="terminal" rx="10"/><text class="terminal" x="233" y="21">=</text><rect x="225" y="47" width="34" height="32" rx="10"/><rect x="223" y="45" width="34" height="32" class="terminal" rx="10"/><text class="terminal" x="233" y="65">!=</text><rect x="225" y="91" width="30" height="32" rx="10"/><rect x="223" y="89" width="30" height="32" class="terminal" rx="10"/><text class="terminal" x="233" y="109">&gt;</text><rect x="225" y="135" width="40" height="32" rx="10"/><rect x="223" y="133" width="40" height="32" class="terminal" rx="10"/><text class="terminal" x="233" y="153">&gt;=</text><rect x="225" y="179" width="30" height="32" rx="10"/><rect x="223" y="177" width="30" height="32" class="terminal" rx="10"/><text class="terminal" x="233" y="197">&lt;</text><rect x="225" y="223" width="40" height="32" rx="10"/><rect x="223" y="221" width="40" height="32" class="terminal" rx="10"/><text class="terminal" x="233" y="241">&lt;=</text><a xmlns:xlink="http://www.w3.org/1999/xlink" xlink:href="#value" xlink:title="value"><rect x="305" y="3" width="54" height="32"/><rect x="303" y="1" width="54" height="32" class="nonterminal"/><text class="nonterminal" x="313" y="21">value</text></a><path xmlns:svg="http://www.w3.org/2000/svg" d="M17 17h2m0 0h10m70 0h10m0 0h10m64 0h10m20 0h10m30 0h10m0 0h10m-80 0h20m60 0h20m-100 0q10 0 10 10m80 0q0-10 10-10m-90 10v24m80 0V27m-80 24q0 10 10 10m60 0q10 0 10-10m-70 10h10m34 0h10m0 0h6m-70-10v20m80 0V51m-80 20v24m80 0V71m-80 24q0 10 10 10m60 0q10 0 10-10m-70 10h10m30 0h10m0 0h10m-70-10v20m80 0V95m-80 20v24m80 0v-24m-80 24q0 10 10 10m60 0q10 0 10-10m-70 10h10m40 0h10m-70-10v20m80 0v-20m-80 20v24m80 0v-24m-80 24q0 10 10 10m60 0q10 0 10-10m-70 10h10m30 0h10m0 0h10m-70-10v20m80 0v-20m-80 20v24m80 0v-24m-80 24q0 10 10 10m60 0q10 0 10-10m-70 10h10m40 0h10m20-220h10m54 0h10m3 0h-3" fill="none" stroke="#636273"/><polygon points="377 17 385 13 385 21"/><polygon points="377 17 369 13 369 21"/></svg>