<svg xmlns="http://www.w3.org/2000/svg" width="805" height="600"><defs><style type="text/css">@namespace &quot;http://www.w3.org/2000/svg&quot;;text.nonterminal,text.terminal{font-family:-apple-system,BlinkMacSystemFont,&quot;Segoe UI&quot;,Roboto,Ubuntu,Cantarell,Helvetica,sans-serif;font-size:12px}text.terminal{fill:#fff;font-weight:700}text.nonterminal{fill:#e289a4;font-weight:400}polygon,rect{fill:none;stroke:none}rect.terminal{fill:none;stroke:#be2f5b}rect.nonterminal{fill:rgba(255,255,255,.1);stroke:none}</style></defs><polygon points="9 17 1 13 1 21"/><polygon points="17 17 9 13 9 21"/><rect x="31" y="3" width="70" height="32" rx="10"/><rect x="29" y="1" width="70" height="32" class="terminal" rx="10"/><text class="terminal" x="39" y="21">WHERE</text><a xmlns:xlink="http://www.w3.org/1999/xlink" xlink:href="#timestampColumn" xlink:title="timestampColumn"><rect x="121" y="3" width="134" height="32"/><rect x="119" y="1" width="134" height="32" class="nonterminal"/><text class="nonterminal" x="129" y="21">timestampColumn</text></a><rect x="275" y="3" width="36" height="32" rx="10"/><rect x="273" y="1" width="36" height="32" class="terminal" rx="10"/><text class="terminal" x="283" y="21">IN</text><rect x="331" y="3" width="24" height="32" rx="10"/><rect x="329" y="1" width="24" height="32" class="terminal" rx="10"/><text class="terminal" x="339" y="21">&apos;</text><a xmlns:xlink="http://www.w3.org/1999/xlink" xlink:href="#timestamp" xlink:title="timestamp"><rect x="375" y="3" width="88" height="32"/><rect x="373" y="1" width="88" height="32" class="nonterminal"/><text class="nonterminal" x="383" y="21">timestamp</text></a><rect x="483" y="3" width="24" height="32" rx="10"/><rect x="481" y="1" width="24" height="32" class="terminal" rx="10"/><text class="terminal" x="491" y="21">;</text><a xmlns:xlink="http://www.w3.org/1999/xlink" xlink:href="#modifier" xlink:title="modifier"><rect x="527" y="3" width="78" height="32"/><rect x="525" y="1" width="78" height="32" class="nonterminal"/><text class="nonterminal" x="535" y="21">modifier</text></a><a xmlns:xlink="http://www.w3.org/1999/xlink" xlink:href="#s" xlink:title="s"><rect x="645" y="3" width="26" height="32"/><rect x="643" y="1" width="26" height="32" class="nonterminal"/><text class="nonterminal" x="653" y="21">s</text></a><a xmlns:xlink="http://www.w3.org/1999/xlink" xlink:href="#m" xlink:title="m"><rect x="645" y="47" width="32" height="32"/><rect x="643" y="45" width="32" height="32" class="nonterminal"/><text class="nonterminal" x="653" y="65">m</text></a><a xmlns:xlink="http://www.w3.org/1999/xlink" xlink:href="#h" xlink:title="h"><rect x="645" y="91" width="28" height="32"/><rect x="643" y="89" width="28" height="32" class="nonterminal"/><text class="nonterminal" x="653" y="109">h</text></a><a xmlns:xlink="http://www.w3.org/1999/xlink" xlink:href="#d" xlink:title="d"><rect x="645" y="135" width="28" height="32"/><rect x="643" y="133" width="28" height="32" class="nonterminal"/><text class="nonterminal" x="653" y="153">d</text></a><a xmlns:xlink="http://www.w3.org/1999/xlink" xlink:href="#M" xlink:title="M"><rect x="645" y="179" width="30" height="32"/><rect x="643" y="177" width="30" height="32" class="nonterminal"/><text class="nonterminal" x="653" y="197">M</text></a><a xmlns:xlink="http://www.w3.org/1999/xlink" xlink:href="#y" xlink:title="y"><rect x="645" y="223" width="26" height="32"/><rect x="643" y="221" width="26" height="32" class="nonterminal"/><text class="nonterminal" x="653" y="241">y</text></a><rect x="717" y="3" width="24" height="32" rx="10"/><rect x="715" y="1" width="24" height="32" class="terminal" rx="10"/><text class="terminal" x="725" y="21">;</text><a xmlns:xlink="http://www.w3.org/1999/xlink" xlink:href="#interval" xlink:title="interval"><rect x="365" y="321" width="68" height="32"/><rect x="363" y="319" width="68" height="32" class="nonterminal"/><text class="nonterminal" x="373" y="339">interval</text></a><a xmlns:xlink="http://www.w3.org/1999/xlink" xlink:href="#s" xlink:title="s"><rect x="473" y="321" width="26" height="32"/><rect x="471" y="319" width="26" height="32" class="nonterminal"/><text class="nonterminal" x="481" y="339">s</text></a><a xmlns:xlink="http://www.w3.org/1999/xlink" xlink:href="#m" xlink:title="m"><rect x="473" y="365" width="32" height="32"/><rect x="471" y="363" width="32" height="32" class="nonterminal"/><text class="nonterminal" x="481" y="383">m</text></a><a xmlns:xlink="http://www.w3.org/1999/xlink" xlink:href="#h" xlink:title="h"><rect x="473" y="409" width="28" height="32"/><rect x="471" y="407" width="28" height="32" class="nonterminal"/><text class="nonterminal" x="481" y="427">h</text></a><a xmlns:xlink="http://www.w3.org/1999/xlink" xlink:href="#d" xlink:title="d"><rect x="473" y="453" width="28" height="32"/><rect x="471" y="451" width="28" height="32" class="nonterminal"/><text class="nonterminal" x="481" y="471">d</text></a><a xmlns:xlink="http://www.w3.org/1999/xlink" xlink:href="#M" xlink:title="M"><rect x="473" y="497" width="30" height="32"/><rect x="471" y="495" width="30" height="32" class="nonterminal"/><text class="nonterminal" x="481" y="515">M</text></a><a xmlns:xlink="http://www.w3.org/1999/xlink" xlink:href="#y" xlink:title="y"><rect x="473" y="541" width="26" height="32"/><rect x="471" y="539" width="26" height="32" class="nonterminal"/><text class="nonterminal" x="481" y="559">y</text></a><rect x="545" y="321" width="24" height="32" rx="10"/><rect x="543" y="319" width="24" height="32" class="terminal" rx="10"/><text class="terminal" x="553" y="339">;</text><a xmlns:xlink="http://www.w3.org/1999/xlink" xlink:href="#repetition" xlink:title="repetition"><rect x="589" y="321" width="82" height="32"/><rect x="587" y="319" width="82" height="32" class="nonterminal"/><text class="nonterminal" x="597" y="339">repetition</text></a><rect x="711" y="289" width="24" height="32" rx="10"/><rect x="709" y="287" width="24" height="32" class="terminal" rx="10"/><text class="terminal" x="719" y="307">&apos;</text><path xmlns:svg="http://www.w3.org/2000/svg" d="M17 17h2m0 0h10m70 0h10m0 0h10m134 0h10m0 0h10m36 0h10m0 0h10m24 0h10m0 0h10m88 0h10m0 0h10m24 0h10m0 0h10m78 0h10m20 0h10m26 0h10m0 0h6m-72 0h20m52 0h20m-92 0q10 0 10 10m72 0q0-10 10-10m-82 10v24m72 0V27m-72 24q0 10 10 10m52 0q10 0 10-10m-62 10h10m32 0h10m-62-10v20m72 0V51m-72 20v24m72 0V71m-72 24q0 10 10 10m52 0q10 0 10-10m-62 10h10m28 0h10m0 0h4m-62-10v20m72 0V95m-72 20v24m72 0v-24m-72 24q0 10 10 10m52 0q10 0 10-10m-62 10h10m28 0h10m0 0h4m-62-10v20m72 0v-20m-72 20v24m72 0v-24m-72 24q0 10 10 10m52 0q10 0 10-10m-62 10h10m30 0h10m0 0h2m-62-10v20m72 0v-20m-72 20v24m72 0v-24m-72 24q0 10 10 10m52 0q10 0 10-10m-62 10h10m26 0h10m0 0h6m20-220h10m24 0h10m2 0h2m2 0h2m2 0h2M321 303h2m2 0h2m2 0h2m22 0h10m0 0h316m-346 0h20m326 0h20m-366 0q10 0 10 10m346 0q0-10 10-10m-356 10v12m346 0v-12m-346 12q0 10 10 10m326 0q10 0 10-10m-336 10h10m68 0h10m20 0h10m26 0h10m0 0h6m-72 0h20m52 0h20m-92 0q10 0 10 10m72 0q0-10 10-10m-82 10v24m72 0v-24m-72 24q0 10 10 10m52 0q10 0 10-10m-62 10h10m32 0h10m-62-10v20m72 0v-20m-72 20v24m72 0v-24m-72 24q0 10 10 10m52 0q10 0 10-10m-62 10h10m28 0h10m0 0h4m-62-10v20m72 0v-20m-72 20v24m72 0v-24m-72 24q0 10 10 10m52 0q10 0 10-10m-62 10h10m28 0h10m0 0h4m-62-10v20m72 0v-20m-72 20v24m72 0v-24m-72 24q0 10 10 10m52 0q10 0 10-10m-62 10h10m30 0h10m0 0h2m-62-10v20m72 0v-20m-72 20v24m72 0v-24m-72 24q0 10 10 10m52 0q10 0 10-10m-62 10h10m26 0h10m0 0h6m20-220h10m24 0h10m0 0h10m82 0h10m20-32h10m24 0h10m3 0h-3" fill="none" stroke="#636273"/><polygon points="753 303 761 299 761 307"/><polygon points="753 303 745 299 745 307"/></svg>