<svg xmlns="http://www.w3.org/2000/svg" width="980" height="180"><defs><style type="text/css">@namespace &quot;http://www.w3.org/2000/svg&quot;;text.nonterminal,text.terminal{font-family:-apple-system,BlinkMacSystemFont,&quot;Segoe UI&quot;,Roboto,Ubuntu,Cantarell,Helvetica,sans-serif;font-size:12px}text.terminal{fill:#fff;font-weight:700}text.nonterminal{fill:#e289a4;font-weight:400}polygon,rect{fill:none;stroke:none}rect.terminal{fill:none;stroke:#be2f5b}rect.nonterminal{fill:rgba(255,255,255,.1);stroke:none}</style></defs><polygon points="9 61 1 57 1 65"/><polygon points="17 61 9 57 9 65"/><rect x="51" y="47" width="58" height="32" rx="10"/><rect x="49" y="45" width="58" height="32" class="terminal" rx="10"/><text class="terminal" x="59" y="65">WITH</text><a xmlns:xlink="http://www.w3.org/1999/xlink" xlink:href="#subQueryName" xlink:title="subQueryName"><rect x="149" y="47" width="116" height="32"/><rect x="147" y="45" width="116" height="32" class="nonterminal"/><text class="nonterminal" x="157" y="65">subQueryName</text></a><rect x="285" y="47" width="38" height="32" rx="10"/><rect x="283" y="45" width="38" height="32" class="terminal" rx="10"/><text class="terminal" x="293" y="65">AS</text><rect x="343" y="47" width="26" height="32" rx="10"/><rect x="341" y="45" width="26" height="32" class="terminal" rx="10"/><text class="terminal" x="351" y="65">(</text><a xmlns:xlink="http://www.w3.org/1999/xlink" xlink:href="#subQuery" xlink:title="subQuery"><rect x="389" y="47" width="80" height="32"/><rect x="387" y="45" width="80" height="32" class="nonterminal"/><text class="nonterminal" x="397" y="65">subQuery</text></a><rect x="489" y="47" width="26" height="32" rx="10"/><rect x="487" y="45" width="26" height="32" class="terminal" rx="10"/><text class="terminal" x="497" y="65">)</text><rect x="149" y="3" width="24" height="32" rx="10"/><rect x="147" y="1" width="24" height="32" class="terminal" rx="10"/><text class="terminal" x="157" y="21">,</text><rect x="575" y="47" width="70" height="32" rx="10"/><rect x="573" y="45" width="70" height="32" class="terminal" rx="10"/><text class="terminal" x="583" y="65">INSERT</text><rect x="685" y="79" width="56" height="32" rx="10"/><rect x="683" y="77" width="56" height="32" class="terminal" rx="10"/><text class="terminal" x="693" y="97">batch</text><a xmlns:xlink="http://www.w3.org/1999/xlink" xlink:href="#batchCount" xlink:title="batchCount"><rect x="761" y="79" width="92" height="32"/><rect x="759" y="77" width="92" height="32" class="nonterminal"/><text class="nonterminal" x="769" y="97">batchCount</text></a><rect x="893" y="47" width="56" height="32" rx="10"/><rect x="891" y="45" width="56" height="32" class="terminal" rx="10"/><text class="terminal" x="901" y="65">INTO</text><a xmlns:xlink="http://www.w3.org/1999/xlink" xlink:href="#tableName" xlink:title="tableName"><rect x="487" y="145" width="88" height="32"/><rect x="485" y="143" width="88" height="32" class="nonterminal"/><text class="nonterminal" x="495" y="163">tableName</text></a><rect x="595" y="145" width="70" height="32" rx="10"/><rect x="593" y="143" width="70" height="32" class="terminal" rx="10"/><text class="terminal" x="603" y="163">SELECT</text><a xmlns:xlink="http://www.w3.org/1999/xlink" xlink:href="#queryDef" xlink:title="queryDef"><rect x="685" y="145" width="78" height="32"/><rect x="683" y="143" width="78" height="32" class="nonterminal"/><text class="nonterminal" x="693" y="163">queryDef</text></a><a xmlns:xlink="http://www.w3.org/1999/xlink" xlink:href="#subQueryName" xlink:title="subQueryName"><rect x="783" y="145" width="116" height="32"/><rect x="781" y="143" width="116" height="32" class="nonterminal"/><text class="nonterminal" x="791" y="163">subQueryName</text></a><rect x="919" y="145" width="24" height="32" rx="10"/><rect x="917" y="143" width="24" height="32" class="terminal" rx="10"/><text class="terminal" x="927" y="163">;</text><path xmlns:svg="http://www.w3.org/2000/svg" d="M17 61h2m20 0h10m58 0h10m20 0h10m116 0h10m0 0h10m38 0h10m0 0h10m26 0h10m0 0h10m80 0h10m0 0h10m26 0h10m-406 0h20m-1 0q-9 0-9-10V27q0-10 10-10m386 44h20m-20 0q10 0 10-10V27q0-10-10-10m-386 0h10m24 0h10m0 0h342M19 61h20m504 0h20M19 61q10 0 10 10m524 0q0-10 10-10M29 71v14m524 0V71M29 85q0 10 10 10m504 0q10 0 10-10M39 95h10m0 0h494m20-34h10m70 0h10m20 0h10m0 0h178m-208 0h20m188 0h20m-228 0q10 0 10 10m208 0q0-10 10-10M663 71v12m208 0V71M663 83q0 10 10 10m188 0q10 0 10-10M673 93h10m56 0h10m0 0h10m92 0h10m20-32h10m56 0h10m2 0h2m2 0h2m2 0h2m-506 98h2m2 0h2m2 0h2m2 0h10m88 0h10m0 0h10m70 0h10m0 0h10m78 0h10m0 0h10m116 0h10m0 0h10m24 0h10m3 0h-3" fill="none" stroke="#636273"/><polygon points="961 159 969 155 969 163"/><polygon points="961 159 953 155 953 163"/></svg>