<svg xmlns="http://www.w3.org/2000/svg" width="651" height="170"><defs><style type="text/css">@namespace &quot;http://www.w3.org/2000/svg&quot;;text.nonterminal,text.terminal{font-family:-apple-system,BlinkMacSystemFont,&quot;Segoe UI&quot;,Roboto,Ubuntu,Cantarell,Helvetica,sans-serif;font-size:12px}text.terminal{fill:#fff;font-weight:700}text.nonterminal{fill:#e289a4;font-weight:400}polygon,rect{fill:none;stroke:none}rect.terminal{fill:none;stroke:#be2f5b}rect.nonterminal{fill:rgba(255,255,255,.1);stroke:none}</style></defs><polygon points="9 61 1 57 1 65"/><polygon points="17 61 9 57 9 65"/><rect x="31" y="47" width="58" height="32" rx="10"/><rect x="29" y="45" width="58" height="32" class="terminal" rx="10"/><text class="terminal" x="39" y="65">WITH</text><a xmlns:xlink="http://www.w3.org/1999/xlink" xlink:href="#alias" xlink:title="alias"><rect x="129" y="47" width="50" height="32"/><rect x="127" y="45" width="50" height="32" class="nonterminal"/><text class="nonterminal" x="137" y="65">alias</text></a><rect x="199" y="47" width="38" height="32" rx="10"/><rect x="197" y="45" width="38" height="32" class="terminal" rx="10"/><text class="terminal" x="207" y="65">AS</text><rect x="257" y="47" width="26" height="32" rx="10"/><rect x="255" y="45" width="26" height="32" class="terminal" rx="10"/><text class="terminal" x="265" y="65">(</text><a xmlns:xlink="http://www.w3.org/1999/xlink" xlink:href="#subQuery" xlink:title="subQuery"><rect x="303" y="47" width="80" height="32"/><rect x="301" y="45" width="80" height="32" class="nonterminal"/><text class="nonterminal" x="311" y="65">subQuery</text></a><rect x="403" y="47" width="26" height="32" rx="10"/><rect x="401" y="45" width="26" height="32" class="terminal" rx="10"/><text class="terminal" x="411" y="65">)</text><rect x="129" y="3" width="24" height="32" rx="10"/><rect x="127" y="1" width="24" height="32" class="terminal" rx="10"/><text class="terminal" x="137" y="21">,</text><rect x="489" y="47" width="70" height="32" rx="10"/><rect x="487" y="45" width="70" height="32" class="terminal" rx="10"/><text class="terminal" x="497" y="65">SELECT</text><rect x="489" y="91" width="74" height="32" rx="10"/><rect x="487" y="89" width="74" height="32" class="terminal" rx="10"/><text class="terminal" x="497" y="109">UPDATE</text><rect x="489" y="135" width="70" height="32" rx="10"/><rect x="487" y="133" width="70" height="32" class="terminal" rx="10"/><text class="terminal" x="497" y="153">INSERT</text><path xmlns:svg="http://www.w3.org/2000/svg" d="M17 61h2m0 0h10m58 0h10m20 0h10m50 0h10m0 0h10m38 0h10m0 0h10m26 0h10m0 0h10m80 0h10m0 0h10m26 0h10M97 61h20m-1 0q-9 0-9-10V27q0-10 10-10m320 44h20m-20 0q10 0 10-10V27q0-10-10-10m-320 0h10m24 0h10m0 0h276m40 44h10m70 0h10m0 0h4m-114 0h20m94 0h20m-134 0q10 0 10 10m114 0q0-10 10-10M467 71v24m114 0V71M467 95q0 10 10 10m94 0q10 0 10-10m-104 10h10m74 0h10M467 95v20m114 0V95m-114 20v24m114 0v-24m-114 24q0 10 10 10m94 0q10 0 10-10m-104 10h10m70 0h10m0 0h4m23-88h-3" fill="none" stroke="#636273"/><polygon points="601 61 609 57 609 65"/><polygon points="601 61 593 57 593 65"/></svg>