<svg xmlns="http://www.w3.org/2000/svg" width="980" height="400"><defs><style type="text/css">@namespace &quot;http://www.w3.org/2000/svg&quot;;text.nonterminal,text.terminal{font-family:-apple-system,BlinkMacSystemFont,&quot;Segoe UI&quot;,Roboto,Ubuntu,Cantarell,Helvetica,sans-serif;font-size:12px}text.terminal{fill:#fff;font-weight:700}text.nonterminal{fill:#e289a4;font-weight:400}polygon,rect{fill:none;stroke:none}rect.terminal{fill:none;stroke:#be2f5b}rect.nonterminal{fill:rgba(255,255,255,.1);stroke:none}</style></defs><polygon points="9 61 1 57 1 65"/><polygon points="17 61 9 57 9 65"/><rect x="51" y="47" width="58" height="32" rx="10"/><rect x="49" y="45" width="58" height="32" class="terminal" rx="10"/><text class="terminal" x="59" y="65">WITH</text><a xmlns:xlink="http://www.w3.org/1999/xlink" xlink:href="#subQueryName" xlink:title="subQueryName"><rect x="149" y="47" width="116" height="32"/><rect x="147" y="45" width="116" height="32" class="nonterminal"/><text class="nonterminal" x="157" y="65">subQueryName</text></a><rect x="285" y="47" width="38" height="32" rx="10"/><rect x="283" y="45" width="38" height="32" class="terminal" rx="10"/><text class="terminal" x="293" y="65">AS</text><rect x="343" y="47" width="26" height="32" rx="10"/><rect x="341" y="45" width="26" height="32" class="terminal" rx="10"/><text class="terminal" x="351" y="65">(</text><a xmlns:xlink="http://www.w3.org/1999/xlink" xlink:href="#subQuery" xlink:title="subQuery"><rect x="389" y="47" width="80" height="32"/><rect x="387" y="45" width="80" height="32" class="nonterminal"/><text class="nonterminal" x="397" y="65">subQuery</text></a><rect x="489" y="47" width="26" height="32" rx="10"/><rect x="487" y="45" width="26" height="32" class="terminal" rx="10"/><text class="terminal" x="497" y="65">)</text><rect x="149" y="3" width="24" height="32" rx="10"/><rect x="147" y="1" width="24" height="32" class="terminal" rx="10"/><text class="terminal" x="157" y="21">,</text><rect x="575" y="47" width="70" height="32" rx="10"/><rect x="573" y="45" width="70" height="32" class="terminal" rx="10"/><text class="terminal" x="583" y="65">INSERT</text><rect x="45" y="161" width="56" height="32" rx="10"/><rect x="43" y="159" width="56" height="32" class="terminal" rx="10"/><text class="terminal" x="53" y="179">batch</text><a xmlns:xlink="http://www.w3.org/1999/xlink" xlink:href="#batchCount" xlink:title="batchCount"><rect x="121" y="161" width="92" height="32"/><rect x="119" y="159" width="92" height="32" class="nonterminal"/><text class="nonterminal" x="129" y="179">batchCount</text></a><rect x="233" y="161" width="94" height="32" rx="10"/><rect x="231" y="159" width="94" height="32" class="terminal" rx="10"/><text class="terminal" x="241" y="179">commitLag</text><a xmlns:xlink="http://www.w3.org/1999/xlink" xlink:href="#n" xlink:title="n"><rect x="347" y="161" width="28" height="32"/><rect x="345" y="159" width="28" height="32" class="nonterminal"/><text class="nonterminal" x="355" y="179">n</text></a><rect x="415" y="161" width="36" height="32" rx="10"/><rect x="413" y="159" width="36" height="32" class="terminal" rx="10"/><text class="terminal" x="423" y="179">us</text><rect x="415" y="205" width="26" height="32" rx="10"/><rect x="413" y="203" width="26" height="32" class="terminal" rx="10"/><text class="terminal" x="423" y="223">s</text><rect x="415" y="249" width="32" height="32" rx="10"/><rect x="413" y="247" width="32" height="32" class="terminal" rx="10"/><text class="terminal" x="423" y="267">m</text><rect x="415" y="293" width="28" height="32" rx="10"/><rect x="413" y="291" width="28" height="32" class="terminal" rx="10"/><text class="terminal" x="423" y="311">h</text><rect x="415" y="337" width="28" height="32" rx="10"/><rect x="413" y="335" width="28" height="32" class="terminal" rx="10"/><text class="terminal" x="423" y="355">d</text><rect x="511" y="129" width="56" height="32" rx="10"/><rect x="509" y="127" width="56" height="32" class="terminal" rx="10"/><text class="terminal" x="519" y="147">INTO</text><a xmlns:xlink="http://www.w3.org/1999/xlink" xlink:href="#tableName" xlink:title="tableName"><rect x="587" y="129" width="88" height="32"/><rect x="585" y="127" width="88" height="32" class="nonterminal"/><text class="nonterminal" x="595" y="147">tableName</text></a><rect x="695" y="129" width="70" height="32" rx="10"/><rect x="693" y="127" width="70" height="32" class="terminal" rx="10"/><text class="terminal" x="703" y="147">SELECT</text><a xmlns:xlink="http://www.w3.org/1999/xlink" xlink:href="#queryDef" xlink:title="queryDef"><rect x="785" y="129" width="78" height="32"/><rect x="783" y="127" width="78" height="32" class="nonterminal"/><text class="nonterminal" x="793" y="147">queryDef</text></a><a xmlns:xlink="http://www.w3.org/1999/xlink" xlink:href="#subQueryName" xlink:title="subQueryName"><rect x="697" y="403" width="116" height="32"/><rect x="695" y="401" width="116" height="32" class="nonterminal"/><text class="nonterminal" x="705" y="421">subQueryName</text></a><rect x="833" y="403" width="24" height="32" rx="10"/><rect x="831" y="401" width="24" height="32" class="terminal" rx="10"/><text class="terminal" x="841" y="421">;</text><path xmlns:svg="http://www.w3.org/2000/svg" d="M17 61h2m20 0h10m58 0h10m20 0h10m116 0h10m0 0h10m38 0h10m0 0h10m26 0h10m0 0h10m80 0h10m0 0h10m26 0h10m-406 0h20m-1 0q-9 0-9-10V27q0-10 10-10m386 44h20m-20 0q10 0 10-10V27q0-10-10-10m-386 0h10m24 0h10m0 0h342M19 61h20m504 0h20M19 61q10 0 10 10m524 0q0-10 10-10M29 71v14m524 0V71M29 85q0 10 10 10m504 0q10 0 10-10M39 95h10m0 0h494m20-34h10m70 0h10m2 0h2m2 0h2m2 0h2M1 143h2m2 0h2m2 0h2m22 0h10m0 0h436m-466 0h20m446 0h20m-486 0q10 0 10 10m466 0q0-10 10-10M23 153v12m466 0v-12M23 165q0 10 10 10m446 0q10 0 10-10M33 175h10m56 0h10m0 0h10m92 0h10m0 0h10m94 0h10m0 0h10m28 0h10m20 0h10m36 0h10m-76 0h20m56 0h20m-96 0q10 0 10 10m76 0q0-10 10-10m-86 10v24m76 0v-24m-76 24q0 10 10 10m56 0q10 0 10-10m-66 10h10m26 0h10m0 0h10m-66-10v20m76 0v-20m-76 20v24m76 0v-24m-76 24q0 10 10 10m56 0q10 0 10-10m-66 10h10m32 0h10m0 0h4m-66-10v20m76 0v-20m-76 20v24m76 0v-24m-76 24q0 10 10 10m56 0q10 0 10-10m-66 10h10m28 0h10m0 0h8m-66-10v20m76 0v-20m-76 20v24m76 0v-24m-76 24q0 10 10 10m56 0q10 0 10-10m-66 10h10m28 0h10m0 0h8m40-208h10m56 0h10m0 0h10m88 0h10m0 0h10m70 0h10m0 0h10m78 0h10m2 0h2m2 0h2m2 0h2M673 417h2m2 0h2m2 0h2m2 0h10m116 0h10m0 0h10m24 0h10m3 0h-3" fill="none" stroke="#636273"/><polygon points="875 417 883 413 883 421"/><polygon points="875 417 867 413 867 421"/></svg>