<svg xmlns="http://www.w3.org/2000/svg" width="800" height="100"><defs><style type="text/css">@namespace &quot;http://www.w3.org/2000/svg&quot;;text.terminal{font-family:-apple-system,BlinkMacSystemFont,&quot;Segoe UI&quot;,Roboto,Ubuntu,Cantarell,Helvetica,sans-serif;font-size:12px;fill:#fff;font-weight:700}polygon,rect{fill:none;stroke:none}rect.terminal{fill:none;stroke:#be2f5b}</style></defs><polygon points="9 17 1 13 1 21"/><polygon points="17 17 9 13 9 21"/><rect x="31" y="3" width="62" height="32" rx="10"/><rect x="29" y="1" width="62" height="32" class="terminal" rx="10"/><text class="terminal" x="39" y="21">ALTER</text><rect x="113" y="3" width="78" height="32" rx="10"/><rect x="111" y="1" width="78" height="32" class="terminal" rx="10"/><text class="terminal" x="121" y="21">COLUMN</text><a xmlns:xlink="http://www.w3.org/1999/xlink" xlink:href="#columnName" xlink:title="columnName"><rect x="211" y="3" width="102" height="32"/><rect x="209" y="1" width="102" height="32" class="nonterminal" fill="rgba(255,255,255,.1)" stroke="none"/><text class="nonterminal" x="219" y="21" font-family="-apple-system,BlinkMacSystemFont,&quot;Segoe UI&quot;,Roboto,Ubuntu,Cantarell,Helvetica,sans-serif" font-size="12" fill="#e289a4" font-weight="400">columnName</text></a><rect x="353" y="3" width="86" height="32" rx="10"/><rect x="351" y="1" width="86" height="32" class="terminal" rx="10"/><text class="terminal" x="361" y="21">NOCACHE</text><rect x="353" y="47" width="66" height="32" rx="10"/><rect x="351" y="45" width="66" height="32" class="terminal" rx="10"/><text class="terminal" x="361" y="65">CACHE</text><path xmlns:svg="http://www.w3.org/2000/svg" d="M17 17h2m0 0h10m62 0h10m0 0h10m78 0h10m0 0h10m102 0h10m20 0h10m86 0h10m-126 0h20m106 0h20m-146 0q10 0 10 10m126 0q0-10 10-10M331 27v24m126 0V27M331 51q0 10 10 10m106 0q10 0 10-10M341 61h10m66 0h10m0 0h20m23-44h-3" fill="none" stroke="#636273"/><polygon points="477 17 485 13 485 21"/><polygon points="477 17 469 13 469 21"/></svg>