<svg xmlns="http://www.w3.org/2000/svg" width="605" height="260"><defs><style type="text/css">@namespace &quot;http://www.w3.org/2000/svg&quot;;text.nonterminal,text.terminal{font-family:-apple-system,BlinkMacSystemFont,&quot;Segoe UI&quot;,Roboto,Ubuntu,Cantarell,Helvetica,sans-serif;font-size:12px}text.terminal{fill:#fff;font-weight:700}text.nonterminal{fill:#e289a4;font-weight:400}polygon,rect{fill:none;stroke:none}rect.terminal{fill:none;stroke:#be2f5b}rect.nonterminal{fill:rgba(255,255,255,.1);stroke:none}</style></defs><polygon points="9 17 1 13 1 21"/><polygon points="17 17 9 13 9 21"/><rect x="31" y="3" width="44" height="32" rx="10"/><rect x="29" y="1" width="44" height="32" class="terminal" rx="10"/><text class="terminal" x="39" y="21">SET</text><rect x="95" y="3" width="68" height="32" rx="10"/><rect x="93" y="1" width="68" height="32" class="terminal" rx="10"/><text class="terminal" x="103" y="21">PARAM</text><rect x="203" y="3" width="176" height="32" rx="10"/><rect x="201" y="1" width="176" height="32" class="terminal" rx="10"/><text class="terminal" x="211" y="21">maxUncommittedRows</text><rect x="399" y="3" width="30" height="32" rx="10"/><rect x="397" y="1" width="30" height="32" class="terminal" rx="10"/><text class="terminal" x="407" y="21">=</text><a xmlns:xlink="http://www.w3.org/1999/xlink" xlink:href="#n" xlink:title="n"><rect x="449" y="3" width="28" height="32"/><rect x="447" y="1" width="28" height="32" class="nonterminal"/><text class="nonterminal" x="457" y="21">n</text></a><rect x="203" y="47" width="94" height="32" rx="10"/><rect x="201" y="45" width="94" height="32" class="terminal" rx="10"/><text class="terminal" x="211" y="65">commitLag</text><rect x="317" y="47" width="30" height="32" rx="10"/><rect x="315" y="45" width="30" height="32" class="terminal" rx="10"/><text class="terminal" x="325" y="65">=</text><a xmlns:xlink="http://www.w3.org/1999/xlink" xlink:href="#n" xlink:title="n"><rect x="367" y="47" width="28" height="32"/><rect x="365" y="45" width="28" height="32" class="nonterminal"/><text class="nonterminal" x="375" y="65">n</text></a><rect x="435" y="47" width="36" height="32" rx="10"/><rect x="433" y="45" width="36" height="32" class="terminal" rx="10"/><text class="terminal" x="443" y="65">us</text><rect x="435" y="91" width="26" height="32" rx="10"/><rect x="433" y="89" width="26" height="32" class="terminal" rx="10"/><text class="terminal" x="443" y="109">s</text><rect x="435" y="135" width="32" height="32" rx="10"/><rect x="433" y="133" width="32" height="32" class="terminal" rx="10"/><text class="terminal" x="443" y="153">m</text><rect x="435" y="179" width="28" height="32" rx="10"/><rect x="433" y="177" width="28" height="32" class="terminal" rx="10"/><text class="terminal" x="443" y="197">h</text><rect x="435" y="223" width="28" height="32" rx="10"/><rect x="433" y="221" width="28" height="32" class="terminal" rx="10"/><text class="terminal" x="443" y="241">d</text><svg:path xmlns:svg="http://www.w3.org/2000/svg" d="m17 17 h2 m0 0 h10 m44 0 h10 m0 0 h10 m68 0 h10 m20 0 h10 m176 0 h10 m0 0 h10 m30 0 h10 m0 0 h10 m28 0 h10 m0 0 h14 m-328 0 h20 m308 0 h20 m-348 0 q10 0 10 10 m328 0 q0 -10 10 -10 m-338 10 v24 m328 0 v-24 m-328 24 q0 10 10 10 m308 0 q10 0 10 -10 m-318 10 h10 m94 0 h10 m0 0 h10 m30 0 h10 m0 0 h10 m28 0 h10 m20 0 h10 m36 0 h10 m-76 0 h20 m56 0 h20 m-96 0 q10 0 10 10 m76 0 q0 -10 10 -10 m-86 10 v24 m76 0 v-24 m-76 24 q0 10 10 10 m56 0 q10 0 10 -10 m-66 10 h10 m26 0 h10 m0 0 h10 m-66 -10 v20 m76 0 v-20 m-76 20 v24 m76 0 v-24 m-76 24 q0 10 10 10 m56 0 q10 0 10 -10 m-66 10 h10 m32 0 h10 m0 0 h4 m-66 -10 v20 m76 0 v-20 m-76 20 v24 m76 0 v-24 m-76 24 q0 10 10 10 m56 0 q10 0 10 -10 m-66 10 h10 m28 0 h10 m0 0 h8 m-66 -10 v20 m76 0 v-20 m-76 20 v24 m76 0 v-24 m-76 24 q0 10 10 10 m56 0 q10 0 10 -10 m-66 10 h10 m28 0 h10 m0 0 h8 m43 -220 h-3" fill="none" stroke="#636273"/><polygon points="529 17 537 13 537 21"/><polygon points="529 17 521 13 521 21"/></svg>