<svg xmlns="http://www.w3.org/2000/svg" width="750" height="81"><defs><style type="text/css">@namespace &quot;http://www.w3.org/2000/svg&quot;;text.nonterminal,text.terminal{font-family:-apple-system,BlinkMacSystemFont,&quot;Segoe UI&quot;,Roboto,Ubuntu,Cantarell,Helvetica,sans-serif;font-size:12px}text.terminal{fill:#fff;font-weight:700}text.nonterminal{fill:#e289a4;font-weight:400}polygon,rect{fill:none;stroke:none}rect.terminal{fill:none;stroke:#be2f5b}rect.nonterminal{fill:rgba(255,255,255,.1);stroke:none}</style></defs><polygon points="9 61 1 57 1 65"/><polygon points="17 61 9 57 9 65"/><rect x="31" y="47" width="62" height="32" rx="10"/><rect x="29" y="45" width="62" height="32" class="terminal" rx="10"/><text class="terminal" x="39" y="65">ALTER</text><rect x="113" y="47" width="62" height="32" rx="10"/><rect x="111" y="45" width="62" height="32" class="terminal" rx="10"/><text class="terminal" x="121" y="65">TABLE</text><a xmlns:xlink="http://www.w3.org/1999/xlink" xlink:href="#tableName" xlink:title="tableName"><rect x="195" y="47" width="88" height="32"/><rect x="193" y="45" width="88" height="32" class="nonterminal"/><text class="nonterminal" x="203" y="65">tableName</text></a><rect x="303" y="47" width="74" height="32" rx="10"/><rect x="301" y="45" width="74" height="32" class="terminal" rx="10"/><text class="terminal" x="311" y="65">ATTACH</text><rect x="397" y="47" width="98" height="32" rx="10"/><rect x="395" y="45" width="98" height="32" class="terminal" rx="10"/><text class="terminal" x="405" y="65">PARTITION</text><rect x="515" y="47" width="52" height="32" rx="10"/><rect x="513" y="45" width="52" height="32" class="terminal" rx="10"/><text class="terminal" x="523" y="65">LIST</text><a xmlns:xlink="http://www.w3.org/1999/xlink" xlink:href="#partitionName" xlink:title="partitionName"><rect x="607" y="47" width="110" height="32"/><rect x="605" y="45" width="110" height="32" class="nonterminal"/><text class="nonterminal" x="615" y="65">partitionName</text></a><rect x="607" y="3" width="24" height="32" rx="10"/><rect x="605" y="1" width="24" height="32" class="terminal" rx="10"/><text class="terminal" x="615" y="21">,</text><svg:path xmlns:svg="http://www.w3.org/2000/svg" d="m17 61 h2 m0 0 h10 m62 0 h10 m0 0 h10 m62 0 h10 m0 0 h10 m88 0 h10 m0 0 h10 m74 0 h10 m0 0 h10 m98 0 h10 m0 0 h10 m52 0 h10 m20 0 h10 m110 0 h10 m-150 0 l20 0 m-1 0 q-9 0 -9 -10 l0 -24 q0 -10 10 -10 m130 44 l20 0 m-20 0 q10 0 10 -10 l0 -24 q0 -10 -10 -10 m-130 0 h10 m24 0 h10 m0 0 h86 m23 44 h-3" fill="none" stroke="#636273"/><polygon points="755 61 763 57 763 65"/><polygon points="755 61 747 57 747 65"/></svg>