<svg xmlns="http://www.w3.org/2000/svg" width="900" height="37"><defs><style type="text/css">@namespace &quot;http://www.w3.org/2000/svg&quot;;text.nonterminal,text.terminal{font-family:-apple-system,BlinkMacSystemFont,&quot;Segoe UI&quot;,Roboto,Ubuntu,Cantarell,Helvetica,sans-serif;font-size:12px}text.terminal{fill:#fff;font-weight:700}text.nonterminal{fill:#e289a4;font-weight:400}polygon,rect{fill:none;stroke:none}rect.terminal{fill:none;stroke:#be2f5b}rect.nonterminal{fill:rgba(255,255,255,.1);stroke:none}</style></defs><polygon points="9 17 1 13 1 21"/><polygon points="17 17 9 13 9 21"/><rect x="31" y="3" width="62" height="32" rx="10"/><rect x="29" y="1" width="62" height="32" class="terminal" rx="10"/><text class="terminal" x="39" y="21">ALTER</text><rect x="113" y="3" width="62" height="32" rx="10"/><rect x="111" y="1" width="62" height="32" class="terminal" rx="10"/><text class="terminal" x="121" y="21">TABLE</text><a xmlns:xlink="http://www.w3.org/1999/xlink" xlink:href="#tableName" xlink:title="tableName"><rect x="195" y="3" width="88" height="32"/><rect x="193" y="1" width="88" height="32" class="nonterminal"/><text class="nonterminal" x="203" y="21">tableName</text></a><rect x="303" y="3" width="62" height="32" rx="10"/><rect x="301" y="1" width="62" height="32" class="terminal" rx="10"/><text class="terminal" x="311" y="21">ALTER</text><rect x="385" y="3" width="78" height="32" rx="10"/><rect x="383" y="1" width="78" height="32" class="terminal" rx="10"/><text class="terminal" x="393" y="21">COLUMN</text><a xmlns:xlink="http://www.w3.org/1999/xlink" xlink:href="#columnName" xlink:title="columnName"><rect x="483" y="3" width="102" height="32"/><rect x="481" y="1" width="102" height="32" class="nonterminal"/><text class="nonterminal" x="491" y="21">columnName</text></a><rect x="605" y="3" width="58" height="32" rx="10"/><rect x="603" y="1" width="58" height="32" class="terminal" rx="10"/><text class="terminal" x="613" y="21">DROP</text><rect x="683" y="3" width="64" height="32" rx="10"/><rect x="681" y="1" width="64" height="32" class="terminal" rx="10"/><text class="terminal" x="691" y="21">INDEX</text><svg:path xmlns:svg="http://www.w3.org/2000/svg" d="m91 17 h10 m0 0 h10 m62 0 h10 m0 0 h10 m88 0 h10 m0 0 h10 m62 0 h10 m0 0 h10 m78 0 h10 m0 0 h10 m102 0 h10 m0 0 h10 m58 0 h10 m0 0 h10" fill="none" stroke="#636273"/><polygon points="765 17 773 13 773 21"/><polygon points="765 17 757 13 757 21"/></svg>