<svg xmlns="http://www.w3.org/2000/svg" width="500" height="37"><defs><style type="text/css">@namespace &quot;http://www.w3.org/2000/svg&quot;;text.terminal{font-family:-apple-system,BlinkMacSystemFont,&quot;Segoe UI&quot;,Roboto,Ubuntu,Cantarell,Helvetica,sans-serif;font-size:12px;fill:#fff;font-weight:700}polygon,rect{fill:none;stroke:none}rect.terminal{fill:none;stroke:#be2f5b}</style></defs><polygon points="9 17 1 13 1 21"/><polygon points="17 17 9 13 9 21"/><rect x="31" y="3" width="62" height="32" rx="10"/><rect x="29" y="1" width="62" height="32" class="terminal" rx="10"/><text class="terminal" x="39" y="21">ALTER</text><rect x="113" y="3" width="78" height="32" rx="10"/><rect x="111" y="1" width="78" height="32" class="terminal" rx="10"/><text class="terminal" x="121" y="21">COLUMN</text><a xmlns:xlink="http://www.w3.org/1999/xlink" xlink:href="#columnName" xlink:title="columnName"><rect x="211" y="3" width="102" height="32"/><rect x="209" y="1" width="102" height="32" class="nonterminal" fill="rgba(255,255,255,.1)" stroke="none"/><text class="nonterminal" x="219" y="21" font-family="-apple-system,BlinkMacSystemFont,&quot;Segoe UI&quot;,Roboto,Ubuntu,Cantarell,Helvetica,sans-serif" font-size="12" fill="#e289a4" font-weight="400">columnName</text></a><rect x="333" y="3" width="48" height="32" rx="10"/><rect x="331" y="1" width="48" height="32" class="terminal" rx="10"/><text class="terminal" x="341" y="21">ADD</text><rect x="401" y="3" width="64" height="32" rx="10"/><rect x="399" y="1" width="64" height="32" class="terminal" rx="10"/><text class="terminal" x="409" y="21">INDEX</text><svg:path xmlns:svg="http://www.w3.org/2000/svg" d="m17 17 h2 m0 0 h10 m62 0 h10 m0 0 h10 m78 0 h10 m0 0 h10 m102 0 h10 m0 0 h10 m48 0 h10 m0 0 h10 m64 0 h10 m3 0 h-3" fill="none" stroke="#636273"/><polygon points="483 17 491 13 491 21"/><polygon points="483 17 475 13 475 21"/></svg>