<svg xmlns="http://www.w3.org/2000/svg" width="1000" height="400"><defs><style type="text/css">@namespace &quot;http://www.w3.org/2000/svg&quot;;text.nonterminal,text.terminal{font-family:-apple-system,BlinkMacSystemFont,&quot;Segoe UI&quot;,Roboto,Ubuntu,Cantarell,Helvetica,sans-serif;font-size:12px}text.terminal{fill:#fff;font-weight:700}text.nonterminal{fill:#e289a4;font-weight:400}polygon,rect{fill:none;stroke:none}rect.terminal{fill:none;stroke:#be2f5b}rect.nonterminal{fill:rgba(255,255,255,.1);stroke:none}</style></defs><polygon points="9 51 1 47 1 55"/><polygon points="17 51 9 47 9 55"/><a xmlns:xlink="http://www.w3.org/1999/xlink" xlink:href="#functionName" xlink:title="functionName"><rect x="31" y="37" width="106" height="32"/><rect x="29" y="35" width="106" height="32" class="nonterminal"/><text class="nonterminal" x="39" y="55">functionName</text></a><rect x="157" y="37" width="58" height="32" rx="10"/><rect x="155" y="35" width="58" height="32" class="terminal" rx="10"/><text class="terminal" x="165" y="55">OVER</text><rect x="235" y="37" width="26" height="32" rx="10"/><rect x="233" y="35" width="26" height="32" class="terminal" rx="10"/><text class="terminal" x="243" y="55">(</text><rect x="301" y="37" width="98" height="32" rx="10"/><rect x="299" y="35" width="98" height="32" class="terminal" rx="10"/><text class="terminal" x="309" y="55">PARTITION</text><rect x="419" y="37" width="38" height="32" rx="10"/><rect x="417" y="35" width="38" height="32" class="terminal" rx="10"/><text class="terminal" x="427" y="55">BY</text><a xmlns:xlink="http://www.w3.org/1999/xlink" xlink:href="#columnName" xlink:title="columnName"><rect x="517" y="69" width="102" height="32"/><rect x="515" y="67" width="102" height="32" class="nonterminal"/><text class="nonterminal" x="525" y="87">columnName</text></a><rect x="497" y="3" width="24" height="32" rx="10"/><rect x="495" y="1" width="24" height="32" class="terminal" rx="10"/><text class="terminal" x="505" y="21">,</text><rect x="205" y="195" width="68" height="32" rx="10"/><rect x="203" y="193" width="68" height="32" class="terminal" rx="10"/><text class="terminal" x="213" y="213">ORDER</text><rect x="293" y="195" width="38" height="32" rx="10"/><rect x="291" y="193" width="38" height="32" class="terminal" rx="10"/><text class="terminal" x="301" y="213">BY</text><a xmlns:xlink="http://www.w3.org/1999/xlink" xlink:href="#columnName" xlink:title="columnName"><rect x="371" y="195" width="102" height="32"/><rect x="369" y="193" width="102" height="32" class="nonterminal"/><text class="nonterminal" x="379" y="213">columnName</text></a><a xmlns:xlink="http://www.w3.org/1999/xlink" xlink:href="#ASC" xlink:title="ASC"><rect x="513" y="227" width="44" height="32"/><rect x="511" y="225" width="44" height="32" class="nonterminal"/><text class="nonterminal" x="521" y="245">ASC</text></a><a xmlns:xlink="http://www.w3.org/1999/xlink" xlink:href="#DESC" xlink:title="DESC"><rect x="513" y="271" width="54" height="32"/><rect x="511" y="269" width="54" height="32" class="nonterminal"/><text class="nonterminal" x="521" y="289">DESC</text></a><rect x="371" y="151" width="24" height="32" rx="10"/><rect x="369" y="149" width="24" height="32" class="terminal" rx="10"/><text class="terminal" x="379" y="169">,</text><rect x="647" y="195" width="26" height="32" rx="10"/><rect x="645" y="193" width="26" height="32" class="terminal" rx="10"/><text class="terminal" x="655" y="213">)</text><path xmlns:svg="http://www.w3.org/2000/svg" d="M17 51h2m0 0h10m106 0h10m0 0h10m58 0h10m0 0h10m26 0h10m20 0h10m98 0h10m0 0h10m38 0h10m40 0h10m0 0h112m-142 0h20m122 0h20m-162 0q10 0 10 10m142 0q0-10 10-10M495 61v12m142 0V61M495 73q0 10 10 10m122 0q10 0 10-10M505 83h10m102 0h10M465 51h20m-1 0q-9 0-9-10V27q0-10 10-10m162 34h20m-20 0q10 0 10-10V27q0-10-10-10m-162 0h10m24 0h10m0 0h118M269 51h20m378 0h20m-418 0q10 0 10 10m398 0q0-10 10-10M279 61v46m398 0V61m-398 46q0 10 10 10m378 0q10 0 10-10m-388 10h10m0 0h368m22-66h2m2 0h2m2 0h2M161 209h2m2 0h2m2 0h2m22 0h10m68 0h10m0 0h10m38 0h10m20 0h10m102 0h10m20 0h10m0 0h64m-94 0h20m74 0h20m-114 0q10 0 10 10m94 0q0-10 10-10m-104 10v12m94 0v-12m-94 12q0 10 10 10m74 0q10 0 10-10m-84 10h10m44 0h10m0 0h10m-84-10v20m94 0v-20m-94 20v24m94 0v-24m-94 24q0 10 10 10m74 0q10 0 10-10m-84 10h10m54 0h10m-236-76h20m-1 0q-9 0-9-10v-24q0-10 10-10m236 44h20m-20 0q10 0 10-10v-24q0-10-10-10m-236 0h10m24 0h10m0 0h192m-422 44h20m422 0h20m-462 0q10 0 10 10m442 0q0-10 10-10m-452 10v90m442 0v-90m-442 90q0 10 10 10m422 0q10 0 10-10m-432 10h10m0 0h412m20-110h10m26 0h10m3 0h-3" fill="none" stroke="#636273"/><polygon points="691 209 699 205 699 213"/><polygon points="691 209 683 205 683 213"/></svg>