<svg xmlns="http://www.w3.org/2000/svg" width="841" height="249"><defs><style type="text/css">@namespace &quot;http://www.w3.org/2000/svg&quot;;text.nonterminal,text.terminal{font-family:-apple-system,BlinkMacSystemFont,&quot;Segoe UI&quot;,Roboto,Ubuntu,Cantarell,Helvetica,sans-serif;font-size:12px}text.terminal{fill:#fff;font-weight:700}text.nonterminal{fill:#e289a4;font-weight:400}polygon,rect{fill:none;stroke:none}rect.terminal{fill:none;stroke:#be2f5b}rect.nonterminal{fill:rgba(255,255,255,.1);stroke:none}</style></defs><polygon points="9 17 1 13 1 21"/><polygon points="17 17 9 13 9 21"/><rect x="31" y="3" width="58" height="32" rx="10"/><rect x="29" y="1" width="58" height="32" class="terminal" rx="10"/><text class="terminal" x="39" y="21">WITH</text><rect x="109" y="3" width="176" height="32" rx="10"/><rect x="107" y="1" width="176" height="32" class="terminal" rx="10"/><text class="terminal" x="117" y="21">maxUncommittedRows</text><rect x="305" y="3" width="30" height="32" rx="10"/><rect x="303" y="1" width="30" height="32" class="terminal" rx="10"/><text class="terminal" x="313" y="21">=</text><a xmlns:xlink="http://www.w3.org/1999/xlink" xlink:href="#rowCount" xlink:title="rowCount"><rect x="355" y="3" width="80" height="32"/><rect x="353" y="1" width="80" height="32" class="nonterminal"/><text class="nonterminal" x="363" y="21">rowCount</text></a><rect x="455" y="3" width="24" height="32" rx="10"/><rect x="453" y="1" width="24" height="32" class="terminal" rx="10"/><text class="terminal" x="463" y="21">,</text><rect x="499" y="3" width="94" height="32" rx="10"/><rect x="497" y="1" width="94" height="32" class="terminal" rx="10"/><text class="terminal" x="507" y="21">commitLag</text><rect x="613" y="3" width="30" height="32" rx="10"/><rect x="611" y="1" width="30" height="32" class="terminal" rx="10"/><text class="terminal" x="621" y="21">=</text><a xmlns:xlink="http://www.w3.org/1999/xlink" xlink:href="#n" xlink:title="n"><rect x="663" y="3" width="28" height="32"/><rect x="661" y="1" width="28" height="32" class="nonterminal"/><text class="nonterminal" x="671" y="21">n</text></a><rect x="731" y="3" width="36" height="32" rx="10"/><rect x="729" y="1" width="36" height="32" class="terminal" rx="10"/><text class="terminal" x="739" y="21">us</text><rect x="731" y="47" width="26" height="32" rx="10"/><rect x="729" y="45" width="26" height="32" class="terminal" rx="10"/><text class="terminal" x="739" y="65">s</text><rect x="731" y="91" width="32" height="32" rx="10"/><rect x="729" y="89" width="32" height="32" class="terminal" rx="10"/><text class="terminal" x="739" y="109">m</text><rect x="731" y="135" width="28" height="32" rx="10"/><rect x="729" y="133" width="28" height="32" class="terminal" rx="10"/><text class="terminal" x="739" y="153">h</text><rect x="731" y="179" width="28" height="32" rx="10"/><rect x="729" y="177" width="28" height="32" class="terminal" rx="10"/><text class="terminal" x="739" y="197">d</text><svg:path xmlns:svg="http://www.w3.org/2000/svg" d="m17 17 h2 m0 0 h10 m58 0 h10 m0 0 h10 m176 0 h10 m0 0 h10 m30 0 h10 m0 0 h10 m80 0 h10 m0 0 h10 m24 0 h10 m0 0 h10 m94 0 h10 m0 0 h10 m30 0 h10 m0 0 h10 m28 0 h10 m20 0 h10 m36 0 h10 m-76 0 h20 m56 0 h20 m-96 0 q10 0 10 10 m76 0 q0 -10 10 -10 m-86 10 v24 m76 0 v-24 m-76 24 q0 10 10 10 m56 0 q10 0 10 -10 m-66 10 h10 m26 0 h10 m0 0 h10 m-66 -10 v20 m76 0 v-20 m-76 20 v24 m76 0 v-24 m-76 24 q0 10 10 10 m56 0 q10 0 10 -10 m-66 10 h10 m32 0 h10 m0 0 h4 m-66 -10 v20 m76 0 v-20 m-76 20 v24 m76 0 v-24 m-76 24 q0 10 10 10 m56 0 q10 0 10 -10 m-66 10 h10 m28 0 h10 m0 0 h8 m-66 -10 v20 m76 0 v-20 m-76 20 v24 m76 0 v-24 m-76 24 q0 10 10 10 m56 0 q10 0 10 -10 m-66 10 h10 m28 0 h10 m0 0 h8 m23 -176 h-3" fill="none" stroke="#636273"/><polygon points="805 17 813 13 813 21"/><polygon points="805 17 797 13 797 21"/></svg>