<svg xmlns="http://www.w3.org/2000/svg" width="831" height="157"><defs><style type="text/css">@namespace &quot;http://www.w3.org/2000/svg&quot;;text.nonterminal,text.terminal{font-family:-apple-system,BlinkMacSystemFont,&quot;Segoe UI&quot;,Roboto,Ubuntu,Cantarell,Helvetica,sans-serif;font-size:12px}text.terminal{fill:#fff;font-weight:700}text.nonterminal{fill:#e289a4;font-weight:400}polygon,rect{fill:none;stroke:none}rect.terminal{fill:none;stroke:#be2f5b}rect.nonterminal{fill:rgba(255,255,255,.1);stroke:none}</style></defs><polygon points="9 105 1 101 1 109"/><polygon points="17 105 9 101 9 109"/><a xmlns:xlink="http://www.w3.org/1999/xlink" xlink:href="#Launch_Load_Balancing_Job" xlink:title="Launch_Load_Balancing_Job"><rect x="51" y="91" width="202" height="32"/><rect x="49" y="89" width="202" height="32" class="nonterminal"/><text class="nonterminal" x="59" y="109">Launch_Load_Balancing_Job</text></a><rect x="293" y="123" width="34" height="32" rx="10"/><rect x="291" y="121" width="34" height="32" class="terminal" rx="10"/><text class="terminal" x="301" y="141">IF</text><a xmlns:xlink="http://www.w3.org/1999/xlink" xlink:href="#load_ratio" xlink:title="load_ratio"><rect x="347" y="123" width="84" height="32"/><rect x="345" y="121" width="84" height="32" class="nonterminal"/><text class="nonterminal" x="355" y="141">load_ratio</text></a><rect x="451" y="123" width="30" height="32" rx="10"/><rect x="449" y="121" width="30" height="32" class="terminal" rx="10"/><text class="terminal" x="459" y="141">&gt;</text><rect x="501" y="123" width="118" height="32" rx="10"/><rect x="499" y="121" width="118" height="32" class="terminal" rx="10"/><text class="terminal" x="509" y="141">max.load.ratio</text><a xmlns:xlink="http://www.w3.org/1999/xlink" xlink:href="#Rebalance_Load" xlink:title="Rebalance_Load"><rect x="639" y="123" width="124" height="32"/><rect x="637" y="121" width="124" height="32" class="nonterminal"/><text class="nonterminal" x="647" y="141">Rebalance_Load</text></a><rect x="71" y="3" width="202" height="32" rx="10"/><rect x="69" y="1" width="202" height="32" class="terminal" rx="10"/><text class="terminal" x="79" y="21">n.updates.per.load.balance</text><rect x="293" y="3" width="30" height="32" rx="10"/><rect x="291" y="1" width="30" height="32" class="terminal" rx="10"/><text class="terminal" x="301" y="21">&lt;</text><a xmlns:xlink="http://www.w3.org/1999/xlink" xlink:href="#updates_since_last_rebalance" xlink:title="updates_since_last_rebalance"><rect x="343" y="3" width="214" height="32"/><rect x="341" y="1" width="214" height="32" class="nonterminal"/><text class="nonterminal" x="351" y="21">updates_since_last_rebalance</text></a><rect x="71" y="47" width="246" height="32" rx="10"/><rect x="69" y="45" width="246" height="32" class="terminal" rx="10"/><text class="terminal" x="79" y="65">maintenance.job.interval</text><rect x="337" y="47" width="30" height="32" rx="10"/><rect x="335" y="45" width="30" height="32" class="terminal" rx="10"/><text class="terminal" x="345" y="65">&lt;</text><a xmlns:xlink="http://www.w3.org/1999/xlink" xlink:href="#time_since_last_rebalance" xlink:title="time_since_last_rebalance"><rect x="387" y="47" width="190" height="32"/><rect x="385" y="45" width="190" height="32" class="nonterminal"/><text class="nonterminal" x="395" y="65">time_since_last_rebalance</text></a><rect x="617" y="3" width="34" height="32" rx="10"/><rect x="615" y="1" width="34" height="32" class="terminal" rx="10"/><text class="terminal" x="625" y="21">IF</text><path xmlns:svg="http://www.w3.org/2000/svg" d="M17 105h2m20 0h10m202 0h10m20 0h10m0 0h480m-510 0h20m490 0h20m-530 0q10 0 10 10m510 0q0-10 10-10m-520 10v12m510 0v-12m-510 12q0 10 10 10m490 0q10 0 10-10m-500 10h10m34 0h10m0 0h10m84 0h10m0 0h10m30 0h10m0 0h10m118 0h10m0 0h10m124 0h10M19 105h20m-1 0q-9 0-9-10V27q0-10 10-10m752 88h20m-20 0q10 0 10-10V27q0-10-10-10M59 17h10m202 0h10m0 0h10m30 0h10m0 0h10m214 0h10m0 0h20M39 17h20m526 0h20M39 17q10 0 10 10m546 0q0-10 10-10M49 27v24m546 0V27M49 51q0 10 10 10m526 0q10 0 10-10M59 61h10m246 0h10m0 0h10m30 0h10m0 0h10m190 0h10m20-44h10m34 0h10m0 0h132m23 88h-3" fill="none" stroke="#636273"/><polygon points="821 105 829 101 829 109"/><polygon points="821 105 813 101 813 109"/></svg>