<svg xmlns="http://www.w3.org/2000/svg" width="305" height="69"><defs><style type="text/css">@namespace &quot;http://www.w3.org/2000/svg&quot;;polygon,rect{fill:none;stroke:none}</style></defs><polygon points="9 17 1 13 1 21"/><polygon points="17 17 9 13 9 21"/><rect x="31" y="3" width="56" height="32" rx="10"/><rect x="29" y="1" width="56" height="32" class="terminal" rx="10" fill="none" stroke="#be2f5b"/><text class="terminal" x="39" y="21" font-family="-apple-system,BlinkMacSystemFont,&quot;Segoe UI&quot;,Roboto,Ubuntu,Cantarell,Helvetica,sans-serif" font-size="12" fill="#fff" font-weight="700">INDEX</text><a xmlns:xlink="http://www.w3.org/1999/xlink" xlink:href="#indexCapacityDef" xlink:title="indexCapacityDef"><rect x="127" y="35" width="130" height="32"/><rect x="125" y="33" width="130" height="32" class="nonterminal" fill="rgba(255,255,255,.1)" stroke="none"/><text class="nonterminal" x="135" y="53" font-family="-apple-system,BlinkMacSystemFont,&quot;Segoe UI&quot;,Roboto,Ubuntu,Cantarell,Helvetica,sans-serif" font-size="12" fill="#e289a4" font-weight="400">indexCapacityDef</text></a><path xmlns:svg="http://www.w3.org/2000/svg" d="M17 17h2m0 0h10m56 0h10m20 0h10m0 0h140M95 17h20m150 0h20M95 17q10 0 10 10m170 0q0-10 10-10M105 27v12m170 0V27M105 39q0 10 10 10m150 0q10 0 10-10M115 49h10m130 0h10m23-32h-3" fill="none" stroke="#636273"/><polygon points="295 17 303 13 303 21"/><polygon points="295 17 287 13 287 21"/></svg>