<svg xmlns="http://www.w3.org/2000/svg" width="1000" height="240"><defs><style type="text/css">@namespace &quot;http://www.w3.org/2000/svg&quot;;text.nonterminal,text.terminal{font-family:-apple-system,BlinkMacSystemFont,&quot;Segoe UI&quot;,Roboto,Ubuntu,Cantarell,Helvetica,sans-serif;font-size:12px}text.terminal{fill:#fff;font-weight:700}text.nonterminal{fill:#e289a4;font-weight:400}polygon,rect{fill:none;stroke:none}rect.terminal{fill:none;stroke:#be2f5b}rect.nonterminal{fill:rgba(255,255,255,.1);stroke:none}</style></defs><polygon points="9 33 1 29 1 37"/><polygon points="17 33 9 29 9 37"/><rect x="31" y="19" width="80" height="32" rx="10"/><rect x="29" y="17" width="80" height="32" class="terminal" rx="10"/><text class="terminal" x="39" y="37">REINDEX</text><rect x="131" y="19" width="62" height="32" rx="10"/><rect x="129" y="17" width="62" height="32" class="terminal" rx="10"/><text class="terminal" x="139" y="37">TABLE</text><a xmlns:xlink="http://www.w3.org/1999/xlink" xlink:href="#tableName" xlink:title="tableName"><rect x="213" y="19" width="88" height="32"/><rect x="211" y="17" width="88" height="32" class="nonterminal"/><text class="nonterminal" x="221" y="37">tableName</text></a><rect x="361" y="19" width="76" height="32" rx="10"/><rect x="359" y="17" width="76" height="32" class="terminal" rx="10"/><text class="terminal" x="369" y="37">COLUMN</text><a xmlns:xlink="http://www.w3.org/1999/xlink" xlink:href="#columnName" xlink:title="columnName"><rect x="457" y="19" width="102" height="32"/><rect x="455" y="17" width="102" height="32" class="nonterminal"/><text class="nonterminal" x="465" y="37">columnName</text></a><rect x="659" y="19" width="98" height="32" rx="10"/><rect x="657" y="17" width="98" height="32" class="terminal" rx="10"/><text class="terminal" x="667" y="37">PARTITION</text><a xmlns:xlink="http://www.w3.org/1999/xlink" xlink:href="#partitionName" xlink:title="partitionName"><rect x="777" y="19" width="110" height="32"/><rect x="775" y="17" width="110" height="32" class="nonterminal"/><text class="nonterminal" x="785" y="37">partitionName</text></a><rect x="749" y="101" width="56" height="32" rx="10"/><rect x="747" y="99" width="56" height="32" class="terminal" rx="10"/><text class="terminal" x="757" y="119">LOCK</text><rect x="825" y="101" width="96" height="32" rx="10"/><rect x="823" y="99" width="96" height="32" class="terminal" rx="10"/><text class="terminal" x="833" y="119">EXCLUSIVE</text><path xmlns:svg="http://www.w3.org/2000/svg" d="M17 33h2m0 0h10m80 0h10m0 0h10m62 0h10m0 0h10m88 0h10m40 0h10m76 0h10m0 0h10m102 0h10m-238 0h20m-1 0q-9 0-9-10V11q0-10 10-10m218 32h20m-20 0q10 0 10-10V11q0-10-10-10M349 1h10m0 0h208M309 33h20m258 0h20m-298 0q10 0 10 10m278 0q0-10 10-10M319 43v14m278 0V43M319 57q0 10 10 10m258 0q10 0 10-10M329 67h10m0 0h248m60-34h10m98 0h10m0 0h10m110 0h10m-268 0h20m-1 0q-9 0-9-10V11q0-10 10-10m248 32h20m-20 0q10 0 10-10V11q0-10-10-10M647 1h10m0 0h238M607 33h20m288 0h20m-328 0q10 0 10 10m308 0q0-10 10-10M617 43v14m308 0V43M617 57q0 10 10 10m288 0q10 0 10-10M627 67h10m0 0h278m22-34h2m2 0h2m2 0h2m-222 82h2m2 0h2m2 0h2m2 0h10m56 0h10m0 0h10m96 0h10m3 0h-3" fill="none" stroke="#636273"/><polygon points="939 115 947 111 947 119"/><polygon points="939 115 931 111 931 119"/></svg>