<svg xmlns="http://www.w3.org/2000/svg" width="381" height="69"><defs><style type="text/css">@namespace &quot;http://www.w3.org/2000/svg&quot;;text.terminal{font-family:-apple-system,BlinkMacSystemFont,&quot;Segoe UI&quot;,Roboto,Ubuntu,Cantarell,Helvetica,sans-serif;font-size:12px;fill:#fff;font-weight:700}polygon,rect{fill:none;stroke:none}rect.terminal{fill:none;stroke:#be2f5b}</style></defs><polygon points="9 17 1 13 1 21"/><polygon points="17 17 9 13 9 21"/><rect x="31" y="3" width="44" height="32" rx="10"/><rect x="29" y="1" width="44" height="32" class="terminal" rx="10"/><text class="terminal" x="39" y="21">SET</text><rect x="95" y="3" width="54" height="32" rx="10"/><rect x="93" y="1" width="54" height="32" class="terminal" rx="10"/><text class="terminal" x="103" y="21">TYPE</text><rect x="189" y="35" width="74" height="32" rx="10"/><rect x="187" y="33" width="74" height="32" class="terminal" rx="10"/><text class="terminal" x="197" y="53">BYPASS</text><rect x="303" y="3" width="50" height="32" rx="10"/><rect x="301" y="1" width="50" height="32" class="terminal" rx="10"/><text class="terminal" x="311" y="21">WAL</text><path d="M17 17h2m0 0h10m44 0h10m0 0h10m54 0h10m20 0h10m0 0h84m-114 0h20m94 0h20m-134 0q10 0 10 10m114 0q0-10 10-10M167 27v12m114 0V27M167 39q0 10 10 10m94 0q10 0 10-10M177 49h10m74 0h10m20-32h10m50 0h10m3 0h-3" fill="none" stroke="#636273"/><polygon points="371 17 379 13 379 21"/><polygon points="371 17 363 13 363 21"/></svg>