<svg xmlns="http://www.w3.org/2000/svg" width="671" height="37"><defs><style type="text/css">@namespace &quot;http://www.w3.org/2000/svg&quot;;text.nonterminal,text.terminal{font-family:-apple-system,BlinkMacSystemFont,&quot;Segoe UI&quot;,Roboto,Ubuntu,Cantarell,Helvetica,sans-serif;font-size:12px}text.terminal{fill:#fff;font-weight:700}text.nonterminal{fill:#e289a4;font-weight:400}polygon,rect{fill:none;stroke:none}rect.terminal{fill:none;stroke:#be2f5b}rect.nonterminal{fill:rgba(255,255,255,.1);stroke:none}</style></defs><polygon points="9 17 1 13 1 21"/><polygon points="17 17 9 13 9 21"/><rect x="31" y="3" width="70" height="32" rx="10"/><rect x="29" y="1" width="70" height="32" class="terminal" rx="10"/><text class="terminal" x="39" y="21">WHERE</text><a xmlns:xlink="http://www.w3.org/1999/xlink" xlink:href="#timestamp" xlink:title="timestamp"><rect x="121" y="3" width="88" height="32"/><rect x="119" y="1" width="88" height="32" class="nonterminal"/><text class="nonterminal" x="129" y="21">timestamp</text></a><rect x="229" y="3" width="32" height="32" rx="10"/><rect x="227" y="1" width="32" height="32" class="terminal" rx="10"/><text class="terminal" x="237" y="21">in</text><rect x="281" y="3" width="26" height="32" rx="10"/><rect x="279" y="1" width="26" height="32" class="terminal" rx="10"/><text class="terminal" x="289" y="21">(</text><a xmlns:xlink="http://www.w3.org/1999/xlink" xlink:href="#upper_bound" xlink:title="upper_bound"><rect x="327" y="3" width="104" height="32"/><rect x="325" y="1" width="104" height="32" class="nonterminal"/><text class="nonterminal" x="335" y="21">lower_bound</text></a><rect x="451" y="3" width="24" height="32" rx="10"/><rect x="449" y="1" width="24" height="32" class="terminal" rx="10"/><text class="terminal" x="459" y="21">,</text><a xmlns:xlink="http://www.w3.org/1999/xlink" xlink:href="#lower_bound" xlink:title="lower_bound"><rect x="495" y="3" width="102" height="32"/><rect x="493" y="1" width="102" height="32" class="nonterminal"/><text class="nonterminal" x="503" y="21">upper_bound</text></a><rect x="617" y="3" width="26" height="32" rx="10"/><rect x="615" y="1" width="26" height="32" class="terminal" rx="10"/><text class="terminal" x="625" y="21">)</text><path xmlns:svg="http://www.w3.org/2000/svg" d="M17 17h2m0 0h10m70 0h10m0 0h10m88 0h10m0 0h10m32 0h10m0 0h10m26 0h10m0 0h10m104 0h10m0 0h10m24 0h10m0 0h10m102 0h10m0 0h10m26 0h10m3 0h-3" fill="none" stroke="#636273"/><polygon points="661 17 669 13 669 21"/><polygon points="661 17 653 13 653 21"/></svg>