<svg xmlns="http://www.w3.org/2000/svg" width="359" height="69"><defs><style type="text/css">@namespace &quot;http://www.w3.org/2000/svg&quot;;text.terminal{font-family:-apple-system,BlinkMacSystemFont,&quot;Segoe UI&quot;,Roboto,Ubuntu,Cantarell,Helvetica,sans-serif;font-size:12px;fill:#fff;font-weight:700}polygon,rect{fill:none;stroke:none}rect.terminal{fill:none;stroke:#be2f5b}</style></defs><polygon points="9 17 1 13 1 21"/><polygon points="17 17 9 13 9 21"/><rect x="31" y="3" width="70" height="32" rx="10"/><rect x="29" y="1" width="70" height="32" class="terminal" rx="10"/><text class="terminal" x="39" y="21">WHERE</text><rect x="141" y="35" width="48" height="32" rx="10"/><rect x="139" y="33" width="48" height="32" class="terminal" rx="10"/><text class="terminal" x="149" y="53">NOT</text><a xmlns:xlink="http://www.w3.org/1999/xlink" xlink:href="#columnName" xlink:title="columnName"><rect x="229" y="3" width="102" height="32"/><rect x="227" y="1" width="102" height="32" class="nonterminal" fill="rgba(255,255,255,.1)" stroke="none"/><text class="nonterminal" x="237" y="21" font-family="-apple-system,BlinkMacSystemFont,&quot;Segoe UI&quot;,Roboto,Ubuntu,Cantarell,Helvetica,sans-serif" font-size="12" fill="#e289a4" font-weight="400">columnName</text></a><path xmlns:svg="http://www.w3.org/2000/svg" d="M17 17h2m0 0h10m70 0h10m20 0h10m0 0h58m-88 0h20m68 0h20m-108 0q10 0 10 10m88 0q0-10 10-10m-98 10v12m88 0V27m-88 12q0 10 10 10m68 0q10 0 10-10m-78 10h10m48 0h10m20-32h10m102 0h10m3 0h-3" fill="none" stroke="#636273"/><polygon points="349 17 357 13 357 21"/><polygon points="349 17 341 13 341 21"/></svg>