<svg xmlns="http://www.w3.org/2000/svg" width="579" height="189"><defs><style type="text/css">@namespace &quot;http://www.w3.org/2000/svg&quot;;text.terminal{font-family:-apple-system,BlinkMacSystemFont,&quot;Segoe UI&quot;,Roboto,Ubuntu,Cantarell,Helvetica,sans-serif;font-size:12px;fill:#fff;font-weight:700}polygon,rect{fill:none;stroke:none}rect.terminal{fill:none;stroke:#be2f5b}</style></defs><polygon points="9 33 1 29 1 37"/><polygon points="17 33 9 29 9 37"/><rect x="31" y="19" width="70" height="32" rx="10"/><rect x="29" y="17" width="70" height="32" class="terminal" rx="10"/><text class="terminal" x="39" y="37">WHERE</text><rect x="181" y="51" width="26" height="32" rx="10"/><rect x="179" y="49" width="26" height="32" class="terminal" rx="10"/><text class="terminal" x="189" y="69">(</text><rect x="267" y="51" width="48" height="32" rx="10"/><rect x="265" y="49" width="48" height="32" class="terminal" rx="10"/><text class="terminal" x="275" y="69">AND</text><rect x="267" y="95" width="40" height="32" rx="10"/><rect x="265" y="93" width="40" height="32" class="terminal" rx="10"/><text class="terminal" x="275" y="113">OR</text><rect x="267" y="139" width="48" height="32" rx="10"/><rect x="265" y="137" width="48" height="32" class="terminal" rx="10"/><text class="terminal" x="275" y="157">NOT</text><a xmlns:xlink="http://www.w3.org/1999/xlink" xlink:href="#boolean" xlink:title="boolean"><rect x="355" y="19" width="70" height="32"/><rect x="353" y="17" width="70" height="32" class="nonterminal" fill="rgba(255,255,255,.1)" stroke="none"/><text class="nonterminal" x="363" y="37" font-family="-apple-system,BlinkMacSystemFont,&quot;Segoe UI&quot;,Roboto,Ubuntu,Cantarell,Helvetica,sans-serif" font-size="12" fill="#e289a4" font-weight="400">boolean</text></a><rect x="465" y="51" width="26" height="32" rx="10"/><rect x="463" y="49" width="26" height="32" class="terminal" rx="10"/><text class="terminal" x="473" y="69">)</text><path xmlns:svg="http://www.w3.org/2000/svg" d="M17 33h2m0 0h10m70 0h10m60 0h10m0 0h36m-66 0h20m46 0h20m-86 0q10 0 10 10m66 0q0-10 10-10m-76 10v12m66 0V43m-66 12q0 10 10 10m46 0q10 0 10-10m-56 10h10m26 0h10m40-32h10m0 0h58m-88 0h20m68 0h20m-108 0q10 0 10 10m88 0q0-10 10-10m-98 10v12m88 0V43m-88 12q0 10 10 10m68 0q10 0 10-10m-78 10h10m48 0h10m-78-10v20m88 0V55m-88 20v24m88 0V75m-88 24q0 10 10 10m68 0q10 0 10-10m-78 10h10m40 0h10m0 0h8m-78-10v20m88 0V99m-88 20v24m88 0v-24m-88 24q0 10 10 10m68 0q10 0 10-10m-78 10h10m48 0h10m20-120h10m70 0h10m20 0h10m0 0h36m-66 0h20m46 0h20m-86 0q10 0 10 10m66 0q0-10 10-10m-76 10v12m66 0V43m-66 12q0 10 10 10m46 0q10 0 10-10m-56 10h10m26 0h10M129 33h20m-1 0q-9 0-9-10V11q0-10 10-10m370 32h20m-20 0q10 0 10-10V11q0-10-10-10M149 1h10m0 0h360M109 33h20m410 0h20m-450 0q10 0 10 10m430 0q0-10 10-10M119 43v134m430 0V43M119 177q0 10 10 10m410 0q10 0 10-10m-420 10h10m0 0h400m23-154h-3" fill="none" stroke="#636273"/><polygon points="569 33 577 29 577 37"/><polygon points="569 33 561 29 561 37"/></svg>