<svg xmlns="http://www.w3.org/2000/svg" width="375" viewBox="0 0 375 375" height="375" version="1.0"><defs><clipPath id="a"><path d="M 58.304688 58.304688 L 317 58.304688 L 317 316 L 58.304688 316 Z M 58.304688 58.304688"/></clipPath></defs><g clip-path="url(#a)"><path fill="#EDBCCC" d="M 191.832031 146.730469 L 182.929688 146.730469 L 182.929688 101.757812 C 172.777344 99.71875 165.128906 90.722656 165.128906 79.964844 C 165.128906 67.679688 175.097656 57.710938 187.382812 57.710938 C 199.667969 57.710938 209.636719 67.679688 209.636719 79.964844 C 209.636719 90.722656 201.988281 99.71875 191.832031 101.757812 Z M 227.441406 191.238281 L 227.441406 182.339844 L 272.414062 182.339844 C 274.453125 172.183594 283.449219 164.535156 294.207031 164.535156 C 306.492188 164.535156 316.460938 174.503906 316.460938 186.789062 C 316.460938 199.074219 306.492188 209.042969 294.207031 209.042969 C 283.449219 209.042969 274.453125 201.394531 272.414062 191.238281 Z M 182.929688 226.847656 L 191.832031 226.847656 L 191.832031 271.820312 C 201.988281 273.859375 209.636719 282.855469 209.636719 293.613281 C 209.636719 305.898438 199.667969 315.867188 187.382812 315.867188 C 175.097656 315.867188 165.128906 305.898438 165.128906 293.613281 C 165.128906 282.855469 172.777344 273.859375 182.929688 271.820312 Z M 147.324219 182.339844 L 147.324219 191.238281 L 102.351562 191.238281 C 100.308594 201.394531 91.316406 209.042969 80.558594 209.042969 C 68.273438 209.042969 58.304688 199.074219 58.304688 186.789062 C 58.304688 174.503906 68.273438 164.535156 80.558594 164.535156 C 91.316406 164.535156 100.308594 172.183594 102.351562 182.339844 Z M 147.324219 182.339844"/></g><path fill="#D14770" d="M 218.863281 161.613281 L 212.558594 155.308594 L 244.363281 123.546875 C 238.613281 114.878906 239.589844 103.148438 247.191406 95.496094 C 255.863281 86.828125 269.957031 86.828125 278.675781 95.496094 C 287.34375 104.214844 287.34375 118.308594 278.675781 126.980469 C 271.023438 134.582031 259.292969 135.554688 250.625 129.808594 Z M 212.558594 218.269531 L 218.863281 211.964844 L 250.625 243.769531 C 259.292969 238.023438 271.023438 238.996094 278.675781 246.597656 C 287.34375 255.269531 287.34375 269.363281 278.675781 278.082031 C 269.957031 286.75 255.863281 286.75 247.191406 278.082031 C 239.589844 270.429688 238.613281 258.699219 244.363281 250.03125 Z M 155.902344 211.964844 L 162.207031 218.269531 L 130.402344 250.03125 C 136.148438 258.699219 135.175781 270.429688 127.574219 278.082031 C 118.902344 286.75 104.808594 286.75 96.089844 278.082031 C 87.421875 269.363281 87.421875 255.269531 96.089844 246.597656 C 103.742188 238.996094 115.472656 238.023438 124.140625 243.769531 Z M 162.207031 155.308594 L 155.902344 161.613281 L 124.140625 129.808594 C 115.472656 135.554688 103.742188 134.582031 96.089844 126.980469 C 87.421875 118.308594 87.421875 104.214844 96.089844 95.496094 C 104.808594 86.828125 118.902344 86.828125 127.574219 95.496094 C 135.175781 103.148438 136.148438 114.878906 130.402344 123.546875 Z M 162.207031 155.308594"/><path fill="#F4F4F6" d="M 138.421875 186.789062 C 138.421875 159.757812 160.351562 137.828125 187.382812 137.828125 C 214.414062 137.828125 236.34375 159.757812 236.34375 186.789062 C 236.34375 213.820312 214.414062 235.75 187.382812 235.75 C 160.351562 235.75 138.421875 213.820312 138.421875 186.789062 Z M 138.421875 186.789062"/></svg>