<svg xmlns="http://www.w3.org/2000/svg" width="375" viewBox="0 0 375 375" height="375" version="1.0"><defs><clipPath id="a"><path d="M 64.976562 64.976562 L 310.226562 64.976562 L 310.226562 310.226562 L 64.976562 310.226562 Z M 64.976562 64.976562"/></clipPath></defs><g clip-path="url(#a)"><path fill="#D14770" d="M 64.976562 187.601562 C 64.976562 119.890625 119.890625 64.976562 187.601562 64.976562 C 255.316406 64.976562 310.226562 119.890625 310.226562 187.601562 C 310.226562 255.316406 255.316406 310.226562 187.601562 310.226562 C 119.890625 310.226562 64.976562 255.316406 64.976562 187.601562 Z M 64.976562 187.601562"/></g><path fill="#EDBCCC" d="M 276.667969 150.089844 C 271.578125 150.089844 266.4375 150.136719 261.347656 150.136719 C 249.828125 124.339844 227.242188 105.703125 198.722656 101.257812 C 166.941406 96.265625 136.546875 111.042969 118.40625 136.992188 C 110.351562 148.507812 129.28125 159.332031 137.289062 147.863281 C 162.148438 112.277344 215.28125 115.492188 237.078125 150.1875 C 232.332031 150.1875 227.636719 150.1875 222.894531 150.238281 C 221.558594 150.238281 220.621094 150.832031 220.027344 151.671875 C 219.085938 152.707031 218.691406 154.191406 219.730469 155.722656 C 228.726562 169.660156 237.722656 183.648438 246.714844 197.585938 C 248.25 199.960938 251.511719 199.910156 252.992188 197.585938 C 261.9375 183.601562 270.835938 169.5625 279.78125 155.574219 C 281.265625 153.203125 279.289062 150.089844 276.667969 150.089844 Z M 238.363281 221.507812 C 213.699219 256.847656 161.210938 253.933594 139.066406 220.027344 C 143.613281 220.027344 148.113281 220.027344 152.660156 219.976562 C 153.992188 219.976562 154.933594 219.382812 155.476562 218.542969 C 156.414062 217.503906 156.8125 216.023438 155.773438 214.492188 C 146.777344 200.550781 137.78125 186.566406 128.785156 172.628906 C 127.253906 170.304688 123.992188 170.304688 122.507812 172.628906 C 113.5625 186.613281 104.667969 200.652344 95.722656 214.640625 C 94.238281 216.960938 96.164062 220.074219 98.835938 220.074219 C 104.125 220.074219 109.363281 220.027344 114.652344 220.027344 C 126.265625 245.382812 148.65625 263.667969 176.878906 268.117188 C 208.660156 273.109375 239.054688 258.332031 257.195312 232.382812 C 265.300781 220.867188 246.371094 210.09375 238.363281 221.507812 Z M 238.363281 221.507812"/></svg>