<svg xmlns="http://www.w3.org/2000/svg" width="375" viewBox="0 0 375 375" height="375" version="1.0"><defs><clipPath id="a"><path d="M 66.671875 62.742188 L 307.960938 62.742188 L 307.960938 312.425781 L 66.671875 312.425781 Z M 66.671875 62.742188"/></clipPath></defs><path fill="#EDBCCC" d="M 163.945312 93.546875 C 175.988281 90.417969 188.066406 89.636719 200.175781 91.203125 C 212.851562 92.832031 224.328125 96.773438 234.597656 103.019531 C 252.160156 113.242188 265.125 128.320312 273.480469 148.265625 C 282.046875 168.632812 283.855469 188.828125 278.902344 208.835938 C 274.652344 230.5625 263.703125 248.800781 246.074219 263.5625 C 228.222656 278.324219 208.566406 285.34375 187.105469 284.636719 C 164.445312 285.488281 143.902344 277.578125 125.484375 260.902344 C 107.359375 244.433594 96.875 224.523438 94.042969 201.175781 C 90.359375 177.613281 95.421875 155.183594 109.234375 133.894531 C 123.1875 112.601562 141.421875 99.152344 163.945312 93.546875 Z M 230.238281 163.917969 L 224.613281 158.800781 C 223.40625 157.738281 222.378906 157.628906 221.53125 158.484375 L 192.738281 186.589844 L 145.140625 144.855469 C 143.9375 143.789062 142.773438 144.007812 141.636719 145.496094 L 135.902344 152.414062 C 134.699219 153.976562 134.699219 155.257812 135.902344 156.25 L 186.257812 200.535156 C 186.539062 200.753906 186.820312 200.929688 187.105469 201.070312 L 189.550781 203.304688 C 190.757812 204.4375 191.816406 204.578125 192.738281 203.730469 L 230.769531 166.785156 C 231.550781 166.003906 231.375 165.046875 230.238281 163.917969" fill-rule="evenodd"/><path fill="#F4F4F6" d="M 230.238281 163.917969 C 231.375 165.046875 231.550781 166.003906 230.769531 166.785156 L 192.738281 203.730469 C 191.816406 204.578125 190.757812 204.4375 189.550781 203.304688 L 187.105469 201.070312 C 186.820312 200.929688 186.539062 200.753906 186.257812 200.535156 L 135.902344 156.25 C 134.699219 155.257812 134.699219 153.976562 135.902344 152.414062 L 141.636719 145.496094 C 142.773438 144.007812 143.9375 143.789062 145.140625 144.855469 L 192.738281 186.589844 L 221.53125 158.484375 C 222.378906 157.628906 223.40625 157.738281 224.613281 158.800781 L 230.238281 163.917969" fill-rule="evenodd"/><g clip-path="url(#a)"><path fill="#D14770" d="M 163.945312 93.546875 C 141.421875 99.152344 123.1875 112.601562 109.234375 133.894531 C 95.421875 155.183594 90.359375 177.613281 94.042969 201.175781 C 96.875 224.523438 107.359375 244.433594 125.484375 260.902344 C 143.902344 277.578125 164.445312 285.488281 187.105469 284.636719 C 208.566406 285.34375 228.222656 278.324219 246.074219 263.5625 C 263.703125 248.800781 274.652344 230.5625 278.902344 208.835938 C 283.855469 188.828125 282.046875 168.632812 273.480469 148.265625 C 265.125 128.320312 252.160156 113.242188 234.597656 103.019531 C 224.328125 96.773438 212.851562 92.832031 200.175781 91.203125 C 188.066406 89.636719 175.988281 90.417969 163.945312 93.546875 Z M 181.476562 62.988281 C 185.800781 62.632812 190.148438 62.675781 194.550781 63.097656 C 211.546875 64.164062 228.363281 69.453125 245.011719 78.957031 C 272.984375 94.925781 291.609375 117.78125 300.886719 147.515625 C 307.402344 165.472656 309.429688 183.644531 306.949219 202.027344 C 305.105469 215.367188 300.886719 228.824219 294.308594 242.371094 C 278.933594 274.308594 255.777344 295.242188 224.828125 305.179688 C 194.160156 316.964844 163.199219 314.371094 131.96875 297.414062 C 100.949219 280.523438 81.046875 255.785156 72.265625 223.210938 C 70.140625 216.398438 68.613281 209.585938 67.691406 202.773438 C 64.222656 176.933594 69.566406 151.316406 83.734375 125.910156 C 101.796875 94.113281 126.980469 74.382812 159.273438 66.714844 C 166.710938 64.726562 174.113281 63.488281 181.476562 62.988281" fill-rule="evenodd"/></g></svg>