<svg xmlns="http://www.w3.org/2000/svg" width="375" viewBox="0 0 375 375" height="375" version="1.0"><defs><clipPath id="a"><path d="M 67 85.382812 L 313 85.382812 L 313 289.949219 L 67 289.949219 Z M 67 85.382812"/></clipPath><clipPath id="b"><path d="M 229.726562 199.613281 L 313 199.613281 L 313 289.488281 L 229.726562 289.488281 Z M 229.726562 199.613281"/></clipPath></defs><g clip-path="url(#a)"><path fill="#D14770" d="M 190.179688 85.382812 C 166.761719 85.382812 144.804688 97.019531 131.484375 116.105469 C 92.855469 117.527344 62.566406 152.105469 68.199219 192.160156 C 72.859375 225.269531 102.730469 249.035156 136.15625 249.035156 L 220.84375 249.035156 L 220.84375 187.664062 L 312.339844 187.664062 C 309.773438 159.753906 287.011719 137.605469 258.714844 136.5625 C 249.863281 106.410156 222.367188 85.382812 190.179688 85.382812 Z M 241.289062 208.121094 L 241.289062 228.578125 L 312.839844 228.578125 L 312.839844 208.121094 Z M 241.289062 238.808594 L 241.289062 259.265625 L 312.839844 259.265625 L 312.839844 238.808594 Z M 241.289062 269.492188 L 241.289062 289.949219 L 312.839844 289.949219 L 312.839844 269.492188 Z M 241.289062 269.492188"/></g><g clip-path="url(#b)"><path fill="#EDBCCC" d="M 190.179688 85.382812 C 166.761719 85.382812 144.804688 97.019531 131.484375 116.105469 C 92.855469 117.527344 62.566406 152.105469 68.199219 192.160156 C 72.859375 225.269531 102.730469 249.035156 136.15625 249.035156 L 220.84375 249.035156 L 220.84375 187.664062 L 312.339844 187.664062 C 309.773438 159.753906 287.011719 137.605469 258.714844 136.5625 C 249.863281 106.410156 222.367188 85.382812 190.179688 85.382812 Z M 241.289062 208.121094 L 241.289062 228.578125 L 312.839844 228.578125 L 312.839844 208.121094 Z M 241.289062 238.808594 L 241.289062 259.265625 L 312.839844 259.265625 L 312.839844 238.808594 Z M 241.289062 269.492188 L 241.289062 289.949219 L 312.839844 289.949219 L 312.839844 269.492188 Z M 241.289062 269.492188"/></g></svg>