<svg xmlns="http://www.w3.org/2000/svg" width="375" viewBox="0 0 375 375" height="375" version="1.0"><defs><clipPath id="a"><path d="M 124 65.09375 L 251 65.09375 L 251 242 L 124 242 Z M 124 65.09375"/></clipPath><clipPath id="b"><path d="M 91 152 L 284 152 L 284 309.59375 L 91 309.59375 Z M 91 152"/></clipPath></defs><g clip-path="url(#a)"><path fill="#F4F4F6" d="M 248.851562 239.835938 C 248.148438 240.5625 248.339844 239.71875 247.332031 239.71875 C 246.320312 239.71875 246.320312 240.28125 245.308594 240.28125 C 244.292969 240.28125 244.292969 240.480469 243.28125 240.480469 C 242.265625 240.480469 242.265625 241.015625 241.25 241.015625 C 240.238281 241.015625 240.238281 240.699219 239.222656 240.699219 C 238.207031 240.699219 238.207031 240.121094 237.195312 240.121094 C 236.183594 240.121094 236.183594 240.820312 235.171875 240.820312 C 234.160156 240.820312 234.160156 239.722656 233.148438 239.722656 C 232.136719 239.722656 232.136719 239.984375 231.128906 239.984375 C 230.117188 239.984375 230.117188 240.707031 229.109375 240.707031 C 228.097656 240.707031 228.097656 240.957031 227.089844 240.957031 C 226.082031 240.957031 226.082031 241.015625 225.070312 241.015625 C 224.0625 241.015625 224.0625 241.015625 223.054688 241.015625 C 222.046875 241.015625 222.042969 239.753906 221.035156 239.753906 C 220.027344 239.753906 220.027344 240.960938 219.015625 240.960938 C 218.007812 240.960938 218.007812 240.761719 216.996094 240.761719 C 215.988281 240.761719 215.988281 240.480469 214.976562 240.480469 C 213.964844 240.480469 213.964844 240.347656 212.953125 240.347656 C 211.941406 240.347656 211.941406 240.527344 210.925781 240.527344 C 209.914062 240.527344 209.914062 241 208.898438 241 C 207.882812 241 207.882812 239.726562 206.867188 239.726562 C 205.847656 239.726562 205.847656 239.644531 204.832031 239.644531 C 203.816406 239.644531 203.816406 240.835938 202.800781 240.835938 C 201.789062 240.835938 201.789062 240.035156 200.773438 240.035156 C 199.761719 240.035156 199.761719 240.789062 198.746094 240.789062 C 197.734375 240.789062 197.734375 240.199219 196.722656 240.199219 C 195.710938 240.199219 195.710938 239.636719 194.695312 239.636719 C 193.683594 239.636719 193.683594 240.230469 192.671875 240.230469 C 191.65625 240.230469 191.65625 240.210938 190.644531 240.210938 C 189.628906 240.210938 189.628906 240.875 188.613281 240.875 C 187.597656 240.875 187.597656 240.269531 186.582031 240.269531 C 185.5625 240.269531 185.5625 240.695312 184.546875 240.695312 C 183.527344 240.695312 183.527344 240.277344 182.511719 240.277344 C 181.496094 240.277344 181.496094 240.171875 180.480469 240.171875 C 179.464844 240.171875 179.464844 240.480469 178.453125 240.480469 C 177.4375 240.480469 177.4375 241.019531 176.421875 241.019531 C 175.40625 241.019531 175.40625 239.628906 174.390625 239.628906 C 173.371094 239.628906 173.371094 240.148438 172.355469 240.148438 C 171.335938 240.148438 171.335938 240.257812 170.316406 240.257812 C 169.300781 240.257812 169.300781 240.3125 168.285156 240.3125 C 167.265625 240.3125 167.265625 239.96875 166.25 239.96875 C 165.234375 239.96875 165.234375 239.796875 164.21875 239.796875 C 163.207031 239.796875 163.207031 240.207031 162.199219 240.207031 C 161.1875 240.207031 161.1875 240.585938 160.175781 240.585938 C 159.164062 240.585938 159.164062 240.796875 158.152344 240.796875 C 157.132812 240.796875 157.132812 240.125 156.117188 240.125 C 155.097656 240.125 155.097656 239.824219 154.078125 239.824219 C 153.0625 239.824219 153.0625 240.238281 152.042969 240.238281 C 151.027344 240.238281 151.027344 240.320312 150.011719 240.320312 C 148.996094 240.320312 148.996094 239.792969 147.980469 239.792969 C 146.957031 239.792969 146.957031 239.9375 145.933594 239.9375 C 144.917969 239.9375 144.917969 240.851562 143.898438 240.851562 C 142.878906 240.851562 142.878906 240.148438 141.859375 240.148438 C 140.835938 240.148438 140.835938 240.8125 139.8125 240.8125 C 138.789062 240.8125 138.789062 240.140625 137.769531 240.140625 C 136.75 240.140625 136.75 240.222656 135.730469 240.222656 C 134.710938 240.222656 134.710938 240.613281 133.691406 240.613281 C 132.667969 240.613281 132.667969 240.277344 131.644531 240.277344 C 130.617188 240.277344 130.617188 239.761719 129.59375 239.761719 C 128.5625 239.761719 128.5625 240.652344 127.535156 240.652344 C 126.507812 240.652344 126.453125 240.796875 125.722656 240.074219 C 125 239.351562 125.441406 239.296875 125.441406 238.273438 C 125.441406 237.253906 125.476562 237.253906 125.476562 236.230469 C 125.476562 235.210938 124.796875 235.210938 124.796875 234.1875 C 124.796875 233.167969 125.863281 233.167969 125.863281 232.148438 C 125.863281 231.125 125.925781 231.125 125.925781 230.105469 C 125.925781 229.085938 124.8125 229.085938 124.8125 228.066406 C 124.8125 227.046875 125.585938 227.046875 125.585938 226.027344 C 125.585938 225.007812 124.832031 225.007812 124.832031 223.988281 C 124.832031 222.96875 124.835938 222.96875 124.835938 221.949219 C 124.835938 220.925781 125.292969 220.925781 125.292969 219.90625 C 125.292969 218.886719 125.109375 218.886719 125.109375 217.863281 C 125.109375 216.839844 126.046875 216.839844 126.046875 215.820312 C 126.046875 214.792969 125.863281 214.792969 125.863281 213.769531 C 125.863281 212.746094 125.703125 212.746094 125.703125 211.71875 C 125.703125 210.695312 124.984375 210.695312 124.984375 209.667969 C 124.984375 208.640625 125.152344 208.640625 125.152344 207.613281 C 125.152344 206.585938 125.726562 206.585938 125.726562 205.558594 C 125.726562 204.535156 124.980469 204.535156 124.980469 203.511719 C 124.980469 202.484375 125.214844 202.484375 125.214844 201.460938 C 125.214844 200.4375 124.800781 200.4375 124.800781 199.414062 C 124.800781 198.390625 126.035156 198.390625 126.035156 197.367188 C 126.035156 196.34375 125.941406 196.34375 125.941406 195.320312 C 125.941406 194.296875 126.128906 194.296875 126.128906 193.273438 C 126.128906 192.246094 125.34375 192.246094 125.34375 191.21875 C 125.34375 190.195312 124.847656 190.195312 124.847656 189.167969 C 124.847656 188.136719 125.25 188.136719 125.25 187.109375 C 125.25 186.082031 125.3125 186.082031 125.3125 185.054688 C 125.3125 184.027344 125.902344 184.027344 125.902344 183 C 125.902344 181.976562 126.042969 181.976562 126.042969 180.949219 C 126.042969 179.921875 125.007812 179.921875 125.007812 178.898438 C 125.007812 177.871094 125.902344 177.871094 125.902344 176.84375 C 125.902344 175.816406 125.542969 175.816406 125.542969 174.789062 C 125.542969 173.757812 125.855469 173.757812 125.855469 172.730469 C 125.855469 171.699219 125.480469 171.699219 125.480469 170.671875 C 125.480469 169.644531 125.21875 169.644531 125.21875 168.617188 C 125.21875 167.589844 124.78125 167.589844 124.78125 166.5625 C 124.78125 165.542969 125.992188 165.542969 125.992188 164.523438 C 125.992188 163.5 125.917969 163.5 125.917969 162.480469 C 125.917969 161.457031 125.722656 161.457031 125.722656 160.433594 C 125.722656 159.40625 125.675781 159.40625 125.675781 158.378906 C 125.675781 157.347656 125.574219 157.347656 125.574219 156.316406 C 125.574219 155.289062 125.59375 155.289062 125.59375 154.261719 C 125.59375 153.234375 125.828125 153.234375 125.828125 152.207031 C 125.828125 151.179688 125.101562 151.179688 125.101562 150.152344 C 125.101562 149.117188 125.785156 149.117188 125.785156 148.085938 C 125.785156 147.054688 124.984375 147.054688 124.984375 146.027344 C 124.984375 144.996094 125.492188 144.996094 125.492188 143.964844 C 125.492188 142.929688 124.929688 142.929688 124.929688 141.898438 C 124.929688 140.867188 124.921875 140.867188 124.921875 139.832031 C 124.921875 138.800781 124.980469 138.800781 124.980469 137.769531 C 124.980469 136.742188 125.453125 136.742188 125.453125 135.710938 C 125.453125 134.675781 125.382812 134.675781 125.382812 133.640625 C 125.382812 132.605469 124.992188 132.605469 124.992188 131.570312 C 124.992188 130.527344 125.488281 130.527344 125.488281 129.488281 C 125.488281 128.449219 125.15625 128.449219 125.15625 127.410156 C 125.15625 126.730469 125.292969 126.046875 125.316406 125.375 C 125.335938 124.695312 124.859375 123.980469 124.902344 123.308594 C 124.945312 122.628906 125.667969 122 125.734375 121.328125 C 125.800781 120.652344 125.667969 119.953125 125.753906 119.285156 C 125.84375 118.609375 125.972656 117.9375 126.082031 117.273438 C 126.191406 116.605469 127.078125 116.085938 127.210938 115.421875 C 127.34375 114.757812 127.144531 114.039062 127.296875 113.378906 C 127.449219 112.722656 127.328125 111.996094 127.503906 111.34375 C 127.675781 110.691406 127.4375 109.90625 127.632812 109.261719 C 127.828125 108.617188 128.234375 108.023438 128.453125 107.382812 C 128.671875 106.742188 129.1875 106.203125 129.425781 105.574219 C 129.664062 104.941406 129.546875 104.160156 129.808594 103.539062 C 130.066406 102.914062 131.144531 102.644531 131.425781 102.03125 C 131.707031 101.417969 131.292969 100.476562 131.59375 99.871094 C 131.894531 99.265625 132.101562 98.597656 132.417969 98.003906 C 132.738281 97.410156 133.890625 97.277344 134.226562 96.695312 C 134.566406 96.109375 134.753906 95.449219 135.109375 94.878906 C 135.46875 94.304688 135.171875 93.304688 135.546875 92.742188 C 135.921875 92.183594 136.828125 91.984375 137.222656 91.433594 C 137.617188 90.886719 138.171875 90.464844 138.582031 89.929688 C 138.992188 89.398438 138.609375 88.21875 139.035156 87.695312 C 139.464844 87.175781 140.253906 86.941406 140.699219 86.433594 C 141.144531 85.925781 142.175781 85.957031 142.640625 85.460938 C 143.101562 84.96875 143.636719 84.578125 144.117188 84.097656 C 144.59375 83.621094 144.328125 82.382812 144.820312 81.921875 C 145.3125 81.457031 146 81.195312 146.507812 80.75 C 147.015625 80.304688 147.648438 80.007812 148.171875 79.578125 C 148.691406 79.148438 148.929688 78.351562 149.464844 77.941406 C 150 77.527344 150.746094 77.382812 151.292969 76.988281 C 151.839844 76.59375 152.175781 75.875 152.738281 75.496094 C 153.296875 75.121094 154.347656 75.5 154.921875 75.140625 C 155.496094 74.785156 155.824219 74.027344 156.40625 73.6875 C 156.992188 73.351562 157.507812 72.875 158.101562 72.558594 C 158.699219 72.238281 159.523438 72.363281 160.128906 72.0625 C 160.734375 71.765625 161.359375 71.523438 161.972656 71.242188 C 162.585938 70.964844 163.179688 70.65625 163.804688 70.398438 C 164.425781 70.136719 165.117188 70.082031 165.75 69.84375 C 166.382812 69.605469 166.898438 69.066406 167.539062 68.847656 C 168.175781 68.628906 168.644531 67.863281 169.292969 67.667969 C 169.9375 67.472656 170.570312 67.164062 171.222656 66.988281 C 171.875 66.8125 172.644531 67.039062 173.300781 66.886719 C 173.957031 66.734375 174.695312 66.9375 175.359375 66.804688 C 176.019531 66.675781 176.734375 66.894531 177.402344 66.785156 C 178.066406 66.675781 178.71875 66.582031 179.390625 66.492188 C 180.058594 66.40625 180.601562 65.167969 181.277344 65.101562 C 181.945312 65.035156 182.679688 65.589844 183.355469 65.542969 C 184.027344 65.5 184.710938 65.6875 185.390625 65.664062 C 186.066406 65.644531 186.738281 65.152344 187.414062 65.152344 C 188.09375 65.152344 188.75 66.167969 189.425781 66.191406 C 190.101562 66.210938 190.828125 65.121094 191.503906 65.164062 C 192.179688 65.207031 192.84375 65.507812 193.515625 65.574219 C 194.191406 65.636719 194.925781 65.304688 195.59375 65.390625 C 196.265625 65.480469 196.800781 66.515625 197.46875 66.625 C 198.136719 66.734375 198.964844 65.96875 199.628906 66.097656 C 200.292969 66.230469 200.789062 67.167969 201.445312 67.320312 C 202.105469 67.472656 202.742188 67.671875 203.394531 67.84375 C 204.050781 68.019531 204.65625 68.324219 205.300781 68.519531 C 205.945312 68.714844 206.785156 68.316406 207.421875 68.535156 C 208.0625 68.753906 208.664062 69.089844 209.296875 69.332031 C 209.929688 69.570312 210.433594 70.128906 211.054688 70.386719 C 211.679688 70.644531 212.148438 71.234375 212.761719 71.515625 C 213.378906 71.792969 214.453125 71.101562 215.058594 71.402344 C 215.664062 71.703125 216.03125 72.484375 216.625 72.804688 C 217.21875 73.125 217.917969 73.269531 218.5 73.609375 C 219.085938 73.949219 219.351562 74.808594 219.925781 75.167969 C 220.496094 75.523438 221.65625 74.988281 222.214844 75.363281 C 222.777344 75.742188 223.265625 76.253906 223.816406 76.648438 C 224.363281 77.042969 224.378906 78.164062 224.914062 78.574219 C 225.449219 78.988281 226.410156 78.863281 226.933594 79.292969 C 227.453125 79.71875 227.460938 80.75 227.96875 81.199219 C 228.476562 81.644531 229.300781 81.730469 229.792969 82.195312 C 230.289062 82.65625 231.09375 82.808594 231.570312 83.285156 C 232.046875 83.761719 231.835938 84.910156 232.296875 85.402344 C 232.757812 85.898438 233.289062 86.3125 233.734375 86.820312 C 234.179688 87.324219 234.902344 87.59375 235.328125 88.117188 C 235.757812 88.636719 236.136719 89.199219 236.550781 89.734375 C 236.960938 90.269531 237.230469 90.90625 237.625 91.457031 C 238.019531 92.003906 238.410156 92.550781 238.785156 93.109375 C 239.160156 93.671875 239.714844 94.117188 240.074219 94.6875 C 240.429688 95.261719 240.53125 95.988281 240.867188 96.570312 C 241.207031 97.15625 241.375 97.824219 241.695312 98.417969 C 242.015625 99.011719 242.941406 99.292969 243.242188 99.898438 C 243.542969 100.503906 243.984375 101.054688 244.261719 101.671875 C 244.542969 102.285156 244.265625 103.144531 244.527344 103.769531 C 244.785156 104.390625 245.738281 104.746094 245.976562 105.378906 C 246.214844 106.011719 246.128906 106.777344 246.347656 107.414062 C 246.5625 108.054688 246.847656 108.683594 247.046875 109.328125 C 247.242188 109.972656 247.164062 110.707031 247.339844 111.359375 C 247.515625 112.011719 247.238281 112.773438 247.390625 113.429688 C 247.542969 114.085938 248.6875 114.535156 248.820312 115.199219 C 248.953125 115.859375 248.558594 116.628906 248.667969 117.296875 C 248.777344 117.960938 249.242188 118.585938 249.328125 119.257812 C 249.417969 119.925781 248.324219 120.730469 248.390625 121.402344 C 248.457031 122.074219 249.503906 122.660156 249.546875 123.335938 C 249.589844 124.007812 249.160156 124.707031 249.179688 125.386719 C 249.203125 126.058594 249.234375 126.730469 249.234375 127.410156 C 249.234375 128.433594 248.648438 128.433594 248.648438 129.457031 C 248.648438 130.480469 249.464844 130.480469 249.464844 131.5 C 249.464844 132.523438 249.578125 132.523438 249.578125 133.542969 C 249.578125 134.5625 250.023438 134.5625 250.023438 135.585938 C 250.023438 136.605469 248.644531 136.605469 248.644531 137.625 C 248.644531 138.644531 249.597656 138.644531 249.597656 139.664062 C 249.597656 140.683594 249.625 140.683594 249.625 141.703125 C 249.625 142.722656 249.046875 142.722656 249.046875 143.742188 C 249.046875 144.761719 248.9375 144.761719 248.9375 145.78125 C 248.9375 146.804688 248.710938 146.804688 248.710938 147.824219 C 248.710938 148.847656 249.113281 148.847656 249.113281 149.867188 C 249.113281 150.890625 249.332031 150.890625 249.332031 151.914062 C 249.332031 152.9375 248.875 152.9375 248.875 153.960938 C 248.875 154.984375 248.914062 154.984375 248.914062 156.011719 C 248.914062 157.039062 249.9375 157.039062 249.9375 158.066406 C 249.9375 159.089844 249.582031 159.09375 249.582031 160.121094 C 249.582031 161.144531 249.730469 161.144531 249.730469 162.171875 C 249.730469 163.195312 249.359375 163.195312 249.359375 164.222656 C 249.359375 165.246094 248.789062 165.246094 248.789062 166.269531 C 248.789062 167.292969 249.578125 167.292969 249.578125 168.316406 C 249.578125 169.339844 248.742188 169.339844 248.742188 170.363281 C 248.742188 171.386719 249.902344 171.386719 249.902344 172.410156 C 249.902344 173.433594 249.542969 173.433594 249.542969 174.460938 C 249.542969 175.484375 249.246094 175.484375 249.246094 176.511719 C 249.246094 177.539062 248.898438 177.539062 248.898438 178.566406 C 248.898438 179.59375 250.054688 179.59375 250.054688 180.625 C 250.054688 181.652344 249.222656 181.652344 249.222656 182.679688 C 249.222656 183.703125 249.914062 183.703125 249.914062 184.730469 C 249.914062 185.757812 250.035156 185.757812 250.035156 186.78125 C 250.035156 187.808594 249.242188 187.808594 249.242188 188.832031 C 249.242188 189.859375 248.746094 189.859375 248.746094 190.886719 C 248.746094 191.914062 249.683594 191.914062 249.683594 192.945312 C 249.683594 193.972656 248.699219 193.972656 248.699219 195.003906 C 248.699219 196.03125 249.230469 196.03125 249.230469 197.058594 C 249.230469 198.085938 249.421875 198.085938 249.421875 199.113281 C 249.421875 200.140625 249.953125 200.140625 249.953125 201.167969 C 249.953125 202.1875 249.226562 202.1875 249.226562 203.207031 C 249.226562 204.230469 249.011719 204.230469 249.011719 205.25 C 249.011719 206.273438 249.4375 206.273438 249.4375 207.296875 C 249.4375 208.324219 249.40625 208.324219 249.40625 209.355469 C 249.40625 210.386719 249.574219 210.386719 249.574219 211.414062 C 249.574219 212.445312 248.730469 212.445312 248.730469 213.472656 C 248.730469 214.496094 249.660156 214.496094 249.660156 215.523438 C 249.660156 216.550781 249.558594 216.550781 249.558594 217.578125 C 249.558594 218.613281 249.835938 218.613281 249.835938 219.644531 C 249.835938 220.675781 248.664062 220.675781 248.664062 221.707031 C 248.664062 222.734375 248.828125 222.734375 248.828125 223.765625 C 248.828125 224.800781 249.691406 224.800781 249.691406 225.832031 C 249.691406 226.867188 249.796875 226.867188 249.796875 227.898438 C 249.796875 228.929688 249.804688 228.929688 249.804688 229.960938 C 249.804688 230.988281 248.871094 230.988281 248.871094 232.019531 C 248.871094 233.054688 249.476562 233.054688 249.476562 234.089844 C 249.476562 235.125 249.378906 235.125 249.378906 236.164062 C 249.308594 236.855469 249.28125 237.550781 249.292969 238.246094 C 249.359375 239.117188 249.578125 239.089844 248.851562 239.835938 Z M 143.660156 222.140625 C 144.382812 222.871094 145.179688 222.253906 146.207031 222.253906 C 147.234375 222.253906 147.234375 221.691406 148.265625 221.691406 C 149.292969 221.691406 149.292969 221.492188 150.324219 221.492188 C 151.351562 221.492188 151.351562 220.957031 152.378906 220.957031 C 153.40625 220.957031 153.40625 221.273438 154.433594 221.273438 C 155.457031 221.273438 155.457031 221.851562 156.484375 221.851562 C 157.511719 221.851562 157.511719 221.152344 158.535156 221.152344 C 159.5625 221.152344 159.5625 222.25 160.585938 222.25 C 161.613281 222.25 161.613281 221.988281 162.636719 221.988281 C 163.664062 221.988281 163.664062 221.265625 164.691406 221.265625 C 165.71875 221.265625 165.71875 221.011719 166.746094 221.011719 C 167.773438 221.011719 167.773438 220.957031 168.804688 220.957031 C 169.835938 220.957031 169.835938 220.957031 170.867188 220.957031 C 171.894531 220.957031 171.894531 222.21875 172.925781 222.21875 C 173.953125 222.21875 173.953125 221.011719 174.980469 221.011719 C 176.007812 221.011719 176.007812 221.210938 177.035156 221.210938 C 178.066406 221.210938 178.066406 221.492188 179.09375 221.492188 C 180.121094 221.492188 180.121094 221.625 181.148438 221.625 C 182.179688 221.625 182.179688 221.445312 183.210938 221.445312 C 184.242188 221.445312 184.242188 220.972656 185.273438 220.972656 C 186.300781 220.972656 186.300781 222.246094 187.332031 222.246094 C 188.363281 222.246094 188.363281 222.328125 189.390625 222.328125 C 190.421875 222.328125 190.421875 221.136719 191.449219 221.136719 C 192.472656 221.136719 192.472656 221.933594 193.496094 221.933594 C 194.515625 221.933594 194.515625 221.183594 195.539062 221.183594 C 196.566406 221.183594 196.566406 221.773438 197.59375 221.773438 C 198.621094 221.773438 198.621094 222.335938 199.652344 222.335938 C 200.683594 222.335938 200.683594 221.742188 201.71875 221.742188 C 202.746094 221.742188 202.746094 221.757812 203.777344 221.757812 C 204.804688 221.757812 204.804688 221.09375 205.832031 221.09375 C 206.863281 221.09375 206.863281 221.703125 207.894531 221.703125 C 208.929688 221.703125 208.929688 221.277344 209.960938 221.277344 C 210.996094 221.277344 210.996094 221.695312 212.027344 221.695312 C 213.058594 221.695312 213.058594 221.796875 214.089844 221.796875 C 215.128906 221.796875 215.128906 221.492188 216.164062 221.492188 C 217.195312 221.492188 217.195312 220.953125 218.230469 220.953125 C 219.265625 220.953125 219.265625 222.34375 220.296875 222.34375 C 221.328125 222.34375 221.328125 221.824219 222.359375 221.824219 C 223.398438 221.824219 223.398438 221.714844 224.433594 221.714844 C 225.472656 221.714844 225.472656 221.660156 226.511719 221.660156 C 227.554688 221.660156 227.554688 222.003906 228.59375 222.003906 C 229.636719 222.003906 230.296875 222.753906 231.042969 222.023438 C 231.769531 221.3125 230.789062 220.632812 230.789062 219.617188 C 230.789062 218.597656 230.414062 218.597656 230.414062 217.578125 C 230.414062 216.5625 230.203125 216.5625 230.203125 215.542969 C 230.203125 214.519531 230.875 214.519531 230.875 213.5 C 230.875 212.476562 231.171875 212.476562 231.171875 211.457031 C 231.171875 210.433594 230.757812 210.433594 230.757812 209.410156 C 230.757812 208.382812 230.675781 208.382812 230.675781 207.359375 C 230.675781 206.335938 231.207031 206.335938 231.207031 205.316406 C 231.207031 204.292969 231.058594 204.292969 231.058594 203.273438 C 231.058594 202.25 230.148438 202.25 230.148438 201.230469 C 230.148438 200.210938 230.851562 200.210938 230.851562 199.191406 C 230.851562 198.167969 230.183594 198.167969 230.183594 197.148438 C 230.183594 196.128906 230.859375 196.128906 230.859375 195.109375 C 230.859375 194.085938 230.773438 194.085938 230.773438 193.066406 C 230.773438 192.042969 230.382812 192.042969 230.382812 191.019531 C 230.382812 189.996094 230.722656 189.996094 230.722656 188.972656 C 230.722656 187.945312 231.238281 187.945312 231.238281 186.921875 C 231.238281 185.898438 230.347656 185.898438 230.347656 184.871094 C 230.347656 183.847656 231.027344 183.847656 231.027344 182.828125 C 231.027344 181.804688 230.636719 181.804688 230.636719 180.78125 C 230.636719 179.757812 230.675781 179.757812 230.675781 178.734375 C 230.675781 177.710938 229.996094 177.710938 229.996094 176.6875 C 229.996094 175.664062 231.0625 175.664062 231.0625 174.640625 C 231.0625 173.613281 231.125 173.613281 231.125 172.585938 C 231.125 171.5625 230.011719 171.5625 230.011719 170.539062 C 230.011719 169.515625 230.785156 169.515625 230.785156 168.488281 C 230.785156 167.464844 230.03125 167.464844 230.03125 166.441406 C 230.03125 165.425781 230.035156 165.425781 230.035156 164.40625 C 230.035156 163.390625 230.492188 163.390625 230.492188 162.371094 C 230.492188 161.351562 230.308594 161.351562 230.308594 160.328125 C 230.308594 159.304688 231.246094 159.304688 231.246094 158.28125 C 231.246094 157.253906 231.0625 157.253906 231.0625 156.226562 C 231.0625 155.199219 230.902344 155.199219 230.902344 154.175781 C 230.902344 153.152344 230.183594 153.152344 230.183594 152.128906 C 230.183594 151.105469 230.351562 151.105469 230.351562 150.082031 C 230.351562 149.050781 230.925781 149.050781 230.925781 148.023438 C 230.925781 146.996094 230.179688 146.996094 230.179688 145.96875 C 230.179688 144.941406 230.414062 144.941406 230.414062 143.914062 C 230.414062 142.882812 230 142.882812 230 141.851562 C 230 140.824219 231.234375 140.824219 231.234375 139.792969 C 231.234375 138.765625 231.140625 138.765625 231.140625 137.738281 C 231.140625 136.710938 231.328125 136.710938 231.328125 135.6875 C 231.328125 134.65625 230.542969 134.65625 230.542969 133.621094 C 230.542969 132.589844 230.046875 132.589844 230.046875 131.554688 C 230.046875 130.519531 230.449219 130.519531 230.449219 129.484375 C 230.449219 128.449219 230.511719 128.449219 230.511719 127.410156 C 230.511719 126.722656 231.085938 126.015625 231.054688 125.332031 C 231.019531 124.644531 231.109375 123.925781 231.046875 123.246094 C 230.980469 122.558594 229.871094 122 229.773438 121.320312 C 229.675781 120.640625 230.445312 119.816406 230.316406 119.144531 C 230.1875 118.46875 229.6875 117.863281 229.523438 117.199219 C 229.363281 116.527344 229.484375 115.773438 229.292969 115.117188 C 229.097656 114.457031 228.527344 113.910156 228.300781 113.265625 C 228.074219 112.613281 227.59375 112.066406 227.339844 111.433594 C 227.082031 110.792969 226.417969 110.359375 226.132812 109.734375 C 225.84375 109.109375 226.632812 107.96875 226.316406 107.359375 C 226.003906 106.75 225.597656 106.160156 225.253906 105.566406 C 224.910156 104.972656 224.375 104.476562 224.003906 103.898438 C 223.632812 103.320312 223.203125 102.769531 222.804688 102.214844 C 222.402344 101.65625 221.90625 101.160156 221.480469 100.625 C 221.054688 100.085938 220.628906 99.539062 220.179688 99.019531 C 219.730469 98.503906 219.433594 97.828125 218.960938 97.332031 C 218.488281 96.835938 217.488281 96.863281 216.992188 96.390625 C 216.496094 95.917969 216.449219 94.953125 215.929688 94.5 C 215.414062 94.050781 214.375 94.238281 213.835938 93.8125 C 213.296875 93.386719 213.0625 92.574219 212.503906 92.175781 C 211.945312 91.777344 211.074219 91.863281 210.496094 91.492188 C 209.917969 91.121094 209.351562 90.785156 208.757812 90.4375 C 208.164062 90.097656 207.613281 89.726562 207.003906 89.410156 C 206.394531 89.09375 205.996094 88.375 205.371094 88.089844 C 204.75 87.804688 204.09375 87.601562 203.457031 87.34375 C 202.820312 87.089844 202.054688 87.21875 201.40625 86.992188 C 200.757812 86.765625 200.265625 86.089844 199.605469 85.894531 C 198.949219 85.703125 198.207031 85.847656 197.539062 85.6875 C 196.875 85.523438 196.242188 85.257812 195.566406 85.128906 C 194.894531 85 194.15625 85.394531 193.472656 85.296875 C 192.796875 85.199219 192.210938 84.457031 191.527344 84.390625 C 190.84375 84.328125 190.152344 84.492188 189.464844 84.457031 C 188.78125 84.425781 188.105469 84.382812 187.414062 84.382812 C 186.722656 84.382812 186.011719 83.617188 185.328125 83.652344 C 184.640625 83.683594 183.960938 84.078125 183.28125 84.144531 C 182.597656 84.207031 181.945312 84.585938 181.269531 84.679688 C 180.585938 84.777344 180 85.332031 179.328125 85.460938 C 178.652344 85.589844 177.957031 85.53125 177.292969 85.695312 C 176.625 85.855469 175.890625 85.742188 175.234375 85.933594 C 174.574219 86.128906 174.050781 86.710938 173.402344 86.933594 C 172.753906 87.160156 171.800781 86.574219 171.164062 86.828125 C 170.527344 87.085938 170.199219 88.070312 169.574219 88.359375 C 168.949219 88.644531 168.402344 89.046875 167.792969 89.363281 C 167.183594 89.675781 166.128906 89.183594 165.535156 89.527344 C 164.941406 89.871094 164.433594 90.394531 163.855469 90.765625 C 163.277344 91.140625 163.160156 92.179688 162.601562 92.578125 C 162.042969 92.976562 161.121094 92.878906 160.582031 93.304688 C 160.042969 93.730469 159.382812 94.027344 158.863281 94.476562 C 158.347656 94.925781 158.542969 96.148438 158.042969 96.621094 C 157.546875 97.09375 156.761719 97.25 156.289062 97.746094 C 155.8125 98.242188 154.769531 98.226562 154.316406 98.746094 C 153.867188 99.265625 153.328125 99.742188 152.902344 100.28125 C 152.476562 100.820312 152.921875 102.019531 152.523438 102.578125 C 152.125 103.136719 151.527344 103.542969 151.15625 104.121094 C 150.78125 104.695312 150.269531 105.183594 149.925781 105.777344 C 149.582031 106.371094 149.675781 107.191406 149.359375 107.804688 C 149.042969 108.410156 148.457031 108.871094 148.171875 109.496094 C 147.886719 110.121094 147.988281 110.894531 147.734375 111.53125 C 147.476562 112.167969 146.40625 112.496094 146.183594 113.144531 C 145.957031 113.792969 146.203125 114.597656 146.007812 115.257812 C 145.816406 115.914062 145.796875 116.609375 145.636719 117.277344 C 145.472656 117.941406 144.851562 118.507812 144.722656 119.183594 C 144.59375 119.855469 144.425781 120.535156 144.328125 121.21875 C 144.234375 121.894531 144.195312 122.589844 144.132812 123.277344 C 144.066406 123.957031 143.816406 124.644531 143.785156 125.332031 C 143.75 126.015625 144.066406 126.722656 144.066406 127.410156 C 144.066406 128.429688 144.652344 128.429688 144.652344 129.445312 C 144.652344 130.464844 144.777344 130.464844 144.777344 131.484375 C 144.777344 132.503906 144.371094 132.503906 144.371094 133.523438 C 144.371094 134.542969 144.015625 134.542969 144.015625 135.5625 C 144.015625 136.585938 143.667969 136.585938 143.667969 137.605469 C 143.667969 138.628906 143.667969 138.628906 143.667969 139.65625 C 143.667969 140.679688 144.839844 140.679688 144.839844 141.703125 C 144.839844 142.726562 144.226562 142.726562 144.226562 143.75 C 144.226562 144.769531 144.007812 144.769531 144.007812 145.792969 C 144.007812 146.8125 144.484375 146.8125 144.484375 147.832031 C 144.484375 148.851562 143.480469 148.851562 143.480469 149.875 C 143.480469 150.894531 144.609375 150.894531 144.609375 151.914062 C 144.609375 152.933594 144.363281 152.933594 144.363281 153.957031 C 144.363281 154.976562 144.78125 154.976562 144.78125 155.996094 C 144.78125 157.019531 143.835938 157.019531 143.835938 158.042969 C 143.835938 159.066406 144.738281 159.066406 144.738281 160.089844 C 144.738281 161.117188 143.925781 161.117188 143.925781 162.140625 C 143.925781 163.167969 143.890625 163.167969 143.890625 164.191406 C 143.890625 165.214844 143.769531 165.214844 143.769531 166.238281 C 143.769531 167.257812 144.40625 167.257812 144.40625 168.28125 C 144.40625 169.304688 144.289062 169.304688 144.289062 170.328125 C 144.289062 171.351562 143.957031 171.351562 143.957031 172.375 C 143.957031 173.398438 143.601562 173.398438 143.601562 174.425781 C 143.601562 175.449219 144.691406 175.449219 144.691406 176.476562 C 144.691406 177.5 144.164062 177.5 144.164062 178.523438 C 144.164062 179.550781 144.375 179.550781 144.375 180.574219 C 144.375 181.597656 143.773438 181.597656 143.773438 182.621094 C 143.773438 183.640625 144.851562 183.640625 144.851562 184.65625 C 144.851562 185.675781 144.710938 185.675781 144.710938 186.691406 C 144.710938 187.710938 143.816406 187.710938 143.816406 188.734375 C 143.816406 189.757812 144.515625 189.757812 144.515625 190.78125 C 144.515625 191.808594 143.734375 191.808594 143.734375 192.839844 C 143.734375 193.863281 144.222656 193.863281 144.222656 194.886719 C 144.222656 195.910156 144.675781 195.910156 144.675781 196.933594 C 144.675781 197.957031 143.722656 197.957031 143.722656 198.980469 C 143.722656 200.011719 143.835938 200.011719 143.835938 201.042969 C 143.835938 202.066406 144.214844 202.066406 144.214844 203.09375 C 144.214844 204.121094 144.160156 204.121094 144.160156 205.148438 C 144.160156 206.179688 143.996094 206.179688 143.996094 207.210938 C 143.996094 208.238281 144.007812 208.238281 144.007812 209.269531 C 144.007812 210.296875 144.230469 210.296875 144.230469 211.324219 C 144.230469 212.351562 143.941406 212.351562 143.941406 213.375 C 143.941406 214.410156 143.765625 214.410156 143.765625 215.441406 C 143.765625 216.472656 144.460938 216.472656 144.460938 217.507812 C 144.460938 218.542969 144.910156 218.730469 144.601562 219.71875 C 144.183594 221.046875 142.929688 221.402344 143.660156 222.140625 Z M 143.660156 222.140625"/></g><g clip-path="url(#b)"><path fill="#D14770" d="M 259.394531 309.082031 C 258.367188 309.082031 258.367188 308.492188 257.339844 308.492188 C 256.3125 308.492188 256.3125 308.59375 255.285156 308.59375 C 254.257812 308.59375 254.257812 308.917969 253.230469 308.917969 C 252.207031 308.917969 252.207031 309.328125 251.179688 309.328125 C 250.152344 309.328125 250.152344 309.253906 249.128906 309.253906 C 248.109375 309.253906 248.109375 308.496094 247.089844 308.496094 C 246.066406 308.496094 246.066406 308.65625 245.046875 308.65625 C 244.027344 308.65625 244.027344 308.292969 243.003906 308.292969 C 241.984375 308.292969 241.984375 309.578125 240.960938 309.578125 C 239.9375 309.578125 239.9375 308.34375 238.914062 308.34375 C 237.886719 308.34375 237.886719 309.378906 236.863281 309.378906 C 235.835938 309.378906 235.835938 308.425781 234.808594 308.425781 C 233.78125 308.425781 233.78125 308.589844 232.753906 308.589844 C 231.726562 308.589844 231.726562 308.65625 230.695312 308.65625 C 229.667969 308.65625 229.667969 309.613281 228.644531 309.613281 C 227.617188 309.613281 227.617188 309.242188 226.589844 309.242188 C 225.566406 309.242188 225.566406 309.015625 224.542969 309.015625 C 223.519531 309.015625 223.519531 308.296875 222.496094 308.296875 C 221.472656 308.296875 221.472656 308.820312 220.449219 308.820312 C 219.425781 308.820312 219.425781 308.957031 218.402344 308.957031 C 217.378906 308.957031 217.378906 308.328125 216.355469 308.328125 C 215.335938 308.328125 215.335938 308.851562 214.3125 308.851562 C 213.289062 308.851562 213.289062 309.421875 212.265625 309.421875 C 211.246094 309.421875 211.246094 308.644531 210.222656 308.644531 C 209.199219 308.644531 209.199219 309.632812 208.175781 309.632812 C 207.152344 309.632812 207.152344 308.636719 206.125 308.636719 C 205.101562 308.636719 205.101562 308.855469 204.078125 308.855469 C 203.050781 308.855469 203.050781 309.636719 202.023438 309.636719 C 200.996094 309.636719 200.996094 308.773438 199.96875 308.773438 C 198.9375 308.773438 198.9375 308.585938 197.90625 308.585938 C 196.878906 308.585938 196.878906 309.421875 195.847656 309.421875 C 194.820312 309.421875 194.820312 308.234375 193.789062 308.234375 C 192.761719 308.234375 192.761719 308.324219 191.734375 308.324219 C 190.707031 308.324219 190.707031 308.890625 189.683594 308.890625 C 188.65625 308.890625 188.65625 309.085938 187.628906 309.085938 C 186.601562 309.085938 186.601562 309.621094 185.578125 309.621094 C 184.550781 309.621094 184.550781 309.304688 183.523438 309.304688 C 182.496094 309.304688 182.496094 308.726562 181.46875 308.726562 C 180.441406 308.726562 180.441406 309.425781 179.414062 309.425781 C 178.382812 309.425781 178.382812 308.328125 177.351562 308.328125 C 176.320312 308.328125 176.320312 308.589844 175.289062 308.589844 C 174.257812 308.589844 174.257812 309.3125 173.230469 309.3125 C 172.199219 309.3125 172.199219 309.566406 171.171875 309.566406 C 170.144531 309.566406 170.144531 309.621094 169.113281 309.621094 C 168.085938 309.621094 168.085938 309.621094 167.058594 309.621094 C 166.027344 309.621094 166.027344 308.359375 165 308.359375 C 163.96875 308.359375 163.96875 309.566406 162.9375 309.566406 C 161.90625 309.566406 161.90625 309.367188 160.871094 309.367188 C 159.84375 309.367188 159.84375 309.085938 158.8125 309.085938 C 157.78125 309.085938 157.78125 308.953125 156.75 308.953125 C 155.722656 308.953125 155.722656 309.132812 154.691406 309.132812 C 153.667969 309.132812 153.667969 309.605469 152.644531 309.605469 C 151.621094 309.605469 151.621094 308.332031 150.597656 308.332031 C 149.570312 308.332031 149.570312 308.25 148.542969 308.25 C 147.511719 308.25 147.511719 309.441406 146.484375 309.441406 C 145.449219 309.441406 145.449219 308.644531 144.414062 308.644531 C 143.386719 308.644531 143.386719 309.394531 142.355469 309.394531 C 141.324219 309.394531 141.324219 308.804688 140.296875 308.804688 C 139.265625 308.804688 139.265625 308.242188 138.234375 308.242188 C 137.199219 308.242188 137.199219 308.835938 136.164062 308.835938 C 135.132812 308.835938 135.132812 308.820312 134.097656 308.820312 C 133.066406 308.820312 133.066406 309.484375 132.03125 309.484375 C 130.996094 309.484375 130.996094 308.875 129.960938 308.875 C 128.925781 308.875 128.925781 309.300781 127.890625 309.300781 C 126.855469 309.300781 126.855469 308.882812 125.820312 308.882812 C 124.789062 308.882812 124.789062 308.78125 123.757812 308.78125 C 122.71875 308.78125 122.71875 309.085938 121.683594 309.085938 C 120.644531 309.085938 120.644531 309.625 119.605469 309.625 C 118.5625 309.625 118.5625 308.234375 117.519531 308.234375 C 116.476562 308.234375 116.476562 308.753906 115.433594 308.753906 C 114.75 308.753906 114.074219 308.835938 113.402344 308.777344 C 112.722656 308.71875 112.042969 308.683594 111.378906 308.566406 C 110.707031 308.449219 110.132812 307.972656 109.480469 307.796875 C 108.820312 307.621094 108.261719 307.265625 107.625 307.035156 C 106.984375 306.800781 106.226562 306.929688 105.613281 306.640625 C 104.996094 306.355469 104.214844 306.371094 103.625 306.03125 C 103.039062 305.691406 102.324219 305.484375 101.769531 305.097656 C 101.210938 304.707031 101.074219 303.75 100.554688 303.316406 C 100.035156 302.878906 99.757812 302.21875 99.277344 301.738281 C 98.796875 301.257812 98.050781 301.058594 97.613281 300.535156 C 97.175781 300.015625 96.699219 299.53125 96.308594 298.976562 C 95.921875 298.421875 96.011719 297.582031 95.671875 296.996094 C 95.332031 296.410156 94.90625 295.910156 94.621094 295.292969 C 94.332031 294.679688 93.230469 294.394531 92.996094 293.753906 C 92.765625 293.121094 93.226562 292.246094 93.046875 291.585938 C 92.875 290.9375 92.078125 290.402344 91.957031 289.730469 C 91.84375 289.066406 92.417969 288.292969 92.359375 287.609375 C 92.300781 286.9375 92.1875 286.277344 92.1875 285.589844 C 92.1875 284.566406 91.796875 284.566406 91.796875 283.539062 C 91.796875 282.515625 92.136719 282.515625 92.136719 281.492188 C 92.136719 280.46875 92.652344 280.46875 92.652344 279.445312 C 92.652344 278.421875 91.761719 278.421875 91.761719 277.398438 C 91.761719 276.375 92.441406 276.375 92.441406 275.351562 C 92.441406 274.328125 92.054688 274.328125 92.054688 273.304688 C 92.054688 272.28125 92.089844 272.28125 92.089844 271.257812 C 92.089844 270.230469 91.410156 270.230469 91.410156 269.207031 C 91.410156 268.183594 92.476562 268.183594 92.476562 267.15625 C 92.476562 266.132812 92.542969 266.132812 92.542969 265.105469 C 92.542969 264.078125 91.425781 264.078125 91.425781 263.050781 C 91.425781 262.023438 92.199219 262.023438 92.199219 260.992188 C 92.199219 259.960938 91.445312 259.960938 91.445312 258.929688 C 91.445312 257.902344 91.453125 257.898438 91.453125 256.871094 C 91.453125 255.839844 91.90625 255.839844 91.90625 254.808594 C 91.90625 253.78125 91.722656 253.78125 91.722656 252.753906 C 91.722656 251.726562 92.660156 251.726562 92.660156 250.699219 C 92.660156 249.671875 92.476562 249.671875 92.476562 248.644531 C 92.476562 247.617188 92.320312 247.617188 92.320312 246.589844 C 92.320312 245.5625 91.597656 245.5625 91.597656 244.535156 C 91.597656 243.507812 91.765625 243.507812 91.765625 242.476562 C 91.765625 241.449219 92.339844 241.449219 92.339844 240.417969 C 92.339844 239.390625 91.59375 239.390625 91.59375 238.359375 C 91.59375 237.324219 91.828125 237.324219 91.828125 236.292969 C 91.828125 235.261719 91.414062 235.261719 91.414062 234.230469 C 91.414062 233.199219 92.648438 233.199219 92.648438 232.171875 C 92.648438 231.140625 92.558594 231.140625 92.558594 230.113281 C 92.558594 229.082031 92.746094 229.082031 92.746094 228.050781 C 92.746094 227.023438 91.957031 227.023438 91.957031 225.992188 C 91.957031 224.960938 91.460938 224.960938 91.460938 223.929688 C 91.460938 222.894531 91.867188 222.894531 91.867188 221.863281 C 91.867188 220.832031 91.929688 220.832031 91.929688 219.800781 C 91.929688 218.769531 92.515625 218.769531 92.515625 217.738281 C 92.515625 216.707031 92.660156 216.707031 92.660156 215.675781 C 92.660156 214.652344 91.621094 214.652344 91.621094 213.625 C 91.621094 212.601562 92.515625 212.601562 92.515625 211.578125 C 92.515625 210.550781 92.15625 210.550781 92.15625 209.523438 C 92.15625 208.492188 92.472656 208.492188 92.472656 207.460938 C 92.472656 206.425781 92.09375 206.425781 92.09375 205.390625 C 92.09375 204.359375 91.832031 204.359375 91.832031 203.328125 C 91.832031 202.296875 91.394531 202.296875 91.394531 201.265625 C 91.394531 200.234375 92.605469 200.234375 92.605469 199.203125 C 92.605469 198.167969 92.535156 198.167969 92.535156 197.132812 C 92.535156 196.097656 92.339844 196.097656 92.339844 195.0625 C 92.339844 194.03125 92.292969 194.03125 92.292969 192.996094 C 92.292969 191.957031 92.1875 191.957031 92.1875 190.921875 C 92.1875 189.882812 92.207031 189.882812 92.207031 188.847656 C 92.207031 187.8125 92.441406 187.8125 92.441406 186.777344 C 92.441406 185.746094 91.71875 185.746094 91.71875 184.710938 C 91.71875 183.675781 92.398438 183.675781 92.398438 182.636719 C 92.398438 181.59375 91.597656 181.59375 91.597656 180.554688 C 91.597656 179.511719 92.105469 179.511719 92.105469 178.46875 C 92.105469 177.425781 91.542969 177.425781 91.542969 176.382812 C 91.542969 175.695312 91.566406 174.96875 91.625 174.296875 C 91.683594 173.617188 91.839844 172.90625 91.953125 172.242188 C 92.074219 171.566406 92.683594 170.984375 92.859375 170.332031 C 93.035156 169.671875 93.171875 168.996094 93.402344 168.363281 C 93.636719 167.722656 93.550781 166.921875 93.835938 166.308594 C 94.125 165.691406 94.886719 165.300781 95.226562 164.714844 C 95.566406 164.125 95.660156 163.363281 96.050781 162.808594 C 96.441406 162.25 96.96875 161.773438 97.40625 161.253906 C 97.839844 160.730469 97.949219 159.855469 98.429688 159.375 C 98.910156 158.898438 99.886719 158.910156 100.40625 158.472656 C 100.925781 158.035156 101.347656 157.445312 101.902344 157.054688 C 102.457031 156.667969 103.0625 156.3125 103.652344 155.972656 C 104.238281 155.632812 105.1875 156.019531 105.804688 155.730469 C 106.417969 155.445312 106.878906 154.875 107.519531 154.644531 C 108.15625 154.410156 108.710938 153.925781 109.367188 153.75 C 110.019531 153.578125 110.613281 152.988281 111.285156 152.867188 C 111.949219 152.753906 112.6875 152.859375 113.371094 152.800781 C 114.042969 152.746094 114.75 153.015625 115.433594 153.015625 C 116.464844 153.015625 116.464844 152.621094 117.492188 152.621094 C 118.519531 152.621094 118.519531 153.503906 119.546875 153.503906 C 120.570312 153.503906 120.570312 152.726562 121.597656 152.726562 C 122.625 152.726562 122.625 152.605469 123.652344 152.605469 C 124.679688 152.605469 124.675781 153.546875 125.703125 153.546875 C 126.722656 153.546875 126.722656 153.363281 127.742188 153.363281 C 128.761719 153.363281 128.761719 152.570312 129.78125 152.570312 C 130.804688 152.570312 130.804688 153.199219 131.824219 153.199219 C 132.847656 153.199219 132.847656 153.394531 133.871094 153.394531 C 134.894531 153.394531 134.894531 152.359375 135.917969 152.359375 C 136.941406 152.359375 136.941406 152.804688 137.96875 152.804688 C 138.992188 152.804688 138.992188 153.589844 140.019531 153.589844 C 141.050781 153.589844 141.050781 153.703125 142.078125 153.703125 C 143.105469 153.703125 143.105469 152.625 144.132812 152.625 C 145.160156 152.625 145.160156 152.894531 146.1875 152.894531 C 147.214844 152.894531 147.214844 153.074219 148.238281 153.074219 C 149.265625 153.074219 149.265625 152.597656 150.289062 152.597656 C 151.3125 152.597656 151.3125 152.925781 152.335938 152.925781 C 153.359375 152.925781 153.359375 152.523438 154.382812 152.523438 C 155.40625 152.523438 155.40625 153.410156 156.429688 153.410156 C 157.449219 153.410156 157.449219 152.929688 158.472656 152.929688 C 159.496094 152.929688 159.496094 152.769531 160.519531 152.769531 C 161.539062 152.769531 161.539062 153.257812 162.5625 153.257812 C 163.585938 153.257812 163.585938 153.304688 164.609375 153.304688 C 165.632812 153.304688 165.632812 153.261719 166.65625 153.261719 C 167.679688 153.261719 167.679688 153.460938 168.703125 153.460938 C 169.730469 153.460938 169.730469 153.128906 170.753906 153.128906 C 171.78125 153.128906 171.78125 152.542969 172.808594 152.542969 C 173.835938 152.542969 173.835938 152.421875 174.863281 152.421875 C 175.894531 152.421875 175.894531 152.828125 176.921875 152.828125 C 177.953125 152.828125 177.953125 153.183594 178.984375 153.183594 C 180.011719 153.183594 180.011719 153.527344 181.039062 153.527344 C 182.066406 153.527344 182.066406 153.527344 183.09375 153.527344 C 184.121094 153.527344 184.121094 152.359375 185.148438 152.359375 C 186.175781 152.359375 186.175781 152.96875 187.199219 152.96875 C 188.226562 152.96875 188.226562 153.191406 189.253906 153.191406 C 190.28125 153.191406 190.28125 152.710938 191.304688 152.710938 C 192.332031 152.710938 192.332031 153.714844 193.359375 153.714844 C 194.390625 153.714844 194.390625 152.589844 195.417969 152.589844 C 196.445312 152.589844 196.445312 152.832031 197.476562 152.832031 C 198.507812 152.832031 198.507812 152.417969 199.539062 152.417969 C 200.570312 152.417969 200.570312 153.363281 201.601562 153.363281 C 202.628906 153.363281 202.628906 152.460938 203.660156 152.460938 C 204.6875 152.460938 204.6875 153.269531 205.714844 153.269531 C 206.746094 153.269531 206.746094 153.304688 207.773438 153.304688 C 208.800781 153.304688 208.800781 153.429688 209.832031 153.429688 C 210.863281 153.429688 210.863281 152.792969 211.894531 152.792969 C 212.925781 152.792969 212.925781 152.90625 213.957031 152.90625 C 214.988281 152.90625 214.988281 153.242188 216.019531 153.242188 C 217.046875 153.242188 217.046875 153.59375 218.078125 153.59375 C 219.109375 153.59375 219.109375 152.503906 220.140625 152.503906 C 221.164062 152.503906 221.164062 153.035156 222.183594 153.035156 C 223.210938 153.035156 223.210938 152.824219 224.234375 152.824219 C 225.257812 152.824219 225.257812 153.425781 226.285156 153.425781 C 227.316406 153.425781 227.316406 152.34375 228.347656 152.34375 C 229.382812 152.34375 229.382812 152.488281 230.414062 152.488281 C 231.445312 152.488281 231.445312 153.378906 232.476562 153.378906 C 233.503906 153.378906 233.503906 152.679688 234.535156 152.679688 C 235.5625 152.679688 235.5625 153.460938 236.59375 153.460938 C 237.628906 153.460938 237.628906 152.972656 238.664062 152.972656 C 239.699219 152.972656 239.699219 152.523438 240.730469 152.523438 C 241.765625 152.523438 241.765625 153.472656 242.796875 153.472656 C 243.835938 153.472656 243.835938 153.359375 244.871094 153.359375 C 245.90625 153.359375 245.90625 152.984375 246.941406 152.984375 C 247.972656 152.984375 247.972656 153.035156 249.007812 153.035156 C 250.039062 153.035156 250.039062 153.199219 251.074219 153.199219 C 252.109375 153.199219 252.109375 153.1875 253.148438 153.1875 C 254.1875 153.1875 254.1875 152.964844 255.226562 152.964844 C 256.269531 152.964844 256.269531 153.253906 257.3125 153.253906 C 258.351562 153.253906 258.351562 153.433594 259.394531 153.433594 C 260.082031 153.433594 260.789062 152.765625 261.457031 152.824219 C 262.140625 152.882812 262.867188 152.816406 263.53125 152.933594 C 264.207031 153.050781 264.753906 153.78125 265.40625 153.957031 C 266.066406 154.132812 266.964844 153.621094 267.597656 153.855469 C 268.238281 154.085938 268.773438 154.679688 269.386719 154.964844 C 270.003906 155.253906 270.667969 155.511719 271.253906 155.851562 C 271.84375 156.191406 272.285156 156.800781 272.839844 157.1875 C 273.398438 157.578125 273.652344 158.347656 274.171875 158.78125 C 274.691406 159.21875 275.890625 158.933594 276.371094 159.414062 C 276.851562 159.894531 276.949219 160.773438 277.386719 161.292969 C 277.824219 161.8125 278.542969 162.152344 278.933594 162.707031 C 279.324219 163.261719 278.695312 164.460938 279.035156 165.046875 C 279.375 165.632812 280.5625 165.761719 280.851562 166.378906 C 281.136719 166.992188 280.972656 167.804688 281.207031 168.445312 C 281.4375 169.082031 281.660156 169.710938 281.835938 170.371094 C 282.007812 171.023438 281.574219 171.777344 281.691406 172.449219 C 281.808594 173.113281 282.703125 173.65625 282.761719 174.335938 C 282.816406 175.007812 282.964844 175.695312 282.964844 176.382812 C 282.964844 177.40625 283.410156 177.40625 283.410156 178.433594 C 283.410156 179.457031 282.027344 179.457031 282.027344 180.480469 C 282.027344 181.503906 282.984375 181.503906 282.984375 182.527344 C 282.984375 183.550781 283.011719 183.550781 283.011719 184.574219 C 283.011719 185.597656 282.433594 185.597656 282.433594 186.621094 C 282.433594 187.644531 282.320312 187.644531 282.320312 188.667969 C 282.320312 189.691406 282.097656 189.691406 282.097656 190.714844 C 282.097656 191.738281 282.5 191.738281 282.5 192.765625 C 282.5 193.789062 282.714844 193.789062 282.714844 194.816406 C 282.714844 195.839844 282.257812 195.839844 282.257812 196.867188 C 282.257812 197.894531 282.296875 197.894531 282.296875 198.921875 C 282.296875 199.949219 283.324219 199.949219 283.324219 200.980469 C 283.324219 202.011719 282.96875 202.011719 282.96875 203.042969 C 282.96875 204.070312 283.113281 204.074219 283.113281 205.101562 C 283.113281 206.132812 282.746094 206.132812 282.746094 207.164062 C 282.746094 208.191406 282.175781 208.191406 282.175781 209.21875 C 282.175781 210.246094 282.964844 210.246094 282.964844 211.273438 C 282.964844 212.300781 282.128906 212.300781 282.128906 213.328125 C 282.128906 214.355469 283.289062 214.355469 283.289062 215.382812 C 283.289062 216.410156 282.929688 216.410156 282.929688 217.4375 C 282.929688 218.464844 282.632812 218.464844 282.632812 219.496094 C 282.632812 220.523438 282.28125 220.523438 282.28125 221.554688 C 282.28125 222.582031 283.441406 222.582031 283.441406 223.613281 C 283.441406 224.648438 282.609375 224.648438 282.609375 225.679688 C 282.609375 226.710938 283.296875 226.710938 283.296875 227.742188 C 283.296875 228.773438 283.421875 228.773438 283.421875 229.800781 C 283.421875 230.832031 282.628906 230.832031 282.628906 231.859375 C 282.628906 232.890625 282.132812 232.890625 282.132812 233.921875 C 282.132812 234.949219 283.070312 234.949219 283.070312 235.980469 C 283.070312 237.011719 282.085938 237.011719 282.085938 238.042969 C 282.085938 239.078125 282.617188 239.078125 282.617188 240.109375 C 282.617188 241.140625 282.804688 241.140625 282.804688 242.171875 C 282.804688 243.203125 283.339844 243.203125 283.339844 244.234375 C 283.339844 245.265625 282.613281 245.265625 282.613281 246.296875 C 282.613281 247.320312 282.394531 247.320312 282.394531 248.347656 C 282.394531 249.371094 282.824219 249.371094 282.824219 250.394531 C 282.824219 251.421875 282.792969 251.421875 282.792969 252.449219 C 282.792969 253.480469 282.960938 253.480469 282.960938 254.511719 C 282.960938 255.546875 282.117188 255.546875 282.117188 256.582031 C 282.117188 257.613281 283.042969 257.613281 283.042969 258.644531 C 283.042969 259.675781 282.945312 259.675781 282.945312 260.707031 C 282.945312 261.738281 283.222656 261.738281 283.222656 262.769531 C 283.222656 263.804688 282.046875 263.804688 282.046875 264.839844 C 282.046875 265.875 282.214844 265.875 282.214844 266.910156 C 282.214844 267.941406 283.078125 267.941406 283.078125 268.976562 C 283.078125 270.015625 283.183594 270.015625 283.183594 271.050781 C 283.183594 272.089844 283.191406 272.089844 283.191406 273.125 C 283.191406 274.160156 282.257812 274.160156 282.257812 275.195312 C 282.257812 276.226562 282.863281 276.226562 282.863281 277.261719 C 282.863281 278.300781 282.765625 278.300781 282.765625 279.335938 C 282.765625 280.378906 282.679688 280.378906 282.679688 281.417969 C 282.679688 282.460938 282.398438 282.460938 282.398438 283.503906 C 282.398438 284.546875 283.371094 284.546875 283.371094 285.589844 C 283.371094 286.277344 282.917969 286.972656 282.859375 287.644531 C 282.800781 288.328125 283.109375 289.089844 282.992188 289.753906 C 282.875 290.425781 282.097656 290.976562 281.921875 291.628906 C 281.746094 292.285156 282.207031 293.175781 281.976562 293.808594 C 281.746094 294.449219 280.71875 294.789062 280.433594 295.402344 C 280.144531 296.015625 279.492188 296.410156 279.152344 296.996094 C 278.8125 297.585938 279.140625 298.589844 278.75 299.144531 C 278.359375 299.699219 278.121094 300.417969 277.683594 300.9375 C 277.246094 301.457031 276.53125 301.769531 276.050781 302.246094 C 275.574219 302.726562 274.886719 302.996094 274.367188 303.433594 C 273.847656 303.867188 272.949219 303.765625 272.394531 304.15625 C 271.839844 304.542969 271.636719 305.429688 271.046875 305.769531 C 270.460938 306.109375 269.726562 306.128906 269.109375 306.417969 C 268.496094 306.703125 268.042969 307.351562 267.402344 307.585938 C 266.769531 307.816406 266.085938 307.910156 265.425781 308.085938 C 264.773438 308.261719 264.09375 308.285156 263.421875 308.402344 C 262.757812 308.519531 262.152344 309.214844 261.46875 309.273438 C 260.796875 309.332031 260.082031 309.082031 259.394531 309.082031 Z M 259.394531 309.082031"/></g><path fill="#EDBCCC" d="M 208.375 215.523438 C 208.375 214.851562 208.402344 214.121094 208.339844 213.464844 C 208.273438 212.796875 207.160156 212.269531 207.03125 211.621094 C 206.902344 210.964844 206.957031 210.285156 206.765625 209.652344 C 206.574219 209.011719 206.574219 208.304688 206.320312 207.691406 C 206.066406 207.074219 205.761719 206.46875 205.449219 205.882812 C 205.132812 205.292969 204.546875 204.875 204.175781 204.324219 C 203.804688 203.769531 203.78125 202.953125 203.359375 202.4375 C 202.9375 201.921875 202.261719 201.621094 201.789062 201.148438 C 201.320312 200.679688 200.503906 200.625 199.988281 200.203125 C 199.476562 199.78125 199.488281 198.652344 198.9375 198.28125 C 198.382812 197.914062 197.492188 198.089844 196.902344 197.773438 C 196.320312 197.460938 195.761719 197.125 195.144531 196.867188 C 194.53125 196.613281 194.089844 195.832031 193.449219 195.636719 C 192.816406 195.445312 192.109375 195.371094 191.453125 195.242188 C 190.804688 195.113281 190.082031 195.335938 189.410156 195.269531 C 188.753906 195.207031 188.089844 195.582031 187.414062 195.582031 C 186.742188 195.582031 186.109375 195.539062 185.453125 195.605469 C 184.78125 195.667969 184.007812 195.015625 183.359375 195.144531 C 182.703125 195.273438 182.058594 195.597656 181.425781 195.792969 C 180.785156 195.984375 179.992188 195.886719 179.382812 196.140625 C 178.765625 196.394531 178.710938 197.839844 178.125 198.152344 C 177.539062 198.46875 176.335938 197.753906 175.78125 198.125 C 175.226562 198.496094 175.304688 199.726562 174.792969 200.148438 C 174.277344 200.574219 173.140625 200.316406 172.671875 200.785156 C 172.199219 201.257812 171.847656 201.890625 171.421875 202.40625 C 171 202.917969 170.640625 203.519531 170.269531 204.070312 C 169.898438 204.625 170.386719 205.667969 170.070312 206.257812 C 169.757812 206.839844 169.160156 207.242188 168.902344 207.859375 C 168.648438 208.46875 168.21875 209.003906 168.027344 209.644531 C 167.832031 210.277344 166.96875 210.773438 166.835938 211.429688 C 166.710938 212.078125 167.125 212.847656 167.058594 213.519531 C 166.996094 214.175781 167.097656 214.851562 167.097656 215.523438 C 167.097656 216.210938 166.503906 216.949219 166.570312 217.617188 C 166.640625 218.300781 167.265625 218.925781 167.398438 219.585938 C 167.53125 220.257812 168.25 220.753906 168.449219 221.398438 C 168.652344 222.046875 168.152344 222.941406 168.417969 223.5625 C 168.683594 224.191406 169.859375 224.351562 170.1875 224.941406 C 170.515625 225.539062 170.011719 226.621094 170.398438 227.179688 C 170.78125 227.738281 171.375 228.160156 171.816406 228.679688 C 172.253906 229.195312 173.265625 229.136719 173.753906 229.605469 C 174.242188 230.078125 174.164062 231.15625 174.695312 231.578125 C 175.226562 231.996094 175.691406 232.558594 176.265625 232.925781 C 176.832031 233.289062 178.097656 233.324219 178.707031 233.632812 C 178.742188 234.65625 177.277344 234.457031 177.011719 235.445312 C 176.75 236.425781 176.839844 236.453125 176.578125 237.433594 C 176.3125 238.414062 176.855469 238.558594 176.59375 239.542969 C 176.332031 240.523438 176.523438 240.574219 176.257812 241.558594 C 175.996094 242.542969 176.511719 242.679688 176.25 243.664062 C 175.984375 244.65625 175.675781 244.570312 175.414062 245.5625 C 175.148438 246.554688 174.589844 246.402344 174.324219 247.394531 C 174.058594 248.382812 174.734375 248.566406 174.46875 249.554688 C 174.203125 250.539062 173.144531 250.257812 172.878906 251.242188 C 172.617188 252.234375 172.867188 252.300781 172.605469 253.289062 C 172.335938 254.28125 173.035156 254.46875 172.769531 255.460938 C 172.503906 256.453125 172.746094 256.519531 172.480469 257.507812 C 172.214844 258.5 172.269531 258.515625 172.003906 259.507812 C 171.738281 260.5 171.738281 260.5 171.472656 261.496094 C 171.207031 262.488281 169.988281 262.160156 169.722656 263.15625 C 169.457031 264.148438 170.621094 264.460938 170.355469 265.449219 C 170.089844 266.441406 169.898438 266.390625 169.632812 267.378906 C 169.367188 268.375 169.09375 268.304688 168.828125 269.296875 C 168.558594 270.296875 168.433594 270.261719 168.167969 271.257812 C 167.898438 272.257812 168.070312 272.304688 167.804688 273.304688 C 167.535156 274.304688 166.992188 274.015625 167.613281 274.84375 C 168.21875 275.65625 168.082031 275.847656 169.097656 275.847656 C 170.105469 275.847656 170.105469 275.929688 171.113281 275.929688 C 172.121094 275.929688 172.121094 274.738281 173.128906 274.738281 C 174.140625 274.738281 174.140625 275.535156 175.152344 275.535156 C 176.167969 275.535156 176.167969 274.785156 177.183594 274.785156 C 178.199219 274.785156 178.199219 275.371094 179.21875 275.371094 C 180.234375 275.371094 180.234375 275.933594 181.246094 275.933594 C 182.261719 275.933594 182.261719 275.339844 183.273438 275.339844 C 184.289062 275.339844 184.289062 275.359375 185.304688 275.359375 C 186.324219 275.359375 186.324219 274.695312 187.34375 274.695312 C 188.363281 274.695312 188.363281 275.304688 189.378906 275.304688 C 190.398438 275.304688 190.398438 274.878906 191.414062 274.878906 C 192.433594 274.878906 192.433594 275.292969 193.457031 275.292969 C 194.476562 275.292969 194.476562 275.398438 195.496094 275.398438 C 196.511719 275.398438 196.511719 275.089844 197.53125 275.089844 C 198.546875 275.089844 198.546875 274.550781 199.566406 274.550781 C 200.585938 274.550781 200.585938 275.945312 201.609375 275.945312 C 202.632812 275.945312 202.632812 275.421875 203.65625 275.421875 C 204.683594 275.421875 204.683594 275.3125 205.710938 275.3125 C 206.734375 275.3125 207.144531 276.070312 207.769531 275.257812 C 208.394531 274.449219 207.835938 274.171875 207.570312 273.183594 C 207.308594 272.203125 207.472656 272.160156 207.210938 271.175781 C 206.949219 270.195312 206.554688 270.300781 206.289062 269.320312 C 206.027344 268.335938 205.660156 268.4375 205.398438 267.453125 C 205.136719 266.46875 204.929688 266.523438 204.667969 265.539062 C 204.402344 264.550781 205.054688 264.375 204.789062 263.386719 C 204.523438 262.394531 204.8125 262.316406 204.542969 261.324219 C 204.28125 260.335938 203.878906 260.445312 203.613281 259.457031 C 203.351562 258.46875 203.269531 258.488281 203.007812 257.503906 C 202.742188 256.515625 203.253906 256.378906 202.988281 255.386719 C 202.722656 254.394531 202.578125 254.433594 202.3125 253.441406 C 202.046875 252.449219 201.167969 252.683594 200.902344 251.691406 C 200.636719 250.703125 201.316406 250.519531 201.050781 249.527344 C 200.785156 248.535156 200.140625 248.707031 199.875 247.710938 C 199.609375 246.71875 200.257812 246.546875 199.992188 245.550781 C 199.726562 244.5625 199.648438 244.582031 199.378906 243.589844 C 199.117188 242.601562 198.738281 242.699219 198.472656 241.710938 C 198.207031 240.714844 198.53125 240.628906 198.265625 239.632812 C 198 238.636719 198.496094 238.5 198.230469 237.503906 C 197.960938 236.503906 197.101562 236.734375 196.832031 235.734375 C 196.566406 234.734375 196.933594 234.695312 196.964844 233.660156 C 197.453125 233.335938 197.917969 232.984375 198.363281 232.605469 C 198.933594 232.238281 199.507812 231.871094 200.039062 231.453125 C 200.570312 231.03125 200.609375 230.097656 201.097656 229.625 C 201.585938 229.152344 202.816406 229.394531 203.253906 228.875 C 203.691406 228.359375 204.179688 227.824219 204.566406 227.265625 C 204.949219 226.707031 204.351562 225.554688 204.679688 224.960938 C 205.007812 224.367188 205.984375 224.121094 206.253906 223.492188 C 206.515625 222.871094 206.035156 222 206.238281 221.347656 C 206.433594 220.722656 206.597656 220.085938 206.730469 219.445312 C 206.863281 218.785156 207.40625 218.21875 207.476562 217.539062 C 207.542969 216.871094 208.375 216.210938 208.375 215.523438 Z M 208.375 215.523438"/></svg>