<svg height="100%" xmlns="http://www.w3.org/2000/svg" xml:space="preserve" width="100%" xmlns:vectornator="http://vectornator.io" version="1.1" viewBox="0 0 198.45 113.4" fill-rule="evenodd" clip-rule="evenodd" stroke-linecap="round" stroke-linejoin="round"><g id="layer1 copy" vectornator:layerName="layer1 copy"><text x="0" font-family="sans-serif" y="0" text-anchor="middle" vectornator:text="new commit point" fill="#d14671" font-size="5" vectornator:width="49.934" opacity="1" transform="translate(132.135 70.624)"><tspan x="24.967" y="5" textLength="38.904">new commit point</tspan></text><path d="M56.509 22.177h20.183c.274 0 .496.39.496.87v73.899c0 .481-.222.871-.496.871H56.51c-.274 0-.496-.39-.496-.871V23.048c0-.481.222-.871.496-.871z" opacity="1" fill="#464353"/><path d="M150.433 6.646h35.546V24.78h-35.546V6.646z" opacity="1" fill="#d14671"/><text x="0" font-family="sans-serif" y="0" text-anchor="middle" vectornator:text="column files" fill="#fff" font-size="5" vectornator:width="51.134" opacity="1" transform="translate(66.826 101.181)"><tspan x="25.567" y="5" textLength="26.399">column files</tspan></text><text x="0" font-family="sans-serif" y="0" text-anchor="middle" vectornator:text="row 1" fill="#fff" font-size="5" vectornator:width="47.168" opacity="1" transform="translate(5.128 43.496)"><tspan x="23.584" y="5" textLength="12.227">row 1</tspan></text><path d="M81.985 22.177h20.183c.274 0 .496.39.496.87v73.899c0 .481-.222.871-.496.871H81.985c-.274 0-.496-.39-.496-.871V23.048c0-.481.222-.871.496-.871zm26.108 0h20.183c.274 0 .496.39.496.87v73.899c0 .481-.222.871-.496.871h-20.183c-.274 0-.496-.39-.496-.871V23.048c0-.481.222-.871.496-.871z" opacity="1" fill="#464353"/><path d="M130.594 46.843l-.489.14-3.948 1.126-.349.098a.32.32 0 01-.154.003.187.187 0 01-.111-.064.08.08 0 01-.015-.043l-.01-.67c-.001-.063-.088-.115-.196-.116l-9.679-.018c-.107 0-.195-.051-.197-.115l-.014-.945c-.001-.064.085-.116.193-.116l9.68.018c.106 0 .192-.051.192-.115l-.011-.684c0-.015.005-.03.014-.043a.177.177 0 01.109-.064.324.324 0 01.155.004l.351.102 3.983 1.152.494.143c.066.02.109.06.109.104.001.044-.041.084-.107.103z" opacity="1" fill="#fff"/><path d="M116.432 47.32l-74.59-.018c-.829 0-1.507-.052-1.52-.115l-.111-.946c-.008-.064.66-.115 1.493-.115l74.59.018.138 1.176zm14.162 15.282l-.489.139-3.948 1.126-.349.099a.32.32 0 01-.154.003.187.187 0 01-.111-.065.08.08 0 01-.015-.043l-.01-.67c-.001-.063-.088-.115-.196-.115l-9.679-.018c-.107 0-.195-.052-.197-.116l-.014-.945c-.001-.064.085-.116.193-.116l9.68.018c.106 0 .192-.051.192-.114l-.011-.685c0-.014.005-.03.014-.043a.177.177 0 01.109-.064.321.321 0 01.155.004l.351.102 3.983 1.153.494.142c.066.02.109.06.109.104.001.044-.041.084-.107.104z" opacity="1" fill="#fff"/><path d="M116.432 63.078l-74.59-.018c-.829 0-1.507-.051-1.52-.115L40.21 62c-.008-.064.66-.116 1.493-.116l74.59.018.138 1.176z" opacity="1" fill="#fff"/><path d="M131.126 32.534l.3-.087 2.419-.703.214-.062a.189.189 0 01.094-.002.113.113 0 01.068.04.046.046 0 01.009.027l.006.418c.001.04.055.072.12.073l5.931.011c.066 0 .12.032.121.072l.009.59c0 .04-.053.073-.119.072l-5.931-.01c-.065 0-.118.031-.118.07l.007.428c0 .01-.003.018-.008.027a.113.113 0 01-.068.04.19.19 0 01-.094-.003l-.215-.063-2.441-.72-.302-.089c-.041-.012-.067-.037-.068-.065 0-.027.026-.052.066-.064zm-75.113-.404l71.203.015c.79 0 1.438.041 1.451.092l.105.758c.007.051-.631.093-1.425.093l-71.203-.015-.13-.943z" opacity="1" fill="#61cfee"/><text x="0" font-family="sans-serif" y="0" text-anchor="middle" vectornator:text="row 2" fill="#fff" font-size="5" vectornator:width="47.168" opacity="1" transform="translate(5.128 60.334)"><tspan x="23.584" y="5" textLength="12.227">row 2</tspan></text><text x="0" font-family="sans-serif" y="0" text-anchor="middle" vectornator:text="1" fill="#fff" font-size="5" vectornator:width="20.772" opacity="1" transform="translate(56.215 39.347)"><tspan x="10.386" y="5" textLength="2.781">1</tspan></text><text x="0" font-family="sans-serif" y="0" text-anchor="middle" vectornator:text="2" fill="#fff" font-size="5" vectornator:width="20.772" opacity="1" transform="translate(81.69 39.347)"><tspan x="10.386" y="5" textLength="2.781">2</tspan></text><text x="0" font-family="sans-serif" y="0" text-anchor="middle" vectornator:text="3" fill="#fff" font-size="5" vectornator:width="20.772" opacity="1" transform="translate(107.574 39.347)"><tspan x="10.386" y="5" textLength="2.781">3</tspan></text><text x="0" font-family="sans-serif" y="0" text-anchor="middle" vectornator:text="4" fill="#fff" font-size="5" vectornator:width="20.772" opacity="1" transform="translate(56.01 54.779)"><tspan x="10.386" y="5" textLength="2.781">4</tspan></text><text x="0" font-family="sans-serif" y="0" text-anchor="middle" vectornator:text="5" fill="#fff" font-size="5" vectornator:width="20.772" opacity="1" transform="translate(82.007 54.779)"><tspan x="10.386" y="5" textLength="2.781">5</tspan></text><text x="0" font-family="sans-serif" y="0" text-anchor="middle" vectornator:text="6" fill="#fff" font-size="5" vectornator:width="20.772" opacity="1" transform="translate(107.799 54.779)"><tspan x="10.386" y="5" textLength="2.781">6</tspan></text><path d="M139.84 32.609c.031-.003-.001-.14-.001-.36l-.027-19.974c0-.222.025-.404.056-.409l.464-.042c.032-.003.057.175.058.398l.027 19.973c0 .22-.102.401-.071.4l-.506.014z" opacity="1" fill="#61cfee"/><path d="M139.812 11.852c.002.03.082 0 .211-.001l11.689-.027c.13 0 .237.024.239.056l.025.464c.002.031-.103.057-.233.057l-11.689.027c-.129.001-.234-.102-.234-.07l-.008-.506z" opacity="1" fill="#61cfee"/><text x="0" font-family="sans-serif" y="0" text-anchor="middle" vectornator:text="tx file" fill="#fff" font-size="5" vectornator:width="47.168" opacity="1" transform="translate(144.622 13.432)"><tspan x="23.584" y="5" textLength="11.67">tx file</tspan></text><text x="0" font-family="sans-serif" y="0" text-anchor="middle" vectornator:text="prev commit point" fill="#61cfee" font-size="5" vectornator:width="47.006" opacity="1" transform="translate(94.457 11.129)"><tspan x="23.503" y="5" textLength="39.458">prev commit point</tspan></text><path d="M181.283 78.02c.089-.007-.002-.358-.002-.93l-.078-51.485c-.001-.571.071-1.042.16-1.053l1.329-.11c.09-.007.163.453.164 1.027l.078 51.485c.002.568-.292 1.033-.203 1.03l-1.448.036zm-50.762-.489l.3-.162 2.419-1.31.214-.116a.106.106 0 01.094-.003c.031.013.056.04.068.075a.141.141 0 01.009.05l.007.779c0 .074.054.135.12.135l5.93.021c.066 0 .12.06.121.135l.009 1.1c.001.075-.052.135-.119.135l-5.931-.021c-.065 0-.117.06-.117.133l.006.797a.166.166 0 01-.008.05.127.127 0 01-.067.074.108.108 0 01-.095-.004l-.215-.118-2.441-1.342-.302-.166a.139.139 0 01-.067-.121.135.135 0 01.065-.12z" opacity="1" fill="#d14671"/><path d="M137.313 77.069c.006.069.305-.001.792-.002l43.839-.06c.487 0 .887.055.897.123l.093 1.019c.006.069-.385.125-.874.126l-43.839.06c-.484.001-.88-.224-.877-.156l-.031-1.11zm-81.3.755l71.203.014c.79 0 1.438.042 1.451.093l.105.757c.007.052-.631.093-1.425.093l-71.203-.014-.13-.943z" opacity="1" fill="#d14671"/><text x="0" font-family="sans-serif" y="0" text-anchor="middle" vectornator:text="insert 2 rows" fill="#fff" font-size="5" vectornator:width="47.168" opacity="1" transform="translate(5.128 27.803)"><tspan x="23.584" y="5" textLength="28.342">insert 2 rows</tspan></text><path d="M168.201 22.324l.139.488 1.126 3.949.099.348a.334.334 0 01.003.154.19.19 0 01-.064.112.079.079 0 01-.043.014l-.67.01c-.064.001-.116.089-.116.196l-.018 9.68c0 .107-.052.195-.116.197l-.945.014c-.064 0-.116-.086-.115-.194l.017-9.679c0-.107-.051-.192-.114-.192l-.685.01a.078.078 0 01-.043-.013.179.179 0 01-.063-.11.31.31 0 01.004-.154l.101-.351 1.153-3.983.142-.494c.02-.067.06-.11.104-.11s.085.041.104.108zm.477 15.149l-.018 24.473c-.001.272-.052.495-.116.499l-.945.036c-.064.003-.116-.217-.116-.49l.018-24.473 1.177-.045z" opacity="1" fill="#fff"/><path d="M168.623 63.078l-12.665-.018c-.141 0-.256-.051-.258-.115l-.019-.945c-.001-.064.112-.116.253-.116l12.666.018.023 1.176z" opacity="1" fill="#fff"/><text x="0" font-family="sans-serif" y="0" text-anchor="middle" vectornator:text="commit" fill="#fff" font-size="5" vectornator:width="47.006" opacity="1" transform="translate(119.477 58.997)"><tspan x="23.503" y="5" textLength="16.111">commit</tspan></text></g></svg>