<svg height="100%" xmlns="http://www.w3.org/2000/svg" xml:space="preserve" width="100%" xmlns:vectornator="http://vectornator.io" version="1.1" viewBox="0 0 170.1 141.75" fill-rule="evenodd" clip-rule="evenodd" stroke-linecap="round" stroke-linejoin="round"><defs><linearGradient y1="93.625" id="LinearGradient" x1="29.53" y2="73.947" x2="29.53" gradientUnits="userSpaceOnUse" gradientTransform="translate(13.734 -10.067)"><stop stop-color="#d14671" offset="0"/><stop stop-color="#fff" offset="1"/></linearGradient></defs><g id="layer1 copy" vectornator:layerName="layer1 copy"><path d="M51.505 15.84h80.27c1.089 0 1.972.45 1.972 1.003v85.065c0 .554-.883 1.003-1.972 1.003h-80.27c-1.09 0-1.973-.449-1.973-1.003V16.843c0-.553.883-1.002 1.973-1.002z" fill-rule="evenodd" fill="#464353" opacity="1"/><text x="0" font-family="sans-serif" y="0" text-anchor="middle" vectornator:text="Table" fill="#fff" font-size="5" vectornator:width="14.953" opacity="1" transform="translate(84.163 20.331)"><tspan x="7.477" y="5" textLength="11.953">Table</tspan></text><path d="M44.703 101.564l.297-.319 2.401-2.574.21-.227c.03-.031.032-.068.007-.1a.23.23 0 00-.137-.073.45.45 0 00-.092-.01l-1.428-.006c-.135 0-.246-.058-.247-.128l-.039-6.31c0-.07-.11-.127-.246-.128l-2.016-.01c-.136 0-.247.056-.246.127l.038 6.31c0 .07-.11.125-.244.125l-1.46-.007a.448.448 0 00-.091.009c-.063.013-.112.039-.136.072-.025.032-.022.069.008.1l.216.229 2.458 2.596.304.322c.042.044.128.072.222.072s.18-.027.22-.07z" fill-rule="evenodd" fill="#d14671" opacity="1"/><path d="M96.045 55.807h31.872c.432 0 .783.218.783.488v41.41c0 .27-.351.488-.783.488H96.045c-.432 0-.783-.219-.783-.488v-41.41c0-.27.35-.488.783-.488z" fill-rule="evenodd" fill="#5f5e67" opacity="1"/><path d="M43.264 90.831V56.308c0-.469.012-.849.027-.849h2.31c.015 0 .027.38.027.849V90.83c0 .469-.012.849-.027.849h-2.31c-.015 0-.027-.38-.027-.849z" fill-rule="evenodd" fill="url(#LinearGradient)" opacity="1"/><path stroke="#61cfee" fill-rule="evenodd" stroke-width=".5" d="M55.535 55.807h31.872c.432 0 .783.218.783.488v41.41c0 .27-.35.488-.783.488H55.535c-.432 0-.783-.219-.783-.488v-41.41c0-.27.35-.488.783-.488z" fill="#5f5e67" stroke-linecap="round" opacity="1" stroke-linejoin="round"/><path d="M58.687 60.019h25.568c.347 0 .628.026.628.059v5.02c0 .032-.281.058-.628.058H58.687c-.347 0-.628-.026-.628-.059v-5.02c0-.032.281-.058.628-.058z" fill-rule="evenodd" fill-opacity=".204" fill="#d14671" opacity="1"/><path d="M58.687 66.306h25.568c.347 0 .628.027.628.06v5.019c0 .033-.281.06-.628.06H58.687c-.347 0-.628-.027-.628-.06v-5.02c0-.032.281-.059.628-.059z" fill-rule="evenodd" fill-opacity=".404" fill="#d14671" opacity="1"/><path d="M58.687 72.409h25.568c.347 0 .628.026.628.06v5.019c0 .032-.281.059-.628.059H58.687c-.347 0-.628-.027-.628-.06v-5.019c0-.033.281-.06.628-.06z" fill-rule="evenodd" fill-opacity=".577" fill="#d14671" opacity="1"/><path d="M58.687 78.697h25.568c.347 0 .628.026.628.059v5.02c0 .032-.281.058-.628.058H58.687c-.347 0-.628-.026-.628-.059v-5.02c0-.032.281-.058.628-.058z" fill-rule="evenodd" fill-opacity=".691" fill="#d14671" opacity="1"/><path d="M58.745 84.834h25.567c.347 0 .628.027.628.06v5.019c0 .033-.28.06-.628.06H58.745c-.347 0-.629-.027-.629-.06v-5.02c0-.032.282-.059.629-.059z" fill-rule="evenodd" fill-opacity=".842" fill="#d14671" opacity="1"/><path d="M58.745 91.122h25.567c.347 0 .628.027.628.06V96.2c0 .032-.28.059-.628.059H58.745c-.347 0-.629-.027-.629-.06V91.18c0-.032.282-.059.629-.059z" fill-rule="evenodd" fill="#d14671" opacity="1"/><text x="0" font-family="sans-serif" y="0" text-anchor="middle" vectornator:text="designated timestamp column" fill="#fff" font-size="5" vectornator:width="27.465" opacity="1" transform="translate(57.738 36.618)"><tspan x="13.733" y="5" textLength="24.465">designated </tspan> <tspan x="13.733" y="11" textLength="23.061"> timestamp </tspan> <tspan x="13.733" y="17" textLength="16.118"> column</tspan></text><text x="0" font-family="sans-serif" y="0" text-anchor="middle" vectornator:text="timestamp colum" fill="#fff" font-size="5" vectornator:width="26.061" opacity="1" transform="translate(98.921 36.618)"><tspan x="13.031" y="11" textLength="23.061">timestamp </tspan> <tspan x="13.031" y="17" textLength="13.337"> colum</tspan></text><path d="M99.169 59.426h25.567c.347 0 .628.027.628.06v5.019c0 .032-.281.059-.628.059H99.169c-.347 0-.629-.027-.629-.06v-5.019c0-.032.282-.059.629-.059z" fill-rule="evenodd" fill-opacity=".204" fill="#d14671" opacity="1"/><path d="M99.226 78.69h25.568c.347 0 .628.027.628.06v5.019c0 .033-.281.059-.628.059H99.226c-.347 0-.628-.026-.628-.06V78.75c0-.032.281-.059.628-.059z" fill-rule="evenodd" fill-opacity=".404" fill="#d14671" opacity="1"/><path d="M99.169 71.816h25.567c.347 0 .628.027.628.06v5.019c0 .032-.281.059-.628.059H99.169c-.347 0-.629-.026-.629-.06v-5.019c0-.032.282-.059.629-.059z" fill-rule="evenodd" fill-opacity=".577" fill="#d14671" opacity="1"/><path d="M99.169 91.122h25.567c.347 0 .628.027.628.06V96.2c0 .032-.281.059-.628.059H99.169c-.347 0-.629-.027-.629-.06V91.18c0-.032.282-.059.629-.059z" fill-rule="evenodd" fill-opacity=".691" fill="#d14671" opacity="1"/><path d="M99.226 84.834h25.568c.347 0 .628.027.628.06v5.019c0 .033-.281.06-.628.06H99.226c-.347 0-.628-.027-.628-.06v-5.02c0-.032.281-.059.628-.059z" fill-rule="evenodd" fill-opacity=".842" fill="#d14671" opacity="1"/><path d="M99.226 66.306h25.568c.347 0 .628.027.628.06v5.019c0 .033-.281.06-.628.06H99.226c-.347 0-.628-.027-.628-.06v-5.02c0-.032.281-.059.628-.059z" fill-rule="evenodd" fill="#d14671" opacity="1"/><path d="M50.438 105.424h36.846c.5 0 .906.114.906.253v21.433c0 .14-.406.253-.906.253H50.438c-.5 0-.906-.113-.906-.253v-21.433c0-.139.406-.253.906-.253zm45.726 0h36.682c.497 0 .901.114.901.253v21.433c0 .14-.404.253-.901.253H96.164c-.498 0-.902-.113-.902-.253v-21.433c0-.139.404-.253.902-.253z" fill-rule="evenodd" fill="#464353" opacity="1"/><text x="0" font-family="sans-serif" y="0" text-anchor="middle" vectornator:text="ordered timestamp values" fill="#fff" font-size="5" vectornator:width="29.693" opacity="1" transform="translate(54.47 108.721)"><tspan x="15.541" y="5" textLength="18.623">ordered </tspan> <tspan x="15.541" y="11" textLength="24.451"> timestamp </tspan> <tspan x="14.846" y="17" textLength="14.453"> values</tspan></text><text x="0" font-family="sans-serif" y="0" text-anchor="middle" vectornator:text="unordered timestamp values" fill="#fff" font-size="5" vectornator:width="30.886" opacity="1" transform="translate(100.114 108.721)"><tspan x="16.138" y="5" textLength="24.185">unordered </tspan> <tspan x="16.138" y="11" textLength="24.451"> timestamp </tspan> <tspan x="15.443" y="17" textLength="14.453"> values</tspan></text></g></svg>