<svg height="100%" xmlns="http://www.w3.org/2000/svg" xml:space="preserve" width="100%" xmlns:vectornator="http://vectornator.io" version="1.1" viewBox="0 0 283.5 141.75" fill-rule="evenodd" clip-rule="evenodd" stroke-linecap="round" stroke-linejoin="round"><g id="layer1 copy" vectornator:layerName="layer1 copy"><path d="M99.286 14.888H210.81c1.513 0 2.74.574 2.74 1.282v108.794c0 .708-1.227 1.282-2.74 1.282H99.286c-1.513 0-2.74-.574-2.74-1.282V16.17c0-.708 1.227-1.282 2.74-1.282z" opacity="1" fill="#464353"/><text x="0" font-family="sans-serif" y="0" text-anchor="middle" vectornator:text="table directory" fill="#fff" font-size="9" vectornator:width="92.478" opacity="1" transform="translate(109.469 19.164)"><tspan x="46.239" y="9" textLength="56.527">table directory</tspan></text><path d="M223.893 114.269l.072-70.57c.001-.784.207-1.426.462-1.439l3.782-.104c.256-.007.463.625.462 1.412l-.072 70.571-4.706.13z" opacity="1" fill="#fff"/><path d="M225.8 124.728l-.556-1.269-4.505-10.252-.394-.904a.547.547 0 01-.012-.4.494.494 0 01.257-.289.406.406 0 01.171-.038l2.678-.026c.255-.003.463-.23.465-.509l.072-25.13c.001-.28.207-.508.462-.512l3.782-.037c.256-.003.463.222.462.503l-.072 25.13c.001.277.205.5.459.499l2.737-.027a.41.41 0 01.172.035c.117.052.21.155.255.284.045.13.04.275-.015.401l-.406.911-4.611 10.341-.57 1.283a.47.47 0 01-.417.285.456.456 0 01-.414-.279z" opacity="1" fill="#fff"/><path d="M104.297 99.253h103.644c1.406 0 2.546.112 2.546.25v21.269c0 .139-1.14.251-2.546.251H104.297c-1.407 0-2.547-.112-2.547-.251V99.504c0-.139 1.14-.25 2.547-.25z" opacity="1" fill="#585567"/><path d="M106.207 101.253h25.744v17.575h-25.744v-17.575z" opacity="1" fill="#d14671"/><text x="0" font-family="sans-serif" y="0" text-anchor="middle" vectornator:text="column files" fill="#fff" font-size="6" vectornator:width="26.601" opacity="1" transform="translate(106.207 33.464)"><tspan x="14.134" y="6" textLength="21.009">column </tspan> <tspan x="13.3" y="13" textLength="10.67"> files</tspan></text><path d="M143.474 101.253h25.744v17.575h-25.744v-17.575zm37.512 0h25.744v17.575h-25.744v-17.575z" opacity="1" fill="#d14671"/><text x="0" font-family="sans-serif" y="0" text-anchor="middle" vectornator:text="Time" fill="#fff" font-size="6" vectornator:width="32.681" opacity="1" transform="translate(209.941 31.856)"><tspan x="16.341" y="6" textLength="13.113">Time</tspan></text><text x="0" font-family="sans-serif" y="0" text-anchor="middle" vectornator:text="column files" fill="#fff" font-size="6" vectornator:width="26.601" opacity="1" transform="translate(143.046 33.464)"><tspan x="14.134" y="6" textLength="21.009">column </tspan> <tspan x="13.3" y="13" textLength="10.67"> files</tspan></text><text x="0" font-family="sans-serif" y="0" text-anchor="middle" vectornator:text="column files" fill="#fff" font-size="6" vectornator:width="26.601" opacity="1" transform="translate(180.558 33.464)"><tspan x="14.134" y="6" textLength="21.009">column </tspan> <tspan x="13.3" y="13" textLength="10.67"> files</tspan></text><path d="M104.297 51.891h103.644c1.406 0 2.546.113 2.546.25v21.27c0 .138-1.14.25-2.546.25H104.297c-1.407 0-2.547-.112-2.547-.25V52.14c0-.137 1.14-.25 2.547-.25z" opacity="1" fill="#585567"/><path d="M12.018 126.828H24.89v8.788H12.018v-8.788z" opacity="1" fill="#d14671"/><text x="0" font-family="sans-serif" y="0" text-anchor="middle" vectornator:text="Data file" fill="#fff" font-size="6" vectornator:width="35.791" opacity="1" transform="translate(21.838 127.316)"><tspan x="17.895" y="6" textLength="22.011">Data file</tspan></text><path d="M104.524 75.328h103.644c1.407 0 2.547.112 2.547.251v21.268c0 .139-1.14.251-2.547.251H104.524c-1.406 0-2.546-.112-2.546-.25v-21.27c0-.138 1.14-.25 2.546-.25z" opacity="1" fill="#585567"/><path d="M106.207 54.17h25.744v17.575h-25.744V54.17zm37.267 0h25.744v17.575h-25.744V54.17zm37.512 0h25.744v17.575h-25.744V54.17zm-37.512 23.256h25.744V95h-25.744V77.426zm37.512 0h25.744V95h-25.744V77.426zm-74.779 0h25.744V95h-25.744V77.426z" opacity="1" fill="#d14671"/><path d="M102.338 63.12l-.635.186-5.125 1.511-.453.133a.404.404 0 01-.2.004.24.24 0 01-.144-.087.105.105 0 01-.02-.057l-.012-.899c-.001-.085-.115-.155-.254-.156l-12.566-.024c-.14 0-.253-.07-.256-.155l-.018-1.269c-.002-.085.111-.155.251-.154l12.565.024c.14 0 .25-.07.25-.154l-.013-.919c0-.02.005-.04.017-.057a.231.231 0 01.142-.086.403.403 0 01.2.005l.456.136 5.171 1.547.641.192c.086.026.142.08.142.14.001.058-.053.112-.139.138zm.089 23.92l-.635.188-5.126 1.51-.452.133a.402.402 0 01-.2.004.24.24 0 01-.144-.086.104.104 0 01-.02-.058l-.012-.898c-.002-.086-.115-.155-.255-.156l-12.565-.024c-.14 0-.254-.07-.256-.155l-.019-1.269c0-.086.112-.155.252-.155l12.565.024c.139 0 .25-.069.25-.154l-.014-.918c0-.02.006-.04.018-.058a.231.231 0 01.142-.086.403.403 0 01.2.006l.456.136 5.17 1.547.642.191c.086.027.141.08.142.14.001.059-.053.113-.139.139zm0 23.162l-.635.187-5.126 1.511-.452.133a.41.41 0 01-.2.004.241.241 0 01-.144-.087.101.101 0 01-.02-.057l-.012-.899c-.002-.085-.115-.155-.255-.156l-12.565-.024c-.14 0-.254-.069-.256-.155l-.019-1.268c0-.086.112-.156.252-.155l12.565.024c.139-.001.25-.069.25-.154l-.014-.919c0-.02.006-.039.018-.057a.228.228 0 01.142-.086.412.412 0 01.2.005l.456.136 5.17 1.547.642.192c.086.026.141.08.142.139.001.059-.053.113-.139.139z" opacity="1" fill="#fff"/><text x="0" font-family="sans-serif" y="0" text-anchor="middle" vectornator:text="Time partition" fill="#fff" font-size="6" vectornator:width="78.971" opacity="1" transform="translate(13.595 59.361)"><tspan x="39.486" y="6" textLength="36.346">Time partition</tspan></text><text x="0" font-family="sans-serif" y="0" text-anchor="middle" vectornator:text="Time partition" fill="#fff" font-size="6" vectornator:width="78.971" opacity="1" transform="translate(13.595 82.362)"><tspan x="39.486" y="6" textLength="36.126">Time partition</tspan></text><text x="0" font-family="sans-serif" y="0" text-anchor="middle" vectornator:text="Time partition" fill="#fff" font-size="6" vectornator:width="78.971" opacity="1" transform="translate(13.595 106.424)"><tspan x="39.486" y="6" textLength="36.126">Time partition</tspan></text></g></svg>