<svg height="100%" xmlns="http://www.w3.org/2000/svg" xml:space="preserve" width="100%" xmlns:vectornator="http://vectornator.io" version="1.1" viewBox="0 0 212.625 170.1" fill-rule="evenodd" clip-rule="evenodd" stroke-linecap="round" stroke-linejoin="round"><g id="layer1 copy" vectornator:layerName="layer1 copy"><path d="M55.843 6.576H93.56c.512 0 .927.113.927.252v21.379c0 .14-.415.252-.927.252H55.843c-.512 0-.927-.113-.927-.252V6.827c0-.138.415-.251.927-.251z" opacity="1" fill="#5f5e67"/><text x="0" font-family="sans-serif" y="0" text-anchor="middle" vectornator:text="table directory" fill="#fff" font-size="5" vectornator:width="51.134" opacity="1" transform="translate(49.135 11.86)"><tspan x="26.262" y="5" textLength="12.231">table </tspan> <tspan x="25.567" y="11" textLength="19.172"> directory</tspan></text><path d="M55.509 43.13h24.126c.328 0 .593.339.593.756v64.139c0 .418-.265.756-.593.756H55.51c-.328 0-.593-.338-.593-.756V43.886c0-.417.266-.756.593-.756z" opacity="1" fill="#464353"/><path d="M97.079 6.576h37.718c.512 0 .927.051.927.114v9.7c0 .062-.415.114-.927.114H97.079c-.512 0-.927-.052-.927-.115V6.69c0-.063.415-.114.927-.114zm0 11.955h37.718c.512 0 .927.051.927.114v9.7c0 .063-.415.114-.927.114H97.079c-.512 0-.927-.051-.927-.114v-9.7c0-.063.415-.114.927-.114zm-40.27 12.607h77.022c1.045 0 1.893.051 1.893.114v9.7c0 .062-.848.114-1.893.114H56.809c-1.046 0-1.893-.052-1.893-.115v-9.699c0-.063.847-.114 1.893-.114z" opacity="1" fill="#5f5e67"/><path d="M83.257 43.13h24.126c.327 0 .593.339.593.756v64.139c0 .418-.266.756-.593.756H83.257c-.328 0-.593-.338-.593-.756V43.886c0-.417.265-.756.593-.756zm27.748 0h24.126c.327 0 .593.339.593.756v64.139c0 .418-.266.756-.593.756h-24.126c-.328 0-.593-.338-.593-.756V43.886c0-.417.265-.756.593-.756z" opacity="1" fill="#464353"/><text x="0" font-family="sans-serif" y="0" text-anchor="middle" vectornator:text="tx file" fill="#fff" font-size="5" vectornator:width="51.134" opacity="1" transform="translate(90.37 20.16)"><tspan x="25.567" y="5" textLength="11.67">tx file</tspan></text><text x="0" font-family="sans-serif" y="0" text-anchor="middle" vectornator:text="metadata" fill="#fff" font-size="5" vectornator:width="51.134" opacity="1" transform="translate(90.37 9.218)"><tspan x="25.567" y="5" textLength="20.847">metadata</tspan></text><text x="0" font-family="sans-serif" y="0" text-anchor="middle" vectornator:text="partition directory" fill="#fff" font-size="5" vectornator:width="51.134" opacity="1" transform="translate(70.585 32.766)"><tspan x="25.567" y="5" textLength="38.35">partition directory</tspan></text><text x="0" font-family="sans-serif" y="0" text-anchor="middle" vectornator:text="column file" fill="#fff" font-size="5" vectornator:width="20.403" opacity="1" transform="translate(57.37 44.467)"><tspan x="10.201" y="5" textLength="16.118">column </tspan> <tspan x="10.201" y="11" textLength="6.392"> file</tspan></text><text x="0" font-family="sans-serif" y="0" text-anchor="middle" vectornator:text="column file" fill="#fff" font-size="5" vectornator:width="20.403" opacity="1" transform="translate(85.95 44.467)"><tspan x="10.201" y="5" textLength="16.118">column </tspan> <tspan x="10.201" y="11" textLength="6.392"> file</tspan></text><text x="0" font-family="sans-serif" y="0" text-anchor="middle" vectornator:text="column file" fill="#fff" font-size="5" vectornator:width="20.403" opacity="1" transform="translate(112.866 44.467)"><tspan x="10.201" y="5" textLength="16.118">column </tspan> <tspan x="10.201" y="11" textLength="6.392"> file</tspan></text><path d="M56.451 57.457h21.787c.296 0 .535.148.535.331v28.081c0 .183-.24.331-.535.331H56.451c-.295 0-.535-.148-.535-.33V57.787c0-.183.24-.331.535-.331zm27.976 0h21.786c.296 0 .536.148.536.331v28.081c0 .183-.24.331-.536.331H84.427c-.296 0-.536-.148-.536-.33V57.787c0-.183.24-.331.536-.331zm27.747 0h21.787c.296 0 .535.148.535.331v28.081c0 .183-.239.331-.535.331h-21.787c-.295 0-.535-.148-.535-.33V57.787c0-.183.24-.331.535-.331zm26.584 0h50.293c.683 0 1.236.148 1.236.331v28.081c0 .183-.553.331-1.236.331h-50.293c-.683 0-1.236-.148-1.236-.33V57.787c0-.183.553-.331 1.236-.331z" opacity="1" fill="#5f5e67"/><text x="0" font-family="sans-serif" y="0" text-anchor="middle" vectornator:text="Committed data, available to read" fill="#fff" font-size="5" vectornator:width="50.3" opacity="1" transform="translate(138.754 67.956)"><tspan x="25.845" y="5" textLength="38.071">Committed data, </tspan> <tspan x="25.15" y="11" textLength="36.692"> available to read</tspan></text><path d="M56.451 86.937h21.787c.296 0 .535.105.535.235v19.92c0 .13-.24.235-.535.235H56.451c-.295 0-.535-.105-.535-.235v-19.92c0-.13.24-.235.535-.235zm27.976 0h21.786c.296 0 .536.105.536.235v19.92c0 .13-.24.235-.536.235H84.427c-.296 0-.536-.105-.536-.235v-19.92c0-.13.24-.235.536-.235zm27.747 0h21.787c.296 0 .535.105.535.235v19.92c0 .13-.239.235-.535.235h-21.787c-.295 0-.535-.105-.535-.235v-19.92c0-.13.24-.235.535-.235z" opacity="1" fill="#d14671"/><path d="M129.621 73.228l.318-.139 2.574-1.126.227-.099a.14.14 0 01.101-.003.121.121 0 01.072.065c.006.013.01.028.01.043l.006.67c.001.063.058.115.128.115l6.31.018c.07 0 .128.052.129.116l.009.945c.001.064-.056.116-.126.116l-6.31-.018c-.07 0-.126.051-.126.114l.007.685c0 .014-.003.03-.009.043a.118.118 0 01-.071.064.14.14 0 01-.101-.004l-.228-.102-2.597-1.153-.322-.142a.12.12 0 01-.072-.104c0-.044.027-.084.071-.104z" opacity="1" fill="#fff"/><path d="M138.758 86.937h50.293c.683 0 1.236.111 1.236.248v21.037c0 .137-.553.248-1.236.248h-50.293c-.683 0-1.236-.111-1.236-.248V87.185c0-.137.553-.248 1.236-.248z" opacity="1" fill="#d14671"/><text x="0" font-family="sans-serif" y="0" text-anchor="middle" vectornator:text="Sliding memory mapped page in write only mode" fill="#fff" font-size="5" vectornator:width="46.127" opacity="1" transform="translate(140.841 88.926)"><tspan x="23.758" y="5" textLength="35.845">Sliding memory </tspan> <tspan x="23.758" y="11" textLength="37.251"> mapped page in </tspan> <tspan x="23.064" y="17" textLength="35.015"> write only mode</tspan></text><path d="M129.621 98.973l.318-.14 2.574-1.125.227-.1a.14.14 0 01.101-.002.121.121 0 01.072.064c.006.014.01.028.01.043l.006.67c.001.063.058.115.128.116l6.31.018c.07 0 .128.052.129.115l.009.946c.001.064-.056.115-.126.115l-6.31-.018c-.07 0-.126.052-.126.115l.007.684c0 .015-.003.03-.009.043a.116.116 0 01-.071.064.14.14 0 01-.101-.004l-.228-.101-2.597-1.153-.322-.142a.12.12 0 01-.072-.105c0-.044.027-.084.071-.103z" opacity="1" fill="#fff"/><path d="M144.272 14.841h54.738c.743 0 1.345.105 1.345.234v19.793c0 .13-.602.234-1.345.234h-54.738c-.742 0-1.345-.105-1.344-.234V15.074c0-.128.602-.233 1.344-.233z" opacity="1" fill="#d94774"/><text x="0" font-family="sans-serif" y="0" text-anchor="middle" vectornator:text="commit automatically updates read record count" fill="#fff" font-size="5" vectornator:width="51.628" opacity="1" transform="translate(146.274 16.531)"><tspan x="26.508" y="5" textLength="48.069">commit automatically </tspan> <tspan x="26.508" y="11" textLength="46.14"> updates read record </tspan> <tspan x="25.814" y="17" textLength="12.231"> count</tspan></text><path d="M135.794 23.99l.318-.14 2.574-1.126.228-.099a.137.137 0 01.1-.003.127.127 0 01.073.065.107.107 0 01.009.043l.007.67c0 .063.057.115.127.115l6.31.018c.07 0 .128.052.129.116l.009.945c.001.064-.056.116-.126.116l-6.31-.018c-.07 0-.126.051-.125.114l.006.685a.091.091 0 01-.008.043.12.12 0 01-.072.064.138.138 0 01-.1-.004l-.229-.102-2.597-1.153-.322-.142a.117.117 0 01-.071-.104.113.113 0 01.07-.104z" opacity="1" fill="#fff"/><path d="M55.846 108.902l-.319.139-2.574 1.126-.227.099a.145.145 0 01-.1.003.128.128 0 01-.073-.064.11.11 0 01-.01-.043l-.006-.67c0-.064-.057-.115-.127-.116l-6.31-.018c-.07 0-.128-.052-.13-.116l-.008-.945c-.001-.064.055-.116.126-.115l6.31.018c.07-.001.125-.052.125-.115l-.007-.685a.1.1 0 01.01-.042.118.118 0 01.07-.064.135.135 0 01.101.004l.23.101 2.596 1.153.321.142c.044.02.072.06.072.104a.114.114 0 01-.07.104z" opacity="1" fill="#d14671"/><text x="0" font-family="sans-serif" y="0" text-anchor="middle" vectornator:text="APPEND position" fill="#fff" font-size="5" vectornator:width="46.031" opacity="1" transform="translate(1.885 105.698)"><tspan x="23.016" y="5" textLength="39.185">APPEND position</tspan></text><g opacity="1" fill="#d94774"><path d="M96.15 130.899c-5.495 0-10.099-1.614-11.356-3.79-.22.383-.35.781-.35 1.194v3.561c0 2.751 5.242 4.983 11.705 4.983 6.467 0 11.711-2.232 11.711-4.983v-3.561c0-.413-.131-.811-.354-1.194-1.257 2.175-5.857 3.79-11.357 3.79z" opacity="1"/><path d="M96.15 138.255c-5.495 0-10.099-1.616-11.356-3.788-.22.381-.35.779-.35 1.191v3.564c0 2.752 5.242 4.983 11.705 4.983 6.467 0 11.711-2.23 11.711-4.983v-3.564c0-.412-.131-.81-.354-1.19-1.257 2.171-5.857 3.787-11.357 3.787zm11.39-18.268c-.23 2.016-5.232 3.629-11.39 3.629-6.157 0-11.159-1.613-11.388-3.628-.2.366-.318.748-.318 1.141v3.561c0 2.752 5.242 4.983 11.705 4.983 6.467 0 11.711-2.23 11.711-4.983v-3.561c0-.393-.119-.775-.32-1.142z" opacity="1"/><path d="M96.15 122.486c6.302 0 11.409-1.687 11.409-3.771 0-2.082-5.107-3.77-11.41-3.77-6.299.001-11.408 1.689-11.408 3.771 0 2.083 5.11 3.77 11.408 3.77z" opacity="1"/></g><path d="M95.32 114.945h.832-.832z" opacity="1" fill="#d94774"/><path stroke="#61cfee" stroke-dasharray="2" stroke-width="1" d="M96.268 112.842c0 35.444-.116 35.616-.116 35.616" fill="#61cfee" stroke-linecap="round" fill-opacity="0" opacity="1" stroke-linejoin="round"/><path d="M121.202 114.842h32.64c.443 0 .802.034.802.075v6.321c0 .041-.359.075-.802.075h-32.64c-.443 0-.802-.034-.802-.075v-6.321c0-.041.359-.075.802-.075z" opacity="1" fill="#61cfee"/><text x="0" font-family="sans-serif" y="0" text-anchor="middle" vectornator:text="Reader 1" fill="#fff" font-size="5" vectornator:width="28.329" opacity="1" transform="translate(123.357 115.288)"><tspan x="14.165" y="5" textLength="20.569">Reader 1</tspan></text><path d="M121.202 126.301h32.64c.443 0 .802.033.802.074v6.322c0 .041-.359.074-.802.074h-32.64c-.443 0-.802-.033-.802-.074v-6.322c0-.041.359-.074.802-.074z" opacity="1" fill="#61cfee"/><text x="0" font-family="sans-serif" y="0" text-anchor="middle" vectornator:text="Reader 2" fill="#fff" font-size="5" vectornator:width="28.329" opacity="1" transform="translate(123.357 126.733)"><tspan x="14.165" y="5" textLength="20.569">Reader 2</tspan></text><path d="M121.202 136.999h32.64c.443 0 .802.037.802.083v7.04c0 .046-.359.083-.802.083h-32.64c-.443 0-.802-.037-.802-.083v-7.04c0-.046.359-.083.802-.083z" opacity="1" fill="#61cfee"/><text x="0" font-family="sans-serif" y="0" text-anchor="middle" vectornator:text="Reader 3" fill="#fff" font-size="5" vectornator:width="28.329" opacity="1" transform="translate(123.357 138.431)"><tspan x="14.165" y="5" textLength="20.569">Reader 3</tspan></text><path d="M121.649 118.198l-.318.139-2.574 1.126-.228.099a.133.133 0 01-.1.003.129.129 0 01-.073-.064.107.107 0 01-.009-.043l-.007-.67c0-.063-.057-.115-.127-.116l-6.31-.018c-.07 0-.128-.052-.129-.115l-.009-.946c-.001-.064.056-.115.126-.115l6.31.018c.07-.001.126-.052.125-.115l-.006-.684a.09.09 0 01.008-.043.118.118 0 01.072-.064.138.138 0 01.1.004l.229.101 2.597 1.153.322.142c.043.02.071.061.071.105a.112.112 0 01-.07.103zm0 11.459l-.318.139-2.574 1.126-.228.098a.138.138 0 01-.1.004.127.127 0 01-.073-.065.104.104 0 01-.009-.043l-.007-.669c0-.064-.057-.116-.127-.116l-6.31-.018c-.07-.001-.128-.052-.129-.116l-.009-.945c-.001-.064.056-.116.126-.116l6.31.018c.07 0 .126-.051.125-.115l-.006-.684a.092.092 0 01.008-.043.124.124 0 01.072-.064.138.138 0 01.1.004l.229.102 2.597 1.152.322.143c.043.02.071.06.071.104a.114.114 0 01-.07.104zm0 11.437l-.318.139-2.574 1.126-.228.099a.133.133 0 01-.1.003.125.125 0 01-.073-.064.107.107 0 01-.009-.043l-.007-.67c0-.063-.057-.115-.127-.116l-6.31-.018c-.07 0-.128-.052-.129-.115l-.009-.946c-.001-.064.056-.115.126-.115l6.31.018c.07 0 .126-.052.125-.115l-.006-.684a.09.09 0 01.008-.043.118.118 0 01.072-.064.138.138 0 01.1.004l.229.101 2.597 1.153.322.143c.043.019.071.06.071.104a.112.112 0 01-.07.103zm-34.882-10.698l-.318.14-2.574 1.126-.227.098a.135.135 0 01-.1.003.124.124 0 01-.073-.064.108.108 0 01-.01-.043l-.007-.669c0-.064-.057-.116-.127-.117l-6.31-.018c-.07 0-.128-.051-.129-.115l-.01-.945c0-.064.057-.116.127-.116l6.31.018c.07 0 .126-.051.126-.115l-.007-.684c0-.015.003-.029.008-.043a.124.124 0 01.072-.064.14.14 0 01.1.004l.23.102 2.596 1.152.322.143c.043.02.071.06.071.104a.113.113 0 01-.07.103z" opacity="1" fill="#fff"/><path d="M40.433 125.786h33.003c.448 0 .81.05.81.112v9.504c0 .062-.362.112-.81.112H40.433c-.448 0-.81-.05-.81-.112v-9.504c0-.062.362-.112.81-.112z" opacity="1" fill="#d94774"/><text x="0" font-family="sans-serif" y="0" text-anchor="middle" vectornator:text="Writer" fill="#fff" font-size="5" vectornator:width="28.329" opacity="1" transform="translate(43.206 128.02)"><tspan x="14.165" y="5" textLength="13.242">Writer</tspan></text><text x="0" font-family="sans-serif" y="0" text-anchor="middle" vectornator:text="Single Writer" fill="#fff" font-size="5" vectornator:width="29.101" opacity="1" transform="translate(63.894 148.66)"><tspan x="14.55" y="5" textLength="13.899">Single </tspan> <tspan x="14.55" y="11" textLength="13.33"> Writer</tspan></text><text x="0" font-family="sans-serif" y="0" text-anchor="middle" vectornator:text="Multiple Readers" fill="#fff" font-size="5" vectornator:width="28.471" opacity="1" transform="translate(96.152 148.66)"><tspan x="14.235" y="5" textLength="17.229">Multiple </tspan> <tspan x="14.235" y="11" textLength="18.899"> Readers</tspan></text></g></svg>