<svg width="1111" height="612" viewBox="0 0 1111 612" fill="none" xmlns="http://www.w3.org/2000/svg"><rect x="133" width="826.409" height="523" rx="11.934" fill="#262833"/><mask id="mask0_303_110" style="mask-type:alpha" maskUnits="userSpaceOnUse" x="133" y="0" width="827" height="523"><rect x="133" width="826.409" height="523" rx="11.934" fill="#262833"/></mask><g mask="url(#mask0_303_110)"><path d="M205.047 73.203h-2.438a3.717 3.717 0 00-.523-1.375 3.843 3.843 0 00-.938-1.008 4.022 4.022 0 00-1.242-.625 4.85 4.85 0 00-1.445-.21c-.922 0-1.747.231-2.477.695-.724.463-1.296 1.143-1.718 2.039-.417.896-.625 1.99-.625 3.281 0 1.302.208 2.401.625 3.297.422.896.997 1.573 1.726 2.031.729.459 1.55.688 2.461.688a5 5 0 001.438-.204c.458-.14.872-.346 1.242-.617a3.73 3.73 0 001.476-2.352l2.438.009a6.523 6.523 0 01-.758 2.171 5.987 5.987 0 01-1.43 1.704 6.46 6.46 0 01-1.984 1.101c-.745.26-1.557.39-2.437.39-1.386 0-2.62-.327-3.704-.984-1.083-.661-1.937-1.606-2.562-2.836-.62-1.229-.93-2.695-.93-4.398 0-1.708.313-3.174.938-4.398.625-1.23 1.479-2.172 2.562-2.829 1.084-.661 2.315-.992 3.696-.992.848 0 1.64.123 2.375.367a6.28 6.28 0 011.992 1.063 5.863 5.863 0 011.461 1.703c.385.667.645 1.43.781 2.29zM207.936 84V68h5.703c1.244 0 2.276.227 3.093.68.818.453 1.43 1.073 1.836 1.86.407.78.61 1.66.61 2.64 0 .984-.206 1.87-.617 2.656-.407.781-1.021 1.401-1.844 1.86-.818.452-1.847.679-3.086.679h-3.922v-2.047h3.703c.787 0 1.425-.135 1.914-.406.49-.276.849-.651 1.078-1.125.229-.474.344-1.013.344-1.617 0-.605-.115-1.14-.344-1.61a2.464 2.464 0 00-1.086-1.101c-.489-.266-1.135-.399-1.937-.399h-3.031V84h-2.414zm24.361-16h2.422v10.523c0 1.12-.263 2.112-.789 2.977-.526.86-1.266 1.537-2.219 2.031-.953.49-2.07.735-3.352.735-1.276 0-2.39-.245-3.343-.735-.953-.495-1.693-1.172-2.219-2.031-.526-.865-.789-1.857-.789-2.977V68h2.414v10.328c0 .724.159 1.367.476 1.93a3.46 3.46 0 001.368 1.328c.588.318 1.286.477 2.093.477.813 0 1.513-.16 2.102-.477a3.335 3.335 0 001.359-1.328c.318-.563.477-1.206.477-1.93V68zm13.902 0v16h-2.336V68h2.336zm8.197 16.242c-1.125 0-2.106-.258-2.945-.773-.838-.516-1.489-1.237-1.953-2.164-.463-.927-.695-2.01-.695-3.25 0-1.245.232-2.334.695-3.266.464-.932 1.115-1.656 1.953-2.172.839-.515 1.82-.773 2.945-.773 1.125 0 2.107.258 2.946.773.838.516 1.489 1.24 1.953 2.172.463.932.695 2.02.695 3.266 0 1.24-.232 2.323-.695 3.25-.464.927-1.115 1.648-1.953 2.164-.839.515-1.821.773-2.946.773zm.008-1.96c.729 0 1.334-.194 1.813-.579.479-.385.833-.898 1.062-1.539.235-.64.352-1.346.352-2.117 0-.766-.117-1.469-.352-2.11-.229-.645-.583-1.164-1.062-1.554-.479-.39-1.084-.586-1.813-.586-.734 0-1.343.195-1.828.586-.479.39-.836.909-1.07 1.555a6.226 6.226 0 00-.344 2.109c0 .77.115 1.476.344 2.117.234.64.591 1.154 1.07 1.54.485.385 1.094.577 1.828.577zm11.686 1.984c-.761 0-1.448-.141-2.063-.422a3.482 3.482 0 01-1.461-1.242c-.354-.542-.531-1.206-.531-1.993 0-.677.13-1.234.391-1.671.26-.438.612-.784 1.054-1.04a5.515 5.515 0 011.485-.578c.547-.13 1.104-.229 1.672-.297.718-.083 1.302-.15 1.75-.203.448-.057.773-.148.976-.273.203-.125.305-.328.305-.61v-.054c0-.682-.193-1.211-.578-1.586-.38-.375-.948-.563-1.703-.563-.787 0-1.407.175-1.86.524-.448.344-.757.726-.929 1.148l-2.196-.5c.261-.729.641-1.318 1.141-1.765a4.627 4.627 0 011.742-.985 6.804 6.804 0 012.07-.312c.48 0 .987.057 1.524.172a4.46 4.46 0 011.516.609c.473.297.862.721 1.164 1.273.302.547.453 1.258.453 2.133V84h-2.282v-1.64h-.093a3.327 3.327 0 01-.68.89c-.302.292-.69.534-1.164.727-.474.192-1.042.289-1.703.289zm.508-1.875c.645 0 1.198-.128 1.656-.383a2.688 2.688 0 001.055-1c.244-.417.367-.862.367-1.336v-1.547c-.084.083-.245.162-.485.234a7.508 7.508 0 01-.804.18c-.302.047-.597.091-.883.133-.287.036-.526.068-.719.094a5.793 5.793 0 00-1.242.289c-.37.135-.667.33-.891.586-.218.25-.328.583-.328 1 0 .578.214 1.015.641 1.312.427.292.971.438 1.633.438zm13.017 1.843c-.969 0-1.833-.247-2.594-.742-.755-.5-1.348-1.21-1.781-2.133-.427-.927-.64-2.039-.64-3.336 0-1.296.216-2.406.648-3.328.438-.922 1.037-1.627 1.797-2.117s1.622-.734 2.586-.734c.745 0 1.344.125 1.797.375.458.245.812.531 1.062.86.255.327.453.616.594.866h.141V68h2.336v16h-2.282v-1.867h-.195a6.258 6.258 0 01-.609.875c-.261.328-.62.614-1.079.86-.458.244-1.052.366-1.781.366zm.516-1.992c.672 0 1.239-.177 1.703-.531.469-.36.823-.857 1.062-1.492.245-.636.368-1.375.368-2.219 0-.833-.12-1.563-.36-2.188-.239-.624-.591-1.111-1.054-1.46-.464-.35-1.037-.524-1.719-.524-.703 0-1.289.182-1.758.547-.469.365-.823.862-1.062 1.492-.235.63-.352 1.341-.352 2.133 0 .802.12 1.523.359 2.164.24.64.594 1.148 1.063 1.523.474.37 1.057.555 1.75.555z" fill="#fff"/></g><path d="M133 8.95A8.95 8.95 0 01141.95 0h808.1A8.95 8.95 0 01959 8.95v22.043H133V8.95z" fill="#2F313C"/><ellipse cx="160.5" cy="15.98" rx="5.5" ry="5.327" fill="#6422F1"/><ellipse cx="175.5" cy="15.98" rx="5.5" ry="5.327" fill="#F46591"/><ellipse cx="190" cy="15.98" rx="5" ry="5.327" fill="#2BD38D"/><path d="M277.046 403.194c-4.19 0-4.19 3.392-10.476 3.392-1.716 0-9.421 0-12.563.159-.001 3.523 0 23.525-.007 26.307h629v-44.589c-6.285 0-13.048 9.485-19.333 9.485-4.19 0-4.19-11.71-10.475-11.71-6.285 0-6.285-3.18-12.571-3.18-6.285 0-6.285 9.432-12.57 9.432s-6.285-6.782-10.475-6.782c-6.286 0-6.286.848-12.571.848s-6.285 13.141-12.57 13.141c-6.286 0-6.286-10.863-12.571-10.863-4.19 0-4.19.53-10.475.53-6.285 0-6.285 11.658-12.571 11.658-6.285 0-6.285-28.085-12.57-28.085s-6.285 4.505-10.476 4.505c-6.285 0-6.285 11.021-12.57 11.021s-6.285-11.286-12.57-11.286c-6.286 0-6.286 17.433-12.571 17.433-4.19 0-4.19 5.511-10.475 5.511-6.286 0-6.285 5.67-12.571 5.67-6.285 0-6.285-11.181-12.57-11.181s-5.82-146.253-10.01-146.253c-6.286 0-6.751 156.003-13.036 156.003-6.285 0-6.285-9.591-12.571-9.591-6.285 0-6.285-5.246-12.57-5.246-4.19 0-4.19-2.596-10.475-2.596-6.286 0-6.286-6.412-12.571-6.412s-6.285-2.279-12.57-2.279-6.285.954-10.476.954c-6.285 0-6.285 22.574-12.57 22.574s-6.285 4.928-12.571 4.928c-6.285 0-6.285-4.822-12.57-4.822-4.19 0-4.19-10.545-10.475-10.545-6.286 0-6.286 7.259-12.571 7.259s-6.285 3.763-12.57 3.763c-6.286 0-6.286-13.831-10.476-13.831-6.285 0-6.285 8.744-12.57 8.744s-6.285 5.457-12.571 5.457c-6.285 0-6.285-15.472-12.57-15.472-4.19 0-4.19-8.267-10.475-8.267-6.286 0-6.286 3.656-12.571 3.656s-6.285 20.136-12.57 20.136c-6.286 0-6.286-18.334-10.476-18.334-6.285 0-6.285 15.791-12.57 15.791s-6.285-7.154-12.571-7.154c-6.285 0-6.285-3.232-12.57-3.232-4.19 0-4.19 7.048-10.475 7.048-6.286 0-9.228-199.339-15.513-199.339s-5.712 129.353-11.997 129.353-8.927-59.014-13.117-59.014c-6.285 0-2.233-22.395-8.518-22.395-6.286 0-5.327 157.647-11.613 157.647-6.285 0-6.285.053-12.57.053z" fill="url(#paint0_linear_303_110)"/><path d="M254 406.745c6.285 0 6.285-.159 12.57-.159 6.286 0 6.286-3.391 10.476-3.391 6.285 0 6.285-.053 12.57-.053 6.286 0 5.327-158.363 11.613-158.363 6.285 0 2.233 23.11 8.518 23.11 4.19 0 6.832 59.014 13.117 59.014 6.285 0 5.712-131.5 11.997-131.5s9.227 201.486 15.513 201.486c6.285 0 6.285-7.048 10.475-7.048 6.285 0 6.285 3.232 12.57 3.232 6.286 0 6.286 7.154 12.571 7.154s6.285-15.791 12.57-15.791c4.19 0 4.19 18.335 10.476 18.335 6.285 0 6.285-20.136 12.57-20.136s6.285-3.657 12.571-3.657c6.285 0 6.285 8.267 10.475 8.267 6.285 0 6.285 15.473 12.57 15.473 6.286 0 6.286-5.458 12.571-5.458s6.285-8.744 12.57-8.744c4.19 0 4.19 13.831 10.476 13.831 6.285 0 6.285-3.763 12.57-3.763s6.285-7.259 12.571-7.259c6.285 0 6.285 10.545 10.475 10.545 6.285 0 6.285 4.822 12.57 4.822 6.286 0 6.286-4.928 12.571-4.928s6.285-22.574 12.57-22.574c4.191 0 4.191-.954 10.476-.954 6.285 0 6.285 2.279 12.57 2.279s6.285 6.412 12.571 6.412c6.285 0 6.285 2.596 10.475 2.596 6.285 0 6.285 5.246 12.571 5.246 6.285 0 6.285 9.591 12.57 9.591s6.75-158.15 13.036-158.15c4.19 0 3.725 148.4 10.01 148.4s6.285 11.181 12.57 11.181c6.286 0 6.286-5.67 12.571-5.67s6.285-5.511 10.475-5.511c6.285 0 6.285-17.433 12.571-17.433 6.285 0 6.285 11.286 12.57 11.286s6.285-11.021 12.571-11.021c4.19 0 4.19-4.504 10.475-4.504 6.285 0 6.285 28.084 12.57 28.084 6.286 0 6.286-11.658 12.571-11.658s6.285-.53 10.475-.53c6.285 0 6.285 10.863 12.571 10.863 6.285 0 6.285-13.141 12.57-13.141s6.285-.848 12.571-.848c4.19 0 4.19 6.783 10.475 6.783 6.285 0 6.285-9.432 12.57-9.432 6.286 0 6.286 3.179 12.571 3.179s6.285 11.711 10.475 11.711c6.285 0 13.048-9.639 19.333-9.639" stroke="url(#paint1_linear_303_110)" stroke-width="2"/><path d="M197.322 166.897h.133v1.304h-.133c-.814 0-1.494.132-2.042.398-.548.26-.982.612-1.303 1.054-.321.437-.554.93-.698 1.478a6.805 6.805 0 00-.207 1.668v1.777c0 .536.063 1.012.191 1.427.127.41.301.756.523 1.038.221.282.47.495.747.639.282.144.575.216.88.216.354 0 .669-.066.946-.199.277-.139.509-.329.697-.573.194-.249.34-.542.44-.88a3.9 3.9 0 00.15-1.112c0-.36-.045-.706-.133-1.038a2.77 2.77 0 00-.407-.896 1.957 1.957 0 00-.689-.623c-.271-.155-.595-.232-.971-.232a2.39 2.39 0 00-1.196.315 2.718 2.718 0 00-.904.814 2.18 2.18 0 00-.399 1.087l-.813-.008c.077-.62.221-1.148.431-1.586.216-.442.482-.802.797-1.079a3.015 3.015 0 011.071-.614 3.961 3.961 0 011.262-.199c.603 0 1.123.113 1.56.34a3.08 3.08 0 011.079.913c.283.376.49.803.623 1.278.138.471.208.955.208 1.453 0 .57-.081 1.104-.241 1.602a3.802 3.802 0 01-.722 1.312 3.271 3.271 0 01-1.171.88c-.465.21-1.004.315-1.618.315-.653 0-1.223-.133-1.71-.398a3.667 3.667 0 01-1.212-1.08 4.904 4.904 0 01-.722-1.494 5.888 5.888 0 01-.241-1.668v-.722c0-.853.086-1.688.257-2.507a6.7 6.7 0 01.888-2.225c.426-.664 1.016-1.192 1.768-1.585.753-.393 1.713-.59 2.881-.59zm11.756 5.097v1.843c0 .99-.089 1.826-.266 2.507-.177.68-.432 1.228-.764 1.643a2.907 2.907 0 01-1.203.905c-.465.183-.991.274-1.577.274a4.53 4.53 0 01-1.287-.174 3.083 3.083 0 01-1.063-.556 3.392 3.392 0 01-.796-1.013c-.222-.415-.391-.919-.507-1.511-.116-.592-.174-1.284-.174-2.075v-1.843c0-.99.088-1.82.266-2.49.182-.67.439-1.206.772-1.61.332-.41.73-.703 1.195-.88.47-.177.996-.266 1.577-.266.47 0 .902.058 1.295.174.398.111.753.291 1.062.54a3 3 0 01.789.979c.221.404.39.9.506 1.486.117.587.175 1.276.175 2.067zm-1.544 2.092v-2.349c0-.543-.034-1.018-.1-1.428a4.473 4.473 0 00-.274-1.062 2.095 2.095 0 00-.465-.714 1.63 1.63 0 00-.639-.399 2.307 2.307 0 00-.805-.133c-.365 0-.689.07-.971.208-.282.133-.52.346-.714.639-.188.293-.332.678-.432 1.154-.099.476-.149 1.054-.149 1.735v2.349c0 .542.03 1.021.091 1.436.067.415.163.775.291 1.079.127.299.282.545.465.739.182.194.392.337.63.431.244.089.512.133.806.133.376 0 .705-.072.987-.216.283-.143.518-.368.706-.672.194-.31.338-.705.432-1.187a9.33 9.33 0 00.141-1.743zm3.886-4.209v-.639c0-.459.1-.877.299-1.253.199-.376.484-.678.855-.905.371-.227.811-.34 1.32-.34.52 0 .963.113 1.328.34.371.227.656.529.855.905.199.376.299.794.299 1.253v.639c0 .449-.1.861-.299 1.237a2.253 2.253 0 01-.847.905c-.365.227-.805.34-1.319.34-.515 0-.96-.113-1.337-.34a2.308 2.308 0 01-.855-.905 2.603 2.603 0 01-.299-1.237zm1.154-.639v.639c0 .255.047.496.141.723.1.226.249.412.449.556.199.138.448.207.747.207.298 0 .545-.069.738-.207.194-.144.338-.33.432-.556a1.87 1.87 0 00.141-.723v-.639c0-.26-.05-.503-.149-.73a1.212 1.212 0 00-.44-.556c-.194-.144-.44-.216-.739-.216-.293 0-.54.072-.739.216-.193.138-.34.323-.44.556-.094.227-.141.47-.141.73zm4.732 7.446v-.647c0-.454.099-.869.298-1.245.2-.377.485-.678.855-.905.371-.227.811-.341 1.32-.341.52 0 .963.114 1.328.341.371.227.656.528.855.905.2.376.299.791.299 1.245v.647c0 .454-.099.869-.299 1.245a2.251 2.251 0 01-.846.905c-.366.227-.805.34-1.32.34s-.957-.113-1.328-.34a2.375 2.375 0 01-.864-.905 2.62 2.62 0 01-.298-1.245zm1.153-.647v.647c0 .255.048.498.142.731.099.226.249.412.448.556.199.138.448.207.747.207s.545-.069.739-.207c.199-.144.346-.33.44-.556.094-.227.141-.471.141-.731v-.647c0-.26-.05-.504-.15-.731a1.221 1.221 0 00-.44-.548c-.193-.144-.442-.216-.747-.216-.293 0-.539.072-.738.216a1.299 1.299 0 00-.44.548 1.893 1.893 0 00-.142.731zm1.702-7.405l-5.902 9.447-.863-.548 5.902-9.447.863.548zm-26.79 132.616l-1.229-.316.606-6.018h6.201v1.419h-4.898l-.365 3.288a4.44 4.44 0 01.838-.357 3.832 3.832 0 011.179-.166c.559 0 1.06.096 1.503.29.442.188.819.459 1.128.814.316.354.557.78.723 1.278.166.498.249 1.054.249 1.668 0 .581-.081 1.116-.241 1.602-.155.487-.39.914-.706 1.279a3.16 3.16 0 01-1.195.838c-.476.199-1.038.299-1.685.299-.487 0-.949-.066-1.386-.199a3.57 3.57 0 01-1.162-.623 3.353 3.353 0 01-.83-1.046c-.211-.42-.344-.913-.399-1.477h1.461c.066.454.199.835.399 1.145.199.31.459.545.78.706a2.62 2.62 0 001.137.232c.365 0 .689-.063.971-.191.282-.127.52-.31.714-.547.194-.238.34-.526.44-.864.105-.337.158-.716.158-1.137 0-.382-.053-.736-.158-1.062a2.425 2.425 0 00-.473-.855 2.072 2.072 0 00-.756-.565 2.424 2.424 0 00-1.029-.207c-.514 0-.905.069-1.17.207-.26.138-.529.327-.805.565zm15.707-1.254v1.843c0 .99-.089 1.826-.266 2.507-.177.68-.432 1.228-.764 1.643a2.907 2.907 0 01-1.203.905c-.465.183-.991.274-1.577.274a4.53 4.53 0 01-1.287-.174 3.083 3.083 0 01-1.063-.556 3.392 3.392 0 01-.796-1.013c-.222-.415-.391-.919-.507-1.511-.116-.592-.174-1.284-.174-2.075v-1.843c0-.99.088-1.82.266-2.49.182-.67.439-1.206.772-1.61.332-.41.73-.703 1.195-.88.47-.177.996-.266 1.577-.266.47 0 .902.058 1.295.174.398.111.753.291 1.062.54a3 3 0 01.789.979c.221.404.39.9.506 1.486.117.587.175 1.276.175 2.067zm-1.544 2.092v-2.349c0-.543-.034-1.018-.1-1.428a4.473 4.473 0 00-.274-1.062 2.095 2.095 0 00-.465-.714 1.63 1.63 0 00-.639-.399 2.307 2.307 0 00-.805-.133c-.365 0-.689.07-.971.208-.282.133-.52.346-.714.639-.188.293-.332.678-.432 1.154-.099.476-.149 1.054-.149 1.735v2.349c0 .542.03 1.021.091 1.436.067.415.163.775.291 1.079.127.299.282.545.465.739.182.194.392.337.63.431.244.089.512.133.806.133.376 0 .705-.072.987-.216.283-.143.518-.368.706-.672.194-.31.338-.705.432-1.187a9.33 9.33 0 00.141-1.743zm3.886-4.209v-.639c0-.459.1-.877.299-1.253.199-.376.484-.678.855-.905.371-.227.811-.34 1.32-.34.52 0 .963.113 1.328.34.371.227.656.529.855.905.199.376.299.794.299 1.253v.639c0 .449-.1.861-.299 1.237a2.253 2.253 0 01-.847.905c-.365.227-.805.34-1.319.34-.515 0-.96-.113-1.337-.34a2.308 2.308 0 01-.855-.905 2.603 2.603 0 01-.299-1.237zm1.154-.639v.639c0 .255.047.496.141.723.1.226.249.412.449.556.199.138.448.207.747.207.298 0 .545-.069.738-.207.194-.144.338-.33.432-.556a1.87 1.87 0 00.141-.723v-.639c0-.26-.05-.503-.149-.73a1.212 1.212 0 00-.44-.556c-.194-.144-.44-.216-.739-.216-.293 0-.54.072-.739.216-.193.138-.34.323-.44.556-.094.227-.141.47-.141.73zm4.732 7.446v-.647c0-.454.099-.869.298-1.245.2-.377.485-.678.855-.905.371-.227.811-.341 1.32-.341.52 0 .963.114 1.328.341.371.227.656.528.855.905.2.376.299.791.299 1.245v.647c0 .454-.099.869-.299 1.245a2.251 2.251 0 01-.846.905c-.366.227-.805.34-1.32.34s-.957-.113-1.328-.34a2.375 2.375 0 01-.864-.905 2.62 2.62 0 01-.298-1.245zm1.153-.647v.647c0 .255.048.498.142.731.099.226.249.412.448.556.199.138.448.207.747.207s.545-.069.739-.207c.199-.144.346-.33.44-.556.094-.227.141-.471.141-.731v-.647c0-.26-.05-.504-.15-.731a1.221 1.221 0 00-.44-.548c-.193-.144-.442-.216-.747-.216-.293 0-.539.072-.738.216a1.299 1.299 0 00-.44.548 1.893 1.893 0 00-.142.731zm1.702-7.405l-5.902 9.447-.863-.548 5.902-9.447.863.548zm-20.565 137.301v1.261h-8.732v-.904l5.412-8.376h1.253l-1.344 2.424-3.578 5.595h6.989zm-1.685-8.019V438h-1.536v-12.086h1.536zm11.167 5.08v1.843c0 .99-.089 1.826-.266 2.507-.177.68-.432 1.228-.764 1.643a2.907 2.907 0 01-1.203.905c-.465.183-.991.274-1.577.274a4.53 4.53 0 01-1.287-.174 3.083 3.083 0 01-1.063-.556 3.392 3.392 0 01-.796-1.013c-.222-.415-.391-.919-.507-1.511-.116-.592-.174-1.284-.174-2.075v-1.843c0-.99.088-1.82.266-2.49.182-.67.439-1.206.772-1.61.332-.41.73-.703 1.195-.88.47-.177.996-.266 1.577-.266.47 0 .902.058 1.295.174.398.111.753.291 1.062.54a3 3 0 01.789.979c.221.404.39.9.506 1.486.117.587.175 1.276.175 2.067zm-1.544 2.092v-2.349c0-.543-.034-1.018-.1-1.428a4.473 4.473 0 00-.274-1.062 2.095 2.095 0 00-.465-.714 1.63 1.63 0 00-.639-.399 2.307 2.307 0 00-.805-.133c-.365 0-.689.07-.971.208-.282.133-.52.346-.714.639-.188.293-.332.678-.432 1.154-.099.476-.149 1.054-.149 1.735v2.349c0 .542.03 1.021.091 1.436.067.415.163.775.291 1.079.127.299.282.545.465.739.182.194.392.337.63.431.244.089.512.133.806.133.376 0 .705-.072.987-.216.283-.143.518-.368.706-.672.194-.31.338-.705.432-1.187a9.33 9.33 0 00.141-1.743zm3.886-4.209v-.639c0-.459.1-.877.299-1.253.199-.376.484-.678.855-.905.371-.227.811-.34 1.32-.34.52 0 .963.113 1.328.34.371.227.656.529.855.905.199.376.299.794.299 1.253v.639c0 .449-.1.861-.299 1.237a2.253 2.253 0 01-.847.905c-.365.227-.805.34-1.319.34-.515 0-.96-.113-1.337-.34a2.308 2.308 0 01-.855-.905 2.603 2.603 0 01-.299-1.237zm1.154-.639v.639c0 .255.047.496.141.723.1.226.249.412.449.556.199.138.448.207.747.207.298 0 .545-.069.738-.207.194-.144.338-.33.432-.556a1.87 1.87 0 00.141-.723v-.639c0-.26-.05-.503-.149-.73a1.212 1.212 0 00-.44-.556c-.194-.144-.44-.216-.739-.216-.293 0-.54.072-.739.216-.193.138-.34.323-.44.556-.094.227-.141.47-.141.73zm4.732 7.446v-.647c0-.454.099-.869.298-1.245.2-.377.485-.678.855-.905.371-.227.811-.341 1.32-.341.52 0 .963.114 1.328.341.371.227.656.528.855.905.2.376.299.791.299 1.245v.647c0 .454-.099.869-.299 1.245a2.251 2.251 0 01-.846.905c-.366.227-.805.34-1.32.34s-.957-.113-1.328-.34a2.375 2.375 0 01-.864-.905 2.62 2.62 0 01-.298-1.245zm1.153-.647v.647c0 .255.048.498.142.731.099.226.249.412.448.556.199.138.448.207.747.207s.545-.069.739-.207c.199-.144.346-.33.44-.556.094-.227.141-.471.141-.731v-.647c0-.26-.05-.504-.15-.731a1.221 1.221 0 00-.44-.548c-.193-.144-.442-.216-.747-.216-.293 0-.539.072-.738.216a1.299 1.299 0 00-.44.548 1.893 1.893 0 00-.142.731zm1.702-7.405l-5.902 9.447-.863-.548 5.902-9.447.863.548zm48.713 40.209v1.113h-6.98v-.974l3.493-3.889c.43-.479.762-.884.996-1.216.24-.337.406-.637.498-.901.098-.269.147-.542.147-.82a2.04 2.04 0 00-.22-.953 1.638 1.638 0 00-.63-.688c-.278-.171-.615-.256-1.011-.256-.473 0-.869.092-1.186.278a1.706 1.706 0 00-.703.762 2.59 2.59 0 00-.235 1.128h-1.355c0-.601.132-1.15.396-1.648a2.916 2.916 0 011.172-1.187c.517-.298 1.155-.447 1.911-.447.674 0 1.25.12 1.729.359.479.235.845.567 1.099.996.258.425.388.923.388 1.494 0 .313-.054.63-.161.953a4.917 4.917 0 01-.432.952c-.181.317-.394.63-.638.937a13.96 13.96 0 01-.769.908l-2.856 3.099h5.347zm3.927-4.886h.967c.474 0 .864-.078 1.172-.234.312-.161.544-.378.696-.652.156-.278.234-.591.234-.937 0-.411-.068-.755-.205-1.033a1.38 1.38 0 00-.615-.63c-.274-.142-.62-.212-1.04-.212-.381 0-.718.075-1.011.227a1.656 1.656 0 00-.681.63 1.867 1.867 0 00-.242.966h-1.355c0-.542.137-1.035.41-1.479a2.945 2.945 0 011.15-1.062c.498-.264 1.074-.396 1.729-.396.644 0 1.208.115 1.692.345a2.52 2.52 0 011.128 1.01c.268.445.402.999.402 1.663 0 .268-.063.557-.19.864a2.554 2.554 0 01-.579.85 2.988 2.988 0 01-1.01.652c-.415.166-.913.249-1.495.249h-1.157v-.821zm0 1.114v-.813h1.157c.679 0 1.241.08 1.685.241.444.161.794.376 1.047.645.259.268.44.564.542.886.108.317.162.635.162.952 0 .498-.086.94-.257 1.326a2.7 2.7 0 01-.71.981 3.018 3.018 0 01-1.07.608c-.41.137-.857.205-1.34.205-.464 0-.901-.066-1.311-.197a3.41 3.41 0 01-1.077-.572 2.684 2.684 0 01-.732-.93 2.92 2.92 0 01-.264-1.267h1.355c0 .371.081.696.242.974.166.278.4.496.703.652.308.151.669.227 1.084.227.415 0 .772-.071 1.069-.212.303-.147.535-.367.696-.66.166-.292.249-.661.249-1.105 0-.445-.093-.809-.278-1.092a1.636 1.636 0 00-.791-.637c-.337-.142-.735-.212-1.194-.212h-.967zm7.048 4.167c0-.229.071-.422.213-.579.146-.161.356-.241.629-.241.274 0 .481.08.623.241a.82.82 0 01.22.579.805.805 0 01-.22.571c-.142.157-.349.235-.623.235-.273 0-.483-.078-.629-.235a.817.817 0 01-.213-.571zm.007-6.467c0-.23.071-.423.213-.579.146-.161.356-.242.63-.242.273 0 .481.081.622.242.147.156.22.349.22.579a.802.802 0 01-.22.571c-.141.156-.349.234-.622.234-.274 0-.484-.078-.63-.234a.819.819 0 01-.213-.571zm6.016 1.186h.966c.474 0 .865-.078 1.172-.234.313-.161.545-.378.696-.652.156-.278.234-.591.234-.937 0-.411-.068-.755-.205-1.033a1.37 1.37 0 00-.615-.63c-.273-.142-.62-.212-1.04-.212-.381 0-.718.075-1.011.227a1.656 1.656 0 00-.681.63 1.867 1.867 0 00-.242.966h-1.354c0-.542.136-1.035.41-1.479a2.932 2.932 0 011.15-1.062c.498-.264 1.074-.396 1.728-.396.645 0 1.209.115 1.692.345a2.52 2.52 0 011.128 1.01c.268.445.403.999.403 1.663 0 .268-.064.557-.191.864a2.565 2.565 0 01-.578.85 3.003 3.003 0 01-1.011.652c-.415.166-.913.249-1.494.249h-1.157v-.821zm0 1.114v-.813h1.157c.679 0 1.24.08 1.684.241.445.161.794.376 1.048.645.259.268.439.564.542.886.107.317.161.635.161.952 0 .498-.086.94-.256 1.326a2.69 2.69 0 01-.711.981 3.023 3.023 0 01-1.069.608c-.41.137-.857.205-1.341.205-.463 0-.9-.066-1.311-.197a3.395 3.395 0 01-1.076-.572 2.675 2.675 0 01-.733-.93 2.935 2.935 0 01-.263-1.267h1.355c0 .371.08.696.241.974.166.278.401.496.703.652.308.151.669.227 1.084.227.415 0 .772-.071 1.07-.212.302-.147.534-.367.696-.66.166-.292.249-.661.249-1.105 0-.445-.093-.809-.279-1.092a1.631 1.631 0 00-.791-.637c-.337-.142-.735-.212-1.194-.212h-.966zm13.654-1.297v1.626c0 .874-.078 1.612-.234 2.212-.157.601-.381 1.084-.674 1.45a2.56 2.56 0 01-1.062.799c-.41.161-.874.241-1.392.241-.41 0-.789-.051-1.135-.153a2.72 2.72 0 01-.938-.491 2.989 2.989 0 01-.703-.894c-.195-.366-.344-.81-.447-1.333a9.653 9.653 0 01-.153-1.831v-1.626c0-.874.078-1.606.234-2.197.161-.591.388-1.065.681-1.421.293-.361.645-.62 1.055-.776a3.907 3.907 0 011.391-.235c.415 0 .796.052 1.143.154.352.098.664.256.937.476.274.215.506.503.696.864.196.357.345.794.447 1.311.103.518.154 1.126.154 1.824zm-1.362 1.846v-2.073c0-.478-.03-.898-.088-1.26a3.994 3.994 0 00-.242-.937 1.845 1.845 0 00-.41-.63 1.458 1.458 0 00-.564-.352 2.031 2.031 0 00-.711-.117c-.322 0-.607.061-.857.183a1.544 1.544 0 00-.629.564c-.166.259-.293.598-.381 1.018-.088.42-.132.931-.132 1.531v2.073c0 .478.027.901.08 1.267.059.366.145.684.257.952.112.264.249.481.41.652.161.171.347.298.557.381.214.078.451.117.71.117.332 0 .623-.063.872-.19a1.57 1.57 0 00.622-.594c.171-.273.298-.622.381-1.047.083-.43.125-.942.125-1.538zm163.71 3.223v1.113h-6.98v-.974l3.493-3.889c.43-.479.762-.884.996-1.216.24-.337.406-.637.498-.901.098-.269.147-.542.147-.82a2.04 2.04 0 00-.22-.953 1.638 1.638 0 00-.63-.688c-.278-.171-.615-.256-1.011-.256-.473 0-.869.092-1.186.278a1.706 1.706 0 00-.703.762 2.59 2.59 0 00-.235 1.128h-1.355c0-.601.132-1.15.396-1.648a2.916 2.916 0 011.172-1.187c.517-.298 1.155-.447 1.911-.447.674 0 1.25.12 1.729.359.479.235.845.567 1.099.996.258.425.388.923.388 1.494 0 .313-.054.63-.161.953a4.917 4.917 0 01-.432.952c-.181.317-.394.63-.638.937a13.96 13.96 0 01-.769.908l-2.856 3.099h5.347zm3.927-4.886h.967c.474 0 .864-.078 1.172-.234.312-.161.544-.378.696-.652.156-.278.234-.591.234-.937 0-.411-.068-.755-.205-1.033a1.38 1.38 0 00-.615-.63c-.274-.142-.62-.212-1.04-.212-.381 0-.718.075-1.011.227a1.656 1.656 0 00-.681.63 1.867 1.867 0 00-.242.966h-1.355c0-.542.137-1.035.41-1.479a2.945 2.945 0 011.15-1.062c.498-.264 1.074-.396 1.729-.396.644 0 1.208.115 1.692.345a2.52 2.52 0 011.128 1.01c.268.445.402.999.402 1.663 0 .268-.063.557-.19.864a2.554 2.554 0 01-.579.85 2.988 2.988 0 01-1.01.652c-.415.166-.913.249-1.495.249h-1.157v-.821zm0 1.114v-.813h1.157c.679 0 1.241.08 1.685.241.444.161.794.376 1.047.645.259.268.44.564.542.886.108.317.162.635.162.952 0 .498-.086.94-.257 1.326a2.7 2.7 0 01-.71.981 3.018 3.018 0 01-1.07.608c-.41.137-.857.205-1.34.205-.464 0-.901-.066-1.311-.197a3.41 3.41 0 01-1.077-.572 2.684 2.684 0 01-.732-.93 2.92 2.92 0 01-.264-1.267h1.355c0 .371.081.696.242.974.166.278.4.496.703.652.308.151.669.227 1.084.227.415 0 .772-.071 1.069-.212.303-.147.535-.367.696-.66.166-.292.249-.661.249-1.105 0-.445-.093-.809-.278-1.092a1.636 1.636 0 00-.791-.637c-.337-.142-.735-.212-1.194-.212h-.967zm7.048 4.167c0-.229.071-.422.213-.579.146-.161.356-.241.629-.241.274 0 .481.08.623.241a.82.82 0 01.22.579.805.805 0 01-.22.571c-.142.157-.349.235-.623.235-.273 0-.483-.078-.629-.235a.817.817 0 01-.213-.571zm.007-6.467c0-.23.071-.423.213-.579.146-.161.356-.242.63-.242.273 0 .481.081.622.242.147.156.22.349.22.579a.802.802 0 01-.22.571c-.141.156-.349.234-.622.234-.274 0-.484-.078-.63-.234a.819.819 0 01-.213-.571zm11.245 3.596v1.113h-7.705v-.798l4.775-7.39h1.106l-1.186 2.138-3.157 4.937h6.167zm-1.487-7.075v10.664h-1.355V458.29h1.355zm4.931 5.588l-1.084-.278.535-5.31h5.471v1.252h-4.321l-.322 2.901c.195-.113.442-.218.739-.315a3.38 3.38 0 011.041-.147c.493 0 .935.086 1.325.257.391.166.723.405.996.717.279.313.491.689.637 1.128.147.44.22.93.22 1.472 0 .513-.071.984-.212 1.414-.137.43-.344.806-.623 1.128a2.81 2.81 0 01-1.054.74c-.42.175-.916.263-1.487.263-.43 0-.838-.058-1.223-.175a3.175 3.175 0 01-1.026-.55 2.958 2.958 0 01-.732-.923 3.694 3.694 0 01-.352-1.303h1.289c.059.4.176.737.352 1.01.176.274.405.481.688.623.288.137.623.205 1.004.205.322 0 .608-.056.857-.168.249-.113.459-.274.63-.484.17-.21.3-.464.388-.762.093-.297.139-.632.139-1.003 0-.337-.046-.649-.139-.937a2.14 2.14 0 00-.418-.755 1.822 1.822 0 00-.666-.498 2.143 2.143 0 00-.908-.183c-.455 0-.799.061-1.033.183-.23.122-.466.288-.711.498zm169.036-1.106v1.626c0 .874-.079 1.612-.235 2.212-.156.601-.381 1.084-.674 1.45a2.56 2.56 0 01-1.062.799c-.41.161-.874.241-1.391.241-.41 0-.789-.051-1.136-.153a2.715 2.715 0 01-.937-.491 2.989 2.989 0 01-.703-.894c-.195-.366-.344-.81-.447-1.333a9.646 9.646 0 01-.154-1.831v-1.626c0-.874.078-1.606.235-2.197.161-.591.388-1.065.681-1.421.293-.361.644-.62 1.054-.776a3.913 3.913 0 011.392-.235c.415 0 .796.052 1.143.154.351.098.664.256.937.476.274.215.506.503.696.864.195.357.344.794.447 1.311a9.54 9.54 0 01.154 1.824zm-1.363 1.846v-2.073c0-.478-.029-.898-.088-1.26a3.948 3.948 0 00-.241-.937 1.86 1.86 0 00-.41-.63 1.473 1.473 0 00-.564-.352 2.031 2.031 0 00-.711-.117c-.322 0-.608.061-.857.183a1.552 1.552 0 00-.63.564c-.166.259-.293.598-.381 1.018-.087.42-.131.931-.131 1.531v2.073c0 .478.026.901.08 1.267.059.366.144.684.257.952.112.264.249.481.41.652.161.171.346.298.556.381.215.078.452.117.711.117.332 0 .622-.063.871-.19s.457-.325.623-.594c.171-.273.298-.622.381-1.047a8.23 8.23 0 00.124-1.538zm10.3-1.846v1.626c0 .874-.078 1.612-.234 2.212-.157.601-.381 1.084-.674 1.45a2.56 2.56 0 01-1.062.799c-.41.161-.874.241-1.392.241a4.01 4.01 0 01-1.135-.153 2.72 2.72 0 01-.938-.491 3.004 3.004 0 01-.703-.894c-.195-.366-.344-.81-.446-1.333a9.565 9.565 0 01-.154-1.831v-1.626c0-.874.078-1.606.234-2.197.161-.591.388-1.065.681-1.421.293-.361.645-.62 1.055-.776a3.909 3.909 0 011.392-.235c.415 0 .796.052 1.142.154.352.098.664.256.938.476.273.215.505.503.695.864.196.357.345.794.447 1.311.103.518.154 1.126.154 1.824zm-1.362 1.846v-2.073c0-.478-.03-.898-.088-1.26a3.945 3.945 0 00-.242-.937 1.845 1.845 0 00-.41-.63 1.458 1.458 0 00-.564-.352 2.03 2.03 0 00-.71-.117c-.323 0-.608.061-.857.183a1.552 1.552 0 00-.63.564c-.166.259-.293.598-.381 1.018-.088.42-.132.931-.132 1.531v2.073c0 .478.027.901.081 1.267.058.366.144.684.256.952.112.264.249.481.41.652.161.171.347.298.557.381.215.078.451.117.71.117.332 0 .623-.063.872-.19a1.57 1.57 0 00.622-.594c.171-.273.298-.622.381-1.047.083-.43.125-.942.125-1.538zm3.693 3.618c0-.229.071-.422.213-.579.146-.161.356-.241.629-.241.274 0 .481.08.623.241a.82.82 0 01.22.579.805.805 0 01-.22.571c-.142.157-.349.235-.623.235-.273 0-.483-.078-.629-.235a.817.817 0 01-.213-.571zm.007-6.467c0-.23.071-.423.213-.579.146-.161.356-.242.63-.242.273 0 .481.081.622.242.147.156.22.349.22.579a.802.802 0 01-.22.571c-.141.156-.349.234-.622.234-.274 0-.484-.078-.63-.234a.819.819 0 01-.213-.571zm10.732 1.003v1.626c0 .874-.078 1.612-.234 2.212-.156.601-.381 1.084-.674 1.45a2.56 2.56 0 01-1.062.799c-.41.161-.874.241-1.391.241-.411 0-.789-.051-1.136-.153a2.715 2.715 0 01-.937-.491 2.973 2.973 0 01-.703-.894c-.196-.366-.345-.81-.447-1.333a9.565 9.565 0 01-.154-1.831v-1.626c0-.874.078-1.606.234-2.197.162-.591.389-1.065.682-1.421.293-.361.644-.62 1.054-.776a3.909 3.909 0 011.392-.235c.415 0 .796.052 1.142.154.352.098.665.256.938.476.273.215.505.503.696.864.195.357.344.794.447 1.311.102.518.153 1.126.153 1.824zm-1.362 1.846v-2.073c0-.478-.029-.898-.088-1.26a3.945 3.945 0 00-.242-.937 1.845 1.845 0 00-.41-.63 1.458 1.458 0 00-.564-.352 2.025 2.025 0 00-.71-.117c-.322 0-.608.061-.857.183a1.552 1.552 0 00-.63.564c-.166.259-.293.598-.381 1.018-.088.42-.132.931-.132 1.531v2.073c0 .478.027.901.081 1.267.059.366.144.684.256.952.113.264.249.481.41.652.162.171.347.298.557.381.215.078.452.117.711.117.332 0 .622-.063.871-.19s.457-.325.623-.594c.171-.273.298-.622.381-1.047a8.23 8.23 0 00.124-1.538zm10.3-1.846v1.626c0 .874-.078 1.612-.234 2.212-.157.601-.381 1.084-.674 1.45a2.56 2.56 0 01-1.062.799c-.41.161-.874.241-1.392.241-.41 0-.789-.051-1.135-.153a2.72 2.72 0 01-.938-.491 2.989 2.989 0 01-.703-.894c-.195-.366-.344-.81-.447-1.333a9.653 9.653 0 01-.153-1.831v-1.626c0-.874.078-1.606.234-2.197.161-.591.388-1.065.681-1.421.293-.361.645-.62 1.055-.776a3.907 3.907 0 011.391-.235c.415 0 .796.052 1.143.154.352.098.664.256.937.476.274.215.506.503.696.864.196.357.345.794.447 1.311.103.518.154 1.126.154 1.824zm-1.362 1.846v-2.073c0-.478-.03-.898-.088-1.26a3.994 3.994 0 00-.242-.937 1.845 1.845 0 00-.41-.63 1.458 1.458 0 00-.564-.352 2.031 2.031 0 00-.711-.117c-.322 0-.607.061-.857.183a1.544 1.544 0 00-.629.564c-.166.259-.293.598-.381 1.018-.088.42-.132.931-.132 1.531v2.073c0 .478.027.901.08 1.267.059.366.145.684.257.952.112.264.249.481.41.652.161.171.347.298.557.381.214.078.451.117.71.117.332 0 .623-.063.872-.19a1.57 1.57 0 00.622-.594c.171-.273.298-.622.381-1.047.083-.43.125-.942.125-1.538zm164.417-1.846v1.626c0 .874-.079 1.612-.235 2.212-.156.601-.381 1.084-.674 1.45a2.56 2.56 0 01-1.062.799c-.41.161-.874.241-1.391.241-.41 0-.789-.051-1.136-.153a2.715 2.715 0 01-.937-.491 2.989 2.989 0 01-.703-.894c-.195-.366-.344-.81-.447-1.333a9.646 9.646 0 01-.154-1.831v-1.626c0-.874.078-1.606.235-2.197.161-.591.388-1.065.681-1.421.293-.361.644-.62 1.054-.776a3.913 3.913 0 011.392-.235c.415 0 .796.052 1.143.154.351.098.664.256.937.476.274.215.506.503.696.864.195.357.344.794.447 1.311a9.54 9.54 0 01.154 1.824zm-1.363 1.846v-2.073c0-.478-.029-.898-.088-1.26a3.948 3.948 0 00-.241-.937 1.86 1.86 0 00-.41-.63 1.473 1.473 0 00-.564-.352 2.031 2.031 0 00-.711-.117c-.322 0-.608.061-.857.183a1.552 1.552 0 00-.63.564c-.166.259-.293.598-.381 1.018-.087.42-.131.931-.131 1.531v2.073c0 .478.026.901.08 1.267.059.366.144.684.257.952.112.264.249.481.41.652.161.171.346.298.556.381.215.078.452.117.711.117.332 0 .622-.063.871-.19s.457-.325.623-.594c.171-.273.298-.622.381-1.047a8.23 8.23 0 00.124-1.538zm10.3-1.846v1.626c0 .874-.078 1.612-.234 2.212-.157.601-.381 1.084-.674 1.45a2.56 2.56 0 01-1.062.799c-.41.161-.874.241-1.392.241a4.01 4.01 0 01-1.135-.153 2.72 2.72 0 01-.938-.491 3.004 3.004 0 01-.703-.894c-.195-.366-.344-.81-.446-1.333a9.565 9.565 0 01-.154-1.831v-1.626c0-.874.078-1.606.234-2.197.161-.591.388-1.065.681-1.421.293-.361.645-.62 1.055-.776a3.909 3.909 0 011.392-.235c.415 0 .796.052 1.142.154.352.098.664.256.938.476.273.215.505.503.695.864.196.357.345.794.447 1.311.103.518.154 1.126.154 1.824zm-1.362 1.846v-2.073c0-.478-.03-.898-.088-1.26a3.945 3.945 0 00-.242-.937 1.845 1.845 0 00-.41-.63 1.458 1.458 0 00-.564-.352 2.03 2.03 0 00-.71-.117c-.323 0-.608.061-.857.183a1.552 1.552 0 00-.63.564c-.166.259-.293.598-.381 1.018-.088.42-.132.931-.132 1.531v2.073c0 .478.027.901.081 1.267.058.366.144.684.256.952.112.264.249.481.41.652.161.171.347.298.557.381.215.078.451.117.71.117.332 0 .623-.063.872-.19a1.57 1.57 0 00.622-.594c.171-.273.298-.622.381-1.047.083-.43.125-.942.125-1.538zm3.693 3.618c0-.229.071-.422.213-.579.146-.161.356-.241.629-.241.274 0 .481.08.623.241a.82.82 0 01.22.579.805.805 0 01-.22.571c-.142.157-.349.235-.623.235-.273 0-.483-.078-.629-.235a.817.817 0 01-.213-.571zm.007-6.467c0-.23.071-.423.213-.579.146-.161.356-.242.63-.242.273 0 .481.081.622.242.147.156.22.349.22.579a.802.802 0 01-.22.571c-.141.156-.349.234-.622.234-.274 0-.484-.078-.63-.234a.819.819 0 01-.213-.571zm8.491-3.538v10.723h-1.355v-9.031l-2.732.996v-1.223l3.875-1.465h.212zm6.198 5.647l-1.084-.278.535-5.31h5.471v1.252h-4.321l-.322 2.901c.195-.113.442-.218.739-.315a3.38 3.38 0 011.041-.147c.493 0 .935.086 1.325.257.391.166.723.405.996.717.279.313.491.689.637 1.128.147.44.22.93.22 1.472 0 .513-.071.984-.212 1.414-.137.43-.344.806-.623 1.128a2.81 2.81 0 01-1.054.74c-.42.175-.916.263-1.487.263-.43 0-.838-.058-1.223-.175a3.175 3.175 0 01-1.026-.55 2.958 2.958 0 01-.732-.923 3.694 3.694 0 01-.352-1.303h1.289c.059.4.176.737.352 1.01.176.274.405.481.688.623.288.137.623.205 1.004.205.322 0 .608-.056.857-.168.249-.113.459-.274.63-.484.17-.21.3-.464.388-.762.093-.297.139-.632.139-1.003 0-.337-.046-.649-.139-.937a2.14 2.14 0 00-.418-.755 1.822 1.822 0 00-.666-.498 2.143 2.143 0 00-.908-.183c-.455 0-.799.061-1.033.183-.23.122-.466.288-.711.498z" fill="#fff"/><rect x="279" y="122" width="2" height="311" fill="#373841"/><rect x="473" y="122" width="2" height="311" fill="#373841"/><rect x="885" y="171" width="2" height="629" transform="rotate(90 885 171)" fill="#373841"/><rect x="885" y="431" width="2" height="629" transform="rotate(90 885 431)" fill="#373841"/><rect x="885" y="301" width="2" height="629" transform="rotate(90 885 301)" fill="#373841"/><rect x="667" y="122" width="2" height="311" fill="#373841"/><rect x="861" y="122" width="2" height="311" fill="#373841"/><path d="M881 483a8.963 8.963 0 01-3.445-.683l-.383.924a10.032 10.032 0 01-5.413-5.413l.924-.383A8.963 8.963 0 01872 474v-3.386h-1v-6.773h1v-6.773h-1v-6.773h1v-6.772h-1v-6.773h1v-6.773h-1v-6.772h1v-6.773h-1v-6.773h1v-6.773h-1v-6.772h1v-6.773h-1v-6.773h1v-6.773h-1v-6.772h1v-6.773h-1v-6.773h1v-6.772h-1v-6.773h1v-6.773h-1v-6.773h1V325c0-1.222.243-2.385.683-3.445l-.924-.383a10.032 10.032 0 015.413-5.413l.383.924A8.963 8.963 0 01881 316h3.422v-1h6.845v1h6.844v-1h6.845v1h6.844v-1h6.845v1h6.844v-1h6.845v1h6.844v-1h6.845v1h6.844v-1h6.845v1h6.844v-1h6.845v1h6.844v-1h6.845v1h6.844v-1h6.846v1h6.84v-1h6.85v1h6.84v-1h6.85v1h6.84v-1h6.85v1h6.84v-1h6.84v1h6.85v-1h6.84v1h6.85v-1h6.84v1h6.85v-1h6.84v1h3.42c1.23 0 2.39.243 3.45.683l.38-.924a10.047 10.047 0 015.42 5.413l-.93.383c.44 1.06.68 2.223.68 3.445v3.386h1v6.773h-1v6.773h1v6.773h-1v6.772h1v6.773h-1v6.773h1v6.772h-1v6.773h1v6.773h-1v6.773h1v6.772h-1v6.773h1v6.773h-1v6.773h1v6.772h-1v6.773h1v6.773h-1v6.772h1v6.773h-1v6.773h1v6.773h-1V474c0 1.222-.24 2.385-.68 3.445l.93.383a10.047 10.047 0 01-5.42 5.413l-.38-.924c-1.06.44-2.22.683-3.45.683h-3.42v1h-6.84v-1h-6.85v1h-6.84v-1h-6.85v1h-6.84v-1h-6.85v1h-6.84v-1h-6.84v1H1035v-1h-6.84v1h-6.85v-1h-6.84v1h-6.85v-1h-6.84v1h-6.846v-1h-6.844v1h-6.845v-1h-6.844v1h-6.845v-1h-6.844v1h-6.845v-1h-6.844v1h-6.845v-1h-6.844v1h-6.845v-1h-6.844v1H911.8v-1h-6.844v1h-6.845v-1h-6.844v1h-6.845v-1H881z" stroke="#D14671" stroke-width="2" stroke-linejoin="round" stroke-dasharray="7 7"/><rect x="879.079" y="323.08" width="222.865" height="152.841" rx="9" fill="#323441"/><path d="M893.999 353.802h3.541v-1h-3.541v1zm10.622 0h7.081v-1h-7.081v1zm14.162 0h7.081v-1h-7.081v1zm14.163 0h7.081v-1h-7.081v1zm14.162 0h7.081v-1h-7.081v1zm14.162 0h7.081v-1h-7.081v1zm14.163 0h7.081v-1h-7.081v1zm14.162 0h7.081v-1h-7.081v1zm14.165 0h7.08v-1h-7.08v1zm14.16 0h7.08v-1h-7.08v1zm14.16 0h7.08v-1h-7.08v1zm14.16 0h3.55v-1h-3.55v1z" fill="#fff" fill-opacity=".4"/><line x1="893.999" y1="378.593" x2="1049.79" y2="378.593" stroke="#fff" stroke-opacity=".4" stroke-dasharray="7 7"/><line x1="893.999" y1="404.125" x2="1049.79" y2="404.125" stroke="#fff" stroke-opacity=".4" stroke-dasharray="7 7"/><line x1="893.999" y1="429.657" x2="1049.79" y2="429.657" stroke="#fff" stroke-opacity=".4" stroke-dasharray="7 7"/><line x1="893.999" y1="455.189" x2="1049.79" y2="455.189" stroke="#fff" stroke-opacity=".4" stroke-dasharray="7 7"/><rect x="968.064" y="362.865" width="6.733" height="37.032" rx="2" fill="#D14671"/><rect x="970.758" y="346.705" width="1.347" height="71.371" rx=".673" fill="#D14671"/><rect x="1008.46" y="379.697" width="6.733" height="31.645" rx="2" fill="#D14671"/><rect x="1011.16" y="366.231" width="1.347" height="60.598" rx=".673" fill="#D14671"/><rect x="1021.93" y="392.49" width="6.733" height="24.239" rx="2" fill="#D14671"/><rect x="1024.62" y="381.717" width="1.347" height="47.132" rx=".673" fill="#D14671"/><rect x="954.597" y="385.757" width="6.733" height="37.032" rx="2" fill="#D14671"/><rect x="957.29" y="369.598" width="1.347" height="71.371" rx=".673" fill="#D14671"/><rect x="941.131" y="396.53" width="6.733" height="37.032" rx="2" fill="#ECBDCC"/><rect x="943.824" y="380.371" width="1.347" height="71.371" rx=".673" fill="#ECBDCC"/><rect x="900.732" y="393.392" width="6.733" height="28.298" rx="2" fill="#ECBDCC"/><rect x="903.426" y="381.044" width="1.347" height="54.538" rx=".673" fill="#ECBDCC"/><rect x="927.664" y="389.123" width="6.733" height="29.625" rx="2" fill="#D14671"/><rect x="930.357" y="376.331" width="1.347" height="56.558" rx=".673" fill="#D14671"/><rect x="914.198" y="387.777" width="6.733" height="15.486" rx="2" fill="#D14671"/><rect x="916.892" y="381.044" width="1.347" height="29.625" rx=".673" fill="#D14671"/><rect x="994.995" y="397.203" width="6.733" height="24.912" rx="2" fill="#B1B5D3"/><rect x="997.688" y="389.123" width="1.347" height="41.072" rx=".673" fill="#B1B5D3"/><rect x="1035.39" y="380.37" width="6.733" height="24.912" rx="2" fill="#B1B5D3"/><rect x="1038.09" y="372.291" width="1.347" height="41.072" rx=".673" fill="#B1B5D3"/><rect x="981.529" y="386.43" width="6.733" height="24.912" rx="2" fill="#B1B5D3"/><rect x="984.223" y="378.351" width="1.347" height="41.072" rx=".673" fill="#B1B5D3"/><path d="M1060.4 405.807v-.58l2.56-4.045h.42v.898h-.28l-1.93 3.056v.046h3.44v.625h-4.21zm2.74 1.193v-5.818h.67V407h-.67zm4.35.08c-.33 0-.63-.067-.9-.199a1.643 1.643 0 01-.64-.546 1.542 1.542 0 01-.27-.789h.69c.02.263.14.481.35.653.22.17.47.256.77.256a1.194 1.194 0 001.08-.628c.11-.197.16-.42.16-.668 0-.254-.06-.48-.17-.679a1.237 1.237 0 00-.45-.474 1.287 1.287 0 00-.66-.176c-.18-.002-.36.025-.55.082a1.65 1.65 0 00-.47.213l-.65-.079.35-2.864h3.02v.625h-2.43l-.21 1.716h.04c.12-.095.27-.174.45-.236.18-.063.36-.094.56-.094a1.796 1.796 0 011.61.949c.16.294.24.629.24 1.006 0 .371-.08.702-.25.994-.16.29-.39.519-.68.688-.29.166-.62.25-.99.25zm3.33-.034a.492.492 0 01-.36-.151.493.493 0 01-.15-.361c0-.14.05-.26.15-.361.1-.1.22-.15.36-.15.14 0 .26.05.36.15.1.101.15.221.15.361a.46.46 0 01-.07.256.495.495 0 01-.44.256zm3.4.034c-.43 0-.79-.117-1.09-.35-.31-.235-.54-.575-.69-1.02-.16-.447-.24-.986-.24-1.619 0-.629.08-1.166.24-1.611.16-.447.39-.788.69-1.023.3-.236.67-.355 1.09-.355.42 0 .79.119 1.09.355.3.235.53.576.69 1.023.16.445.24.982.24 1.611 0 .633-.08 1.172-.24 1.619-.16.445-.39.785-.69 1.02-.3.233-.66.35-1.09.35zm0-.625c.42 0 .75-.205.99-.614.23-.409.35-.992.35-1.75 0-.504-.05-.933-.16-1.287-.11-.354-.26-.624-.46-.81-.2-.185-.44-.278-.72-.278-.42 0-.75.207-.99.622-.23.413-.35.997-.35 1.753 0 .504.05.932.16 1.284.1.352.26.62.46.804.2.184.44.276.72.276zm5 .625c-.43 0-.79-.117-1.09-.35-.31-.235-.54-.575-.69-1.02-.16-.447-.24-.986-.24-1.619 0-.629.08-1.166.24-1.611.16-.447.39-.788.69-1.023.3-.236.67-.355 1.09-.355.42 0 .79.119 1.09.355.3.235.53.576.69 1.023.16.445.24.982.24 1.611 0 .633-.08 1.172-.24 1.619-.16.445-.39.785-.69 1.02-.3.233-.66.35-1.09.35zm0-.625c.42 0 .75-.205.99-.614.23-.409.35-.992.35-1.75 0-.504-.05-.933-.16-1.287-.11-.354-.26-.624-.46-.81-.2-.185-.44-.278-.72-.278-.42 0-.75.207-.99.622-.23.413-.35.997-.35 1.753 0 .504.05.932.16 1.284.1.352.26.62.46.804.2.184.44.276.72.276zm5 .625c-.43 0-.79-.117-1.09-.35-.31-.235-.54-.575-.69-1.02-.16-.447-.24-.986-.24-1.619 0-.629.08-1.166.24-1.611.16-.447.39-.788.69-1.023.3-.236.67-.355 1.09-.355.42 0 .79.119 1.09.355.3.235.53.576.69 1.023.16.445.24.982.24 1.611 0 .633-.08 1.172-.24 1.619-.16.445-.39.785-.69 1.02-.3.233-.66.35-1.09.35zm0-.625c.42 0 .75-.205.99-.614.23-.409.35-.992.35-1.75 0-.504-.05-.933-.16-1.287-.11-.354-.26-.624-.46-.81-.2-.185-.44-.278-.72-.278-.42 0-.75.207-.99.622-.23.413-.35.997-.35 1.753 0 .504.05.932.16 1.284.1.352.26.62.46.804.2.184.44.276.72.276zm-23.82-26.648v-.58l2.56-4.045h.42v.898h-.28l-1.93 3.056v.046h3.44v.625h-4.21zm2.74 1.193v-5.818h.67V381h-.67zm2.72 0l2.6-5.148v-.045h-3v-.625h3.72v.659l-2.59 5.159h-.73zm3.88.046a.492.492 0 01-.36-.151.493.493 0 01-.15-.361c0-.14.05-.26.15-.361.1-.1.22-.15.36-.15.14 0 .26.05.36.15a.468.468 0 01.08.617.495.495 0 01-.44.256zm3.4.034c-.43 0-.79-.117-1.09-.35-.3-.235-.53-.575-.69-1.02-.16-.447-.24-.986-.24-1.619 0-.629.08-1.166.24-1.611.16-.447.39-.788.69-1.023.3-.236.67-.355 1.09-.355.43 0 .79.119 1.09.355.3.235.53.576.69 1.023.16.445.24.982.24 1.611 0 .633-.08 1.172-.23 1.619-.16.445-.39.785-.69 1.02-.31.233-.67.35-1.1.35zm0-.625c.43 0 .76-.205.99-.614.24-.409.35-.992.35-1.75 0-.504-.05-.933-.16-1.287-.11-.354-.26-.624-.46-.81-.2-.185-.44-.278-.72-.278-.42 0-.75.207-.98.622-.24.413-.36.997-.36 1.753 0 .504.05.932.16 1.284s.26.62.46.804c.2.184.44.276.72.276zm5 .625c-.43 0-.79-.117-1.09-.35-.3-.235-.53-.575-.69-1.02-.16-.447-.24-.986-.24-1.619 0-.629.08-1.166.24-1.611.16-.447.39-.788.69-1.023.3-.236.67-.355 1.09-.355.43 0 .79.119 1.09.355.3.235.53.576.69 1.023.16.445.24.982.24 1.611 0 .633-.08 1.172-.23 1.619-.16.445-.39.785-.69 1.02-.31.233-.67.35-1.1.35zm0-.625c.43 0 .76-.205.99-.614.24-.409.35-.992.35-1.75 0-.504-.05-.933-.16-1.287-.11-.354-.26-.624-.46-.81-.2-.185-.44-.278-.72-.278-.42 0-.75.207-.98.622-.24.413-.36.997-.36 1.753 0 .504.05.932.16 1.284s.26.62.46.804c.2.184.44.276.72.276zm5 .625c-.43 0-.79-.117-1.09-.35-.3-.235-.53-.575-.69-1.02-.16-.447-.24-.986-.24-1.619 0-.629.08-1.166.24-1.611.16-.447.39-.788.69-1.023.3-.236.67-.355 1.09-.355.43 0 .79.119 1.09.355.3.235.53.576.69 1.023.16.445.24.982.24 1.611 0 .633-.08 1.172-.23 1.619-.16.445-.39.785-.69 1.02-.31.233-.67.35-1.1.35zm0-.625c.43 0 .76-.205.99-.614.24-.409.35-.992.35-1.75 0-.504-.05-.933-.16-1.287-.11-.354-.26-.624-.46-.81-.2-.185-.44-.278-.72-.278-.42 0-.75.207-.98.622-.24.413-.36.997-.36 1.753 0 .504.05.932.16 1.284s.26.62.46.804c.2.184.44.276.72.276zm-22.74-26.648v-.58l2.56-4.045h.42v.898h-.28l-1.93 3.056v.046h3.44v.625h-4.21zm2.74 1.193v-5.818h.67V355h-.67zm4.39-5.898c.23.002.47.048.71.137.24.089.46.236.66.443.19.204.35.484.47.838s.18.798.18 1.332c0 .517-.05.977-.15 1.378-.1.4-.24.737-.42 1.012-.18.274-.4.482-.66.625-.26.142-.56.213-.89.213-.32 0-.61-.065-.87-.194-.25-.13-.46-.311-.62-.542a1.835 1.835 0 01-.31-.81h.69c.06.267.19.488.37.662.19.172.44.259.74.259.45 0 .81-.196 1.07-.588.26-.393.39-.946.39-1.662h-.05c-.1.159-.23.296-.37.412a1.74 1.74 0 01-.49.267c-.18.062-.37.093-.57.093-.33 0-.64-.082-.92-.247a1.943 1.943 0 01-.66-.684 2.05 2.05 0 01-.25-1c0-.357.08-.682.24-.978.16-.297.39-.534.68-.71.29-.176.63-.261 1.03-.256zm0 .625c-.24 0-.46.06-.65.179a1.344 1.344 0 00-.62 1.14c0 .242.06.463.16.661.11.197.26.355.44.472.19.116.4.173.64.173.18 0 .35-.035.51-.105.15-.072.29-.169.4-.292.12-.125.21-.266.28-.424.06-.159.1-.324.1-.497 0-.227-.06-.44-.17-.639-.11-.199-.26-.36-.45-.483s-.4-.185-.64-.185zm3.43 5.319a.492.492 0 01-.36-.151.493.493 0 01-.15-.361c0-.14.05-.26.15-.361.1-.1.22-.15.36-.15.14 0 .26.05.36.15.1.101.15.221.15.361a.46.46 0 01-.07.256.495.495 0 01-.44.256zm3.4.034c-.43 0-.79-.117-1.09-.35-.3-.235-.53-.575-.69-1.02-.16-.447-.24-.986-.24-1.619 0-.629.08-1.166.24-1.611.16-.447.39-.788.69-1.023.3-.236.67-.355 1.09-.355.42 0 .79.119 1.09.355.3.235.53.576.69 1.023.16.445.24.982.24 1.611 0 .633-.08 1.172-.24 1.619-.15.445-.38.785-.69 1.02-.3.233-.66.35-1.09.35zm0-.625c.42 0 .75-.205.99-.614.23-.409.35-.992.35-1.75 0-.504-.05-.933-.16-1.287-.11-.354-.26-.624-.46-.81-.2-.185-.44-.278-.72-.278-.42 0-.75.207-.99.622-.23.413-.35.997-.35 1.753 0 .504.05.932.16 1.284.1.352.26.62.46.804.2.184.44.276.72.276zm5 .625c-.43 0-.79-.117-1.09-.35-.3-.235-.53-.575-.69-1.02-.16-.447-.24-.986-.24-1.619 0-.629.08-1.166.24-1.611.16-.447.39-.788.69-1.023.3-.236.67-.355 1.09-.355.42 0 .79.119 1.09.355.3.235.53.576.69 1.023.16.445.24.982.24 1.611 0 .633-.08 1.172-.24 1.619-.15.445-.38.785-.69 1.02-.3.233-.66.35-1.09.35zm0-.625c.42 0 .75-.205.99-.614.23-.409.35-.992.35-1.75 0-.504-.05-.933-.16-1.287-.11-.354-.26-.624-.46-.81-.2-.185-.44-.278-.72-.278-.42 0-.75.207-.99.622-.23.413-.35.997-.35 1.753 0 .504.05.932.16 1.284.1.352.26.62.46.804.2.184.44.276.72.276zm5 .625c-.43 0-.79-.117-1.09-.35-.3-.235-.53-.575-.69-1.02-.16-.447-.24-.986-.24-1.619 0-.629.08-1.166.24-1.611.16-.447.39-.788.69-1.023.3-.236.67-.355 1.09-.355.42 0 .79.119 1.09.355.3.235.53.576.69 1.023.16.445.24.982.24 1.611 0 .633-.08 1.172-.24 1.619-.15.445-.38.785-.69 1.02-.3.233-.66.35-1.09.35zm0-.625c.42 0 .75-.205.99-.614.23-.409.35-.992.35-1.75 0-.504-.05-.933-.16-1.287-.11-.354-.26-.624-.46-.81-.2-.185-.44-.278-.72-.278-.42 0-.75.207-.99.622-.23.413-.35.997-.35 1.753 0 .504.05.932.16 1.284.1.352.26.62.46.804.2.184.44.276.72.276zm-23.96 77.352v-.58l2.56-4.045h.42v.898h-.28l-1.93 3.056v.046h3.44v.625h-4.21zm2.74 1.193v-5.818h.67V433h-.67zm4.5.08c-.38 0-.71-.065-1-.194a1.65 1.65 0 01-.7-.537 1.486 1.486 0 01-.28-.803h.72a.83.83 0 00.19.485c.11.135.26.239.45.313.18.074.38.111.61.111.25 0 .47-.044.66-.131.2-.087.35-.208.46-.364a.905.905 0 00.16-.539.985.985 0 00-.16-.566c-.1-.165-.26-.293-.46-.386a1.843 1.843 0 00-.75-.139h-.47v-.625h.47c.23 0 .43-.042.61-.125.17-.084.31-.201.41-.353.1-.151.15-.329.15-.534 0-.197-.05-.368-.13-.514a.91.91 0 00-.37-.341 1.234 1.234 0 00-.56-.122c-.2 0-.39.037-.57.111-.17.072-.32.177-.43.315a.833.833 0 00-.18.494h-.68c.01-.304.1-.572.27-.801.18-.231.4-.411.68-.539.28-.129.59-.194.92-.194.36 0 .67.073.93.219.26.144.45.334.59.571.14.237.21.493.21.767 0 .328-.09.607-.26.838-.17.231-.4.391-.7.48v.046c.37.06.66.217.87.469.2.25.31.559.31.929 0 .316-.09.6-.26.852-.17.25-.41.447-.7.591-.3.144-.63.216-1.01.216zm3.45-.034a.492.492 0 01-.36-.151.493.493 0 01-.15-.361c0-.14.05-.26.15-.361.1-.1.22-.15.36-.15.14 0 .26.05.36.15.1.101.15.221.15.361a.46.46 0 01-.07.256.566.566 0 01-.19.187.46.46 0 01-.25.069zm3.4.034c-.43 0-.8-.117-1.1-.35-.3-.235-.53-.575-.69-1.02-.16-.447-.24-.986-.24-1.619 0-.629.08-1.166.24-1.611.16-.447.39-.788.69-1.023.31-.236.67-.355 1.1-.355.42 0 .78.119 1.08.355.31.235.54.576.7 1.023.16.445.24.982.24 1.611 0 .633-.08 1.172-.24 1.619-.16.445-.39.785-.69 1.02-.3.233-.67.35-1.09.35zm0-.625c.42 0 .75-.205.98-.614.24-.409.36-.992.36-1.75 0-.504-.06-.933-.17-1.287-.1-.354-.26-.624-.46-.81a.983.983 0 00-.71-.278c-.43 0-.75.207-.99.622-.24.413-.36.997-.36 1.753 0 .504.06.932.16 1.284.11.352.26.62.46.804.2.184.44.276.73.276zm5 .625c-.43 0-.8-.117-1.1-.35-.3-.235-.53-.575-.69-1.02-.16-.447-.24-.986-.24-1.619 0-.629.08-1.166.24-1.611.16-.447.39-.788.69-1.023.31-.236.67-.355 1.1-.355.42 0 .78.119 1.08.355.31.235.54.576.7 1.023.16.445.24.982.24 1.611 0 .633-.08 1.172-.24 1.619-.16.445-.39.785-.69 1.02-.3.233-.67.35-1.09.35zm0-.625c.42 0 .75-.205.98-.614.24-.409.36-.992.36-1.75 0-.504-.06-.933-.17-1.287-.1-.354-.26-.624-.46-.81a.983.983 0 00-.71-.278c-.43 0-.75.207-.99.622-.24.413-.36.997-.36 1.753 0 .504.06.932.16 1.284.11.352.26.62.46.804.2.184.44.276.73.276zm5 .625c-.43 0-.8-.117-1.1-.35-.3-.235-.53-.575-.69-1.02-.16-.447-.24-.986-.24-1.619 0-.629.08-1.166.24-1.611.16-.447.39-.788.69-1.023.31-.236.67-.355 1.1-.355.42 0 .78.119 1.08.355.31.235.54.576.7 1.023.16.445.24.982.24 1.611 0 .633-.08 1.172-.24 1.619-.16.445-.39.785-.69 1.02-.3.233-.67.35-1.09.35zm0-.625c.42 0 .75-.205.98-.614.24-.409.36-.992.36-1.75 0-.504-.06-.933-.17-1.287-.1-.354-.26-.624-.46-.81a.983.983 0 00-.71-.278c-.43 0-.75.207-.99.622-.24.413-.36.997-.36 1.753 0 .504.06.932.16 1.284.11.352.26.62.46.804.2.184.44.276.73.276zm-24.09 25.352v-.58l2.56-4.045h.42v.898h-.28l-1.93 3.056v.046h3.44v.625h-4.21zm2.74 1.193v-5.818h.67V459h-.67zm4.5-5.818V459h-.7v-5.08h-.04l-1.42.944v-.716l1.46-.966h.7zm1.83 5.863c-.14 0-.26-.05-.36-.15a.493.493 0 01-.15-.361c0-.14.05-.26.15-.361.1-.1.22-.15.36-.15.14 0 .26.05.36.15.1.101.15.221.15.361a.537.537 0 01-.25.443.495.495 0 01-.26.068zm3.4.035c-.43 0-.79-.117-1.1-.35-.3-.235-.53-.575-.69-1.02-.16-.447-.23-.987-.23-1.619 0-.629.07-1.166.23-1.611.17-.447.4-.788.7-1.023.3-.236.66-.355 1.09-.355.42 0 .79.119 1.09.355.3.235.53.576.69 1.023.16.445.24.982.24 1.611 0 .632-.08 1.172-.24 1.619-.16.445-.39.785-.69 1.02-.3.233-.66.35-1.09.35zm0-.625c.42 0 .75-.205.99-.614.23-.409.35-.993.35-1.75 0-.504-.05-.933-.16-1.287-.11-.354-.26-.624-.46-.81-.2-.185-.44-.278-.72-.278-.42 0-.75.207-.99.622-.23.413-.35.997-.35 1.753 0 .504.05.932.16 1.284.1.352.25.62.45.804.2.184.45.276.73.276zm5 .625c-.43 0-.79-.117-1.1-.35-.3-.235-.53-.575-.69-1.02-.16-.447-.23-.987-.23-1.619 0-.629.07-1.166.23-1.611.17-.447.4-.788.7-1.023.3-.236.66-.355 1.09-.355.42 0 .79.119 1.09.355.3.235.53.576.69 1.023.16.445.24.982.24 1.611 0 .632-.08 1.172-.24 1.619-.16.445-.39.785-.69 1.02-.3.233-.66.35-1.09.35zm0-.625c.42 0 .75-.205.99-.614.23-.409.35-.993.35-1.75 0-.504-.05-.933-.16-1.287-.11-.354-.26-.624-.46-.81-.2-.185-.44-.278-.72-.278-.42 0-.75.207-.99.622-.23.413-.35.997-.35 1.753 0 .504.05.932.16 1.284.1.352.25.62.45.804.2.184.45.276.73.276zm5 .625c-.43 0-.79-.117-1.1-.35-.3-.235-.53-.575-.69-1.02-.16-.447-.23-.987-.23-1.619 0-.629.07-1.166.23-1.611.17-.447.4-.788.7-1.023.3-.236.66-.355 1.09-.355.42 0 .79.119 1.09.355.3.235.53.576.69 1.023.16.445.24.982.24 1.611 0 .632-.08 1.172-.24 1.619-.16.445-.39.785-.69 1.02-.3.233-.66.35-1.09.35zm0-.625c.42 0 .75-.205.99-.614.23-.409.35-.993.35-1.75 0-.504-.05-.933-.16-1.287-.11-.354-.26-.624-.46-.81-.2-.185-.44-.278-.72-.278-.42 0-.75.207-.99.622-.23.413-.35.997-.35 1.753 0 .504.05.932.16 1.284.1.352.25.62.45.804.2.184.45.276.73.276z" fill="#fff"/><g filter="url(#filter0_d_303_110)"><path d="M19 334c0-6.075 4.925-11 11-11h169c6.075 0 11 4.925 11 11v239c0 6.075-4.925 11-11 11H30c-6.075 0-11-4.925-11-11V334z" fill="#323441"/></g><rect x="178" y="389" width="124" height="124" rx="62" transform="rotate(90 178 389)" fill="#B1B5D3"/><path d="M177.583 443.82a62.006 62.006 0 01-56.092 68.936 61.998 61.998 0 01-32.126-5.769L116 451l61.583-7.18z" fill="#EC779B"/><path d="M159.841 407.159a62.001 62.001 0 0117.834 37.499L116 451l43.841-43.841z" fill="#E7A5B9"/><path d="M116 389a62.004 62.004 0 0143.841 18.159L116 451v-62z" fill="#D14671"/><rect x="40" y="341" width="79" height="9" rx="4.5" fill="#3D3F4D"/><rect x="40" y="356" width="57.369" height="9" rx="4.5" fill="#3D3F4D"/><path d="M137 362c2.76-5.399 3.845.251 7.717-3.137 4.686-4.1 4.176-3.475 4.444-2.092 1.492 7.717 6.43-3.403 7.717-.653.843 1.8 2.477-3.876 3.411-2.484.702 1.046 1.266 3.137 2.669 3.137 1.404 0 3.667-2.091 5.187-3.66 1.521-1.569 2.414 1.438 2.765 2.222.35.785 2.923-.784 4.326-2.745 1.123-1.568 2.261.741 2.689 2.092 1.795-.669 7.477-5.597 8.185-2.745 1.092-.915 2.671-.92 4.89-3.935" stroke="#B1B5D3" stroke-width="2" stroke-linecap="round" stroke-linejoin="round"/><path d="M137.738 345.925l2.24-2.075V348h1.044v-4.15l2.24 2.075.738-.683-3.5-3.242-3.5 3.242.738.683zm11.847 2.155c-.39 0-.738-.068-1.045-.202a1.777 1.777 0 01-.725-.56 1.49 1.49 0 01-.284-.835h.892a.77.77 0 00.174.449c.106.125.244.221.414.29.171.068.36.102.569.102.229 0 .431-.04.608-.119a.995.995 0 00.417-.333c.1-.144.151-.31.151-.497a.896.896 0 00-.151-.514.97.97 0 00-.435-.352 1.652 1.652 0 00-.687-.128h-.492v-.716h.492a1.3 1.3 0 00.568-.117.923.923 0 00.387-.324.875.875 0 00.139-.491.883.883 0 00-.122-.469.832.832 0 00-.341-.315 1.107 1.107 0 00-.517-.114c-.19 0-.367.035-.532.105a.982.982 0 00-.397.296.751.751 0 00-.165.457h-.85c.01-.314.103-.591.279-.829.178-.239.413-.426.704-.56.292-.134.616-.202.972-.202.373 0 .695.073.966.219.273.144.483.336.631.577.149.24.223.504.221.79.002.325-.089.602-.273.829-.181.227-.424.38-.727.457v.046c.387.059.686.212.898.46.214.248.32.556.318.923.002.32-.087.607-.267.861a1.816 1.816 0 01-.73.6 2.481 2.481 0 01-1.06.216zm2.971-.08v-.636l1.969-2.04c.21-.222.383-.416.52-.583.138-.168.241-.328.309-.48.068-.151.102-.312.102-.483a.9.9 0 00-.136-.5.886.886 0 00-.372-.326 1.177 1.177 0 00-.531-.117c-.209 0-.39.043-.546.128a.883.883 0 00-.358.361 1.139 1.139 0 00-.125.545h-.838c0-.354.082-.664.245-.929.162-.265.386-.47.67-.616.284-.148.607-.222.969-.222.365 0 .687.073.966.219.28.144.499.341.656.591.157.248.236.528.236.841 0 .216-.041.427-.122.633-.08.207-.219.437-.418.691-.199.252-.475.557-.83.917l-1.156 1.211v.042h2.619V348h-3.829z" fill="#fff"/><rect x="40" y="537" width="12" height="12" rx="4" fill="#B1B5D3"/><path d="M58.598 543.085V546h-.956v-6.545h.943v2.435h.061c.115-.264.29-.474.527-.63.237-.155.546-.233.927-.233.337 0 .63.069.882.208.254.138.45.345.588.62.14.272.211.613.211 1.022V546h-.955v-3.007c0-.361-.093-.64-.278-.838-.186-.2-.444-.3-.774-.3-.226 0-.428.048-.607.144a1.032 1.032 0 00-.419.421c-.1.184-.15.405-.15.665zm6.75-1.994v.767h-2.681v-.767h2.681zm-1.962-1.176h.955v4.644c0 .185.028.325.083.418a.432.432 0 00.214.189c.09.032.187.048.291.048.077 0 .144-.006.202-.016l.134-.026.172.79a1.896 1.896 0 01-.62.102 1.7 1.7 0 01-.703-.134 1.209 1.209 0 01-.527-.435c-.134-.196-.201-.442-.201-.738v-4.842zm5.31 1.176v.767h-2.68v-.767h2.68zm-1.962-1.176h.956v4.644c0 .185.028.325.083.418a.432.432 0 00.214.189c.09.032.187.048.291.048.077 0 .144-.006.201-.016l.135-.026.172.79a1.896 1.896 0 01-.62.102 1.698 1.698 0 01-.703-.134 1.209 1.209 0 01-.527-.435c-.135-.196-.202-.442-.202-.738v-4.842zm3.02 7.926v-6.75h.933v.796h.08a2.61 2.61 0 01.24-.355c.104-.134.249-.251.434-.352.186-.102.43-.153.735-.153.397 0 .75.1 1.061.3.312.201.555.489.732.867.18.377.269.831.269 1.361 0 .531-.089.985-.266 1.365-.176.377-.42.668-.728.872a1.883 1.883 0 01-1.058.304c-.298 0-.542-.05-.732-.15a1.387 1.387 0 01-.441-.352 2.601 2.601 0 01-.246-.358h-.058v2.605h-.955zm.936-4.296c0 .346.05.648.15.908.1.26.245.464.435.611.19.144.422.217.697.217.285 0 .524-.076.716-.227a1.41 1.41 0 00.434-.623c.1-.262.15-.557.15-.886 0-.323-.049-.614-.147-.872a1.34 1.34 0 00-.434-.611c-.192-.149-.432-.223-.72-.223-.276 0-.51.071-.702.214-.19.143-.334.342-.432.598a2.49 2.49 0 00-.147.894z" fill="#fff"/><rect x="40" y="554" width="12" height="12" rx="4" fill="#EC779B"/><path d="M58.598 560.085V563h-.956v-6.545h.943v2.435h.061c.115-.264.29-.474.527-.63.237-.155.546-.233.927-.233.337 0 .63.069.882.208.254.138.45.345.588.62.14.272.211.613.211 1.022V563h-.955v-3.007c0-.361-.093-.64-.278-.838-.186-.2-.444-.3-.774-.3-.226 0-.428.048-.607.144a1.032 1.032 0 00-.419.421c-.1.184-.15.405-.15.665zm6.75-1.994v.767h-2.681v-.767h2.681zm-1.962-1.176h.955v4.644c0 .185.028.325.083.418a.432.432 0 00.214.189c.09.032.187.048.291.048.077 0 .144-.006.202-.016l.134-.026.172.79a1.896 1.896 0 01-.62.102 1.7 1.7 0 01-.703-.134 1.209 1.209 0 01-.527-.435c-.134-.196-.201-.442-.201-.738v-4.842zm5.31 1.176v.767h-2.68v-.767h2.68zm-1.962-1.176h.956v4.644c0 .185.028.325.083.418a.432.432 0 00.214.189c.09.032.187.048.291.048.077 0 .144-.006.201-.016l.135-.026.172.79a1.896 1.896 0 01-.62.102 1.698 1.698 0 01-.703-.134 1.209 1.209 0 01-.527-.435c-.135-.196-.202-.442-.202-.738v-4.842zm3.02 7.926v-6.75h.933v.796h.08a2.61 2.61 0 01.24-.355c.104-.134.249-.251.434-.352.186-.102.43-.153.735-.153.397 0 .75.1 1.061.3.312.201.555.489.732.867.18.377.269.831.269 1.361 0 .531-.089.985-.266 1.365-.176.377-.42.668-.728.872a1.883 1.883 0 01-1.058.304c-.298 0-.542-.05-.732-.15a1.387 1.387 0 01-.441-.352 2.601 2.601 0 01-.246-.358h-.058v2.605h-.955zm.936-4.296c0 .346.05.648.15.908.1.26.245.464.435.611.19.144.422.217.697.217.285 0 .524-.076.716-.227a1.41 1.41 0 00.434-.623c.1-.262.15-.557.15-.886 0-.323-.049-.614-.147-.872a1.34 1.34 0 00-.434-.611c-.192-.149-.432-.223-.72-.223-.276 0-.51.071-.702.214-.19.143-.334.342-.432.598a2.49 2.49 0 00-.147.894zM78.814 563v.812h-4.158V563h4.158zm1.047 1.841v-6.75h.933v.796h.08a2.61 2.61 0 01.24-.355c.104-.134.25-.251.435-.352.185-.102.43-.153.735-.153.396 0 .75.1 1.06.3.312.201.556.489.733.867.179.377.268.831.268 1.361 0 .531-.088.985-.265 1.365-.177.377-.42.668-.729.872a1.883 1.883 0 01-1.058.304c-.298 0-.542-.05-.732-.15a1.387 1.387 0 01-.44-.352 2.601 2.601 0 01-.247-.358h-.057v2.605h-.956zm.937-4.296c0 .346.05.648.15.908.1.26.245.464.434.611.19.144.422.217.697.217.286 0 .524-.076.716-.227.192-.153.337-.361.435-.623.1-.262.15-.557.15-.886 0-.323-.049-.614-.147-.872a1.341 1.341 0 00-.435-.611c-.192-.149-.431-.223-.719-.223-.277 0-.511.071-.703.214-.19.143-.333.342-.431.598a2.49 2.49 0 00-.147.894zM85.416 563v-4.909h.924v.78h.05a1.19 1.19 0 01.474-.623 1.35 1.35 0 01.773-.231 4.489 4.489 0 01.406.023v.914a1.515 1.515 0 00-.205-.035 1.941 1.941 0 00-.294-.023c-.225 0-.427.048-.604.144a1.072 1.072 0 00-.569.962V563h-.955zm5.346.099c-.46 0-.862-.105-1.205-.316a2.13 2.13 0 01-.799-.886c-.19-.379-.284-.822-.284-1.329 0-.509.094-.955.284-1.336.19-.382.456-.678.8-.889.342-.211.744-.316 1.204-.316.46 0 .862.105 1.205.316.343.211.61.507.799.889.19.381.284.827.284 1.336 0 .507-.094.95-.284 1.329a2.13 2.13 0 01-.8.886c-.342.211-.744.316-1.204.316zm.003-.802c.299 0 .546-.079.742-.237a1.38 1.38 0 00.434-.629c.096-.262.144-.551.144-.866a2.49 2.49 0 00-.144-.863 1.397 1.397 0 00-.434-.636c-.196-.16-.444-.24-.742-.24-.3 0-.55.08-.748.24a1.419 1.419 0 00-.438.636c-.093.262-.14.549-.14.863 0 .315.047.604.14.866.096.262.242.472.438.629.199.158.448.237.748.237zm3.913-4.206l1.083 1.911 1.093-1.911H97.9l-1.531 2.454L97.912 563h-1.045l-1.106-1.835L94.66 563h-1.05l1.528-2.455-1.508-2.454h1.048zm4.807 6.75c-.143 0-.273-.012-.39-.035a1.237 1.237 0 01-.262-.071l.23-.783c.175.047.33.068.466.061a.556.556 0 00.362-.153c.106-.096.2-.253.281-.47l.118-.326-1.796-4.973h1.023l1.243 3.81h.051l1.243-3.81h1.026l-2.023 5.564a2.222 2.222 0 01-.358.649 1.392 1.392 0 01-.518.403c-.2.089-.432.134-.696.134z" fill="#fff"/><rect x="116" y="537" width="12" height="12" rx="4" fill="#E7A5B9"/><path d="M135.934 541.091v.767h-2.682v-.767h2.682zm-1.962-1.176h.955v4.644c0 .185.028.325.083.418a.436.436 0 00.214.189c.09.032.187.048.291.048.077 0 .144-.006.202-.016l.134-.026.172.79a1.895 1.895 0 01-.62.102 1.701 1.701 0 01-.703-.134 1.208 1.208 0 01-.527-.435c-.134-.196-.201-.442-.201-.738v-4.842zm4.08-.46V546h-.955v-6.545h.955zm4.964 2.834l-.866.154a1.047 1.047 0 00-.172-.317.854.854 0 00-.314-.246 1.131 1.131 0 00-.495-.096c-.271 0-.496.061-.678.183-.181.119-.271.273-.271.463 0 .164.061.296.182.396.121.1.317.183.588.246l.78.179c.452.105.788.266 1.01.483.221.217.332.5.332.847 0 .294-.085.556-.255.786a1.679 1.679 0 01-.707.537c-.3.13-.649.195-1.045.195-.55 0-.998-.117-1.345-.351a1.489 1.489 0 01-.64-1.007l.924-.141a.888.888 0 00.355.547c.179.121.412.182.7.182.313 0 .563-.065.751-.195.187-.132.281-.293.281-.483a.497.497 0 00-.173-.386c-.112-.105-.286-.184-.52-.237l-.831-.182c-.459-.105-.797-.271-1.017-.499-.217-.228-.326-.516-.326-.866 0-.29.081-.543.243-.76.162-.218.386-.387.671-.509.286-.123.613-.185.981-.185.531 0 .949.115 1.253.345.305.228.506.534.604.917zm1.777 3.772a.62.62 0 01-.451-.186.616.616 0 01-.189-.453c0-.175.063-.324.189-.448a.614.614 0 01.451-.188c.174 0 .324.062.45.188a.605.605 0 01.189.448.65.65 0 01-.32.552.604.604 0 01-.319.087zm3.987.038c-.476 0-.885-.108-1.228-.323a2.129 2.129 0 01-.786-.898 2.991 2.991 0 01-.275-1.31c0-.499.094-.939.281-1.32.188-.384.452-.683.793-.898.341-.215.743-.323 1.205-.323.373 0 .705.069.997.208.292.136.527.328.706.575.182.247.289.536.323.866h-.93a1.113 1.113 0 00-.351-.594c-.181-.167-.424-.25-.729-.25-.266 0-.5.071-.7.211a1.354 1.354 0 00-.463.595 2.263 2.263 0 00-.167.907c0 .358.055.667.163.927.109.26.262.462.461.604.2.143.435.214.706.214.181 0 .345-.033.492-.099.149-.068.274-.165.374-.29.102-.126.174-.277.214-.454h.93a1.802 1.802 0 01-.31.85 1.788 1.788 0 01-.693.588 2.253 2.253 0 01-1.013.214zm3.994-6.644V546h-.956v-6.545h.956zm3.353 6.644c-.46 0-.862-.105-1.205-.316a2.134 2.134 0 01-.799-.886c-.189-.379-.284-.822-.284-1.329 0-.509.095-.955.284-1.336a2.13 2.13 0 01.799-.889c.343-.211.745-.316 1.205-.316.46 0 .862.105 1.205.316.343.211.609.507.799.889.19.381.285.827.285 1.336 0 .507-.095.95-.285 1.329-.19.38-.456.675-.799.886-.343.211-.745.316-1.205.316zm.003-.802c.299 0 .546-.079.742-.237.196-.157.341-.367.435-.629.095-.262.143-.551.143-.866 0-.314-.048-.601-.143-.863a1.4 1.4 0 00-.435-.636c-.196-.16-.443-.24-.742-.24-.3 0-.549.08-.747.24a1.42 1.42 0 00-.438.636 2.536 2.536 0 00-.141.863c0 .315.047.604.141.866.096.262.242.472.438.629.198.158.447.237.747.237zm6.462-1.333v-2.873h.959V546h-.94v-.85h-.051c-.113.262-.294.48-.543.655-.247.173-.555.259-.924.259-.315 0-.594-.069-.837-.208a1.45 1.45 0 01-.569-.623c-.137-.275-.205-.615-.205-1.02v-3.122h.956v3.007c0 .335.093.601.278.799a.94.94 0 00.722.298c.179 0 .357-.045.534-.135.179-.089.327-.224.444-.406.12-.181.178-.411.176-.69zm4.08 2.132c-.396 0-.75-.101-1.061-.304a2.065 2.065 0 01-.728-.872c-.175-.38-.262-.834-.262-1.365 0-.53.088-.984.265-1.361a2.04 2.04 0 01.735-.867c.311-.2.664-.3 1.058-.3.305 0 .55.051.735.153.187.101.332.218.435.352.104.134.185.252.243.355h.057v-2.432h.956V546h-.934v-.764h-.079a2.505 2.505 0 01-.25.358 1.376 1.376 0 01-.441.352c-.187.1-.43.15-.729.15zm.211-.815c.275 0 .508-.073.697-.217.192-.147.337-.351.435-.611.1-.26.15-.562.15-.908 0-.34-.049-.639-.147-.894a1.319 1.319 0 00-.431-.598 1.136 1.136 0 00-.704-.214c-.287 0-.527.074-.719.223-.191.15-.336.353-.434.611a2.488 2.488 0 00-.144.872c0 .329.049.624.147.886.098.262.243.47.435.623.193.151.432.227.715.227zm5.922-4.19v.767h-2.774v-.767h2.774zM170.791 546v-5.478c0-.307.067-.561.202-.764.134-.204.312-.357.533-.457a1.71 1.71 0 01.723-.153c.192 0 .356.016.492.048.136.029.238.057.304.083l-.224.773c-.045-.013-.102-.027-.173-.045a.988.988 0 00-.255-.028c-.233 0-.399.057-.499.172-.098.115-.147.282-.147.499V546h-.956zm3.955-6.545V546h-.955v-6.545h.955zm2.715 6.654c-.311 0-.593-.058-.844-.173a1.42 1.42 0 01-.598-.508c-.145-.222-.217-.493-.217-.815 0-.277.053-.505.16-.684.106-.179.25-.321.431-.425.181-.104.384-.183.607-.237.224-.053.452-.093.684-.121l.716-.083c.184-.024.317-.061.4-.112.083-.051.124-.134.124-.249v-.023c0-.279-.078-.495-.236-.648-.156-.154-.388-.231-.697-.231-.322 0-.575.072-.76.215-.184.14-.31.297-.381.469l-.898-.204c.107-.298.262-.539.467-.722a1.88 1.88 0 01.712-.403c.269-.085.551-.128.847-.128.196 0 .404.023.624.07.221.045.428.128.62.25.194.121.352.295.476.521.123.223.185.514.185.872V546h-.933v-.671h-.038a1.379 1.379 0 01-.278.364 1.476 1.476 0 01-.477.297 1.838 1.838 0 01-.696.119zm.207-.767c.265 0 .49-.053.678-.157a1.092 1.092 0 00.582-.956v-.632a.487.487 0 01-.199.095 2.865 2.865 0 01-.329.074l-.361.054-.294.039a2.365 2.365 0 00-.508.118.86.86 0 00-.364.24.595.595 0 00-.135.409c0 .236.088.415.262.537.175.119.398.179.668.179zm3.488.658v-4.909h.924v.78h.051c.089-.264.247-.472.473-.623a1.35 1.35 0 01.773-.231 4.475 4.475 0 01.406.023v.914a1.489 1.489 0 00-.204-.035 1.941 1.941 0 00-.294-.023c-.226 0-.428.048-.604.144a1.07 1.07 0 00-.569.962V546h-.956zm5.394.099c-.484 0-.9-.103-1.249-.31a2.104 2.104 0 01-.806-.879c-.187-.379-.281-.823-.281-1.333 0-.502.094-.946.281-1.329.19-.384.454-.683.793-.898a2.192 2.192 0 011.195-.323c.277 0 .545.046.805.137.26.092.494.236.7.432.207.196.37.451.489.764.12.311.179.689.179 1.134v.339h-3.902v-.716h2.966c0-.251-.051-.474-.154-.668a1.159 1.159 0 00-.431-.463 1.204 1.204 0 00-.646-.17c-.268 0-.502.066-.703.199-.198.13-.351.3-.46.511-.106.209-.16.436-.16.681v.559c0 .328.058.607.173.837.117.23.28.406.489.528.209.119.453.179.732.179.181 0 .346-.026.495-.077.149-.053.278-.132.387-.237.109-.104.192-.233.249-.386l.905.163a1.656 1.656 0 01-.39.7 1.9 1.9 0 01-.7.463 2.614 2.614 0 01-.956.163z" fill="#fff"/><rect x="116" y="554" width="12" height="12" rx="4" fill="#D14671"/><path d="M135.48 563.096c-.396 0-.75-.101-1.061-.304a2.067 2.067 0 01-.729-.872c-.174-.38-.262-.834-.262-1.365 0-.53.089-.984.266-1.361a2.04 2.04 0 01.735-.867c.311-.2.663-.3 1.058-.3.304 0 .549.051.735.153.187.101.332.218.434.352.105.134.186.252.243.355h.058v-2.432h.955V563h-.933v-.764h-.08a2.41 2.41 0 01-.249.358 1.398 1.398 0 01-.441.352c-.188.1-.431.15-.729.15zm.211-.815c.275 0 .507-.073.697-.217.192-.147.336-.351.434-.611.101-.26.151-.562.151-.908 0-.34-.049-.639-.147-.894a1.313 1.313 0 00-.432-.598 1.133 1.133 0 00-.703-.214c-.288 0-.527.074-.719.223-.192.15-.337.353-.435.611a2.488 2.488 0 00-.144.872c0 .329.049.624.147.886.098.262.243.47.435.623.194.151.433.227.716.227zm4.541-2.196V563h-.956v-4.909h.917v.799h.061c.113-.26.29-.469.531-.627.243-.157.548-.236.917-.236.334 0 .627.07.879.211.251.138.446.345.585.62.138.275.207.615.207 1.019V563h-.955v-3.007c0-.356-.093-.634-.278-.835-.186-.202-.44-.303-.764-.303-.222 0-.419.048-.591.144a1.025 1.025 0 00-.406.421 1.396 1.396 0 00-.147.665zm8.102-.796l-.866.154a1.05 1.05 0 00-.173-.317.858.858 0 00-.313-.246 1.133 1.133 0 00-.496-.096c-.27 0-.496.061-.677.183-.181.119-.272.273-.272.463 0 .164.061.296.182.396.122.1.318.183.588.246l.78.179c.452.105.789.266 1.01.483.222.217.333.5.333.847 0 .294-.086.556-.256.786a1.675 1.675 0 01-.706.537c-.301.13-.649.195-1.046.195-.549 0-.998-.117-1.345-.351a1.49 1.49 0 01-.639-1.007l.923-.141a.888.888 0 00.355.547c.179.121.412.182.7.182.313 0 .564-.065.751-.195.188-.132.281-.293.281-.483a.5.5 0 00-.172-.386c-.113-.105-.287-.184-.521-.237l-.831-.182c-.458-.105-.797-.271-1.016-.499-.218-.228-.326-.516-.326-.866 0-.29.081-.543.242-.76.162-.218.386-.387.672-.509.285-.123.612-.185.981-.185.53 0 .948.115 1.253.345.304.228.506.534.604.917z" fill="#fff"/><defs><linearGradient id="paint0_linear_303_110" x1="568.5" y1="197.55" x2="568.5" y2="433.052" gradientUnits="userSpaceOnUse"><stop stop-color="#EC779B"/><stop offset="1" stop-color="#EC779B" stop-opacity="0"/></linearGradient><linearGradient id="paint1_linear_303_110" x1="840.36" y1="397.509" x2="493.45" y2="-233.851" gradientUnits="userSpaceOnUse"><stop stop-color="#882B6B"/><stop offset="1" stop-color="#CF4671"/></linearGradient><filter id="filter0_d_303_110" x="0" y="301" width="241" height="311" filterUnits="userSpaceOnUse" color-interpolation-filters="sRGB"><feFlood flood-opacity="0" result="BackgroundImageFix"/><feColorMatrix in="SourceAlpha" type="matrix" values="0 0 0 0 0 0 0 0 0 0 0 0 0 0 0 0 0 0 127 0" result="hardAlpha"/><feOffset dx="6" dy="3"/><feGaussianBlur stdDeviation="12.5"/><feColorMatrix type="matrix" values="0 0 0 0 0.0715719 0 0 0 0 0.109795 0 0 0 0 0.16713 0 0 0 0.16 0"/><feBlend mode="normal" in2="BackgroundImageFix" result="effect1_dropShadow_303_110"/><feBlend mode="normal" in="SourceGraphic" in2="effect1_dropShadow_303_110" result="shape"/></filter></defs></svg>