<svg width="237" height="162" viewBox="0 0 237 162" fill="none" xmlns="http://www.w3.org/2000/svg"><path d="M66.722 19.96H21.765a2.305 2.305 0 100 4.611h44.957a2.305 2.305 0 100-4.611zm-18.06 6.784H21.765a2.305 2.305 0 100 4.611h26.897a2.305 2.305 0 100-4.611z" fill="#000" fill-opacity=".15"/><path d="M19.46 157.239h192.212" stroke="#B1B5D3" stroke-width="5" stroke-linecap="square"/><path d="M19.46 134.16h192.212M19.46 111.081h192.212M19.46 88.002h192.212M19.46 64.923h192.212" stroke="#3D3F4D" stroke-opacity=".3" stroke-width=".5" stroke-linecap="square"/><path d="M22.576 128.231c.875-1.319 4.585 1.629 9.125-.043 3.574-1.317 6.684-5.545 11.26-6.822 8.686-2.425 15.774-4.917 19.802-10.709 4.028-5.792 10.074-25.43 17.279-25.43s10.872 10.215 13.59 16.944c2.603 6.444 7.617 21.924 15.725 23.63 8.949 1.884 16.308 13.371 26.986 15.302 5.691 1.029 10.25-.974 15.337-4.086s4.091-4.456 15.531-6.855c9.441-1.98 11.91-8.796 21.161-9.617 9.251-.82 13.53 24.846 23.297 22.704" stroke="#F35183" stroke-width="2" stroke-linecap="round" stroke-linejoin="round"/><path d="M209.834 129.795c-4.802-6.865-4.585 1.629-9.125-.043-3.574-1.317-6.684-5.545-11.26-6.822-8.601 17.981-15.765-2.608-19.802-10.709-4.028-5.792-9.884 31.768-17.089 31.768-37.268-27.843-50.893-18.026-56.49-1.322-5.598 16.704-8.915-20.525-14.002-23.637-5.087-3.112-5.426 15.095-16.867 12.696-9.44-1.98-11.91-8.796-21.16-9.617-9.252-.82-13.53 24.846-23.298 22.703" stroke="#B1B5D3" stroke-width="2" stroke-linecap="round" stroke-linejoin="round"/><g filter="url(#filter0_i_333_127)"><path d="M227.72 0H9.5a9 9 0 00-9 9v144a9 9 0 009 9h218.22a9 9 0 009-9V9a9 9 0 00-9-9z" fill="#21222C"/><path d="M19.5 29.243h3.625v-.5H19.5v.5zm10.874 0h7.249v-.5h-7.25v.5zm14.498 0h7.249v-.5h-7.25v.5zm14.498 0h7.249v-.5h-7.25v.5zm14.498 0h7.249v-.5h-7.25v.5zm14.498 0h7.249v-.5h-7.249v.5zm14.498 0h7.249v-.5h-7.249v.5zm14.498 0h7.249v-.5h-7.249v.5zm14.498 0h7.249v-.5h-7.249v.5zm14.498 0h7.249v-.5h-7.249v.5zm14.498 0h7.249v-.5h-7.249v.5zm14.498 0h3.625v-.5h-3.625v.5z" fill="#fff" fill-opacity=".4"/><path d="M19.5 56.08h159.479M19.5 83.14h159.479M19.5 110.203h159.479M19.5 137.265h159.479" stroke="#fff" stroke-opacity=".4" stroke-width=".5" stroke-dasharray="7 7"/><path d="M100.213 39.128H97.32a2 2 0 00-2 2v35.25a2 2 0 002 2h2.893a2 2 0 002-2v-35.25a2 2 0 00-2-2z" fill="#D14671"/><path d="M99.457 22.69a.69.69 0 10-1.379 0v74.268a.69.69 0 101.379 0V22.69zm42.109 34.28h-2.892a2 2 0 00-2 2v29.54a2 2 0 002 2h2.892a2 2 0 002-2V58.969a2 2 0 00-2-2z" fill="#D14671"/><path d="M140.81 43.385a.689.689 0 10-1.378 0v62.851a.688.688 0 101.378 0v-62.85zm14.544 27.144h-2.893a2 2 0 00-2 2V94.22a2 2 0 002 2h2.893a2 2 0 002-2V72.53a2 2 0 00-2-2z" fill="#D14671"/><path d="M154.597 59.8a.689.689 0 10-1.378 0v48.577a.689.689 0 001.378 0V59.799zm-68.169 3.592h-2.893a2 2 0 00-2 2v35.251a2 2 0 002 2h2.893a2 2 0 002-2v-35.25a2 2 0 00-2-2z" fill="#D14671"/><path d="M85.671 46.954a.69.69 0 10-1.378 0v74.269a.69.69 0 001.378 0v-74.27z" fill="#D14671"/><path d="M72.64 74.81h-2.892a2 2 0 00-2 2v35.252a2 2 0 002 2h2.893a2 2 0 002-2V76.811a2 2 0 00-2-2z" fill="#ECBDCC"/><path d="M71.884 58.372a.69.69 0 10-1.378 0v74.269a.689.689 0 101.378 0V58.372zM31.285 71.485h-2.892a2 2 0 00-2 2v25.993a2 2 0 002 2h2.892a2 2 0 002-2V73.485a2 2 0 00-2-2z" fill="#ECBDCC"/><path d="M30.529 59.086a.69.69 0 10-1.379 0v56.427a.69.69 0 101.379 0V59.086z" fill="#ECBDCC"/><path d="M58.854 66.96H55.96a2 2 0 00-2 2v27.401a2 2 0 002 2h2.893a2 2 0 002-2v-27.4a2 2 0 00-2-2z" fill="#D14671"/><path d="M58.097 54.09a.69.69 0 10-1.378 0v58.569a.69.69 0 001.378 0V54.09zM45.072 65.533H42.18a2 2 0 00-2 2v12.414a2 2 0 002 2h2.892a2 2 0 002-2V67.533a2 2 0 00-2-2z" fill="#D14671"/><path d="M44.316 59.086a.69.69 0 10-1.379 0v30.022a.69.69 0 101.379 0V59.086z" fill="#D14671"/><path d="M127.783 75.524h-2.892a2 2 0 00-2 2V99.93a2 2 0 002 1.999h2.892a2 2 0 002-2V77.525a2 2 0 00-2-2z" fill="#B1B5D3"/><path d="M127.027 67.65a.69.69 0 00-1.379 0v42.154a.69.69 0 001.379 0V67.65zm42.11-9.967h-2.893a2 2 0 00-2 2v22.405a2 2 0 002 2h2.893a2 2 0 002-2V59.683a2 2 0 00-2-2z" fill="#B1B5D3"/><path d="M168.38 49.808a.689.689 0 10-1.378 0v42.155a.69.69 0 001.378 0V49.808zm-54.384 14.298h-2.892a2 2 0 00-2 2V88.51a2 2 0 002 2h2.892a2 2 0 002-2V66.106a2 2 0 00-2-2z" fill="#B1B5D3"/><path d="M113.24 56.231a.69.69 0 00-1.379 0v42.155a.69.69 0 001.379 0V56.23z" fill="#B1B5D3"/><path d="M191.477 85v-.952h-2.324v-.672l2.044-3.262h1.029v3.318h.686v.616h-.686V85h-.749zm-1.659-1.568h1.659v-2.597h-.042l-1.617 2.597zm6.9-2.639h-2.219l-.126 1.736h.056c.112-.191.247-.343.406-.455.158-.117.375-.175.651-.175.21 0 .403.035.581.105a1.345 1.345 0 01.784.784c.079.187.119.399.119.637 0 .243-.04.467-.119.672-.08.2-.194.376-.343.525a1.62 1.62 0 01-.553.343 2.18 2.18 0 01-.749.119 2.058 2.058 0 01-1.043-.266 1.854 1.854 0 01-.343-.28 2.688 2.688 0 01-.259-.329l.574-.448c.06.093.123.182.189.266.07.08.147.15.231.21.084.06.179.107.287.14.112.033.238.049.378.049.303 0 .534-.082.693-.245.158-.168.238-.394.238-.679v-.056c0-.285-.082-.506-.245-.665-.159-.159-.388-.238-.686-.238-.22 0-.392.04-.518.119-.126.08-.236.168-.329.266l-.651-.091.182-2.723h2.814v.679zm2.72 4.277c-.224 0-.383-.047-.476-.14a.478.478 0 01-.133-.343v-.182c0-.135.044-.25.133-.343.093-.093.252-.14.476-.14.224 0 .38.047.469.14.093.093.14.208.14.343v.182c0 .135-.047.25-.14.343-.089.093-.245.14-.469.14zm4.197.014c-.308 0-.576-.056-.805-.168a1.541 1.541 0 01-.56-.497 2.298 2.298 0 01-.322-.791 4.928 4.928 0 01-.105-1.071c0-.397.035-.751.105-1.064a2.3 2.3 0 01.322-.798 1.48 1.48 0 01.56-.49 1.75 1.75 0 01.805-.175c.308 0 .574.058.798.175.229.112.415.275.56.49.149.215.259.48.329.798.07.313.105.667.105 1.064 0 .401-.035.758-.105 1.071-.07.313-.18.576-.329.791-.145.215-.331.38-.56.497-.224.112-.49.168-.798.168zm0-.644c.355 0 .607-.13.756-.392.154-.266.231-.623.231-1.071v-.84c0-.448-.077-.803-.231-1.064-.149-.266-.401-.399-.756-.399a.925.925 0 00-.455.105.772.772 0 00-.308.294c-.079.126-.138.28-.175.462a3.312 3.312 0 00-.049.602v.84c0 .224.016.427.049.609.037.177.096.331.175.462a.842.842 0 00.308.294.98.98 0 00.455.098zm0-1.47c-.163 0-.278-.033-.343-.098a.336.336 0 01-.091-.238v-.154c0-.093.03-.173.091-.238.065-.065.18-.098.343-.098.163 0 .275.033.336.098a.325.325 0 01.098.238v.154a.325.325 0 01-.098.238c-.061.065-.173.098-.336.098zm4.197 2.114c-.308 0-.576-.056-.805-.168a1.55 1.55 0 01-.56-.497 2.318 2.318 0 01-.322-.791 4.928 4.928 0 01-.105-1.071c0-.397.035-.751.105-1.064.07-.317.178-.583.322-.798.15-.215.336-.378.56-.49a1.75 1.75 0 01.805-.175c.308 0 .574.058.798.175.229.112.416.275.56.49.15.215.259.48.329.798.07.313.105.667.105 1.064 0 .401-.035.758-.105 1.071a2.21 2.21 0 01-.329.791c-.144.215-.331.38-.56.497-.224.112-.49.168-.798.168zm0-.644c.355 0 .607-.13.756-.392.154-.266.231-.623.231-1.071v-.84c0-.448-.077-.803-.231-1.064-.149-.266-.401-.399-.756-.399a.925.925 0 00-.455.105.779.779 0 00-.308.294c-.079.126-.137.28-.175.462a3.404 3.404 0 00-.049.602v.84c0 .224.017.427.049.609.038.177.096.331.175.462a.85.85 0 00.308.294.98.98 0 00.455.098zm0-1.47c-.163 0-.277-.033-.343-.098a.34.34 0 01-.091-.238v-.154a.34.34 0 01.091-.238c.066-.065.18-.098.343-.098.164 0 .276.033.336.098a.321.321 0 01.098.238v.154a.321.321 0 01-.098.238c-.06.065-.172.098-.336.098zm4.198 2.114c-.308 0-.577-.056-.805-.168a1.541 1.541 0 01-.56-.497 2.298 2.298 0 01-.322-.791 4.928 4.928 0 01-.105-1.071c0-.397.035-.751.105-1.064a2.3 2.3 0 01.322-.798 1.48 1.48 0 01.56-.49c.228-.117.497-.175.805-.175.308 0 .574.058.798.175.228.112.415.275.56.49.149.215.259.48.329.798.07.313.105.667.105 1.064 0 .401-.035.758-.105 1.071-.07.313-.18.576-.329.791a1.48 1.48 0 01-.56.497c-.224.112-.49.168-.798.168zm0-.644c.354 0 .606-.13.756-.392.154-.266.231-.623.231-1.071v-.84c0-.448-.077-.803-.231-1.064-.15-.266-.402-.399-.756-.399a.922.922 0 00-.455.105.772.772 0 00-.308.294c-.08.126-.138.28-.175.462a3.312 3.312 0 00-.049.602v.84c0 .224.016.427.049.609.037.177.095.331.175.462a.842.842 0 00.308.294.976.976 0 00.455.098zm0-1.47c-.164 0-.278-.033-.343-.098a.336.336 0 01-.091-.238v-.154c0-.093.03-.173.091-.238.065-.065.179-.098.343-.098.163 0 .275.033.336.098a.325.325 0 01.098.238v.154a.325.325 0 01-.098.238c-.061.065-.173.098-.336.098zM191.477 58v-.952h-2.324v-.672l2.044-3.262h1.029v3.318h.686v.616h-.686V58h-.749zm-1.659-1.568h1.659v-2.597h-.042l-1.617 2.597zM194.324 58l1.813-4.235h-1.904v.903h-.679v-1.554h3.367v.686l-1.764 4.2h-.833zm5.114.07c-.224 0-.383-.047-.476-.14a.478.478 0 01-.133-.343v-.182c0-.135.044-.25.133-.343.093-.093.252-.14.476-.14.224 0 .38.047.469.14.093.093.14.208.14.343v.182c0 .135-.047.25-.14.343-.089.093-.245.14-.469.14zm4.197.014c-.308 0-.576-.056-.805-.168a1.541 1.541 0 01-.56-.497 2.298 2.298 0 01-.322-.791 4.928 4.928 0 01-.105-1.071c0-.397.035-.751.105-1.064a2.3 2.3 0 01.322-.798 1.48 1.48 0 01.56-.49 1.75 1.75 0 01.805-.175c.308 0 .574.058.798.175.229.112.415.275.56.49.149.215.259.48.329.798.07.313.105.667.105 1.064 0 .401-.035.758-.105 1.071-.07.313-.18.576-.329.791-.145.215-.331.38-.56.497-.224.112-.49.168-.798.168zm0-.644c.355 0 .607-.13.756-.392.154-.266.231-.623.231-1.071v-.84c0-.448-.077-.803-.231-1.064-.149-.266-.401-.399-.756-.399a.925.925 0 00-.455.105.772.772 0 00-.308.294c-.079.126-.138.28-.175.462a3.312 3.312 0 00-.049.602v.84c0 .224.016.427.049.609.037.177.096.331.175.462a.842.842 0 00.308.294.98.98 0 00.455.098zm0-1.47c-.163 0-.278-.033-.343-.098a.336.336 0 01-.091-.238v-.154c0-.093.03-.173.091-.238.065-.065.18-.098.343-.098.163 0 .275.033.336.098a.325.325 0 01.098.238v.154a.325.325 0 01-.098.238c-.061.065-.173.098-.336.098zm4.197 2.114c-.308 0-.576-.056-.805-.168a1.55 1.55 0 01-.56-.497 2.318 2.318 0 01-.322-.791 4.928 4.928 0 01-.105-1.071c0-.397.035-.751.105-1.064.07-.317.178-.583.322-.798.15-.215.336-.378.56-.49a1.75 1.75 0 01.805-.175c.308 0 .574.058.798.175.229.112.416.275.56.49.15.215.259.48.329.798.07.313.105.667.105 1.064 0 .401-.035.758-.105 1.071a2.21 2.21 0 01-.329.791c-.144.215-.331.38-.56.497-.224.112-.49.168-.798.168zm0-.644c.355 0 .607-.13.756-.392.154-.266.231-.623.231-1.071v-.84c0-.448-.077-.803-.231-1.064-.149-.266-.401-.399-.756-.399a.925.925 0 00-.455.105.779.779 0 00-.308.294c-.079.126-.137.28-.175.462a3.404 3.404 0 00-.049.602v.84c0 .224.017.427.049.609.038.177.096.331.175.462a.85.85 0 00.308.294.98.98 0 00.455.098zm0-1.47c-.163 0-.277-.033-.343-.098a.34.34 0 01-.091-.238v-.154a.34.34 0 01.091-.238c.066-.065.18-.098.343-.098.164 0 .276.033.336.098a.321.321 0 01.098.238v.154a.321.321 0 01-.098.238c-.06.065-.172.098-.336.098zm4.198 2.114c-.308 0-.577-.056-.805-.168a1.541 1.541 0 01-.56-.497 2.298 2.298 0 01-.322-.791 4.928 4.928 0 01-.105-1.071c0-.397.035-.751.105-1.064a2.3 2.3 0 01.322-.798 1.48 1.48 0 01.56-.49c.228-.117.497-.175.805-.175.308 0 .574.058.798.175.228.112.415.275.56.49.149.215.259.48.329.798.07.313.105.667.105 1.064 0 .401-.035.758-.105 1.071-.07.313-.18.576-.329.791a1.48 1.48 0 01-.56.497c-.224.112-.49.168-.798.168zm0-.644c.354 0 .606-.13.756-.392.154-.266.231-.623.231-1.071v-.84c0-.448-.077-.803-.231-1.064-.15-.266-.402-.399-.756-.399a.922.922 0 00-.455.105.772.772 0 00-.308.294c-.08.126-.138.28-.175.462a3.312 3.312 0 00-.049.602v.84c0 .224.016.427.049.609.037.177.095.331.175.462a.842.842 0 00.308.294.976.976 0 00.455.098zm0-1.47c-.164 0-.278-.033-.343-.098a.336.336 0 01-.091-.238v-.154c0-.093.03-.173.091-.238.065-.065.179-.098.343-.098.163 0 .275.033.336.098a.325.325 0 01.098.238v.154a.325.325 0 01-.098.238c-.061.065-.173.098-.336.098zM191.477 32v-.952h-2.324v-.672l2.044-3.262h1.029v3.318h.686v.616h-.686V32h-.749zm-1.659-1.568h1.659v-2.597h-.042l-1.617 2.597zm7.152-1.498c0 .355-.054.688-.161 1.001-.108.313-.248.6-.42.861a4.271 4.271 0 01-.574.7c-.21.205-.418.373-.623.504h-1.05c.28-.2.532-.394.756-.581.224-.187.417-.378.581-.574.168-.196.308-.401.42-.616.112-.22.198-.462.259-.728l-.049-.014a1.848 1.848 0 01-.182.28 1.157 1.157 0 01-.567.378 1.408 1.408 0 01-.413.056c-.21 0-.404-.035-.581-.105a1.33 1.33 0 01-.462-.301 1.459 1.459 0 01-.308-.483 1.784 1.784 0 01-.105-.63c0-.243.039-.464.119-.665.084-.205.2-.38.35-.525a1.61 1.61 0 01.553-.336 1.94 1.94 0 01.714-.126c.27 0 .513.044.728.133.219.089.403.217.553.385.149.163.263.362.343.595.079.233.119.497.119.791zm-1.736.644c.294 0 .522-.08.686-.238.163-.163.245-.392.245-.686v-.07c0-.294-.082-.52-.245-.679-.164-.163-.392-.245-.686-.245-.299 0-.53.082-.693.245-.164.159-.245.385-.245.679v.07c0 .294.081.523.245.686.163.159.394.238.693.238zm4.204 2.492c-.224 0-.383-.047-.476-.14a.478.478 0 01-.133-.343v-.182c0-.135.044-.25.133-.343.093-.093.252-.14.476-.14.224 0 .38.047.469.14.093.093.14.208.14.343v.182c0 .135-.047.25-.14.343-.089.093-.245.14-.469.14zm4.197.014c-.308 0-.576-.056-.805-.168a1.541 1.541 0 01-.56-.497 2.298 2.298 0 01-.322-.791 4.928 4.928 0 01-.105-1.071c0-.397.035-.751.105-1.064a2.3 2.3 0 01.322-.798 1.48 1.48 0 01.56-.49 1.75 1.75 0 01.805-.175c.308 0 .574.058.798.175.229.112.415.275.56.49.149.215.259.48.329.798.07.313.105.667.105 1.064 0 .401-.035.758-.105 1.071-.07.313-.18.576-.329.791-.145.215-.331.38-.56.497-.224.112-.49.168-.798.168zm0-.644c.355 0 .607-.13.756-.392.154-.266.231-.623.231-1.071v-.84c0-.448-.077-.803-.231-1.064-.149-.266-.401-.399-.756-.399a.925.925 0 00-.455.105.772.772 0 00-.308.294c-.079.126-.138.28-.175.462a3.312 3.312 0 00-.049.602v.84c0 .224.016.427.049.609.037.177.096.331.175.462a.842.842 0 00.308.294.98.98 0 00.455.098zm0-1.47c-.163 0-.278-.033-.343-.098a.336.336 0 01-.091-.238v-.154c0-.093.03-.173.091-.238.065-.065.18-.098.343-.098.163 0 .275.033.336.098a.325.325 0 01.098.238v.154a.325.325 0 01-.098.238c-.061.065-.173.098-.336.098zm4.197 2.114c-.308 0-.576-.056-.805-.168a1.55 1.55 0 01-.56-.497 2.318 2.318 0 01-.322-.791 4.928 4.928 0 01-.105-1.071c0-.397.035-.751.105-1.064.07-.317.178-.583.322-.798.15-.215.336-.378.56-.49a1.75 1.75 0 01.805-.175c.308 0 .574.058.798.175.229.112.416.275.56.49.15.215.259.48.329.798.07.313.105.667.105 1.064 0 .401-.035.758-.105 1.071a2.21 2.21 0 01-.329.791c-.144.215-.331.38-.56.497-.224.112-.49.168-.798.168zm0-.644c.355 0 .607-.13.756-.392.154-.266.231-.623.231-1.071v-.84c0-.448-.077-.803-.231-1.064-.149-.266-.401-.399-.756-.399a.925.925 0 00-.455.105.779.779 0 00-.308.294c-.079.126-.137.28-.175.462a3.404 3.404 0 00-.049.602v.84c0 .224.017.427.049.609.038.177.096.331.175.462a.85.85 0 00.308.294.98.98 0 00.455.098zm0-1.47c-.163 0-.277-.033-.343-.098a.34.34 0 01-.091-.238v-.154a.34.34 0 01.091-.238c.066-.065.18-.098.343-.098.164 0 .276.033.336.098a.321.321 0 01.098.238v.154a.321.321 0 01-.098.238c-.06.065-.172.098-.336.098zm4.198 2.114c-.308 0-.577-.056-.805-.168a1.541 1.541 0 01-.56-.497 2.298 2.298 0 01-.322-.791 4.928 4.928 0 01-.105-1.071c0-.397.035-.751.105-1.064a2.3 2.3 0 01.322-.798 1.48 1.48 0 01.56-.49c.228-.117.497-.175.805-.175.308 0 .574.058.798.175.228.112.415.275.56.49.149.215.259.48.329.798.07.313.105.667.105 1.064 0 .401-.035.758-.105 1.071-.07.313-.18.576-.329.791a1.48 1.48 0 01-.56.497c-.224.112-.49.168-.798.168zm0-.644c.354 0 .606-.13.756-.392.154-.266.231-.623.231-1.071v-.84c0-.448-.077-.803-.231-1.064-.15-.266-.402-.399-.756-.399a.922.922 0 00-.455.105.772.772 0 00-.308.294c-.08.126-.138.28-.175.462a3.312 3.312 0 00-.049.602v.84c0 .224.016.427.049.609.037.177.095.331.175.462a.842.842 0 00.308.294.976.976 0 00.455.098zm0-1.47c-.164 0-.278-.033-.343-.098a.336.336 0 01-.091-.238v-.154c0-.093.03-.173.091-.238.065-.065.179-.098.343-.098.163 0 .275.033.336.098a.325.325 0 01.098.238v.154a.325.325 0 01-.098.238c-.061.065-.173.098-.336.098zM191.477 112v-.952h-2.324v-.672l2.044-3.262h1.029v3.318h.686v.616h-.686V112h-.749zm-1.659-1.568h1.659v-2.597h-.042l-1.617 2.597zm5.22-1.302c.312 0 .543-.065.693-.196a.643.643 0 00.231-.504v-.049c0-.224-.075-.394-.224-.511-.145-.121-.341-.182-.588-.182a1.11 1.11 0 00-.609.161 1.33 1.33 0 00-.413.441l-.532-.455c.074-.107.161-.21.259-.308s.21-.182.336-.252c.126-.075.27-.133.434-.175.163-.047.347-.07.553-.07.228 0 .441.028.637.084a1.5 1.5 0 01.511.252 1.116 1.116 0 01.455.924c0 .154-.026.294-.077.42a1.046 1.046 0 01-.504.567 1.467 1.467 0 01-.371.133v.035c.14.028.273.075.399.14a1.152 1.152 0 01.567.602c.056.135.084.292.084.469 0 .215-.042.411-.126.588a1.292 1.292 0 01-.364.448 1.684 1.684 0 01-.56.294c-.22.065-.465.098-.735.098-.229 0-.432-.026-.609-.077a1.893 1.893 0 01-.462-.189 1.915 1.915 0 01-.357-.28 2.665 2.665 0 01-.259-.329l.581-.448c.121.196.263.357.427.483.168.121.396.182.686.182.308 0 .543-.07.707-.21.163-.145.245-.343.245-.595v-.056c0-.252-.087-.443-.259-.574-.168-.135-.413-.203-.735-.203h-.525v-.658h.504zm4.4 2.94c-.224 0-.383-.047-.476-.14a.478.478 0 01-.133-.343v-.182c0-.135.044-.25.133-.343.093-.093.252-.14.476-.14.224 0 .38.047.469.14.093.093.14.208.14.343v.182c0 .135-.047.25-.14.343-.089.093-.245.14-.469.14zm4.197.014c-.308 0-.576-.056-.805-.168a1.541 1.541 0 01-.56-.497 2.298 2.298 0 01-.322-.791 4.932 4.932 0 01-.105-1.071c0-.397.035-.751.105-1.064.07-.317.177-.583.322-.798.149-.215.336-.378.56-.49.229-.117.497-.175.805-.175.308 0 .574.058.798.175.229.112.415.275.56.49.149.215.259.481.329.798.07.313.105.667.105 1.064 0 .401-.035.758-.105 1.071-.07.313-.18.576-.329.791-.145.215-.331.38-.56.497-.224.112-.49.168-.798.168zm0-.644c.355 0 .607-.131.756-.392.154-.266.231-.623.231-1.071v-.84c0-.448-.077-.803-.231-1.064-.149-.266-.401-.399-.756-.399a.925.925 0 00-.455.105.768.768 0 00-.308.294c-.079.126-.138.28-.175.462a3.31 3.31 0 00-.049.602v.84c0 .224.016.427.049.609.037.177.096.331.175.462a.842.842 0 00.308.294.983.983 0 00.455.098zm0-1.47c-.163 0-.278-.033-.343-.098a.336.336 0 01-.091-.238v-.154c0-.093.03-.173.091-.238.065-.065.18-.098.343-.098.163 0 .275.033.336.098a.325.325 0 01.098.238v.154a.325.325 0 01-.098.238c-.061.065-.173.098-.336.098zm4.197 2.114c-.308 0-.576-.056-.805-.168a1.55 1.55 0 01-.56-.497 2.318 2.318 0 01-.322-.791 4.932 4.932 0 01-.105-1.071c0-.397.035-.751.105-1.064.07-.317.178-.583.322-.798.15-.215.336-.378.56-.49.229-.117.497-.175.805-.175.308 0 .574.058.798.175.229.112.416.275.56.49.15.215.259.481.329.798.07.313.105.667.105 1.064 0 .401-.035.758-.105 1.071a2.21 2.21 0 01-.329.791c-.144.215-.331.38-.56.497-.224.112-.49.168-.798.168zm0-.644c.355 0 .607-.131.756-.392.154-.266.231-.623.231-1.071v-.84c0-.448-.077-.803-.231-1.064-.149-.266-.401-.399-.756-.399a.925.925 0 00-.455.105.775.775 0 00-.308.294c-.079.126-.137.28-.175.462a3.402 3.402 0 00-.049.602v.84c0 .224.017.427.049.609.038.177.096.331.175.462a.85.85 0 00.308.294.983.983 0 00.455.098zm0-1.47c-.163 0-.277-.033-.343-.098a.34.34 0 01-.091-.238v-.154a.34.34 0 01.091-.238c.066-.065.18-.098.343-.098.164 0 .276.033.336.098a.321.321 0 01.098.238v.154a.321.321 0 01-.098.238c-.06.065-.172.098-.336.098zm4.198 2.114c-.308 0-.577-.056-.805-.168a1.541 1.541 0 01-.56-.497 2.298 2.298 0 01-.322-.791 4.932 4.932 0 01-.105-1.071c0-.397.035-.751.105-1.064.07-.317.177-.583.322-.798.149-.215.336-.378.56-.49.228-.117.497-.175.805-.175.308 0 .574.058.798.175.228.112.415.275.56.49.149.215.259.481.329.798.07.313.105.667.105 1.064 0 .401-.035.758-.105 1.071-.07.313-.18.576-.329.791a1.48 1.48 0 01-.56.497c-.224.112-.49.168-.798.168zm0-.644c.354 0 .606-.131.756-.392.154-.266.231-.623.231-1.071v-.84c0-.448-.077-.803-.231-1.064-.15-.266-.402-.399-.756-.399a.922.922 0 00-.455.105.768.768 0 00-.308.294c-.08.126-.138.28-.175.462a3.31 3.31 0 00-.049.602v.84c0 .224.016.427.049.609.037.177.095.331.175.462a.842.842 0 00.308.294.98.98 0 00.455.098zm0-1.47c-.164 0-.278-.033-.343-.098a.336.336 0 01-.091-.238v-.154c0-.093.03-.173.091-.238.065-.065.179-.098.343-.098.163 0 .275.033.336.098a.325.325 0 01.098.238v.154a.325.325 0 01-.098.238c-.061.065-.173.098-.336.098zM191.477 138v-.952h-2.324v-.672l2.044-3.262h1.029v3.318h.686v.616h-.686V138h-.749zm-1.659-1.568h1.659v-2.597h-.042l-1.617 2.597zm3.939 1.568v-.651h1.372v-3.661h-.056l-1.134 1.211-.483-.434 1.246-1.351h1.211v4.235h1.183V138h-3.339zm5.681.07c-.224 0-.383-.047-.476-.14a.478.478 0 01-.133-.343v-.182c0-.135.044-.25.133-.343.093-.093.252-.14.476-.14.224 0 .38.047.469.14.093.093.14.208.14.343v.182c0 .135-.047.25-.14.343-.089.093-.245.14-.469.14zm4.197.014c-.308 0-.576-.056-.805-.168a1.541 1.541 0 01-.56-.497 2.298 2.298 0 01-.322-.791 4.932 4.932 0 01-.105-1.071c0-.397.035-.751.105-1.064.07-.317.177-.583.322-.798.149-.215.336-.378.56-.49.229-.117.497-.175.805-.175.308 0 .574.058.798.175.229.112.415.275.56.49.149.215.259.481.329.798.07.313.105.667.105 1.064 0 .401-.035.758-.105 1.071-.07.313-.18.576-.329.791-.145.215-.331.38-.56.497-.224.112-.49.168-.798.168zm0-.644c.355 0 .607-.131.756-.392.154-.266.231-.623.231-1.071v-.84c0-.448-.077-.803-.231-1.064-.149-.266-.401-.399-.756-.399a.925.925 0 00-.455.105.768.768 0 00-.308.294c-.079.126-.138.28-.175.462a3.31 3.31 0 00-.049.602v.84c0 .224.016.427.049.609.037.177.096.331.175.462a.842.842 0 00.308.294.983.983 0 00.455.098zm0-1.47c-.163 0-.278-.033-.343-.098a.336.336 0 01-.091-.238v-.154c0-.093.03-.173.091-.238.065-.065.18-.098.343-.098.163 0 .275.033.336.098a.325.325 0 01.098.238v.154a.325.325 0 01-.098.238c-.061.065-.173.098-.336.098zm4.197 2.114c-.308 0-.576-.056-.805-.168a1.55 1.55 0 01-.56-.497 2.318 2.318 0 01-.322-.791 4.932 4.932 0 01-.105-1.071c0-.397.035-.751.105-1.064.07-.317.178-.583.322-.798.15-.215.336-.378.56-.49.229-.117.497-.175.805-.175.308 0 .574.058.798.175.229.112.416.275.56.49.15.215.259.481.329.798.07.313.105.667.105 1.064 0 .401-.035.758-.105 1.071a2.21 2.21 0 01-.329.791c-.144.215-.331.38-.56.497-.224.112-.49.168-.798.168zm0-.644c.355 0 .607-.131.756-.392.154-.266.231-.623.231-1.071v-.84c0-.448-.077-.803-.231-1.064-.149-.266-.401-.399-.756-.399a.925.925 0 00-.455.105.775.775 0 00-.308.294c-.079.126-.137.28-.175.462a3.402 3.402 0 00-.049.602v.84c0 .224.017.427.049.609.038.177.096.331.175.462a.85.85 0 00.308.294.983.983 0 00.455.098zm0-1.47c-.163 0-.277-.033-.343-.098a.34.34 0 01-.091-.238v-.154a.34.34 0 01.091-.238c.066-.065.18-.098.343-.098.164 0 .276.033.336.098a.321.321 0 01.098.238v.154a.321.321 0 01-.098.238c-.06.065-.172.098-.336.098zm4.198 2.114c-.308 0-.577-.056-.805-.168a1.541 1.541 0 01-.56-.497 2.298 2.298 0 01-.322-.791 4.932 4.932 0 01-.105-1.071c0-.397.035-.751.105-1.064.07-.317.177-.583.322-.798.149-.215.336-.378.56-.49.228-.117.497-.175.805-.175.308 0 .574.058.798.175.228.112.415.275.56.49.149.215.259.481.329.798.07.313.105.667.105 1.064 0 .401-.035.758-.105 1.071-.07.313-.18.576-.329.791a1.48 1.48 0 01-.56.497c-.224.112-.49.168-.798.168zm0-.644c.354 0 .606-.131.756-.392.154-.266.231-.623.231-1.071v-.84c0-.448-.077-.803-.231-1.064-.15-.266-.402-.399-.756-.399a.922.922 0 00-.455.105.768.768 0 00-.308.294c-.08.126-.138.28-.175.462a3.31 3.31 0 00-.049.602v.84c0 .224.016.427.049.609.037.177.095.331.175.462a.842.842 0 00.308.294.98.98 0 00.455.098zm0-1.47c-.164 0-.278-.033-.343-.098a.336.336 0 01-.091-.238v-.154c0-.093.03-.173.091-.238.065-.065.179-.098.343-.098.163 0 .275.033.336.098a.325.325 0 01.098.238v.154a.325.325 0 01-.098.238c-.061.065-.173.098-.336.098z" fill="#fff"/></g><defs><filter id="filter0_i_333_127" x=".5" y="0" width="236.22" height="166" filterUnits="userSpaceOnUse" color-interpolation-filters="sRGB"><feFlood flood-opacity="0" result="BackgroundImageFix"/><feBlend mode="normal" in="SourceGraphic" in2="BackgroundImageFix" result="shape"/><feColorMatrix in="SourceAlpha" type="matrix" values="0 0 0 0 0 0 0 0 0 0 0 0 0 0 0 0 0 0 127 0" result="hardAlpha"/><feOffset dy="4"/><feGaussianBlur stdDeviation="6"/><feComposite in2="hardAlpha" operator="arithmetic" k2="-1" k3="1"/><feColorMatrix type="matrix" values="0 0 0 0 0.209236 0 0 0 0 0.257983 0 0 0 0 0.383333 0 0 0 0.12 0"/><feBlend mode="normal" in2="shape" result="effect1_innerShadow_333_127"/></filter></defs></svg>