<svg width="225" height="164" viewBox="0 0 225 164" fill="none" xmlns="http://www.w3.org/2000/svg"><rect width="225" height="164" rx="5" fill="#21222C"/><path d="M24.816 142.869v-.447l1.68-1.84c.198-.215.36-.402.488-.561.127-.161.222-.312.283-.453a1.09 1.09 0 00.095-.447.827.827 0 00-.478-.768 1.118 1.118 0 00-.497-.107c-.195 0-.366.04-.512.122a.835.835 0 00-.336.335 1.05 1.05 0 00-.116.507h-.587c0-.298.069-.56.206-.785a1.43 1.43 0 01.562-.527c.239-.126.506-.189.803-.189.298 0 .563.063.793.189.23.126.41.296.542.509.13.214.196.452.196.714 0 .187-.034.37-.102.549a2.42 2.42 0 01-.348.594 10.7 10.7 0 01-.683.796l-1.144 1.223v.04h2.367v.546h-3.212zm5.899.07c-.375 0-.694-.102-.957-.306-.264-.205-.465-.503-.604-.892-.14-.391-.209-.864-.209-1.417 0-.55.07-1.02.209-1.41.14-.391.343-.689.606-.894.265-.208.584-.311.955-.311s.688.103.952.311c.265.205.467.503.606.894.141.39.212.86.212 1.41 0 .553-.07 1.026-.21 1.417-.138.389-.34.687-.603.892a1.518 1.518 0 01-.957.306zm0-.547c.371 0 .66-.179.865-.537.205-.358.308-.868.308-1.531 0-.441-.047-.816-.142-1.126-.092-.31-.227-.546-.402-.709a.89.89 0 00-.63-.243c-.367 0-.655.181-.862.544-.207.361-.31.873-.31 1.534 0 .441.046.815.139 1.124.093.308.226.542.4.703a.905.905 0 00.634.241zm6.721-4.614h.617v3.64c0 .324-.06.6-.18.827-.118.227-.287.4-.504.517a1.585 1.585 0 01-.768.177c-.278 0-.526-.051-.743-.152a1.218 1.218 0 01-.512-.437 1.2 1.2 0 01-.187-.674h.607c0 .144.036.27.107.378a.738.738 0 00.298.249c.126.059.27.089.43.089a.86.86 0 00.453-.112.705.705 0 00.283-.328c.066-.146.1-.324.1-.534v-3.64zm2.896 5.181a1.55 1.55 0 01-.658-.137 1.131 1.131 0 01-.47-.4 1.13 1.13 0 01-.174-.636c0-.219.043-.396.13-.532a.912.912 0 01.345-.324c.144-.077.303-.135.477-.174a6 6 0 01.53-.094c.231-.03.42-.052.564-.067a.88.88 0 00.318-.082c.068-.038.102-.105.102-.199v-.02c0-.245-.067-.436-.202-.572-.132-.136-.333-.203-.604-.203-.28 0-.5.061-.658.183-.16.123-.271.254-.336.393l-.557-.199c.1-.232.232-.412.398-.542.167-.13.35-.222.547-.273a2.27 2.27 0 01.586-.08c.123 0 .264.015.423.045.16.028.316.087.465.177.15.089.276.224.375.405.1.181.15.422.15.726v2.515h-.587v-.517h-.03c-.04.083-.106.172-.199.266a1.134 1.134 0 01-.37.241c-.154.067-.343.1-.565.1zm.09-.527c.232 0 .427-.046.587-.137a.93.93 0 00.487-.808v-.537c-.025.03-.08.058-.164.082a2.747 2.747 0 01-.289.063 14.756 14.756 0 01-.562.074 2.24 2.24 0 00-.427.097.744.744 0 00-.318.196.502.502 0 00-.12.353c0 .204.076.358.227.463.152.103.345.154.579.154zm3.318-1.859v2.296h-.587v-3.818h.567v.597h.05c.09-.194.225-.35.407-.468.183-.119.418-.179.706-.179.259 0 .485.054.679.16.194.104.345.263.452.477.108.212.162.48.162.805v2.426h-.587v-2.386c0-.3-.078-.534-.233-.701-.156-.169-.37-.254-.642-.254-.187 0-.354.041-.502.122a.87.87 0 00-.345.356 1.172 1.172 0 00-.127.567zm59.137 2.296v-.447l1.68-1.84c.197-.215.36-.402.487-.561.128-.161.222-.312.284-.453a1.09 1.09 0 00.094-.447.828.828 0 00-.129-.465.842.842 0 00-.348-.303 1.119 1.119 0 00-.497-.107c-.196 0-.367.04-.512.122a.834.834 0 00-.336.335 1.049 1.049 0 00-.117.507h-.587a1.426 1.426 0 01.769-1.312 1.69 1.69 0 01.803-.189c.298 0 .562.063.792.189.231.126.411.296.542.509.131.214.197.452.197.714 0 .187-.034.37-.102.549a2.401 2.401 0 01-.348.594c-.164.217-.392.483-.684.796l-1.143 1.223v.04h2.366v.546h-3.211zm6.028-5.091v5.091h-.617v-4.444h-.03l-1.243.825v-.626l1.273-.846h.617zm5.471 0h.616v3.64c0 .324-.059.6-.179.827a1.21 1.21 0 01-.504.517 1.584 1.584 0 01-.768.177c-.279 0-.526-.051-.744-.152a1.223 1.223 0 01-.512-.437 1.202 1.202 0 01-.186-.674h.606c0 .144.036.27.107.378a.741.741 0 00.299.249c.126.059.269.089.43.089a.859.859 0 00.452-.112.703.703 0 00.283-.328c.067-.146.1-.324.1-.534v-3.64zm2.896 5.181c-.242 0-.462-.046-.659-.137a1.133 1.133 0 01-.47-.4 1.13 1.13 0 01-.174-.636c0-.219.043-.396.13-.532a.91.91 0 01.345-.324c.144-.077.303-.135.477-.174a6 6 0 01.53-.094c.232-.03.42-.052.564-.067a.876.876 0 00.318-.082c.068-.038.102-.105.102-.199v-.02c0-.245-.067-.436-.201-.572-.133-.136-.334-.203-.604-.203-.28 0-.5.061-.659.183a1.099 1.099 0 00-.336.393l-.556-.199c.099-.232.232-.412.397-.542.168-.13.35-.222.547-.273.199-.053.395-.08.587-.08.123 0 .263.015.422.045.161.028.316.087.465.177.151.089.276.224.376.405.099.181.149.422.149.726v2.515h-.587v-.517h-.03a1.125 1.125 0 01-.569.507c-.154.067-.342.1-.564.1zm.089-.527c.232 0 .428-.046.587-.137a.928.928 0 00.487-.808v-.537c-.025.03-.079.058-.164.082a2.766 2.766 0 01-.288.063 14.868 14.868 0 01-.562.074 2.25 2.25 0 00-.428.097.747.747 0 00-.318.196.504.504 0 00-.119.353c0 .204.075.358.226.463.153.103.346.154.579.154zm3.318-1.859v2.296h-.586v-3.818h.566v.597h.05c.09-.194.225-.35.408-.468.182-.119.417-.179.706-.179.258 0 .484.054.678.16.194.104.345.263.453.477.107.212.161.48.161.805v2.426h-.586v-2.386c0-.3-.078-.534-.234-.701-.156-.169-.37-.254-.641-.254-.188 0-.355.041-.502.122a.873.873 0 00-.346.356 1.179 1.179 0 00-.127.567zm58.205 2.296v-.447l1.681-1.84c.197-.215.359-.402.487-.561.128-.161.222-.312.283-.453a1.09 1.09 0 00.095-.447.828.828 0 00-.129-.465.842.842 0 00-.348-.303 1.123 1.123 0 00-.498-.107c-.195 0-.366.04-.512.122a.831.831 0 00-.335.335 1.049 1.049 0 00-.117.507h-.587c0-.298.069-.56.207-.785.137-.226.324-.401.561-.527.239-.126.507-.189.803-.189.299 0 .563.063.793.189.231.126.411.296.542.509.131.214.197.452.197.714 0 .187-.034.37-.102.549a2.466 2.466 0 01-.348.594c-.164.217-.392.483-.684.796l-1.143 1.223v.04h2.366v.546h-3.212zm4.239 0v-.447l1.68-1.84c.197-.215.36-.402.487-.561.128-.161.222-.312.284-.453a1.09 1.09 0 00.094-.447.828.828 0 00-.129-.465.842.842 0 00-.348-.303 1.119 1.119 0 00-.497-.107c-.196 0-.367.04-.512.122a.834.834 0 00-.336.335 1.049 1.049 0 00-.117.507h-.586c0-.298.068-.56.206-.785.137-.226.325-.401.562-.527a1.69 1.69 0 01.803-.189c.298 0 .562.063.793.189.23.126.411.296.541.509.131.214.197.452.197.714 0 .187-.034.37-.102.549a2.401 2.401 0 01-.348.594c-.164.217-.392.483-.684.796l-1.143 1.223v.04h2.366v.546h-3.211zm8.245-5.091h.617v3.64c0 .324-.06.6-.179.827-.12.227-.288.4-.505.517a1.584 1.584 0 01-.768.177 1.74 1.74 0 01-.743-.152 1.217 1.217 0 01-.512-.437 1.194 1.194 0 01-.187-.674h.607c0 .144.035.27.107.378a.732.732 0 00.298.249c.126.059.269.089.43.089a.859.859 0 00.452-.112.705.705 0 00.284-.328c.066-.146.099-.324.099-.534v-3.64zm2.896 5.181c-.242 0-.462-.046-.659-.137a1.133 1.133 0 01-.47-.4 1.13 1.13 0 01-.174-.636c0-.219.044-.396.13-.532a.91.91 0 01.345-.324c.144-.077.304-.135.478-.174.175-.039.352-.071.529-.094.232-.03.42-.052.564-.067a.876.876 0 00.318-.082c.068-.038.102-.105.102-.199v-.02c0-.245-.067-.436-.201-.572-.133-.136-.334-.203-.604-.203-.28 0-.5.061-.659.183a1.085 1.085 0 00-.335.393l-.557-.199c.099-.232.232-.412.398-.542.167-.13.349-.222.546-.273.199-.053.395-.08.587-.08.123 0 .264.015.423.045.16.028.315.087.465.177.15.089.275.224.375.405.099.181.149.422.149.726v2.515h-.587v-.517h-.029c-.04.083-.107.172-.199.266a1.14 1.14 0 01-.371.241c-.154.067-.342.1-.564.1zm.09-.527c.232 0 .427-.046.586-.137a.928.928 0 00.487-.808v-.537c-.024.03-.079.058-.164.082a2.766 2.766 0 01-.288.063 14.868 14.868 0 01-.562.074c-.152.02-.295.052-.427.097a.75.75 0 00-.319.196.504.504 0 00-.119.353.53.53 0 00.226.463c.153.103.346.154.58.154zm3.317-1.859v2.296h-.586v-3.818h.567v.597h.049a1.1 1.1 0 01.408-.468c.182-.119.418-.179.706-.179.258 0 .485.054.679.16.193.104.344.263.452.477.108.212.162.48.162.805v2.426h-.587v-2.386c0-.3-.078-.534-.234-.701-.156-.169-.369-.254-.641-.254-.187 0-.355.041-.502.122a.873.873 0 00-.346.356 1.179 1.179 0 00-.127.567z" fill="#fff"/><path d="M25.7 108.872c.81-1.318 4.25 1.629 8.458-.043 3.313-1.316 6.195-5.544 10.437-6.822 8.05-2.425 14.621-4.917 18.355-10.708 3.733-5.792 9.337-25.43 16.015-25.43 6.678 0 10.077 10.215 12.597 16.943 2.413 6.445 7.06 21.924 14.575 23.631 8.295 1.884 15.116 13.371 25.013 15.302 5.275 1.029 9.501-.974 14.216-4.086s3.792-4.456 14.396-6.856c8.751-1.98 11.04-8.796 19.615-9.616 8.575-.82 12.541 24.846 21.594 22.703" stroke="#F35183" stroke-width="2" stroke-linecap="round" stroke-linejoin="round"/><path d="M199.271 110.436c-4.451-6.865-4.25 1.629-8.458-.043-3.313-1.316-6.195-5.544-10.437-6.822-7.973 17.982-14.612-2.608-18.355-10.708-3.733-5.792-9.161 31.767-15.84 31.767-34.544-27.842-47.173-18.025-52.36-1.321-5.189 16.704-8.264-20.525-12.979-23.637-4.715-3.113-5.03 15.095-15.634 12.695-8.75-1.98-11.04-8.796-19.614-9.616-8.575-.82-12.54 24.846-21.594 22.703" stroke="#B1B5D3" stroke-width="2" stroke-linecap="round" stroke-linejoin="round"/><line x1="24" y1="51.75" x2="201" y2="51.75" stroke="#fff" stroke-opacity=".4" stroke-width=".5" stroke-dasharray="7 7"/><line x1="24" y1="76.75" x2="201" y2="76.75" stroke="#fff" stroke-opacity=".4" stroke-width=".5" stroke-dasharray="7 7"/><line x1="24" y1="101.75" x2="201" y2="101.75" stroke="#fff" stroke-opacity=".4" stroke-width=".5" stroke-dasharray="7 7"/><line x1="24" y1="127.75" x2="201" y2="127.75" stroke="#fff" stroke-opacity=".4" stroke-width=".5" stroke-dasharray="7 7"/><rect x="24" y="20" width="81" height="6" rx="3" fill="#fff" fill-opacity=".15"/><rect x="24" y="30" width="44" height="6" rx="3" fill="#fff" fill-opacity=".15"/></svg>