<svg width="649" height="575" viewBox="0 0 649 575" fill="none" xmlns="http://www.w3.org/2000/svg"><rect x="78.166" width="570.834" height="373" rx="8" fill="#262833"/><path d="M78.166 6a6 6 0 016-6H643a6 6 0 016 6v26.972H78.166V6z" fill="#2F313C"/><circle cx="98.957" cy="16.857" r="5.545" fill="#6422F1"/><circle cx="114.481" cy="16.857" r="5.545" fill="#F46591"/><circle cx="130.01" cy="16.857" r="5.545" fill="#2BD38D"/><path d="M156.596 321.683v9.455h-1.145v-8.254h-.055l-2.309 1.532v-1.163l2.364-1.57h1.145zm5.729-.129c.388.003.776.077 1.163.222.388.144.742.384 1.062.72.32.332.577.786.771 1.362.194.575.291 1.297.291 2.165 0 .84-.08 1.586-.24 2.239-.157.649-.385 1.197-.683 1.643a3.03 3.03 0 01-1.081 1.016 2.925 2.925 0 01-1.431.346 3.1 3.1 0 01-1.417-.314 2.788 2.788 0 01-1.016-.881 3.086 3.086 0 01-.503-1.316h1.127c.101.434.303.792.604 1.075.305.281.707.421 1.205.421.73 0 1.305-.319 1.727-.956.425-.637.637-1.537.637-2.701h-.074a2.889 2.889 0 01-.614.67c-.237.187-.5.332-.789.434-.29.101-.597.152-.924.152a2.875 2.875 0 01-1.491-.402 3.042 3.042 0 01-1.08-1.112c-.268-.474-.402-1.016-.402-1.625a3.3 3.3 0 01.388-1.588 3.001 3.001 0 011.099-1.154c.474-.287 1.031-.425 1.671-.416zm0 1.016c-.388 0-.737.097-1.048.291-.308.19-.552.449-.734.775a2.193 2.193 0 00-.268 1.076c0 .394.087.752.259 1.075.175.321.414.576.715.767.305.188.651.281 1.039.281a1.973 1.973 0 001.477-.646 2.3 2.3 0 00.448-.688c.108-.258.162-.528.162-.808 0-.369-.089-.715-.268-1.038a2.121 2.121 0 00-.729-.785 1.89 1.89 0 00-1.053-.3zm12.544-.887h1.145v6.759c0 .603-.111 1.116-.332 1.537a2.256 2.256 0 01-.937.96c-.404.219-.879.328-1.427.328-.517 0-.977-.094-1.38-.281a2.279 2.279 0 01-.951-.813c-.231-.351-.347-.768-.347-1.251h1.127c0 .268.066.502.198.702.136.197.32.351.554.461.234.111.501.167.799.167.329 0 .609-.07.84-.208.231-.139.406-.342.527-.61.123-.27.184-.601.184-.992v-6.759zm5.378 9.621c-.449 0-.857-.085-1.223-.254a2.095 2.095 0 01-.872-.743c-.216-.326-.324-.72-.324-1.182 0-.406.08-.735.24-.988.16-.255.374-.455.642-.6a3.37 3.37 0 01.886-.323c.327-.074.654-.132.984-.175.431-.056.78-.097 1.048-.125.271-.031.468-.082.591-.152.126-.071.189-.194.189-.37v-.037c0-.455-.125-.809-.374-1.062-.246-.252-.62-.378-1.122-.378-.52 0-.928.114-1.223.342-.296.227-.503.47-.623.729l-1.035-.369c.185-.431.431-.767.739-1.007a2.777 2.777 0 011.016-.508 4.23 4.23 0 011.089-.147c.228 0 .49.027.785.083.299.052.586.161.863.328.28.166.513.417.697.752.185.336.277.785.277 1.348v4.672h-1.089v-.96h-.056a1.889 1.889 0 01-.369.494 2.124 2.124 0 01-.688.447c-.286.124-.635.185-1.048.185zm.167-.979c.43 0 .794-.084 1.089-.253a1.731 1.731 0 00.905-1.501v-.997c-.046.055-.148.106-.305.152a5.192 5.192 0 01-.535.116 25.025 25.025 0 01-1.044.138 4.19 4.19 0 00-.794.18c-.243.08-.44.202-.591.365-.147.16-.221.379-.221.656 0 .378.14.664.42.858.283.191.642.286 1.076.286zm6.161-3.453v4.266h-1.089v-7.091h1.052v1.108h.093c.166-.36.418-.649.757-.868.338-.222.775-.332 1.311-.332.48 0 .9.098 1.26.295.36.194.64.49.84.887.201.393.301.892.301 1.495v4.506h-1.09v-4.432c0-.557-.145-.991-.434-1.302-.289-.314-.686-.471-1.191-.471-.348 0-.659.076-.932.227-.271.15-.485.37-.642.66-.157.289-.236.64-.236 1.052zm50.508 4.266v-.831l3.121-3.416c.366-.4.668-.748.905-1.044.237-.298.412-.578.526-.84.117-.264.175-.541.175-.831 0-.332-.08-.62-.24-.863a1.554 1.554 0 00-.646-.563 2.087 2.087 0 00-.923-.199c-.363 0-.68.076-.951.226a1.553 1.553 0 00-.623.624 1.943 1.943 0 00-.217.941h-1.09c0-.553.128-1.04.383-1.458a2.667 2.667 0 011.044-.979c.443-.234.94-.351 1.491-.351.554 0 1.045.117 1.472.351.428.234.764.549 1.007.946.243.397.364.839.364 1.325 0 .348-.063.688-.189 1.021-.123.329-.338.697-.646 1.103-.305.403-.728.895-1.27 1.477l-2.123 2.271v.074h4.395v1.016h-5.965zm10.955.129c-.695 0-1.288-.189-1.777-.568-.49-.381-.864-.934-1.122-1.657-.259-.726-.388-1.603-.388-2.631 0-1.022.129-1.895.388-2.618.262-.726.637-1.28 1.126-1.662.493-.385 1.084-.577 1.773-.577.689 0 1.279.192 1.768.577.493.382.868.936 1.127 1.662.261.723.392 1.596.392 2.618 0 1.028-.129 1.905-.388 2.631-.258.723-.632 1.276-1.122 1.657-.489.379-1.081.568-1.777.568zm0-1.015c.689 0 1.225-.333 1.607-.998.381-.664.572-1.612.572-2.843 0-.819-.088-1.516-.263-2.092-.172-.575-.422-1.014-.748-1.315a1.649 1.649 0 00-1.168-.453c-.683 0-1.217.337-1.602 1.011-.385.671-.577 1.621-.577 2.849 0 .818.086 1.514.259 2.086.172.573.42 1.008.743 1.307.326.298.719.448 1.177.448zm12.483-8.569h1.145v6.759c0 .603-.111 1.116-.332 1.537a2.253 2.253 0 01-.938.96c-.403.219-.878.328-1.426.328-.517 0-.977-.094-1.38-.281a2.267 2.267 0 01-.951-.813c-.231-.351-.347-.768-.347-1.251h1.127c0 .268.066.502.198.702.136.197.32.351.554.461.234.111.5.167.799.167.329 0 .609-.07.84-.208.231-.139.406-.342.526-.61.123-.27.185-.601.185-.992v-6.759zm5.378 9.621c-.449 0-.857-.085-1.223-.254a2.104 2.104 0 01-.873-.743c-.215-.326-.323-.72-.323-1.182 0-.406.08-.735.24-.988.16-.255.374-.455.642-.6a3.37 3.37 0 01.886-.323c.327-.074.654-.132.984-.175.43-.056.78-.097 1.048-.125.27-.031.467-.082.59-.152.127-.071.19-.194.19-.37v-.037c0-.455-.125-.809-.374-1.062-.246-.252-.62-.378-1.122-.378-.52 0-.928.114-1.223.342-.296.227-.504.47-.624.729l-1.034-.369c.185-.431.431-.767.739-1.007a2.777 2.777 0 011.016-.508 4.23 4.23 0 011.089-.147c.228 0 .489.027.785.083.298.052.586.161.863.328.28.166.513.417.697.752.185.336.277.785.277 1.348v4.672h-1.089v-.96h-.056a1.935 1.935 0 01-.369.494 2.135 2.135 0 01-.688.447c-.286.124-.635.185-1.048.185zm.166-.979c.431 0 .794-.084 1.09-.253.298-.17.523-.388.674-.656a1.67 1.67 0 00.231-.845v-.997c-.046.055-.148.106-.305.152a5.192 5.192 0 01-.535.116 25.025 25.025 0 01-1.044.138 4.173 4.173 0 00-.794.18c-.243.08-.44.202-.591.365-.147.16-.221.379-.221.656 0 .378.14.664.42.858.283.191.641.286 1.075.286zm6.162-3.453v4.266h-1.089v-7.091h1.052v1.108h.093c.166-.36.418-.649.757-.868.338-.222.775-.332 1.311-.332.48 0 .9.098 1.26.295.36.194.64.49.84.887.2.393.3.892.3 1.495v4.506h-1.089v-4.432c0-.557-.145-.991-.434-1.302-.289-.314-.686-.471-1.191-.471a1.9 1.9 0 00-.933.227c-.27.15-.484.37-.641.66-.157.289-.236.64-.236 1.052zm48.692 4.266v-.831l3.121-3.416c.366-.4.668-.748.905-1.044.237-.298.412-.578.526-.84.117-.264.175-.541.175-.831 0-.332-.08-.62-.24-.863a1.554 1.554 0 00-.646-.563 2.087 2.087 0 00-.923-.199c-.363 0-.68.076-.951.226a1.553 1.553 0 00-.623.624 1.943 1.943 0 00-.217.941h-1.09c0-.553.128-1.04.383-1.458a2.66 2.66 0 011.044-.979c.443-.234.94-.351 1.491-.351.554 0 1.045.117 1.472.351.428.234.764.549 1.007.946.243.397.364.839.364 1.325 0 .348-.063.688-.189 1.021-.123.329-.338.697-.646 1.103-.305.403-.728.895-1.27 1.477l-2.123 2.271v.074h4.395v1.016h-5.965zm11.195-9.455v9.455h-1.145v-8.254h-.055l-2.308 1.532v-1.163l2.363-1.57h1.145zm10.161 0h1.145v6.759c0 .603-.111 1.116-.333 1.537a2.25 2.25 0 01-.937.96c-.403.219-.878.328-1.426.328-.517 0-.977-.094-1.381-.281a2.279 2.279 0 01-.951-.813c-.23-.351-.346-.768-.346-1.251h1.127c0 .268.066.502.198.702.136.197.32.351.554.461.234.111.5.167.799.167.329 0 .609-.07.84-.208.231-.139.406-.342.526-.61.123-.27.185-.601.185-.992v-6.759zm5.378 9.621c-.449 0-.857-.085-1.223-.254a2.104 2.104 0 01-.873-.743c-.215-.326-.323-.72-.323-1.182 0-.406.08-.735.24-.988.16-.255.374-.455.642-.6a3.37 3.37 0 01.886-.323c.326-.074.654-.132.984-.175.43-.056.78-.097 1.047-.125.271-.031.468-.082.591-.152.127-.071.19-.194.19-.37v-.037c0-.455-.125-.809-.374-1.062-.246-.252-.62-.378-1.122-.378-.52 0-.928.114-1.223.342-.296.227-.504.47-.624.729l-1.034-.369c.185-.431.431-.767.739-1.007a2.78 2.78 0 011.015-.508c.37-.098.733-.147 1.09-.147.228 0 .489.027.785.083.298.052.586.161.863.328.28.166.512.417.697.752.185.336.277.785.277 1.348v4.672h-1.089v-.96h-.056a1.935 1.935 0 01-.369.494 2.135 2.135 0 01-.688.447c-.286.124-.635.185-1.048.185zm.166-.979c.431 0 .794-.084 1.09-.253.298-.17.523-.388.674-.656a1.67 1.67 0 00.231-.845v-.997c-.047.055-.148.106-.305.152a5.157 5.157 0 01-.536.116 24.954 24.954 0 01-1.043.138 4.173 4.173 0 00-.794.18c-.243.08-.44.202-.591.365-.148.16-.221.379-.221.656 0 .378.14.664.42.858.283.191.641.286 1.075.286zm6.162-3.453v4.266h-1.089v-7.091h1.052v1.108h.093c.166-.36.418-.649.757-.868.338-.222.775-.332 1.311-.332.48 0 .9.098 1.26.295.36.194.64.49.84.887.2.393.3.892.3 1.495v4.506h-1.089v-4.432c0-.557-.145-.991-.434-1.302-.289-.314-.686-.471-1.191-.471a1.9 1.9 0 00-.933.227c-.271.15-.484.37-.641.66-.157.289-.236.64-.236 1.052zM115.269 120.16v-.954l2.953-3.06c.316-.332.576-.624.78-.874.208-.252.362-.492.465-.72.102-.227.153-.468.153-.724 0-.29-.068-.54-.205-.75a1.329 1.329 0 00-.558-.49 1.768 1.768 0 00-.797-.175c-.312 0-.585.064-.818.192a1.314 1.314 0 00-.537.541 1.706 1.706 0 00-.187.818h-1.257c0-.531.122-.996.366-1.393a2.49 2.49 0 011.006-.925c.426-.222.91-.332 1.453-.332.548 0 1.031.109 1.449.328.42.216.748.511.984.886.236.372.354.793.354 1.261 0 .324-.061.641-.183.951-.12.309-.328.655-.627 1.035-.298.378-.713.837-1.244 1.377l-1.734 1.815v.064h3.928v1.129h-5.744zm10.24.12a3.293 3.293 0 01-1.44-.307 2.625 2.625 0 01-1.014-.853 2.244 2.244 0 01-.405-1.235h1.278c.032.375.198.683.499.924.301.242.662.363 1.082.363a1.642 1.642 0 001.504-.874c.151-.273.226-.584.226-.933 0-.355-.076-.672-.23-.951a1.697 1.697 0 00-.635-.656 1.796 1.796 0 00-.92-.243c-.264 0-.53.046-.797.137-.267.091-.483.21-.648.358l-1.206-.179.49-4.398h4.799v1.129h-3.704l-.276 2.442h.051c.17-.165.396-.303.677-.413.284-.111.588-.167.912-.167a2.671 2.671 0 012.404 1.415c.241.435.36.935.357 1.5a2.918 2.918 0 01-.383 1.513 2.778 2.778 0 01-1.065 1.048c-.452.253-.971.38-1.556.38zm4.68-8.847h1.598l2.779 6.784h.102l2.778-6.784h1.598v8.727h-1.252v-6.315h-.081l-2.574 6.302h-1.04l-2.574-6.306h-.081v6.319h-1.253v-8.727zm-15.225 53.59v-.955l2.954-3.06c.315-.332.575-.623.779-.873.208-.253.363-.493.465-.72.102-.228.153-.469.153-.725 0-.29-.068-.54-.204-.75a1.348 1.348 0 00-.558-.49 1.784 1.784 0 00-.797-.175c-.313 0-.586.064-.818.192a1.314 1.314 0 00-.537.541 1.706 1.706 0 00-.188.818h-1.257c0-.531.122-.995.366-1.393.245-.398.58-.706 1.006-.925a3.111 3.111 0 011.453-.332c.549 0 1.032.109 1.449.328.421.216.749.511.984.886.236.373.354.793.354 1.262 0 .324-.061.64-.183.95-.119.31-.328.655-.626 1.036-.299.377-.714.836-1.245 1.376l-1.734 1.815v.064h3.929v1.13h-5.745zm10.398.144c-.673-.002-1.248-.18-1.726-.532-.477-.353-.842-.865-1.095-1.539-.253-.673-.379-1.484-.379-2.433 0-.946.126-1.754.379-2.425.256-.67.622-1.181 1.1-1.534.48-.352 1.054-.528 1.721-.528.668 0 1.24.177 1.718.533.477.352.842.863 1.095 1.534.255.667.383 1.474.383 2.42 0 .952-.126 1.764-.379 2.438-.253.67-.618 1.183-1.095 1.538-.477.352-1.051.528-1.722.528zm0-1.137c.591 0 1.053-.289 1.385-.865.335-.577.503-1.411.503-2.502 0-.724-.077-1.337-.23-1.837-.151-.502-.368-.883-.652-1.142a1.429 1.429 0 00-1.006-.392c-.588 0-1.049.29-1.385.87-.335.579-.504 1.413-.507 2.501 0 .727.075 1.342.226 1.845.153.5.371.88.652 1.138.281.256.619.384 1.014.384zm4.827-7.735h1.598l2.779 6.784h.102l2.778-6.784h1.598v8.728h-1.252v-6.316h-.081l-2.574 6.303h-1.04l-2.574-6.307h-.081v6.32h-1.253v-8.728zm-10.781 44.862v8.728h-1.321v-7.406h-.051l-2.088 1.363v-1.261l2.178-1.424h1.282zm5.242 8.847a3.279 3.279 0 01-1.44-.307 2.61 2.61 0 01-1.015-.852 2.258 2.258 0 01-.405-1.236h1.279c.031.375.197.683.498.925.302.241.662.362 1.083.362.335 0 .632-.077.89-.23.262-.156.466-.371.614-.643.151-.273.226-.584.226-.934 0-.355-.077-.672-.23-.95a1.704 1.704 0 00-.635-.656 1.797 1.797 0 00-.921-.243c-.264 0-.529.045-.796.136-.267.091-.483.21-.648.358l-1.206-.179.49-4.398h4.798v1.13h-3.703l-.277 2.442h.051c.171-.165.397-.303.678-.414.284-.111.588-.166.912-.166a2.67 2.67 0 012.403 1.415c.242.434.361.934.358 1.5a2.923 2.923 0 01-.383 1.513 2.781 2.781 0 01-1.066 1.048c-.451.253-.97.379-1.555.379zm4.68-8.847h1.598l2.778 6.785h.103l2.778-6.785h1.598v8.728h-1.253v-6.316h-.081l-2.574 6.303h-1.039l-2.574-6.307h-.081v6.32h-1.253v-8.728zm-9.405 44.863v8.727h-1.321v-7.406h-.051l-2.088 1.363v-1.261l2.177-1.423h1.283zm5.399 8.872c-.673-.003-1.248-.18-1.726-.533-.477-.352-.842-.865-1.095-1.538s-.379-1.484-.379-2.433c0-.946.126-1.755.379-2.425.256-.67.622-1.182 1.1-1.534.48-.352 1.054-.529 1.721-.529.668 0 1.24.178 1.717.533.478.352.843.864 1.096 1.534.255.668.383 1.475.383 2.421 0 .951-.126 1.764-.379 2.437-.253.671-.618 1.183-1.095 1.539-.478.352-1.051.528-1.722.528zm0-1.138c.591 0 1.053-.288 1.385-.865.335-.577.503-1.41.503-2.501 0-.725-.077-1.337-.23-1.837-.151-.503-.368-.883-.652-1.142a1.429 1.429 0 00-1.006-.392c-.588 0-1.05.29-1.385.869-.335.58-.504 1.414-.507 2.502 0 .727.075 1.342.226 1.845.153.5.371.879.652 1.138.281.255.619.383 1.014.383zm4.827-7.734h1.598l2.779 6.784h.102l2.778-6.784h1.598v8.727h-1.253v-6.315h-.081l-2.573 6.302h-1.04l-2.574-6.307h-.081v6.32h-1.253v-8.727zm-4.809 53.709a3.293 3.293 0 01-1.44-.307 2.632 2.632 0 01-1.014-.852 2.25 2.25 0 01-.405-1.236h1.278c.032.375.198.683.499.925.301.241.662.362 1.082.362.335 0 .632-.077.891-.23.261-.157.466-.371.614-.644.15-.273.225-.584.225-.933 0-.355-.076-.672-.23-.95a1.693 1.693 0 00-.635-.657 1.796 1.796 0 00-.92-.243c-.264 0-.53.046-.797.137-.267.091-.483.21-.648.358l-1.206-.179.49-4.398h4.799v1.129h-3.703l-.277 2.442h.051a2.03 2.03 0 01.677-.413c.284-.111.588-.166.912-.166a2.67 2.67 0 012.404 1.414c.241.435.36.935.358 1.5.002.566-.125 1.07-.384 1.513a2.778 2.778 0 01-1.065 1.048c-.452.253-.971.38-1.556.38zm4.68-8.847h1.598l2.779 6.784h.102l2.778-6.784h1.598v8.727h-1.252v-6.315h-.081l-2.574 6.303h-1.04l-2.574-6.307h-.081v6.319h-1.253v-8.727z" fill="#fff"/><path d="M154.003 294.663h459.804m-459.804-45.196h459.804m-459.804-45.196h459.804m-459.804-45.196h459.804m-459.802-45.196h459.803" stroke="#3D3F4D" stroke-linecap="square" stroke-dasharray="6 6"/><path d="M607.682 229.669c-11.488-9.659-25.538-20.578-32.689-5.494-7.15 15.085-11.015 29.147-21.962 27.35-20.576 25.298-49.589-15.953-59.248-27.35-12.769 0-22.604-10.752-39.839-10.752-52.608-39.545-58.737-39.097-81.21-34.368-22.473 4.729-41.461-35.307-53.63-39.686-12.168-4.379-18.601 104.603-45.968 101.228-22.584-2.786-18.219 25.885-40.349 24.731-22.131-1.154-53.249 31.197-76.614 28.183" stroke="url(#paint0_linear_85_1609)" stroke-width="9" stroke-linecap="round" stroke-linejoin="round"/><path d="M403.739 331.138v-.831l3.121-3.416c.366-.4.668-.748.905-1.044.237-.298.412-.578.526-.84a2.03 2.03 0 00.176-.831c0-.332-.08-.62-.24-.863a1.557 1.557 0 00-.647-.563 2.084 2.084 0 00-.923-.199c-.363 0-.68.076-.951.226a1.559 1.559 0 00-.623.624 1.943 1.943 0 00-.217.941h-1.09c0-.553.128-1.04.384-1.458a2.657 2.657 0 011.043-.979c.443-.234.94-.351 1.491-.351.554 0 1.045.117 1.473.351.427.234.763.549 1.006.946.243.397.365.839.365 1.325 0 .348-.063.688-.19 1.021-.123.329-.338.697-.646 1.103a20.03 20.03 0 01-1.269 1.477l-2.124 2.271v.074h4.395v1.016h-5.965zm7.872 0v-.831l3.12-3.416c.367-.4.668-.748.905-1.044.237-.298.413-.578.526-.84a2.03 2.03 0 00.176-.831c0-.332-.08-.62-.24-.863a1.557 1.557 0 00-.647-.563 2.08 2.08 0 00-.923-.199c-.363 0-.68.076-.951.226a1.559 1.559 0 00-.623.624 1.943 1.943 0 00-.217.941h-1.09c0-.553.128-1.04.384-1.458a2.657 2.657 0 011.043-.979c.443-.234.94-.351 1.491-.351.554 0 1.045.117 1.473.351.428.234.763.549 1.006.946.243.397.365.839.365 1.325 0 .348-.063.688-.189 1.021-.124.329-.339.697-.647 1.103-.304.403-.728.895-1.269 1.477l-2.124 2.271v.074h4.395v1.016h-5.964zm15.312-9.455h1.145v6.759c0 .603-.111 1.116-.332 1.537a2.256 2.256 0 01-.937.96c-.403.219-.879.328-1.427.328-.517 0-.977-.094-1.38-.281a2.279 2.279 0 01-.951-.813c-.231-.351-.346-.768-.346-1.251h1.126c0 .268.066.502.199.702.135.197.32.351.554.461.233.111.5.167.798.167.33 0 .61-.07.84-.208.231-.139.407-.342.527-.61.123-.27.184-.601.184-.992v-6.759zm5.379 9.621c-.45 0-.858-.085-1.224-.254a2.095 2.095 0 01-.872-.743c-.216-.326-.323-.72-.323-1.182 0-.406.08-.735.24-.988.16-.255.374-.455.641-.6.268-.145.564-.252.887-.323.326-.074.654-.132.983-.175.431-.056.78-.097 1.048-.125.271-.031.468-.082.591-.152.126-.071.189-.194.189-.37v-.037c0-.455-.125-.809-.374-1.062-.246-.252-.62-.378-1.122-.378-.52 0-.928.114-1.223.342-.295.227-.503.47-.623.729l-1.034-.369c.184-.431.431-.767.738-1.007.311-.243.65-.412 1.016-.508a4.23 4.23 0 011.089-.147c.228 0 .49.027.785.083.299.052.587.161.864.328.28.166.512.417.697.752.184.336.277.785.277 1.348v4.672h-1.09v-.96h-.055a1.918 1.918 0 01-.37.494 2.13 2.13 0 01-.687.447c-.287.124-.636.185-1.048.185zm.166-.979c.431 0 .794-.084 1.089-.253a1.731 1.731 0 00.905-1.501v-.997c-.046.055-.148.106-.305.152a5.134 5.134 0 01-.535.116 25.724 25.724 0 01-1.043.138 4.156 4.156 0 00-.794.18 1.36 1.36 0 00-.591.365c-.148.16-.222.379-.222.656 0 .378.14.664.42.858.283.191.642.286 1.076.286zm6.162-3.453v4.266h-1.09v-7.091h1.053v1.108h.092a2.03 2.03 0 01.757-.868c.339-.222.776-.332 1.311-.332.48 0 .9.098 1.26.295.361.194.641.49.841.887.2.393.3.892.3 1.495v4.506h-1.09v-4.432c0-.557-.144-.991-.434-1.302-.289-.314-.686-.471-1.191-.471a1.9 1.9 0 00-.932.227c-.271.15-.485.37-.642.66-.157.289-.235.64-.235 1.052zm49.67 4.266v-.831l3.121-3.416c.366-.4.668-.748.905-1.044.237-.298.412-.578.526-.84.117-.264.175-.541.175-.831 0-.332-.08-.62-.24-.863a1.554 1.554 0 00-.646-.563 2.087 2.087 0 00-.923-.199c-.364 0-.681.076-.951.226a1.561 1.561 0 00-.624.624 1.955 1.955 0 00-.217.941h-1.089c0-.553.128-1.04.383-1.458a2.664 2.664 0 011.043-.979 3.15 3.15 0 011.492-.351c.554 0 1.044.117 1.472.351.428.234.763.549 1.007.946.243.397.364.839.364 1.325 0 .348-.063.688-.189 1.021-.123.329-.339.697-.646 1.103-.305.403-.728.895-1.27 1.477l-2.123 2.271v.074h4.394v1.016H488.3zm11.066.129c-.61 0-1.153-.104-1.63-.314a2.79 2.79 0 01-1.131-.872 2.342 2.342 0 01-.452-1.307h1.163c.025.305.129.568.314.79.185.218.426.388.725.508.298.12.629.18.992.18.406 0 .767-.071 1.08-.213.314-.141.561-.338.739-.591.179-.252.268-.544.268-.877 0-.348-.086-.654-.259-.919a1.704 1.704 0 00-.757-.627c-.332-.151-.738-.227-1.219-.227h-.757v-1.015h.757c.376 0 .705-.068.988-.203a1.59 1.59 0 00.67-.573c.163-.246.244-.535.244-.868 0-.32-.07-.598-.212-.835a1.45 1.45 0 00-.6-.554 1.933 1.933 0 00-.905-.199c-.326 0-.634.06-.923.18-.286.117-.52.288-.702.513-.181.221-.28.489-.295.803h-1.108c.018-.495.167-.929.448-1.302a2.82 2.82 0 011.098-.877 3.558 3.558 0 011.501-.314c.584 0 1.086.119 1.505.356.418.234.74.543.964.928.225.384.337.8.337 1.246 0 .532-.14.986-.42 1.362a2.133 2.133 0 01-1.131.78v.074c.597.098 1.064.352 1.399.762.336.406.503.909.503 1.509 0 .514-.14.976-.42 1.385a2.855 2.855 0 01-1.135.96c-.481.234-1.027.351-1.639.351zm12.524-9.584h1.145v6.759c0 .603-.111 1.116-.332 1.537a2.256 2.256 0 01-.937.96c-.404.219-.879.328-1.427.328-.517 0-.977-.094-1.38-.281a2.279 2.279 0 01-.951-.813c-.231-.351-.347-.768-.347-1.251h1.127c0 .268.066.502.198.702.136.197.32.351.554.461.234.111.501.167.799.167.329 0 .609-.07.84-.208.231-.139.406-.342.527-.61.123-.27.184-.601.184-.992v-6.759zm5.378 9.621c-.449 0-.857-.085-1.223-.254a2.104 2.104 0 01-.873-.743c-.215-.326-.323-.72-.323-1.182 0-.406.08-.735.24-.988.16-.255.374-.455.642-.6a3.37 3.37 0 01.886-.323c.327-.074.654-.132.984-.175.431-.056.78-.097 1.048-.125.271-.031.468-.082.591-.152.126-.071.189-.194.189-.37v-.037c0-.455-.125-.809-.374-1.062-.246-.252-.62-.378-1.122-.378-.52 0-.928.114-1.223.342-.296.227-.503.47-.623.729l-1.035-.369c.185-.431.431-.767.739-1.007a2.777 2.777 0 011.016-.508 4.23 4.23 0 011.089-.147c.228 0 .49.027.785.083.299.052.586.161.863.328.28.166.513.417.697.752.185.336.277.785.277 1.348v4.672h-1.089v-.96h-.056a1.889 1.889 0 01-.369.494 2.124 2.124 0 01-.688.447c-.286.124-.635.185-1.048.185zm.167-.979c.43 0 .794-.084 1.089-.253a1.731 1.731 0 00.905-1.501v-.997c-.046.055-.148.106-.305.152a5.192 5.192 0 01-.535.116 25.025 25.025 0 01-1.044.138 4.19 4.19 0 00-.794.18c-.243.08-.44.202-.591.365-.147.16-.221.379-.221.656 0 .378.14.664.42.858.283.191.642.286 1.076.286zm6.161-3.453v4.266h-1.089v-7.091h1.052v1.108h.093c.166-.36.418-.649.757-.868.338-.222.775-.332 1.311-.332.48 0 .9.098 1.26.295.36.194.64.49.84.887.201.393.301.892.301 1.495v4.506h-1.09v-4.432c0-.557-.145-.991-.434-1.302-.289-.314-.686-.471-1.191-.471-.348 0-.659.076-.932.227-.271.15-.485.37-.642.66-.157.289-.236.64-.236 1.052zm48.539 4.266v-.831l3.121-3.416c.366-.4.668-.748.905-1.044.237-.298.412-.578.526-.84a2.03 2.03 0 00.176-.831c0-.332-.08-.62-.24-.863a1.557 1.557 0 00-.647-.563 2.084 2.084 0 00-.923-.199c-.363 0-.68.076-.951.226a1.559 1.559 0 00-.623.624 1.943 1.943 0 00-.217.941h-1.09c0-.553.128-1.04.384-1.458a2.657 2.657 0 011.043-.979c.443-.234.94-.351 1.491-.351.554 0 1.045.117 1.473.351.427.234.763.549 1.006.946.243.397.365.839.365 1.325 0 .348-.063.688-.19 1.021-.123.329-.338.697-.646 1.103a20.03 20.03 0 01-1.269 1.477l-2.124 2.271v.074h4.395v1.016h-5.965zm7.447-1.939v-.942l4.155-6.574h.683v1.459h-.462l-3.139 4.968v.073h5.595v1.016h-6.832zm4.45 1.939v-9.455h1.09v9.455h-1.09zm11.554-9.455h1.145v6.759c0 .603-.111 1.116-.333 1.537a2.245 2.245 0 01-.937.96c-.403.219-.878.328-1.426.328-.517 0-.977-.094-1.38-.281a2.267 2.267 0 01-.951-.813c-.231-.351-.347-.768-.347-1.251h1.127c0 .268.066.502.198.702.136.197.32.351.554.461.234.111.5.167.799.167.329 0 .609-.07.84-.208.231-.139.406-.342.526-.61.123-.27.185-.601.185-.992v-6.759zm5.378 9.621c-.449 0-.857-.085-1.223-.254a2.104 2.104 0 01-.873-.743c-.215-.326-.323-.72-.323-1.182 0-.406.08-.735.24-.988.16-.255.374-.455.642-.6a3.37 3.37 0 01.886-.323c.326-.074.654-.132.984-.175.43-.056.78-.097 1.048-.125.27-.031.467-.082.59-.152.127-.071.19-.194.19-.37v-.037c0-.455-.125-.809-.374-1.062-.246-.252-.62-.378-1.122-.378-.52 0-.928.114-1.223.342-.296.227-.504.47-.624.729l-1.034-.369c.185-.431.431-.767.739-1.007a2.777 2.777 0 011.016-.508 4.23 4.23 0 011.089-.147c.228 0 .489.027.785.083.298.052.586.161.863.328.28.166.513.417.697.752.185.336.277.785.277 1.348v4.672h-1.089v-.96h-.056a1.935 1.935 0 01-.369.494 2.135 2.135 0 01-.688.447c-.286.124-.635.185-1.048.185zm.166-.979c.431 0 .794-.084 1.09-.253.298-.17.523-.388.674-.656a1.67 1.67 0 00.231-.845v-.997c-.046.055-.148.106-.305.152a5.157 5.157 0 01-.536.116 24.954 24.954 0 01-1.043.138 4.173 4.173 0 00-.794.18c-.243.08-.44.202-.591.365-.148.16-.221.379-.221.656 0 .378.14.664.42.858.283.191.641.286 1.075.286zm6.162-3.453v4.266h-1.089v-7.091h1.052v1.108h.093c.166-.36.418-.649.757-.868.338-.222.775-.332 1.311-.332.48 0 .9.098 1.26.295.36.194.64.49.84.887.2.393.3.892.3 1.495v4.506h-1.089v-4.432c0-.557-.145-.991-.434-1.302-.289-.314-.686-.471-1.191-.471a1.9 1.9 0 00-.933.227c-.27.15-.484.37-.641.66-.157.289-.236.64-.236 1.052zM124.94 64.126v11.636h-1.875l-5.483-7.926h-.097v7.927h-2.108V64.126h1.887l5.477 7.932h.102v-7.932h2.097zm7.768 7.966v-5.057h2.057v8.728h-1.994V74.21h-.091a2.624 2.624 0 01-.972 1.2c-.447.31-.998.465-1.653.465-.572 0-1.078-.127-1.517-.38a2.643 2.643 0 01-1.023-1.12c-.246-.492-.369-1.087-.369-1.784v-5.557h2.057v5.239c0 .553.151.992.454 1.318.303.326.701.489 1.193.489.303 0 .597-.074.881-.222.284-.148.517-.367.699-.659.185-.296.278-.665.278-1.108zm4.172 3.67v-8.727h1.966v1.483h.102c.182-.5.483-.89.904-1.17.42-.284.922-.427 1.505-.427.591 0 1.089.144 1.495.432.409.285.697.673.863 1.165h.091c.193-.485.519-.871.977-1.159.463-.292 1.01-.438 1.643-.438.803 0 1.458.254 1.965.762.508.507.762 1.248.762 2.221v5.859h-2.063v-5.54c0-.542-.144-.938-.432-1.188-.287-.254-.64-.38-1.056-.38-.497 0-.885.155-1.165.465-.277.307-.415.707-.415 1.2v5.443h-2.017v-5.626c0-.45-.136-.81-.409-1.08-.269-.268-.621-.403-1.057-.403-.295 0-.564.076-.807.228a1.587 1.587 0 00-.579.63 1.969 1.969 0 00-.216.944v5.306h-2.057zm14.45 0V64.127h2.057v4.352h.085a3.81 3.81 0 01.449-.676c.193-.242.455-.449.784-.62.33-.173.75-.26 1.262-.26.674 0 1.282.172 1.824.517.545.34.977.846 1.295 1.517.322.666.483 1.484.483 2.454 0 .959-.157 1.773-.472 2.443-.314.67-.742 1.182-1.284 1.535a3.3 3.3 0 01-1.841.528c-.5 0-.914-.084-1.244-.25a2.528 2.528 0 01-.795-.602 3.914 3.914 0 01-.461-.676h-.119v1.374h-2.023zm2.017-4.363c0 .564.08 1.058.239 1.483.163.424.396.755.699.994.307.235.678.352 1.114.352.454 0 .835-.12 1.142-.363.306-.246.537-.582.693-1.006.159-.428.238-.915.238-1.46 0-.542-.077-1.023-.233-1.443-.155-.42-.386-.75-.693-.989-.307-.239-.689-.358-1.147-.358-.44 0-.813.116-1.12.347-.307.23-.54.555-.699.971-.155.417-.233.907-.233 1.472zm11.834 4.534c-.875 0-1.63-.182-2.267-.546a3.698 3.698 0 01-1.46-1.556c-.341-.675-.511-1.468-.511-2.381 0-.898.17-1.686.511-2.364a3.872 3.872 0 011.443-1.59c.618-.383 1.343-.575 2.176-.575.538 0 1.046.088 1.523.262.481.17.905.435 1.273.795.371.36.663.819.875 1.375.212.553.318 1.213.318 1.978v.63h-7.154v-1.386h5.182a2.21 2.21 0 00-.255-1.051c-.167-.31-.4-.555-.699-.733a1.965 1.965 0 00-1.034-.267c-.421 0-.79.102-1.108.307-.318.2-.567.465-.745.795a2.294 2.294 0 00-.267 1.074v1.21c0 .508.093.943.279 1.307.185.36.445.636.778.83.333.189.724.284 1.171.284.299 0 .57-.042.812-.125a1.8 1.8 0 00.631-.381c.178-.167.312-.373.403-.62l1.921.216a3.003 3.003 0 01-.694 1.33 3.373 3.373 0 01-1.295.875c-.527.205-1.129.307-1.807.307zm5.621-.17v-8.728h1.994v1.455h.091c.159-.504.432-.892.818-1.165a2.25 2.25 0 011.336-.415c.113 0 .24.006.38.017a2.6 2.6 0 01.358.04v1.892a2.153 2.153 0 00-.415-.08 3.804 3.804 0 00-.539-.04c-.375 0-.712.082-1.012.245-.295.16-.528.38-.699.665-.17.284-.255.612-.255.983v5.13h-2.057zm14.119.17c-.852 0-1.591-.188-2.216-.563a3.814 3.814 0 01-1.454-1.574c-.341-.674-.512-1.462-.512-2.363 0-.902.171-1.691.512-2.37a3.806 3.806 0 011.454-1.579c.625-.375 1.364-.563 2.216-.563.853 0 1.591.188 2.216.563a3.776 3.776 0 011.449 1.58c.345.678.517 1.467.517 2.369 0 .901-.172 1.69-.517 2.363a3.783 3.783 0 01-1.449 1.574c-.625.375-1.363.563-2.216.563zm.012-1.648c.462 0 .848-.127 1.159-.38.31-.258.541-.603.693-1.035.155-.431.233-.913.233-1.443 0-.534-.078-1.017-.233-1.449-.152-.435-.383-.782-.693-1.04-.311-.257-.697-.386-1.159-.386-.474 0-.868.129-1.182.387-.311.257-.544.604-.699 1.04a4.343 4.343 0 00-.227 1.448c0 .53.075 1.012.227 1.443.155.432.388.777.699 1.034.314.254.708.381 1.182.381zm10.336-7.25v1.591h-5.159v-1.59h5.159zm-3.869 8.728V66.21c0-.587.121-1.075.364-1.466.246-.39.575-.681.988-.875.413-.193.871-.29 1.375-.29.356 0 .673.029.949.086a5.6 5.6 0 01.614.153l-.409 1.591a3.528 3.528 0 00-.33-.08 1.987 1.987 0 00-.443-.045c-.383 0-.654.093-.813.279-.155.181-.233.443-.233.784v9.415H191.4zm9.449 0v-8.728h1.994v1.455h.091c.159-.504.432-.892.818-1.165a2.25 2.25 0 011.335-.415c.114 0 .241.006.381.017.144.008.263.021.358.04v1.892a2.153 2.153 0 00-.415-.08 3.804 3.804 0 00-.539-.04c-.375 0-.713.082-1.012.245-.295.16-.528.38-.699.665-.17.284-.255.612-.255.983v5.13h-2.057zm9.848.17c-.875 0-1.631-.182-2.267-.546a3.686 3.686 0 01-1.46-1.556c-.341-.675-.512-1.468-.512-2.381 0-.898.171-1.686.512-2.364a3.858 3.858 0 011.443-1.59c.617-.383 1.343-.575 2.176-.575a4.41 4.41 0 011.523.262c.481.17.905.435 1.272.795.372.36.663.819.875 1.375.212.553.319 1.213.319 1.978v.63h-7.154v-1.386h5.182a2.211 2.211 0 00-.256-1.051 1.85 1.85 0 00-.699-.733 1.962 1.962 0 00-1.034-.267c-.42 0-.789.102-1.108.307-.318.2-.566.465-.744.795a2.294 2.294 0 00-.267 1.074v1.21c0 .508.093.943.278 1.307.186.36.445.636.779.83.333.189.723.284 1.17.284.299 0 .57-.042.813-.125.242-.088.452-.214.63-.381s.313-.373.404-.62l1.92.216a2.99 2.99 0 01-.693 1.33 3.38 3.38 0 01-1.295.875c-.527.205-1.129.307-1.807.307zm11.444 3.102v-4.647h-.085a3.498 3.498 0 01-.46.676 2.54 2.54 0 01-.795.602c-.33.166-.745.25-1.245.25a3.305 3.305 0 01-1.841-.528c-.541-.353-.969-.864-1.284-1.535-.314-.67-.471-1.484-.471-2.443 0-.97.159-1.788.477-2.454.322-.67.756-1.177 1.301-1.517a3.342 3.342 0 011.824-.517c.511 0 .932.087 1.261.26.33.171.591.378.784.62.194.239.343.464.449.676h.125v-1.443h2.023v12h-2.063zm-2.011-4.807c.436 0 .807-.117 1.114-.352.307-.239.539-.57.699-.994.159-.425.238-.919.238-1.483 0-.565-.079-1.055-.238-1.472-.156-.416-.387-.74-.694-.971-.303-.231-.676-.347-1.119-.347-.458 0-.841.12-1.148.358-.306.239-.538.568-.693.989-.155.42-.233.901-.233 1.443 0 .545.078 1.032.233 1.46.159.424.392.76.699 1.006.311.242.691.363 1.142.363zm11.75-2.136v-5.057h2.057v8.728h-1.994V74.21h-.091a2.624 2.624 0 01-.972 1.2c-.447.31-.998.465-1.653.465-.572 0-1.078-.127-1.517-.38a2.643 2.643 0 01-1.023-1.12c-.246-.492-.369-1.087-.369-1.784v-5.557h2.056v5.239c0 .553.152.992.455 1.318.303.326.701.489 1.193.489.303 0 .597-.074.881-.222.284-.148.517-.367.699-.659.185-.296.278-.665.278-1.108zm8.036 3.84c-.875 0-1.631-.18-2.267-.544a3.694 3.694 0 01-1.461-1.557c-.341-.675-.511-1.468-.511-2.381 0-.898.17-1.686.511-2.364a3.872 3.872 0 011.443-1.59c.618-.383 1.343-.575 2.177-.575a4.41 4.41 0 011.522.262c.481.17.906.435 1.273.795.371.36.663.819.875 1.375.212.553.318 1.213.318 1.978v.63h-7.153v-1.386h5.182a2.211 2.211 0 00-.256-1.051c-.167-.31-.4-.555-.699-.733a1.962 1.962 0 00-1.034-.267 2 2 0 00-1.108.307c-.318.2-.566.465-.744.795a2.282 2.282 0 00-.267 1.074v1.21c0 .508.093.943.278 1.307.186.36.445.636.779.83.333.189.723.284 1.17.284.299 0 .57-.042.812-.125a1.8 1.8 0 00.631-.381c.178-.167.313-.373.404-.62l1.92.216a2.99 2.99 0 01-.693 1.33 3.377 3.377 0 01-1.296.875c-.526.205-1.128.307-1.806.307zm12.518-6.59l-1.875.204a1.513 1.513 0 00-.278-.534 1.383 1.383 0 00-.523-.403 1.908 1.908 0 00-.807-.153c-.428 0-.788.092-1.079.278-.288.186-.43.426-.427.722a.756.756 0 00.279.619c.193.159.511.29.954.392l1.489.318c.826.178 1.439.46 1.841.847.405.386.61.892.614 1.517a2.376 2.376 0 01-.483 1.454c-.315.417-.752.743-1.313.978-.561.234-1.204.352-1.932.352-1.068 0-1.928-.224-2.579-.67-.652-.451-1.04-1.078-1.165-1.881l2.006-.193c.091.394.284.69.579.892.296.2.68.3 1.154.3.488 0 .88-.1 1.176-.3.299-.201.449-.45.449-.745a.776.776 0 00-.29-.619c-.19-.163-.485-.288-.887-.375l-1.488-.313c-.837-.174-1.457-.467-1.858-.88-.402-.417-.601-.943-.597-1.58-.004-.538.142-1.004.438-1.398.299-.397.714-.704 1.244-.92.534-.22 1.15-.33 1.847-.33 1.022 0 1.827.218 2.414.654.591.436.957 1.025 1.097 1.767zm6.242-2.307v1.591h-5.018v-1.59h5.018zm-3.779-2.09h2.057v8.193c0 .276.042.488.125.636a.675.675 0 00.341.295c.14.053.295.08.466.08.129 0 .246-.01.352-.029.11-.019.193-.036.25-.05l.347 1.607c-.11.038-.267.08-.472.125a3.862 3.862 0 01-.739.08 3.355 3.355 0 01-1.392-.233 2.168 2.168 0 01-.983-.807c-.238-.364-.356-.818-.352-1.364v-8.534zm12.271 4.397l-1.875.204a1.497 1.497 0 00-.278-.534 1.383 1.383 0 00-.523-.403c-.219-.102-.488-.153-.807-.153-.428 0-.787.092-1.079.278-.288.186-.43.426-.426.722a.755.755 0 00.278.619c.193.159.512.29.955.392l1.488.318c.826.178 1.44.46 1.841.847.406.386.61.892.614 1.517a2.376 2.376 0 01-.483 1.454c-.314.417-.752.743-1.313.978-.56.234-1.204.352-1.931.352-1.069 0-1.928-.224-2.58-.67-.651-.451-1.04-1.078-1.165-1.881l2.006-.193c.091.394.284.69.58.892.295.2.679.3 1.153.3.489 0 .881-.1 1.176-.3.299-.201.449-.45.449-.745a.776.776 0 00-.29-.619c-.189-.163-.485-.288-.886-.375l-1.489-.313c-.837-.174-1.456-.467-1.858-.88-.401-.417-.6-.943-.596-1.58-.004-.538.142-1.004.437-1.398.299-.397.714-.704 1.244-.92.535-.22 1.15-.33 1.847-.33 1.023 0 1.828.218 2.415.654.591.436.956 1.025 1.096 1.767z" fill="#fff"/><g filter="url(#filter0_d_85_1609)"><path d="M19 238c0-6.075 4.925-11 11-11h169c6.075 0 11 4.925 11 11v239c0 6.075-4.925 11-11 11H30c-6.075 0-11-4.925-11-11V238z" fill="#323441"/></g><rect x="178" y="293" width="124" height="124" rx="62" transform="rotate(90 178 293)" fill="#B1B5D3"/><path d="M177.583 347.82a62.006 62.006 0 01-56.092 68.936 61.998 61.998 0 01-32.126-5.769L116 355l61.583-7.18z" fill="#EC779B"/><path d="M159.841 311.159a62.001 62.001 0 0117.834 37.499L116 355l43.841-43.841z" fill="#E7A5B9"/><path d="M116 293a62.004 62.004 0 0143.841 18.159L116 355v-62z" fill="#D14671"/><rect x="40" y="245" width="79" height="9" rx="4.5" fill="#3D3F4D"/><rect x="40" y="260" width="57.369" height="9" rx="4.5" fill="#3D3F4D"/><path d="M137 266c2.76-5.399 3.845.251 7.717-3.137 4.686-4.1 4.176-3.475 4.444-2.092 1.492 7.717 6.43-3.403 7.717-.653.843 1.8 2.477-3.876 3.411-2.484.702 1.046 1.266 3.137 2.669 3.137 1.404 0 3.667-2.091 5.187-3.66 1.521-1.569 2.414 1.438 2.765 2.222.35.785 2.923-.784 4.326-2.745 1.123-1.568 2.261.741 2.689 2.092 1.795-.669 7.477-5.597 8.185-2.745 1.092-.915 2.671-.92 4.89-3.935" stroke="#B1B5D3" stroke-width="2" stroke-linecap="round" stroke-linejoin="round"/><path d="M137.738 249.925l2.24-2.075V252h1.044v-4.15l2.24 2.075.738-.683-3.5-3.242-3.5 3.242.738.683zm11.847 2.155c-.39 0-.738-.068-1.045-.202a1.777 1.777 0 01-.725-.56 1.49 1.49 0 01-.284-.835h.892a.77.77 0 00.174.449c.106.125.244.221.414.29.171.068.36.102.569.102.229 0 .431-.04.608-.119a.995.995 0 00.417-.333c.1-.144.151-.31.151-.497a.896.896 0 00-.151-.514.97.97 0 00-.435-.352 1.652 1.652 0 00-.687-.128h-.492v-.716h.492a1.3 1.3 0 00.568-.117.923.923 0 00.387-.324.875.875 0 00.139-.491.883.883 0 00-.122-.469.832.832 0 00-.341-.315 1.107 1.107 0 00-.517-.114c-.19 0-.367.035-.532.105a.982.982 0 00-.397.296.751.751 0 00-.165.457h-.85c.01-.314.103-.591.279-.829.178-.239.413-.426.704-.56.292-.134.616-.202.972-.202.373 0 .695.073.966.219.273.144.483.336.631.577.149.24.223.504.221.79.002.325-.089.602-.273.829-.181.227-.424.38-.727.457v.046c.387.059.686.212.898.46.214.248.32.556.318.923.002.32-.087.607-.267.861a1.816 1.816 0 01-.73.6 2.481 2.481 0 01-1.06.216zm2.971-.08v-.636l1.969-2.04c.21-.222.383-.416.52-.583.138-.168.241-.328.309-.48.068-.151.102-.312.102-.483a.9.9 0 00-.136-.5.886.886 0 00-.372-.326 1.177 1.177 0 00-.531-.117c-.209 0-.39.043-.546.128a.883.883 0 00-.358.361 1.139 1.139 0 00-.125.545h-.838c0-.354.082-.664.245-.929.162-.265.386-.47.67-.616.284-.148.607-.222.969-.222.365 0 .687.073.966.219.28.144.499.341.656.591.157.248.236.528.236.841 0 .216-.041.427-.122.633-.08.207-.219.437-.418.691-.199.252-.475.557-.83.917l-1.156 1.211v.042h2.619V252h-3.829z" fill="#fff"/><rect x="40" y="441" width="12" height="12" rx="4" fill="#B1B5D3"/><path d="M58.598 447.085V450h-.956v-6.545h.943v2.435h.061c.115-.264.29-.474.527-.63.237-.155.546-.233.927-.233.337 0 .63.069.882.208.254.138.45.345.588.62.14.272.211.613.211 1.022V450h-.955v-3.007c0-.361-.093-.64-.278-.838-.186-.2-.444-.3-.774-.3-.226 0-.428.048-.607.144a1.032 1.032 0 00-.419.421c-.1.184-.15.405-.15.665zm6.75-1.994v.767h-2.681v-.767h2.681zm-1.962-1.176h.955v4.644c0 .185.028.325.083.418a.432.432 0 00.214.189c.09.032.187.048.291.048.077 0 .144-.006.202-.016l.134-.026.172.79a1.896 1.896 0 01-.62.102 1.7 1.7 0 01-.703-.134 1.209 1.209 0 01-.527-.435c-.134-.196-.201-.442-.201-.738v-4.842zm5.31 1.176v.767h-2.68v-.767h2.68zm-1.962-1.176h.956v4.644c0 .185.028.325.083.418a.432.432 0 00.214.189c.09.032.187.048.291.048.077 0 .144-.006.201-.016l.135-.026.172.79a1.896 1.896 0 01-.62.102 1.698 1.698 0 01-.703-.134 1.209 1.209 0 01-.527-.435c-.135-.196-.202-.442-.202-.738v-4.842zm3.02 7.926v-6.75h.933v.796h.08a2.61 2.61 0 01.24-.355c.104-.134.249-.251.434-.352.186-.102.43-.153.735-.153.397 0 .75.1 1.061.3.312.201.555.489.732.867.18.377.269.831.269 1.361 0 .531-.089.985-.266 1.365-.176.377-.42.668-.728.872a1.883 1.883 0 01-1.058.304c-.298 0-.542-.05-.732-.15a1.387 1.387 0 01-.441-.352 2.601 2.601 0 01-.246-.358h-.058v2.605h-.955zm.936-4.296c0 .346.05.648.15.908.1.26.245.464.435.611.19.144.422.217.697.217.285 0 .524-.076.716-.227a1.41 1.41 0 00.434-.623c.1-.262.15-.557.15-.886 0-.323-.049-.614-.147-.872a1.34 1.34 0 00-.434-.611c-.192-.149-.432-.223-.72-.223-.276 0-.51.071-.702.214-.19.143-.334.342-.432.598a2.49 2.49 0 00-.147.894z" fill="#fff"/><rect x="40" y="458" width="12" height="12" rx="4" fill="#EC779B"/><path d="M58.598 464.085V467h-.956v-6.545h.943v2.435h.061c.115-.264.29-.474.527-.63.237-.155.546-.233.927-.233.337 0 .63.069.882.208.254.138.45.345.588.62.14.272.211.613.211 1.022V467h-.955v-3.007c0-.361-.093-.64-.278-.838-.186-.2-.444-.3-.774-.3-.226 0-.428.048-.607.144a1.032 1.032 0 00-.419.421c-.1.184-.15.405-.15.665zm6.75-1.994v.767h-2.681v-.767h2.681zm-1.962-1.176h.955v4.644c0 .185.028.325.083.418a.432.432 0 00.214.189c.09.032.187.048.291.048.077 0 .144-.006.202-.016l.134-.026.172.79a1.896 1.896 0 01-.62.102 1.7 1.7 0 01-.703-.134 1.209 1.209 0 01-.527-.435c-.134-.196-.201-.442-.201-.738v-4.842zm5.31 1.176v.767h-2.68v-.767h2.68zm-1.962-1.176h.956v4.644c0 .185.028.325.083.418a.432.432 0 00.214.189c.09.032.187.048.291.048.077 0 .144-.006.201-.016l.135-.026.172.79a1.896 1.896 0 01-.62.102 1.698 1.698 0 01-.703-.134 1.209 1.209 0 01-.527-.435c-.135-.196-.202-.442-.202-.738v-4.842zm3.02 7.926v-6.75h.933v.796h.08a2.61 2.61 0 01.24-.355c.104-.134.249-.251.434-.352.186-.102.43-.153.735-.153.397 0 .75.1 1.061.3.312.201.555.489.732.867.18.377.269.831.269 1.361 0 .531-.089.985-.266 1.365-.176.377-.42.668-.728.872a1.883 1.883 0 01-1.058.304c-.298 0-.542-.05-.732-.15a1.387 1.387 0 01-.441-.352 2.601 2.601 0 01-.246-.358h-.058v2.605h-.955zm.936-4.296c0 .346.05.648.15.908.1.26.245.464.435.611.19.144.422.217.697.217.285 0 .524-.076.716-.227a1.41 1.41 0 00.434-.623c.1-.262.15-.557.15-.886 0-.323-.049-.614-.147-.872a1.34 1.34 0 00-.434-.611c-.192-.149-.432-.223-.72-.223-.276 0-.51.071-.702.214-.19.143-.334.342-.432.598a2.49 2.49 0 00-.147.894zM78.814 467v.812h-4.158V467h4.158zm1.047 1.841v-6.75h.933v.796h.08a2.61 2.61 0 01.24-.355c.104-.134.25-.251.435-.352.185-.102.43-.153.735-.153.396 0 .75.1 1.06.3.312.201.556.489.733.867.179.377.268.831.268 1.361 0 .531-.088.985-.265 1.365-.177.377-.42.668-.729.872a1.883 1.883 0 01-1.058.304c-.298 0-.542-.05-.732-.15a1.387 1.387 0 01-.44-.352 2.601 2.601 0 01-.247-.358h-.057v2.605h-.956zm.937-4.296c0 .346.05.648.15.908.1.26.245.464.434.611.19.144.422.217.697.217.286 0 .524-.076.716-.227.192-.153.337-.361.435-.623.1-.262.15-.557.15-.886 0-.323-.049-.614-.147-.872a1.341 1.341 0 00-.435-.611c-.192-.149-.431-.223-.719-.223-.277 0-.511.071-.703.214-.19.143-.333.342-.431.598a2.49 2.49 0 00-.147.894zM85.416 467v-4.909h.924v.78h.05a1.19 1.19 0 01.474-.623 1.35 1.35 0 01.773-.231 4.489 4.489 0 01.406.023v.914a1.515 1.515 0 00-.205-.035 1.941 1.941 0 00-.294-.023c-.225 0-.427.048-.604.144a1.072 1.072 0 00-.569.962V467h-.955zm5.346.099c-.46 0-.862-.105-1.205-.316a2.13 2.13 0 01-.799-.886c-.19-.379-.284-.822-.284-1.329 0-.509.094-.955.284-1.336.19-.382.456-.678.8-.889.342-.211.744-.316 1.204-.316.46 0 .862.105 1.205.316.343.211.61.507.799.889.19.381.284.827.284 1.336 0 .507-.094.95-.284 1.329a2.13 2.13 0 01-.8.886c-.342.211-.744.316-1.204.316zm.003-.802c.299 0 .546-.079.742-.237a1.38 1.38 0 00.434-.629c.096-.262.144-.551.144-.866a2.49 2.49 0 00-.144-.863 1.397 1.397 0 00-.434-.636c-.196-.16-.444-.24-.742-.24-.3 0-.55.08-.748.24a1.419 1.419 0 00-.438.636c-.093.262-.14.549-.14.863 0 .315.047.604.14.866.096.262.242.472.438.629.199.158.448.237.748.237zm3.913-4.206l1.083 1.911 1.093-1.911H97.9l-1.531 2.454L97.912 467h-1.045l-1.106-1.835L94.66 467h-1.05l1.528-2.455-1.508-2.454h1.048zm4.807 6.75c-.143 0-.273-.012-.39-.035a1.237 1.237 0 01-.262-.071l.23-.783c.175.047.33.068.466.061a.556.556 0 00.362-.153c.106-.096.2-.253.281-.47l.118-.326-1.796-4.973h1.023l1.243 3.81h.051l1.243-3.81h1.026l-2.023 5.564a2.222 2.222 0 01-.358.649 1.392 1.392 0 01-.518.403c-.2.089-.432.134-.696.134z" fill="#fff"/><rect x="116" y="441" width="12" height="12" rx="4" fill="#E7A5B9"/><path d="M135.934 445.091v.767h-2.682v-.767h2.682zm-1.962-1.176h.955v4.644c0 .185.028.325.083.418a.436.436 0 00.214.189c.09.032.187.048.291.048.077 0 .144-.006.202-.016l.134-.026.172.79a1.895 1.895 0 01-.62.102 1.701 1.701 0 01-.703-.134 1.208 1.208 0 01-.527-.435c-.134-.196-.201-.442-.201-.738v-4.842zm4.08-.46V450h-.955v-6.545h.955zm4.964 2.834l-.866.154a1.047 1.047 0 00-.172-.317.854.854 0 00-.314-.246 1.131 1.131 0 00-.495-.096c-.271 0-.496.061-.678.183-.181.119-.271.273-.271.463 0 .164.061.296.182.396.121.1.317.183.588.246l.78.179c.452.105.788.266 1.01.483.221.217.332.5.332.847 0 .294-.085.556-.255.786a1.679 1.679 0 01-.707.537c-.3.13-.649.195-1.045.195-.55 0-.998-.117-1.345-.351a1.489 1.489 0 01-.64-1.007l.924-.141a.888.888 0 00.355.547c.179.121.412.182.7.182.313 0 .563-.065.751-.195.187-.132.281-.293.281-.483a.497.497 0 00-.173-.386c-.112-.105-.286-.184-.52-.237l-.831-.182c-.459-.105-.797-.271-1.017-.499-.217-.228-.326-.516-.326-.866 0-.29.081-.543.243-.76.162-.218.386-.387.671-.509.286-.123.613-.185.981-.185.531 0 .949.115 1.253.345.305.228.506.534.604.917zm1.777 3.772a.62.62 0 01-.451-.186.616.616 0 01-.189-.453c0-.175.063-.324.189-.448a.614.614 0 01.451-.188c.174 0 .324.062.45.188a.605.605 0 01.189.448.65.65 0 01-.32.552.604.604 0 01-.319.087zm3.987.038c-.476 0-.885-.108-1.228-.323a2.129 2.129 0 01-.786-.898 2.991 2.991 0 01-.275-1.31c0-.499.094-.939.281-1.32.188-.384.452-.683.793-.898.341-.215.743-.323 1.205-.323.373 0 .705.069.997.208.292.136.527.328.706.575.182.247.289.536.323.866h-.93a1.113 1.113 0 00-.351-.594c-.181-.167-.424-.25-.729-.25-.266 0-.5.071-.7.211a1.354 1.354 0 00-.463.595 2.263 2.263 0 00-.167.907c0 .358.055.667.163.927.109.26.262.462.461.604.2.143.435.214.706.214.181 0 .345-.033.492-.099.149-.068.274-.165.374-.29.102-.126.174-.277.214-.454h.93a1.802 1.802 0 01-.31.85 1.788 1.788 0 01-.693.588 2.253 2.253 0 01-1.013.214zm3.994-6.644V450h-.956v-6.545h.956zm3.353 6.644c-.46 0-.862-.105-1.205-.316a2.134 2.134 0 01-.799-.886c-.189-.379-.284-.822-.284-1.329 0-.509.095-.955.284-1.336a2.13 2.13 0 01.799-.889c.343-.211.745-.316 1.205-.316.46 0 .862.105 1.205.316.343.211.609.507.799.889.19.381.285.827.285 1.336 0 .507-.095.95-.285 1.329-.19.38-.456.675-.799.886-.343.211-.745.316-1.205.316zm.003-.802c.299 0 .546-.079.742-.237.196-.157.341-.367.435-.629.095-.262.143-.551.143-.866 0-.314-.048-.601-.143-.863a1.4 1.4 0 00-.435-.636c-.196-.16-.443-.24-.742-.24-.3 0-.549.08-.747.24a1.42 1.42 0 00-.438.636 2.536 2.536 0 00-.141.863c0 .315.047.604.141.866.096.262.242.472.438.629.198.158.447.237.747.237zm6.462-1.333v-2.873h.959V450h-.94v-.85h-.051c-.113.262-.294.48-.543.655-.247.173-.555.259-.924.259-.315 0-.594-.069-.837-.208a1.45 1.45 0 01-.569-.623c-.137-.275-.205-.615-.205-1.02v-3.122h.956v3.007c0 .335.093.601.278.799a.94.94 0 00.722.298c.179 0 .357-.045.534-.135.179-.089.327-.224.444-.406.12-.181.178-.411.176-.69zm4.08 2.132c-.396 0-.75-.101-1.061-.304a2.065 2.065 0 01-.728-.872c-.175-.38-.262-.834-.262-1.365 0-.53.088-.984.265-1.361a2.04 2.04 0 01.735-.867c.311-.2.664-.3 1.058-.3.305 0 .55.051.735.153.187.101.332.218.435.352.104.134.185.252.243.355h.057v-2.432h.956V450h-.934v-.764h-.079a2.505 2.505 0 01-.25.358 1.376 1.376 0 01-.441.352c-.187.1-.43.15-.729.15zm.211-.815c.275 0 .508-.073.697-.217.192-.147.337-.351.435-.611.1-.26.15-.562.15-.908 0-.34-.049-.639-.147-.894a1.319 1.319 0 00-.431-.598 1.136 1.136 0 00-.704-.214c-.287 0-.527.074-.719.223-.191.15-.336.353-.434.611a2.488 2.488 0 00-.144.872c0 .329.049.624.147.886.098.262.243.47.435.623.193.151.432.227.715.227zm5.922-4.19v.767h-2.774v-.767h2.774zM170.791 450v-5.478c0-.307.067-.561.202-.764.134-.204.312-.357.533-.457a1.71 1.71 0 01.723-.153c.192 0 .356.016.492.048.136.029.238.057.304.083l-.224.773c-.045-.013-.102-.027-.173-.045a.988.988 0 00-.255-.028c-.233 0-.399.057-.499.172-.098.115-.147.282-.147.499V450h-.956zm3.955-6.545V450h-.955v-6.545h.955zm2.715 6.654c-.311 0-.593-.058-.844-.173a1.42 1.42 0 01-.598-.508c-.145-.222-.217-.493-.217-.815 0-.277.053-.505.16-.684.106-.179.25-.321.431-.425.181-.104.384-.183.607-.237.224-.053.452-.093.684-.121l.716-.083c.184-.024.317-.061.4-.112.083-.051.124-.134.124-.249v-.023c0-.279-.078-.495-.236-.648-.156-.154-.388-.231-.697-.231-.322 0-.575.072-.76.215-.184.14-.31.297-.381.469l-.898-.204c.107-.298.262-.539.467-.722a1.88 1.88 0 01.712-.403c.269-.085.551-.128.847-.128.196 0 .404.023.624.07.221.045.428.128.62.25.194.121.352.295.476.521.123.223.185.514.185.872V450h-.933v-.671h-.038a1.379 1.379 0 01-.278.364 1.476 1.476 0 01-.477.297 1.838 1.838 0 01-.696.119zm.207-.767c.265 0 .49-.053.678-.157a1.092 1.092 0 00.582-.956v-.632a.487.487 0 01-.199.095 2.865 2.865 0 01-.329.074l-.361.054-.294.039a2.365 2.365 0 00-.508.118.86.86 0 00-.364.24.595.595 0 00-.135.409c0 .236.088.415.262.537.175.119.398.179.668.179zm3.488.658v-4.909h.924v.78h.051c.089-.264.247-.472.473-.623a1.35 1.35 0 01.773-.231 4.475 4.475 0 01.406.023v.914a1.489 1.489 0 00-.204-.035 1.941 1.941 0 00-.294-.023c-.226 0-.428.048-.604.144a1.07 1.07 0 00-.569.962V450h-.956zm5.394.099c-.484 0-.9-.103-1.249-.31a2.104 2.104 0 01-.806-.879c-.187-.379-.281-.823-.281-1.333 0-.502.094-.946.281-1.329.19-.384.454-.683.793-.898a2.192 2.192 0 011.195-.323c.277 0 .545.046.805.137.26.092.494.236.7.432.207.196.37.451.489.764.12.311.179.689.179 1.134v.339h-3.902v-.716h2.966c0-.251-.051-.474-.154-.668a1.159 1.159 0 00-.431-.463 1.204 1.204 0 00-.646-.17c-.268 0-.502.066-.703.199-.198.13-.351.3-.46.511-.106.209-.16.436-.16.681v.559c0 .328.058.607.173.837.117.23.28.406.489.528.209.119.453.179.732.179.181 0 .346-.026.495-.077.149-.053.278-.132.387-.237.109-.104.192-.233.249-.386l.905.163a1.656 1.656 0 01-.39.7 1.9 1.9 0 01-.7.463 2.614 2.614 0 01-.956.163z" fill="#fff"/><rect x="116" y="458" width="12" height="12" rx="4" fill="#D14671"/><path d="M135.48 467.096c-.396 0-.75-.101-1.061-.304a2.067 2.067 0 01-.729-.872c-.174-.38-.262-.834-.262-1.365 0-.53.089-.984.266-1.361a2.04 2.04 0 01.735-.867c.311-.2.663-.3 1.058-.3.304 0 .549.051.735.153.187.101.332.218.434.352.105.134.186.252.243.355h.058v-2.432h.955V467h-.933v-.764h-.08a2.41 2.41 0 01-.249.358 1.398 1.398 0 01-.441.352c-.188.1-.431.15-.729.15zm.211-.815c.275 0 .507-.073.697-.217.192-.147.336-.351.434-.611.101-.26.151-.562.151-.908 0-.34-.049-.639-.147-.894a1.313 1.313 0 00-.432-.598 1.133 1.133 0 00-.703-.214c-.288 0-.527.074-.719.223-.192.15-.337.353-.435.611a2.488 2.488 0 00-.144.872c0 .329.049.624.147.886.098.262.243.47.435.623.194.151.433.227.716.227zm4.541-2.196V467h-.956v-4.909h.917v.799h.061c.113-.26.29-.469.531-.627.243-.157.548-.236.917-.236.334 0 .627.07.879.211.251.138.446.345.585.62.138.275.207.615.207 1.019V467h-.955v-3.007c0-.356-.093-.634-.278-.835-.186-.202-.44-.303-.764-.303-.222 0-.419.048-.591.144a1.025 1.025 0 00-.406.421 1.396 1.396 0 00-.147.665zm8.102-.796l-.866.154a1.05 1.05 0 00-.173-.317.858.858 0 00-.313-.246 1.133 1.133 0 00-.496-.096c-.27 0-.496.061-.677.183-.181.119-.272.273-.272.463 0 .164.061.296.182.396.122.1.318.183.588.246l.78.179c.452.105.789.266 1.01.483.222.217.333.5.333.847 0 .294-.086.556-.256.786a1.675 1.675 0 01-.706.537c-.301.13-.649.195-1.046.195-.549 0-.998-.117-1.345-.351a1.49 1.49 0 01-.639-1.007l.923-.141a.888.888 0 00.355.547c.179.121.412.182.7.182.313 0 .564-.065.751-.195.188-.132.281-.293.281-.483a.5.5 0 00-.172-.386c-.113-.105-.287-.184-.521-.237l-.831-.182c-.458-.105-.797-.271-1.016-.499-.218-.228-.326-.516-.326-.866 0-.29.081-.543.242-.76.162-.218.386-.387.672-.509.285-.123.612-.185.981-.185.53 0 .948.115 1.253.345.304.228.506.534.604.917z" fill="#fff"/><g filter="url(#filter1_d_85_1609)"><rect x="228" y="393" width="221" height="139" rx="5" fill="#3D3F4D"/></g><path d="M317 441h12" stroke="#F35183" stroke-dasharray="2 2"/><circle cx="338" cy="441" r="8.5" stroke="#F35183" stroke-dasharray="2 2"/><path d="M246.75 500.04a.865.865 0 01-.547-.175 1.095 1.095 0 01-.345-.51 2.411 2.411 0 01-.119-.81c0-.314.039-.582.119-.805.08-.223.196-.394.347-.511a.854.854 0 01.545-.178c.212 0 .393.059.544.178.152.117.267.288.347.511.08.223.12.491.12.805 0 .317-.039.587-.119.81-.08.223-.195.393-.345.51a.865.865 0 01-.547.175zm0-.313c.212 0 .377-.102.494-.307.118-.204.176-.496.176-.875 0-.251-.027-.466-.081-.643a.88.88 0 00-.23-.405.506.506 0 00-.359-.139c-.21 0-.375.104-.493.311-.118.206-.177.499-.177.876 0 .252.026.466.079.643.053.176.129.31.229.401.1.092.221.138.362.138zM243.379 489v-.256l.96-1.051c.113-.123.206-.23.279-.321.073-.092.127-.178.162-.258a.63.63 0 00.054-.256.476.476 0 00-.074-.266.487.487 0 00-.199-.173.64.64 0 00-.284-.061.588.588 0 00-.293.07.475.475 0 00-.191.191.597.597 0 00-.067.29h-.335a.81.81 0 01.439-.75.965.965 0 01.458-.108c.171 0 .322.036.453.108a.813.813 0 01.31.291.763.763 0 01.112.408.873.873 0 01-.058.314 1.386 1.386 0 01-.199.339 6.268 6.268 0 01-.39.455l-.654.699v.023h1.352V489h-1.835zm3.371.04a.865.865 0 01-.547-.175 1.095 1.095 0 01-.345-.51 2.411 2.411 0 01-.119-.81c0-.314.039-.582.119-.805.08-.223.196-.394.347-.511a.854.854 0 01.545-.178c.212 0 .393.059.544.178.152.117.267.288.347.511.08.223.12.491.12.805 0 .317-.039.587-.119.81-.08.223-.195.393-.345.51a.865.865 0 01-.547.175zm0-.313c.212 0 .377-.102.494-.307.118-.204.176-.496.176-.875 0-.251-.027-.466-.081-.643a.88.88 0 00-.23-.405.506.506 0 00-.359-.139c-.21 0-.375.104-.493.311-.118.206-.177.499-.177.876 0 .252.026.466.079.643.053.176.129.31.229.401.1.092.221.138.362.138zm-3.583-11.324v-.289l1.278-2.023h.21v.449h-.142l-.966 1.528v.023h1.722v.312h-2.102zm1.369.597v-2.909h.335V478h-.335zm2.214.04a.865.865 0 01-.547-.175 1.095 1.095 0 01-.345-.51 2.411 2.411 0 01-.119-.81c0-.314.039-.582.119-.805.08-.223.196-.394.347-.511a.854.854 0 01.545-.178c.212 0 .393.059.544.178.152.117.267.288.347.511.08.223.12.491.12.805 0 .317-.039.587-.119.81-.08.223-.195.393-.345.51a.865.865 0 01-.547.175zm0-.313c.212 0 .377-.102.494-.307.118-.204.176-.496.176-.875 0-.251-.027-.466-.081-.643a.88.88 0 00-.23-.405.506.506 0 00-.359-.139c-.21 0-.375.104-.493.311-.118.206-.177.499-.177.876 0 .252.026.466.079.643.053.176.129.31.229.401.1.092.221.138.362.138zm-2.479-10.687a1.106 1.106 0 01-.358-.068.863.863 0 01-.327-.221 1.136 1.136 0 01-.237-.421 2.133 2.133 0 01-.089-.671c0-.257.024-.486.072-.685.048-.199.118-.367.21-.504a.95.95 0 01.333-.312.908.908 0 01.441-.107c.163 0 .308.033.435.098a.844.844 0 01.313.27.96.96 0 01.156.399h-.347a.636.636 0 00-.187-.325.523.523 0 00-.37-.129.606.606 0 00-.532.294c-.129.196-.194.471-.195.825h.023a.847.847 0 01.716-.386c.166 0 .319.041.457.125a.927.927 0 01.333.342.985.985 0 01.125.498c0 .18-.041.345-.121.495a.927.927 0 01-.34.355.954.954 0 01-.511.128zm0-.313c.119 0 .226-.03.321-.089a.678.678 0 00.31-.576.673.673 0 00-.081-.328.622.622 0 00-.221-.237.576.576 0 00-.318-.088.643.643 0 00-.592.411.671.671 0 00.256.815.59.59 0 00.325.092zm2.479.313a.865.865 0 01-.547-.175 1.095 1.095 0 01-.345-.51 2.411 2.411 0 01-.119-.81c0-.314.039-.582.119-.805.08-.223.196-.394.347-.511a.854.854 0 01.545-.178c.212 0 .393.059.544.178.152.117.267.288.347.511.08.223.12.491.12.805 0 .317-.039.587-.119.81-.08.223-.195.393-.345.51a.865.865 0 01-.547.175zm0-.313c.212 0 .377-.102.494-.307.118-.204.176-.496.176-.875 0-.251-.027-.466-.081-.643a.88.88 0 00-.23-.405.506.506 0 00-.359-.139c-.21 0-.375.104-.493.311-.118.206-.177.499-.177.876 0 .252.026.466.079.643.053.176.129.31.229.401.1.092.221.138.362.138zm-2.482-10.687c-.195 0-.367-.035-.517-.104a.843.843 0 01-.348-.288.736.736 0 01-.124-.421c0-.123.024-.236.073-.341a.73.73 0 01.202-.262.617.617 0 01.288-.135v-.017a.562.562 0 01-.332-.235.705.705 0 01-.123-.413.698.698 0 01.113-.396.783.783 0 01.312-.276c.134-.067.286-.101.456-.101.169 0 .319.034.452.101a.783.783 0 01.312.276.709.709 0 01.117.396.716.716 0 01-.127.413.56.56 0 01-.328.235v.017a.6.6 0 01.284.135.797.797 0 01.279.603.74.74 0 01-.128.421.843.843 0 01-.348.288 1.202 1.202 0 01-.513.104zm0-.313a.827.827 0 00.341-.064.5.5 0 00.222-.18.49.49 0 00.079-.273.52.52 0 00-.085-.291.577.577 0 00-.229-.199.72.72 0 00-.328-.072.74.74 0 00-.332.072.577.577 0 00-.229.199.51.51 0 00-.081.291.479.479 0 00.075.273.502.502 0 00.223.18.845.845 0 00.344.064zm0-1.38a.59.59 0 00.277-.063.478.478 0 00.263-.437.483.483 0 00-.07-.258.452.452 0 00-.189-.17.61.61 0 00-.281-.061.623.623 0 00-.285.061.44.44 0 00-.189.17.472.472 0 00-.066.258c-.001.1.022.188.067.262.047.075.11.133.192.175a.603.603 0 00.281.063zm2.482 1.693a.865.865 0 01-.547-.175 1.095 1.095 0 01-.345-.51 2.411 2.411 0 01-.119-.81c0-.314.039-.582.119-.805.08-.223.196-.394.347-.511a.854.854 0 01.545-.178c.212 0 .393.059.544.178.152.117.267.288.347.511.08.223.12.491.12.805 0 .317-.039.587-.119.81-.08.223-.195.393-.345.51a.865.865 0 01-.547.175zm0-.313c.212 0 .377-.102.494-.307.118-.204.176-.496.176-.875 0-.251-.027-.466-.081-.643a.88.88 0 00-.23-.405.506.506 0 00-.359-.139c-.21 0-.375.104-.493.311-.118.206-.177.499-.177.876 0 .252.026.466.079.643.053.176.129.31.229.401.1.092.221.138.362.138zm-4.286-13.636V445h-.352v-2.54h-.017l-.71.472v-.358l.727-.483h.352zm1.786 2.949a.865.865 0 01-.547-.175 1.095 1.095 0 01-.345-.51 2.411 2.411 0 01-.119-.81c0-.314.039-.582.119-.805.08-.223.196-.394.347-.511a.854.854 0 01.545-.178c.212 0 .393.059.544.178.152.117.267.288.347.511.08.223.12.491.12.805 0 .317-.039.587-.119.81-.08.223-.195.393-.345.51a.865.865 0 01-.547.175zm0-.313c.212 0 .377-.102.494-.307.118-.204.176-.496.176-.875 0-.251-.027-.466-.081-.643a.88.88 0 00-.23-.405.506.506 0 00-.359-.139c-.21 0-.375.104-.493.311-.118.206-.177.499-.177.876 0 .252.026.466.079.643.053.176.129.31.229.401.1.092.221.138.362.138zm2.5.313a.865.865 0 01-.547-.175 1.095 1.095 0 01-.345-.51 2.411 2.411 0 01-.119-.81c0-.314.039-.582.119-.805.08-.223.196-.394.347-.511a.854.854 0 01.545-.178c.212 0 .393.059.544.178.152.117.267.288.347.511.08.223.12.491.12.805 0 .317-.039.587-.119.81-.08.223-.195.393-.345.51a.865.865 0 01-.547.175zm0-.313c.212 0 .377-.102.494-.307.118-.204.176-.496.176-.875 0-.251-.027-.466-.081-.643a.88.88 0 00-.23-.405.506.506 0 00-.359-.139c-.21 0-.375.104-.493.311-.118.206-.177.499-.177.876 0 .252.026.466.079.643.053.176.129.31.229.401.1.092.221.138.362.138zm-4.207-13.636V434h-.353v-2.54h-.017l-.71.472v-.358l.727-.483h.353zm.836 2.909v-.256l.96-1.051c.113-.123.206-.23.279-.321.073-.092.127-.178.162-.258a.63.63 0 00.054-.256.476.476 0 00-.074-.266.487.487 0 00-.199-.173.64.64 0 00-.284-.061.588.588 0 00-.293.07.475.475 0 00-.191.191.597.597 0 00-.067.29h-.335a.81.81 0 01.439-.75.965.965 0 01.458-.108c.171 0 .322.036.453.108a.813.813 0 01.31.291.763.763 0 01.112.408.873.873 0 01-.058.314 1.386 1.386 0 01-.199.339 6.268 6.268 0 01-.39.455l-.654.699v.023h1.352V434h-1.835zm3.371.04a.865.865 0 01-.547-.175 1.095 1.095 0 01-.345-.51 2.411 2.411 0 01-.119-.81c0-.314.039-.582.119-.805.08-.223.196-.394.347-.511a.854.854 0 01.545-.178c.212 0 .393.059.544.178.152.117.267.288.347.511.08.223.12.491.12.805 0 .317-.039.587-.119.81-.08.223-.195.393-.345.51a.865.865 0 01-.547.175zm0-.313c.212 0 .377-.102.494-.307.118-.204.176-.496.176-.875 0-.251-.027-.466-.081-.643a.88.88 0 00-.23-.405.506.506 0 00-.359-.139c-.21 0-.375.104-.493.311-.118.206-.177.499-.177.876 0 .252.026.466.079.643.053.176.129.31.229.401.1.092.221.138.362.138zm-4.352-13.636V423h-.352v-2.54h-.017l-.71.472v-.358l.727-.483h.352zm.769 2.312v-.289l1.278-2.023h.21v.449h-.142l-.966 1.528v.023h1.722v.312h-2.102zm1.369.597v-2.909h.335V423h-.335zm2.214.04a.865.865 0 01-.547-.175 1.095 1.095 0 01-.345-.51 2.411 2.411 0 01-.119-.81c0-.314.039-.582.119-.805.08-.223.196-.394.347-.511a.854.854 0 01.545-.178c.212 0 .393.059.544.178.152.117.267.288.347.511.08.223.12.491.12.805 0 .317-.039.587-.119.81-.08.223-.195.393-.345.51a.865.865 0 01-.547.175zm0-.313c.212 0 .377-.102.494-.307.118-.204.176-.496.176-.875 0-.251-.027-.466-.081-.643a.88.88 0 00-.23-.405.506.506 0 00-.359-.139c-.21 0-.375.104-.493.311-.118.206-.177.499-.177.876 0 .252.026.466.079.643.053.176.129.31.229.401.1.092.221.138.362.138zm15.996 91.364V517h-.353v-2.54h-.017l-.71.472v-.358l.727-.483h.353zm1.785 2.949a.865.865 0 01-.547-.175 1.095 1.095 0 01-.345-.51 2.437 2.437 0 01-.119-.81c0-.314.04-.582.119-.805.081-.223.196-.394.347-.511a.854.854 0 01.545-.178.85.85 0 01.544.178c.152.117.267.288.347.511.08.223.121.491.121.805 0 .317-.04.587-.12.81a1.08 1.08 0 01-.345.51.863.863 0 01-.547.175zm0-.313c.212 0 .377-.102.495-.307.117-.204.176-.496.176-.875 0-.251-.027-.466-.081-.643a.888.888 0 00-.23-.405.51.51 0 00-.36-.139c-.21 0-.374.104-.493.311-.118.206-.177.499-.177.876 0 .252.026.466.079.643.053.176.13.31.229.401.1.092.221.138.362.138zm3.841-2.636h.352v2.079c0 .186-.034.344-.102.473a.692.692 0 01-.288.296.912.912 0 01-.439.101.993.993 0 01-.425-.087.7.7 0 01-.292-.25.684.684 0 01-.107-.385h.347a.378.378 0 00.231.358.57.57 0 00.246.051.489.489 0 00.258-.064.403.403 0 00.162-.187.733.733 0 00.057-.306v-2.079zm2.388 2.017v-1.29h.335V517h-.335v-.369h-.023a.712.712 0 01-.238.282.69.69 0 01-.41.115.723.723 0 01-.363-.089.627.627 0 01-.25-.273 1.029 1.029 0 01-.091-.461v-1.387h.335v1.364a.53.53 0 00.134.38c.09.095.204.143.343.143a.58.58 0 00.473-.26.587.587 0 00.09-.337zm1.284-2.017V517h-.335v-2.909h.335zm.83 3.727a.771.771 0 01-.244-.04l.085-.295a.663.663 0 00.216.023.26.26 0 00.166-.084.642.642 0 00.135-.24l.063-.171-.807-2.193h.364l.602 1.739h.023l.602-1.739h.363l-.926 2.5a.941.941 0 01-.154.28.587.587 0 01-.215.166.659.659 0 01-.273.054zm28.692-3.727V517h-.352v-2.54h-.017l-.71.472v-.358l.727-.483h.352zm1.859 0V517h-.352v-2.54h-.017l-.71.472v-.358l.727-.483h.352zm3.127 0h.352v2.079c0 .186-.034.344-.102.473a.689.689 0 01-.289.296.908.908 0 01-.438.101.99.99 0 01-.425-.087.703.703 0 01-.293-.25.684.684 0 01-.106-.385h.346c0 .083.021.155.061.216a.42.42 0 00.171.142.57.57 0 00.246.051.489.489 0 00.258-.064.403.403 0 00.162-.187.733.733 0 00.057-.306v-2.079zm2.388 2.017v-1.29h.335V517h-.335v-.369h-.023a.686.686 0 01-.648.397.723.723 0 01-.363-.089.621.621 0 01-.25-.273 1.029 1.029 0 01-.091-.461v-1.387h.335v1.364a.53.53 0 00.133.38c.09.095.205.143.344.143a.579.579 0 00.473-.26.587.587 0 00.09-.337zm1.284-2.017V517h-.335v-2.909h.335zm.83 3.727a.764.764 0 01-.244-.04l.085-.295a.658.658 0 00.216.023.261.261 0 00.166-.084.671.671 0 00.135-.24l.062-.171-.806-2.193h.363l.603 1.739h.022l.603-1.739h.363l-.926 2.5a.942.942 0 01-.155.28.575.575 0 01-.214.166.665.665 0 01-.273.054zm28.731-3.727V517h-.352v-2.54h-.018l-.71.472v-.358l.728-.483h.352zm.836 2.909v-.256l.961-1.051c.112-.123.205-.23.278-.321.073-.092.127-.178.162-.258a.63.63 0 00.054-.256.476.476 0 00-.074-.266.48.48 0 00-.199-.173.64.64 0 00-.284-.061.582.582 0 00-.292.07.471.471 0 00-.192.191.597.597 0 00-.067.29h-.335a.81.81 0 01.439-.75.966.966 0 01.459-.108.93.93 0 01.453.108.81.81 0 01.309.291.764.764 0 01.113.408c0 .107-.02.212-.059.314a1.386 1.386 0 01-.199.339 6.025 6.025 0 01-.39.455l-.654.699v.023h1.353V517h-1.836zm4.712-2.909h.352v2.079c0 .186-.034.344-.102.473a.692.692 0 01-.288.296.912.912 0 01-.439.101.993.993 0 01-.425-.087.71.71 0 01-.293-.25.684.684 0 01-.106-.385h.347a.378.378 0 00.231.358.57.57 0 00.246.051.489.489 0 00.258-.064.403.403 0 00.162-.187.733.733 0 00.057-.306v-2.079zm2.388 2.017v-1.29h.335V517h-.335v-.369h-.023a.72.72 0 01-.238.282.69.69 0 01-.41.115.723.723 0 01-.363-.089.627.627 0 01-.25-.273 1.029 1.029 0 01-.091-.461v-1.387h.335v1.364a.53.53 0 00.134.38c.09.095.204.143.343.143a.583.583 0 00.473-.26.587.587 0 00.09-.337zm1.284-2.017V517h-.335v-2.909h.335zm.83 3.727a.771.771 0 01-.244-.04l.085-.295a.663.663 0 00.216.023.26.26 0 00.166-.084.671.671 0 00.135-.24l.063-.171-.807-2.193h.363l.603 1.739h.023l.602-1.739h.363l-.926 2.5a.92.92 0 01-.155.28.575.575 0 01-.214.166.662.662 0 01-.273.054zm28.887-3.727V517h-.352v-2.54h-.017l-.71.472v-.358l.727-.483h.352zm1.82 2.949c-.188 0-.355-.032-.502-.097a.87.87 0 01-.348-.268.73.73 0 01-.139-.402h.358a.43.43 0 00.097.243.56.56 0 00.223.156.808.808 0 00.305.055.814.814 0 00.333-.065.55.55 0 00.227-.182.456.456 0 00.082-.27.503.503 0 00-.312-.476.917.917 0 00-.375-.069h-.233v-.313h.233a.708.708 0 00.304-.062.475.475 0 00.281-.443.5.5 0 00-.065-.258.455.455 0 00-.185-.17.594.594 0 00-.278-.061.738.738 0 00-.285.055.523.523 0 00-.215.158.406.406 0 00-.091.247h-.341a.68.68 0 01.138-.4.853.853 0 01.338-.27c.14-.065.294-.097.461-.097.18 0 .335.037.463.11a.762.762 0 01.401.669.685.685 0 01-.129.419.667.667 0 01-.348.24v.022a.68.68 0 01.43.235c.103.125.155.28.155.464 0 .158-.043.3-.129.426a.885.885 0 01-.35.296 1.138 1.138 0 01-.504.108zm3.854-2.949h.352v2.079c0 .186-.034.344-.102.473a.7.7 0 01-.289.296.91.91 0 01-.439.101.989.989 0 01-.424-.087.703.703 0 01-.293-.25.684.684 0 01-.107-.385h.347c0 .083.02.155.061.216a.42.42 0 00.171.142.565.565 0 00.245.051.49.49 0 00.259-.064.403.403 0 00.162-.187.733.733 0 00.057-.306v-2.079zm2.387 2.017v-1.29h.336V517h-.336v-.369h-.022a.686.686 0 01-.648.397.727.727 0 01-.364-.089.633.633 0 01-.25-.273 1.043 1.043 0 01-.091-.461v-1.387h.336v1.364a.53.53 0 00.133.38c.09.095.205.143.344.143a.579.579 0 00.473-.26.587.587 0 00.089-.337zm1.285-2.017V517h-.335v-2.909h.335zm.83 3.727a.764.764 0 01-.245-.04l.086-.295a.658.658 0 00.216.023.264.264 0 00.166-.084.671.671 0 00.135-.24l.062-.171-.807-2.193h.364l.602 1.739h.023l.602-1.739h.364l-.926 2.5a.965.965 0 01-.155.28.579.579 0 01-.215.166.657.657 0 01-.272.054zm28.815-3.727V517h-.353v-2.54h-.017l-.71.472v-.358l.727-.483h.353zm.768 2.312v-.289l1.278-2.023h.211v.449h-.142l-.966 1.528v.023h1.721v.312h-2.102zm1.369.597v-2.909h.336V517h-.336zm3.555-2.909h.353v2.079a.993.993 0 01-.103.473.692.692 0 01-.288.296.91.91 0 01-.439.101.993.993 0 01-.425-.087.7.7 0 01-.292-.25.684.684 0 01-.107-.385h.347a.378.378 0 00.231.358.57.57 0 00.246.051.493.493 0 00.259-.064.403.403 0 00.162-.187.75.75 0 00.056-.306v-2.079zm2.388 2.017v-1.29h.335V517h-.335v-.369h-.023a.712.712 0 01-.238.282.688.688 0 01-.409.115.725.725 0 01-.364-.089.633.633 0 01-.25-.273 1.029 1.029 0 01-.091-.461v-1.387h.335v1.364a.53.53 0 00.134.38c.09.095.204.143.344.143a.579.579 0 00.473-.26.595.595 0 00.089-.337zm1.285-2.017V517h-.336v-2.909h.336zm.829 3.727a.76.76 0 01-.244-.04l.085-.295a.663.663 0 00.216.023.264.264 0 00.167-.084.657.657 0 00.134-.24l.063-.171-.807-2.193h.364l.602 1.739h.023l.602-1.739h.364l-.926 2.5a.965.965 0 01-.155.28.579.579 0 01-.215.166.659.659 0 01-.273.054z" fill="#fff"/><path d="M258.512 486.432a.5.5 0 00.976.217l-.976-.217zm3.572-13.769l.349-.358-.642-.626-.195.876.488.108zm12.338 12.027l-.349.358.724.705.121-1.003-.496-.06zm5.294-43.69l.492-.092-.988.032.496.06zm7.815 41.531l-.491.093.969.053-.478-.146zm4.241-13.877l.494-.079-.972-.067.478.146zm2.45 15.282l-.494.079.259 1.615.688-1.484-.453-.21zm8.31-19.267l.486-.12-.369-1.485-.579 1.416.462.189zm8.264 20.941l-.44.237.007.013.008.013.425-.263zm4.755 8.637a.5.5 0 10.85-.526l-.85.526zm-17.704-18.126l.454.21.005-.011.004-.01-.463-.189zm7.252-1.117l-.485.121.015.06.029.056.441-.237zm-45.611 11.645l3.085-13.877-.977-.217-3.084 13.877.976.217zm2.247-13.628l12.338 12.027.698-.716-12.338-12.027-.698.716zm13.183 11.729l5.295-43.69-.993-.12-5.294 43.69.992.12zm4.307-43.658l7.815 41.532.982-.185-7.814-41.531-.983.184zm8.784 41.585l4.241-13.876-.956-.293-4.241 13.877.956.292zm3.269-13.943l2.45 15.281.987-.158-2.449-15.282-.988.159zm19.093 17.139l5.18 8.374.85-.526-5.179-8.374-.851.526zm-15.696-1.727l3.626-7.815-.907-.421-3.626 7.815.907.421zm3.635-7.836l4.685-11.452-.925-.378-4.685 11.451.925.379zm3.737-11.52l2.567 10.335.97-.241-2.566-10.335-.971.241zm2.611 10.451l5.698 10.606.881-.473-5.698-10.607-.881.474z" fill="#B1B5D3"/><path d="M315.486 493.889a.5.5 0 00.981.19l-.981-.19zm4.611-21.226l.349-.358-.664-.647-.176.91.491.095zm12.338 12.027l-.349.358.723.705.122-1.003-.496-.06zm5.294-43.69l.491-.092-.987.032.496.06zm7.814 41.531l-.491.093.97.053-.479-.146zm4.241-13.877l.494-.079-.972-.067.478.146zm2.45 15.282l-.494.079.259 1.615.689-1.484-.454-.21zm8.311-19.267l.485-.12-.369-1.485-.579 1.416.463.189zm8.264 20.941l-.441.237.008.013.008.013.425-.263zm4.754 8.637a.501.501 0 00.851-.526l-.851.526zm-17.703-18.126l.453.21.005-.011.005-.01-.463-.189zm7.251-1.117l-.485.121.015.06.03.056.44-.237zm-46.644 19.075l4.121-21.321-.982-.19-4.12 21.321.981.19zm3.281-21.058l12.338 12.027.698-.716-12.338-12.027-.698.716zm13.183 11.729l5.294-43.69-.992-.12-5.295 43.69.993.12zm4.307-43.658l7.814 41.532.983-.185-7.815-41.531-.982.184zm8.784 41.585l4.241-13.876-.957-.293-4.241 13.877.957.292zm3.269-13.943l2.449 15.281.988-.158-2.45-15.282-.987.159zm19.093 17.139l5.179 8.374.851-.526-5.18-8.374-.85.526zm-15.696-1.727l3.625-7.815-.907-.421-3.625 7.815.907.421zm3.635-7.836l4.685-11.452-.926-.378-4.685 11.451.926.379zm3.737-11.52l2.566 10.335.971-.241-2.567-10.335-.97.241zm2.611 10.451l5.697 10.606.881-.473-5.697-10.607-.881.474z" fill="#B1B5D3"/><path d="M373.497 493.889a.5.5 0 00.982.19l-.982-.19zm4.612-21.226l.349-.358-.664-.647-.176.91.491.095zm12.337 12.027l-.349.358.724.705.122-1.003-.497-.06zm5.295-43.69l.491-.092-.988.032.497.06zm7.814 41.531l-.491.093.969.053-.478-.146zm4.241-13.877l.494-.079-.972-.067.478.146zm2.45 15.282l-.494.079.259 1.615.688-1.484-.453-.21zm8.311-19.267l.485-.12-.369-1.485-.579 1.416.463.189zm8.264 20.941l-.441.237.007.013.008.013.426-.263zm4.754 8.637a.5.5 0 00.851-.526l-.851.526zm-17.703-18.126l.453.21.005-.011.004-.01-.462-.189zm7.251-1.117l-.485.121.015.06.03.056.44-.237zm-46.644 19.075l4.121-21.321-.982-.19-4.121 21.321.982.19zm3.281-21.058l12.337 12.027.698-.716-12.337-12.027-.698.716zm13.183 11.729l5.294-43.69-.993-.12-5.294 43.69.993.12zm4.306-43.658l7.815 41.532.983-.185-7.815-41.531-.983.184zm8.784 41.585l4.241-13.876-.956-.293-4.241 13.877.956.292zm3.27-13.943l2.449 15.281.988-.158-2.45-15.282-.987.159zm19.092 17.139l5.18 8.374.851-.526-5.18-8.374-.851.526zm-15.696-1.727l3.626-7.815-.907-.421-3.626 7.815.907.421zm3.635-7.836l4.685-11.452-.925-.378-4.685 11.451.925.379zm3.737-11.52l2.567 10.335.97-.241-2.566-10.335-.971.241zm2.612 10.451l5.697 10.606.881-.473-5.697-10.607-.881.474z" fill="#B1B5D3"/><rect x="-.3" y="-.3" width="94.4" height="9.4" transform="matrix(0 -1 -1 0 284.4 507.4)" fill="url(#paint1_linear_85_1609)" fill-opacity=".2" stroke="#F35183" stroke-width=".6" stroke-dasharray="2 2"/><rect x="-.3" y="-.3" width="94.4" height="9.4" transform="matrix(0 -1 -1 0 365.4 507.4)" fill="url(#paint2_linear_85_1609)" fill-opacity=".2" stroke="#F35183" stroke-width=".6" stroke-dasharray="2 2"/><rect x="-.3" y="-.3" width="94.4" height="9.4" transform="matrix(0 -1 -1 0 400.4 507.4)" fill="url(#paint3_linear_85_1609)" fill-opacity=".2" stroke="#F35183" stroke-width=".6" stroke-dasharray="2 2"/><path d="M437 508H254v-95" stroke="#797A84"/><path d="M317.48 439v-4.364h2.706v.567h-2.047v1.33h1.853v.564h-1.853V439h-.659zm7.038-4.364V439h-.605l-2.218-3.2h-.041v3.2h-.658v-4.364h.609l2.221 3.205h.04v-3.205h.652z" fill="#fff"/><defs><linearGradient id="paint0_linear_85_1609" x1="186.781" y1="145.991" x2="442.774" y2="603.549" gradientUnits="userSpaceOnUse"><stop stop-color="#882B6B"/><stop offset="1" stop-color="#CF4671"/></linearGradient><linearGradient id="paint1_linear_85_1609" x1="47.5" y1="0" x2="47.5" y2="10" gradientUnits="userSpaceOnUse"><stop stop-color="#F35183"/><stop offset="1" stop-color="#D14671"/></linearGradient><linearGradient id="paint2_linear_85_1609" x1="47.5" y1="0" x2="47.5" y2="10" gradientUnits="userSpaceOnUse"><stop stop-color="#F35183"/><stop offset="1" stop-color="#D14671"/></linearGradient><linearGradient id="paint3_linear_85_1609" x1="47.5" y1="0" x2="47.5" y2="10" gradientUnits="userSpaceOnUse"><stop stop-color="#F35183"/><stop offset="1" stop-color="#D14671"/></linearGradient><filter id="filter0_d_85_1609" x="0" y="205" width="241" height="311" filterUnits="userSpaceOnUse" color-interpolation-filters="sRGB"><feFlood flood-opacity="0" result="BackgroundImageFix"/><feColorMatrix in="SourceAlpha" type="matrix" values="0 0 0 0 0 0 0 0 0 0 0 0 0 0 0 0 0 0 127 0" result="hardAlpha"/><feOffset dx="6" dy="3"/><feGaussianBlur stdDeviation="12.5"/><feColorMatrix type="matrix" values="0 0 0 0 0.0715719 0 0 0 0 0.109795 0 0 0 0 0.16713 0 0 0 0.16 0"/><feBlend mode="normal" in2="BackgroundImageFix" result="effect1_dropShadow_85_1609"/><feBlend mode="normal" in="SourceGraphic" in2="effect1_dropShadow_85_1609" result="shape"/></filter><filter id="filter1_d_85_1609" x="189" y="358" width="299" height="217" filterUnits="userSpaceOnUse" color-interpolation-filters="sRGB"><feFlood flood-opacity="0" result="BackgroundImageFix"/><feColorMatrix in="SourceAlpha" type="matrix" values="0 0 0 0 0 0 0 0 0 0 0 0 0 0 0 0 0 0 127 0" result="hardAlpha"/><feOffset dy="4"/><feGaussianBlur stdDeviation="19.5"/><feColorMatrix type="matrix" values="0 0 0 0 0 0 0 0 0 0 0 0 0 0 0 0 0 0 0.17 0"/><feBlend mode="normal" in2="BackgroundImageFix" result="effect1_dropShadow_85_1609"/><feBlend mode="normal" in="SourceGraphic" in2="effect1_dropShadow_85_1609" result="shape"/></filter></defs></svg>