<svg width="851" height="197" viewBox="0 0 851 197" fill="none" xmlns="http://www.w3.org/2000/svg"><path d="M52.662 111.403H5.34479V92.6964L50.1468 22.7424H71.526V94.4256H87.7176V111.403H71.526V134.04H52.662V111.403ZM52.662 49.4664H52.3476L24.5232 94.4256H52.662V49.4664Z" fill="white"></path><path d="M161.727 22.7424L135.003 63.9288L135.317 64.2432C136.47 63.6144 137.99 63.1428 139.876 62.8284C141.867 62.514 143.806 62.3568 145.692 62.3568C150.618 62.3568 155.124 63.3 159.212 65.1864C163.299 67.0728 166.81 69.6404 169.744 72.8892C172.783 76.138 175.089 79.9108 176.661 84.2076C178.338 88.5044 179.176 93.0632 179.176 97.884C179.176 103.648 178.18 108.888 176.189 113.604C174.198 118.32 171.421 122.355 167.858 125.708C164.399 128.957 160.207 131.472 155.282 133.254C150.461 135.036 145.221 135.926 139.562 135.926C133.693 135.926 128.348 135.088 123.527 133.411C118.706 131.63 114.514 129.114 110.951 125.866C107.493 122.617 104.768 118.634 102.777 113.918C100.89 109.202 99.9473 103.91 99.9473 98.0412C99.9473 92.1724 100.89 86.88 102.777 82.164C104.768 77.3432 107.283 72.47 110.322 67.5444L138.776 22.7424H161.727ZM119.754 97.7268C119.754 100.556 120.278 103.229 121.326 105.744C122.374 108.154 123.789 110.303 125.571 112.189C127.457 113.971 129.606 115.386 132.016 116.434C134.531 117.482 137.204 118.006 140.033 118.006C142.863 118.006 145.483 117.482 147.893 116.434C150.408 115.386 152.557 113.971 154.338 112.189C156.225 110.303 157.692 108.154 158.74 105.744C159.788 103.229 160.312 100.556 160.312 97.7268C160.312 94.8972 159.788 92.2772 158.74 89.8668C157.692 87.3516 156.225 85.2032 154.338 83.4216C152.557 81.5352 150.408 80.068 147.893 79.02C145.483 77.972 142.863 77.448 140.033 77.448C137.204 77.448 134.531 77.972 132.016 79.02C129.606 80.068 127.457 81.5352 125.571 83.4216C123.789 85.2032 122.374 87.3516 121.326 89.8668C120.278 92.2772 119.754 94.8972 119.754 97.7268Z" fill="white"></path><path d="M232.592 20.856C237.308 20.856 241.71 21.5372 245.797 22.8996C249.989 24.1572 253.605 26.0436 256.644 28.5588C259.788 30.9692 262.251 34.0084 264.032 37.6764C265.814 41.2396 266.705 45.3792 266.705 50.0952C266.705 56.0688 265.29 61.3088 262.46 65.8152C259.735 70.3216 255.543 73.4132 249.884 75.09V75.4044C252.504 75.9284 255.019 77.0288 257.43 78.7056C259.945 80.2776 262.146 82.2688 264.032 84.6792C265.919 86.9848 267.386 89.6572 268.434 92.6964C269.587 95.7356 270.163 98.9844 270.163 102.443C270.163 107.997 269.167 112.87 267.176 117.062C265.185 121.15 262.513 124.608 259.159 127.438C255.805 130.267 251.823 132.416 247.212 133.883C242.601 135.245 237.727 135.926 232.592 135.926C227.352 135.926 222.427 135.245 217.815 133.883C213.309 132.416 209.379 130.267 206.025 127.438C202.672 124.608 199.999 121.15 198.008 117.062C196.017 112.87 195.021 107.997 195.021 102.443C195.021 98.9844 195.545 95.7356 196.593 92.6964C197.746 89.6572 199.266 86.9848 201.152 84.6792C203.039 82.2688 205.187 80.2776 207.597 78.7056C210.113 77.0288 212.68 75.9284 215.3 75.4044V75.09C209.641 73.4132 205.397 70.3216 202.567 65.8152C199.842 61.3088 198.48 56.0688 198.48 50.0952C198.48 45.3792 199.371 41.2396 201.152 37.6764C202.934 34.0084 205.344 30.9692 208.383 28.5588C211.527 26.0436 215.143 24.1572 219.23 22.8996C223.422 21.5372 227.876 20.856 232.592 20.856ZM232.592 36.8904C227.771 36.8904 223.999 38.3576 221.274 41.292C218.654 44.2264 217.344 47.7896 217.344 51.9816C217.344 56.3832 218.706 60.1036 221.431 63.1428C224.156 66.0772 227.876 67.5444 232.592 67.5444C234.688 67.5444 236.627 67.1776 238.409 66.444C240.295 65.6056 241.919 64.5052 243.282 63.1428C244.749 61.6756 245.849 59.9988 246.583 58.1124C247.421 56.226 247.841 54.1824 247.841 51.9816C247.841 47.7896 246.373 44.2264 243.439 41.292C240.609 38.3576 236.994 36.8904 232.592 36.8904ZM232.592 82.6356C230.077 82.6356 227.667 83.0548 225.361 83.8932C223.055 84.7316 221.064 85.9368 219.387 87.5088C217.711 89.0808 216.348 90.9672 215.3 93.168C214.357 95.264 213.885 97.5696 213.885 100.085C213.885 105.43 215.615 109.779 219.073 113.132C222.636 116.381 227.143 118.006 232.592 118.006C238.042 118.006 242.496 116.381 245.954 113.132C249.517 109.779 251.299 105.43 251.299 100.085C251.299 97.5696 250.775 95.264 249.727 93.168C248.784 90.9672 247.474 89.0808 245.797 87.5088C244.12 85.9368 242.129 84.7316 239.823 83.8932C237.518 83.0548 235.107 82.6356 232.592 82.6356Z" fill="white"></path><path d="M414.425 48.8376C410.337 44.436 406.355 41.5016 402.477 40.0344C398.705 38.5672 394.879 37.8336 391.002 37.8336C385.238 37.8336 379.998 38.8816 375.282 40.9776C370.671 42.9688 366.688 45.7984 363.335 49.4664C359.981 53.0296 357.361 57.2216 355.475 62.0424C353.693 66.8632 352.802 72.0508 352.802 77.6052C352.802 83.5788 353.693 89.0808 355.475 94.1112C357.361 99.1416 359.981 103.491 363.335 107.159C366.688 110.827 370.671 113.709 375.282 115.805C379.998 117.901 385.238 118.949 391.002 118.949C395.508 118.949 399.857 117.901 404.049 115.805C408.346 113.604 412.329 110.146 415.997 105.43L432.345 117.062C427.315 123.979 421.184 129.01 413.953 132.154C406.722 135.298 399.019 136.87 390.845 136.87C382.251 136.87 374.339 135.507 367.107 132.782C359.981 129.953 353.798 126.023 348.558 120.992C343.423 115.857 339.388 109.726 336.453 102.6C333.519 95.4736 332.052 87.5612 332.052 78.8628C332.052 69.9548 333.519 61.8852 336.453 54.654C339.388 47.318 343.423 41.0824 348.558 35.9472C353.798 30.812 359.981 26.882 367.107 24.1572C374.339 21.3276 382.251 19.9128 390.845 19.9128C398.39 19.9128 405.359 21.2752 411.752 24C418.25 26.62 424.276 31.1264 429.83 37.5192L414.425 48.8376Z" fill="white"></path><path d="M491.071 123.665H490.599C487.874 127.962 484.416 131.106 480.224 133.097C476.032 134.983 471.421 135.926 466.39 135.926C462.932 135.926 459.526 135.455 456.172 134.512C452.923 133.568 449.989 132.154 447.369 130.267C444.854 128.381 442.81 126.023 441.238 123.193C439.666 120.364 438.88 117.062 438.88 113.29C438.88 109.202 439.614 105.744 441.081 102.914C442.548 99.98 444.487 97.5696 446.897 95.6832C449.413 93.692 452.295 92.12 455.543 90.9672C458.792 89.8144 462.146 88.976 465.604 88.452C469.167 87.8232 472.731 87.4564 476.294 87.3516C479.857 87.142 483.211 87.0372 486.355 87.0372H491.071V84.9936C491.071 80.2776 489.446 76.7668 486.197 74.4612C482.949 72.0508 478.809 70.8456 473.779 70.8456C469.796 70.8456 466.076 71.5792 462.617 73.0464C459.159 74.4088 456.172 76.2952 453.657 78.7056L443.753 68.802C447.945 64.5052 452.819 61.4136 458.373 59.5272C464.032 57.6408 469.849 56.6976 475.822 56.6976C481.167 56.6976 485.673 57.3264 489.341 58.584C493.009 59.7368 496.049 61.2564 498.459 63.1428C500.869 65.0292 502.703 67.23 503.961 69.7452C505.323 72.1556 506.267 74.6184 506.791 77.1336C507.419 79.6488 507.786 82.1116 507.891 84.522C507.996 86.8276 508.048 88.8712 508.048 90.6528V134.04H491.071V123.665ZM489.97 100.242H486.04C483.42 100.242 480.486 100.347 477.237 100.556C473.988 100.766 470.897 101.29 467.962 102.128C465.133 102.862 462.722 104.015 460.731 105.587C458.74 107.054 457.744 109.15 457.744 111.875C457.744 113.656 458.111 115.176 458.845 116.434C459.683 117.586 460.731 118.582 461.989 119.42C463.246 120.259 464.661 120.888 466.233 121.307C467.805 121.621 469.377 121.778 470.949 121.778C477.447 121.778 482.215 120.259 485.254 117.22C488.398 114.076 489.97 109.831 489.97 104.486V100.242Z" fill="white"></path><path d="M528.344 58.584H546.265V69.9024H546.579C549.304 65.2912 552.972 61.9376 557.583 59.8416C562.195 57.7456 567.173 56.6976 572.517 56.6976C578.281 56.6976 583.469 57.7456 588.08 59.8416C592.691 61.8328 596.621 64.61 599.87 68.1732C603.119 71.7364 605.582 75.9284 607.259 80.7492C608.935 85.57 609.774 90.7576 609.774 96.312C609.774 101.866 608.883 107.054 607.101 111.875C605.32 116.696 602.805 120.888 599.556 124.451C596.412 128.014 592.587 130.844 588.08 132.94C583.574 134.931 578.648 135.926 573.303 135.926C569.74 135.926 566.596 135.56 563.871 134.826C561.147 134.092 558.736 133.149 556.64 131.996C554.544 130.844 552.763 129.638 551.295 128.381C549.828 127.018 548.623 125.708 547.68 124.451H547.208V169.882H528.344V58.584ZM590.91 96.312C590.91 93.3776 590.386 90.548 589.338 87.8232C588.395 85.0984 586.927 82.688 584.936 80.592C583.05 78.496 580.744 76.8192 578.019 75.5616C575.295 74.304 572.203 73.6752 568.745 73.6752C565.286 73.6752 562.195 74.304 559.47 75.5616C556.745 76.8192 554.387 78.496 552.396 80.592C550.509 82.688 549.042 85.0984 547.994 87.8232C547.051 90.548 546.579 93.3776 546.579 96.312C546.579 99.2464 547.051 102.076 547.994 104.801C549.042 107.526 550.509 109.936 552.396 112.032C554.387 114.128 556.745 115.805 559.47 117.062C562.195 118.32 565.286 118.949 568.745 118.949C572.203 118.949 575.295 118.32 578.019 117.062C580.744 115.805 583.05 114.128 584.936 112.032C586.927 109.936 588.395 107.526 589.338 104.801C590.386 102.076 590.91 99.2464 590.91 96.312Z" fill="white"></path><path d="M627.676 58.584H646.54V134.04H627.676V58.584ZM625.004 32.9604C625.004 29.9212 626.104 27.3012 628.305 25.1004C630.611 22.7948 633.493 21.642 636.951 21.642C640.409 21.642 643.291 22.7424 645.597 24.9432C648.007 27.0392 649.213 29.7116 649.213 32.9604C649.213 36.2092 648.007 38.934 645.597 41.1348C643.291 43.2308 640.409 44.2788 636.951 44.2788C633.493 44.2788 630.611 43.1784 628.305 40.9776C626.104 38.672 625.004 35.9996 625.004 32.9604Z" fill="white"></path><path d="M659.394 74.6184V58.584H674.957V36.7332H693.821V58.584H714.571V74.6184H693.821V107.63C693.821 111.403 694.502 114.39 695.864 116.591C697.331 118.792 700.161 119.892 704.353 119.892C706.03 119.892 707.864 119.735 709.855 119.42C711.846 119.001 713.418 118.372 714.571 117.534V133.411C712.58 134.354 710.117 134.983 707.183 135.298C704.353 135.717 701.838 135.926 699.637 135.926C694.607 135.926 690.467 135.35 687.218 134.197C684.074 133.149 681.559 131.525 679.673 129.324C677.891 127.018 676.633 124.189 675.9 120.835C675.271 117.482 674.957 113.604 674.957 109.202V74.6184H659.394Z" fill="white"></path><path d="M776.456 123.665H775.985C773.26 127.962 769.801 131.106 765.609 133.097C761.417 134.983 756.806 135.926 751.776 135.926C748.317 135.926 744.911 135.455 741.558 134.512C738.309 133.568 735.375 132.154 732.755 130.267C730.239 128.381 728.196 126.023 726.624 123.193C725.052 120.364 724.266 117.062 724.266 113.29C724.266 109.202 724.999 105.744 726.467 102.914C727.934 99.98 729.873 97.5696 732.283 95.6832C734.798 93.692 737.68 92.12 740.929 90.9672C744.178 89.8144 747.531 88.976 750.99 88.452C754.553 87.8232 758.116 87.4564 761.679 87.3516C765.243 87.142 768.596 87.0372 771.74 87.0372H776.456V84.9936C776.456 80.2776 774.832 76.7668 771.583 74.4612C768.334 72.0508 764.195 70.8456 759.164 70.8456C755.182 70.8456 751.461 71.5792 748.003 73.0464C744.545 74.4088 741.558 76.2952 739.043 78.7056L729.139 68.802C733.331 64.5052 738.204 61.4136 743.759 59.5272C749.418 57.6408 755.234 56.6976 761.208 56.6976C766.553 56.6976 771.059 57.3264 774.727 58.584C778.395 59.7368 781.434 61.2564 783.845 63.1428C786.255 65.0292 788.089 67.23 789.347 69.7452C790.709 72.1556 791.652 74.6184 792.176 77.1336C792.805 79.6488 793.172 82.1116 793.277 84.522C793.381 86.8276 793.434 88.8712 793.434 90.6528V134.04H776.456V123.665ZM775.356 100.242H771.426C768.806 100.242 765.871 100.347 762.623 100.556C759.374 100.766 756.282 101.29 753.348 102.128C750.518 102.862 748.108 104.015 746.117 105.587C744.125 107.054 743.13 109.15 743.13 111.875C743.13 113.656 743.497 115.176 744.23 116.434C745.069 117.586 746.117 118.582 747.374 119.42C748.632 120.259 750.047 120.888 751.619 121.307C753.191 121.621 754.763 121.778 756.335 121.778C762.832 121.778 767.601 120.259 770.64 117.22C773.784 114.076 775.356 109.831 775.356 104.486V100.242Z" fill="white"></path><path d="M814.044 15.1968H832.908V134.04H814.044V15.1968Z" fill="white"></path></svg>