<svg width="400" height="400" viewBox="0 0 400 400" fill="none" xmlns="http://www.w3.org/2000/svg">
<path fill-rule="evenodd" clip-rule="evenodd" d="M181 9.433C180.78 9.501 179.43 9.659 178 9.784C171.78 10.329 170.579 10.491 170.22 10.835C170.011 11.036 169.077 11.2 168.144 11.2C167.211 11.2 166.336 11.38 166.2 11.6C166.064 11.82 165.254 12 164.4 12C163.546 12 162.736 12.18 162.6 12.4C162.464 12.62 161.553 12.8 160.576 12.8C159.599 12.8 158.8 12.961 158.8 13.158C158.8 13.355 158.125 13.618 157.3 13.743C153.72 14.284 152.8 14.509 152.8 14.844C152.8 15.04 152.08 15.2 151.2 15.2C150.32 15.2 149.6 15.38 149.6 15.6C149.6 15.82 149.161 16 148.624 16C148.087 16 147.536 16.18 147.4 16.4C147.264 16.62 146.533 16.8 145.776 16.8C145.019 16.8 144.4 16.98 144.4 17.2C144.4 17.42 143.986 17.6 143.48 17.6C142.974 17.6 142.381 17.779 142.162 17.998C141.944 18.216 141.278 18.436 140.682 18.485C140.087 18.534 139.6 18.715 139.6 18.887C139.6 19.059 139.24 19.2 138.8 19.2C138.36 19.2 138 19.38 138 19.6C138 19.82 137.46 20 136.8 20C136.14 20 135.6 20.18 135.6 20.4C135.6 20.62 135.161 20.8 134.624 20.8C134.087 20.8 133.536 20.98 133.4 21.2C133.264 21.42 132.803 21.6 132.376 21.6C131.949 21.6 131.6 21.78 131.6 22C131.6 22.22 131.06 22.4 130.4 22.4C129.74 22.4 129.2 22.58 129.2 22.8C129.2 23.02 128.84 23.2 128.4 23.2C127.96 23.2 127.6 23.38 127.6 23.6C127.6 23.82 127.328 24 126.995 24C126.662 24 126.077 24.158 125.695 24.351C123.509 25.457 119.811 26.986 119.529 26.9C119.348 26.845 119.2 26.98 119.2 27.2C119.2 27.42 118.855 27.6 118.433 27.6C118.012 27.6 117.607 27.735 117.533 27.9C117.369 28.269 114.073 30 113.534 30C113.319 30 112.871 30.272 112.539 30.604C112.207 30.936 111.77 31.105 111.568 30.98C111.365 30.855 111.2 30.943 111.2 31.176C111.2 31.409 111.007 31.6 110.772 31.6C110.537 31.6 109.559 32.14 108.6 32.8C107.641 33.46 106.663 34 106.428 34C106.193 34 106 34.18 106 34.4C106 34.62 105.64 34.8 105.2 34.8C104.76 34.8 104.4 34.98 104.4 35.2C104.4 35.42 104.08 35.6 103.688 35.6C103.297 35.6 102.717 35.96 102.4 36.4C102.083 36.84 101.586 37.2 101.295 37.2C101.004 37.2 100.38 37.56 99.9081 38C99.4361 38.44 98.8131 38.8 98.5251 38.8C98.2361 38.8 98.0001 38.98 98.0001 39.2C98.0001 39.42 97.7641 39.6 97.4751 39.6C97.1871 39.6 96.6021 39.915 96.1751 40.3C95.7491 40.685 94.9081 41.254 94.3071 41.564C93.7051 41.874 92.8501 42.466 92.4071 42.88C91.9631 43.293 91.6001 43.507 91.6001 43.354C91.6001 43.202 91.2851 43.421 90.9001 43.842C90.5151 44.262 89.7051 44.86 89.1001 45.17C88.4951 45.481 88.0001 45.863 88.0001 46.019C88.0001 46.175 87.4621 46.526 86.8051 46.798C86.1481 47.07 85.7091 47.452 85.8291 47.646C85.9491 47.841 85.8331 48 85.5711 48C85.3081 48 84.8031 48.324 84.4471 48.719C84.0911 49.114 83.1701 49.874 82.4001 50.408C81.6301 50.941 80.5501 51.789 80.0001 52.293C79.4501 52.797 78.6821 53.31 78.2941 53.433C77.9061 53.557 77.6921 53.825 77.8181 54.029C77.9441 54.233 77.8591 54.4 77.6291 54.4C77.4001 54.4 76.4261 55.165 75.4661 56.1C73.4361 58.077 70.4001 60.754 70.4001 60.567C70.4001 60.25 60.0731 70.806 59.0001 72.219C58.3401 73.089 57.0351 74.568 56.1001 75.506C55.1651 76.444 54.4001 77.4 54.4001 77.629C54.4001 77.859 54.2471 77.953 54.0601 77.837C53.8731 77.722 53.4721 78.116 53.1681 78.714C52.8641 79.311 52.1171 80.297 51.5081 80.903C50.8981 81.51 50.4001 82.154 50.4001 82.333C50.4001 82.512 49.5001 83.622 48.4001 84.8C47.3001 85.978 46.4001 87.18 46.4001 87.471C46.4001 87.762 46.2501 88 46.0681 88C45.8851 88 45.4811 88.495 45.1701 89.1C44.8601 89.705 44.2891 90.491 43.9031 90.847C43.5161 91.203 43.2001 91.62 43.2001 91.774C43.2001 91.927 42.7501 92.643 42.2001 93.364C41.6501 94.086 41.2001 94.884 41.2001 95.138C41.2001 95.392 41.0201 95.6 40.8001 95.6C40.5801 95.6 40.4001 95.836 40.4001 96.125C40.4001 96.413 40.0401 97.036 39.6001 97.508C39.1601 97.98 38.8001 98.644 38.8001 98.983C38.8001 99.322 38.6501 99.6 38.4681 99.6C38.2851 99.6 37.8811 100.095 37.5701 100.7C37.2601 101.305 36.6891 102.091 36.3031 102.447C35.9161 102.803 35.6001 103.388 35.6001 103.747C35.6001 104.106 35.4201 104.4 35.2001 104.4C34.9801 104.4 34.8001 104.76 34.8001 105.2C34.8001 105.64 34.6201 106 34.4001 106C34.1801 106 34.0001 106.278 34.0001 106.617C34.0001 106.956 33.6401 107.62 33.2001 108.092C32.7601 108.564 32.1761 109.456 31.9031 110.075C31.6291 110.694 31.2691 111.2 31.1021 111.2C30.9361 111.2 30.8001 111.56 30.8001 112C30.8001 112.44 30.6201 112.8 30.4001 112.8C30.1801 112.8 30.0001 113.045 30.0001 113.344C30.0001 114.026 27.5461 118.897 27.0021 119.294C26.7811 119.456 26.7411 119.591 26.9141 119.594C27.0871 119.597 27.0031 120.005 26.7281 120.5C26.4531 120.995 26.2101 121.49 26.1881 121.6C26.1401 121.834 24.8611 124.686 24.3511 125.695C24.1581 126.077 24.0001 126.662 24.0001 126.995C24.0001 127.328 23.8201 127.6 23.6001 127.6C23.3801 127.6 23.2001 127.96 23.2001 128.4C23.2001 128.84 23.0201 129.2 22.8001 129.2C22.5801 129.2 22.4001 129.639 22.4001 130.176C22.4001 130.713 22.2201 131.264 22.0001 131.4C21.7801 131.536 21.6001 131.997 21.6001 132.424C21.6001 132.851 21.4201 133.2 21.2001 133.2C20.9801 133.2 20.8001 133.74 20.8001 134.4C20.8001 135.06 20.6201 135.6 20.4001 135.6C20.1801 135.6 20.0001 135.949 20.0001 136.376C20.0001 136.803 19.8201 137.264 19.6001 137.4C19.3801 137.536 19.2001 138.087 19.2001 138.624C19.2001 139.161 19.0201 139.6 18.8001 139.6C18.5801 139.6 18.4001 140.129 18.4001 140.776C18.4001 141.423 18.2201 142.064 18.0001 142.2C17.7801 142.336 17.6001 142.887 17.6001 143.424C17.6001 143.961 17.4201 144.4 17.2001 144.4C16.9801 144.4 16.8001 145.03 16.8001 145.8C16.8001 146.57 16.6201 147.2 16.4001 147.2C16.1801 147.2 16.0001 147.74 16.0001 148.4C16.0001 149.06 15.8201 149.6 15.6001 149.6C15.3801 149.6 15.2001 150.32 15.2001 151.2C15.2001 152.08 15.0201 152.8 14.8001 152.8C14.5801 152.8 14.4001 153.329 14.4001 153.976C14.4001 154.623 14.2201 155.264 14.0001 155.4C13.7801 155.536 13.6001 156.357 13.6001 157.224C13.6001 158.091 13.4201 158.8 13.2001 158.8C12.9801 158.8 12.8001 159.509 12.8001 160.376C12.8001 161.243 12.6201 162.064 12.4001 162.2C12.1801 162.336 12.0001 163.247 12.0001 164.224C12.0001 165.201 11.8201 166 11.6001 166C11.3801 166 11.2001 166.864 11.2001 167.92C11.2001 168.976 11.0361 170.011 10.8351 170.22C10.6351 170.429 10.3681 171.59 10.2431 172.8C10.1191 174.01 9.82905 176.53 9.59905 178.4C8.81005 184.829 8.68405 187.435 8.51805 200.761C8.38305 211.492 8.45405 214.188 8.87505 214.455C9.16405 214.638 31.4951 214.791 58.5001 214.794L107.6 214.8V146.66C107.6 98.239 107.727 78.126 108.04 77.16C109.267 73.361 112.108 69.875 115.047 68.56C116.724 67.81 130.191 67.324 151.674 67.239L161.548 67.2L161.735 57.7C161.912 48.751 162.186 45.72 163.122 42.4C165.407 34.291 168.414 29.095 174.294 23.091C176.51 20.829 176.545 20.757 176.077 19.463C174.891 16.182 177.793 10.8 180.749 10.8C180.95 10.8 181.228 10.504 181.367 10.143C181.651 9.401 181.576 9.255 181 9.433ZM226.309 37.025C226.156 37.178 224.449 37.454 222.515 37.639C216.817 38.184 209.042 39.599 205 40.825C200.376 42.229 195.559 41.27 194.472 38.73C194.045 37.733 190.032 41.843 188.506 44.84C186.813 48.164 186.706 48.873 186.509 58.1L186.314 67.2H237.557H288.8V59.826C288.8 48.675 287.72 44.894 283.274 40.49L281.145 38.381L279.284 40.019L277.423 41.657L274.611 41.477C271.685 41.289 269.96 40.979 268.6 40.397C268.16 40.209 267.17 39.945 266.4 39.812C265.63 39.679 264.1 39.388 263 39.167C260.003 38.563 256.573 38.012 253 37.56C249.181 37.078 226.706 36.627 226.309 37.025ZM312.13 42.1C312.259 43.035 312.639 45.6 312.975 47.8C313.358 50.316 313.587 54.656 313.592 59.5L313.6 67.2H328.8C340.948 67.2 344 67.096 344 66.684C344 66.081 334.239 56.4 333.631 56.4C333.406 56.4 332.451 55.633 331.511 54.695C330.57 53.757 329.17 52.552 328.4 52.018C327.63 51.484 326.503 50.542 325.897 49.924C325.29 49.306 324.596 48.8 324.354 48.8C324.113 48.8 323.564 48.354 323.135 47.808C322.706 47.262 321.771 46.539 321.059 46.201C320.346 45.863 319.183 45.056 318.473 44.408C317.763 43.76 316.557 42.932 315.791 42.569C315.026 42.206 314.4 41.749 314.4 41.554C314.4 41.359 314.04 41.2 313.6 41.2C313.16 41.2 312.8 41.02 312.8 40.8C312.8 40.58 312.597 40.4 312.348 40.4C312.046 40.4 311.974 40.965 312.13 42.1ZM367.789 96.9C367.687 97.175 367.558 136.28 367.502 183.8L367.4 270.2L366.48 272.2C364.707 276.056 361.163 278.818 357.027 279.569C355.441 279.857 342.2 280 317.127 280H279.6V300.711V321.422L281.919 323.463C288.34 329.116 289.237 339.1 283.89 345.425L282.855 346.65L284.872 348.625C290.506 354.139 291.592 357.834 291.597 371.5C291.6 379.732 291.625 380 292.4 380C292.84 380 293.2 379.82 293.2 379.6C293.2 379.38 293.56 379.2 294 379.2C294.44 379.2 294.8 379.02 294.8 378.8C294.8 378.58 295.16 378.4 295.6 378.4C296.04 378.4 296.4 378.22 296.4 378C296.4 377.78 296.76 377.6 297.2 377.6C297.64 377.6 298 377.42 298 377.2C298 376.98 298.236 376.8 298.525 376.8C298.813 376.8 299.436 376.44 299.908 376C300.38 375.56 300.957 375.2 301.189 375.2C301.741 375.2 305.932 372.833 306.228 372.355C306.353 372.153 306.623 372.091 306.828 372.217C307.032 372.344 307.2 372.278 307.2 372.072C307.2 371.866 307.74 371.473 308.4 371.2C309.06 370.927 309.6 370.545 309.6 370.351C309.6 370.158 309.836 370 310.125 370C310.413 370 310.998 369.685 311.425 369.3C311.851 368.915 312.695 368.345 313.3 368.032C313.905 367.72 314.4 367.315 314.4 367.132C314.4 366.95 314.625 366.8 314.9 366.799C315.175 366.799 316.03 366.259 316.8 365.6C317.57 364.941 318.385 364.401 318.612 364.401C318.838 364.4 319.283 364.04 319.6 363.6C319.917 363.16 320.327 362.8 320.51 362.8C320.693 362.8 321.419 362.261 322.122 361.602C322.825 360.943 323.543 360.403 323.718 360.402C323.893 360.401 324.47 359.995 324.999 359.5C326.186 358.39 326.629 358.038 328.4 356.798C329.17 356.259 330.213 355.408 330.718 354.909C331.223 354.409 331.766 354 331.925 354C332.084 354 333.975 352.29 336.127 350.2C338.279 348.11 340.125 346.4 340.228 346.4C340.456 346.4 346.4 340.425 346.4 340.197C346.4 340.108 348.11 338.286 350.2 336.148C352.29 334.01 354 332.131 354 331.973C354 331.814 354.495 331.137 355.1 330.469C356.267 329.178 357.025 328.213 358 326.775C358.33 326.288 359.005 325.473 359.5 324.963C359.995 324.453 360.4 323.925 360.4 323.79C360.4 323.654 360.625 323.306 360.9 323.016C361.955 321.904 362.8 320.778 362.8 320.484C362.8 320.315 363.16 319.917 363.6 319.6C364.04 319.283 364.4 318.838 364.401 318.612C364.401 318.385 364.941 317.57 365.6 316.8C366.259 316.03 366.799 315.175 366.799 314.9C366.8 314.625 366.95 314.4 367.132 314.4C367.315 314.4 367.72 313.905 368.032 313.3C368.345 312.695 368.915 311.851 369.3 311.425C369.685 310.998 370 310.413 370 310.125C370 309.836 370.158 309.6 370.351 309.6C370.545 309.6 370.927 309.06 371.2 308.4C371.473 307.74 371.855 307.2 372.049 307.2C372.242 307.2 372.4 307.029 372.4 306.82C372.4 306.611 373.03 305.396 373.799 304.12C374.568 302.844 375.198 301.567 375.199 301.283C375.2 300.999 375.56 300.38 376 299.908C376.44 299.436 376.8 298.813 376.8 298.525C376.8 298.236 376.98 298 377.2 298C377.42 298 377.6 297.64 377.6 297.2C377.6 296.76 377.78 296.4 378 296.4C378.22 296.4 378.4 296.04 378.4 295.6C378.4 295.16 378.58 294.8 378.8 294.8C379.02 294.8 379.2 294.44 379.2 294C379.2 293.56 379.38 293.2 379.6 293.2C379.82 293.2 380 292.855 380 292.433C380 292.012 380.136 291.607 380.302 291.533C380.468 291.46 381.207 290.14 381.944 288.6C382.681 287.06 383.445 285.487 383.642 285.105C383.839 284.723 384 284.138 384 283.805C384 283.472 384.18 283.2 384.4 283.2C384.62 283.2 384.8 282.84 384.8 282.4C384.8 281.96 384.98 281.6 385.2 281.6C385.42 281.6 385.6 281.238 385.6 280.795C385.6 280.352 385.765 279.677 385.967 279.295C386.867 277.593 388 274.756 388 274.204C388 273.872 388.18 273.6 388.4 273.6C388.62 273.6 388.8 273.161 388.8 272.624C388.8 272.087 388.98 271.536 389.2 271.4C389.42 271.264 389.6 270.801 389.6 270.371C389.6 269.941 389.78 269.232 390 268.795C390.22 268.358 390.595 267.618 390.834 267.151C391.073 266.684 391.368 265.334 391.49 264.151C391.612 262.968 391.867 262 392.056 262C392.245 262 392.4 261.46 392.4 260.8C392.4 260.14 392.58 259.6 392.8 259.6C393.02 259.6 393.2 259.06 393.2 258.4C393.2 257.74 393.38 257.2 393.6 257.2C393.82 257.2 394 256.48 394 255.6C394 254.72 394.18 254 394.4 254C394.62 254 394.8 253.291 394.8 252.424C394.8 251.557 394.98 250.736 395.2 250.6C395.42 250.464 395.6 249.744 395.6 249C395.6 248.256 395.78 247.536 396 247.4C396.22 247.264 396.4 246.364 396.4 245.4C396.4 244.436 396.58 243.536 396.8 243.4C397.02 243.264 397.2 242.353 397.2 241.376C397.2 240.399 397.38 239.6 397.6 239.6C397.822 239.6 398 238.533 398 237.2C398 235.867 398.178 234.8 398.4 234.8C398.628 234.8 398.8 233.611 398.8 232.033C398.8 230.176 398.964 229.212 399.3 229.1C399.693 228.969 399.8 223.688 399.8 204.487C399.8 185.463 399.689 179.929 399.3 179.54C399.007 179.247 398.8 178.007 398.8 176.544C398.8 175.171 398.62 173.936 398.4 173.8C398.18 173.664 398 172.584 398 171.4C398 170.216 397.82 169.136 397.6 169C397.38 168.864 397.2 167.964 397.2 167C397.2 166.036 397.02 165.136 396.8 165C396.58 164.864 396.4 163.953 396.4 162.976C396.4 161.999 396.22 161.2 396 161.2C395.78 161.2 395.6 160.581 395.6 159.824C395.6 159.067 395.42 158.336 395.2 158.2C394.98 158.064 394.8 157.153 394.8 156.176C394.8 155.199 394.62 154.4 394.4 154.4C394.18 154.4 394 153.86 394 153.2C394 152.54 393.82 152 393.6 152C393.38 152 393.2 151.381 393.2 150.624C393.2 149.867 393.02 149.136 392.8 149C392.58 148.864 392.4 148.324 392.4 147.8C392.4 147.276 392.241 146.749 392.047 146.629C391.852 146.509 391.57 145.418 391.418 144.205C391.266 142.992 391.019 142 390.869 142C390.525 142 389.6 139.088 389.6 138.006C389.6 137.563 389.42 137.2 389.2 137.2C388.98 137.2 388.8 136.761 388.8 136.224C388.8 135.687 388.62 135.136 388.4 135C388.18 134.864 388 134.403 388 133.976C388 133.549 387.82 133.2 387.6 133.2C387.38 133.2 387.2 132.66 387.2 132C387.2 131.34 387.02 130.8 386.8 130.8C386.58 130.8 386.4 130.44 386.4 130C386.4 129.56 386.22 129.2 386 129.2C385.78 129.2 385.6 128.876 385.6 128.48C385.6 127.586 384.706 125.607 384.3 125.603C384.135 125.601 384 125.328 384 124.995C384 124.662 383.843 124.077 383.65 123.695C382.152 120.72 381.6 119.447 381.6 118.962C381.6 118.653 381.42 118.4 381.2 118.4C380.98 118.4 380.8 118.04 380.8 117.6C380.8 117.16 380.62 116.8 380.4 116.8C380.18 116.8 380 116.429 380 115.976C380 115.523 379.82 115.264 379.6 115.4C379.38 115.536 379.2 115.277 379.2 114.824C379.2 114.371 379.02 114 378.8 114C378.58 114 378.4 113.713 378.4 113.362C378.4 113.011 378.079 112.246 377.686 111.662C377.293 111.078 376.722 110.105 376.418 109.5C376.114 108.895 375.715 108.4 375.532 108.4C375.35 108.4 375.2 108.145 375.2 107.832C375.2 107.165 373.935 104.66 373.5 104.467C373.335 104.393 373.2 103.988 373.2 103.567C373.2 103.145 373.042 102.8 372.849 102.8C372.655 102.8 372.273 102.26 372 101.6C371.727 100.94 371.345 100.4 371.151 100.4C370.958 100.4 370.8 100.164 370.8 99.875C370.8 99.587 370.44 98.964 370 98.492C369.56 98.02 369.2 97.356 369.2 97.017C369.2 96.28 368.055 96.186 367.789 96.9ZM12.2671 244.667C11.8521 245.082 11.9531 246.4 12.4001 246.4C12.6201 246.4 12.8001 247.084 12.8001 247.92C12.8001 248.756 12.9711 249.611 13.1811 249.821C13.3901 250.03 13.6081 250.889 13.6641 251.729C13.7211 252.569 13.9101 253.344 14.0841 253.452C14.2581 253.559 14.4001 254.166 14.4001 254.8C14.4001 255.434 14.5801 256.064 14.8001 256.2C15.0201 256.336 15.2001 256.876 15.2001 257.4C15.2001 257.924 15.3801 258.464 15.6001 258.6C15.8201 258.736 16.0001 259.377 16.0001 260.024C16.0001 260.671 16.1801 261.2 16.4001 261.2C16.6201 261.2 16.8001 261.819 16.8001 262.576C16.8001 263.333 16.9801 264.064 17.2001 264.2C17.4201 264.336 17.6001 264.876 17.6001 265.4C17.6001 265.924 17.7801 266.464 18.0001 266.6C18.2201 266.736 18.4001 267.287 18.4001 267.824C18.4001 268.361 18.5801 268.8 18.8001 268.8C19.0201 268.8 19.2001 269.34 19.2001 270C19.2001 270.66 19.3801 271.2 19.6001 271.2C19.8201 271.2 20.0001 271.65 20.0001 272.2C20.0001 272.75 20.1801 273.2 20.4001 273.2C20.6201 273.2 20.8001 273.65 20.8001 274.2C20.8001 274.75 20.9801 275.2 21.2001 275.2C21.4201 275.2 21.6001 275.549 21.6001 275.976C21.6001 276.403 21.7801 276.864 22.0001 277C22.2201 277.136 22.4001 277.687 22.4001 278.224C22.4001 278.761 22.5801 279.2 22.8001 279.2C23.0201 279.2 23.2001 279.479 23.2001 279.819C23.2001 280.16 23.5601 281.184 24.0001 282.094C24.4401 283.005 24.8001 283.986 24.8001 284.275C24.8001 284.564 24.9501 284.8 25.1331 284.8C25.3171 284.8 25.4681 285.025 25.4701 285.3C25.4771 286.092 30.0821 295.6 30.4601 295.6C30.6471 295.6 30.8001 295.872 30.8001 296.205C30.8001 296.766 31.5301 298.337 32.0051 298.8C32.1181 298.91 32.6421 299.855 33.1681 300.9C33.6951 301.945 34.2441 302.8 34.3881 302.8C34.5331 302.8 34.8981 303.43 35.2001 304.2C35.5021 304.97 35.8961 305.6 36.0751 305.6C36.2541 305.6 36.4001 305.87 36.4001 306.2C36.4001 306.53 36.5361 306.8 36.7021 306.8C36.8691 306.8 37.2601 307.385 37.5721 308.1C37.8841 308.815 38.4681 309.691 38.8701 310.047C39.2711 310.403 39.6001 310.948 39.6001 311.259C39.6001 311.569 39.9601 312.083 40.4001 312.4C40.8401 312.717 41.2001 313.257 41.2001 313.6C41.2001 313.943 41.5601 314.483 42.0001 314.8C42.4401 315.117 42.8001 315.697 42.8001 316.088C42.8001 316.48 42.9911 316.8 43.2241 316.8C43.4571 316.8 43.5361 316.98 43.4001 317.2C43.2641 317.42 43.3131 317.6 43.5091 317.6C43.7051 317.6 44.1201 318.095 44.4321 318.7C44.7451 319.305 45.3151 320.035 45.7001 320.323C46.0851 320.61 46.4001 321.09 46.4001 321.389C46.4001 321.689 46.5421 321.993 46.7151 322.067C46.8881 322.14 47.6531 323.01 48.4151 324C49.1771 324.989 50.0791 326.069 50.4191 326.4C50.7591 326.73 51.4751 327.63 52.0101 328.4C53.5171 330.57 54.8131 331.747 55.2331 331.327C55.4571 331.103 55.5641 314.386 55.5021 288.978L55.4001 247L37.2001 246.8L19.0001 246.6L15.9701 245.5C12.6211 244.284 12.6441 244.289 12.2671 244.667ZM239.864 286.3C239.536 294.215 239.525 395.079 239.852 396.3C240.11 397.264 242.873 397.653 243.4 396.8C243.536 396.58 244.447 396.4 245.424 396.4C246.401 396.4 247.2 396.22 247.2 396C247.2 395.78 247.828 395.6 248.595 395.6C251.717 395.6 251.599 396.309 251.605 377.411C251.611 356.505 251.963 354.827 257.529 349.217C259.186 347.547 259.969 346.477 259.746 346.188C253.682 338.357 254.523 327.779 261.599 322.886L263.17 321.8L263.185 300.9L263.2 280H251.663H240.125L239.864 286.3Z" fill="#141725"/>
<path fill-rule="evenodd" clip-rule="evenodd" d="M7.00003 214C6.86403 214.22 6.14503 214.4 5.40303 214.4C4.32203 214.4 3.64003 214.802 1.97903 216.42L-0.0949707 218.44L0.0700293 224.892C0.186029 229.453 0.375029 231.392 0.717029 231.506C0.983029 231.594 1.20003 231.976 1.20003 232.354C1.20003 233.221 2.10203 235.193 2.50003 235.197C2.66503 235.199 2.80003 235.47 2.80003 235.8C2.80003 236.13 2.98003 236.4 3.20003 236.4C3.42003 236.4 3.60003 236.652 3.60003 236.959C3.60003 237.443 6.50603 240.596 8.07103 241.811C9.95603 243.274 11.224 244 11.894 244C12.317 244 13.909 244.432 15.432 244.96C20.304 246.649 23.31 246.869 40.111 246.762L55.8 246.662L55.902 289.406C55.983 323.337 55.9 332.216 55.502 332.469C55.102 332.723 55.101 332.789 55.5 332.794C55.775 332.797 56 333.07 56 333.4C56 333.746 56.381 334.013 56.9 334.032C57.395 334.049 57.586 334.15 57.325 334.256C56.858 334.447 59.521 337.569 62.36 340.159C63.107 340.842 66.303 343.965 69.462 347.1C72.62 350.235 75.317 352.8 75.455 352.8C75.593 352.8 75.997 353.123 76.353 353.518C76.709 353.914 78.08 355.066 79.4 356.079C80.72 357.092 82.197 358.299 82.683 358.761C83.169 359.222 83.727 359.6 83.924 359.6C84.121 359.6 84.846 360.14 85.537 360.8C86.228 361.46 86.948 362 87.137 362C87.326 362 88.046 362.54 88.737 363.2C89.428 363.86 90.176 364.4 90.4 364.4C90.624 364.4 91.334 364.903 91.978 365.519C92.621 366.134 93.655 366.898 94.274 367.216C94.893 367.534 95.67 368.067 96 368.4C96.33 368.733 97.095 369.26 97.7 369.57C98.305 369.881 98.8 370.285 98.8 370.468C98.8 370.65 99.16 370.8 99.6 370.8C100.04 370.8 100.4 370.958 100.4 371.151C100.4 371.345 100.94 371.727 101.6 372C102.26 372.273 102.8 372.655 102.8 372.849C102.8 373.042 103.16 373.2 103.6 373.2C104.04 373.2 104.4 373.347 104.4 373.526C104.4 373.924 107.001 375.2 107.814 375.2C108.136 375.2 108.4 375.38 108.4 375.6C108.4 375.82 108.67 376 109 376C109.33 376 109.6 376.18 109.6 376.4C109.6 376.62 109.87 376.8 110.2 376.8C110.53 376.8 110.8 376.946 110.8 377.125C110.8 377.304 111.43 377.698 112.2 378C112.97 378.302 113.6 378.696 113.6 378.875C113.6 379.054 113.96 379.2 114.4 379.2C114.84 379.2 115.2 379.38 115.2 379.6C115.2 379.82 115.56 380 116 380C116.44 380 116.8 380.18 116.8 380.4C116.8 380.62 117.03 380.8 117.31 380.8C117.591 380.8 118.896 381.334 120.21 381.987C121.525 382.641 122.915 383.181 123.3 383.187C123.685 383.194 124 383.38 124 383.6C124 383.82 124.36 384 124.8 384C125.24 384 125.6 384.18 125.6 384.4C125.6 384.62 125.96 384.8 126.4 384.8C126.84 384.8 127.2 384.98 127.2 385.2C127.2 385.42 127.65 385.6 128.2 385.6C128.75 385.6 129.2 385.78 129.2 386C129.2 386.22 129.549 386.4 129.976 386.4C130.403 386.4 130.864 386.58 131 386.8C131.136 387.02 131.687 387.2 132.224 387.2C132.761 387.2 133.2 387.38 133.2 387.6C133.2 387.82 133.549 388 133.976 388C134.403 388 134.864 388.18 135 388.4C135.136 388.62 135.676 388.8 136.2 388.8C136.724 388.8 137.264 388.98 137.4 389.2C137.536 389.42 138.087 389.6 138.624 389.6C139.161 389.6 139.6 389.78 139.6 390C139.6 390.22 140.14 390.4 140.8 390.4C141.46 390.4 142 390.567 142 390.771C142 390.975 142.99 391.266 144.2 391.417C145.41 391.568 146.4 391.851 146.4 392.046C146.4 392.241 146.929 392.4 147.576 392.4C148.223 392.4 148.864 392.58 149 392.8C149.136 393.02 149.867 393.2 150.624 393.2C151.381 393.2 152 393.38 152 393.6C152 393.82 152.619 394 153.376 394C154.133 394 154.864 394.18 155 394.4C155.136 394.62 155.766 394.8 156.4 394.8C157.034 394.8 157.664 394.98 157.8 395.2C157.936 395.42 158.757 395.6 159.624 395.6C160.491 395.6 161.2 395.78 161.2 396C161.2 396.22 161.999 396.4 162.976 396.4C163.953 396.4 164.864 396.58 165 396.8C165.136 397.02 166.137 397.2 167.224 397.2C168.311 397.2 169.2 397.38 169.2 397.6C169.2 397.822 170.267 398 171.6 398C172.933 398 174 398.178 174 398.4C174 398.624 175.107 398.8 176.52 398.8C178.003 398.8 179.246 399.006 179.54 399.3C180.271 400.031 228.857 400.031 229.1 399.3C229.212 398.964 230.176 398.8 232.033 398.8C233.611 398.8 234.8 398.628 234.8 398.4C234.8 398.178 235.871 398 237.213 398H239.625L239.513 345.3C239.451 316.315 239.246 292.285 239.057 291.9C238.389 290.535 238 291.234 238 293.8C238 295.267 237.826 296.4 237.6 296.4C237.38 296.4 237.2 297.3 237.2 298.4C237.2 299.5 237.02 300.4 236.8 300.4C236.58 300.4 236.4 301.12 236.4 302C236.4 302.88 236.22 303.6 236 303.6C235.78 303.6 235.6 304.14 235.6 304.8C235.6 305.46 235.42 306 235.2 306C234.98 306 234.8 306.54 234.8 307.2C234.8 307.86 234.62 308.4 234.4 308.4C234.18 308.4 234 308.85 234 309.4C234 309.95 233.82 310.4 233.6 310.4C233.38 310.4 233.2 310.76 233.2 311.2C233.2 311.64 233.02 312 232.8 312C232.58 312 232.4 312.36 232.4 312.8C232.4 313.24 232.22 313.6 232 313.6C231.78 313.6 231.6 314.14 231.6 314.8C231.6 315.46 231.42 316 231.2 316C230.98 316 230.8 316.32 230.8 316.712C230.8 317.103 230.44 317.683 230 318C229.56 318.317 229.2 318.897 229.2 319.288C229.2 319.68 229.02 320 228.8 320C228.58 320 228.4 320.36 228.4 320.8C228.4 321.24 228.22 321.6 228 321.6C227.78 321.6 227.6 321.947 227.6 322.371C227.6 322.796 227.33 323.413 227 323.743C226.67 324.073 226.4 324.586 226.4 324.883C226.4 325.18 226.04 325.683 225.6 326C225.16 326.317 224.8 326.731 224.8 326.92C224.8 327.108 224.08 327.954 223.2 328.8C222.32 329.646 221.6 330.533 221.6 330.772C221.6 331.205 211.01 342 210.585 342C210.463 342 209.914 342.45 209.364 343C208.814 343.55 208.052 344 207.67 344C207.289 344 206.717 344.36 206.4 344.8C206.083 345.24 205.543 345.6 205.2 345.6C204.857 345.6 204.317 345.96 204 346.4C203.683 346.84 203.103 347.2 202.712 347.2C202.32 347.2 202 347.38 202 347.6C202 347.82 201.68 348 201.288 348C200.897 348 200.317 348.36 200 348.8C199.683 349.24 199.103 349.6 198.712 349.6C198.32 349.6 198 349.78 198 350C198 350.22 197.64 350.4 197.2 350.4C196.76 350.4 196.4 350.58 196.4 350.8C196.4 351.02 196.04 351.2 195.6 351.2C195.16 351.2 194.8 351.38 194.8 351.6C194.8 351.82 194.53 352 194.2 352C193.87 352 193.6 352.18 193.6 352.4C193.6 352.62 193.06 352.8 192.4 352.8C191.74 352.8 191.2 352.98 191.2 353.2C191.2 353.42 190.66 353.6 190 353.6C189.34 353.6 188.8 353.78 188.8 354C188.8 354.22 188.44 354.4 188 354.4C187.56 354.4 187.2 354.58 187.2 354.8C187.2 355.02 186.48 355.2 185.6 355.2C184.72 355.2 184 355.38 184 355.6C184 355.82 183.46 356 182.8 356C182.14 356 181.6 356.18 181.6 356.4C181.6 356.62 180.7 356.8 179.6 356.8C178.5 356.8 177.6 356.98 177.6 357.2C177.6 357.42 176.61 357.6 175.4 357.6C174.19 357.6 173.2 357.78 173.2 358C173.2 358.255 169.8 358.4 163.8 358.4C157.8 358.4 154.4 358.255 154.4 358C154.4 357.778 153.333 357.6 152 357.6C150.667 357.6 149.6 357.422 149.6 357.2C149.6 356.98 148.7 356.8 147.6 356.8C146.5 356.8 145.6 356.62 145.6 356.4C145.6 356.18 145.06 356 144.4 356C143.74 356 143.2 355.82 143.2 355.6C143.2 355.38 142.57 355.2 141.8 355.2C141.03 355.2 140.4 355.02 140.4 354.8C140.4 354.58 139.86 354.4 139.2 354.4C138.54 354.4 138 354.22 138 354C138 353.78 137.64 353.6 137.2 353.6C136.76 353.6 136.4 353.42 136.4 353.2C136.4 352.98 136.04 352.8 135.6 352.8C135.16 352.8 134.8 352.62 134.8 352.4C134.8 352.18 134.26 352 133.6 352C132.94 352 132.4 351.82 132.4 351.6C132.4 351.38 132.04 351.2 131.6 351.2C131.16 351.2 130.8 351.02 130.8 350.8C130.8 350.58 130.44 350.4 130 350.4C129.56 350.4 129.2 350.22 129.2 350C129.2 349.78 128.88 349.6 128.488 349.6C128.097 349.6 127.517 349.24 127.2 348.8C126.883 348.36 126.303 348 125.912 348C125.52 348 125.2 347.82 125.2 347.6C125.2 347.38 124.97 347.2 124.688 347.2C124.407 347.2 123.917 346.84 123.6 346.4C123.283 345.96 122.743 345.6 122.4 345.6C122.057 345.6 121.517 345.24 121.2 344.8C120.883 344.36 120.311 344 119.93 344C119.548 344 118.786 343.55 118.236 343C117.686 342.45 117.042 342 116.804 342C116.567 342 114.578 340.155 112.385 337.9C106.684 332.039 106 331.276 106 330.78C106 330.537 105.28 329.646 104.4 328.8C103.52 327.954 102.8 327.108 102.8 326.92C102.8 326.731 102.44 326.317 102 326C101.56 325.683 101.2 325.143 101.2 324.8C101.2 324.457 100.84 323.917 100.4 323.6C99.96 323.283 99.6 322.703 99.6 322.312C99.6 321.92 99.42 321.6 99.2 321.6C98.98 321.6 98.8 321.24 98.8 320.8C98.8 320.36 98.62 320 98.4 320C98.18 320 98 319.68 98 319.288C98 318.897 97.64 318.317 97.2 318C96.76 317.683 96.4 317.103 96.4 316.712C96.4 316.32 96.22 316 96 316C95.78 316 95.6 315.46 95.6 314.8C95.6 314.14 95.42 313.6 95.2 313.6C94.98 313.6 94.8 313.24 94.8 312.8C94.8 312.36 94.62 312 94.4 312C94.18 312 94 311.64 94 311.2C94 310.76 93.82 310.4 93.6 310.4C93.38 310.4 93.2 309.95 93.2 309.4C93.2 308.85 93.02 308.4 92.8 308.4C92.58 308.4 92.4 307.86 92.4 307.2C92.4 306.54 92.231 306 92.024 306C91.818 306 91.524 304.74 91.373 303.2C91.221 301.66 90.94 300.4 90.748 300.4C90.557 300.4 90.4 299.5 90.4 298.4C90.4 297.3 90.22 296.4 90 296.4C89.774 296.4 89.6 295.267 89.6 293.8C89.6 292.333 89.426 291.2 89.2 291.2C88.947 291.2 88.8 288.4 88.8 283.6C88.8 278.8 88.947 276 89.2 276C89.42 276 89.6 275.55 89.6 275C89.6 274.45 89.78 274 90 274C90.22 274 90.4 273.64 90.4 273.2C90.4 272.76 90.58 272.4 90.8 272.4C91.02 272.4 91.2 272.052 91.2 271.627C91.2 270.694 94.89 266.8 95.774 266.8C96.118 266.8 96.4 266.62 96.4 266.4C96.4 266.18 96.76 266 97.2 266C97.64 266 98 265.82 98 265.6C98 265.38 98.54 265.2 99.2 265.2C99.86 265.2 100.4 265.02 100.4 264.8C100.4 264.535 123.733 264.4 169.6 264.4C207.66 264.4 238.836 264.355 238.88 264.3C238.924 264.245 239.059 260.24 239.18 255.4L239.4 246.6L251.373 246.494C260.677 246.412 263.421 246.501 263.684 246.894C263.87 247.172 263.9 264.275 263.751 284.9L263.478 322.4H264.339C264.813 322.4 265.2 322.22 265.2 322C265.2 321.78 265.56 321.6 266 321.6C266.44 321.6 266.8 321.42 266.8 321.2C266.8 320.98 267.52 320.8 268.4 320.8C269.28 320.8 270 320.62 270 320.4C270 320.18 270.72 320 271.6 320C272.48 320 273.2 320.18 273.2 320.4C273.2 320.62 273.92 320.8 274.8 320.8C275.68 320.8 276.4 320.98 276.4 321.2C276.4 321.42 276.67 321.6 277 321.6C277.33 321.6 277.6 321.78 277.6 322C277.6 322.22 277.962 322.4 278.404 322.4C279.204 322.4 279.208 322.199 279.196 283.741C279.19 262.479 279.278 244.989 279.392 244.875C279.8 244.467 279.59 244 279 244C278.67 244 278.4 244.18 278.4 244.4C278.4 244.62 277.95 244.8 277.4 244.8C276.85 244.8 276.4 244.98 276.4 245.2C276.4 245.466 238.6 245.6 163.8 245.6C89 245.6 51.2 245.466 51.2 245.2C51.2 244.98 50.66 244.8 50 244.8C49.34 244.8 48.8 244.643 48.8 244.452C48.8 244.26 47.939 243.989 46.887 243.849C45.644 243.684 44.772 243.316 44.398 242.798C44.082 242.359 43.569 242 43.259 242C42.67 242 41.2 240.528 41.2 239.939C41.2 239.752 40.84 239.6 40.4 239.6C39.938 239.6 39.6 239.333 39.6 238.969C39.6 238.621 38.88 237.646 38 236.8C37.12 235.954 36.4 234.979 36.4 234.631C36.4 234.284 36.22 234 36 234C35.78 234 35.6 233.64 35.6 233.2C35.6 232.76 35.42 232.4 35.2 232.4C34.98 232.4 34.8 232.04 34.8 231.6C34.8 231.16 34.62 230.8 34.4 230.8C34.18 230.8 34 230.26 34 229.6C34 228.94 33.82 228.4 33.6 228.4C33.38 228.4 33.2 227.59 33.2 226.6C33.2 225.61 33.02 224.8 32.8 224.8C32.58 224.8 32.4 224.26 32.4 223.6C32.4 222.94 32.58 222.4 32.8 222.4C33.02 222.4 33.2 221.86 33.2 221.2C33.2 220.54 33.38 220 33.6 220C33.82 220 34 219.722 34 219.382C34 218.582 35.782 216.8 36.582 216.8C36.922 216.8 37.2 216.62 37.2 216.4C37.2 216.18 37.74 216 38.4 216C40.39 216 39.749 215.329 37.5 215.059C36.345 214.92 29.325 214.805 21.9 214.803C10.168 214.8 8.40003 214.721 8.40003 214.2C8.40003 213.527 7.38203 213.382 7.00003 214ZM294 221.576C294 222.029 294.18 222.4 294.4 222.4C294.62 222.4 294.8 222.141 294.8 221.824C294.8 221.507 294.62 221.136 294.4 221C294.18 220.864 294 221.123 294 221.576ZM294 225.6C294 226.04 294.18 226.4 294.4 226.4C294.62 226.4 294.8 226.04 294.8 225.6C294.8 225.16 294.62 224.8 294.4 224.8C294.18 224.8 294 225.16 294 225.6ZM288.86 237.451C288.343 238.002 288.017 238.55 288.136 238.669C288.352 238.885 290.4 237.03 290.4 236.618C290.4 236.147 289.756 236.495 288.86 237.451ZM285.66 240.651C285.143 241.202 284.817 241.75 284.936 241.869C285.152 242.085 287.2 240.23 287.2 239.818C287.2 239.347 286.556 239.695 285.66 240.651ZM282.924 242.573C282.279 243.308 282.753 243.704 283.448 243.01C283.751 242.706 284 242.354 284 242.229C284 241.826 283.415 242.013 282.924 242.573ZM291.2 387.4C291.2 392.067 291.052 394.8 290.8 394.8C290.243 394.8 290.299 396.139 290.88 396.72C291.253 397.093 291.066 397.2 290.037 397.2C289.039 397.2 288.77 397.344 288.94 397.787C289.064 398.11 288.965 398.498 288.721 398.649C288.46 398.81 288.388 398.742 288.547 398.486C288.712 398.219 288.502 398.072 288.009 398.109C287.564 398.143 287.2 398.312 287.2 398.485C287.2 398.658 280.18 398.8 271.6 398.8C261.467 398.8 256 398.66 256 398.4C256 398.18 255.865 398.021 255.7 398.047C254.437 398.247 253.137 397.898 252.912 397.3C252.599 396.465 251.599 395.63 250.891 395.613C250.509 395.603 250.534 395.833 250.992 396.532C251.328 397.044 251.467 397.613 251.301 397.796C251.136 397.979 251.228 397.997 251.507 397.836C251.785 397.676 251.892 397.349 251.745 397.111C251.579 396.843 251.664 396.792 251.965 396.979C252.234 397.145 252.353 397.546 252.228 397.87C251.591 399.532 252.304 399.6 270.395 399.6C281.795 399.6 287.563 399.464 287.4 399.2C287.264 398.98 287.343 398.8 287.576 398.8C287.809 398.8 288 398.98 288 399.2C288 399.42 288.474 399.6 289.053 399.6C290.517 399.6 291.703 398.131 291.518 396.547C291.404 395.575 291.503 395.341 291.955 395.515C292.381 395.678 292.466 395.548 292.269 395.037C292.121 394.651 292 391.109 292 387.167C292 382.656 291.852 380 291.6 380C291.348 380 291.2 382.733 291.2 387.4Z" fill="#841C3C"/>
<path fill-rule="evenodd" clip-rule="evenodd" d="M218.3 0.273948C216.375 0.359948 214.8 0.588948 214.8 0.780948C214.8 0.973948 213.675 1.23295 212.3 1.35595C206.764 1.85195 205.2 2.08995 205.2 2.43695C205.2 2.63695 204.401 2.79995 203.424 2.79995C202.447 2.79995 201.548 2.95995 201.427 3.15595C201.22 3.49195 200.207 3.72795 196.697 4.25795C195.871 4.38195 195.095 4.64495 194.974 4.84195C194.852 5.03895 194.133 5.19995 193.376 5.19995C192.619 5.19995 192 5.37995 192 5.59995C192 5.81995 191.471 5.99995 190.824 5.99995C190.177 5.99995 189.536 6.17995 189.4 6.39995C189.264 6.61995 188.713 6.79995 188.176 6.79995C187.639 6.79995 187.2 6.97995 187.2 7.19995C187.2 7.41995 186.66 7.59995 186 7.59995C185.34 7.59995 184.8 7.77995 184.8 7.99995C184.8 8.21995 184.44 8.39995 184 8.39995C183.56 8.39995 183.2 8.59095 183.2 8.82395C183.2 9.05695 183.022 9.13695 182.805 9.00295C182.587 8.86795 182.501 8.99695 182.613 9.28895C182.738 9.61595 181.84 10.4609 180.271 11.4929C176.454 14.0019 175.402 15.9429 176.361 18.6999C177.458 21.8499 187.357 30.9639 188.2 29.5999C188.336 29.3799 188.966 29.1999 189.6 29.1999C190.234 29.1999 190.852 29.0399 190.973 28.8439C191.094 28.6489 191.779 28.3919 192.496 28.2729C193.213 28.1549 194.61 27.8499 195.6 27.5959C196.59 27.3429 198.076 27.0399 198.903 26.9249C199.729 26.8099 200.505 26.5549 200.626 26.3579C200.748 26.1609 201.409 25.9999 202.095 25.9999C206.239 25.9999 206.665 24.5809 204.349 18.4809C203.087 15.1569 204.942 11.9999 208.157 11.9999C208.704 11.9999 209.264 11.8199 209.4 11.5999C209.786 10.9749 212.322 11.1309 213.416 11.8469C214.391 12.4859 215.943 16.6779 216.625 20.5139C217.108 23.2319 217.939 23.8439 220.379 23.2809C221.524 23.0159 224.405 22.7999 226.782 22.7999C232.138 22.7999 231.903 23.0859 232.067 16.3689C232.21 10.5399 232.301 10.2769 234.519 9.29495C235.966 8.65495 239.76 8.65695 240.89 9.29995C242.929 10.4599 242.993 10.6589 243.139 16.3709C243.311 23.0969 243.066 22.7999 248.443 22.7999C250.833 22.7999 253.609 23.0189 254.611 23.2869C257.37 24.0249 257.941 23.4089 258.676 18.8959C258.793 18.1789 259.049 17.4939 259.244 17.3729C259.44 17.2519 259.6 16.6339 259.6 15.9999C259.6 15.3659 259.78 14.7359 260 14.5999C260.22 14.4639 260.4 14.0349 260.4 13.6459C260.4 11.8699 264.911 10.1609 265.8 11.5999C265.936 11.8199 266.489 11.9999 267.029 11.9999C268.029 11.9999 269.329 12.5949 270.318 13.5049C270.952 14.0879 270.803 18.0219 270.054 20.4999C268.897 24.3229 268.838 24.8419 269.536 25.0559C269.901 25.1669 270.513 25.4249 270.895 25.6289C271.277 25.8329 272.211 25.9999 272.971 25.9999C273.731 25.9999 274.452 26.1609 274.574 26.3579C274.695 26.5549 275.471 26.8099 276.297 26.9249C277.124 27.0399 278.61 27.3429 279.6 27.5959C280.59 27.8499 281.987 28.1549 282.704 28.2729C283.421 28.3919 284.106 28.6489 284.227 28.8439C284.348 29.0399 284.966 29.1999 285.6 29.1999C286.234 29.1999 286.864 29.3799 287 29.5999C287.604 30.5769 288.888 29.6999 293.296 25.3039C295.886 22.7209 298.318 20.6059 298.702 20.6039C299.299 20.6009 299.417 20.1289 299.515 17.3609L299.63 14.1219L297.954 12.4949C296.317 10.9059 291.822 8.39995 290.608 8.39995C290.274 8.39995 290 8.21995 290 7.99995C290 7.77995 289.651 7.59995 289.224 7.59995C288.797 7.59995 288.336 7.41995 288.2 7.19995C288.064 6.97995 287.524 6.79995 287 6.79995C286.476 6.79995 285.936 6.61995 285.8 6.39995C285.664 6.17995 285.023 5.99995 284.376 5.99995C283.729 5.99995 283.2 5.81995 283.2 5.59995C283.2 5.37995 282.581 5.19995 281.824 5.19995C281.067 5.19995 280.336 5.01995 280.2 4.79995C280.064 4.57995 279.243 4.39995 278.376 4.39995C277.509 4.39995 276.8 4.21995 276.8 3.99995C276.8 3.77995 276.08 3.59995 275.2 3.59995C274.32 3.59995 273.6 3.41995 273.6 3.19995C273.6 2.97995 272.801 2.79995 271.824 2.79995C270.847 2.79995 269.936 2.61995 269.8 2.39995C269.664 2.17995 268.674 1.99995 267.6 1.99995C266.526 1.99995 265.536 1.81995 265.4 1.59995C265.264 1.37995 264.119 1.19995 262.856 1.19995C261.585 1.19995 260.343 0.982947 260.073 0.712947C259.59 0.229947 226.931 -0.113052 218.3 0.273948ZM233.521 36.2989C235.788 36.3699 239.388 36.3699 241.521 36.2979C243.655 36.2259 241.8 36.1679 237.4 36.1679C233 36.1679 231.255 36.2269 233.521 36.2989ZM252.1 37.0759C252.485 37.1759 253.115 37.1759 253.5 37.0759C253.885 36.9749 253.57 36.8929 252.8 36.8929C252.03 36.8929 251.715 36.9749 252.1 37.0759ZM344.255 67.3999C344.052 67.9309 332.053 67.9999 239.594 67.9999H135.162L133.237 69.924C130.556 72.606 130.677 70.8839 130.512 108.6C130.347 146.147 130.342 146.054 132.674 148.778C134.84 151.308 147.159 158.8 149.154 158.8C149.405 158.8 149.968 158.98 150.405 159.2C150.842 159.42 151.558 159.78 151.995 160C152.432 160.22 153.141 160.4 153.571 160.4C154.001 160.4 154.464 160.58 154.6 160.8C154.736 161.02 155.366 161.2 156 161.2C156.634 161.2 157.264 161.38 157.4 161.6C157.536 161.82 158.188 162 158.85 162C161.661 162 161.6 161.768 161.6 172.414C161.6 180.72 161.519 182 160.993 182C160.241 182 154.492 180.509 153.4 180.031C152.96 179.838 151.97 179.464 151.2 179.199C149.106 178.479 142.801 175.618 142.4 175.205C142.29 175.092 141.795 174.775 141.3 174.5C140.805 174.225 139.995 173.775 139.5 173.5C139.005 173.225 138.51 172.892 138.4 172.76C136.583 170.578 132.153 171.502 130.981 174.307C130.201 176.173 130.208 214.227 130.981 215C131.351 215.37 149.483 214.5 210.5 214.5C287.585 214.5 289.554 214.757 291 215.5C292.542 216.294 294.199 217.491 295.157 219.186C295.816 220.352 295.856 228.304 295.206 228.954C294.983 229.177 294.8 229.763 294.8 230.256C294.8 230.749 294.62 231.264 294.4 231.4C294.18 231.536 294 231.997 294 232.424C294 232.851 293.854 233.2 293.675 233.2C293.496 233.2 293.102 233.83 292.8 234.6C292.498 235.37 292.104 236 291.925 236C291.746 236 291.6 236.254 291.6 236.564C291.6 238.002 284.83 243.699 281.3 245.231L280 245.795V262.698V279.6H317.38C363.306 279.6 361.954 279.801 365.848 272.392L367 270.2L367.097 196C367.161 147.518 367.059 122.008 366.804 122.4C366.588 122.73 366.409 123.63 366.406 124.4C366.399 126.088 365.503 130.892 364.452 134.883C363.778 137.44 363.364 138.684 362.02 142.2C361.851 142.64 361.328 143.782 360.857 144.738C360.386 145.694 360 146.729 360 147.038C360 147.347 359.841 147.6 359.647 147.6C359.452 147.6 359.19 147.915 359.064 148.3C358.785 149.152 357.131 151.966 355.477 154.4C350.136 162.263 339.795 171.669 332.6 175.208C331.94 175.533 331.31 175.889 331.2 176C331.09 176.111 330.55 176.403 330 176.65C329.45 176.897 328.19 177.463 327.2 177.908C326.21 178.353 324.77 178.934 324 179.199C323.23 179.464 322.24 179.822 321.8 179.995C320.327 180.573 314.863 181.994 314.1 181.998C313.714 181.999 313.6 179.817 313.6 172.414C313.6 161.768 313.539 162 316.35 162C317.012 162 317.664 161.82 317.8 161.6C317.936 161.38 318.566 161.2 319.2 161.2C319.834 161.2 320.464 161.02 320.6 160.8C320.736 160.58 321.199 160.4 321.629 160.4C322.059 160.4 322.723 160.241 323.105 160.047C323.487 159.852 324.25 159.516 324.8 159.3C337.82 154.181 348.625 145.553 356.33 134.122C357.248 132.759 358 131.454 358 131.222C358 130.99 358.146 130.8 358.325 130.8C358.504 130.8 358.898 130.17 359.2 129.4C359.502 128.63 359.852 128 359.977 128C360.102 128 360.444 127.415 360.737 126.7C361.029 125.985 361.636 124.59 362.085 123.6C362.534 122.61 363.034 121.44 363.197 121C363.36 120.56 363.677 119.75 363.901 119.2C364.275 118.282 364.659 116.995 365.688 113.2C365.897 112.43 366.248 111.26 366.468 110.6C366.688 109.94 366.968 106.385 367.09 102.7C367.268 97.2879 367.42 95.9999 367.878 95.9999C368.47 95.9999 368.422 81.8239 367.815 77.5999C367.37 74.4979 363.339 68.9439 361.189 68.4699C360.865 68.3979 360.54 68.1729 360.467 67.9699C360.393 67.7659 359.628 67.5999 358.767 67.5999C357.905 67.5999 357.2 67.4199 357.2 67.1999C357.2 66.4829 344.532 66.6789 344.255 67.3999ZM186.982 150.959C189.823 153.126 189.738 152.42 189.741 173.8C189.744 196.649 189.807 196.228 185.798 200.261C181.783 204.301 179.53 204.388 175.818 200.648C172.866 197.675 172.949 196.8 176.181 196.8C177.601 196.8 179.266 196.575 179.881 196.3C180.929 195.832 181.402 195.502 183.176 194C185.557 191.986 186.439 186.012 184.824 182.846C182.702 178.688 177.21 176.554 172.4 178.017C171.248 178.368 171.321 155.51 172.479 153.252C174.412 149.482 183.22 148.09 186.982 150.959ZM309.533 150.753C312.691 153.001 312.52 151.67 312.54 174.147L312.558 194.2L311.539 196.418C308.548 202.925 303.558 205.028 299.6 201.449C295.764 197.981 295.592 196.8 298.924 196.8C302.675 196.8 307.6 193.953 307.6 191.785C307.6 191.5 307.799 191.2 308.042 191.119C308.914 190.829 308.612 184.385 307.646 182.674C305.504 178.88 302.581 177.401 297.811 177.699L294.4 177.911V166.379C294.4 159.123 294.548 154.756 294.8 154.6C295.02 154.464 295.2 154.081 295.2 153.75C295.2 150.255 305.74 148.051 309.533 150.753ZM284.8 173.4V183.2H237.6H190.4V173.4V163.6H237.6H284.8V173.4ZM240.095 263.3L240.2 279.4L251.372 279.506C260.044 279.589 262.617 279.5 262.866 279.106C263.043 278.828 263.191 271.535 263.194 262.9L263.2 247.2H251.595H239.991L240.095 263.3Z" fill="#67647E"/>
<path fill-rule="evenodd" clip-rule="evenodd" d="M290.019 29.393L281.4 37.985L282.911 39.231C284.528 40.564 287.6 44.801 287.6 45.698C287.6 45.996 287.75 46.411 287.933 46.62C288.875 47.696 289.2 50.81 289.2 58.746V67.2H301H312.8L312.768 59.5C312.733 50.881 312.176 44.219 311.305 42C311.176 41.67 311.116 40.455 311.172 39.3C311.236 37.986 311.11 37.2 310.837 37.2C310.597 37.2 310.4 36.84 310.4 36.4C310.4 35.96 310.22 35.6 310 35.6C309.78 35.6 309.6 35.265 309.6 34.856C309.6 34.062 307.478 29.82 306.555 28.769C306.25 28.421 306 28.01 306 27.855C306 27.699 305.235 26.749 304.3 25.742C303.365 24.736 301.953 23.212 301.162 22.356C299.137 20.164 299.516 19.924 290.019 29.393ZM174.14 24.102C169.543 28.857 166.168 34.511 164.411 40.4C163.919 42.05 163.332 43.94 163.108 44.6C162.883 45.26 162.61 50.615 162.5 56.5L162.3 67.2H173.95H185.6V59.62C185.6 48.729 186.635 45.144 191.181 40.284L193.507 37.798L185.224 29.501L176.942 21.204L174.14 24.102ZM292.167 387.4C292.167 391.58 292.226 393.236 292.298 391.079C292.371 388.923 292.37 385.503 292.298 383.479C292.225 381.456 292.166 383.22 292.167 387.4Z" fill="#333333"/>
<path fill-rule="evenodd" clip-rule="evenodd" d="M176.51 149.964C174.524 150.474 173.457 151.344 172.479 153.252C171.321 155.51 171.248 178.368 172.4 178.017C177.21 176.554 182.702 178.688 184.824 182.846C186.439 186.012 185.557 191.986 183.176 194C181.402 195.502 180.929 195.832 179.881 196.3C179.266 196.575 177.601 196.8 176.181 196.8C172.949 196.8 172.866 197.675 175.818 200.648C179.53 204.388 181.783 204.301 185.798 200.261C189.807 196.228 189.744 196.649 189.741 173.8C189.738 152.42 189.823 153.126 186.982 150.959C185.443 149.785 179.431 149.214 176.51 149.964ZM299.23 149.98C297.765 150.352 295.2 152.751 295.2 153.75C295.2 154.081 295.02 154.464 294.8 154.6C294.548 154.756 294.4 159.123 294.4 166.379V177.911L297.811 177.699C302.581 177.401 305.504 178.88 307.646 182.674C308.612 184.385 308.914 190.829 308.042 191.119C307.799 191.2 307.6 191.5 307.6 191.785C307.6 193.953 302.675 196.8 298.924 196.8C295.592 196.8 295.764 197.981 299.6 201.449C303.558 205.028 308.548 202.925 311.539 196.418L312.558 194.2L312.54 174.147C312.52 151.67 312.691 153.001 309.533 150.753C308.156 149.772 301.9 149.302 299.23 149.98Z" fill="#D38884"/>
<path fill-rule="evenodd" clip-rule="evenodd" d="M38.1001 215.091C39.8831 215.278 40.1221 216 38.4001 216C37.7401 216 37.2001 216.18 37.2001 216.4C37.2001 216.62 36.9221 216.8 36.5821 216.8C35.7821 216.8 34.0001 218.582 34.0001 219.382C34.0001 219.722 33.8201 220 33.6001 220C33.3801 220 33.2001 220.54 33.2001 221.2C33.2001 221.86 33.0201 222.4 32.8001 222.4C32.5801 222.4 32.4001 222.94 32.4001 223.6C32.4001 224.26 32.5801 224.8 32.8001 224.8C33.0201 224.8 33.2001 225.61 33.2001 226.6C33.2001 227.59 33.3801 228.4 33.6001 228.4C33.8201 228.4 34.0001 228.94 34.0001 229.6C34.0001 230.26 34.1801 230.8 34.4001 230.8C34.6201 230.8 34.8001 231.16 34.8001 231.6C34.8001 232.04 34.9801 232.4 35.2001 232.4C35.4201 232.4 35.6001 232.76 35.6001 233.2C35.6001 233.64 35.7801 234 36.0001 234C36.2201 234 36.4001 234.284 36.4001 234.631C36.4001 234.979 37.1201 235.954 38.0001 236.8C38.8801 237.646 39.6001 238.621 39.6001 238.969C39.6001 239.333 39.9381 239.6 40.4001 239.6C40.8401 239.6 41.2001 239.752 41.2001 239.939C41.2001 240.528 42.6701 242 43.2591 242C43.5691 242 44.0821 242.359 44.3981 242.798C44.7721 243.316 45.6441 243.684 46.8871 243.849C47.9391 243.989 48.8001 244.26 48.8001 244.452C48.8001 244.643 49.3401 244.8 50.0001 244.8C50.6601 244.8 51.2001 244.98 51.2001 245.2C51.2001 245.466 89.0001 245.6 163.8 245.6C238.6 245.6 276.4 245.466 276.4 245.2C276.4 244.98 276.85 244.8 277.4 244.8C277.95 244.8 278.4 244.62 278.4 244.4C278.4 244.18 278.67 244 279 244C279.59 244 279.8 244.467 279.392 244.875C279.278 244.989 279.19 262.479 279.196 283.741C279.208 322.199 279.204 322.4 278.404 322.4C277.962 322.4 277.6 322.22 277.6 322C277.6 321.78 277.33 321.6 277 321.6C276.67 321.6 276.4 321.42 276.4 321.2C276.4 320.98 275.68 320.8 274.8 320.8C273.92 320.8 273.2 320.62 273.2 320.4C273.2 320.18 272.48 320 271.6 320C270.72 320 270 320.18 270 320.4C270 320.62 269.28 320.8 268.4 320.8C267.52 320.8 266.8 320.98 266.8 321.2C266.8 321.42 266.44 321.6 266 321.6C265.56 321.6 265.2 321.78 265.2 322C265.2 322.22 264.813 322.4 264.339 322.4H263.478L263.751 284.9C263.9 264.275 263.87 247.172 263.684 246.894C263.421 246.501 260.677 246.412 251.373 246.494L239.4 246.6L239.18 255.4C239.059 260.24 238.924 264.245 238.88 264.3C238.836 264.355 207.66 264.4 169.6 264.4C123.733 264.4 100.4 264.535 100.4 264.8C100.4 265.02 99.8601 265.2 99.2001 265.2C98.5401 265.2 98.0001 265.38 98.0001 265.6C98.0001 265.82 97.6401 266 97.2001 266C96.7601 266 96.4001 266.18 96.4001 266.4C96.4001 266.62 96.1181 266.8 95.7741 266.8C94.8901 266.8 91.2001 270.694 91.2001 271.627C91.2001 272.052 91.0201 272.4 90.8001 272.4C90.5801 272.4 90.4001 272.76 90.4001 273.2C90.4001 273.64 90.2201 274 90.0001 274C89.7801 274 89.6001 274.45 89.6001 275C89.6001 275.55 89.4201 276 89.2001 276C88.9471 276 88.8001 278.8 88.8001 283.6C88.8001 288.4 88.9471 291.2 89.2001 291.2C89.4261 291.2 89.6001 292.333 89.6001 293.8C89.6001 295.267 89.7741 296.4 90.0001 296.4C90.2201 296.4 90.4001 297.3 90.4001 298.4C90.4001 299.5 90.5571 300.4 90.7481 300.4C90.9401 300.4 91.2211 301.66 91.3731 303.2C91.5241 304.74 91.8181 306 92.0241 306C92.2311 306 92.4001 306.54 92.4001 307.2C92.4001 307.86 92.5801 308.4 92.8001 308.4C93.0201 308.4 93.2001 308.85 93.2001 309.4C93.2001 309.95 93.3801 310.4 93.6001 310.4C93.8201 310.4 94.0001 310.76 94.0001 311.2C94.0001 311.64 94.1801 312 94.4001 312C94.6201 312 94.8001 312.36 94.8001 312.8C94.8001 313.24 94.9801 313.6 95.2001 313.6C95.4201 313.6 95.6001 314.14 95.6001 314.8C95.6001 315.46 95.7801 316 96.0001 316C96.2201 316 96.4001 316.32 96.4001 316.712C96.4001 317.103 96.7601 317.683 97.2001 318C97.6401 318.317 98.0001 318.897 98.0001 319.288C98.0001 319.68 98.1801 320 98.4001 320C98.6201 320 98.8001 320.36 98.8001 320.8C98.8001 321.24 98.9801 321.6 99.2001 321.6C99.4201 321.6 99.6001 321.92 99.6001 322.312C99.6001 322.703 99.9601 323.283 100.4 323.6C100.84 323.917 101.2 324.457 101.2 324.8C101.2 325.143 101.56 325.683 102 326C102.44 326.317 102.8 326.731 102.8 326.92C102.8 327.108 103.52 327.954 104.4 328.8C105.28 329.646 106 330.537 106 330.78C106 331.276 106.684 332.039 112.385 337.9C114.578 340.155 116.567 342 116.804 342C117.042 342 117.686 342.45 118.236 343C118.786 343.55 119.548 344 119.93 344C120.311 344 120.883 344.36 121.2 344.8C121.517 345.24 122.057 345.6 122.4 345.6C122.743 345.6 123.283 345.96 123.6 346.4C123.917 346.84 124.407 347.2 124.688 347.2C124.97 347.2 125.2 347.38 125.2 347.6C125.2 347.82 125.52 348 125.912 348C126.303 348 126.883 348.36 127.2 348.8C127.517 349.24 128.097 349.6 128.488 349.6C128.88 349.6 129.2 349.78 129.2 350C129.2 350.22 129.56 350.4 130 350.4C130.44 350.4 130.8 350.58 130.8 350.8C130.8 351.02 131.16 351.2 131.6 351.2C132.04 351.2 132.4 351.38 132.4 351.6C132.4 351.82 132.94 352 133.6 352C134.26 352 134.8 352.18 134.8 352.4C134.8 352.62 135.16 352.8 135.6 352.8C136.04 352.8 136.4 352.98 136.4 353.2C136.4 353.42 136.76 353.6 137.2 353.6C137.64 353.6 138 353.78 138 354C138 354.22 138.54 354.4 139.2 354.4C139.86 354.4 140.4 354.58 140.4 354.8C140.4 355.02 141.03 355.2 141.8 355.2C142.57 355.2 143.2 355.38 143.2 355.6C143.2 355.82 143.74 356 144.4 356C145.06 356 145.6 356.18 145.6 356.4C145.6 356.62 146.5 356.8 147.6 356.8C148.7 356.8 149.6 356.98 149.6 357.2C149.6 357.422 150.667 357.6 152 357.6C153.333 357.6 154.4 357.778 154.4 358C154.4 358.255 157.8 358.4 163.8 358.4C169.8 358.4 173.2 358.255 173.2 358C173.2 357.78 174.19 357.6 175.4 357.6C176.61 357.6 177.6 357.42 177.6 357.2C177.6 356.98 178.5 356.8 179.6 356.8C180.7 356.8 181.6 356.62 181.6 356.4C181.6 356.18 182.14 356 182.8 356C183.46 356 184 355.82 184 355.6C184 355.38 184.72 355.2 185.6 355.2C186.48 355.2 187.2 355.02 187.2 354.8C187.2 354.58 187.56 354.4 188 354.4C188.44 354.4 188.8 354.22 188.8 354C188.8 353.78 189.34 353.6 190 353.6C190.66 353.6 191.2 353.42 191.2 353.2C191.2 352.98 191.74 352.8 192.4 352.8C193.06 352.8 193.6 352.62 193.6 352.4C193.6 352.18 193.87 352 194.2 352C194.53 352 194.8 351.82 194.8 351.6C194.8 351.38 195.16 351.2 195.6 351.2C196.04 351.2 196.4 351.02 196.4 350.8C196.4 350.58 196.76 350.4 197.2 350.4C197.64 350.4 198 350.22 198 350C198 349.78 198.32 349.6 198.712 349.6C199.103 349.6 199.683 349.24 200 348.8C200.317 348.36 200.897 348 201.288 348C201.68 348 202 347.82 202 347.6C202 347.38 202.32 347.2 202.712 347.2C203.103 347.2 203.683 346.84 204 346.4C204.317 345.96 204.857 345.6 205.2 345.6C205.543 345.6 206.083 345.24 206.4 344.8C206.717 344.36 207.289 344 207.67 344C208.052 344 208.814 343.55 209.364 343C209.914 342.45 210.463 342 210.585 342C211.01 342 221.6 331.205 221.6 330.772C221.6 330.533 222.32 329.646 223.2 328.8C224.08 327.954 224.8 327.108 224.8 326.92C224.8 326.731 225.16 326.317 225.6 326C226.04 325.683 226.4 325.18 226.4 324.883C226.4 324.586 226.67 324.073 227 323.743C227.33 323.413 227.6 322.796 227.6 322.371C227.6 321.947 227.78 321.6 228 321.6C228.22 321.6 228.4 321.24 228.4 320.8C228.4 320.36 228.58 320 228.8 320C229.02 320 229.2 319.68 229.2 319.288C229.2 318.897 229.56 318.317 230 318C230.44 317.683 230.8 317.103 230.8 316.712C230.8 316.32 230.98 316 231.2 316C231.42 316 231.6 315.46 231.6 314.8C231.6 314.14 231.78 313.6 232 313.6C232.22 313.6 232.4 313.24 232.4 312.8C232.4 312.36 232.58 312 232.8 312C233.02 312 233.2 311.64 233.2 311.2C233.2 310.76 233.38 310.4 233.6 310.4C233.82 310.4 234 309.95 234 309.4C234 308.85 234.18 308.4 234.4 308.4C234.62 308.4 234.8 307.86 234.8 307.2C234.8 306.54 234.98 306 235.2 306C235.42 306 235.6 305.46 235.6 304.8C235.6 304.14 235.78 303.6 236 303.6C236.22 303.6 236.4 302.88 236.4 302C236.4 301.12 236.58 300.4 236.8 300.4C237.02 300.4 237.2 299.5 237.2 298.4C237.2 297.3 237.38 296.4 237.6 296.4C237.826 296.4 238 295.267 238 293.8C238 289.985 238.917 290.399 239.328 294.4C239.593 296.973 239.733 288.379 239.767 267.6L239.8 247L251.374 246.894C257.763 246.835 263.107 246.947 263.303 247.143C263.51 247.35 263.538 263.049 263.369 284.65L263.079 321.8L261.553 322.887C254.51 327.901 253.697 338.377 259.746 346.188C259.969 346.477 259.186 347.547 257.529 349.217C255.146 351.62 253.466 354.337 252.29 357.693C251.685 359.421 251.221 394.713 251.8 394.997C252.02 395.104 251.795 395.092 251.3 394.969C250.009 394.649 250.189 395.311 251.557 395.917C252.194 396.199 252.807 396.783 252.92 397.215C253.101 397.909 254.301 398.268 255.7 398.047C255.865 398.021 256 398.18 256 398.4C256 398.66 261.44 398.8 271.52 398.8C283.058 398.8 287.163 398.923 287.52 399.28C287.893 399.653 288 399.653 288 399.28C288 399.016 287.82 398.8 287.6 398.8C286.833 398.8 287.206 398.17 288.009 398.109C288.502 398.072 288.712 398.219 288.547 398.486C288.388 398.742 288.46 398.81 288.721 398.649C288.965 398.498 289.064 398.11 288.94 397.787C288.77 397.344 289.039 397.2 290.037 397.2C291.066 397.2 291.253 397.093 290.88 396.72C290.316 396.156 290.243 394.925 290.762 394.733C291.35 394.517 291.761 363.906 291.22 360.631C290.418 355.776 288.531 352.206 284.872 348.625L282.855 346.65L283.89 345.425C289.237 339.1 288.34 329.116 281.919 323.463L279.6 321.422V283.405V245.389L281.229 244.683C282.126 244.295 282.786 243.759 282.697 243.492C282.496 242.888 283.536 241.795 283.919 242.207C284.074 242.373 283.975 242.59 283.7 242.688C283.425 242.786 283.2 243.038 283.2 243.247C283.2 243.797 284.708 242.925 286.884 241.118C290.132 238.419 294.435 232.078 293.28 231.693C292.543 231.448 292.711 230.749 293.475 230.882C294.393 231.042 294.871 229.138 295.085 224.464C295.317 219.402 294.379 217.421 290.916 215.657L289.232 214.8L162.916 214.867C93.4421 214.904 37.2751 215.005 38.1001 215.091ZM294.8 221.824C294.8 222.141 294.62 222.4 294.4 222.4C294.18 222.4 294 222.029 294 221.576C294 221.123 294.18 220.864 294.4 221C294.62 221.136 294.8 221.507 294.8 221.824ZM294.8 225.6C294.8 226.04 294.62 226.4 294.4 226.4C294.18 226.4 294 226.04 294 225.6C294 225.16 294.18 224.8 294.4 224.8C294.62 224.8 294.8 225.16 294.8 225.6ZM290.4 236.618C290.4 237.03 288.352 238.885 288.136 238.669C288.017 238.55 288.343 238.002 288.86 237.451C289.756 236.495 290.4 236.147 290.4 236.618ZM287.2 239.818C287.2 240.23 285.152 242.085 284.936 241.869C284.817 241.75 285.143 241.202 285.66 240.651C286.556 239.695 287.2 239.347 287.2 239.818ZM19.4001 246.4C20.0601 246.568 21.1401 246.706 21.8001 246.707C22.8091 246.708 22.7451 246.655 21.4001 246.377C19.3741 245.958 17.7371 245.977 19.4001 246.4ZM54.0001 246.738L55.4001 247V289.7C55.4001 313.185 55.5361 332.4 55.7021 332.4C55.8681 332.4 55.9581 313.095 55.9021 289.5L55.8001 246.6L54.2001 246.538L52.6001 246.475L54.0001 246.738ZM251.439 397.138C251.3 397.361 251.382 397.665 251.62 397.812C252.235 398.193 252.632 397.672 252.118 397.158C251.831 396.871 251.607 396.864 251.439 397.138Z" fill="#D14671"/>
<path fill-rule="evenodd" clip-rule="evenodd" d="M289.606 29.193C284.879 33.787 281.105 37.639 281.219 37.752C281.333 37.866 285.298 34.098 290.032 29.38C294.765 24.661 298.539 20.809 298.419 20.82C298.298 20.831 294.333 24.599 289.606 29.193ZM177.522 21.637C178.467 22.914 193.729 38.005 193.901 37.832C193.999 37.734 192.396 36.001 190.339 33.98C181.544 25.339 177.082 21.042 177.522 21.637ZM162.6 67.6C162.755 67.851 167.071 68 174.224 68C181.541 68 185.6 67.857 185.6 67.6C185.6 67.343 181.459 67.2 173.976 67.2C166.329 67.2 162.437 67.337 162.6 67.6ZM289.4 67.6C289.727 68.13 311.58 68.13 312.4 67.6C312.795 67.345 308.922 67.21 301.076 67.206C293.228 67.202 289.237 67.337 289.4 67.6ZM364.202 70.802C364.602 71.244 365.011 71.522 365.112 71.421C365.328 71.205 364.188 70 363.767 70C363.607 70 363.803 70.361 364.202 70.802ZM367.628 78.276C367.718 79.315 368.344 80.196 368.372 79.324C368.387 78.842 368.22 78.336 368 78.2C367.78 78.064 367.613 78.098 367.628 78.276Z" fill="#BC5C54"/>
<path fill-rule="evenodd" clip-rule="evenodd" d="M181.4 9.99995C181.26 10.44 180.974 10.8 180.764 10.8C177.794 10.8 174.887 16.172 176.077 19.463C176.545 20.757 176.51 20.829 174.294 23.091C169.064 28.431 165.955 33.4389 164.043 39.5999C163.532 41.2499 162.952 43.013 162.756 43.519C162.56 44.024 162.414 45.1039 162.432 45.9189C162.458 47.1509 162.557 46.9639 163.021 44.7999C164.748 36.7519 168.521 29.646 174.182 23.779L177.133 20.721L176.483 18.969C175.368 15.961 176.312 14.096 180.263 11.498C182.78 9.84395 183.33 9.19995 182.227 9.19995C181.912 9.19995 181.54 9.55995 181.4 9.99995ZM223 37.0169L219.4 37.5519L222.8 37.313C227.305 36.996 247.644 36.985 252.2 37.298C255.417 37.519 255.545 37.5029 253.4 37.1539C249.383 36.4989 227.158 36.3989 223 37.0169ZM215.8 38.0169C214.92 38.1919 213.21 38.5219 212 38.7509C208.477 39.4179 206.314 39.9059 204.6 40.4189C201.087 41.4719 197.715 41.2999 196.397 40.0009C196.285 39.8899 195.709 39.3719 195.117 38.8499L194.042 37.9L192.443 39.166C187.446 43.124 186 47.629 186 59.2439V68.0029L237.5 67.902L289 67.8L289.124 59.7999C289.243 52.0909 288.859 48.046 287.907 47C287.684 46.754 287.63 46.9859 287.768 47.5999C287.892 48.1499 288.171 49.41 288.387 50.4C288.603 51.39 288.785 55.575 288.79 59.7L288.8 67.1999H237.557H186.314L186.509 58.0999C186.706 48.8729 186.813 48.164 188.506 44.84C190.032 41.843 194.045 37.7329 194.472 38.7299C195.559 41.2699 200.376 42.229 205 40.825C207.651 40.021 213.055 38.911 216.479 38.469C217.733 38.307 218.888 38.045 219.046 37.887C219.399 37.535 217.94 37.5929 215.8 38.0169ZM256.121 37.8499C256.297 38.0279 257.467 38.307 258.721 38.469C259.974 38.631 261.9 38.945 263 39.167C264.1 39.388 265.63 39.679 266.4 39.812C267.17 39.945 268.16 40.2089 268.6 40.3969C272.554 42.0899 277.098 41.9419 279.247 40.0509L281.072 38.444L282.933 40.122C283.956 41.045 285.425 42.8689 286.197 44.1759C286.968 45.4839 287.6 46.3739 287.6 46.1559C287.6 45.5169 286.627 43.607 286.3 43.603C286.135 43.601 286 43.3749 286 43.0999C286 42.5419 282.636 38.954 281.587 38.393C281.119 38.142 280.685 38.244 280.157 38.728C277.81 40.879 276.845 41.276 274.489 41.061C271.202 40.761 269.226 40.365 268.973 39.956C268.852 39.76 268.25 39.5999 267.636 39.5999C267.022 39.5999 265.998 39.439 265.36 39.243C262.449 38.348 255.591 37.3129 256.121 37.8499ZM311.384 41.7C311.52 42.415 311.798 43.7199 312.002 44.5999C312.709 47.6419 313.2 54.458 313.2 61.22V68.009L328.667 67.9049C338.528 67.8379 344.182 67.655 344.267 67.4C344.355 67.137 339.137 67.037 329 67.109L313.6 67.218L313.592 59.5089C313.587 54.6569 313.358 50.3179 312.975 47.7999C312.639 45.5999 312.259 43.0349 312.13 42.0999C312.001 41.1649 311.725 40.4 311.516 40.4C311.304 40.4 311.245 40.973 311.384 41.7ZM161.853 48.8359C161.714 49.5309 161.6 53.948 161.6 58.65V67.1999L151.3 67.2559C145.635 67.2859 135.78 67.432 129.4 67.58C118.842 67.824 119.781 67.855 139.848 67.924L161.896 68L162.089 57.9C162.29 47.407 162.273 46.7369 161.853 48.8359ZM114.855 68.652C112.132 69.84 109.238 73.453 108.04 77.16C107.726 78.131 107.628 98.0219 107.697 146.76L107.794 215L107.997 146.4C108.109 108.67 108.352 77.44 108.537 77C110.373 72.644 112.7 70.0289 115.826 68.8079C116.912 68.3839 117.44 68.044 117 68.051C116.56 68.059 115.595 68.329 114.855 68.652ZM367.299 181.9L367.398 267.8L367.5 182.44C367.574 120.152 367.723 96.934 368.05 96.54C368.395 96.124 368.348 96 367.849 96C367.252 96 367.208 102.889 367.299 181.9ZM170.3 214.7C191.915 214.757 227.285 214.757 248.9 214.7C270.515 214.643 252.83 214.596 209.6 214.596C166.37 214.596 148.685 214.643 170.3 214.7ZM289.633 214.949C289.725 215.031 290.43 215.402 291.2 215.773L292.6 216.448L291.6 215.633C290.814 214.992 288.962 214.348 289.633 214.949ZM292.8 216.8C292.8 217.02 292.947 217.2 293.126 217.2C294.791 217.2 295.902 225.142 294.745 228.772C292.398 236.133 288.227 241.217 282.091 244.2C280.733 244.86 279.617 245.536 279.611 245.703C279.588 246.337 285.372 242.827 287.637 240.833C294.537 234.76 297.854 223.711 294.409 218.278C293.23 216.42 292.8 216.024 292.8 216.8ZM239.785 247.295C239.678 247.573 239.638 255.001 239.695 263.801L239.8 279.8L251.5 279.906C257.935 279.964 263.2 279.874 263.2 279.706C263.2 279.538 258.025 279.4 251.7 279.4H240.2L240.095 263.3L239.991 247.2H251.591H263.191L263.302 262.9L263.414 278.6L263.407 262.8L263.4 247L251.69 246.894C242.529 246.811 239.937 246.898 239.785 247.295ZM366.854 269.403C366.667 273.535 361.939 278.169 356.88 279.177C353.59 279.833 280.131 279.76 279.865 279.1C279.744 278.801 279.65 278.882 279.632 279.3C279.593 280.148 352.44 280.402 357.027 279.569C362.341 278.604 367.807 272.945 367.089 269.152C366.936 268.342 366.901 268.38 366.854 269.403Z" fill="#B49A9A"/>
<path fill-rule="evenodd" clip-rule="evenodd" d="M234.4 9.31999C232.309 10.294 232.208 10.597 232.067 16.369C231.903 23.086 232.138 22.8 226.782 22.8C224.405 22.8 221.524 23.016 220.379 23.281C217.939 23.844 217.108 23.232 216.625 20.514C215.943 16.678 214.391 12.486 213.416 11.847C212.322 11.131 209.786 10.975 209.4 11.6C209.264 11.82 208.704 12 208.157 12C204.942 12 203.087 15.157 204.349 18.481C206.665 24.581 206.239 26 202.095 26C201.409 26 200.748 26.161 200.626 26.358C200.505 26.555 199.729 26.81 198.903 26.925C198.076 27.04 196.59 27.343 195.6 27.596C194.61 27.85 193.213 28.155 192.496 28.273C191.779 28.392 191.094 28.649 190.973 28.844C190.852 29.04 190.234 29.2 189.6 29.2C188.966 29.2 188.336 29.38 188.2 29.6C187.592 30.583 186.287 29.699 182 25.4C179.477 22.87 177.304 20.8 177.171 20.8C177.038 20.8 179.178 23.005 181.926 25.7C184.675 28.395 188.864 32.532 191.236 34.894C198.037 41.668 198.736 41.965 204.201 40.397C218.609 36.265 240.581 34.873 254.8 37.192C256.01 37.389 258.35 37.755 260 38.004C261.65 38.254 263.54 38.606 264.2 38.786C274.233 41.532 276.798 41.664 278.92 39.541C279.58 38.881 280.441 38.317 280.832 38.288C281.224 38.258 281.44 38.065 281.313 37.859C281.185 37.653 284.946 33.685 289.67 29.042C294.395 24.399 296.084 22.715 293.424 25.3C288.89 29.707 287.6 30.57 287 29.6C286.864 29.38 286.234 29.2 285.6 29.2C284.966 29.2 284.348 29.04 284.227 28.844C284.106 28.649 283.421 28.392 282.704 28.273C281.987 28.155 280.59 27.85 279.6 27.596C278.61 27.343 277.124 27.04 276.297 26.925C275.471 26.81 274.695 26.555 274.574 26.358C274.452 26.161 273.731 26 272.971 26C272.211 26 271.277 25.833 270.895 25.629C270.513 25.425 269.901 25.167 269.536 25.056C268.838 24.842 268.897 24.323 270.054 20.5C270.803 18.022 270.952 14.088 270.318 13.505C269.329 12.595 268.029 12 267.029 12C266.489 12 265.936 11.82 265.8 11.6C264.886 10.122 260.4 11.868 260.4 13.702C260.4 14.06 260.22 14.464 260 14.6C259.78 14.736 259.6 15.366 259.6 16C259.6 16.634 259.44 17.252 259.244 17.373C259.049 17.494 258.793 18.179 258.676 18.896C257.941 23.409 257.37 24.025 254.611 23.287C253.609 23.019 250.833 22.8 248.443 22.8C243.066 22.8 243.311 23.097 243.139 16.371C242.993 10.659 242.929 10.46 240.89 9.29999C239.8 8.67999 235.747 8.69299 234.4 9.31999ZM174.181 23.7L172.6 25.4L174.3 23.819C175.235 22.949 176 22.184 176 22.119C176 21.816 175.652 22.119 174.181 23.7ZM185.77 59.6C185.77 64.33 185.828 66.265 185.898 63.9C185.969 61.535 185.969 57.665 185.898 55.3C185.828 52.935 185.77 54.87 185.77 59.6ZM162.079 59.7C162.036 64.265 162.135 68 162.3 68.001C162.465 68.001 162.553 65.526 162.496 62.501C162.304 52.321 162.159 51.348 162.079 59.7ZM312.8 60.167C312.8 65.686 312.675 67.584 312.3 67.735C312.001 67.856 312.082 67.95 312.5 67.968C313.143 67.997 313.2 67.383 313.2 60.4C313.2 56.22 313.11 52.8 313 52.8C312.89 52.8 312.8 56.115 312.8 60.167ZM115.826 68.808C112.506 70.104 109.785 73.326 108.434 77.56C108.129 78.515 108 99.137 108 146.86V214.8H119.6C130.284 214.8 132.149 214.633 130.8 213.8C130.1 213.367 130.271 176.006 130.981 174.307C132.153 171.502 136.583 170.578 138.4 172.76C138.51 172.892 138.96 173.197 139.4 173.438C141.328 174.492 142.214 175.014 142.4 175.205C142.801 175.618 149.106 178.479 151.2 179.199C151.97 179.464 152.96 179.838 153.4 180.031C154.492 180.509 160.241 182 160.993 182C161.519 182 161.6 180.72 161.6 172.414C161.6 161.768 161.661 162 158.85 162C158.188 162 157.536 161.82 157.4 161.6C157.264 161.38 156.634 161.2 156 161.2C155.366 161.2 154.736 161.02 154.6 160.8C154.464 160.58 154.001 160.4 153.571 160.4C152.816 160.4 152.426 160.256 150.505 159.262C150.013 159.008 149.405 158.8 149.154 158.8C147.159 158.8 134.84 151.308 132.674 148.778C130.342 146.054 130.347 146.147 130.512 108.6C130.677 70.884 130.556 72.606 133.237 69.924L135.162 68L126.481 68.019C118.888 68.035 117.553 68.134 115.826 68.808ZM366.891 107.972C366.841 108.726 366.604 109.986 366.364 110.772C366.124 111.557 365.788 112.74 365.618 113.4C364.948 115.996 364.292 118.242 363.954 119.1C363.759 119.595 363.443 120.405 363.251 120.9C363.059 121.395 362.534 122.61 362.085 123.6C361.636 124.59 361.029 125.985 360.737 126.7C360.444 127.415 360.102 128 359.977 128C359.852 128 359.502 128.63 359.2 129.4C358.898 130.17 358.504 130.8 358.325 130.8C358.146 130.8 358 130.99 358 131.222C358 131.829 355.037 136.137 352.376 139.4C345.82 147.437 335.874 154.871 326.9 158.442C324.683 159.324 323.752 159.718 323.105 160.047C322.723 160.241 322.059 160.4 321.629 160.4C321.199 160.4 320.736 160.58 320.6 160.8C320.464 161.02 319.834 161.2 319.2 161.2C318.566 161.2 317.936 161.38 317.8 161.6C317.664 161.82 317.012 162 316.35 162C313.539 162 313.6 161.768 313.6 172.414C313.6 179.817 313.714 181.999 314.1 181.998C314.863 181.994 320.327 180.573 321.8 179.995C322.24 179.822 323.23 179.464 324 179.199C324.77 178.934 326.21 178.353 327.2 177.908C328.19 177.463 329.45 176.897 330 176.65C330.55 176.403 331.09 176.111 331.2 176C331.31 175.889 331.94 175.533 332.6 175.208C339.795 171.669 350.136 162.263 355.477 154.4C357.131 151.966 358.785 149.152 359.064 148.3C359.19 147.915 359.452 147.6 359.647 147.6C359.841 147.6 360 147.347 360 147.038C360 146.729 360.386 145.694 360.857 144.738C361.328 143.782 361.851 142.64 362.02 142.2C363.364 138.684 363.778 137.44 364.452 134.883C365.494 130.927 366.4 126.086 366.4 124.474C366.4 123.744 366.584 122.804 366.809 122.383C367.059 121.917 367.172 118.697 367.099 114.11C367.034 109.979 366.94 107.217 366.891 107.972ZM190.4 173.4V183.2H237.6H284.8V173.4V163.6H237.6H190.4V173.4ZM279.783 262.4C279.783 271.53 279.835 275.265 279.9 270.7C279.964 266.135 279.964 258.665 279.9 254.1C279.835 249.535 279.783 253.27 279.783 262.4Z" fill="#3F2B3B"/>
</svg>
