<svg width="600" height="179" viewBox="0 0 600 179" fill="none" xmlns="http://www.w3.org/2000/svg"><g clip-path="url(#clip0_216_288)"><path d="M462 145H428.5C428.5 144.9 428.4 144.7 428.3 144.6C428.8 144.4 429.2 144.1 429.7 144.1C431.1 143.9 432.5 143.7 433.9 143.6C435.1 143.5 435.5 142.7 435.6 141.6C435.6 141 435.6 140.4 435.6 139.8C435.6 129.7 435.6 119.6 435.6 109.5C435.6 107.9 435.4 106.3 435.1 104.7C434.4 100.9 431.7 98.6 427.9 97.9C424.1 97.2 420.6 98 417.3 99.6C417 99.7 416.8 100.2 416.7 100.6C416.6 101 416.7 101.5 416.7 101.9C416.7 114.8 416.7 127.8 416.7 140.8C416.7 143.7 417 143.4 419.6 143.9C420.8 144.1 422.2 144.1 423.4 144.2C423.8 144.2 424.1 144.6 424.5 144.8C424.4 144.9 424.4 145 424.3 145.2H390.3C390.2 145.1 390.2 145 390.1 144.9C390.5 144.7 390.9 144.3 391.4 144.2C392.9 144 394.5 143.8 396 143.6C397.1 143.5 397.7 143 397.7 141.7C397.6 128.4 397.8 115.1 397.6 101.8C397.5 97 396.4 96.5 391.3 95.3C390.7 95.2 390.1 95 389.1 94.8C389.6 94.4 389.8 94.1 390.1 94C398.9 91.6 407.6 89.2 416.4 86.9C416.6 86.9 416.8 86.9 416.9 86.9V98.4C418.1 97.4 419.2 96.3 420.5 95.3C424.2 92.2 428.2 89.5 432.7 87.8C438.6 85.7 444.2 86 449.2 90.3C451.4 92.2 452.7 94.6 453.5 97.4C454 99.1 454.1 99.1 455.4 97.9C459 94.6 462.7 91.4 467.1 89.2C470.3 87.6 473.7 86.4 477.3 86.5C483.6 86.6 489.5 91 490.9 97.6C491.9 102.2 492 106.9 492.1 111.6C492.2 121.4 492.1 131.2 492.1 141C492.1 143 492.1 143 494.1 143.4C495.8 143.7 497.5 143.9 499.2 144.2C499.6 144.3 500 144.6 500.4 144.8L500.2 145.2H466.4L466.2 145C466.6 144.8 466.9 144.4 467.3 144.3C468.5 144.1 469.7 144.1 471 144C472.8 143.9 473.2 143.5 473.2 141.7C473.2 139.6 473.2 137.4 473.2 135.3C473.2 125.9 473.3 116.6 473.1 107.2C473 100.5 469.1 98.3 463.6 97.9C461.3 97.7 459 98.1 456.9 99.1C455.3 99.9 454.4 101 454.4 103C454.5 115.9 454.5 128.8 454.5 141.7C454.5 143.5 454.6 143.6 456.3 143.8C457.9 144 459.5 144.1 461 144.3C461.4 144.4 461.7 144.7 462.1 145C462.1 144.8 462 144.9 462 145ZM228.6 63.2C238 60.8 247.5 58.8 257.2 56.5V58.2C257.2 83.1 257.2 108.1 257.2 133.1C257.2 134.2 257.3 135.3 257.5 136.3C257.9 138.3 259.1 139.5 261.1 140C262.6 140.4 264.1 140.8 265.7 141.2C265 142 240.1 146.9 238.2 146.7V134.3L237.7 133.9C237.6 134.2 237.5 134.6 237.3 134.8C234.3 138.6 230.8 141.9 226.4 144.2C218.4 148.4 210.8 147.3 203.8 141.9C198.1 137.5 194.9 131.5 193.6 124.5C192.4 118 192.6 111.5 195.4 105.4C199.6 96 207.1 90.4 217 87.9C219.9 87.2 222.9 86.9 225.9 86.4C226.1 87.4 226.1 88 225.2 88.1C222.1 88.6 219.9 90.3 218.2 92.8C216.2 95.8 215.3 99.2 214.6 102.7C213.7 107.5 213.5 112.3 213.8 117.2C214.2 122.8 215.4 128.1 219.2 132.6C223 137.2 229.4 138.2 234.5 135C238.3 132.7 238.3 132.7 238.3 128.3C238.3 110 238.3 91.7 238.3 73.4C238.3 71.8 238 70.1 237.9 68.5C237.6 66 235.9 64.9 233.6 64.5C232 64.2 230.4 63.9 228.7 63.6L228.6 63.2ZM0.49995 118.9C0.79995 119.3 1.19995 119.6 1.49995 120C3.99995 124.3 6.39995 128.8 9.09995 133C11.8 137.3 15.3 141 20.2 142.9C26.3 145.3 32.5 145.5 38.7 143.3C43.9 141.5 46.7999 136.7 47.1999 131.3C47.6999 124 44.4 119 38.2 115.6C36.1 114.5 33.9999 113.5 31.7999 112.6C26.9999 110.6 22.0999 108.8 17.2999 106.7C12.9999 104.9 9.19995 102.4 6.39995 98.6C3.09995 94.3 2.29995 89.4 2.79995 84.1C3.29995 79.4 4.89995 75.2 7.79995 71.5C12.0999 66 17.9 62.9 24.7 61.5C33.2 59.8 41.3 61.4 49.4 64C50 64.2 50.8 64.2 51.4 64C52.9 63.6 54.4 63 55.9 62.5C56 62.5 56.1 62.5 56.3 62.6L56.8 86.8L56.5 87.1C56.1 86.8 55.7 86.5 55.4 86.1C51.2 79.4 47 72.7 42.8 66C42.3 65.2 41.5999 64.6 40.7999 64.2C38.4999 63.1 36 62.6 33.5 62.6C30.8 62.6 28 62.4 25.4 63.3C20.3 65.1 17.3 68.6 16.9 74C16.6 78.6 18.9 82.1 22.7 84.6C26.6 87.2 31.1 88.7 35.5 90.4C39.2 91.9 42.9999 93.2 46.5999 94.9C54.1999 98.5 59.1999 104.3 60.5999 112.6C62.1999 122.9 59.0999 131.6 51.0999 138.4C44.7999 143.8 37.3 146.2 28.9 146.1C21.4 146 13.9 145.5 6.69995 143.1C6.49995 143 6.39995 143 6.19995 142.9C2.29995 141.5 2.39995 141.5 2.09995 137.5C1.79995 133.6 1.29995 129.6 0.89995 125.7C0.69995 123.4 0.499951 121.1 0.199951 118.8C0.199951 119.1 0.29995 119 0.49995 118.9ZM359.1 133.6C358.7 134 358.5 134.3 358.2 134.6C354.9 137.6 351.9 141 348.3 143.5C341.8 148.2 333.4 146.8 328.5 141C324.4 136.1 325.4 128.9 329.1 124.8C332.7 120.9 337.4 118.5 342.2 116.7C347.5 114.7 352.9 113.1 358.3 111.4C359.2 111.1 359.6 110.8 359.6 109.8C359.5 106.3 359.9 102.7 358.8 99.3C357.2 94.5 354.4 91 349.1 90.3C346.8 90 344.3 90.1 342 90.5C339.9 90.8 339.5 92.4 340.7 94.1C341.6 95.3 342.4 96.5 343.3 97.8C345.6 101.1 344 105.2 341.3 107.2C337.9 109.7 332.7 109.7 329.3 107.3C326.5 105.3 325.7 101.1 327.9 97.8C329 96.1 330.6 94.6 332.3 93.4C337 90 342.5 88.4 348.2 87.4C350.8 86.9 353.4 86.6 356 86.5C360.7 86.3 365.4 86.6 369.9 88.5C374.8 90.5 377.3 94.4 378.2 99.5C379 104.4 378.5 109.4 378.2 114.3C378.1 116.3 378 118.3 377.9 120.3C377.8 124.5 377.6 128.8 377.6 133C377.6 135.8 380 138.1 382.8 137.9C383.6 137.8 384.5 137.4 385.1 136.9C386 136.1 386.7 135.1 387.6 134.2C387.9 133.9 388.4 133.9 388.8 133.7C388.9 133.8 389 134 389 134.1C388 135.3 387 136.5 386 137.7C383.7 140.3 381.2 142.7 378.2 144.6C371.8 148.7 362.9 147.2 360 137.9C359.8 136.4 359.5 135.1 359.1 133.6ZM359.3 112.9C356 113.7 352.6 114.8 349.6 116.9C348.6 117.6 347.7 118.4 347 119.3C344.4 122.4 343.8 126 344.6 129.8C345.4 133.7 347.5 136.3 352.6 136C354.9 135.8 356.5 134.5 358 133C358.5 132.5 358.8 131.8 358.8 131.1C359 127.7 359.2 124.3 359.3 120.9C359.4 118.1 359.3 115.5 359.3 112.9ZM125.5 107.6C122.6 107.6 120.1 107.6 117.5 107.6C115.8 107.6 114 107.5 112.3 107.5C105 107.4 97.8 107.3 90.5 107.2C89.8 107.2 89.2 107.2 89.2 108.1C89.1 113.9 89.3 119.6 91.7 125C94.4 130.8 98.5999 134.9 105.1 136.2C113.2 137.8 120.8 135 124.6 127.3C124.7 127 124.9 126.8 125.5 126.4C125.6 126.8 125.8 127.3 125.7 127.6C121.5 137.6 114.9 145 103.4 146.7C95.3999 147.9 87.9999 146.8 81.3999 142.1C74.6999 137.4 70.8999 130.9 69.5999 122.9C68.0999 113.8 70.1999 105.5 75.8999 98.2C81.0999 91.6 88.1 87.8 96.5 86.5C102.4 85.6 108.2 85.9 113.7 88.4C119.8 91.1 123.9 95.6 125.3 102.2C125.5 103.9 125.4 105.8 125.5 107.6ZM107.9 105.3C107.8 103 107.7 100.8 107.4 98.6C107 95.9 106.5 93.2 104.7 90.9C103.8 89.8 102.6 88.8 101.4 88.3C98.6999 87.3 96.6 88.6 94.8 90.5C90.9 94.7 90 99.9 89.5 105.3H107.9ZM187.3 107.7C186.6 107.7 186.1 107.7 185.6 107.7C174.6 107.5 163.6 107.3 152.6 107.1C151.6 107.1 151.1 107.4 151.1 108.3C151.1 114.1 151.2 119.9 153.8 125.3C156.5 130.9 160.7 134.8 167 136.1C175 137.6 182.7 134.9 186.5 127.2C186.6 126.9 186.8 126.7 187.2 126C187.4 126.7 187.7 127.1 187.6 127.4C183.4 137.4 176.9 144.9 165.4 146.6C156.5 147.9 148.4 146.4 141.4 140.7C136.3 136.6 133.1 131.3 131.8 125C129.3 113.4 132.1 103.1 140.7 94.7C146.3 89.3 153.2 86.6 161 86C167.2 85.6 173.1 86.4 178.4 89.7C183.8 93.1 186.8 97.9 187.4 104.2C187.6 105.4 187.4 106.5 187.3 107.7ZM151.5 105.3H170C169.9 103.7 169.9 102.2 169.8 100.8C169.5 97.6 169 94.4 167.3 91.6C164.8 87.4 160.7 86.9 157.2 90.4C153.1 94.4 152.2 99.8 151.5 105.3ZM322.7 126C322.9 126.6 323.2 127 323.1 127.3C319.8 135.5 314.7 142.2 306 145.4C295 149.4 281.9 146.8 274 137.7C270.4 133.6 268.1 128.4 267.5 123C266.5 115.3 267.8 108.1 271.8 101.4C276.7 93.5 283.9 88.9 293 87.1C300.2 85.7 307.3 86.2 314.1 89.2C317.7 90.8 320.8 93.1 322 97.1C323.5 101.7 321.5 106.5 317.4 108.5C313.3 110.5 308 109.2 305.5 105.4C303.8 102.9 303.5 100.2 304.8 97.5C305.5 96 306.5 94.7 307.4 93.3C308.3 91.9 308.1 90.9 306.8 90C304.7 88.5 302.2 88.2 299.7 88.6C294.1 89.5 291.5 93.5 289.8 98.2C288.4 101.9 288 105.9 287.9 109.9C287.8 114.8 287.9 119.7 289.5 124.5C291.5 130.4 295 134.7 301.4 136.2C307.2 137.5 312.8 137.1 317.5 133.1C319.3 131.5 320.5 129.3 322 127.3C322.3 126.8 322.4 126.6 322.7 126Z" fill="white"></path><path d="M600 53.1C599.7 54.9 599.6 56.7 599.2 58.5C597.9 64.3 596 69.9 591.7 74.4C588.8 77.3 585.2 78.5 581.3 79.2C575.4 80.3 570.2 78.6 565 76.2C559.9 73.9 554.8 71.6 549.6 69.7C545.5 68.2 541.2 67.4 537.4 70.4C535.4 72 533.7 73.9 532.2 75.9C529.8 79.1 528.4 82.8 527.3 86.7L527.2 86.8V98.9C527.6 98.5 528.1 98 528.5 97.5C532.3 93.3 536.5 89.7 542 87.9C550.1 85.2 559.4 88.1 565.1 94.9C569.6 100.2 571.7 106.4 572.1 113.2C572.5 120.7 571 127.5 566.5 133.7C561.5 140.5 554.6 144.5 546.3 146.2C544.3 146.6 542.3 146.8 540.2 147.1C540.1 146.1 540.1 145.5 541.2 145.4C544.2 145 545.9 143.1 547.4 140.7C549.5 137.2 550.7 133.4 551 129.4C551.4 125.1 551.7 120.8 551.5 116.5C551.2 110.4 549.7 104.6 545.1 100.1C541.5 96.5 536 96.1 531.7 98.1C527.2 100.2 527.1 100.4 527.1 105.4V174.6C527.1 176.6 527.5 177 529.5 177.1C532.2 177.3 534.9 177.4 537.6 177.6C538.1 177.6 538.6 178.2 539.1 178.4H499.7C500.1 177.5 501 177.5 501.8 177.4C503.4 177.2 505.1 177.1 506.8 176.9C507.8 176.8 508.3 176.2 508.2 175.2V174C508.2 151.1 508.2 128.1 508.2 105.2C508.2 103.2 508 101.3 507.7 99.3C507.4 97.5 506.4 96.3 504.5 95.8C502.9 95.4 501.4 95 499.3 94.5C500 94.1 500.3 93.9 500.7 93.8C508.6 91.6 516.4 89.4 524.3 87.3C525.2 87.1 525.5 86.6 525.7 85.9C527 79 529.8 72.7 533.1 66.6C535.9 61.6 537.6 56.2 537.2 50.4C537 46.8 535.7 43.9 532.4 42.1C529 40.1 525.2 39.2 521.4 38.2C517.3 37.1 513.1 36.1 509.1 34.7C502.8 32.6 497.5 24.9 497.9 18.7C498.3 13.1 500 7.9 503.3 3.2C503.8 2.4 504.4 1.69999 505 0.899994L505.5 1C505.5 1.8 505.5 2.7 505.4 3.5C504.8 7.1 505.5 10.3 508.5 12.7C510.9 14.6 513.7 15.5 516.6 15.8C521.1 16.2 525.5 17 529.7 18.5C535.8 20.7 539.1 25.3 540.9 31.2C542.7 37.4 542.4 43.6 541 49.8C540.4 52.8 539.4 55.7 538.6 58.9C539.2 58.3 539.7 57.9 540.2 57.4C543.7 53.9 547.7 51 552.5 49.4C557.7 47.7 562.8 48.3 567.6 50.6C570.1 51.8 572.5 53.3 574.8 54.9C578.2 57.3 582 59.1 586 60C590 61 594.1 59 596.7 55.2C597.3 54.3 597.8 53.3 598.5 52.4C598.9 51.9 599.5 51.6 600 51.1C600 51.9 600 52.5 600 53.1Z" fill="white"></path></g><defs><clipPath id="clip0_216_288"><rect width="600" height="179" fill="white"></rect></clipPath></defs></svg>