<svg width="800" height="204" viewBox="0 0 800 204" fill="none" xmlns="http://www.w3.org/2000/svg">
<path d="M81.8995 152.312C65.149 152.312 50.8342 137.365 50.8342 120.471V81.7084L0 69.2173V121.903C0 167.143 36.6589 203.146 81.8995 203.146V152.312Z" fill="white"/>
<path d="M81.8997 152.312C98.7933 152.312 112.099 137.908 112.099 121.015V76.0605H163.639V96.8487C163.639 142.089 127.14 177.729 81.8997 177.729V152.312Z" fill="#A9AFD1"/>
<path d="M81.8997 152.311C65.006 152.311 50.8343 140.964 50.8343 124.07V73.2363H0.00012207V96.8486C0.00012207 142.089 36.6591 177.729 81.8997 177.729V152.311Z" fill="#383E5E"/>
<path d="M81.8997 98.6536C98.7933 98.6536 112.965 87.306 112.965 70.4124V22.4023H164.069V70.4124C164.069 115.653 127.086 152.312 81.8997 152.312V98.6536Z" fill="#383E5E"/>
<path d="M81.8997 152.312C98.8444 152.312 112.965 137.71 112.965 121.246C112.965 121.246 112.965 90.2411 112.965 70.4123C112.965 36.2228 112.965 0.85451 112.965 0.85451L164.069 0.854492V70.4123C164.069 121.187 126.281 152.312 81.8997 152.312Z" fill="white"/>
<path d="M81.8997 98.6536C65.006 98.6536 50.8343 87.306 50.8343 70.4124V22.4023H0.00012207V70.4124C0.00012207 115.653 36.7136 150.9 81.8997 152.312V98.6536Z" fill="#A9AFD1"/>
<path d="M82.1694 152.312C65.2247 152.312 50.8344 137.71 50.8344 121.246C50.8344 121.246 50.8344 90.2411 50.8344 70.4123C50.8344 36.2228 50.8344 22.4023 50.8344 22.4023H0.000244141V70.4123C0.000244141 121.187 37.7879 152.312 82.1694 152.312Z" fill="#A9AFD1"/>
<path d="M277.636 69.9126V118.417H265.291V112.288C263.715 114.39 261.643 116.053 259.074 117.279C256.564 118.446 253.821 119.03 250.844 119.03C247.05 119.03 243.694 118.242 240.776 116.666C237.857 115.032 235.552 112.668 233.859 109.574C232.225 106.422 231.407 102.687 231.407 98.3674V69.9126H243.665V96.6164C243.665 100.469 244.628 103.446 246.554 105.547C248.48 107.59 251.107 108.611 254.434 108.611C257.819 108.611 260.475 107.59 262.401 105.547C264.328 103.446 265.291 100.469 265.291 96.6164V69.9126H277.636Z" fill="white"/>
<path d="M316.608 69.2124C322.387 69.2124 327.057 71.051 330.617 74.7282C334.178 78.3471 335.958 83.4252 335.958 89.9625V118.417H323.7V91.626C323.7 87.7737 322.737 84.8261 320.811 82.7831C318.885 80.6819 316.258 79.6312 312.931 79.6312C309.546 79.6312 306.861 80.6819 304.876 82.7831C302.95 84.8261 301.987 87.7737 301.987 91.626V118.417H289.73V69.9128H301.987V75.954C303.621 73.8527 305.694 72.2184 308.203 71.051C310.772 69.8253 313.573 69.2124 316.608 69.2124Z" fill="white"/>
<path d="M344.462 94.1648C344.462 89.1451 345.484 84.7674 347.526 81.0318C349.569 77.2378 352.4 74.3194 356.019 72.2764C359.638 70.1752 363.782 69.1245 368.452 69.1245C374.464 69.1245 379.425 70.6421 383.336 73.6773C387.305 76.6541 389.961 80.8567 391.303 86.285H378.083C377.382 84.1837 376.186 82.5494 374.493 81.382C372.859 80.1562 370.816 79.5434 368.364 79.5434C364.862 79.5434 362.089 80.8275 360.047 83.3957C358.004 85.9056 356.982 89.4953 356.982 94.1648C356.982 98.7759 358.004 102.366 360.047 104.934C362.089 107.444 364.862 108.699 368.364 108.699C373.325 108.699 376.565 106.481 378.083 102.045H391.303C389.961 107.298 387.305 111.471 383.336 114.565C379.367 117.658 374.405 119.205 368.452 119.205C363.782 119.205 359.638 118.184 356.019 116.141C352.4 114.039 349.569 111.121 347.526 107.385C345.484 103.591 344.462 99.1845 344.462 94.1648Z" fill="white"/>
<path d="M421.821 119.205C417.151 119.205 412.949 118.184 409.213 116.141C405.478 114.039 402.53 111.092 400.37 107.298C398.269 103.504 397.218 99.1261 397.218 94.1648C397.218 89.2034 398.298 84.8258 400.458 81.0318C402.676 77.2378 405.682 74.3194 409.476 72.2764C413.27 70.1752 417.502 69.1245 422.171 69.1245C426.841 69.1245 431.072 70.1752 434.866 72.2764C438.66 74.3194 441.637 77.2378 443.797 81.0318C446.015 84.8258 447.124 89.2034 447.124 94.1648C447.124 99.1261 445.986 103.504 443.709 107.298C441.491 111.092 438.456 114.039 434.604 116.141C430.81 118.184 426.549 119.205 421.821 119.205ZM421.821 108.524C424.039 108.524 426.111 107.998 428.037 106.948C430.022 105.839 431.598 104.204 432.765 102.045C433.932 99.8849 434.516 97.2583 434.516 94.1648C434.516 89.5536 433.29 86.0223 430.839 83.5708C428.446 81.061 425.498 79.806 421.996 79.806C418.494 79.806 415.546 81.061 413.153 83.5708C410.818 86.0223 409.651 89.5536 409.651 94.1648C409.651 98.7759 410.789 102.337 413.066 104.846C415.4 107.298 418.319 108.524 421.821 108.524Z" fill="white"/>
<path d="M468.373 77.4424C469.949 74.8742 471.991 72.8604 474.501 71.4012C477.07 69.942 479.988 69.2124 483.257 69.2124V82.0827H480.017C476.165 82.0827 473.246 82.9874 471.262 84.7969C469.336 86.6063 468.373 89.7582 468.373 94.2526V118.417H456.115V69.9128H468.373V77.4424Z" fill="white"/>
<path d="M503.77 77.4424C505.346 74.8742 507.389 72.8604 509.899 71.4012C512.467 69.942 515.386 69.2124 518.654 69.2124V82.0827H515.415C511.562 82.0827 508.644 82.9874 506.659 84.7969C504.733 86.6063 503.77 89.7582 503.77 94.2526V118.417H491.513V69.9128H503.77V77.4424Z" fill="white"/>
<path d="M572 93.1141C572 94.8652 571.883 96.4412 571.65 97.842H536.191C536.483 101.344 537.708 104.088 539.868 106.072C542.028 108.057 544.684 109.049 547.835 109.049C552.388 109.049 555.628 107.094 557.554 103.183H570.774C569.374 107.852 566.689 111.705 562.72 114.74C558.75 117.717 553.877 119.205 548.098 119.205C543.429 119.205 539.226 118.184 535.49 116.141C531.813 114.039 528.924 111.092 526.823 107.298C524.78 103.504 523.758 99.1261 523.758 94.1648C523.758 89.1451 524.78 84.7382 526.823 80.9442C528.866 77.1502 531.726 74.2318 535.403 72.1889C539.08 70.146 543.312 69.1245 548.098 69.1245C552.709 69.1245 556.824 70.1168 560.443 72.1013C564.12 74.0859 566.951 76.9168 568.936 80.594C570.979 84.2129 572 88.3863 572 93.1141ZM559.305 89.612C559.247 86.4601 558.108 83.9502 555.89 82.0824C553.672 80.1562 550.958 79.1932 547.748 79.1932C544.713 79.1932 542.144 80.1271 540.043 81.9949C538 83.8043 536.745 86.3433 536.278 89.612H559.305Z" fill="white"/>
<path d="M593.205 53.6279V118.417H580.947V53.6279H593.205Z" fill="white"/>
<path d="M602.163 93.9897C602.163 89.0867 603.126 84.7382 605.052 80.9442C607.037 77.1502 609.693 74.2318 613.02 72.1889C616.405 70.146 620.17 69.1245 624.314 69.1245C627.933 69.1245 631.085 69.8541 633.77 71.3134C636.513 72.7726 638.702 74.6112 640.336 76.8292V69.9125H652.681V118.417H640.336V111.325C638.76 113.602 636.571 115.499 633.77 117.016C631.026 118.476 627.845 119.205 624.226 119.205C620.141 119.205 616.405 118.154 613.02 116.053C609.693 113.952 607.037 111.004 605.052 107.21C603.126 103.358 602.163 98.951 602.163 93.9897ZM640.336 94.1648C640.336 91.188 639.753 88.6489 638.585 86.5476C637.418 84.388 635.842 82.7537 633.857 81.6446C631.873 80.4773 629.742 79.8936 627.466 79.8936C625.189 79.8936 623.088 80.4481 621.162 81.5571C619.236 82.6661 617.66 84.3004 616.434 86.4601C615.267 88.5614 614.683 91.0712 614.683 93.9897C614.683 96.9081 615.267 99.4763 616.434 101.694C617.66 103.854 619.236 105.518 621.162 106.685C623.147 107.852 625.248 108.436 627.466 108.436C629.742 108.436 631.873 107.882 633.857 106.773C635.842 105.605 637.418 103.971 638.585 101.87C639.753 99.7098 640.336 97.1416 640.336 94.1648Z" fill="white"/>
<path d="M678.924 79.9814V103.446C678.924 105.08 679.303 106.276 680.062 107.035C680.879 107.736 682.222 108.086 684.09 108.086H689.781V118.417H682.076C671.745 118.417 666.579 113.397 666.579 103.358V79.9814H660.8V69.9128H666.579V57.918H678.924V69.9128H689.781V79.9814H678.924Z" fill="white"/>
<path d="M743.687 93.1141C743.687 94.8652 743.57 96.4412 743.337 97.842H707.877C708.169 101.344 709.395 104.088 711.555 106.072C713.714 108.057 716.37 109.049 719.522 109.049C724.075 109.049 727.314 107.094 729.24 103.183H742.461C741.06 107.852 738.375 111.705 734.406 114.74C730.437 117.717 725.563 119.205 719.785 119.205C715.115 119.205 710.913 118.184 707.177 116.141C703.5 114.039 700.611 111.092 698.509 107.298C696.466 103.504 695.445 99.1261 695.445 94.1648C695.445 89.1451 696.466 84.7382 698.509 80.9442C700.552 77.1502 703.412 74.2318 707.089 72.1889C710.767 70.146 714.998 69.1245 719.785 69.1245C724.396 69.1245 728.511 70.1168 732.13 72.1013C735.807 74.0859 738.638 76.9168 740.622 80.594C742.665 84.2129 743.687 88.3863 743.687 93.1141ZM730.992 89.612C730.933 86.4601 729.795 83.9502 727.577 82.0824C725.359 80.1562 722.645 79.1932 719.434 79.1932C716.399 79.1932 713.831 80.1271 711.73 81.9949C709.687 83.8043 708.432 86.3433 707.965 89.612H730.992Z" fill="white"/>
<path d="M749.482 93.99C749.482 89.087 750.445 84.7385 752.371 80.9445C754.356 77.1505 757.04 74.2321 760.426 72.1892C763.811 70.1463 767.576 69.1248 771.72 69.1248C774.872 69.1248 777.878 69.8252 780.738 71.2261C783.598 72.5686 785.875 74.378 787.567 76.6544V53.6279H800V118.417H787.567V111.238C786.05 113.631 783.919 115.557 781.176 117.016C778.433 118.476 775.252 119.205 771.633 119.205C767.547 119.205 763.811 118.154 760.426 116.053C757.04 113.952 754.356 111.004 752.371 107.21C750.445 103.358 749.482 98.9513 749.482 93.99ZM787.655 94.1651C787.655 91.1883 787.071 88.6492 785.904 86.5479C784.737 84.3883 783.161 82.754 781.176 81.6449C779.191 80.4776 777.061 79.8939 774.785 79.8939C772.508 79.8939 770.407 80.4484 768.481 81.5574C766.555 82.6664 764.979 84.3007 763.753 86.4604C762.586 88.5617 762.002 91.0715 762.002 93.99C762.002 96.9084 762.586 99.4766 763.753 101.694C764.979 103.854 766.555 105.518 768.481 106.685C770.465 107.852 772.567 108.436 774.785 108.436C777.061 108.436 779.191 107.882 781.176 106.773C783.161 105.605 784.737 103.971 785.904 101.87C787.071 99.7101 787.655 97.1419 787.655 94.1651Z" fill="white"/>
</svg>
