<svg width="283" height="60" viewBox="0 0 283 60" fill="none" xmlns="http://www.w3.org/2000/svg">
<path fill-rule="evenodd" clip-rule="evenodd" d="M0.0102539 0.736084H58.5568V59.2641H0.0102539V0.736084ZM17.1837 14.9761L27.3328 33.9021V46.1921H31.2363V34.1001L41.3834 14.9801H37.0906L31.2363 26.8801C30.8449 27.4661 30.4556 28.0521 30.2609 28.6361C30.1592 29.0129 30.0052 29.3737 29.8033 29.7081C29.6744 29.9255 29.5662 30.1545 29.4802 30.3921C29.3819 30.2941 29.3337 30.1481 29.2835 30.0021C29.2354 29.8561 29.1872 29.7101 29.0889 29.6121C29.0115 29.4547 28.9464 29.2915 28.8942 29.1241C28.8421 28.9566 28.777 28.7935 28.6995 28.6361V28.4421L28.5028 28.2461C28.4427 28.125 28.3891 28.0009 28.3423 27.8741C28.3004 27.7216 28.2219 27.5816 28.1135 27.4661C27.9188 27.2701 27.7241 27.0761 27.7241 26.8801L21.8679 14.9801H17.1837V14.9761ZM85.2954 12.0521C88.2215 12.0521 90.7603 12.8321 92.711 14.3921L90.7603 16.7321C89.0022 15.5641 87.2481 14.7821 85.1007 14.7821C81.7812 14.7821 79.2444 16.5381 77.8797 19.8561C77.097 21.8061 76.7076 24.3421 76.7076 27.6601C76.7076 30.1961 77.099 32.3401 77.683 33.9021C79.2444 37.6101 81.7812 39.3641 85.6847 39.3641C87.8321 39.3641 89.7829 38.7801 91.539 37.4141L93.4917 39.9501C91.0367 41.4869 88.1946 42.2983 85.2954 42.2901C81.7832 42.2901 78.8531 40.9261 76.513 38.0001C74.1709 35.2681 73.1955 31.5601 73.1955 27.0741C73.1955 22.5861 74.3655 19.0741 76.7076 16.1481C78.8551 13.6121 81.7812 12.0521 85.2954 12.0521V12.0521ZM96.4178 31.3661C96.4178 27.8541 97.2005 25.1221 98.9566 23.1701C100.713 21.2201 102.858 20.0501 105.592 20.0501C108.714 20.0501 111.251 21.2201 113.007 23.7561C114.372 25.7081 114.958 28.4381 114.958 31.7561C114.958 35.6561 113.788 38.7781 111.641 40.7301C110.079 42.0961 108.128 42.8761 105.786 42.8761C102.858 42.8761 100.713 41.9001 98.9566 39.7561C97.1985 37.8041 96.4178 34.8761 96.4178 31.3661ZM110.079 25.7061C109.104 23.9521 107.739 22.9761 105.592 22.9761C103.444 22.9761 102.079 23.7561 101.102 25.3161C100.321 26.4881 100.127 28.4381 100.127 30.9761C100.127 34.2921 100.518 36.6321 101.491 37.9981C102.469 39.3641 103.836 40.1441 105.786 40.1441C108.128 40.1441 109.69 38.9741 110.47 36.8281C110.86 35.6581 111.056 34.0961 111.056 32.1461C111.251 29.2201 110.86 27.0721 110.079 25.7061V25.7061ZM121.204 26.0981C121.204 23.9521 121.009 22.1961 120.423 20.8301L123.74 20.0501C124.326 21.0261 124.523 22.1961 124.523 23.1701V23.3661C125.302 22.5861 126.082 21.8061 127.253 21.2201C128.619 20.4401 129.791 20.0501 130.961 20.0501C132.717 20.0501 134.281 20.8301 135.256 22.1961C135.451 22.5861 135.84 23.1721 136.037 23.5621C138.377 21.2201 140.524 20.0501 142.867 20.0501C144.428 20.0501 145.795 20.6341 146.77 21.6101C147.745 22.7801 148.331 24.1461 148.331 25.7081V41.9001H144.819V25.9021C144.819 23.7561 143.842 22.7821 142.086 22.7821C141.11 22.7821 139.938 23.1721 138.963 23.9521C138.572 24.3421 137.791 24.9281 136.816 25.7081L136.426 26.0981V41.9001H132.717V26.6821C132.717 25.3161 132.523 24.3421 132.133 23.9521C131.547 23.3661 130.961 23.1721 129.986 23.1721C128.425 23.1721 126.669 24.1461 124.521 26.0981V42.0961H121.204V26.0961V26.0981ZM154.38 11.2701L157.893 10.4901C158.286 12.0501 158.481 13.8061 158.481 15.9521V23.1701C160.431 21.2201 162.577 20.2441 164.724 20.2441C167.261 20.2441 169.408 21.2201 170.775 23.1721C172.335 25.1221 173.115 27.8521 173.115 31.1721C173.115 34.6821 172.335 37.4121 170.775 39.5601C169.214 41.7061 167.066 42.6801 164.53 42.6801C163.359 42.6801 162.382 42.4861 161.212 41.9001C160.04 41.3141 159.261 40.7301 158.675 39.9501C158.528 40.7412 158.332 41.5226 158.089 42.2901H154.772C155.161 41.3141 155.356 39.5601 155.356 36.8281V16.3441C155.161 14.0021 154.966 12.2461 154.38 11.2701V11.2701ZM160.04 24.5361C159.427 24.9545 158.898 25.4837 158.481 26.0961V37.2181C159.845 38.9741 161.601 39.7541 163.749 39.7541C165.505 39.7541 166.872 39.1681 167.652 37.8041C168.628 36.2441 169.214 34.0961 169.214 30.9741C169.214 28.2441 168.824 26.2941 167.849 25.1221C167.066 23.9521 165.702 23.3661 163.749 23.3661C162.577 23.1721 161.212 23.5621 160.04 24.5361V24.5361ZM178.187 14.0021C178.187 13.2221 178.385 12.6361 178.969 12.0521C179.556 11.4661 180.14 11.2721 180.92 11.2721C181.703 11.2721 182.287 11.4661 182.873 12.0521C183.459 12.6361 183.654 13.2221 183.654 14.0021C183.654 14.7821 183.459 15.3681 182.871 15.9541C182.289 16.5381 181.701 16.7341 180.92 16.7341C180.14 16.7341 179.556 16.5381 178.969 15.9541C178.385 15.3681 178.187 14.7821 178.187 14.0021ZM178.969 42.0961V20.6361L182.482 20.0501V42.0961H178.969ZM190.094 26.0981C190.094 24.5381 190.094 23.5621 189.899 23.1721C189.899 22.5861 189.508 22.0001 189.119 21.0261L192.436 20.0501C193.022 21.2201 193.219 22.1961 193.219 23.3661C195.364 21.2201 197.706 20.0501 200.046 20.0501C201.218 20.0501 202.196 20.2441 203.171 20.8301C204.147 21.4161 204.927 22.1961 205.317 23.1701C205.706 23.9501 205.903 24.7301 205.903 25.7081V42.0961H202.585V27.4641C202.585 25.7081 202.391 24.5361 201.804 23.9521C201.5 23.6403 201.136 23.393 200.734 23.2253C200.331 23.0575 199.899 22.9728 199.462 22.9761C198.682 22.9761 197.512 23.3661 196.34 23.9521C195.254 24.5065 194.266 25.231 193.411 26.0981V42.0961H190.094V26.0961V26.0981ZM213.71 25.3181L211.952 22.9761C214.88 21.0241 217.808 20.0501 220.929 20.0501C224.053 20.0501 226.004 21.2201 226.98 23.3661C227.369 24.1461 227.369 25.3181 227.369 27.0741V28.2441L227.174 35.2661V36.2421C227.174 37.4121 227.174 38.1941 227.369 38.7781C227.564 39.5581 228.15 40.1441 228.93 40.5341L227.174 42.8741C225.613 42.2901 224.638 41.3141 224.248 39.7541C222.295 41.7041 220.15 42.6801 218.003 42.6801C215.855 42.6801 214.099 42.0961 212.734 40.9241C211.562 39.9501 210.976 38.3881 210.976 36.4381C210.976 33.9021 211.952 32.1461 213.904 30.7781C215.855 29.4141 218.783 28.8281 222.295 28.8281H223.857V27.2681C223.857 25.5121 223.662 24.3421 223.076 23.9521C222.295 23.1721 221.515 22.7821 220.15 22.7821C218.978 22.7821 217.611 23.1721 216.05 23.7561C215.466 24.1461 214.685 24.7321 213.71 25.3161V25.3181ZM224.053 36.8281L224.248 31.1701H222.49C219.369 31.1701 217.417 31.7561 216.244 32.9261C215.466 33.7061 215.074 34.8761 215.074 36.4381C215.074 38.9741 216.244 40.3381 218.783 40.3381C221.125 40.1441 222.881 38.9741 224.053 36.8281V36.8281ZM238.495 20.6361H243.96L242.985 23.3661H238.495V37.2181C238.495 38.3881 238.69 39.1701 239.081 39.7541C239.471 40.1441 240.252 40.5341 241.227 40.5341C242.008 40.5341 242.788 40.3401 243.374 40.1441L243.764 42.2901C242.594 42.8761 241.422 43.0701 240.057 43.0701C236.739 43.0701 235.176 41.5101 235.176 38.1941V23.3661H232.25V20.6361H234.981V20.2461C234.981 19.8541 235.176 18.2941 235.373 15.7581V15.1721L238.885 14.3921C238.495 16.7321 238.495 18.8801 238.495 20.6361ZM247.473 31.3661C247.473 27.8541 248.253 25.1221 250.009 23.1701C251.571 21.2201 253.913 20.0501 256.644 20.0501C259.769 20.0501 262.304 21.2201 264.06 23.7561C265.429 25.7081 266.013 28.4381 266.013 31.7561C266.013 35.6561 264.843 38.7781 262.695 40.7301C261.134 42.0961 259.183 42.8761 256.841 42.8761C253.913 42.8761 251.765 41.9001 250.009 39.7561C248.45 37.8041 247.473 34.8761 247.473 31.3661V31.3661ZM261.328 25.7061C260.353 23.9521 258.986 22.9761 256.841 22.9761C254.693 22.9761 253.327 23.7561 252.351 25.3161C251.571 26.4881 251.376 28.4381 251.376 30.9761C251.376 34.2921 251.765 36.6321 252.741 37.9981C253.718 39.3641 255.085 40.1441 257.036 40.1441C259.378 40.1441 260.939 38.9741 261.72 36.8281C262.109 35.6581 262.304 34.0961 262.304 32.1461C262.304 29.2201 261.914 27.0721 261.328 25.7061V25.7061ZM272.451 25.7081C272.451 23.7561 272.254 22.1961 271.67 21.0261L274.988 20.0501C275.574 21.2201 275.768 22.1961 275.768 23.3661V23.7561C277.524 21.4161 279.477 20.2441 281.817 20.2441C282.209 20.2441 282.598 20.2441 282.989 20.4401L281.623 24.1461C281.233 23.9521 280.842 23.9521 280.647 23.9521C279.867 23.9521 278.891 24.1461 278.111 24.7321C277.33 25.3181 276.549 25.9021 276.158 26.6821C275.901 27.4364 275.769 28.2275 275.768 29.0241V42.4841H272.451V25.7081V25.7081Z" fill="white"/>
</svg>
