<svg xmlns="http://www.w3.org/2000/svg" viewBox="0 0 400 102.666"><g fill-rule="evenodd"><path d="M39.333 41.246v5.087h39v34h-39v10l22.625-.006 22.625-.007.846-.368c1.587-.692 2.53-1.862 2.888-3.585.286-1.382.243-44.952-.046-46.284-.336-1.547-1.148-2.583-2.64-3.369l-.881-.464-22.708-.046-22.709-.045v5.087m229.834 12.336v3.751h20.173l-.045-3.708-.045-3.708-10.042-.043-10.041-.043v3.751" fill="#6494fc"/><path d="M23.5 14.489c-1.475.45-2.577 1.418-3.238 2.844l-.425.917-.002 23.136-.002 23.136.36.864c.45 1.081 1.31 2.011 2.39 2.587l.834.444 22.791.044L69 68.505V58.5H29.833V24.333H69v-10l-22.542.015c-12.398.008-22.729.071-22.958.141m280.309 19.213c-.426.211-.969.579-1.207.817-.983.983-.935-.042-.935 20.226v18.588H309l.002-13.625.002-13.625 1.873 1.961c4.034 4.224 6.433 6.724 7.79 8.119.779.8 2.802 2.91 4.495 4.688a526.965 526.965 0 004.625 4.802c.851.863 1.546 1.599 1.546 1.635 0 .059 1.458 1.57 4.817 4.996 1.956 1.995 4.343 2.138 5.932.355.945-1.061.918-.463.918-20.332V34h-7.333v27.232l-1.214-1.241a523.028 523.028 0 01-3.125-3.243 2428.254 2428.254 0 00-9.911-10.32 854.722 854.722 0 01-4.583-4.777 966.885 966.885 0 00-4.621-4.818 98.925 98.925 0 01-2-2.106c-1.114-1.26-3.031-1.707-4.404-1.025m-147.309.112c-1.835.497-3.399 1.688-4.423 3.367-1.098 1.801-1.072 1.324-1.075 19.361L151 72.833h7.333v-15.5H183v15.5h7.167V39.056l-.416-.819c-.229-.451-.417-.876-.417-.943-.005-.936-2.894-3.036-4.845-3.522-1.718-.428-26.392-.391-27.989.042m-46.394.597c-2.188.772-3.611 2.039-4.591 4.089l-.598 1.25v11.833l.661 1.316c.855 1.702 2.768 3.601 3.627 3.601.126 0 .3.068.387.152.671.642 1.542.681 15.024.681h13.056l-.044 4.292-.045 4.292-12.489.042c-9.882.034-12.517-.001-12.623-.166-.073-.115-.134-.866-.135-1.668l-.003-1.458h-7.552l.11 2.528c.172 3.99 1.296 5.826 4.526 7.401l1 .487 14.381.045 14.382.044 1.118-.445c1.777-.708 4.202-2.838 4.202-3.69 0-.084.131-.408.292-.72.262-.51.291-1.188.291-6.734v-6.166l-.439-.917c-.426-.888-2.344-3.167-2.666-3.167-.087 0-.361-.149-.61-.331-1.256-.92-1.017-.904-15.535-.998l-13.416-.087v-8.5l12.625-.043 12.625-.043v3.336h7.5V42.34c0-4.228-1.638-6.723-5.209-7.937L138.775 34l-13.763.004-13.762.003-1.144.404m95.55-.005c-2.323.718-4.72 2.493-5.554 4.113-.16.31-.392.752-.517.981-.857 1.573-.832 1.057-.881 18.045l-.045 15.795 3.712-.045 3.712-.045.086-15.333c.047-8.434.103-15.352.125-15.374 1.276-1.3.747-1.246 11.539-1.18l8.75.054.75.41a6.574 6.574 0 012.713 2.84l.531 1.083.003 3.25.003 3.25-.533.94c-.526.929-1.232 1.81-1.451 1.81-.062 0-.337.166-.611.368-1.116.826-1.478.857-10.696.917l-8.625.057v7.335l9.208-.063c9.261-.063 10.469-.136 11.731-.703 1.744-.784 2.716-1.277 3.034-1.539.192-.159.661-.514 1.042-.789.38-.275 1.021-.912 1.423-1.416.402-.504.806-1.009.899-1.121 2.462-2.993 2.864-12.525.711-16.879-1.429-2.89-3.202-4.686-5.882-5.96-2.475-1.176-1.806-1.118-13.416-1.157l-10.5-.034-1.261.39M244 53.667v19.666h7.333V34H244v19.667m17.333-19.417a5.396 5.396 0 01-.705.349c-.511.186-1.267 1.534-1.377 2.456-.057.474-.08 8.293-.052 17.376l.051 16.514.472.681a5.47 5.47 0 001.152 1.152l.681.472 16.722.046 16.723.047V66h-28.5V41.333H295V34l-16.625.002c-14.32.003-16.683.037-17.042.248M346 37.667v3.666h15.667v32H369v-32h15.667V34H346v3.667m-163.039 7.708l.044 4.458h-24.672v-9.002l12.292.043 12.292.043.044 4.458" fill="#2c3444"/></g></svg>