<svg fill="none" height="49" viewBox="0 0 45 45" xmlns="http://www.w3.org/2000/svg"><path d="M43.806 1.585c2.347 2.346-4.158 12.656-5.258 13.757-1.1 1.098-3.893.087-6.239-2.259-2.347-2.345-3.357-5.14-2.258-6.24 1.1-1.1 11.41-7.604 13.756-5.258zM10.9 4.067C7.316 2.034 2.218-.227.596 1.395c-1.643 1.642.7 6.855 2.755 10.444a22.03 22.03 0 017.547-7.772z" fill="#F35183"/><path d="M40.228 14.533c.33 1.119.27 2.043-.265 2.577-1.25 1.25-4.625-.08-7.668-2.977-.213-.19-.423-.388-.63-.595-1.1-1.101-1.957-2.273-2.504-3.352-1.066-1.912-1.333-3.6-.527-4.406.439-.439 1.141-.558 1.998-.404a41.362 41.362 0 011.942-1.15 21.198 21.198 0 00-9.832-2.4c-11.765 0-21.303 9.535-21.303 21.301 0 11.764 9.538 21.3 21.303 21.3s21.302-9.536 21.302-21.3c0-3.8-.998-7.362-2.74-10.45a41.166 41.166 0 01-1.076 1.856z" fill="#F35183"/></svg>