<svg fill="none" height="49" viewBox="0 0 78 51" xmlns="http://www.w3.org/2000/svg"><mask height="51" id="mask0" mask-type="alpha" maskUnits="userSpaceOnUse" width="51" x="16" y="0"><circle cx="41.174" cy="25.84" fill="#C4C4C4" r="24.937"/></mask><g mask="url(#mask0)"><circle cx="41.174" cy="25.84" fill="#EC779B" r="24.937"/><path d="M50.083-1.053s-3.718 5.25-16.623 8.095c-12.905 2.845-9.187 8.095-8.97 9.624.216 1.529 3.72 3.064 14.22-5.03C49.21 3.54 51.615 1.571 56.865 1.355c5.25-.217-6.782-2.409-6.782-2.409zm-5.906-1.969S41.992 6.386 19.459 5.95c0 0 20.78-9.407 24.718-8.97zM16.615 9.667s5.47-1.313 5.47 1.092c0 2.405-2.845 7.002-7 7.002-4.153 0 1.53-8.094 1.53-8.094z" fill="#D14671"/><path d="M12.24 25.416s3.718-7.438 9.408-6.126c5.69 1.313 9.844 2.189 18.591-4.373 8.748-6.563 10.94-10.5 14.001-8.095 3.062 2.405-5.686 10.94-12.248 12.468-6.563 1.53-31.94 6.563-22.752 13.125 9.187 6.563 24.72-3.497 30.187-10.716 5.466-7.219 9.843-10.064 10.5-6.563.656 3.502-6.123 5.25-10.5 10.717-4.377 5.466-19.688 18.594-33.905 9.843-14.217-8.75-3.281-10.28-3.281-10.28z" fill="#D14671"/><path d="M58.834 5.073S52.708 16.666 45.49 19.73c-7.218 3.065-26.905 6.563-22.968 10.936 3.937 4.374 12.908.437 19.25-5.03 6.343-5.466 18.156-18.594 21.437-15.093 3.281 3.5-4.374-5.47-4.374-5.47zm7.875 13.125c-.657 0-7.219 1.312-12.469 5.686-5.25 4.374-9.843 16.846-33.032 19.25l4.158 3.718s-.437-1.968 10.28-4.593c10.716-2.625 14.657-7.656 20.783-15.31 6.126-7.656 10.28-3.721 10.28-3.721v-5.03z" fill="#D14671"/><path d="M27.554 50.134s3.062-5.907 8.968-5.907c5.906 0 15.97-7.655 19.467-12.685 3.498-5.03 4.184-7.455 5.47-5.25 3.061 5.25-6.562 9.404-12.688 15.094-6.126 5.69-13.817 3.13-15.53 9.844-1.713 6.713 22.558-13.19 24.5-14.221 3.718-1.969 5.907 0 5.907 1.969 0 1.968-7.659 15.313-15.75 15.313-8.092 0-20.127.656-20.127-3.281" fill="#D14671"/></g><path d="M65.392 20.085c-.05.407.291 1.032.24 1.439 8.065 2.848 10.757 5.54 10.402 8.44-.305 2.543-4.413 4.628-11.362 5.747-2.891.458-6.188.764-9.688.865-.608 0-1.268.051-1.877.051-2.434.051-4.92-.05-7.506-.153a137.467 137.467 0 01-7.66-.66c-2.18-.255-4.31-.56-6.34-.866-2.028-.305-4.007-.712-5.883-1.119-.406-.102-.812-.152-1.218-.254-.558-.102-1.116-.255-1.623-.356-13.289-3.205-21.201-7.987-20.796-11.65.355-3.103 5.884-5.443 15.42-6.307.253 0 .88.027 1.134.027.051-.406.43-.842.48-1.198-.304 0-1.208 0-1.462.051C7.61 15.11 1.37 17.754.915 21.468.357 26.3 9.943 31.489 24.247 34.694c.608.153 1.217.254 1.877.407.405.102.811.153 1.217.254.913.204 1.826.356 2.79.51 2.485.406 5.021.813 7.658 1.067 1.066.102 2.08.204 3.145.306.863.101 1.776.152 2.638.203 2.587.203 5.173.254 7.608.305h2.13c2.181-.05 4.261-.102 6.24-.254 1.876-.153 3.651-.356 5.325-.661 4.413-.713 11.869-2.544 12.325-6.766.355-3.46-3.236-6.877-11.808-9.98z" fill="#fff"/><path d="M14.356 29.148c.152 1.73-1.167 3.307-2.891 3.409-1.725.101-3.297-1.17-3.399-2.9-.152-1.73 1.167-3.306 2.891-3.408 1.725-.153 3.297 1.119 3.399 2.9zm59.801-6.816c.608 1.628-.254 3.46-1.877 4.07-1.623.61-3.449-.255-4.058-1.883-.608-1.627.254-3.459 1.877-4.07 1.623-.61 3.45.255 4.058 1.883zm-21.253 18.11a3.2 3.2 0 003.196-3.205 3.2 3.2 0 00-3.196-3.205 3.2 3.2 0 00-3.195 3.205 3.2 3.2 0 003.195 3.205zm-40.78-4.375s-.05.052 0 0c-.05.052-.05 0 0 0-.05-.051-.05-.051 0 0-.05-.051-.05-.051 0 0z" fill="#fff"/><path d="M65.392 32.074c-.202.356-.276 1.083-.48 1.439 6.341 5.697 7.368 9.371 5.847 11.864-1.32 2.136-5.986 2.289-12.731.356-2.84-.814-5.935-1.933-9.181-3.358-.558-.254-1.167-.508-1.725-.763-2.18-1.017-4.463-2.136-6.695-3.357-2.181-1.17-4.413-2.493-6.645-3.866a121.34 121.34 0 01-5.325-3.51 101.155 101.155 0 01-4.87-3.51c-.355-.255-.659-.51-.963-.764-.457-.356-.863-.712-1.32-1.017C10.604 16.991 5.48 9.258 7.357 6.155c1.522-2.492 6.848-2.441 14.862.255l2.412.727.959-.72-2.712-.974c-8.622-2.848-14.658-2.9-16.484.102-2.536 4.171 3.905 12.921 15.47 21.976.507.407 1.014.763 1.521 1.17.305.255.66.509 1.015.763l2.282 1.679a144.396 144.396 0 006.493 4.273c.913.56 1.775 1.12 2.688 1.628.76.458 1.522.916 2.283 1.322a122.654 122.654 0 006.746 3.51c.659.306 1.268.611 1.927.916a88.762 88.762 0 005.782 2.442c1.776.661 3.45 1.22 5.072 1.679 4.261 1.22 11.819 2.747 14-.865 1.826-3.001 1.329-6.791-6.28-13.964z" fill="#fff"/><path d="M10.4 18.822a3.15 3.15 0 003.144-3.154 3.15 3.15 0 00-3.145-3.154 3.15 3.15 0 00-3.144 3.154 3.15 3.15 0 003.144 3.154z" fill="#fff"/></svg>