<svg id="b0aebea8-1e8f-45ac-97f3-8a58c1a50945" data-name="Layer 1" xmlns="http://www.w3.org/2000/svg" width="1007.529" height="665.082" viewBox="0 0 1007.529 665.082"><rect x="83.401" y="188.773" width="21.846" height="28.4" fill="#3f3d56"/><rect x="567.401" y="586.773" width="21.846" height="28.4" fill="#3f3d56"/><rect x="991.267" y="408.694" width="21.846" height="28.4" transform="rotate(90 1012.802 316.046)" fill="#3f3d56"/><circle cx="847.031" cy="525.346" r="86.292" fill="#2f2e41"/><polygon points="880.36 643.515 906.156 638.845 897.789 584.981 871.993 589.651 880.36 643.515" fill="#2f2e41"/><rect x="920.61" y="713.739" width="26.215" height="46.969" transform="rotate(169.739 890.873 674.174)" fill="#2f2e41"/><ellipse cx="933.402" cy="766.142" rx="21.846" ry="8.192" transform="rotate(-40.261 725.063 838.684)" fill="#2f2e41"/><ellipse cx="983.92" cy="764.643" rx="21.846" ry="8.192" transform="rotate(-40.261 775.58 837.185)" fill="#2f2e41"/><circle cx="840.99" cy="504.238" r="29.492" fill="#fff"/><circle cx="828.869" cy="493.667" r="9.831" fill="#3f3d56"/><path d="M1011.34 548.928c1.297-31.946-26.237-59.006-61.498-60.438s-64.9 23.305-66.197 55.251 23.213 39.205 58.475 40.638 67.921-3.504 69.22-35.45z" transform="translate(-96.235 -117.46)" fill="#d14671"/><ellipse cx="863.588" cy="627.084" rx="13.545" ry="43.146" transform="rotate(-77.09 741.756 628.75)" fill="#2f2e41"/><ellipse cx="1032.976" cy="655.253" rx="13.545" ry="43.146" transform="rotate(-77.09 911.144 656.918)" fill="#2f2e41"/><path d="M966.967 676.812a19.662 19.662 0 11-38.694 7.004c-1.935-10.685 6.327-14.466 17.012-16.4s19.748-1.29 21.682 9.396z" transform="translate(-96.235 -117.46)" fill="#fff"/><polygon points="398.526 582.508 395.526 621.508 424.526 624.508 417.526 577.508 398.526 582.508" fill="#ffb9b9"/><path d="M393.723 344.814c24.719 7.617 37.905 36.031 29.451 63.464l-10.74 34.854-10.72-3.303-2.226-14.826-2.428 13.391-68.9-21.232-2.025-13.478-2.207 12.174-7.757-2.39 8.433-27.367c9.728-31.568 40.673-50.053 69.119-41.287z" transform="translate(-96.235 -117.46)" fill="#2f2e41"/><path d="M355.33 449.425a16.232 16.232 0 00-18.852 14.93c-.43 6.043 1.655 13.117 11.022 18.356 20.008 11.19 63.396 35.586 63.396 35.586l82.784 15.898s41.834 33.381 47.075 14.395-39.695-30.578-39.695-30.578l-76.054-19.504-48.46-35.053s-8.881-11.853-21.215-14.03z" transform="translate(-96.235 -117.46)" fill="#ffb9b9"/><polygon points="232.636 409.747 240.956 433.196 290.881 421.093 278.021 403.695 232.636 409.747" fill="#ffb9b9"/><polygon points="99.125 630.247 61.304 626.464 87.779 600.746 106.69 613.605 99.125 630.247" fill="#ffb9b9"/><circle cx="288.744" cy="274.77" r="31.063" fill="#ffb9b9"/><path d="M360.641 397.1s-17.398 20.423-26.475 23.449-31.77 31.77-20.424 50.68 52.95-4.538 52.95-4.538l-1.512-18.91s17.398-30.258 21.18-32.527-25.719-18.155-25.719-18.155z" transform="translate(-96.235 -117.46)" fill="#ffb9b9"/><path d="M357.617 433.62c-11.566-17.412-38.393-14.297-45.048 5.52q-.177.53-.34 1.076c-6.051 20.424 3.026 55.22 3.026 55.22l13.616 40.847s35.552-16.642 61.271 11.346l-3.782-28.744s10.59-24.206-3.026-41.604c-8.665-11.072-16.718-30.11-25.717-43.66z" transform="translate(-96.235 -117.46)" fill="#575a89"/><path d="M178.72 742.41l-1.514 11.347s-49.924-9.834-60.514-.756-10.59 15.128-18.911 9.077c-3.536-2.572-.514-8.833 4.13-15.183a76.424 76.424 0 0128.166-23.386c12.484-6.113 29.731-14.994 29.731-17.407 0-3.782 13.616-15.129 18.911-9.077s15.129 22.693 15.129 22.693zm311.372-21.442s-11.087 39.31-7.056 41.326 12.096 8.064 24.192 8.064c7.147 0 17.813 3.871 25.345 7.039a61.095 61.095 0 0027.847 4.79c6.349-.437 11.746-1.926 11.318-5.781-1.008-9.072-20.16-11.088-20.16-11.088l-20.159-26.207s-3.528-16.632-6.552-16.632a6.622 6.622 0 01-4.536-1.512zm-113.31-366.392a24.563 24.563 0 0121.434-3.744l.879.27c16.942 5.222 25.953 24.785 20.125 43.697l-5.677-1.75 1.233-7.26-3.494 6.564-33.67-10.376-1.002-6.773-1.114 6.121-6.624-2.041q-11.732 21.597-.867 50.157l-11.284-3.477-2.003-13.547-2.228 12.243-21.51-6.629 4.138-28.462c6.268-20.339 23.4-33.944 41.664-34.993z" transform="translate(-96.235 -117.46)" fill="#2f2e41"/><rect x="419.608" y="53" width="257" height="481" fill="#f2f2f2"/><path d="M834.843 652.46h-320v-535h320zm-318-2h316v-531h-316z" transform="translate(-96.235 -117.46)" fill="#3f3d56"/><rect x="44.019" y="662.841" width="963.51" height="2.241" fill="#3f3d56"/><path d="M795.843 398.46h-242v-222h242zm-240-2h238v-218h-238z" transform="translate(-96.235 -117.46)" fill="#3f3d56"/><polygon points="459.315 222.139 457.901 220.725 533.324 145.302 577.608 189.586 697.401 69.793 698.815 71.207 577.608 192.414 533.324 148.13 459.315 222.139" fill="#3f3d56"/><circle cx="533.608" cy="147" r="15" fill="#d14671"/><circle cx="578.608" cy="188" r="15" fill="#d14671"/><circle cx="698.608" cy="70" r="15" fill="#d14671"/><rect x="487.608" y="343" width="182" height="18" fill="#3f3d56"/><polygon points="620.608 491 536.608 491 536.608 407 593.608 407 593.608 409 538.608 409 538.608 489 618.608 489 618.608 449 620.608 449 620.608 491" fill="#3f3d56"/><polygon points="578.175 469.09 560.408 445.4 566.808 440.6 579.041 456.91 635.28 400.672 640.936 406.328 578.175 469.09" fill="#d14671"/><path d="M390.52 549.52s-18.154-24.205-55.22-9.833l-6.807 18.91s-39.335 31.014-17.398 78.67l-1.513 71.104-6.051 20.424-109.683-9.077-3.782 34.796 19.667 1.512s111.196 43.873 128.593 16.642 53.707-134.645 53.707-134.645l94.182 14.103s-2.757 29.475.27 33.257 1.512 19.667 3.025 22.693.252 10.892.252 10.892l31.249-1.032v-15.13s3.782-20.423 3.782-25.718 22.693-74.887-16.642-80.938-107.04-17.129-107.04-17.129z" transform="translate(-96.235 -117.46)" fill="#2f2e41"/><path d="M355.179 431.285a18.753 18.753 0 00-25.98-9.852c-6.248 3.153-12.029 9.414-11.674 21.809.756 26.475 2.269 83.964 2.269 83.964l33.283 91.528s-8.32 61.271 13.616 55.22 6.807-57.49 6.807-57.49l-25.718-86.989 6.051-68.835s6.495-15.832 1.346-29.355z" transform="translate(-96.235 -117.46)" fill="#ffb9b9"/></svg>