<svg width="622" height="540" viewBox="0 0 622 540" fill="none" xmlns="http://www.w3.org/2000/svg"><rect x=".338" width="523.265" height="367" rx="8" fill="#262833"/><mask id="mask0_86_127" style="mask-type:alpha" maskUnits="userSpaceOnUse" x="0" y="0" width="524" height="367"><rect x=".338" width="523.265" height="367" rx="8" fill="#3D3F4D"/></mask><g mask="url(#mask0_86_127)"><path d="M0 6.193a6 6 0 016-6h511.265a6 6 0 016 6v22.574H0V6.193z" fill="#2F313C"/><circle cx="18.018" cy="14.609" r="4.805" fill="#6422F1"/><circle cx="31.471" cy="14.609" r="4.805" fill="#F46591"/><circle cx="44.928" cy="14.609" r="4.805" fill="#2BD38D"/><mask id="mask1_86_127" style="mask-type:alpha" maskUnits="userSpaceOnUse" x="-62" y="-1" width="586" height="413"><rect width="586" height="412" rx="8" transform="matrix(-1 0 0 1 524 -.277)" fill="#3D3F4D"/></mask><g mask="url(#mask1_86_127)"><path d="M462.611 189.173L524 160.428v151.494H.735v-205.1l7.308-2.33 39.464 47.39 16.078-4.661 49.696 44.283 5.846 3.884 50.427-52.052 15.347 8.546 27.771-47.39 6.388-2.555 30.883 41.399h3.655l21.924 29.522 25.579 34.96 6.577 4.662 14.616-17.869 26.689-91.673 11.314-6.215 11.693 6.215 21.194 50.498 8.039 6.992 16.078-10.877 14.616 3.885 30.694 35.737z" fill="url(#paint0_linear_86_127)"/><path d="M357.406 97.493l-.453-1.948.453 1.948zm-27.887 75.351l-1.881-.681 1.881.681zM3.086 106.491l1.201 1.599-1.2-1.599zm63.076 41.529l-1.368 1.459 1.368-1.459zm-6.782-.992l.893 1.79-.893-1.79zm63.6 45.748l-1.505-1.317 1.505 1.317zm-8.619.426l-1.368 1.46 1.368-1.46zm57.186-48.822l.955-1.757-.955 1.757zm-7.38 1.322l1.505 1.317-1.505-1.317zm25.801 1.75l-1.772-.927 1.772.927zm-8.181 2.491l.955-1.757-.955 1.757zm40.368-45.105l1.64-1.144-1.64 1.144zm-10.24.65l-1.772-.927 1.772.927zm44.285 38.798l-1.639 1.147 1.639-1.147zm45.107 64.444l-1.639 1.147 1.639-1.147zm4.905 2.301l.347 1.97-.347-1.97zm-57.491-68.072l-1.641 1.143 1.641-1.143zm-196.685 7.733l-.893-1.79.893 1.79zm-7.36-1.616l1.56-1.251-1.56 1.251zm420.679 39.009l.85 1.811-.85-1.811zm-8.036-2.554l-1.719 1.022 1.719-1.022zm67.531-23.179l-58.645 27.544-1.701-3.621 58.646-27.543 1.7 3.62zm-69.25 24.201c-3.926-6.602-11.49-18.194-20.269-26.025-4.396-3.921-8.924-6.741-13.299-7.656-4.239-.887-8.486-.026-12.639 3.764l-2.696-2.954c5.1-4.654 10.653-5.876 16.154-4.725 5.365 1.122 10.519 4.462 15.143 8.586 9.258 8.259 17.078 20.297 21.044 26.966l-3.438 2.044zm-155.932 23.324l-45.107-64.444 3.277-2.293 45.107 64.443-3.277 2.294zm-52.588-65.775l-26.566-38.121 3.281-2.287 26.567 38.121-3.282 2.287zm-33.393-37.688l-21.946 41.965-3.545-1.854 21.947-41.964 3.544 1.853zm-32.854 45.287l-10.241-5.563 1.91-3.515 10.24 5.563-1.909 3.515zm-15.161-4.682l-41.187 47.074-3.01-2.634 41.187-47.074 3.01 2.634zm-52.679 47.643l-48.2-45.183 2.736-2.919 48.2 45.183-2.736 2.919zm-52.72-45.844l-7.345 3.664-1.785-3.58 7.344-3.664 1.786 3.58zm-17.158 1.509L9.81 108.787l3.121-2.503 33.305 41.541-3.12 2.502zM4.287 108.09l-2.351 1.766-2.402-3.198 2.351-1.766 2.402 3.198zm353.573-8.65c-2.376.554-4.668 2.855-6.92 7.39-2.209 4.447-4.125 10.52-6.039 17.68-3.788 14.174-7.517 32.472-13.502 49.014l-3.761-1.361c5.909-16.332 9.52-34.172 13.399-48.686 1.92-7.184 3.92-13.593 6.32-18.426 2.357-4.745 5.367-8.522 9.596-9.506l.907 3.895zm-26.461 74.084c-4.296 11.873-7.495 21.139-10.983 27.624-3.528 6.56-7.603 10.752-13.857 11.853l-.693-3.939c4.508-.794 7.758-3.73 11.027-9.809 3.31-6.153 6.383-15.034 10.745-27.09l3.761 1.361zm77.994-16.888c-3.068 2.8-6.149 4.162-9.241 3.733-3.036-.422-5.476-2.493-7.474-5.121-3.965-5.213-7.197-13.996-10.402-22.77-3.274-8.965-6.568-18.083-10.647-24.603-2.032-3.249-4.162-5.689-6.433-7.145-2.202-1.411-4.58-1.931-7.336-1.29l-.907-3.895c3.884-.904 7.359-.133 10.402 1.818 2.974 1.907 5.483 4.901 7.666 8.39 4.351 6.956 7.791 16.534 11.012 25.353 3.291 9.011 6.316 17.102 9.829 21.721 1.74 2.288 3.344 3.372 4.84 3.58 1.438.2 3.375-.335 5.995-2.725l2.696 2.954zM9.81 108.787a4 4 0 00-5.523-.697l-2.402-3.198a8 8 0 0111.046 1.392l-3.12 2.503zm54.984 40.692a3.998 3.998 0 00-4.521-.661l-1.786-3.58a8.002 8.002 0 019.042 1.322l-2.735 2.919zm59.691 44.614a8 8 0 01-11.492.569l2.736-2.919a4 4 0 005.746-.284l3.01 2.634zm46.107-47.955a4 4 0 00-4.92.881l-3.01-2.634a8 8 0 019.84-1.762l-1.91 3.515zm21.149 2.241a8 8 0 01-10.908 3.322l1.909-3.515a4 4 0 005.454-1.661l3.545 1.854zm28.773-42.398c-1.717-2.463-5.435-2.227-6.827.433l-3.544-1.853c2.783-5.322 10.219-5.794 13.652-.867l-3.281 2.287zm34.047 39.452a.686.686 0 00-.954-.169l-2.29-3.279a4.684 4.684 0 016.521 1.155l-3.277 2.293zm48.384 62.15c.803 1.146 1.952 1.649 2.921 1.479l.693 3.939c-2.888.508-5.447-1.063-6.891-3.124l3.277-2.294zm-49.338-62.319a4.685 4.685 0 01-6.527-1.162l3.282-2.287a.685.685 0 00.955.17l2.29 3.279zm-200.678 7.218a8 8 0 01-9.814-2.155l3.121-2.502a3.999 3.999 0 004.907 1.077l1.785 3.58zm413.276 37.414c-3.887 1.825-8.462.26-10.605-3.343l3.438-2.044c1.143 1.922 3.535 2.673 5.466 1.766l1.701 3.621z" fill="#8481FF"/><rect x="40.734" y="61" width="129" height="12" rx="6" fill="#fff" fill-opacity=".32"/><rect x="40.734" y="80" width="82" height="12" rx="6" fill="#fff" fill-opacity=".32"/></g><mask id="mask2_86_127" style="mask-type:alpha" maskUnits="userSpaceOnUse" x="0" y="0" width="524" height="367"><rect width="523.265" height="367" rx="8" fill="#3D3F4D"/></mask><g mask="url(#mask2_86_127)"><path d="M61.05 250.998L-.337 224.042v142.065h523.265V173.773l-9.376-4.114-37.396 46.369-16.078-4.371-49.696 41.526-5.846 3.643-48.142-50.11-17.632 9.312-28.801-47.708h-6.697l-29.544 39.694h-3.654l-21.925 27.684-25.579 32.785-9.039 5.651-12.154-18.036-28.028-85.968-9.376-6.721-12.292 6.721-21.194 47.355-8.036 4.858-16.081-8.501-14.616 3.643-30.694 33.513z" fill="url(#paint1_linear_86_127)"/><path d="M166.256 164.134l.428-1.954-.428 1.954zm27.888 70.974l1.867-.717-1.867.717zm316.193-63.195l-1.58-1.225 1.58 1.225zm8.554-.959l1.27-1.545-1.27 1.545zm-61.3 40.691l-1.323-1.499 1.323 1.499zm-56.802 42.352l-1.465 1.362 1.465-1.362zm8.367.415l-1.323-1.5 1.323 1.5zm-56.863-46.205l-.911-1.781.911 1.781zm7.13 1.258l1.465-1.362-1.465 1.362zm-25.72 1.743l1.749-.971-1.749.971zm-32.084-40.306l1.608 1.189-1.608-1.189zm10.069.656l-1.749.971 1.749-.971zm-44.258 36.694l-1.605-1.193 1.605 1.193zm-45.067 60.647l1.605 1.193-1.605-1.193zm-4.809 2.195l-.315 1.975.315-1.975zm57.419-64.179l-1.608-1.189 1.608 1.189zm196.635 7.319l.851-1.81-.851 1.81zm7.294-1.755l-1.58-1.225 1.58 1.225zM58.498 249.548l.81-1.829-.81 1.829zm7.835-2.475l-1.69-1.067 1.69 1.067zm-67.48-21.723l58.836 26.027 1.618-3.658L.471 221.692l-1.618 3.658zm69.172 22.791c3.918-6.208 11.476-17.123 20.25-24.499 4.391-3.69 8.927-6.358 13.327-7.227 4.285-.845 8.56-.016 12.711 3.552l2.608-3.033c-5.106-4.389-10.634-5.52-16.094-4.443-5.344 1.055-10.494 4.196-15.125 8.089-9.268 7.791-17.095 19.144-21.06 25.426l3.383 2.135zm155.943 21.951l45.068-60.647-3.211-2.386-45.067 60.647 3.21 2.386zm52.613-61.987l26.646-36.014-3.216-2.379-26.646 36.014 3.216 2.379zm33.358-35.576l22.016 39.65 3.497-1.942-22.016-39.65-3.497 1.942zm32.654 42.888l10.611-5.43-1.822-3.561-10.611 5.43 1.822 3.561zm15.364-4.591l41.367 44.533 2.93-2.723-41.366-44.533-2.931 2.723zm52.523 45.085l48.435-42.766-2.647-2.999-48.435 42.766 2.647 2.999zm52.784-43.388l7.493 3.521 1.702-3.62-7.494-3.521-1.701 3.62zm17.219 1.181l31.435-40.566-3.161-2.45-31.435 40.566 3.161 2.45zm37.138-41.205l4.036 3.319 2.541-3.09-4.037-3.319-2.54 3.09zm-351.794-6.412c2.406.528 4.684 2.701 6.917 6.937 2.2 4.172 4.112 9.876 6.025 16.617 3.783 13.334 7.518 30.593 13.508 46.184l3.734-1.434c-5.906-15.374-9.51-32.154-13.394-45.842-1.921-6.769-3.925-12.822-6.334-17.391-2.376-4.505-5.4-8.057-9.599-8.978l-.857 3.907zm26.45 69.738c4.306 11.211 7.518 19.976 11.028 26.102 3.566 6.225 7.676 10.146 13.934 11.142l.629-3.95c-4.583-.73-7.836-3.496-11.093-9.18-3.313-5.783-6.385-14.148-10.764-25.548l-3.734 1.434zm-77.964-15.858c3.081 2.648 6.141 3.906 9.182 3.508 2.998-.392 5.438-2.328 7.453-4.825 3.98-4.929 7.222-13.228 10.424-21.486 3.276-8.449 6.563-17.018 10.631-23.144 4.074-6.135 8.431-9.115 13.824-7.933l.857-3.907c-7.888-1.729-13.657 3.068-18.013 9.627-4.362 6.568-7.809 15.609-11.028 23.911-3.294 8.494-6.31 16.088-9.807 20.419-1.723 2.135-3.327 3.171-4.86 3.372-1.49.195-3.448-.334-6.055-2.575l-2.608 3.033zm397.605-46.829a4 4 0 015.703-.639l2.54-3.09a8 8 0 00-11.404 1.279l3.161 2.45zm-53.003 40.007a4 4 0 014.349-.622l1.701-3.62a7.999 7.999 0 00-8.697 1.243l2.647 2.999zm-59.591 42.214a8 8 0 0011.156.552l-2.647-2.999a4 4 0 01-5.579-.276l-2.93 2.723zm-46.12-45.372a4 4 0 014.753.839l2.931-2.723a8.003 8.003 0 00-9.506-1.677l1.822 3.561zm-21.249 2.192a8 8 0 0010.638 3.238l-1.822-3.561a4 4 0 01-5.319-1.619l-3.497 1.942zm-28.728-40.088c1.73-2.339 5.3-2.106 6.712.438l3.497-1.942c-2.825-5.088-9.964-5.553-13.425-.875l3.216 2.379zm-34.191 37.354a.788.788 0 011.065-.188l2.198-3.342a4.788 4.788 0 00-6.474 1.144l3.211 2.386zm-48.278 58.261c-.804 1.082-1.926 1.566-2.89 1.413l-.629 3.95c2.785.444 5.269-1.013 6.729-2.977l-3.21-2.386zm49.343-58.449a4.788 4.788 0 006.48-1.152l-3.216-2.379a.787.787 0 01-1.066.189l-2.198 3.342zm200.656 6.787a8 8 0 009.726-2.34l-3.161-2.45a4 4 0 01-4.863 1.17l-1.702 3.62zM57.689 251.377c3.792 1.678 8.177.184 10.336-3.236l-3.383-2.135c-1.155 1.829-3.45 2.547-5.334 1.713l-1.619 3.658z" fill="url(#paint2_linear_86_127)"/></g><rect x="448.674" y="44.326" width="43" height="43" rx="7" fill="#2F313B"/><path d="M462.574 62.026h.271c1.045 0 1.9.855 1.9 1.9v9.5c0 1.045-.855 1.9-1.9 1.9h-.271c-1.045 0-1.9-.855-1.9-1.9v-9.5c0-1.045.855-1.9 1.9-1.9zm7.6-5.7c1.045 0 1.9.855 1.9 1.9v15.2c0 1.045-.855 1.9-1.9 1.9s-1.9-.855-1.9-1.9v-15.2c0-1.045.855-1.9 1.9-1.9zm7.6 10.857c1.045 0 1.9.855 1.9 1.9v4.343c0 1.045-.855 1.9-1.9 1.9s-1.9-.855-1.9-1.9v-4.343c0-1.045.855-1.9 1.9-1.9z" fill="#D14671"/></g><g filter="url(#filter0_d_86_127)"><path d="M235 262a9 9 0 019-9h313a9 9 0 019 9v209a9 9 0 01-9 9H244a9 9 0 01-9-9V262z" fill="#262833"/></g><rect x="235" y="253" width="331" height="227" rx="9" fill="#262833"/><path d="M261 297.185h3.403v-1H261v1zm10.208 0h6.805v-1h-6.805v1zm13.61 0h6.805v-1h-6.805v1zm13.61 0h6.805v-1h-6.805v1zm13.611 0h6.805v-1h-6.805v1zm13.61 0h6.805v-1h-6.805v1zm13.61 0h6.805v-1h-6.805v1zm13.61 0h6.805v-1h-6.805v1zm13.611 0h6.805v-1h-6.805v1zm13.61 0h6.805v-1h-6.805v1zm13.61 0h6.805v-1H393.7v1zm13.61 0h6.806v-1h-6.806v1zm13.611 0h6.805v-1h-6.805v1zm13.61 0h6.805v-1h-6.805v1zm13.61 0h6.805v-1h-6.805v1zm13.61 0h6.806v-1h-6.806v1zm13.611 0h6.805v-1h-6.805v1zm13.61 0h3.403v-1h-3.403v1z" fill="#fff" fill-opacity=".4"/><line x1="261" y1="334.049" x2="492.375" y2="334.049" stroke="#fff" stroke-opacity=".4" stroke-dasharray="7 7"/><line x1="261" y1="371.533" x2="492.375" y2="371.533" stroke="#fff" stroke-opacity=".4" stroke-dasharray="7 7"/><line x1="261" y1="409.016" x2="492.375" y2="409.016" stroke="#fff" stroke-opacity=".4" stroke-dasharray="7 7"/><line x1="261" y1="446.5" x2="492.375" y2="446.5" stroke="#fff" stroke-opacity=".4" stroke-dasharray="7 7"/><rect x="371" y="310.724" width="10" height="54.367" rx="2" fill="#D14671"/><rect x="375" y="287" width="2" height="104.78" rx="1" fill="#D14671"/><rect x="431" y="335.436" width="10" height="46.459" rx="2" fill="#D14671"/><rect x="435" y="315.666" width="2" height="88.964" rx="1" fill="#D14671"/><rect x="451" y="354.218" width="10" height="35.586" rx="2" fill="#D14671"/><rect x="455" y="338.402" width="2" height="69.194" rx="1" fill="#D14671"/><rect x="351" y="344.333" width="10" height="54.367" rx="2" fill="#D14671"/><rect x="355" y="320.609" width="2" height="104.78" rx="1" fill="#D14671"/><rect x="331" y="360.148" width="10" height="54.367" rx="2" fill="#ECBDCC"/><rect x="335" y="336.425" width="2" height="104.78" rx="1" fill="#ECBDCC"/><rect x="271" y="355.542" width="10" height="41.545" rx="2" fill="#ECBDCC"/><rect x="275" y="337.413" width="2" height="80.068" rx="1" fill="#ECBDCC"/><rect x="311" y="349.275" width="10" height="43.494" rx="2" fill="#D14671"/><rect x="315" y="330.494" width="2" height="83.033" rx="1" fill="#D14671"/><rect x="291" y="347.298" width="10" height="22.735" rx="2" fill="#D14671"/><rect x="295" y="337.413" width="2" height="43.494" rx="1" fill="#D14671"/><rect x="411" y="361.137" width="10" height="36.574" rx="2" fill="#B1B5D3"/><rect x="415" y="349.275" width="2" height="60.298" rx="1" fill="#B1B5D3"/><rect x="471" y="336.425" width="10" height="36.574" rx="2" fill="#B1B5D3"/><rect x="475" y="324.563" width="2" height="60.298" rx="1" fill="#B1B5D3"/><rect x="391" y="345.321" width="10" height="36.574" rx="2" fill="#B1B5D3"/><rect x="395" y="333.459" width="2" height="60.298" rx="1" fill="#B1B5D3"/><path d="M508.095 374.366v-.797l3.515-5.562h.578v1.234h-.39l-2.656 4.203v.063h4.734v.859h-5.781zm3.765 1.641v-8h.922v8h-.922zm5.98.109a2.75 2.75 0 01-1.238-.273 2.304 2.304 0 01-.883-.75 2.042 2.042 0 01-.364-1.086h.938c.036.362.2.661.492.898.294.235.646.352 1.055.352.328 0 .62-.077.875-.231a1.62 1.62 0 00.605-.632c.149-.271.223-.577.223-.918a1.88 1.88 0 00-.23-.934 1.703 1.703 0 00-.625-.652 1.773 1.773 0 00-.911-.243 2.53 2.53 0 00-.754.114c-.257.075-.47.173-.636.293l-.907-.11.485-3.937h4.156v.859h-3.344l-.281 2.36h.047c.164-.131.37-.239.617-.325.248-.086.505-.129.774-.129a2.459 2.459 0 012.214 1.305c.222.404.332.865.332 1.383 0 .51-.114.966-.343 1.367a2.503 2.503 0 01-.938.945c-.398.23-.851.344-1.359.344zm4.579-.047a.676.676 0 01-.496-.207.676.676 0 01-.207-.496c0-.192.069-.358.207-.496a.676.676 0 01.496-.207c.193 0 .358.069.496.207a.678.678 0 01.207.496.735.735 0 01-.351.61.678.678 0 01-.352.093zm4.672.047c-.589 0-1.09-.16-1.504-.48-.414-.323-.731-.791-.949-1.403-.219-.614-.328-1.356-.328-2.226 0-.865.109-1.603.328-2.215.221-.615.539-1.083.953-1.406.416-.326.916-.489 1.5-.489.583 0 1.082.163 1.496.489.417.323.734.791.953 1.406.221.612.332 1.35.332 2.215 0 .87-.109 1.612-.328 2.226-.219.612-.535 1.08-.949 1.403-.414.32-.916.48-1.504.48zm0-.859c.583 0 1.036-.281 1.359-.844.323-.562.485-1.364.485-2.406 0-.693-.075-1.283-.223-1.77-.146-.487-.357-.858-.633-1.113a1.397 1.397 0 00-.988-.383c-.578 0-1.03.285-1.356.856-.325.567-.488 1.371-.488 2.41 0 .693.073 1.281.219 1.765.146.485.355.853.629 1.106.276.253.608.379.996.379zm6.875.859c-.589 0-1.09-.16-1.504-.48-.414-.323-.731-.791-.949-1.403-.219-.614-.328-1.356-.328-2.226 0-.865.109-1.603.328-2.215.221-.615.539-1.083.953-1.406.416-.326.916-.489 1.5-.489.583 0 1.082.163 1.496.489.417.323.734.791.953 1.406.221.612.332 1.35.332 2.215 0 .87-.109 1.612-.328 2.226-.219.612-.535 1.08-.949 1.403-.414.32-.916.48-1.504.48zm0-.859c.583 0 1.036-.281 1.359-.844.323-.562.485-1.364.485-2.406 0-.693-.075-1.283-.223-1.77-.146-.487-.357-.858-.633-1.113a1.397 1.397 0 00-.988-.383c-.578 0-1.03.285-1.356.856-.325.567-.488 1.371-.488 2.41 0 .693.073 1.281.219 1.765.146.485.355.853.629 1.106.276.253.608.379.996.379zm6.875.859c-.589 0-1.09-.16-1.504-.48-.414-.323-.731-.791-.949-1.403-.219-.614-.328-1.356-.328-2.226 0-.865.109-1.603.328-2.215.221-.615.539-1.083.953-1.406.416-.326.916-.489 1.5-.489.583 0 1.082.163 1.496.489.417.323.734.791.953 1.406.221.612.332 1.35.332 2.215 0 .87-.109 1.612-.328 2.226-.219.612-.535 1.08-.949 1.403-.414.32-.916.48-1.504.48zm0-.859c.583 0 1.036-.281 1.359-.844.323-.562.485-1.364.485-2.406 0-.693-.075-1.283-.223-1.77-.146-.487-.357-.858-.633-1.113a1.397 1.397 0 00-.988-.383c-.578 0-1.03.285-1.356.856-.325.567-.488 1.371-.488 2.41 0 .693.073 1.281.219 1.765.146.485.355.853.629 1.106.276.253.608.379.996.379zm-32.746-38.394v-.797l3.515-5.563h.578v1.235h-.39l-2.656 4.203v.062h4.734v.86h-5.781zm3.765 1.64v-8h.922v8h-.922zm3.73 0l3.578-7.078v-.062h-4.125v-.86h5.125v.907l-3.563 7.093h-1.015zm5.347.063a.678.678 0 01-.497-.207.676.676 0 01-.207-.496c0-.193.069-.358.207-.496a.678.678 0 01.497-.207c.192 0 .358.069.496.207a.676.676 0 01.207.496.73.73 0 01-.352.609.664.664 0 01-.351.094zm4.671.047c-.588 0-1.089-.16-1.504-.481-.414-.323-.73-.79-.949-1.402-.218-.615-.328-1.357-.328-2.227 0-.864.11-1.602.328-2.214.222-.615.539-1.084.953-1.407.417-.325.917-.488 1.5-.488.584 0 1.082.163 1.496.488.417.323.735.792.954 1.407.221.612.332 1.35.332 2.214 0 .87-.11 1.612-.328 2.227-.219.612-.536 1.079-.95 1.402-.414.321-.915.481-1.504.481zm0-.86c.584 0 1.037-.281 1.36-.843.323-.563.484-1.365.484-2.407 0-.692-.074-1.282-.223-1.769-.145-.487-.356-.858-.632-1.113a1.395 1.395 0 00-.989-.383c-.578 0-1.03.285-1.355.855-.326.568-.488 1.371-.488 2.41 0 .693.073 1.282.218 1.766.146.484.356.853.629 1.106.276.252.608.378.996.378zm6.875.86c-.588 0-1.089-.16-1.504-.481-.414-.323-.73-.79-.949-1.402-.218-.615-.328-1.357-.328-2.227 0-.864.11-1.602.328-2.214.222-.615.539-1.084.953-1.407.417-.325.917-.488 1.5-.488.584 0 1.082.163 1.496.488.417.323.735.792.954 1.407.221.612.332 1.35.332 2.214 0 .87-.11 1.612-.328 2.227-.219.612-.536 1.079-.95 1.402-.414.321-.915.481-1.504.481zm0-.86c.584 0 1.037-.281 1.36-.843.323-.563.484-1.365.484-2.407 0-.692-.074-1.282-.223-1.769-.145-.487-.356-.858-.632-1.113a1.395 1.395 0 00-.989-.383c-.578 0-1.03.285-1.355.855-.326.568-.488 1.371-.488 2.41 0 .693.073 1.282.218 1.766.146.484.356.853.629 1.106.276.252.608.378.996.378zm6.875.86c-.588 0-1.089-.16-1.504-.481-.414-.323-.73-.79-.949-1.402-.218-.615-.328-1.357-.328-2.227 0-.864.11-1.602.328-2.214.222-.615.539-1.084.953-1.407.417-.325.917-.488 1.5-.488.584 0 1.082.163 1.496.488.417.323.735.792.954 1.407.221.612.332 1.35.332 2.214 0 .87-.11 1.612-.328 2.227-.219.612-.536 1.079-.95 1.402-.414.321-.915.481-1.504.481zm0-.86c.584 0 1.037-.281 1.36-.843.323-.563.484-1.365.484-2.407 0-.692-.074-1.282-.223-1.769-.145-.487-.356-.858-.632-1.113a1.395 1.395 0 00-.989-.383c-.578 0-1.03.285-1.355.855-.326.568-.488 1.371-.488 2.41 0 .693.073 1.282.218 1.766.146.484.356.853.629 1.106.276.252.608.378.996.378zm-31.263-38.394v-.797L511.61 293h.578v1.234h-.39l-2.656 4.203v.063h4.734v.859h-5.781zM511.86 301v-8h.922v8h-.922zm6.027-8.109c.328.002.656.065.984.187.328.123.628.326.899.609.27.282.488.666.652 1.153.164.487.246 1.097.246 1.832 0 .711-.068 1.342-.203 1.894-.133.55-.326 1.013-.578 1.391-.25.378-.555.664-.914.859a2.475 2.475 0 01-1.211.293c-.448 0-.848-.088-1.199-.265a2.365 2.365 0 01-.86-.746 2.615 2.615 0 01-.426-1.114h.953c.086.368.257.671.512.911.258.237.598.355 1.02.355.617 0 1.104-.27 1.461-.809.359-.539.539-1.3.539-2.285h-.063a2.466 2.466 0 01-.519.567 2.29 2.29 0 01-1.45.496c-.458 0-.878-.114-1.261-.34a2.575 2.575 0 01-.914-.942 2.741 2.741 0 01-.34-1.375c0-.489.109-.937.328-1.343a2.53 2.53 0 01.93-.977c.401-.242.872-.359 1.414-.351zm0 .859c-.328 0-.624.082-.887.246a1.78 1.78 0 00-.621.656 1.853 1.853 0 00-.227.91c0 .334.073.637.219.911.149.27.35.487.606.648.257.159.55.238.878.238a1.669 1.669 0 001.25-.547c.162-.171.288-.365.379-.582a1.787 1.787 0 00-.089-1.562 1.806 1.806 0 00-.618-.664 1.598 1.598 0 00-.89-.254zm4.725 7.313a.679.679 0 01-.496-.208.676.676 0 01-.207-.496c0-.192.069-.358.207-.496a.678.678 0 01.496-.207c.193 0 .358.069.496.207a.678.678 0 01.207.496.73.73 0 01-.351.61.674.674 0 01-.352.094zm4.672.046c-.588 0-1.09-.16-1.504-.48-.414-.323-.73-.79-.949-1.402-.219-.615-.328-1.357-.328-2.227 0-.865.109-1.603.328-2.215.221-.614.539-1.083.953-1.406.417-.326.917-.488 1.5-.488.584 0 1.082.162 1.496.488.417.323.735.792.953 1.406.222.612.332 1.35.332 2.215 0 .87-.109 1.612-.328 2.227-.218.612-.535 1.079-.949 1.402-.414.32-.915.48-1.504.48zm0-.859c.584 0 1.037-.281 1.36-.844.322-.562.484-1.364.484-2.406 0-.693-.074-1.283-.223-1.77-.146-.487-.356-.858-.633-1.113a1.396 1.396 0 00-.988-.383c-.578 0-1.03.286-1.355.856-.326.568-.489 1.371-.489 2.41 0 .693.073 1.281.219 1.766.146.484.356.852.629 1.105.276.253.608.379.996.379zm6.875.859c-.588 0-1.09-.16-1.504-.48-.414-.323-.73-.79-.949-1.402-.219-.615-.328-1.357-.328-2.227 0-.865.109-1.603.328-2.215.221-.614.539-1.083.953-1.406.417-.326.917-.488 1.5-.488.584 0 1.082.162 1.496.488.417.323.735.792.953 1.406.222.612.332 1.35.332 2.215 0 .87-.109 1.612-.328 2.227-.218.612-.535 1.079-.949 1.402-.414.32-.915.48-1.504.48zm0-.859c.584 0 1.037-.281 1.36-.844.322-.562.484-1.364.484-2.406 0-.693-.074-1.283-.223-1.77-.146-.487-.356-.858-.633-1.113a1.396 1.396 0 00-.988-.383c-.578 0-1.03.286-1.355.856-.326.568-.489 1.371-.489 2.41 0 .693.073 1.281.219 1.766.146.484.356.852.629 1.105.276.253.608.379.996.379zm6.875.859c-.588 0-1.09-.16-1.504-.48-.414-.323-.73-.79-.949-1.402-.219-.615-.328-1.357-.328-2.227 0-.865.109-1.603.328-2.215.221-.614.539-1.083.953-1.406.417-.326.917-.488 1.5-.488.584 0 1.082.162 1.496.488.417.323.735.792.953 1.406.222.612.332 1.35.332 2.215 0 .87-.109 1.612-.328 2.227-.218.612-.535 1.079-.949 1.402-.414.32-.915.48-1.504.48zm0-.859c.584 0 1.037-.281 1.36-.844.322-.562.484-1.364.484-2.406 0-.693-.074-1.283-.223-1.77-.146-.487-.356-.858-.633-1.113a1.396 1.396 0 00-.988-.383c-.578 0-1.03.286-1.355.856-.326.568-.489 1.371-.489 2.41 0 .693.073 1.281.219 1.766.146.484.356.852.629 1.105.276.253.608.379.996.379zm-32.939 111.076v-.797l3.515-5.562h.578v1.234h-.39l-2.656 4.203v.063h4.734v.859h-5.781zm3.765 1.641v-8h.922v8h-.922zm6.183.109c-.516 0-.975-.088-1.379-.265a2.373 2.373 0 01-.957-.739 1.986 1.986 0 01-.383-1.105h.985c.02.258.109.48.265.668.156.185.361.328.614.429.252.102.532.153.839.153.344 0 .649-.06.914-.18.266-.12.474-.286.625-.5.151-.213.227-.461.227-.742a1.39 1.39 0 00-.219-.777 1.45 1.45 0 00-.64-.532c-.282-.127-.625-.191-1.032-.191h-.64v-.859h.64c.318 0 .597-.058.836-.172a1.298 1.298 0 00.774-1.219c0-.271-.06-.507-.18-.707a1.227 1.227 0 00-.508-.469 1.641 1.641 0 00-.765-.168c-.276 0-.537.051-.782.153a1.44 1.44 0 00-.593.433 1.128 1.128 0 00-.25.68h-.938a1.91 1.91 0 01.379-1.102 2.39 2.39 0 01.93-.742 3.002 3.002 0 011.269-.266c.495 0 .919.101 1.274.301.354.198.626.46.816.785.19.326.285.677.285 1.055 0 .451-.118.835-.355 1.152a1.81 1.81 0 01-.957.661v.062c.505.083.899.298 1.183.645.284.343.426.769.426 1.277 0 .435-.118.825-.355 1.172a2.418 2.418 0 01-.961.812 3.13 3.13 0 01-1.387.297zm4.741-.047a.676.676 0 01-.496-.207.676.676 0 01-.207-.496c0-.193.069-.358.207-.496a.676.676 0 01.496-.207c.193 0 .358.069.496.207a.676.676 0 01.207.496.664.664 0 01-.097.352.738.738 0 01-.254.258.676.676 0 01-.352.093zm4.672.047c-.588 0-1.09-.16-1.504-.48-.414-.323-.73-.791-.949-1.403-.219-.614-.328-1.356-.328-2.226 0-.865.109-1.603.328-2.215.221-.615.539-1.083.953-1.406.417-.326.917-.489 1.5-.489s1.082.163 1.496.489c.417.323.735.791.953 1.406.222.612.332 1.35.332 2.215 0 .87-.109 1.612-.328 2.226-.219.612-.535 1.08-.949 1.403-.414.32-.915.48-1.504.48zm0-.859c.583 0 1.037-.281 1.359-.844.323-.562.485-1.365.485-2.406 0-.693-.074-1.283-.223-1.77-.146-.487-.357-.858-.633-1.113a1.397 1.397 0 00-.988-.383c-.578 0-1.03.285-1.355.856-.326.567-.489 1.371-.489 2.41 0 .693.073 1.281.219 1.765.146.485.356.853.629 1.106.276.252.608.379.996.379zm6.875.859c-.588 0-1.09-.16-1.504-.48-.414-.323-.73-.791-.949-1.403-.219-.614-.328-1.356-.328-2.226 0-.865.109-1.603.328-2.215.221-.615.539-1.083.953-1.406.417-.326.917-.489 1.5-.489s1.082.163 1.496.489c.417.323.735.791.953 1.406.222.612.332 1.35.332 2.215 0 .87-.109 1.612-.328 2.226-.219.612-.535 1.08-.949 1.403-.414.32-.915.48-1.504.48zm0-.859c.583 0 1.037-.281 1.359-.844.323-.562.485-1.365.485-2.406 0-.693-.074-1.283-.223-1.77-.146-.487-.357-.858-.633-1.113a1.397 1.397 0 00-.988-.383c-.578 0-1.03.285-1.355.856-.326.567-.489 1.371-.489 2.41 0 .693.073 1.281.219 1.765.146.485.356.853.629 1.106.276.252.608.379.996.379zm6.875.859c-.588 0-1.09-.16-1.504-.48-.414-.323-.73-.791-.949-1.403-.219-.614-.328-1.356-.328-2.226 0-.865.109-1.603.328-2.215.221-.615.539-1.083.953-1.406.417-.326.917-.489 1.5-.489s1.082.163 1.496.489c.417.323.735.791.953 1.406.222.612.332 1.35.332 2.215 0 .87-.109 1.612-.328 2.226-.219.612-.535 1.08-.949 1.403-.414.32-.915.48-1.504.48zm0-.859c.583 0 1.037-.281 1.359-.844.323-.562.485-1.365.485-2.406 0-.693-.074-1.283-.223-1.77-.146-.487-.357-.858-.633-1.113a1.397 1.397 0 00-.988-.383c-.578 0-1.03.285-1.355.856-.326.567-.489 1.371-.489 2.41 0 .693.073 1.281.219 1.765.146.485.356.853.629 1.106.276.252.608.379.996.379zm-33.111 36.613v-.797l3.515-5.563h.578v1.235h-.39l-2.656 4.203v.062h4.734v.86h-5.781zm3.765 1.64v-8h.922v8h-.922zm6.185-8v8h-.969v-6.984h-.047l-1.953 1.297v-.985l2-1.328h.969zm2.516 8.063a.678.678 0 01-.497-.207.678.678 0 01-.207-.496.68.68 0 01.207-.497.678.678 0 01.497-.207c.192 0 .358.069.496.207a.68.68 0 01.207.497.664.664 0 01-.098.351.722.722 0 01-.254.258.673.673 0 01-.351.094zm4.671.047c-.588 0-1.089-.161-1.503-.481-.415-.323-.731-.79-.95-1.402-.218-.615-.328-1.357-.328-2.227 0-.864.11-1.603.328-2.215.222-.614.539-1.083.953-1.406.417-.325.917-.488 1.5-.488.584 0 1.082.163 1.497.488.416.323.734.792.953 1.406.221.612.332 1.351.332 2.215 0 .87-.11 1.612-.328 2.227-.219.612-.536 1.079-.95 1.402-.414.32-.915.481-1.504.481zm0-.86c.584 0 1.037-.281 1.36-.844.323-.562.484-1.364.484-2.406 0-.692-.074-1.282-.222-1.769-.146-.487-.357-.858-.633-1.114a1.399 1.399 0 00-.989-.382c-.578 0-1.03.285-1.355.855-.326.568-.488 1.371-.488 2.41 0 .693.073 1.281.218 1.766.146.484.356.853.629 1.105.276.253.608.379.996.379zm6.875.86c-.588 0-1.089-.161-1.503-.481-.415-.323-.731-.79-.95-1.402-.218-.615-.328-1.357-.328-2.227 0-.864.11-1.603.328-2.215.222-.614.539-1.083.953-1.406.417-.325.917-.488 1.5-.488.584 0 1.082.163 1.497.488.416.323.734.792.953 1.406.221.612.332 1.351.332 2.215 0 .87-.11 1.612-.328 2.227-.219.612-.536 1.079-.95 1.402-.414.32-.915.481-1.504.481zm0-.86c.584 0 1.037-.281 1.36-.844.323-.562.484-1.364.484-2.406 0-.692-.074-1.282-.222-1.769-.146-.487-.357-.858-.633-1.114a1.399 1.399 0 00-.989-.382c-.578 0-1.03.285-1.355.855-.326.568-.488 1.371-.488 2.41 0 .693.073 1.281.218 1.766.146.484.356.853.629 1.105.276.253.608.379.996.379zm6.875.86c-.588 0-1.089-.161-1.503-.481-.415-.323-.731-.79-.95-1.402-.218-.615-.328-1.357-.328-2.227 0-.864.11-1.603.328-2.215.222-.614.539-1.083.953-1.406.417-.325.917-.488 1.5-.488.584 0 1.082.163 1.497.488.416.323.734.792.953 1.406.221.612.332 1.351.332 2.215 0 .87-.11 1.612-.328 2.227-.219.612-.536 1.079-.95 1.402-.414.32-.915.481-1.504.481zm0-.86c.584 0 1.037-.281 1.36-.844.323-.562.484-1.364.484-2.406 0-.692-.074-1.282-.222-1.769-.146-.487-.357-.858-.633-1.114a1.399 1.399 0 00-.989-.382c-.578 0-1.03.285-1.355.855-.326.568-.488 1.371-.488 2.41 0 .693.073 1.281.218 1.766.146.484.356.853.629 1.105.276.253.608.379.996.379z" fill="#fff"/><defs><linearGradient id="paint0_linear_86_127" x1="262.367" y1="96.723" x2="261.384" y2="305.429" gradientUnits="userSpaceOnUse"><stop stop-color="#8481FF" stop-opacity=".35"/><stop offset="1" stop-color="#8481FF" stop-opacity="0"/></linearGradient><linearGradient id="paint1_linear_86_127" x1="261.295" y1="164.302" x2="262.159" y2="360.018" gradientUnits="userSpaceOnUse"><stop stop-color="#EC779B" stop-opacity=".32"/><stop offset="1" stop-color="#EC779B" stop-opacity="0"/></linearGradient><linearGradient id="paint2_linear_86_127" x1="261.295" y1="163.409" x2="261.295" y2="271.32" gradientUnits="userSpaceOnUse"><stop stop-color="#D14671"/><stop offset="1" stop-color="#D14671"/></linearGradient><filter id="filter0_d_86_127" x="179" y="201" width="443" height="339" filterUnits="userSpaceOnUse" color-interpolation-filters="sRGB"><feFlood flood-opacity="0" result="BackgroundImageFix"/><feColorMatrix in="SourceAlpha" type="matrix" values="0 0 0 0 0 0 0 0 0 0 0 0 0 0 0 0 0 0 127 0" result="hardAlpha"/><feOffset dy="4"/><feGaussianBlur stdDeviation="28"/><feComposite in2="hardAlpha" operator="out"/><feColorMatrix type="matrix" values="0 0 0 0 0 0 0 0 0 0 0 0 0 0 0 0 0 0 0.17 0"/><feBlend mode="normal" in2="BackgroundImageFix" result="effect1_dropShadow_86_127"/><feBlend mode="normal" in="SourceGraphic" in2="effect1_dropShadow_86_127" result="shape"/></filter></defs></svg>