<svg width="225" height="162" viewBox="0 0 225 162" fill="none" xmlns="http://www.w3.org/2000/svg"><rect width="225" height="162" rx="9" fill="#21222C"/><path d="M52.514 94.216a.5.5 0 10.972.233l-.972-.233zm3.463-12.313l.336-.37-.625-.566-.197.82.486.116zm11.91 10.772l-.335.371.707.64.124-.946-.496-.064zm5.11-39.132l.49-.1-.985.035.496.065zm7.544 37.2l-.49.098.375 1.849.59-1.791-.475-.157zm4.094-12.43l.493-.085-.968-.072.475.157zM87 92l-.493.085.26 1.5.68-1.361L87 92zm8.023-17.257l.483-.13-.368-1.372-.573 1.3.458.202zM103 93.5l-.433.25.008.014.009.013.416-.277zm5 7.5l-.416.277.61.916.289-1.062L108 101zm5.18-19.097l.157-.474-.501-.166-.138.51.482.13zm11.933 3.945l.488-.11-.062-.276-.269-.089-.157.475zm3.387 15.143l-.488.109.033.149.111.105.344-.363zM138 110l-.344.363.667.633.169-.905L138 110zm3.579-19.258l-.479-.144-.008.026-.005.027.492.091zm4.804-15.999l.481-.138-.469-1.637-.49 1.631.478.144zM152 94.333l-.481.138.405 1.41.541-1.364-.465-.184zm5.583-14.087l.486-.116-.368-1.538-.583 1.47.465.184zm2.977 12.43l-.486.116.979-.031-.493-.085zm5.019-29.038l.496-.066-.989-.019.493.085zM170.981 104l-.495.066.09.675.617-.288-.212-.453zm13.027-6.076l.211.453.245-.115.039-.268-.495-.07zm7.487-48.853a.5.5 0 00-.99-.142l.99.142zM90.5 85l.447.224.006-.011.004-.011L90.5 85zm7-1l-.483.13.017.063.033.058L97.5 84zM53.486 94.45l2.978-12.43-.973-.233-2.977 12.43.972.232zm2.156-12.176l11.91 10.772.67-.741-11.91-10.772-.67.741zM68.383 92.74l5.11-39.132-.99-.13-5.112 39.133.992.13zm4.125-39.098l7.543 37.2.98-.2-7.543-37.198-.98.198zm8.508 37.256L85.11 78.47l-.95-.313-4.093 12.43.95.313zm3.127-12.5l2.364 13.687.986-.17-2.365-13.687-.985.17zm18.441 15.38l5 7.499.832-.554-5-7.5-.832.554zm5.899 7.353l5.18-19.097-.965-.262-5.181 19.097.966.262zm4.541-18.753l11.932 3.945.314-.95-11.933-3.944-.313.95zm11.601 3.58l3.387 15.142.976-.218-3.387-15.143-.976.218zm3.531 15.396l9.5 9.009.688-.726-9.5-9.009-.688.726zm10.336 8.737l3.579-19.258-.984-.182-3.579 19.258.984.182zm3.566-19.205l4.804-16-.957-.287-4.805 16 .958.287zm3.845-16.005l5.616 19.59.962-.276-5.617-19.59-.961.276zm6.562 19.636l5.583-14.087-.93-.368-5.583 14.087.93.368zm4.631-14.154l2.978 12.429.972-.233-2.977-12.43-.973.234zm3.957 12.398l5.019-29.038-.986-.17-5.019 29.037.986.17zm4.03-29.056l5.403 40.361.991-.132-5.402-40.362-.992.133zm6.11 40.748l13.026-6.076-.423-.907-13.026 6.077.423.906zm13.31-6.459l6.992-48.923-.99-.142-6.992 48.924.99.141zm-97.056-5.77l3.5-7-.894-.448-3.5 7 .894.448zm3.51-7.022l4.523-10.257-.915-.404-4.522 10.257.914.404zm3.583-10.33l2.477 9.257.966-.258-2.477-9.257-.966.258zm2.527 9.379l5.5 9.5.866-.502-5.5-9.5-.866.502z" fill="url(#paint0_linear_119_112)"/><path d="M46.674 142.481V143h-3.257v-.455l1.63-1.814c.2-.224.356-.413.465-.568.112-.157.19-.297.233-.42a1.13 1.13 0 00.068-.383.95.95 0 00-.103-.444.768.768 0 00-.294-.322.891.891 0 00-.471-.119 1.08 1.08 0 00-.554.13.795.795 0 00-.328.355c-.073.153-.11.328-.11.526h-.632c0-.28.062-.536.185-.769.123-.232.305-.417.547-.553.241-.139.539-.209.892-.209.314 0 .583.056.806.168.224.109.395.264.513.464.12.199.181.431.181.698 0 .146-.025.294-.075.444a2.255 2.255 0 01-.201.444 3.437 3.437 0 01-.298.438 6.99 6.99 0 01-.359.424l-1.333 1.446h2.495zm2.1-2.28h.451c.221 0 .403-.037.547-.11a.749.749 0 00.325-.304.879.879 0 00.11-.437c0-.192-.033-.352-.097-.482a.64.64 0 00-.287-.294 1.052 1.052 0 00-.485-.099 1.01 1.01 0 00-.472.106.771.771 0 00-.318.294.87.87 0 00-.113.451h-.632c0-.253.064-.483.192-.691.127-.207.306-.372.536-.495a1.7 1.7 0 01.807-.185c.3 0 .564.054.79.161.225.105.4.262.526.471.125.208.188.466.188.776a1.192 1.192 0 01-.359.8c-.12.123-.278.225-.472.304a1.865 1.865 0 01-.697.117h-.54v-.383zm0 .519v-.379h.54c.317 0 .579.037.786.113.207.075.37.175.489.3.12.126.205.264.253.414a1.514 1.514 0 01-.044 1.063c-.078.18-.189.333-.332.458-.142.125-.308.22-.5.284-.19.064-.4.095-.625.095-.216 0-.42-.03-.611-.092a1.577 1.577 0 01-.503-.266 1.254 1.254 0 01-.342-.435 1.362 1.362 0 01-.123-.591h.633c0 .173.037.325.112.455a.8.8 0 00.328.304c.144.071.313.106.506.106.194 0 .36-.033.5-.099a.722.722 0 00.324-.308c.078-.137.116-.309.116-.516a.912.912 0 00-.13-.509.761.761 0 00-.369-.298 1.433 1.433 0 00-.557-.099h-.451zm3.556 1.945c0-.107.033-.197.099-.27.068-.075.166-.113.294-.113.127 0 .224.038.29.113a.38.38 0 01.103.27.376.376 0 01-.103.267c-.066.073-.163.109-.29.109-.128 0-.226-.036-.294-.109a.383.383 0 01-.1-.267zm.003-3.018c0-.107.033-.197.1-.27.068-.075.166-.113.293-.113.128 0 .224.038.29.113a.38.38 0 01.103.27.376.376 0 01-.102.267c-.067.073-.163.109-.29.109-.128 0-.226-.036-.295-.109a.383.383 0 01-.099-.267zm3.074.554h.45c.222 0 .404-.037.548-.11a.748.748 0 00.325-.304.879.879 0 00.109-.437c0-.192-.032-.352-.096-.482a.64.64 0 00-.287-.294 1.052 1.052 0 00-.485-.099 1.01 1.01 0 00-.472.106.77.77 0 00-.318.294.87.87 0 00-.113.451h-.632a1.3 1.3 0 01.191-.691c.128-.207.307-.372.537-.495a1.7 1.7 0 01.807-.185c.3 0 .564.054.79.161.225.105.4.262.526.471.125.208.188.466.188.776a1.192 1.192 0 01-.359.8 1.384 1.384 0 01-.472.304 1.865 1.865 0 01-.697.117h-.54v-.383zm0 .519v-.379h.54c.316 0 .579.037.786.113.207.075.37.175.489.3.12.126.205.264.253.414a1.514 1.514 0 01-.044 1.063c-.078.18-.189.333-.332.458-.142.125-.308.22-.5.284-.19.064-.4.095-.625.095-.216 0-.42-.03-.612-.092a1.577 1.577 0 01-.502-.266 1.254 1.254 0 01-.342-.435 1.362 1.362 0 01-.123-.591h.632c0 .173.038.325.113.455a.8.8 0 00.328.304c.144.071.312.106.506.106s.36-.033.5-.099a.722.722 0 00.324-.308c.077-.137.116-.309.116-.516a.912.912 0 00-.13-.509.761.761 0 00-.369-.298 1.433 1.433 0 00-.557-.099h-.451zm6.638-.605v.759c0 .408-.036.752-.109 1.032a1.793 1.793 0 01-.314.677 1.201 1.201 0 01-.496.373 1.769 1.769 0 01-.65.112c-.19 0-.367-.024-.53-.071a1.274 1.274 0 01-.437-.229 1.386 1.386 0 01-.328-.417 2.244 2.244 0 01-.208-.622 4.484 4.484 0 01-.072-.855v-.759c0-.408.036-.749.11-1.025.074-.276.18-.497.317-.663.137-.169.3-.29.492-.362.194-.073.41-.11.65-.11.193 0 .371.024.533.072a1.204 1.204 0 01.762.625c.091.167.16.371.209.612.048.242.071.525.071.851zm-.635.862v-.968c0-.223-.014-.419-.041-.588a1.86 1.86 0 00-.113-.437.863.863 0 00-.191-.294.677.677 0 00-.264-.164.933.933 0 00-.331-.055.897.897 0 00-.4.086.711.711 0 00-.294.263 1.421 1.421 0 00-.178.475 3.546 3.546 0 00-.061.714v.968c0 .223.012.42.037.591.028.171.067.319.12.444.052.123.116.225.191.304.075.08.162.139.26.178.1.037.21.055.332.055.155 0 .29-.03.406-.089a.734.734 0 00.29-.277c.08-.127.14-.29.179-.489.038-.2.058-.439.058-.717zm31.264 1.504V143h-3.257v-.455l1.63-1.814c.2-.224.356-.413.465-.568.112-.157.19-.297.233-.42a1.13 1.13 0 00.068-.383.95.95 0 00-.103-.444.768.768 0 00-.293-.322.891.891 0 00-.472-.119 1.08 1.08 0 00-.554.13.795.795 0 00-.328.355c-.073.153-.11.328-.11.526h-.632c0-.28.062-.536.185-.769.123-.232.305-.417.547-.553.241-.139.539-.209.892-.209.314 0 .583.056.806.168.224.109.395.264.513.464.12.199.181.431.181.698 0 .146-.025.294-.075.444a2.255 2.255 0 01-.202.444 3.437 3.437 0 01-.297.438 6.99 6.99 0 01-.359.424l-1.333 1.446h2.495zm2.1-2.28h.451c.221 0 .403-.037.547-.11a.749.749 0 00.325-.304.879.879 0 00.11-.437c0-.192-.033-.352-.097-.482a.64.64 0 00-.287-.294 1.052 1.052 0 00-.485-.099 1.01 1.01 0 00-.472.106.771.771 0 00-.318.294.87.87 0 00-.112.451h-.633c0-.253.064-.483.192-.691.127-.207.306-.372.536-.495a1.7 1.7 0 01.807-.185c.3 0 .564.054.79.161.225.105.4.262.526.471.125.208.188.466.188.776a1.192 1.192 0 01-.359.8c-.12.123-.278.225-.472.304a1.865 1.865 0 01-.697.117h-.54v-.383zm0 .519v-.379h.54c.317 0 .579.037.786.113.208.075.37.175.489.3.12.126.205.264.253.414a1.514 1.514 0 01-.044 1.063c-.078.18-.189.333-.332.458-.141.125-.308.22-.5.284-.19.064-.4.095-.625.095-.216 0-.42-.03-.611-.092a1.577 1.577 0 01-.503-.266 1.254 1.254 0 01-.342-.435 1.362 1.362 0 01-.123-.591h.632c0 .173.038.325.113.455a.8.8 0 00.328.304c.144.071.313.106.506.106.194 0 .36-.033.5-.099a.722.722 0 00.324-.308c.078-.137.116-.309.116-.516a.912.912 0 00-.13-.509.761.761 0 00-.369-.298 1.433 1.433 0 00-.557-.099h-.451zm3.556 1.945c0-.107.033-.197.099-.27.068-.075.166-.113.294-.113.127 0 .224.038.29.113a.38.38 0 01.103.27.376.376 0 01-.103.267c-.066.073-.163.109-.29.109-.128 0-.226-.036-.294-.109a.383.383 0 01-.1-.267zm.003-3.018c0-.107.033-.197.1-.27.067-.075.165-.113.293-.113.128 0 .225.038.29.113a.38.38 0 01.103.27.376.376 0 01-.102.267c-.066.073-.163.109-.29.109-.129 0-.227-.036-.295-.109a.383.383 0 01-.099-.267zm5.514 1.678v.52h-3.596v-.373l2.229-3.449h.516l-.554.999-1.473 2.303h2.878zm-.694-3.302V143h-.632v-4.977h.632zm2.568 2.608l-.506-.129.25-2.479h2.553v.585h-2.017l-.15 1.353c.091-.052.206-.101.345-.146a1.57 1.57 0 01.486-.069c.23 0 .436.04.618.12.183.077.338.189.465.335.13.146.229.321.297.526.069.205.103.434.103.687 0 .239-.033.459-.099.66-.064.2-.161.376-.291.526a1.302 1.302 0 01-.492.345 1.79 1.79 0 01-.694.123c-.2 0-.39-.027-.57-.082a1.465 1.465 0 01-.479-.256 1.389 1.389 0 01-.342-.431 1.745 1.745 0 01-.164-.608h.602c.027.187.082.344.164.472a.807.807 0 00.321.29c.135.064.291.096.468.096a.952.952 0 00.4-.079.793.793 0 00.294-.225c.08-.098.14-.217.181-.356.044-.139.065-.295.065-.468 0-.157-.021-.303-.065-.438a1.015 1.015 0 00-.194-.352.86.86 0 00-.312-.232.995.995 0 00-.423-.085c-.212 0-.373.028-.482.085a1.848 1.848 0 00-.332.232zm32.817-.516v.759c0 .408-.037.752-.11 1.032a1.805 1.805 0 01-.314.677 1.202 1.202 0 01-.496.373 1.767 1.767 0 01-.649.112c-.192 0-.368-.024-.53-.071a1.275 1.275 0 01-.438-.229 1.393 1.393 0 01-.328-.417 2.257 2.257 0 01-.208-.622 4.475 4.475 0 01-.072-.855v-.759c0-.408.037-.749.109-1.025.076-.276.182-.497.318-.663a1.15 1.15 0 01.492-.362c.194-.073.411-.11.65-.11.194 0 .371.024.533.072.164.045.31.12.438.222.127.1.235.235.324.403.091.167.161.371.209.612.048.242.072.525.072.851zm-.636.862v-.968c0-.223-.014-.419-.041-.588a1.86 1.86 0 00-.113-.437.866.866 0 00-.191-.294.68.68 0 00-.264-.164.93.93 0 00-.331-.055.898.898 0 00-.4.086.715.715 0 00-.294.263 1.43 1.43 0 00-.178.475 3.55 3.55 0 00-.061.714v.968c0 .223.012.42.037.591.028.171.068.319.12.444.052.123.116.225.191.304.076.08.162.139.26.178.1.037.211.055.332.055.155 0 .29-.03.406-.089a.727.727 0 00.291-.277c.08-.127.139-.29.178-.489.038-.2.058-.439.058-.717zm5.073-.862v.759c0 .408-.036.752-.109 1.032a1.79 1.79 0 01-.315.677 1.2 1.2 0 01-.495.373 1.772 1.772 0 01-.65.112c-.191 0-.368-.024-.53-.071a1.28 1.28 0 01-.437-.229 1.378 1.378 0 01-.328-.417 2.257 2.257 0 01-.209-.622 4.482 4.482 0 01-.071-.855v-.759c0-.408.036-.749.109-1.025.075-.276.181-.497.318-.663a1.15 1.15 0 01.492-.362c.194-.073.41-.11.649-.11.194 0 .372.024.534.072a1.198 1.198 0 01.762.625c.091.167.16.371.208.612.048.242.072.525.072.851zm-.636.862v-.968c0-.223-.013-.419-.041-.588a1.863 1.863 0 00-.112-.437.867.867 0 00-.192-.294.676.676 0 00-.263-.164.936.936 0 00-.332-.055.894.894 0 00-.399.086.703.703 0 00-.294.263 1.408 1.408 0 00-.178.475 3.543 3.543 0 00-.062.714v.968c0 .223.013.42.038.591a1.9 1.9 0 00.12.444c.052.123.116.225.191.304.075.08.162.139.26.178.1.037.21.055.331.055.155 0 .291-.03.407-.089a.74.74 0 00.291-.277c.079-.127.139-.29.177-.489.039-.2.058-.439.058-.717zm1.991 1.688c0-.107.033-.197.099-.27.068-.075.166-.113.294-.113.127 0 .224.038.29.113a.378.378 0 01.103.27.374.374 0 01-.103.267c-.066.073-.163.109-.29.109-.128 0-.226-.036-.294-.109a.384.384 0 01-.099-.267zm.003-3.018c0-.107.033-.197.099-.27.068-.075.166-.113.294-.113.128 0 .225.038.291.113a.381.381 0 01.102.27.377.377 0 01-.102.267c-.066.073-.163.109-.291.109-.128 0-.226-.036-.294-.109a.384.384 0 01-.099-.267zm5.275.468v.759c0 .408-.037.752-.109 1.032a1.79 1.79 0 01-.315.677 1.202 1.202 0 01-.496.373 1.763 1.763 0 01-.649.112c-.191 0-.368-.024-.53-.071a1.27 1.27 0 01-.437-.229 1.378 1.378 0 01-.328-.417 2.257 2.257 0 01-.209-.622 4.475 4.475 0 01-.072-.855v-.759c0-.408.037-.749.11-1.025.075-.276.181-.497.318-.663.136-.169.3-.29.492-.362.193-.073.41-.11.649-.11.194 0 .372.024.533.072.164.045.31.12.438.222.128.1.236.235.325.403.091.167.16.371.208.612.048.242.072.525.072.851zm-.636.862v-.968c0-.223-.014-.419-.041-.588a1.86 1.86 0 00-.113-.437.866.866 0 00-.191-.294.676.676 0 00-.263-.164.936.936 0 00-.332-.055.901.901 0 00-.4.086.715.715 0 00-.294.263 1.43 1.43 0 00-.177.475 3.543 3.543 0 00-.062.714v.968c0 .223.013.42.038.591.027.171.067.319.119.444.053.123.117.225.192.304.075.08.162.139.26.178.1.037.21.055.331.055.155 0 .291-.03.407-.089a.731.731 0 00.29-.277c.08-.127.139-.29.178-.489.039-.2.058-.439.058-.717zm5.073-.862v.759c0 .408-.036.752-.109 1.032a1.805 1.805 0 01-.314.677 1.202 1.202 0 01-.496.373 1.767 1.767 0 01-.649.112c-.192 0-.368-.024-.53-.071a1.275 1.275 0 01-.438-.229 1.393 1.393 0 01-.328-.417 2.257 2.257 0 01-.208-.622 4.475 4.475 0 01-.072-.855v-.759c0-.408.036-.749.109-1.025.075-.276.181-.497.318-.663a1.15 1.15 0 01.492-.362c.194-.073.41-.11.65-.11.193 0 .371.024.533.072a1.198 1.198 0 01.762.625c.091.167.161.371.209.612.047.242.071.525.071.851zm-.635.862v-.968c0-.223-.014-.419-.041-.588a1.86 1.86 0 00-.113-.437.853.853 0 00-.192-.294.669.669 0 00-.263-.164.93.93 0 00-.331-.055.895.895 0 00-.4.086.715.715 0 00-.294.263 1.408 1.408 0 00-.178.475 3.55 3.55 0 00-.061.714v.968c0 .223.012.42.037.591.028.171.067.319.12.444.052.123.116.225.191.304.075.08.162.139.26.178.1.037.211.055.332.055.155 0 .29-.03.406-.089a.734.734 0 00.291-.277c.08-.127.139-.29.178-.489.038-.2.058-.439.058-.717zm31.128-.862v.759c0 .408-.037.752-.11 1.032a1.805 1.805 0 01-.314.677 1.202 1.202 0 01-.496.373 1.767 1.767 0 01-.649.112c-.192 0-.368-.024-.53-.071a1.275 1.275 0 01-.438-.229 1.393 1.393 0 01-.328-.417 2.257 2.257 0 01-.208-.622 4.475 4.475 0 01-.072-.855v-.759c0-.408.037-.749.109-1.025.076-.276.182-.497.318-.663a1.15 1.15 0 01.492-.362c.194-.073.411-.11.65-.11.194 0 .371.024.533.072.164.045.31.12.438.222.127.1.235.235.324.403.091.167.161.371.209.612.048.242.072.525.072.851zm-.636.862v-.968c0-.223-.014-.419-.041-.588a1.86 1.86 0 00-.113-.437.866.866 0 00-.191-.294.68.68 0 00-.264-.164.93.93 0 00-.331-.055.898.898 0 00-.4.086.715.715 0 00-.294.263 1.43 1.43 0 00-.178.475 3.55 3.55 0 00-.061.714v.968c0 .223.012.42.037.591.028.171.068.319.12.444.052.123.116.225.191.304.076.08.162.139.26.178.1.037.211.055.332.055.155 0 .29-.03.406-.089a.727.727 0 00.291-.277c.08-.127.139-.29.178-.489.038-.2.058-.439.058-.717zm5.073-.862v.759c0 .408-.036.752-.109 1.032a1.79 1.79 0 01-.315.677 1.2 1.2 0 01-.495.373 1.772 1.772 0 01-.65.112c-.191 0-.368-.024-.53-.071a1.28 1.28 0 01-.437-.229 1.378 1.378 0 01-.328-.417 2.257 2.257 0 01-.209-.622 4.482 4.482 0 01-.071-.855v-.759c0-.408.036-.749.109-1.025.075-.276.181-.497.318-.663a1.15 1.15 0 01.492-.362c.194-.073.41-.11.649-.11.194 0 .372.024.534.072a1.198 1.198 0 01.762.625c.091.167.16.371.208.612.048.242.072.525.072.851zm-.636.862v-.968c0-.223-.013-.419-.041-.588a1.863 1.863 0 00-.112-.437.867.867 0 00-.192-.294.676.676 0 00-.263-.164.936.936 0 00-.332-.055.894.894 0 00-.399.086.703.703 0 00-.294.263 1.408 1.408 0 00-.178.475 3.543 3.543 0 00-.062.714v.968c0 .223.013.42.038.591a1.9 1.9 0 00.12.444c.052.123.116.225.191.304.075.08.162.139.26.178.1.037.21.055.331.055.155 0 .291-.03.407-.089a.74.74 0 00.291-.277c.079-.127.139-.29.177-.489.039-.2.058-.439.058-.717zm1.991 1.688c0-.107.033-.197.099-.27.068-.075.166-.113.294-.113.127 0 .224.038.29.113a.378.378 0 01.103.27.374.374 0 01-.103.267c-.066.073-.163.109-.29.109-.128 0-.226-.036-.294-.109a.384.384 0 01-.099-.267zm.003-3.018c0-.107.033-.197.099-.27.068-.075.166-.113.294-.113.128 0 .225.038.291.113a.381.381 0 01.102.27.377.377 0 01-.102.267c-.066.073-.163.109-.291.109-.128 0-.226-.036-.294-.109a.384.384 0 01-.099-.267zm4.229-1.651V143h-.632v-4.214l-1.275.465v-.571l1.808-.684h.099zm3.159 2.635l-.506-.129.25-2.479h2.553v.585h-2.017l-.15 1.353c.091-.052.206-.101.345-.146a1.57 1.57 0 01.486-.069c.23 0 .436.04.618.12.183.077.338.189.465.335.13.146.229.321.297.526.069.205.103.434.103.687 0 .239-.033.459-.099.66-.064.2-.161.376-.291.526a1.302 1.302 0 01-.492.345 1.79 1.79 0 01-.694.123c-.2 0-.39-.027-.57-.082a1.465 1.465 0 01-.479-.256 1.389 1.389 0 01-.342-.431 1.745 1.745 0 01-.164-.608h.602c.027.187.082.344.164.472a.807.807 0 00.321.29c.135.064.291.096.468.096a.952.952 0 00.4-.079.793.793 0 00.294-.225c.08-.098.14-.217.181-.356.044-.139.065-.295.065-.468 0-.157-.021-.303-.065-.438a1.015 1.015 0 00-.194-.352.86.86 0 00-.312-.232.995.995 0 00-.423-.085c-.212 0-.373.028-.482.085a1.848 1.848 0 00-.332.232zM22.15 24.555V25h-2.793v-.39l1.398-1.555c.172-.192.305-.354.398-.487.096-.134.162-.255.2-.36a.953.953 0 00.058-.328c0-.14-.03-.268-.088-.38a.659.659 0 00-.252-.276.758.758 0 00-.404-.103.928.928 0 00-.475.112.685.685 0 00-.28.304 1.028 1.028 0 00-.095.451h-.542c0-.24.053-.46.159-.659.105-.2.261-.357.468-.474.207-.12.462-.18.765-.18.27 0 .5.049.691.144.192.094.338.227.44.399.103.17.155.369.155.598 0 .125-.021.251-.064.38a1.933 1.933 0 01-.173.381 2.94 2.94 0 01-.255.375 5.794 5.794 0 01-.308.363l-1.142 1.24h2.138zm1.765-1.585l-.434-.111.214-2.125h2.189v.501h-1.729l-.129 1.16c.079-.044.177-.086.296-.125.121-.04.26-.059.416-.059.198 0 .374.034.53.103.157.066.29.162.399.287.111.125.196.275.255.45.058.177.088.373.088.59 0 .205-.029.393-.085.565a1.272 1.272 0 01-.25.451 1.121 1.121 0 01-.421.296c-.168.07-.366.106-.595.106-.172 0-.335-.024-.49-.07a1.258 1.258 0 01-.41-.22 1.19 1.19 0 01-.292-.37 1.482 1.482 0 01-.14-.521h.515c.023.16.07.295.14.404.07.11.163.193.276.25a.926.926 0 00.401.081.827.827 0 00.343-.067c.1-.045.184-.11.252-.193a.863.863 0 00.155-.305 1.354 1.354 0 000-.776.858.858 0 00-.167-.302.73.73 0 00-.266-.2.855.855 0 00-.364-.073c-.181 0-.319.025-.413.074a1.579 1.579 0 00-.284.199zm3.257 1.743c0-.092.028-.169.085-.232.058-.064.142-.096.252-.096.11 0 .192.032.249.096a.33.33 0 01.088.232c0 .09-.03.166-.088.229-.057.062-.14.093-.25.093-.109 0-.193-.031-.251-.093a.328.328 0 01-.085-.229zm2.805-2.112h.387c.19 0 .346-.032.469-.094a.645.645 0 00.278-.26.753.753 0 00.094-.376.932.932 0 00-.082-.413.549.549 0 00-.246-.252.902.902 0 00-.416-.085.868.868 0 00-.404.091.665.665 0 00-.273.252.748.748 0 00-.096.387h-.543c0-.217.055-.414.165-.592.109-.178.262-.32.46-.425a1.46 1.46 0 01.69-.158c.259 0 .484.046.678.138.193.09.343.224.45.404.108.178.162.4.162.665a1.02 1.02 0 01-.308.686 1.195 1.195 0 01-.404.26c-.166.067-.365.1-.598.1h-.463V22.6zm0 .445v-.325h.463c.272 0 .496.032.674.096.178.065.318.15.42.258a.903.903 0 01.216.355 1.297 1.297 0 01-.038.911 1.08 1.08 0 01-.284.393 1.215 1.215 0 01-.428.243 1.686 1.686 0 01-.536.082 1.69 1.69 0 01-.524-.08 1.359 1.359 0 01-.431-.228 1.069 1.069 0 01-.293-.372 1.17 1.17 0 01-.106-.507h.542c0 .149.033.279.097.39a.68.68 0 00.281.26.97.97 0 00.434.091.989.989 0 00.428-.085.616.616 0 00.278-.263.888.888 0 00.1-.443.783.783 0 00-.112-.436.653.653 0 00-.316-.255 1.228 1.228 0 00-.478-.085h-.387zM22.15 59.783v.445h-2.793v-.39l1.398-1.555c.172-.191.305-.354.398-.486.096-.135.162-.255.2-.36a.952.952 0 00.058-.329c0-.14-.03-.267-.088-.38a.659.659 0 00-.252-.276.759.759 0 00-.404-.103.928.928 0 00-.475.112.686.686 0 00-.28.304 1.032 1.032 0 00-.095.452h-.542c0-.24.053-.46.159-.66a1.16 1.16 0 01.468-.474c.207-.12.462-.179.765-.179.27 0 .5.048.691.144.192.093.338.226.44.398.103.17.155.37.155.598 0 .125-.021.252-.064.38a1.936 1.936 0 01-.173.382 2.954 2.954 0 01-.255.375 5.822 5.822 0 01-.308.363l-1.142 1.239h2.138zm1.765-1.585l-.434-.111.214-2.124h2.189v.5h-1.729l-.129 1.16c.079-.044.177-.086.296-.125.121-.04.26-.059.416-.059.198 0 .374.034.53.103.157.066.29.162.399.287.111.125.196.275.255.451.058.176.088.372.088.589a1.8 1.8 0 01-.085.565 1.272 1.272 0 01-.25.452 1.12 1.12 0 01-.421.295c-.168.07-.366.106-.595.106-.172 0-.335-.023-.49-.07a1.26 1.26 0 01-.41-.22 1.204 1.204 0 01-.292-.37 1.48 1.48 0 01-.14-.52h.515c.023.16.07.294.14.404a.69.69 0 00.276.249.928.928 0 00.401.082.827.827 0 00.343-.068c.1-.045.184-.11.252-.193a.863.863 0 00.155-.305 1.35 1.35 0 00.056-.401c0-.135-.019-.26-.056-.375a.86.86 0 00-.167-.302.732.732 0 00-.266-.2.856.856 0 00-.364-.072c-.181 0-.319.024-.413.073a1.579 1.579 0 00-.284.199zm3.257 1.743c0-.092.028-.169.085-.231.058-.065.142-.097.252-.097.11 0 .192.032.249.097.058.062.088.14.088.231 0 .09-.03.166-.088.229-.057.062-.14.093-.25.093-.109 0-.193-.03-.251-.093a.328.328 0 01-.085-.229zm4.81-.158v.445h-2.793v-.39l1.398-1.555c.172-.191.305-.354.398-.486a1.52 1.52 0 00.2-.36.955.955 0 00.058-.329c0-.14-.03-.267-.088-.38a.66.66 0 00-.252-.276.759.759 0 00-.404-.103.928.928 0 00-.475.112.685.685 0 00-.28.304 1.032 1.032 0 00-.095.452h-.542c0-.24.053-.46.159-.66a1.16 1.16 0 01.468-.474c.207-.12.462-.179.765-.179.27 0 .5.048.691.144.192.093.338.226.44.398.103.17.155.37.155.598 0 .125-.021.252-.064.38a1.936 1.936 0 01-.173.382 2.975 2.975 0 01-.255.375 5.856 5.856 0 01-.308.363l-1.142 1.239h2.138zM22.15 95.011v.446h-2.793v-.39l1.398-1.556c.172-.191.305-.353.398-.486.096-.135.162-.255.2-.36a.953.953 0 00.058-.329c0-.14-.03-.267-.088-.38a.658.658 0 00-.252-.276.758.758 0 00-.404-.102.927.927 0 00-.475.111.685.685 0 00-.28.305 1.02 1.02 0 00-.095.45h-.542c0-.24.053-.46.159-.658.105-.2.261-.358.468-.475.207-.12.462-.179.765-.179.27 0 .5.048.691.144.192.094.338.226.44.398.103.17.155.37.155.598 0 .125-.021.252-.064.38a1.934 1.934 0 01-.173.382 2.954 2.954 0 01-.255.375 5.852 5.852 0 01-.308.363l-1.142 1.24h2.138zm1.765-1.585l-.434-.111.214-2.124h2.189v.5h-1.729l-.129 1.161c.079-.045.177-.087.296-.126.121-.039.26-.058.416-.058.198 0 .374.034.53.102.157.066.29.162.399.287.111.125.196.275.255.451.058.176.088.372.088.59a1.8 1.8 0 01-.085.565 1.272 1.272 0 01-.25.45 1.121 1.121 0 01-.421.297 1.54 1.54 0 01-.595.105c-.172 0-.335-.023-.49-.07a1.258 1.258 0 01-.41-.22 1.19 1.19 0 01-.292-.369 1.482 1.482 0 01-.14-.521h.515c.023.16.07.294.14.404a.69.69 0 00.276.249.926.926 0 00.401.082.825.825 0 00.343-.068.665.665 0 00.252-.193.864.864 0 00.155-.305 1.35 1.35 0 00.056-.401c0-.135-.019-.26-.056-.375a.858.858 0 00-.167-.302.73.73 0 00-.266-.199.855.855 0 00-.364-.073c-.181 0-.319.024-.413.073a1.579 1.579 0 00-.284.2zm3.257 1.743c0-.091.028-.168.085-.231.058-.064.142-.097.252-.097.11 0 .192.033.249.097a.33.33 0 01.088.231c0 .09-.03.166-.088.229-.057.062-.14.094-.25.094-.109 0-.193-.032-.251-.094a.328.328 0 01-.085-.229zm3.796-4.001v4.288h-.542v-3.612l-1.093.399v-.49l1.55-.585h.085zm-8.818 39.071v.446h-2.793v-.39l1.398-1.556c.172-.191.305-.353.398-.486.096-.135.162-.255.2-.36a.956.956 0 00.058-.328.815.815 0 00-.088-.381.665.665 0 00-.252-.276.761.761 0 00-.404-.102.93.93 0 00-.475.111.684.684 0 00-.28.305 1.034 1.034 0 00-.095.451h-.542c0-.24.053-.46.159-.659.105-.199.261-.358.468-.475.207-.119.462-.178.765-.178.27 0 .5.047.691.143.192.094.338.227.44.399.103.169.155.369.155.597a1.2 1.2 0 01-.064.381 1.935 1.935 0 01-.173.381 2.94 2.94 0 01-.255.375 5.79 5.79 0 01-.308.363l-1.142 1.239h2.138zm1.765-1.584l-.434-.112.214-2.124h2.189v.501h-1.729l-.129 1.16c.079-.045.177-.087.296-.126.121-.039.26-.058.416-.058.198 0 .374.034.53.102.157.067.29.162.399.287.111.125.196.276.255.452.058.175.088.372.088.588 0 .205-.029.394-.085.566a1.27 1.27 0 01-.25.451 1.117 1.117 0 01-.421.296 1.54 1.54 0 01-.595.105 1.67 1.67 0 01-.49-.07 1.257 1.257 0 01-.41-.22 1.177 1.177 0 01-.292-.369 1.478 1.478 0 01-.14-.521h.515c.023.16.07.295.14.404.07.109.163.192.276.249a.922.922 0 00.401.082.825.825 0 00.343-.067c.1-.045.184-.11.252-.194a.861.861 0 00.155-.304 1.356 1.356 0 000-.777.849.849 0 00-.167-.301.734.734 0 00-.266-.2.853.853 0 00-.364-.073c-.181 0-.319.024-.413.073a1.596 1.596 0 00-.284.2zm3.257 1.743c0-.092.028-.169.085-.232.058-.064.142-.096.252-.096.11 0 .192.032.249.096a.33.33 0 01.088.232.32.32 0 01-.088.228c-.057.063-.14.094-.25.094-.109 0-.193-.031-.251-.094a.326.326 0 01-.085-.228zm4.692-2.186v.651c0 .349-.031.644-.094.884a1.53 1.53 0 01-.269.58 1.028 1.028 0 01-.425.32c-.164.064-.35.096-.556.096a1.6 1.6 0 01-.455-.061 1.093 1.093 0 01-.375-.196 1.19 1.19 0 01-.28-.358 1.91 1.91 0 01-.18-.533 3.84 3.84 0 01-.061-.732v-.651c0-.349.031-.642.094-.879.064-.236.155-.426.272-.568a.993.993 0 01.422-.311c.166-.062.352-.093.557-.093.166 0 .318.02.457.061a1.032 1.032 0 01.653.536c.078.143.138.318.179.525.04.207.061.45.061.729zm-.545.738v-.829c0-.191-.011-.359-.035-.504a1.595 1.595 0 00-.096-.375.753.753 0 00-.165-.252.58.58 0 00-.225-.14.817.817 0 00-.284-.047.767.767 0 00-.343.073.615.615 0 00-.252.226 1.211 1.211 0 00-.152.407 3.036 3.036 0 00-.053.612v.829c0 .192.01.361.032.507.024.147.058.274.103.381a.88.88 0 00.164.261.614.614 0 00.222.152.835.835 0 00.285.047.753.753 0 00.348-.076c.1-.051.183-.13.25-.237.068-.11.118-.249.152-.419a3.31 3.31 0 00.05-.616z" fill="#fff"/><rect x="53" y="27" width=".5" height="102" fill="#373841"/><rect x="99" y="27" width=".5" height="102" fill="#373841"/><rect x="203" y="36" width=".5" height="161" transform="rotate(90 203 36)" fill="#373841"/><rect x="203" y="129" width=".5" height="161" transform="rotate(90 203 129)" fill="#373841"/><rect x="203" y="98" width=".5" height="161" transform="rotate(90 203 98)" fill="#373841"/><rect x="203" y="67" width=".5" height="161" transform="rotate(90 203 67)" fill="#373841"/><rect x="202.75" y="75.25" width=".5" height="160.5" transform="rotate(90 202.75 75.25)" stroke="#4F505C" stroke-width=".5" stroke-dasharray="4 4"/><rect x="94.75" y="128.75" width=".5" height="101.5" transform="rotate(-180 94.75 128.75)" stroke="#4F505C" stroke-width=".5" stroke-dasharray="4 4"/><rect x="145" y="27" width=".5" height="102" fill="#373841"/><rect x="191" y="27" width=".5" height="102" fill="#373841"/><circle cx="94.5" cy="75.5" r="4.5" fill="url(#paint1_linear_119_112)"/><circle cx="94.5" cy="75.5" r="2.5" fill="#fff"/><defs><linearGradient id="paint0_linear_119_112" x1="181.645" y1="107.334" x2="69.005" y2="-48.491" gradientUnits="userSpaceOnUse"><stop stop-color="#882B6B"/><stop offset="1" stop-color="#CF4671"/></linearGradient><linearGradient id="paint1_linear_119_112" x1="98.39" y1="79.607" x2="82.811" y2="70.08" gradientUnits="userSpaceOnUse"><stop stop-color="#882B6B"/><stop offset="1" stop-color="#CF4671"/></linearGradient></defs></svg>