<svg xmlns="http://www.w3.org/2000/svg" width="600" height="400" viewBox="0 0 2400 1600"><defs><clipPath id="clip290"><rect x="0" y="0" width="2400" height="1600"/></clipPath></defs><path clip-path="url(#clip290)" d="M0 1600h2400V0H0z" fill="#282a36" fill-rule="evenodd" fill-opacity="1"/><defs><clipPath id="clip291"><rect x="480" y="0" width="1681" height="1600"/></clipPath></defs><path clip-path="url(#clip290)" d="M277.431 1486.45H1153.9V47.244H277.431z" fill="#30343b" fill-rule="evenodd" fill-opacity="1"/><defs><clipPath id="clip292"><rect x="277" y="47" width="877" height="1440"/></clipPath></defs><polyline clip-path="url(#clip292)" points="302.237,1486.45 302.237,47.2441" stroke="#f8f8f2" stroke-linecap="butt" stroke-linejoin="round" stroke-width="2" stroke-opacity=".1" fill="none"/><polyline clip-path="url(#clip292)" points="689.828,1486.45 689.828,47.2441" stroke="#f8f8f2" stroke-linecap="butt" stroke-linejoin="round" stroke-width="2" stroke-opacity=".1" fill="none"/><polyline clip-path="url(#clip292)" points="1077.42,1486.45 1077.42,47.2441" stroke="#f8f8f2" stroke-linecap="butt" stroke-linejoin="round" stroke-width="2" stroke-opacity=".1" fill="none"/><polyline clip-path="url(#clip290)" points="277.431,1486.45 1153.9,1486.45" stroke="#f8f8f2" stroke-linecap="butt" stroke-linejoin="round" stroke-width="4" stroke-opacity="1" fill="none"/><polyline clip-path="url(#clip290)" points="302.237,1486.45 302.237,1467.55" stroke="#f8f8f2" stroke-linecap="butt" stroke-linejoin="round" stroke-width="4" stroke-opacity="1" fill="none"/><polyline clip-path="url(#clip290)" points="689.828,1486.45 689.828,1467.55" stroke="#f8f8f2" stroke-linecap="butt" stroke-linejoin="round" stroke-width="4" stroke-opacity="1" fill="none"/><polyline clip-path="url(#clip290)" points="1077.42,1486.45 1077.42,1467.55" stroke="#f8f8f2" stroke-linecap="butt" stroke-linejoin="round" stroke-width="4" stroke-opacity="1" fill="none"/><path clip-path="url(#clip290)" d="M174.031 1544.91h16.32v3.94h-21.945v-3.94q2.662-2.75 7.246-7.38 4.606-4.65 5.787-6 2.245-2.52 3.125-4.26.903-1.76.903-3.45 0-2.75-1.945-4.49-1.921-1.73-5.023-1.73-2.199 0-4.653.76-2.43.77-5.208 2.32v-4.73q2.824-1.13 5.278-1.71 2.453-.58 4.49-.58 5.371 0 8.565 2.69 3.195 2.68 3.195 7.17 0 2.13-.811 4.05-.787 1.9-2.893 4.5-.579.67-3.681 3.88-3.101 3.2-8.75 8.96zm40.301-14.7q3.357.72 5.232 2.99 1.898 2.27 1.898 5.6 0 5.12-3.519 7.92-3.518 2.8-10 2.8-2.176 0-4.49-.44-2.292-.42-4.746-1.27v-4.52q1.945 1.14 4.259 1.72 2.315.57 4.838.57 4.398 0 6.69-1.73 2.315-1.74 2.315-5.05 0-3.05-2.153-4.77-2.129-1.73-5.949-1.73h-4.028v-3.85h4.213q3.449 0 5.278-1.36 1.829-1.39 1.829-3.98 0-2.66-1.898-4.08-1.875-1.43-5.394-1.43-1.921 0-4.12.41-2.199.42-4.838 1.3v-4.17q2.662-.74 4.977-1.11 2.338-.37 4.398-.37 5.324 0 8.426 2.43 3.102 2.41 3.102 6.53 0 2.87-1.644 4.86-1.643 1.97-4.676 2.73zm13.241 3.75h12.477v3.8h-12.477v-3.8zm20.671 10.95h7.639v-26.36l-8.31 1.66v-4.26l8.264-1.66h4.675v30.62h7.639v3.94h-19.907v-3.94zm39.352-27.54q-3.611 0-5.44 3.56-1.806 3.54-1.806 10.67 0 7.11 1.806 10.67 1.829 3.55 5.44 3.55 3.634 0 5.439-3.55 1.829-3.56 1.829-10.67 0-7.13-1.829-10.67-1.805-3.56-5.439-3.56m0-3.71q5.81 0 8.865 4.61 3.079 4.58 3.079 13.33 0 8.73-3.079 13.34-3.055 4.58-8.865 4.58-5.811 0-8.889-4.58-3.056-4.61-3.056-13.34 0-8.75 3.056-13.33 3.078-4.61 8.889-4.61zm17.407 20.3h12.477v3.8h-12.477v-3.8zm23.889 10.95h16.319v3.94h-21.944v-3.94q2.662-2.75 7.245-7.38 4.607-4.65 5.787-6 2.245-2.52 3.125-4.26.903-1.76.903-3.45 0-2.75-1.945-4.49-1.921-1.73-5.023-1.73-2.199 0-4.652.76-2.431.77-5.209 2.32v-4.73q2.824-1.13 5.278-1.71 2.454-.58 4.491-.58 5.37 0 8.564 2.69 3.195 2.68 3.195 7.17 0 2.13-.81 4.05-.787 1.9-2.894 4.5-.579.67-3.68 3.88-3.102 3.2-8.75 8.96zm36.134-27.54q-3.611 0-5.44 3.56-1.806 3.54-1.806 10.67 0 7.11 1.806 10.67 1.829 3.55 5.44 3.55 3.634 0 5.44-3.55 1.828-3.56 1.828-10.67 0-7.13-1.828-10.67-1.806-3.56-5.44-3.56m0-3.71q5.81 0 8.865 4.61 3.079 4.58 3.079 13.33 0 8.73-3.079 13.34-3.055 4.58-8.865 4.58-5.81 0-8.889-4.58-3.056-4.61-3.056-13.34 0-8.75 3.056-13.33 3.079-4.61 8.889-4.61zm24.189 31.25h16.32v3.94H383.59v-3.94q2.662-2.75 7.246-7.38 4.606-4.65 5.787-6 2.245-2.52 3.125-4.26.903-1.76.903-3.45 0-2.75-1.945-4.49-1.921-1.73-5.023-1.73-2.199 0-4.653.76-2.43.77-5.208 2.32v-4.73q2.824-1.13 5.278-1.71 2.453-.58 4.49-.58 5.371 0 8.565 2.69 3.195 2.68 3.195 7.17 0 2.13-.811 4.05-.787 1.9-2.893 4.5-.579.67-3.681 3.88-3.101 3.2-8.75 8.96zm26.945 0h7.639v-26.36l-8.311 1.66v-4.26l8.264-1.66h4.676v30.62h7.639v3.94H416.16v-3.94zm145.462 0h16.32v3.94h-21.945v-3.94q2.662-2.75 7.246-7.38 4.606-4.65 5.787-6 2.245-2.52 3.125-4.26.902-1.76.902-3.45 0-2.75-1.944-4.49-1.921-1.73-5.023-1.73-2.199 0-4.653.76-2.43.77-5.208 2.32v-4.73q2.824-1.13 5.278-1.71 2.453-.58 4.49-.58 5.371 0 8.565 2.69 3.194 2.68 3.194 7.17 0 2.13-.81 4.05-.787 1.9-2.893 4.5-.579.67-3.681 3.88-3.102 3.2-8.75 8.96zm30.162 0h16.32v3.94h-21.945v-3.94q2.662-2.75 7.246-7.38 4.606-4.65 5.787-6 2.245-2.52 3.125-4.26.902-1.76.902-3.45 0-2.75-1.944-4.49-1.921-1.73-5.023-1.73-2.199 0-4.653.76-2.431.77-5.208 2.32v-4.73q2.824-1.13 5.277-1.71 2.454-.58 4.491-.58 5.371 0 8.565 2.69 3.194 2.68 3.194 7.17 0 2.13-.81 4.05-.787 1.9-2.893 4.5-.579.67-3.681 3.88-3.102 3.2-8.75 8.96zm23.38-10.95h12.476v3.8h-12.476v-3.8zm20.671 10.95h7.639v-26.36l-8.31 1.66v-4.26l8.263-1.66h4.676v30.62h7.639v3.94h-19.907v-3.94zm33.379 0h16.32v3.94h-21.945v-3.94q2.662-2.75 7.246-7.38 4.606-4.65 5.787-6 2.245-2.52 3.125-4.26.902-1.76.902-3.45 0-2.75-1.944-4.49-1.921-1.73-5.023-1.73-2.199 0-4.653.76-2.43.77-5.208 2.32v-4.73q2.824-1.13 5.278-1.71 2.453-.58 4.49-.58 5.371 0 8.565 2.69 3.195 2.68 3.195 7.17 0 2.13-.811 4.05-.787 1.9-2.893 4.5-.579.67-3.681 3.88-3.102 3.2-8.75 8.96zm23.38-10.95h12.477v3.8h-12.477v-3.8zm23.889 10.95h16.319v3.94h-21.944v-3.94q2.662-2.75 7.245-7.38 4.606-4.65 5.787-6 2.245-2.52 3.125-4.26.903-1.76.903-3.45 0-2.75-1.945-4.49-1.921-1.73-5.023-1.73-2.199 0-4.653.76-2.43.77-5.208 2.32v-4.73q2.824-1.13 5.278-1.71 2.454-.58 4.491-.58 5.37 0 8.564 2.69 3.195 2.68 3.195 7.17 0 2.13-.81 4.05-.787 1.9-2.894 4.5-.579.67-3.68 3.88-3.102 3.2-8.75 8.96zm36.134-27.54q-3.611 0-5.44 3.56-1.806 3.54-1.806 10.67 0 7.11 1.806 10.67 1.829 3.55 5.44 3.55 3.634 0 5.439-3.55 1.829-3.56 1.829-10.67 0-7.13-1.829-10.67-1.805-3.56-5.439-3.56m0-3.71q5.81 0 8.865 4.61 3.079 4.58 3.079 13.33 0 8.73-3.079 13.34-3.055 4.58-8.865 4.58-5.81 0-8.889-4.58-3.056-4.61-3.056-13.34 0-8.75 3.056-13.33 3.079-4.61 8.889-4.61zm24.189 31.25h16.32v3.94h-21.945v-3.94q2.662-2.75 7.246-7.38 4.606-4.65 5.787-6 2.245-2.52 3.125-4.26.902-1.76.902-3.45 0-2.75-1.944-4.49-1.921-1.73-5.023-1.73-2.199 0-4.653.76-2.43.77-5.208 2.32v-4.73q2.824-1.13 5.278-1.71 2.453-.58 4.49-.58 5.371 0 8.565 2.69 3.195 2.68 3.195 7.17 0 2.13-.811 4.05-.787 1.9-2.893 4.5-.579.67-3.681 3.88-3.102 3.2-8.75 8.96zm26.945 0h7.639v-26.36l-8.311 1.66v-4.26l8.264-1.66h4.676v30.62h7.639v3.94h-19.907v-3.94zm145.647 0h16.32v3.94h-21.945v-3.94q2.662-2.75 7.246-7.38 4.606-4.65 5.787-6 2.245-2.52 3.125-4.26.903-1.76.903-3.45 0-2.75-1.945-4.49-1.921-1.73-5.023-1.73-2.199 0-4.653.76-2.43.77-5.208 2.32v-4.73q2.824-1.13 5.278-1.71 2.453-.58 4.49-.58 5.371 0 8.565 2.69 3.195 2.68 3.195 7.17 0 2.13-.811 4.05-.787 1.9-2.893 4.5-.579.67-3.681 3.88-3.101 3.2-8.75 8.96zm36.134-27.54q-3.611 0-5.439 3.56-1.806 3.54-1.806 10.67 0 7.11 1.806 10.67 1.828 3.55 5.439 3.55 3.635 0 5.44-3.55 1.829-3.56 1.829-10.67 0-7.13-1.829-10.67-1.805-3.56-5.44-3.56m0-3.71q5.811 0 8.866 4.61 3.079 4.58 3.079 13.33 0 8.73-3.079 13.34-3.055 4.58-8.866 4.58-5.81 0-8.888-4.58-3.056-4.61-3.056-13.34 0-8.75 3.056-13.33 3.078-4.61 8.888-4.61zm17.408 20.3h12.48v3.8h-12.48v-3.8zm29.86-16.59q-3.61 0-5.44 3.56-1.8 3.54-1.8 10.67 0 7.11 1.8 10.67 1.83 3.55 5.44 3.55 3.63 0 5.44-3.55 1.83-3.56 1.83-10.67 0-7.13-1.83-10.67-1.81-3.56-5.44-3.56m0-3.71q5.81 0 8.87 4.61 3.08 4.58 3.08 13.33 0 8.73-3.08 13.34-3.06 4.58-8.87 4.58-5.81 0-8.89-4.58-3.05-4.61-3.05-13.34 0-8.75 3.05-13.33 3.08-4.61 8.89-4.61zm24.19 31.25h16.32v3.94h-21.94v-3.94q2.66-2.75 7.24-7.38 4.61-4.65 5.79-6 2.24-2.52 3.12-4.26.91-1.76.91-3.45 0-2.75-1.95-4.49-1.92-1.73-5.02-1.73-2.2 0-4.65.76-2.44.77-5.21 2.32v-4.73q2.82-1.13 5.27-1.71 2.46-.58 4.5-.58 5.37 0 8.56 2.69 3.19 2.68 3.19 7.17 0 2.13-.81 4.05-.78 1.9-2.89 4.5-.58.67-3.68 3.88-3.1 3.2-8.75 8.96zm23.38-10.95h12.48v3.8h-12.48v-3.8zm23.89 10.95h16.32v3.94h-21.95v-3.94q2.67-2.75 7.25-7.38 4.61-4.65 5.79-6 2.24-2.52 3.12-4.26.9-1.76.9-3.45 0-2.75-1.94-4.49-1.92-1.73-5.02-1.73-2.2 0-4.66.76-2.43.77-5.2 2.32v-4.73q2.82-1.13 5.27-1.71 2.46-.58 4.49-.58 5.37 0 8.57 2.69 3.19 2.68 3.19 7.17 0 2.13-.81 4.05-.78 1.9-2.89 4.5-.58.67-3.68 3.88-3.1 3.2-8.75 8.96zm36.13-27.54q-3.61 0-5.44 3.56-1.8 3.54-1.8 10.67 0 7.11 1.8 10.67 1.83 3.55 5.44 3.55 3.64 0 5.44-3.55 1.83-3.56 1.83-10.67 0-7.13-1.83-10.67-1.8-3.56-5.44-3.56m0-3.71q5.81 0 8.87 4.61 3.08 4.58 3.08 13.33 0 8.73-3.08 13.34-3.06 4.58-8.87 4.58-5.81 0-8.89-4.58-3.05-4.61-3.05-13.34 0-8.75 3.05-13.33 3.08-4.61 8.89-4.61zm24.19 31.25h16.32v3.94h-21.94v-3.94q2.66-2.75 7.24-7.38 4.61-4.65 5.79-6 2.25-2.52 3.12-4.26.91-1.76.91-3.45 0-2.75-1.95-4.49-1.92-1.73-5.02-1.73-2.2 0-4.65.76-2.43.77-5.21 2.32v-4.73q2.82-1.13 5.28-1.71 2.45-.58 4.49-.58 5.37 0 8.56 2.69 3.2 2.68 3.2 7.17 0 2.13-.81 4.05-.79 1.9-2.9 4.5-.58.67-3.68 3.88-3.1 3.2-8.75 8.96zm30.16 0h16.32v3.94h-21.94v-3.94q2.66-2.75 7.24-7.38 4.61-4.65 5.79-6 2.25-2.52 3.13-4.26.9-1.76.9-3.45 0-2.75-1.94-4.49-1.93-1.73-5.03-1.73-2.2 0-4.65.76-2.43.77-5.21 2.32v-4.73q2.82-1.13 5.28-1.71 2.45-.58 4.49-.58 5.37 0 8.56 2.69 3.2 2.68 3.2 7.17 0 2.13-.81 4.05-.79 1.9-2.9 4.5-.57.67-3.68 3.88-3.1 3.2-8.75 8.96z" fill="#f8f8f2" fill-rule="evenodd" fill-opacity="1"/><polyline clip-path="url(#clip292)" points="277.431,1281.05 1153.9,1281.05" stroke="#f8f8f2" stroke-linecap="butt" stroke-linejoin="round" stroke-width="2" stroke-opacity=".1" fill="none"/><polyline clip-path="url(#clip292)" points="277.431,984.158 1153.9,984.158" stroke="#f8f8f2" stroke-linecap="butt" stroke-linejoin="round" stroke-width="2" stroke-opacity=".1" fill="none"/><polyline clip-path="url(#clip292)" points="277.431,687.263 1153.9,687.263" stroke="#f8f8f2" stroke-linecap="butt" stroke-linejoin="round" stroke-width="2" stroke-opacity=".1" fill="none"/><polyline clip-path="url(#clip292)" points="277.431,390.368 1153.9,390.368" stroke="#f8f8f2" stroke-linecap="butt" stroke-linejoin="round" stroke-width="2" stroke-opacity=".1" fill="none"/><polyline clip-path="url(#clip292)" points="277.431,93.472 1153.9,93.472" stroke="#f8f8f2" stroke-linecap="butt" stroke-linejoin="round" stroke-width="2" stroke-opacity=".1" fill="none"/><polyline clip-path="url(#clip290)" points="277.431,1486.45 277.431,47.2441" stroke="#f8f8f2" stroke-linecap="butt" stroke-linejoin="round" stroke-width="4" stroke-opacity="1" fill="none"/><polyline clip-path="url(#clip290)" points="277.431,1281.05 296.329,1281.05" stroke="#f8f8f2" stroke-linecap="butt" stroke-linejoin="round" stroke-width="4" stroke-opacity="1" fill="none"/><polyline clip-path="url(#clip290)" points="277.431,984.158 296.329,984.158" stroke="#f8f8f2" stroke-linecap="butt" stroke-linejoin="round" stroke-width="4" stroke-opacity="1" fill="none"/><polyline clip-path="url(#clip290)" points="277.431,687.263 296.329,687.263" stroke="#f8f8f2" stroke-linecap="butt" stroke-linejoin="round" stroke-width="4" stroke-opacity="1" fill="none"/><polyline clip-path="url(#clip290)" points="277.431,390.368 296.329,390.368" stroke="#f8f8f2" stroke-linecap="butt" stroke-linejoin="round" stroke-width="4" stroke-opacity="1" fill="none"/><polyline clip-path="url(#clip290)" points="277.431,93.472 296.329,93.472" stroke="#f8f8f2" stroke-linecap="butt" stroke-linejoin="round" stroke-width="4" stroke-opacity="1" fill="none"/><path clip-path="url(#clip290)" d="M54.557 1300.85h7.639v-26.37l-8.31 1.67v-4.26l8.264-1.67h4.675v30.63h7.64v3.93H54.556v-3.93zm29.352-1.95h4.884v5.88h-4.884v-5.88zm25.069-25.6q-3.611 0-5.44 3.56-1.805 3.55-1.805 10.68 0 7.1 1.805 10.67 1.829 3.54 5.44 3.54 3.634 0 5.44-3.54 1.828-3.57 1.828-10.67 0-7.13-1.828-10.68-1.806-3.56-5.44-3.56m0-3.7q5.81 0 8.866 4.6 3.078 4.59 3.078 13.34 0 8.72-3.078 13.33-3.056 4.58-8.866 4.58t-8.889-4.58q-3.055-4.61-3.055-13.33 0-8.75 3.055-13.34 3.079-4.6 8.889-4.6zm48.333 9.72l-10.579 10.62 10.579 10.58-2.755 2.8-10.625-10.62-10.625 10.62-2.731-2.8 10.556-10.58-10.556-10.62 2.731-2.8 10.625 10.62 10.625-10.62 2.755 2.8zm12.361 21.53h7.639v-26.37l-8.31 1.67v-4.26l8.264-1.67h4.675v30.63h7.639v3.93h-19.907v-3.93zm39.352-27.55q-3.611 0-5.44 3.56-1.806 3.55-1.806 10.68 0 7.1 1.806 10.67 1.829 3.54 5.44 3.54 3.634 0 5.439-3.54 1.829-3.57 1.829-10.67 0-7.13-1.829-10.68-1.805-3.56-5.439-3.56m0-3.7q5.81 0 8.865 4.6 3.079 4.59 3.079 13.34 0 8.72-3.079 13.33-3.055 4.58-8.865 4.58-5.81 0-8.889-4.58-3.056-4.61-3.056-13.33 0-8.75 3.056-13.34 3.079-4.6 8.889-4.6zm24.621-17l-9.592 14.99h9.592v-14.99m-.997-3.31h4.777v18.3h4.006v3.16h-4.006v6.62h-3.78v-6.62h-12.677v-3.67l11.68-17.79zM57.775 1003.95h16.319v3.94H52.15v-3.94q2.662-2.75 7.245-7.383 4.606-4.653 5.787-5.996 2.245-2.523 3.125-4.259.903-1.759.903-3.449 0-2.755-1.945-4.491-1.921-1.736-5.023-1.736-2.199 0-4.653.764-2.43.764-5.208 2.315v-4.722q2.824-1.135 5.278-1.713 2.453-.579 4.49-.579 5.37 0 8.565 2.685 3.195 2.685 3.195 7.176 0 2.13-.81 4.051-.788 1.898-2.894 4.491-.579.671-3.68 3.889-3.102 3.194-8.75 8.957zm26.134-1.94h4.884v5.88h-4.884v-5.88zm25.069-25.605q-3.611 0-5.44 3.565-1.805 3.541-1.805 10.671 0 7.106 1.805 10.669 1.829 3.54 5.44 3.54 3.634 0 5.44-3.54 1.828-3.563 1.828-10.669 0-7.13-1.828-10.671-1.806-3.565-5.44-3.565m0-3.704q5.81 0 8.866 4.607 3.078 4.583 3.078 13.333 0 8.727-3.078 13.329-3.056 4.59-8.866 4.59t-8.889-4.59q-3.055-4.602-3.055-13.329 0-8.75 3.055-13.333 3.079-4.607 8.889-4.607zm48.333 9.722l-10.579 10.625 10.579 10.582-2.755 2.8-10.625-10.627-10.625 10.627-2.731-2.8 10.556-10.582-10.556-10.625 2.731-2.801 10.625 10.625 10.625-10.625 2.755 2.801zm12.361 21.527h7.639v-26.365l-8.31 1.667v-4.259l8.264-1.667h4.675v30.624h7.639v3.94h-19.907v-3.94zm39.352-27.545q-3.611 0-5.44 3.565-1.806 3.541-1.806 10.671 0 7.106 1.806 10.669 1.829 3.54 5.44 3.54 3.634 0 5.439-3.54 1.829-3.563 1.829-10.669 0-7.13-1.829-10.671-1.805-3.565-5.439-3.565m0-3.704q5.81 0 8.865 4.607 3.079 4.583 3.079 13.333 0 8.727-3.079 13.329-3.055 4.59-8.865 4.59-5.81 0-8.889-4.59-3.056-4.602-3.056-13.329 0-8.75 3.056-13.333 3.079-4.607 8.889-4.607zm24.621-16.995l-9.592 14.99h9.592v-14.99m-.997-3.31h4.777v18.3h4.006v3.159h-4.006v6.621h-3.78v-6.621h-12.677v-3.667l11.68-17.792zM67.913 692.356q3.357.718 5.232 2.987 1.898 2.268 1.898 5.601 0 5.116-3.519 7.917-3.518 2.801-10 2.801-2.175 0-4.49-.44-2.292-.417-4.746-1.273v-4.514q1.945 1.134 4.26 1.713 2.314.579 4.838.579 4.398 0 6.69-1.736 2.314-1.736 2.314-5.047 0-3.055-2.153-4.768-2.13-1.736-5.949-1.736h-4.027v-3.843h4.212q3.45 0 5.278-1.366 1.829-1.388 1.829-3.981 0-2.662-1.898-4.074-1.875-1.435-5.394-1.435-1.92 0-4.12.416-2.199.417-4.838 1.297v-4.167q2.662-.741 4.977-1.111 2.338-.37 4.398-.37 5.324 0 8.426 2.43 3.102 2.408 3.102 6.528 0 2.87-1.644 4.861-1.643 1.968-4.676 2.731zm15.996 12.755h4.884v5.88h-4.884v-5.88zm25.069-25.602q-3.611 0-5.44 3.565-1.805 3.542-1.805 10.671 0 7.107 1.805 10.672 1.829 3.541 5.44 3.541 3.634 0 5.44-3.541 1.828-3.565 1.828-10.672 0-7.129-1.828-10.671-1.806-3.565-5.44-3.565m0-3.703q5.81 0 8.866 4.606 3.078 4.583 3.078 13.333 0 8.727-3.078 13.334-3.056 4.583-8.866 4.583t-8.889-4.583q-3.055-4.607-3.055-13.334 0-8.75 3.055-13.333 3.079-4.606 8.889-4.606zm48.333 9.722l-10.579 10.625 10.579 10.578-2.755 2.801-10.625-10.625-10.625 10.625-2.731-2.801 10.556-10.578-10.556-10.625 2.731-2.801 10.625 10.625 10.625-10.625 2.755 2.801zm12.361 21.527h7.639V680.69l-8.31 1.666v-4.259l8.264-1.666h4.675v30.624h7.639v3.936h-19.907v-3.936zm39.352-27.546q-3.611 0-5.44 3.565-1.806 3.542-1.806 10.671 0 7.107 1.806 10.672 1.829 3.541 5.44 3.541 3.634 0 5.439-3.541 1.829-3.565 1.829-10.672 0-7.129-1.829-10.671-1.805-3.565-5.439-3.565m0-3.703q5.81 0 8.865 4.606 3.079 4.583 3.079 13.333 0 8.727-3.079 13.334-3.055 4.583-8.865 4.583-5.81 0-8.889-4.583-3.056-4.607-3.056-13.334 0-8.75 3.056-13.333 3.079-4.606 8.889-4.606zm24.621-16.996l-9.592 14.99h9.592v-14.99m-.997-3.31h4.777v18.3h4.006v3.16h-4.006v6.62h-3.78v-6.62h-12.677v-3.668l11.68-17.792zM66.594 383.609l-11.806 18.449h11.806v-18.449m-1.227-4.074h5.88v22.523h4.93v3.889h-4.93v8.148h-4.653v-8.148H50.992v-4.514l14.375-21.898zm18.542 28.681h4.884v5.879h-4.884v-5.879zm25.069-25.602q-3.611 0-5.44 3.565-1.805 3.541-1.805 10.671 0 7.106 1.805 10.671 1.829 3.542 5.44 3.542 3.634 0 5.44-3.542 1.828-3.565 1.828-10.671 0-7.13-1.828-10.671-1.806-3.565-5.44-3.565m0-3.704q5.81 0 8.866 4.607 3.078 4.583 3.078 13.333 0 8.727-3.078 13.333-3.056 4.583-8.866 4.583t-8.889-4.583q-3.055-4.606-3.055-13.333 0-8.75 3.055-13.333 3.079-4.607 8.889-4.607zm48.333 9.722l-10.579 10.625 10.579 10.579-2.755 2.801-10.625-10.625-10.625 10.625-2.731-2.801 10.556-10.579-10.556-10.625 2.731-2.801 10.625 10.625 10.625-10.625 2.755 2.801zm12.361 21.528h7.639v-26.366l-8.31 1.667v-4.259l8.264-1.667h4.675v30.625h7.639v3.935h-19.907v-3.935zm39.352-27.546q-3.611 0-5.44 3.565-1.806 3.541-1.806 10.671 0 7.106 1.806 10.671 1.829 3.542 5.44 3.542 3.634 0 5.439-3.542 1.829-3.565 1.829-10.671 0-7.13-1.829-10.671-1.805-3.565-5.439-3.565m0-3.704q5.81 0 8.865 4.607 3.079 4.583 3.079 13.333 0 8.727-3.079 13.333-3.055 4.583-8.865 4.583-5.81 0-8.889-4.583-3.056-4.606-3.056-13.333 0-8.75 3.056-13.333 3.079-4.607 8.889-4.607zm24.621-16.995l-9.592 14.99h9.592v-14.99m-.997-3.31h4.777v18.3h4.006v3.159h-4.006v6.621h-3.78v-6.621h-12.677v-3.667l11.68-17.792zM53.793 82.64h18.356v3.935H58.075v8.472q1.019-.347 2.037-.51 1.019-.184 2.038-.184 5.786 0 9.166 3.17 3.38 3.172 3.38 8.589 0 5.578-3.472 8.68-3.473 3.079-9.792 3.079-2.176 0-4.445-.37-2.245-.371-4.652-1.112v-4.699q2.083 1.135 4.305 1.69 2.222.556 4.7.556 4.004 0 6.342-2.107 2.338-2.106 2.338-5.717 0-3.611-2.338-5.718-2.338-2.106-6.343-2.106-1.875 0-3.75.416-1.852.417-3.796 1.297V82.64zm30.116 28.68h4.884v5.88h-4.884v-5.88zm25.069-25.602q-3.611 0-5.44 3.565-1.805 3.542-1.805 10.671 0 7.107 1.805 10.672 1.829 3.541 5.44 3.541 3.634 0 5.44-3.541 1.828-3.565 1.828-10.672 0-7.13-1.828-10.67-1.806-3.566-5.44-3.566m0-3.703q5.81 0 8.866 4.606 3.078 4.583 3.078 13.333 0 8.727-3.078 13.334-3.056 4.583-8.866 4.583t-8.889-4.583q-3.055-4.607-3.055-13.334 0-8.75 3.055-13.333 3.079-4.606 8.889-4.606zm48.333 9.722l-10.579 10.625 10.579 10.578-2.755 2.801-10.625-10.625-10.625 10.625-2.731-2.801 10.556-10.578-10.556-10.625 2.731-2.801 10.625 10.625 10.625-10.625 2.755 2.8zm12.361 21.527h7.639V86.899l-8.31 1.666v-4.259l8.264-1.666h4.675v30.624h7.639v3.936h-19.907v-3.936zm39.352-27.546q-3.611 0-5.44 3.565-1.806 3.542-1.806 10.671 0 7.107 1.806 10.672 1.829 3.541 5.44 3.541 3.634 0 5.439-3.541 1.829-3.565 1.829-10.672 0-7.13-1.829-10.67-1.805-3.566-5.439-3.566m0-3.703q5.81 0 8.865 4.606 3.079 4.583 3.079 13.333 0 8.727-3.079 13.334-3.055 4.583-8.865 4.583-5.81 0-8.889-4.583-3.056-4.607-3.056-13.334 0-8.75 3.056-13.333 3.079-4.606 8.889-4.606zm24.621-16.995l-9.592 14.99h9.592V65.02m-.997-3.31h4.777v18.3h4.006v3.159h-4.006v6.62h-3.78v-6.62h-12.677V79.5l11.68-17.792z" fill="#f8f8f2" fill-rule="evenodd" fill-opacity="1"/><polyline clip-path="url(#clip292)" points="302.237,1378.38 308.697,1327.94 315.156,1276.1 321.616,1277.43 328.076,1151.51 334.536,1105.62 340.996,1142.55 347.456,1388.03 353.916,1362.4 360.375,1266.71 366.835,1216.71 373.295,1269.75 379.755,1385.77 386.215,1365.36 392.675,1395.66 399.134,1417.37 405.594,1085.78 412.054,1142.16 418.514,1059.94 424.974,1306.44 431.434,1189.73 437.894,1402.47 444.353,1394.03 450.813,1271.43 457.273,935.18 463.733,1001.75 470.193,917.797 476.653,1065.19 483.113,1357.11 489.572,1369.27 496.032,1170.31 502.492,1179.01 508.952,1210.94 515.412,1265.39 521.872,882.547 528.331,1344.24 534.791,1323.96 541.251,1182.69 547.711,1051.75 554.171,1101.13 560.631,1196.91 567.091,980.042 573.55,496.949 580.01,975.671 586.47,974.509 592.93,1221.53 599.39,1328.24 605.85,1426.91 612.309,1204.31 618.769,1291.85 625.229,1297.37 631.689,1080.47 638.149,1143.64 644.609,1278.88 651.069,1279.86 657.528,1191.87 663.988,1383.64 670.448,1373.52 676.908,1228.24 683.368,1212.16 689.828,1319.67 696.288,1210.28 702.747,1296.64 709.207,1445.72 715.667,1421.18 722.127,1285.44 728.587,1131.5 735.047,1177.41 741.506,1029.73 747.966,1211.58 754.426,1359.36 760.886,1419.49 767.346,1337.54 773.806,1161 780.266,852.012 786.725,1030.95 793.185,826.547 799.645,1125.78 806.105,1253.74 812.565,988.993 819.025,1015.59 825.484,1119.92 831.944,1155.71 838.404,1190.6 844.864,1400.08 851.324,1383.62 857.784,1274.05 864.244,1187.58 870.703,1131.39 877.163,1038.63 883.623,87.9763 890.083,675.013 896.543,1055.16 903.003,423.412 909.463,954.926 915.922,764.108 922.382,881.161 928.842,899.026 935.302,1199.79 941.762,1262.97 948.222,1006.3 954.681,1086.39 961.141,1156.49 967.601,1188.09 974.061,905.923 980.521,1251.55 986.981,1383.18 993.441,982.972 999.9,958.925 1006.36,1196.73 1012.82,964.036 1019.28,979.671 1025.74,1301 1032.2,1397.17 1038.66,1152.78 1045.12,1156.33 1051.58,1286.42 1058.04,1007.14 1064.5,1077.23 1070.96,1392.42 1077.42,1242.24 1083.88,942.553 1090.34,911.436 1096.8,1114.02 1103.26,363.021 1109.72,953.311 1116.18,1328.14 1122.64,1152.76 1129.1,816.987" stroke="#8be9fd" stroke-linecap="butt" stroke-linejoin="round" stroke-width="4" stroke-opacity="1" fill="none"/><path clip-path="url(#clip290)" d="M645.591 198.898h479.099V95.218H645.591z" fill="#282a36" fill-rule="evenodd" fill-opacity="1"/><polyline clip-path="url(#clip290)" points="645.591,198.898 1124.69,198.898 1124.69,95.2176 645.591,95.2176 645.591,198.898" stroke="#f8f8f2" stroke-linecap="butt" stroke-linejoin="round" stroke-width="4" stroke-opacity="1" fill="none"/><polyline clip-path="url(#clip290)" points="655.329,147.058 713.761,147.058" stroke="#8be9fd" stroke-linecap="butt" stroke-linejoin="round" stroke-width="4" stroke-opacity="1" fill="none"/><path clip-path="url(#clip290)" d="M723.499 129.778h6.297l15.324 28.911v-28.911h4.537v34.56h-6.297l-15.324-28.912v28.912h-4.537v-34.56zm45.324 11.62q-3.426 0-5.416 2.685-1.991 2.662-1.991 7.315 0 4.653 1.967 7.338 1.991 2.662 5.44 2.662 3.403 0 5.394-2.685 1.99-2.686 1.99-7.315 0-4.607-1.99-7.292-1.991-2.708-5.394-2.708m0-3.611q5.556 0 8.727 3.611 3.171 3.611 3.171 10 0 6.366-3.171 10-3.171 3.611-8.727 3.611-5.578 0-8.75-3.611-3.148-3.634-3.148-10 0-6.389 3.148-10 3.172-3.611 8.75-3.611zm23.171-6.736v7.361h8.773v3.31h-8.773v14.074q0 3.171.857 4.074.879.903 3.541.903h4.375v3.565h-4.375q-4.93 0-6.805-1.829-1.875-1.852-1.875-6.713v-14.074h-3.125v-3.31h3.125v-7.361h4.282zm14.375 7.361h4.26v25.926h-4.26v-25.926m0-10.093h4.26v5.394h-4.26v-5.394zm23.218 13.079q-3.426 0-5.417 2.685-1.991 2.662-1.991 7.315 0 4.653 1.968 7.338 1.991 2.662 5.44 2.662 3.403 0 5.393-2.685 1.991-2.686 1.991-7.315 0-4.607-1.991-7.292-1.99-2.708-5.393-2.708m0-3.611q5.555 0 8.727 3.611 3.171 3.611 3.171 10 0 6.366-3.171 10-3.172 3.611-8.727 3.611-5.579 0-8.75-3.611-3.148-3.634-3.148-10 0-6.389 3.148-10 3.171-3.611 8.75-3.611zm40.509 10.902v15.649h-4.259v-15.51q0-3.68-1.436-5.509-1.435-1.829-4.305-1.829-3.449 0-5.44 2.2-1.991 2.199-1.991 5.995v14.653h-4.282v-25.926h4.282v4.028q1.528-2.338 3.588-3.496 2.084-1.157 4.792-1.157 4.467 0 6.759 2.778 2.292 2.754 2.292 8.124zm20.277 2.616q-5.162 0-7.152 1.181-1.991 1.18-1.991 4.028 0 2.268 1.481 3.611 1.505 1.319 4.075 1.319 3.541 0 5.671-2.5 2.153-2.523 2.153-6.69v-.949h-4.237m8.496-1.759v14.792h-4.259v-3.936q-1.459 2.361-3.635 3.496-2.176 1.111-5.324 1.111-3.981 0-6.342-2.222-2.338-2.246-2.338-5.996 0-4.375 2.916-6.597 2.94-2.222 8.75-2.222h5.973v-.417q0-2.94-1.945-4.537-1.921-1.62-5.417-1.62-2.222 0-4.328.532-2.107.533-4.051 1.597v-3.935q2.338-.902 4.537-1.342 2.199-.463 4.282-.463 5.625 0 8.403 2.916 2.778 2.917 2.778 8.843zm8.773-21.227h4.259v36.019h-4.259v-36.019zm37.338 36.019l-13.195-34.56h4.885l10.949 29.097 10.972-29.097h4.861l-13.171 34.56h-5.301zm29.699-22.94q-3.426 0-5.417 2.685-1.991 2.662-1.991 7.315 0 4.653 1.968 7.338 1.991 2.662 5.44 2.662 3.402 0 5.393-2.685 1.991-2.686 1.991-7.315 0-4.607-1.991-7.292-1.991-2.708-5.393-2.708m0-3.611q5.555 0 8.726 3.611 3.172 3.611 3.172 10 0 6.366-3.172 10-3.171 3.611-8.726 3.611-5.579 0-8.75-3.611-3.149-3.634-3.149-10 0-6.389 3.149-10 3.171-3.611 8.75-3.611zm18.958-9.468h4.259v36.019h-4.259v-36.019zm12.733 25.787v-15.694h4.26v15.532q0 3.681 1.43 5.532 1.44 1.829 4.31 1.829 3.45 0 5.44-2.199 2.01-2.199 2.01-5.995v-14.699h4.26v25.926h-4.26v-3.982q-1.55 2.361-3.61 3.519-2.04 1.134-4.74 1.134-4.47 0-6.79-2.778-2.31-2.778-2.31-8.125m10.72-16.319zm39.95 5.602q1.6-2.871 3.82-4.236 2.22-1.366 5.23-1.366 4.05 0 6.25 2.847 2.2 2.824 2.2 8.055v15.649h-4.28v-15.51q0-3.726-1.32-5.532t-4.03-1.806q-3.31 0-5.23 2.2-1.92 2.199-1.92 5.995v14.653h-4.29v-15.51q0-3.75-1.31-5.532-1.32-1.806-4.08-1.806-3.26 0-5.18 2.223-1.93 2.199-1.93 5.972v14.653h-4.28v-25.926h4.28v4.028q1.46-2.385 3.5-3.519 2.04-1.134 4.84-1.134 2.82 0 4.79 1.435 1.99 1.435 2.94 4.167zm48.17 6.921v2.083h-19.58q.27 4.398 2.64 6.713 2.38 2.292 6.62 2.292 2.45 0 4.74-.602 2.32-.602 4.58-1.806v4.028q-2.29.972-4.69 1.482-2.41.509-4.89.509-6.2 0-9.84-3.611-3.61-3.611-3.61-9.769 0-6.365 3.43-10.092 3.45-3.75 9.28-3.75 5.23 0 8.26 3.379 3.06 3.357 3.06 9.144m-4.26-1.25q-.05-3.495-1.97-5.579-1.89-2.083-5.04-2.083-3.57 0-5.72 2.014-2.13 2.014-2.45 5.671l15.18-.023z" fill="#f8f8f2" fill-rule="evenodd" fill-opacity="1"/><path clip-path="url(#clip290)" d="M1476.28 1486.45h876.48V47.244h-876.48z" fill="#30343b" fill-rule="evenodd" fill-opacity="1"/><defs><clipPath id="clip293"><rect x="1476" y="47" width="877" height="1440"/></clipPath></defs><polyline clip-path="url(#clip293)" points="1501.09,1486.45 1501.09,47.2441" stroke="#f8f8f2" stroke-linecap="butt" stroke-linejoin="round" stroke-width="2" stroke-opacity=".1" fill="none"/><polyline clip-path="url(#clip293)" points="1888.68,1486.45 1888.68,47.2441" stroke="#f8f8f2" stroke-linecap="butt" stroke-linejoin="round" stroke-width="2" stroke-opacity=".1" fill="none"/><polyline clip-path="url(#clip293)" points="2276.27,1486.45 2276.27,47.2441" stroke="#f8f8f2" stroke-linecap="butt" stroke-linejoin="round" stroke-width="2" stroke-opacity=".1" fill="none"/><polyline clip-path="url(#clip290)" points="1476.28,1486.45 2352.76,1486.45" stroke="#f8f8f2" stroke-linecap="butt" stroke-linejoin="round" stroke-width="4" stroke-opacity="1" fill="none"/><polyline clip-path="url(#clip290)" points="1501.09,1486.45 1501.09,1467.55" stroke="#f8f8f2" stroke-linecap="butt" stroke-linejoin="round" stroke-width="4" stroke-opacity="1" fill="none"/><polyline clip-path="url(#clip290)" points="1888.68,1486.45 1888.68,1467.55" stroke="#f8f8f2" stroke-linecap="butt" stroke-linejoin="round" stroke-width="4" stroke-opacity="1" fill="none"/><polyline clip-path="url(#clip290)" points="2276.27,1486.45 2276.27,1467.55" stroke="#f8f8f2" stroke-linecap="butt" stroke-linejoin="round" stroke-width="4" stroke-opacity="1" fill="none"/><path clip-path="url(#clip290)" d="M1372.88 1544.91h16.32v3.94h-21.94v-3.94q2.66-2.75 7.24-7.38 4.61-4.65 5.79-6 2.25-2.52 3.13-4.26.9-1.76.9-3.45 0-2.75-1.95-4.49-1.92-1.73-5.02-1.73-2.2 0-4.65.76-2.43.77-5.21 2.32v-4.73q2.82-1.13 5.28-1.71 2.45-.58 4.49-.58 5.37 0 8.56 2.69 3.2 2.68 3.2 7.17 0 2.13-.81 4.05-.79 1.9-2.9 4.5-.57.67-3.68 3.88-3.1 3.2-8.75 8.96zm40.3-14.7q3.36.72 5.24 2.99 1.89 2.27 1.89 5.6 0 5.12-3.51 7.92-3.52 2.8-10 2.8-2.18 0-4.49-.44-2.3-.42-4.75-1.27v-4.52q1.94 1.14 4.26 1.72 2.31.57 4.84.57 4.4 0 6.69-1.73 2.31-1.74 2.31-5.05 0-3.05-2.15-4.77-2.13-1.73-5.95-1.73h-4.03v-3.85h4.22q3.44 0 5.27-1.36 1.83-1.39 1.83-3.98 0-2.66-1.9-4.08-1.87-1.43-5.39-1.43-1.92 0-4.12.41-2.2.42-4.84 1.3v-4.17q2.66-.74 4.98-1.11 2.34-.37 4.4-.37 5.32 0 8.42 2.43 3.1 2.41 3.1 6.53 0 2.87-1.64 4.86-1.64 1.97-4.68 2.73zm13.25 3.75h12.47v3.8h-12.47v-3.8zm20.67 10.95h7.64v-26.36l-8.31 1.66v-4.26l8.26-1.66h4.68v30.62h7.63v3.94h-19.9v-3.94zm39.35-27.54q-3.61 0-5.44 3.56-1.81 3.54-1.81 10.67 0 7.11 1.81 10.67 1.83 3.55 5.44 3.55 3.63 0 5.44-3.55 1.83-3.56 1.83-10.67 0-7.13-1.83-10.67-1.81-3.56-5.44-3.56m0-3.71q5.81 0 8.86 4.61 3.08 4.58 3.08 13.33 0 8.73-3.08 13.34-3.05 4.58-8.86 4.58t-8.89-4.58q-3.06-4.61-3.06-13.34 0-8.75 3.06-13.33 3.08-4.61 8.89-4.61zm17.41 20.3h12.47v3.8h-12.47v-3.8zm23.88 10.95h16.32v3.94h-21.94v-3.94q2.66-2.75 7.24-7.38 4.61-4.65 5.79-6 2.25-2.52 3.13-4.26.9-1.76.9-3.45 0-2.75-1.94-4.49-1.93-1.73-5.03-1.73-2.2 0-4.65.76-2.43.77-5.21 2.32v-4.73q2.82-1.13 5.28-1.71 2.45-.58 4.49-.58 5.37 0 8.56 2.69 3.2 2.68 3.2 7.17 0 2.13-.81 4.05-.79 1.9-2.9 4.5-.57.67-3.68 3.88-3.1 3.2-8.75 8.96zm36.14-27.54q-3.61 0-5.44 3.56-1.81 3.54-1.81 10.67 0 7.11 1.81 10.67 1.83 3.55 5.44 3.55 3.63 0 5.44-3.55 1.83-3.56 1.83-10.67 0-7.13-1.83-10.67-1.81-3.56-5.44-3.56m0-3.71q5.81 0 8.86 4.61 3.08 4.58 3.08 13.33 0 8.73-3.08 13.34-3.05 4.58-8.86 4.58t-8.89-4.58q-3.06-4.61-3.06-13.34 0-8.75 3.06-13.33 3.08-4.61 8.89-4.61zm24.19 31.25h16.32v3.94h-21.95v-3.94q2.67-2.75 7.25-7.38 4.6-4.65 5.79-6 2.24-2.52 3.12-4.26.9-1.76.9-3.45 0-2.75-1.94-4.49-1.92-1.73-5.02-1.73-2.2 0-4.66.76-2.43.77-5.21 2.32v-4.73q2.83-1.13 5.28-1.71 2.46-.58 4.49-.58 5.37 0 8.57 2.69 3.19 2.68 3.19 7.17 0 2.13-.81 4.05-.78 1.9-2.89 4.5-.58.67-3.68 3.88-3.1 3.2-8.75 8.96zm26.94 0h7.64v-26.36l-8.31 1.66v-4.26l8.27-1.66h4.67v30.62h7.64v3.94h-19.91v-3.94zm145.47 0h16.31v3.94h-21.94v-3.94q2.66-2.75 7.25-7.38 4.6-4.65 5.78-6 2.25-2.52 3.13-4.26.9-1.76.9-3.45 0-2.75-1.94-4.49-1.93-1.73-5.03-1.73-2.2 0-4.65.76-2.43.77-5.21 2.32v-4.73q2.83-1.13 5.28-1.71 2.45-.58 4.49-.58 5.37 0 8.56 2.69 3.2 2.68 3.2 7.17 0 2.13-.81 4.05-.79 1.9-2.89 4.5-.58.67-3.68 3.88-3.11 3.2-8.75 8.96zm30.16 0h16.32v3.94h-21.95v-3.94q2.66-2.75 7.25-7.38 4.6-4.65 5.78-6 2.25-2.52 3.13-4.26.9-1.76.9-3.45 0-2.75-1.94-4.49-1.92-1.73-5.03-1.73-2.19 0-4.65.76-2.43.77-5.21 2.32v-4.73q2.83-1.13 5.28-1.71 2.45-.58 4.49-.58 5.37 0 8.57 2.69 3.19 2.68 3.19 7.17 0 2.13-.81 4.05-.79 1.9-2.89 4.5-.58.67-3.68 3.88-3.1 3.2-8.75 8.96zm23.38-10.95h12.47v3.8h-12.47v-3.8zm20.67 10.95h7.64v-26.36l-8.31 1.66v-4.26l8.26-1.66h4.68v30.62h7.63v3.94h-19.9v-3.94zm33.38 0h16.32v3.94h-21.95v-3.94q2.66-2.75 7.25-7.38 4.6-4.65 5.78-6 2.25-2.52 3.13-4.26.9-1.76.9-3.45 0-2.75-1.94-4.49-1.92-1.73-5.03-1.73-2.19 0-4.65.76-2.43.77-5.21 2.32v-4.73q2.83-1.13 5.28-1.71 2.46-.58 4.49-.58 5.37 0 8.57 2.69 3.19 2.68 3.19 7.17 0 2.13-.81 4.05-.79 1.9-2.89 4.5-.58.67-3.68 3.88-3.1 3.2-8.75 8.96zm23.38-10.95h12.47v3.8h-12.47v-3.8zm23.89 10.95h16.31v3.94h-21.94v-3.94q2.66-2.75 7.25-7.38 4.6-4.65 5.78-6 2.25-2.52 3.13-4.26.9-1.76.9-3.45 0-2.75-1.94-4.49-1.93-1.73-5.03-1.73-2.2 0-4.65.76-2.43.77-5.21 2.32v-4.73q2.83-1.13 5.28-1.71 2.45-.58 4.49-.58 5.37 0 8.57 2.69 3.19 2.68 3.19 7.17 0 2.13-.81 4.05-.79 1.9-2.89 4.5-.58.67-3.68 3.88-3.11 3.2-8.75 8.96zm36.13-27.54q-3.61 0-5.44 3.56-1.81 3.54-1.81 10.67 0 7.11 1.81 10.67 1.83 3.55 5.44 3.55 3.63 0 5.44-3.55 1.83-3.56 1.83-10.67 0-7.13-1.83-10.67-1.81-3.56-5.44-3.56m0-3.71q5.81 0 8.87 4.61 3.07 4.58 3.07 13.33 0 8.73-3.07 13.34-3.06 4.58-8.87 4.58-5.81 0-8.89-4.58-3.05-4.61-3.05-13.34 0-8.75 3.05-13.33 3.08-4.61 8.89-4.61zm24.19 31.25h16.32v3.94h-21.95v-3.94q2.67-2.75 7.25-7.38 4.61-4.65 5.79-6 2.24-2.52 3.12-4.26.9-1.76.9-3.45 0-2.75-1.94-4.49-1.92-1.73-5.02-1.73-2.2 0-4.66.76-2.43.77-5.2 2.32v-4.73q2.82-1.13 5.27-1.71 2.46-.58 4.49-.58 5.37 0 8.57 2.69 3.19 2.68 3.19 7.17 0 2.13-.81 4.05-.78 1.9-2.89 4.5-.58.67-3.68 3.88-3.1 3.2-8.75 8.96zm26.94 0h7.64v-26.36l-8.31 1.66v-4.26l8.27-1.66h4.67v30.62h7.64v3.94h-19.91v-3.94zm145.65 0h16.32v3.94h-21.94v-3.94q2.66-2.75 7.24-7.38 4.61-4.65 5.79-6 2.24-2.52 3.12-4.26.91-1.76.91-3.45 0-2.75-1.95-4.49-1.92-1.73-5.02-1.73-2.2 0-4.65.76-2.43.77-5.21 2.32v-4.73q2.82-1.13 5.28-1.71 2.45-.58 4.49-.58 5.37 0 8.56 2.69 3.2 2.68 3.2 7.17 0 2.13-.81 4.05-.79 1.9-2.9 4.5-.58.67-3.68 3.88-3.1 3.2-8.75 8.96zm36.14-27.54q-3.62 0-5.44 3.56-1.81 3.54-1.81 10.67 0 7.11 1.81 10.67 1.82 3.55 5.44 3.55 3.63 0 5.44-3.55 1.82-3.56 1.82-10.67 0-7.13-1.82-10.67-1.81-3.56-5.44-3.56m0-3.71q5.81 0 8.86 4.61 3.08 4.58 3.08 13.33 0 8.73-3.08 13.34-3.05 4.58-8.86 4.58t-8.89-4.58q-3.06-4.61-3.06-13.34 0-8.75 3.06-13.33 3.08-4.61 8.89-4.61zm17.4 20.3h12.48v3.8h-12.48v-3.8zm29.86-16.59q-3.61 0-5.44 3.56-1.8 3.54-1.8 10.67 0 7.11 1.8 10.67 1.83 3.55 5.44 3.55 3.64 0 5.44-3.55 1.83-3.56 1.83-10.67 0-7.13-1.83-10.67-1.8-3.56-5.44-3.56m0-3.71q5.81 0 8.87 4.61 3.08 4.58 3.08 13.33 0 8.73-3.08 13.34-3.06 4.58-8.87 4.58-5.81 0-8.89-4.58-3.05-4.61-3.05-13.34 0-8.75 3.05-13.33 3.08-4.61 8.89-4.61zm24.19 31.25h16.32v3.94h-21.94v-3.94q2.66-2.75 7.24-7.38 4.61-4.65 5.79-6 2.25-2.52 3.13-4.26.9-1.76.9-3.45 0-2.75-1.95-4.49-1.92-1.73-5.02-1.73-2.2 0-4.65.76-2.43.77-5.21 2.32v-4.73q2.82-1.13 5.28-1.71 2.45-.58 4.49-.58 5.37 0 8.56 2.69 3.2 2.68 3.2 7.17 0 2.13-.81 4.05-.79 1.9-2.9 4.5-.58.67-3.68 3.88-3.1 3.2-8.75 8.96zm23.38-10.95h12.48v3.8h-12.48v-3.8zm23.89 10.95h16.32v3.94h-21.94v-3.94q2.66-2.75 7.24-7.38 4.61-4.65 5.79-6 2.24-2.52 3.12-4.26.91-1.76.91-3.45 0-2.75-1.95-4.49-1.92-1.73-5.02-1.73-2.2 0-4.65.76-2.43.77-5.21 2.32v-4.73q2.82-1.13 5.28-1.71 2.45-.58 4.49-.58 5.37 0 8.56 2.69 3.2 2.68 3.2 7.17 0 2.13-.81 4.05-.79 1.9-2.9 4.5-.58.67-3.68 3.88-3.1 3.2-8.75 8.96zm36.14-27.54q-3.62 0-5.44 3.56-1.81 3.54-1.81 10.67 0 7.11 1.81 10.67 1.82 3.55 5.44 3.55 3.63 0 5.44-3.55 1.82-3.56 1.82-10.67 0-7.13-1.82-10.67-1.81-3.56-5.44-3.56m0-3.71q5.81 0 8.86 4.61 3.08 4.58 3.08 13.33 0 8.73-3.08 13.34-3.05 4.58-8.86 4.58t-8.89-4.58q-3.06-4.61-3.06-13.34 0-8.75 3.06-13.33 3.08-4.61 8.89-4.61zm24.19 31.25h16.31v3.94h-21.94v-3.94q2.66-2.75 7.25-7.38 4.6-4.65 5.78-6 2.25-2.52 3.13-4.26.9-1.76.9-3.45 0-2.75-1.94-4.49-1.93-1.73-5.03-1.73-2.2 0-4.65.76-2.43.77-5.21 2.32v-4.73q2.83-1.13 5.28-1.71 2.45-.58 4.49-.58 5.37 0 8.56 2.69 3.2 2.68 3.2 7.17 0 2.13-.81 4.05-.79 1.9-2.89 4.5-.58.67-3.68 3.88-3.11 3.2-8.75 8.96zm30.16 0h16.32v3.94h-21.95v-3.94q2.66-2.75 7.25-7.38 4.6-4.65 5.78-6 2.25-2.52 3.13-4.26.9-1.76.9-3.45 0-2.75-1.94-4.49-1.92-1.73-5.03-1.73-2.19 0-4.65.76-2.43.77-5.21 2.32v-4.73q2.83-1.13 5.28-1.71 2.46-.58 4.49-.58 5.37 0 8.57 2.69 3.19 2.68 3.19 7.17 0 2.13-.81 4.05-.79 1.9-2.89 4.5-.58.67-3.68 3.88-3.1 3.2-8.75 8.96z" fill="#f8f8f2" fill-rule="evenodd" fill-opacity="1"/><polyline clip-path="url(#clip293)" points="1476.28,1336.97 2352.76,1336.97" stroke="#f8f8f2" stroke-linecap="butt" stroke-linejoin="round" stroke-width="2" stroke-opacity=".1" fill="none"/><polyline clip-path="url(#clip293)" points="1476.28,1039.92 2352.76,1039.92" stroke="#f8f8f2" stroke-linecap="butt" stroke-linejoin="round" stroke-width="2" stroke-opacity=".1" fill="none"/><polyline clip-path="url(#clip293)" points="1476.28,742.873 2352.76,742.873" stroke="#f8f8f2" stroke-linecap="butt" stroke-linejoin="round" stroke-width="2" stroke-opacity=".1" fill="none"/><polyline clip-path="url(#clip293)" points="1476.28,445.822 2352.76,445.822" stroke="#f8f8f2" stroke-linecap="butt" stroke-linejoin="round" stroke-width="2" stroke-opacity=".1" fill="none"/><polyline clip-path="url(#clip293)" points="1476.28,148.772 2352.76,148.772" stroke="#f8f8f2" stroke-linecap="butt" stroke-linejoin="round" stroke-width="2" stroke-opacity=".1" fill="none"/><polyline clip-path="url(#clip290)" points="1476.28,1486.45 1476.28,47.2441" stroke="#f8f8f2" stroke-linecap="butt" stroke-linejoin="round" stroke-width="4" stroke-opacity="1" fill="none"/><polyline clip-path="url(#clip290)" points="1476.28,1336.97 1495.18,1336.97" stroke="#f8f8f2" stroke-linecap="butt" stroke-linejoin="round" stroke-width="4" stroke-opacity="1" fill="none"/><polyline clip-path="url(#clip290)" points="1476.28,1039.92 1495.18,1039.92" stroke="#f8f8f2" stroke-linecap="butt" stroke-linejoin="round" stroke-width="4" stroke-opacity="1" fill="none"/><polyline clip-path="url(#clip290)" points="1476.28,742.873 1495.18,742.873" stroke="#f8f8f2" stroke-linecap="butt" stroke-linejoin="round" stroke-width="4" stroke-opacity="1" fill="none"/><polyline clip-path="url(#clip290)" points="1476.28,445.822 1495.18,445.822" stroke="#f8f8f2" stroke-linecap="butt" stroke-linejoin="round" stroke-width="4" stroke-opacity="1" fill="none"/><polyline clip-path="url(#clip290)" points="1476.28,148.772 1495.18,148.772" stroke="#f8f8f2" stroke-linecap="butt" stroke-linejoin="round" stroke-width="4" stroke-opacity="1" fill="none"/><path clip-path="url(#clip290)" d="M1258.92 1356.77h16.32v3.93h-21.94v-3.93q2.66-2.76 7.24-7.39 4.61-4.65 5.79-5.99 2.24-2.53 3.12-4.26.91-1.76.91-3.45 0-2.76-1.95-4.49-1.92-1.74-5.02-1.74-2.2 0-4.65.76-2.43.77-5.21 2.32v-4.72q2.82-1.14 5.28-1.72 2.45-.57 4.49-.57 5.37 0 8.56 2.68 3.2 2.69 3.2 7.18 0 2.13-.81 4.05-.79 1.9-2.9 4.49-.58.67-3.68 3.89-3.1 3.19-8.75 8.96zm26.14-1.95h4.88v5.88h-4.88v-5.88zm25.07-25.6q-3.62 0-5.44 3.56-1.81 3.55-1.81 10.68 0 7.1 1.81 10.67 1.82 3.54 5.44 3.54 3.63 0 5.43-3.54 1.83-3.57 1.83-10.67 0-7.13-1.83-10.68-1.8-3.56-5.43-3.56m0-3.7q5.81 0 8.86 4.6 3.08 4.59 3.08 13.34 0 8.72-3.08 13.33-3.05 4.58-8.86 4.58t-8.89-4.58q-3.06-4.61-3.06-13.33 0-8.75 3.06-13.34 3.08-4.6 8.89-4.6zm48.33 9.72l-10.58 10.62 10.58 10.58-2.76 2.8-10.62-10.62-10.63 10.62-2.73-2.8 10.56-10.58-10.56-10.62 2.73-2.8 10.63 10.62 10.62-10.62 2.76 2.8zm12.36 21.53h7.64v-26.37l-8.31 1.67v-4.26l8.26-1.67h4.68v30.63h7.64v3.93h-19.91v-3.93zm39.35-27.55q-3.61 0-5.44 3.56-1.8 3.55-1.8 10.68 0 7.1 1.8 10.67 1.83 3.54 5.44 3.54 3.64 0 5.44-3.54 1.83-3.57 1.83-10.67 0-7.13-1.83-10.68-1.8-3.56-5.44-3.56m0-3.7q5.81 0 8.87 4.6 3.08 4.59 3.08 13.34 0 8.72-3.08 13.33-3.06 4.58-8.87 4.58-5.81 0-8.89-4.58-3.05-4.61-3.05-13.33 0-8.75 3.05-13.34 3.08-4.6 8.89-4.6zm13.13-20.31h14.91v3.2h-11.43v6.88q.83-.28 1.65-.41.83-.15 1.66-.15 4.7 0 7.45 2.57 2.74 2.58 2.74 6.98 0 4.53-2.82 7.05-2.82 2.51-7.95 2.51-1.77 0-3.61-.31-1.83-.3-3.78-.9v-3.82q1.69.93 3.49 1.38 1.81.45 3.82.45 3.26 0 5.15-1.71 1.9-1.71 1.9-4.65 0-2.93-1.9-4.64-1.89-1.72-5.15-1.72-1.52 0-3.05.34-1.5.34-3.08 1.06v-14.11zm-155.56-272.05l-11.8 18.45h11.8v-18.45m-1.23-4.07h5.88v22.52h4.93v3.89h-4.93v8.15h-4.65v-8.15h-15.6v-4.51l14.37-21.9zm18.55 28.68h4.88v5.88h-4.88v-5.88zm25.07-25.6q-3.62 0-5.44 3.56-1.81 3.55-1.81 10.68 0 7.1 1.81 10.67 1.82 3.54 5.44 3.54 3.63 0 5.43-3.54 1.83-3.57 1.83-10.67 0-7.13-1.83-10.68-1.8-3.56-5.43-3.56m0-3.7q5.81 0 8.86 4.6 3.08 4.59 3.08 13.34 0 8.72-3.08 13.33-3.05 4.58-8.86 4.58t-8.89-4.58q-3.06-4.61-3.06-13.33 0-8.75 3.06-13.34 3.08-4.6 8.89-4.6zm48.33 9.72l-10.58 10.62 10.58 10.58-2.76 2.8-10.62-10.62-10.63 10.62-2.73-2.8 10.56-10.58-10.56-10.62 2.73-2.8 10.63 10.62 10.62-10.62 2.76 2.8zm12.36 21.53h7.64v-26.37l-8.31 1.67v-4.26l8.26-1.67h4.68v30.63h7.64v3.93h-19.91v-3.93zm39.35-27.55q-3.61 0-5.44 3.56-1.8 3.55-1.8 10.68 0 7.1 1.8 10.67 1.83 3.54 5.44 3.54 3.64 0 5.44-3.54 1.83-3.57 1.83-10.67 0-7.13-1.83-10.68-1.8-3.56-5.44-3.56m0-3.7q5.81 0 8.87 4.6 3.08 4.59 3.08 13.34 0 8.72-3.08 13.33-3.06 4.58-8.87 4.58-5.81 0-8.89-4.58-3.05-4.61-3.05-13.33 0-8.75 3.05-13.34 3.08-4.6 8.89-4.6zm13.13-20.31h14.91v3.2h-11.43v6.88q.83-.28 1.65-.41.83-.15 1.66-.15 4.7 0 7.45 2.57 2.74 2.58 2.74 6.98 0 4.53-2.82 7.05-2.82 2.51-7.95 2.51-1.77 0-3.61-.31-1.83-.3-3.78-.9v-3.82q1.69.93 3.49 1.38 1.81.45 3.82.45 3.26 0 5.15-1.71 1.9-1.71 1.9-4.65 0-2.93-1.9-4.64-1.89-1.72-5.15-1.72-1.52 0-3.05.34-1.5.34-3.08 1.06v-14.11zm-157.83-260.703q-3.15 0-5 2.152-1.83 2.153-1.83 5.903 0 3.727 1.83 5.903 1.85 2.153 5 2.153t4.98-2.153q1.85-2.176 1.85-5.903 0-3.75-1.85-5.903-1.83-2.152-4.98-2.152m9.29-14.653v4.259q-1.76-.833-3.57-1.273-1.78-.44-3.54-.44-4.63 0-7.08 3.125-2.44 3.125-2.78 9.445 1.36-2.014 3.42-3.079 2.06-1.088 4.54-1.088 5.21 0 8.22 3.171 3.03 3.148 3.03 8.588 0 5.324-3.15 8.542-3.15 3.217-8.38 3.217-5.99 0-9.16-4.583-3.18-4.606-3.18-13.333 0-8.195 3.89-13.056 3.89-4.884 10.44-4.884 1.76 0 3.55.347 1.8.348 3.75 1.042zm10.3 27.917h4.88v5.879h-4.88v-5.879zm25.07-25.602q-3.62 0-5.44 3.565-1.81 3.541-1.81 10.671 0 7.106 1.81 10.671 1.82 3.542 5.44 3.542 3.63 0 5.43-3.542 1.83-3.565 1.83-10.671 0-7.13-1.83-10.671-1.8-3.565-5.43-3.565m0-3.704q5.81 0 8.86 4.607 3.08 4.583 3.08 13.333 0 8.727-3.08 13.333-3.05 4.583-8.86 4.583t-8.89-4.583q-3.06-4.606-3.06-13.333 0-8.75 3.06-13.333 3.08-4.607 8.89-4.607zm48.33 9.722l-10.58 10.625 10.58 10.579-2.76 2.801-10.62-10.625-10.63 10.625-2.73-2.801 10.56-10.579-10.56-10.625 2.73-2.801 10.63 10.625 10.62-10.625 2.76 2.801zm12.36 21.528h7.64v-26.366l-8.31 1.667v-4.259l8.26-1.667h4.68v30.625h7.64v3.935h-19.91v-3.935zm39.35-27.546q-3.61 0-5.44 3.565-1.8 3.541-1.8 10.671 0 7.106 1.8 10.671 1.83 3.542 5.44 3.542 3.64 0 5.44-3.542 1.83-3.565 1.83-10.671 0-7.13-1.83-10.671-1.8-3.565-5.44-3.565m0-3.704q5.81 0 8.87 4.607 3.08 4.583 3.08 13.333 0 8.727-3.08 13.333-3.06 4.583-8.87 4.583-5.81 0-8.89-4.583-3.05-4.606-3.05-13.333 0-8.75 3.05-13.333 3.08-4.607 8.89-4.607zm13.13-20.305h14.91v3.197h-11.43v6.884q.83-.282 1.65-.414.83-.151 1.66-.151 4.7 0 7.45 2.577 2.74 2.577 2.74 6.978 0 4.532-2.82 7.053-2.82 2.501-7.95 2.501-1.77 0-3.61-.301-1.83-.301-3.78-.903v-3.818q1.69.922 3.49 1.373 1.81.452 3.82.452 3.26 0 5.15-1.712 1.9-1.711 1.9-4.645 0-2.934-1.9-4.646-1.89-1.711-5.15-1.711-1.52 0-3.05.338-1.5.339-3.08 1.054V711.11zm-158.41-257.972q-3.33 0-5.25 1.782-1.9 1.783-1.9 4.908 0 3.125 1.9 4.907 1.92 1.783 5.25 1.783 3.34 0 5.26-1.783 1.92-1.805 1.92-4.907 0-3.125-1.92-4.908-1.9-1.782-5.26-1.782m-4.67-1.991q-3.01-.741-4.7-2.801-1.67-2.06-1.67-5.023 0-4.143 2.94-6.551 2.97-2.407 8.1-2.407 5.17 0 8.11 2.407 2.94 2.408 2.94 6.551 0 2.963-1.69 5.023-1.67 2.06-4.66 2.801 3.38.787 5.26 3.079 1.9 2.292 1.9 5.602 0 5.023-3.08 7.708-3.06 2.685-8.78 2.685-5.71 0-8.79-2.685-3.06-2.685-3.06-7.708 0-3.31 1.9-5.602 1.9-2.292 5.28-3.079m-1.71-7.384q0 2.685 1.66 4.19 1.69 1.504 4.72 1.504 3.01 0 4.7-1.504 1.72-1.505 1.72-4.19 0-2.685-1.72-4.19-1.69-1.504-4.7-1.504-3.03 0-4.72 1.504-1.66 1.505-1.66 4.19zm26.55 19.907h4.88v5.88h-4.88v-5.88zm25.07-25.601q-3.62 0-5.44 3.564-1.81 3.542-1.81 10.672 0 7.106 1.81 10.671 1.82 3.542 5.44 3.542 3.63 0 5.43-3.542 1.83-3.565 1.83-10.671 0-7.13-1.83-10.672-1.8-3.564-5.43-3.564m0-3.704q5.81 0 8.86 4.606 3.08 4.584 3.08 13.334 0 8.726-3.08 13.333-3.05 4.583-8.86 4.583t-8.89-4.583q-3.06-4.607-3.06-13.333 0-8.75 3.06-13.334 3.08-4.606 8.89-4.606zm48.33 9.722l-10.58 10.625 10.58 10.579-2.76 2.801-10.62-10.625-10.63 10.625-2.73-2.801 10.56-10.579-10.56-10.625 2.73-2.801 10.63 10.625 10.62-10.625 2.76 2.801zm12.36 21.528h7.64v-26.366l-8.31 1.667v-4.259l8.26-1.667h4.68v30.625h7.64v3.935h-19.91v-3.935zm39.35-27.546q-3.61 0-5.44 3.564-1.8 3.542-1.8 10.672 0 7.106 1.8 10.671 1.83 3.542 5.44 3.542 3.64 0 5.44-3.542 1.83-3.565 1.83-10.671 0-7.13-1.83-10.672-1.8-3.564-5.44-3.564m0-3.704q5.81 0 8.87 4.606 3.08 4.584 3.08 13.334 0 8.726-3.08 13.333-3.06 4.583-8.87 4.583-5.81 0-8.89-4.583-3.05-4.607-3.05-13.333 0-8.75 3.05-13.334 3.08-4.606 8.89-4.606zm13.13-20.305h14.91v3.197h-11.43v6.883q.83-.282 1.65-.413.83-.151 1.66-.151 4.7 0 7.45 2.577 2.74 2.577 2.74 6.978 0 4.532-2.82 7.052-2.82 2.502-7.95 2.502-1.77 0-3.61-.301-1.83-.301-3.78-.903v-3.818q1.69.922 3.49 1.373 1.81.452 3.82.452 3.26 0 5.15-1.712 1.9-1.711 1.9-4.645 0-2.934-1.9-4.646-1.89-1.711-5.15-1.711-1.52 0-3.05.338-1.5.339-3.08 1.053V414.06zm-168.82-245.495h7.64v-26.366l-8.31 1.667v-4.26l8.26-1.666h4.68v30.625h7.64v3.935h-19.91v-3.935zm29.35-1.945h4.89v5.88h-4.89v-5.88zm25.07-25.602q-3.61 0-5.44 3.565-1.8 3.542-1.8 10.671 0 7.107 1.8 10.672 1.83 3.541 5.44 3.541 3.64 0 5.44-3.541 1.83-3.565 1.83-10.672 0-7.129-1.83-10.671-1.8-3.565-5.44-3.565m0-3.703q5.81 0 8.87 4.606 3.08 4.583 3.08 13.333 0 8.727-3.08 13.334-3.06 4.583-8.87 4.583-5.81 0-8.89-4.583-3.05-4.607-3.05-13.334 0-8.75 3.05-13.333 3.08-4.606 8.89-4.606zm48.34 9.722l-10.58 10.625 10.58 10.578-2.76 2.801-10.62-10.625-10.63 10.625-2.73-2.801 10.56-10.578-10.56-10.625 2.73-2.801 10.63 10.625 10.62-10.625 2.76 2.801zm12.36 21.528h7.64v-26.366l-8.31 1.667v-4.26l8.26-1.666h4.68v30.625h7.63v3.935h-19.9v-3.935zm39.35-27.547q-3.61 0-5.44 3.565-1.81 3.542-1.81 10.671 0 7.107 1.81 10.672 1.83 3.541 5.44 3.541 3.63 0 5.44-3.541 1.83-3.565 1.83-10.672 0-7.129-1.83-10.671-1.81-3.565-5.44-3.565m0-3.703q5.81 0 8.86 4.606 3.08 4.583 3.08 13.333 0 8.727-3.08 13.334-3.05 4.583-8.86 4.583t-8.89-4.583q-3.06-4.607-3.06-13.334 0-8.75 3.06-13.333 3.08-4.606 8.89-4.606zm21.97-7.78q-2.56 0-4.07 1.749-1.48 1.749-1.48 4.796 0 3.028 1.48 4.796 1.51 1.749 4.07 1.749 2.56 0 4.04-1.749 1.51-1.768 1.51-4.796 0-3.047-1.51-4.796-1.48-1.749-4.04-1.749m7.54-11.905v3.461q-1.43-.678-2.9-1.035-1.45-.357-2.87-.357-3.77 0-5.76 2.539-1.97 2.539-2.26 7.673 1.11-1.636 2.79-2.501 1.67-.884 3.68-.884 4.23 0 6.68 2.577 2.46 2.558 2.46 6.977 0 4.326-2.55 6.94-2.56 2.615-6.81 2.615-4.87 0-7.45-3.724-2.58-3.743-2.58-10.834 0-6.657 3.16-10.607 3.16-3.969 8.48-3.969 1.43 0 2.88.283 1.47.282 3.05.846z" fill="#f8f8f2" fill-rule="evenodd" fill-opacity="1"/><polyline clip-path="url(#clip293)" points="1501.09,1197.95 1507.55,1084.71 1514.01,1064.79 1520.47,1043.75 1526.93,748.222 1533.39,748.184 1539.85,948.549 1546.31,1108.81 1552.77,1158.25 1559.23,1042.79 1565.69,976.786 1572.15,1031.62 1578.61,1241.48 1585.07,1268.97 1591.53,1178.51 1597.99,1240.54 1604.45,886.496 1610.91,975.941 1617.37,911.444 1623.83,1099.76 1630.29,1036.62 1636.75,1229.17 1643.21,1235.72 1649.67,1117.14 1656.13,731.178 1662.59,943.353 1669.05,804.031 1675.51,887.249 1681.97,1103.46 1688.43,1173.26 1694.88,956.839 1701.34,925.377 1707.8,1070.06 1714.26,1111.13 1720.72,726.949 1727.18,1135.78 1733.64,1150.79 1740.1,1114.2 1746.56,954.65 1753.02,871.249 1759.48,1022.38 1765.94,899.547 1772.4,218.531 1778.86,869.209 1785.32,883.624 1791.78,1130.13 1798.24,1290.73 1804.7,1445.72 1811.16,1056.19 1817.62,1191.73 1824.08,1220.11 1830.54,1008.43 1837,1050.6 1843.46,1231.83 1849.92,1204.5 1856.38,1182.46 1862.84,1298.73 1869.3,1301.27 1875.76,1195.43 1882.22,1206.23 1888.68,1261.3 1895.14,1191.49 1901.6,1232.45 1908.06,1302.98 1914.52,1284.58 1920.98,1223.84 1927.44,1167.08 1933.9,1265.48 1940.36,1202.29 1946.82,1116.02 1953.28,1211.95 1959.74,1233.25 1966.2,1251.45 1972.66,1099.06 1979.12,812.733 1985.58,867.074 1992.04,876.772 1998.5,1149.51 2004.96,1115.02 2011.42,940.644 2017.88,889.115 2024.34,1012.71 2030.8,1038.83 2037.26,1016.8 2043.72,1128.71 2050.18,1166.88 2056.64,1133.92 2063.1,1148.53 2069.56,1023.61 2076.02,993.042 2082.48,87.9763 2088.94,618.221 2095.4,838.922 2101.86,484.936 2108.32,838.826 2114.78,724.952 2121.23,877.784 2127.69,666.167 2134.15,801.026 2140.61,927.935 2147.07,824.484 2153.53,894.316 2159.99,962.618 2166.45,1010.04 2172.91,760.691 2179.37,1052.42 2185.83,1201.39 2192.29,766.723 2198.75,693.779 2205.21,995.242 2211.67,804.395 2218.13,790.907 2224.59,1099.31 2231.05,1178.44 2237.51,949.967 2243.97,986.345 2250.43,1054.53 2256.89,924.222 2263.35,941.379 2269.81,1210.59 2276.27,1091.27 2282.73,818.15 2289.19,758.69 2295.65,982.409 2302.11,187.978 2308.57,775.143 2315.03,1095.87 2321.49,982.796 2327.95,669.47" stroke="#8be9fd" stroke-linecap="butt" stroke-linejoin="round" stroke-width="4" stroke-opacity="1" fill="none"/><path clip-path="url(#clip290)" d="M1948.05 198.898h375.49V95.218h-375.49z" fill="#282a36" fill-rule="evenodd" fill-opacity="1"/><polyline clip-path="url(#clip290)" points="1948.05,198.898 2323.54,198.898 2323.54,95.2176 1948.05,95.2176 1948.05,198.898" stroke="#f8f8f2" stroke-linecap="butt" stroke-linejoin="round" stroke-width="4" stroke-opacity="1" fill="none"/><polyline clip-path="url(#clip290)" points="1957.79,147.058 2016.22,147.058" stroke="#8be9fd" stroke-linecap="butt" stroke-linejoin="round" stroke-width="4" stroke-opacity="1" fill="none"/><path clip-path="url(#clip290)" d="M2025.96 129.778h29.24v3.935h-12.27v30.625h-4.7v-30.625h-12.27v-3.935z" fill="#f8f8f2" fill-rule="evenodd" fill-opacity="1"/><path clip-path="url(#clip290)" d="M2061.52 141.398q-3.43 0-5.42 2.685-1.99 2.662-1.99 7.315 0 4.653 1.97 7.338 1.99 2.662 5.44 2.662 3.4 0 5.39-2.685 1.99-2.686 1.99-7.315 0-4.607-1.99-7.292-1.99-2.708-5.39-2.708m0-3.611q5.55 0 8.72 3.611 3.18 3.611 3.18 10 0 6.366-3.18 10-3.17 3.611-8.72 3.611-5.58 0-8.75-3.611-3.15-3.634-3.15-10 0-6.389 3.15-10 3.17-3.611 8.75-3.611zm23.17-6.736v7.361h8.77v3.31h-8.77v14.074q0 3.171.86 4.074.88.903 3.54.903h4.37v3.565h-4.37q-4.93 0-6.81-1.829-1.87-1.852-1.87-6.713v-14.074h-3.13v-3.31h3.13v-7.361h4.28zm26.16 20.254q-5.17 0-7.16 1.181-1.99 1.18-1.99 4.028 0 2.268 1.48 3.611 1.51 1.319 4.08 1.319 3.54 0 5.67-2.5 2.15-2.523 2.15-6.69v-.949h-4.23m8.49-1.759v14.792h-4.26v-3.936q-1.46 2.361-3.63 3.496-2.18 1.111-5.33 1.111-3.98 0-6.34-2.222-2.34-2.246-2.34-5.996 0-4.375 2.92-6.597 2.94-2.222 8.75-2.222h5.97v-.417q0-2.94-1.94-4.537-1.92-1.62-5.42-1.62-2.22 0-4.33.532-2.1.533-4.05 1.597v-3.935q2.34-.902 4.54-1.342 2.2-.463 4.28-.463 5.63 0 8.4 2.916 2.78 2.917 2.78 8.843zm8.77-21.227h4.26v36.019h-4.26v-36.019zm23.64 1.459h29.23v3.935h-12.26v30.625h-4.7v-30.625h-12.27v-3.935z" fill="#f8f8f2" fill-rule="evenodd" fill-opacity="1"/><path clip-path="url(#clip290)" d="M2193.37 142.393q-.72-.416-1.57-.602-.84-.208-1.86-.208-3.61 0-5.55 2.361-1.92 2.338-1.92 6.736v13.658h-4.29v-25.926h4.29v4.028q1.34-2.362 3.49-3.496 2.15-1.157 5.23-1.157.44 0 .98.069.53.047 1.18.162l.02 4.375zm16.25 8.912q-5.16 0-7.15 1.181-1.99 1.18-1.99 4.028 0 2.268 1.48 3.611 1.5 1.319 4.07 1.319 3.54 0 5.67-2.5 2.16-2.523 2.16-6.69v-.949h-4.24m8.49-1.759v14.792h-4.25v-3.936q-1.46 2.361-3.64 3.496-2.18 1.111-5.32 1.111-3.98 0-6.35-2.222-2.33-2.246-2.33-5.996 0-4.375 2.91-6.597 2.94-2.222 8.75-2.222h5.98v-.417q0-2.94-1.95-4.537-1.92-1.62-5.42-1.62-2.22 0-4.32.532-2.11.533-4.06 1.597v-3.935q2.34-.902 4.54-1.342 2.2-.463 4.28-.463 5.63 0 8.41 2.916 2.77 2.917 2.77 8.843zm25.84-7.199v-14.028h4.26v36.019h-4.26v-3.889q-1.35 2.314-3.41 3.449-2.03 1.111-4.9 1.111-4.7 0-7.66-3.75-2.94-3.75-2.94-9.861 0-6.111 2.94-9.861 2.96-3.75 7.66-3.75 2.87 0 4.9 1.134 2.06 1.111 3.41 3.426m-14.52 9.051q0 4.699 1.93 7.384 1.94 2.662 5.32 2.662 3.38 0 5.32-2.662 1.95-2.685 1.95-7.384t-1.95-7.361q-1.94-2.685-5.32-2.685-3.38 0-5.32 2.685-1.93 2.662-1.93 7.361zm49.73-1.088v2.083h-19.59q.28 4.398 2.64 6.713 2.39 2.292 6.62 2.292 2.46 0 4.75-.602 2.31-.602 4.58-1.806v4.028q-2.29.972-4.7 1.482-2.41.509-4.88.509-6.21 0-9.84-3.611-3.61-3.611-3.61-9.769 0-6.365 3.42-10.092 3.45-3.75 9.29-3.75 5.23 0 8.26 3.379 3.06 3.357 3.06 9.144m-4.26-1.25q-.05-3.495-1.97-5.579-1.9-2.083-5.05-2.083-3.56 0-5.71 2.014-2.13 2.014-2.46 5.671l15.19-.023zm27.77-9.884v4.027q-1.8-.926-3.75-1.388-1.94-.463-4.02-.463-3.17 0-4.77.972-1.58.972-1.58 2.916 0 1.482 1.14 2.338 1.13.834 4.56 1.598l1.46.324q4.53.972 6.43 2.754 1.92 1.76 1.92 4.931 0 3.611-2.87 5.717-2.84 2.107-7.84 2.107-2.09 0-4.36-.417-2.24-.393-4.74-1.204v-4.398q2.36 1.227 4.65 1.852 2.29.602 4.54.602 3.01 0 4.63-1.018 1.62-1.042 1.62-2.917 0-1.736-1.18-2.662-1.16-.926-5.12-1.783l-1.48-.347q-3.96-.833-5.72-2.546-1.76-1.736-1.76-4.745 0-3.658 2.6-5.648 2.59-1.991 7.36-1.991 2.36 0 4.44.347 2.08.347 3.84 1.042z" fill="#f8f8f2" fill-rule="evenodd" fill-opacity="1"/></svg>