<svg xmlns="http://www.w3.org/2000/svg" width="600" height="400" viewBox="0 0 2400 1600"><defs><clipPath id="clip650"><rect x="0" y="0" width="2400" height="1600"/></clipPath></defs><path clip-path="url(#clip650)" d="M0 1600h2400V0H0z" fill="#282a36" fill-rule="evenodd" fill-opacity="1"/><defs><clipPath id="clip651"><rect x="480" y="0" width="1681" height="1600"/></clipPath></defs><path clip-path="url(#clip650)" d="M276.76 1486.45h2076V47.244h-2076z" fill="#30343b" fill-rule="evenodd" fill-opacity="1"/><defs><clipPath id="clip652"><rect x="276" y="47" width="2077" height="1440"/></clipPath></defs><polyline clip-path="url(#clip652)" points="335.514,1486.45 335.514,47.2441" stroke="#f8f8f2" stroke-linecap="butt" stroke-linejoin="round" stroke-width="2" stroke-opacity=".1" fill="none"/><polyline clip-path="url(#clip652)" points="498.835,1486.45 498.835,47.2441" stroke="#f8f8f2" stroke-linecap="butt" stroke-linejoin="round" stroke-width="2" stroke-opacity=".1" fill="none"/><polyline clip-path="url(#clip652)" points="662.156,1486.45 662.156,47.2441" stroke="#f8f8f2" stroke-linecap="butt" stroke-linejoin="round" stroke-width="2" stroke-opacity=".1" fill="none"/><polyline clip-path="url(#clip652)" points="825.476,1486.45 825.476,47.2441" stroke="#f8f8f2" stroke-linecap="butt" stroke-linejoin="round" stroke-width="2" stroke-opacity=".1" fill="none"/><polyline clip-path="url(#clip652)" points="988.797,1486.45 988.797,47.2441" stroke="#f8f8f2" stroke-linecap="butt" stroke-linejoin="round" stroke-width="2" stroke-opacity=".1" fill="none"/><polyline clip-path="url(#clip652)" points="1152.12,1486.45 1152.12,47.2441" stroke="#f8f8f2" stroke-linecap="butt" stroke-linejoin="round" stroke-width="2" stroke-opacity=".1" fill="none"/><polyline clip-path="url(#clip652)" points="1315.44,1486.45 1315.44,47.2441" stroke="#f8f8f2" stroke-linecap="butt" stroke-linejoin="round" stroke-width="2" stroke-opacity=".1" fill="none"/><polyline clip-path="url(#clip652)" points="1478.76,1486.45 1478.76,47.2441" stroke="#f8f8f2" stroke-linecap="butt" stroke-linejoin="round" stroke-width="2" stroke-opacity=".1" fill="none"/><polyline clip-path="url(#clip652)" points="1642.08,1486.45 1642.08,47.2441" stroke="#f8f8f2" stroke-linecap="butt" stroke-linejoin="round" stroke-width="2" stroke-opacity=".1" fill="none"/><polyline clip-path="url(#clip652)" points="1805.4,1486.45 1805.4,47.2441" stroke="#f8f8f2" stroke-linecap="butt" stroke-linejoin="round" stroke-width="2" stroke-opacity=".1" fill="none"/><polyline clip-path="url(#clip652)" points="1968.72,1486.45 1968.72,47.2441" stroke="#f8f8f2" stroke-linecap="butt" stroke-linejoin="round" stroke-width="2" stroke-opacity=".1" fill="none"/><polyline clip-path="url(#clip652)" points="2132.04,1486.45 2132.04,47.2441" stroke="#f8f8f2" stroke-linecap="butt" stroke-linejoin="round" stroke-width="2" stroke-opacity=".1" fill="none"/><polyline clip-path="url(#clip650)" points="276.76,1486.45 2352.76,1486.45" stroke="#f8f8f2" stroke-linecap="butt" stroke-linejoin="round" stroke-width="4" stroke-opacity="1" fill="none"/><polyline clip-path="url(#clip650)" points="335.514,1486.45 335.514,1467.55" stroke="#f8f8f2" stroke-linecap="butt" stroke-linejoin="round" stroke-width="4" stroke-opacity="1" fill="none"/><polyline clip-path="url(#clip650)" points="498.835,1486.45 498.835,1467.55" stroke="#f8f8f2" stroke-linecap="butt" stroke-linejoin="round" stroke-width="4" stroke-opacity="1" fill="none"/><polyline clip-path="url(#clip650)" points="662.156,1486.45 662.156,1467.55" stroke="#f8f8f2" stroke-linecap="butt" stroke-linejoin="round" stroke-width="4" stroke-opacity="1" fill="none"/><polyline clip-path="url(#clip650)" points="825.476,1486.45 825.476,1467.55" stroke="#f8f8f2" stroke-linecap="butt" stroke-linejoin="round" stroke-width="4" stroke-opacity="1" fill="none"/><polyline clip-path="url(#clip650)" points="988.797,1486.45 988.797,1467.55" stroke="#f8f8f2" stroke-linecap="butt" stroke-linejoin="round" stroke-width="4" stroke-opacity="1" fill="none"/><polyline clip-path="url(#clip650)" points="1152.12,1486.45 1152.12,1467.55" stroke="#f8f8f2" stroke-linecap="butt" stroke-linejoin="round" stroke-width="4" stroke-opacity="1" fill="none"/><polyline clip-path="url(#clip650)" points="1315.44,1486.45 1315.44,1467.55" stroke="#f8f8f2" stroke-linecap="butt" stroke-linejoin="round" stroke-width="4" stroke-opacity="1" fill="none"/><polyline clip-path="url(#clip650)" points="1478.76,1486.45 1478.76,1467.55" stroke="#f8f8f2" stroke-linecap="butt" stroke-linejoin="round" stroke-width="4" stroke-opacity="1" fill="none"/><polyline clip-path="url(#clip650)" points="1642.08,1486.45 1642.08,1467.55" stroke="#f8f8f2" stroke-linecap="butt" stroke-linejoin="round" stroke-width="4" stroke-opacity="1" fill="none"/><polyline clip-path="url(#clip650)" points="1805.4,1486.45 1805.4,1467.55" stroke="#f8f8f2" stroke-linecap="butt" stroke-linejoin="round" stroke-width="4" stroke-opacity="1" fill="none"/><polyline clip-path="url(#clip650)" points="1968.72,1486.45 1968.72,1467.55" stroke="#f8f8f2" stroke-linecap="butt" stroke-linejoin="round" stroke-width="4" stroke-opacity="1" fill="none"/><polyline clip-path="url(#clip650)" points="2132.04,1486.45 2132.04,1467.55" stroke="#f8f8f2" stroke-linecap="butt" stroke-linejoin="round" stroke-width="4" stroke-opacity="1" fill="none"/><path clip-path="url(#clip650)" d="M282.285 1517.37q-3.611 0-5.439 3.56-1.806 3.54-1.806 10.67 0 7.11 1.806 10.67 1.828 3.55 5.439 3.55 3.635 0 5.44-3.55 1.829-3.56 1.829-10.67 0-7.13-1.829-10.67-1.805-3.56-5.44-3.56m0-3.71q5.811 0 8.866 4.61 3.079 4.58 3.079 13.33 0 8.73-3.079 13.34-3.055 4.58-8.866 4.58-5.81 0-8.888-4.58-3.056-4.61-3.056-13.34 0-8.75 3.056-13.33 3.078-4.61 8.888-4.61zm30.162 3.71q-3.611 0-5.44 3.56-1.805 3.54-1.805 10.67 0 7.11 1.805 10.67 1.829 3.55 5.44 3.55 3.634 0 5.44-3.55 1.829-3.56 1.829-10.67 0-7.13-1.829-10.67-1.806-3.56-5.44-3.56m0-3.71q5.81 0 8.866 4.61 3.079 4.58 3.079 13.33 0 8.73-3.079 13.34-3.056 4.58-8.866 4.58t-8.889-4.58q-3.055-4.61-3.055-13.34 0-8.75 3.055-13.33 3.079-4.61 8.889-4.61zm20.648 29.31h4.885v5.88h-4.885v-5.88m0-18.64h4.885v5.88h-4.885v-5.88zm25.486-6.96q-3.611 0-5.44 3.56-1.805 3.54-1.805 10.67 0 7.11 1.805 10.67 1.829 3.55 5.44 3.55 3.634 0 5.44-3.55 1.829-3.56 1.829-10.67 0-7.13-1.829-10.67-1.806-3.56-5.44-3.56m0-3.71q5.81 0 8.866 4.61 3.079 4.58 3.079 13.33 0 8.73-3.079 13.34-3.056 4.58-8.866 4.58t-8.889-4.58q-3.055-4.61-3.055-13.34 0-8.75 3.055-13.33 3.079-4.61 8.889-4.61zm30.162 3.71q-3.611 0-5.44 3.56-1.805 3.54-1.805 10.67 0 7.11 1.805 10.67 1.829 3.55 5.44 3.55 3.634 0 5.44-3.55 1.829-3.56 1.829-10.67 0-7.13-1.829-10.67-1.806-3.56-5.44-3.56m0-3.71q5.81 0 8.866 4.61 3.079 4.58 3.079 13.33 0 8.73-3.079 13.34-3.056 4.58-8.866 4.58t-8.889-4.58q-3.055-4.61-3.055-13.34 0-8.75 3.055-13.33 3.079-4.61 8.889-4.61zm56.863 3.71q-3.611 0-5.44 3.56-1.805 3.54-1.805 10.67 0 7.11 1.805 10.67 1.829 3.55 5.44 3.55 3.634 0 5.44-3.55 1.829-3.56 1.829-10.67 0-7.13-1.829-10.67-1.806-3.56-5.44-3.56m0-3.71q5.81 0 8.866 4.61 3.078 4.58 3.078 13.33 0 8.73-3.078 13.34-3.056 4.58-8.866 4.58t-8.889-4.58q-3.055-4.61-3.055-13.34 0-8.75 3.055-13.33 3.079-4.61 8.889-4.61zm24.19 31.25h16.319v3.94h-21.944v-3.94q2.662-2.75 7.245-7.38 4.607-4.65 5.787-6 2.245-2.52 3.125-4.26.903-1.76.903-3.45 0-2.75-1.945-4.49-1.921-1.73-5.023-1.73-2.199 0-4.652.76-2.431.77-5.209 2.32v-4.73q2.824-1.13 5.278-1.71 2.454-.58 4.491-.58 5.37 0 8.564 2.69 3.195 2.68 3.195 7.17 0 2.13-.81 4.05-.787 1.9-2.894 4.5-.578.67-3.68 3.88-3.102 3.2-8.75 8.96zm26.62-1.94h4.884v5.88h-4.884v-5.88m0-18.64h4.884v5.88h-4.884v-5.88zm25.486-6.96q-3.611 0-5.44 3.56-1.805 3.54-1.805 10.67 0 7.11 1.805 10.67 1.829 3.55 5.44 3.55 3.634 0 5.44-3.55 1.828-3.56 1.828-10.67 0-7.13-1.828-10.67-1.806-3.56-5.44-3.56m0-3.71q5.81 0 8.866 4.61 3.078 4.58 3.078 13.33 0 8.73-3.078 13.34-3.056 4.58-8.866 4.58t-8.889-4.58q-3.055-4.61-3.055-13.34 0-8.75 3.055-13.33 3.079-4.61 8.889-4.61zm30.162 3.71q-3.611 0-5.44 3.56-1.806 3.54-1.806 10.67 0 7.11 1.806 10.67 1.829 3.55 5.44 3.55 3.634 0 5.44-3.55 1.828-3.56 1.828-10.67 0-7.13-1.828-10.67-1.806-3.56-5.44-3.56m0-3.71q5.81 0 8.865 4.61 3.079 4.58 3.079 13.33 0 8.73-3.079 13.34-3.055 4.58-8.865 4.58-5.81 0-8.889-4.58-3.056-4.61-3.056-13.34 0-8.75 3.056-13.33 3.079-4.61 8.889-4.61zm56.863 3.71q-3.611 0-5.44 3.56-1.806 3.54-1.806 10.67 0 7.11 1.806 10.67 1.829 3.55 5.44 3.55 3.634 0 5.439-3.55 1.829-3.56 1.829-10.67 0-7.13-1.829-10.67-1.805-3.56-5.439-3.56m0-3.71q5.81 0 8.865 4.61 3.079 4.58 3.079 13.33 0 8.73-3.079 13.34-3.055 4.58-8.865 4.58-5.81 0-8.889-4.58-3.056-4.61-3.056-13.34 0-8.75 3.056-13.33 3.079-4.61 8.889-4.61zm33.009 4.7l-11.806 18.45h11.806v-18.45m-1.227-4.07h5.88v22.52h4.93v3.89h-4.93v8.15h-4.653v-8.15h-15.602v-4.51l14.375-21.9zm19.028 28.68h4.884v5.88h-4.884v-5.88m0-18.64h4.884v5.88h-4.884v-5.88zm25.486-6.96q-3.612 0-5.44 3.56-1.806 3.54-1.806 10.67 0 7.11 1.806 10.67 1.828 3.55 5.44 3.55 3.634 0 5.439-3.55 1.829-3.56 1.829-10.67 0-7.13-1.829-10.67-1.805-3.56-5.439-3.56m0-3.71q5.81 0 8.865 4.61 3.079 4.58 3.079 13.33 0 8.73-3.079 13.34-3.055 4.58-8.865 4.58-5.811 0-8.889-4.58-3.056-4.61-3.056-13.34 0-8.75 3.056-13.33 3.078-4.61 8.889-4.61zm30.161 3.71q-3.611 0-5.439 3.56-1.806 3.54-1.806 10.67 0 7.11 1.806 10.67 1.828 3.55 5.439 3.55 3.635 0 5.44-3.55 1.829-3.56 1.829-10.67 0-7.13-1.829-10.67-1.805-3.56-5.44-3.56m0-3.71q5.811 0 8.866 4.61 3.079 4.58 3.079 13.33 0 8.73-3.079 13.34-3.055 4.58-8.866 4.58-5.81 0-8.888-4.58-3.056-4.61-3.056-13.34 0-8.75 3.056-13.33 3.078-4.61 8.888-4.61zm56.863 3.71q-3.611 0-5.439 3.56-1.806 3.54-1.806 10.67 0 7.11 1.806 10.67 1.828 3.55 5.439 3.55 3.635 0 5.44-3.55 1.829-3.56 1.829-10.67 0-7.13-1.829-10.67-1.805-3.56-5.44-3.56m0-3.71q5.811 0 8.866 4.61 3.079 4.58 3.079 13.33 0 8.73-3.079 13.34-3.055 4.58-8.866 4.58-5.81 0-8.888-4.58-3.056-4.61-3.056-13.34 0-8.75 3.056-13.33 3.078-4.61 8.888-4.61zm30.741 16.04q-3.148 0-5 2.16-1.829 2.15-1.829 5.9 0 3.73 1.829 5.9 1.852 2.16 5 2.16 3.148 0 4.977-2.16 1.852-2.17 1.852-5.9 0-3.75-1.852-5.9-1.829-2.16-4.977-2.16m9.282-14.65v4.26q-1.759-.83-3.564-1.27-1.783-.44-3.542-.44-4.63 0-7.083 3.12-2.431 3.13-2.778 9.45 1.366-2.02 3.426-3.08 2.06-1.09 4.537-1.09 5.208 0 8.217 3.17 3.033 3.15 3.033 8.59 0 5.32-3.148 8.54-3.149 3.22-8.38 3.22-5.995 0-9.167-4.58-3.171-4.61-3.171-13.34 0-8.19 3.889-13.05 3.889-4.89 10.44-4.89 1.759 0 3.541.35 1.806.35 3.75 1.04zm10.787 27.92h4.885v5.88h-4.885v-5.88m0-18.64h4.885v5.88h-4.885v-5.88zm25.486-6.96q-3.611 0-5.44 3.56-1.805 3.54-1.805 10.67 0 7.11 1.805 10.67 1.829 3.55 5.44 3.55 3.635 0 5.44-3.55 1.829-3.56 1.829-10.67 0-7.13-1.829-10.67-1.805-3.56-5.44-3.56m0-3.71q5.81 0 8.866 4.61 3.079 4.58 3.079 13.33 0 8.73-3.079 13.34-3.056 4.58-8.866 4.58t-8.889-4.58q-3.055-4.61-3.055-13.34 0-8.75 3.055-13.33 3.079-4.61 8.889-4.61zm30.162 3.71q-3.611 0-5.44 3.56-1.805 3.54-1.805 10.67 0 7.11 1.805 10.67 1.829 3.55 5.44 3.55 3.634 0 5.44-3.55 1.829-3.56 1.829-10.67 0-7.13-1.829-10.67-1.806-3.56-5.44-3.56m0-3.71q5.81 0 8.866 4.61 3.079 4.58 3.079 13.33 0 8.73-3.079 13.34-3.056 4.58-8.866 4.58t-8.889-4.58q-3.055-4.61-3.055-13.34 0-8.75 3.055-13.33 3.079-4.61 8.889-4.61zm56.863 3.71q-3.611 0-5.44 3.56-1.805 3.54-1.805 10.67 0 7.11 1.805 10.67 1.829 3.55 5.44 3.55 3.634 0 5.44-3.55 1.829-3.56 1.829-10.67 0-7.13-1.829-10.67-1.806-3.56-5.44-3.56m0-3.71q5.81 0 8.866 4.61 3.078 4.58 3.078 13.33 0 8.73-3.078 13.34-3.056 4.58-8.866 4.58t-8.889-4.58q-3.055-4.61-3.055-13.34 0-8.75 3.055-13.33 3.079-4.61 8.889-4.61zm30.162 18.78q-3.333 0-5.255 1.78-1.898 1.78-1.898 4.91 0 3.12 1.898 4.9 1.922 1.79 5.255 1.79t5.255-1.79q1.921-1.8 1.921-4.9 0-3.13-1.921-4.91-1.899-1.78-5.255-1.78m-4.676-1.99q-3.009-.75-4.699-2.81-1.667-2.06-1.667-5.02 0-4.14 2.94-6.55 2.963-2.41 8.102-2.41 5.162 0 8.102 2.41 2.94 2.41 2.94 6.55 0 2.96-1.69 5.02-1.667 2.06-4.653 2.81 3.38.78 5.255 3.07 1.898 2.3 1.898 5.61 0 5.02-3.079 7.7-3.056 2.69-8.773 2.69-5.718 0-8.796-2.69-3.056-2.68-3.056-7.7 0-3.31 1.898-5.61 1.898-2.29 5.278-3.07m-1.713-7.39q0 2.69 1.667 4.19 1.69 1.51 4.722 1.51 3.009 0 4.699-1.51 1.713-1.5 1.713-4.19 0-2.68-1.713-4.19-1.69-1.5-4.699-1.5-3.032 0-4.722 1.5-1.667 1.51-1.667 4.19zm27.037 19.91h4.884v5.88h-4.884v-5.88m0-18.64h4.884v5.88h-4.884v-5.88zm25.482-6.96q-3.61 0-5.44 3.56-1.8 3.54-1.8 10.67 0 7.11 1.8 10.67 1.83 3.55 5.44 3.55 3.64 0 5.44-3.55 1.83-3.56 1.83-10.67 0-7.13-1.83-10.67-1.8-3.56-5.44-3.56m0-3.71q5.81 0 8.87 4.61 3.08 4.58 3.08 13.33 0 8.73-3.08 13.34-3.06 4.58-8.87 4.58-5.81 0-8.88-4.58-3.06-4.61-3.06-13.34 0-8.75 3.06-13.33 3.07-4.61 8.88-4.61zm30.17 3.71q-3.62 0-5.44 3.56-1.81 3.54-1.81 10.67 0 7.11 1.81 10.67 1.82 3.55 5.44 3.55 3.63 0 5.44-3.55 1.82-3.56 1.82-10.67 0-7.13-1.82-10.67-1.81-3.56-5.44-3.56m0-3.71q5.81 0 8.86 4.61 3.08 4.58 3.08 13.33 0 8.73-3.08 13.34-3.05 4.58-8.86 4.58t-8.89-4.58q-3.06-4.61-3.06-13.34 0-8.75 3.06-13.33 3.08-4.61 8.89-4.61zm46.63 31.25h7.64v-26.36l-8.31 1.66v-4.26l8.26-1.66h4.68v30.62h7.63v3.94h-19.9v-3.94zm39.35-27.54q-3.61 0-5.44 3.56-1.81 3.54-1.81 10.67 0 7.11 1.81 10.67 1.83 3.55 5.44 3.55 3.63 0 5.44-3.55 1.83-3.56 1.83-10.67 0-7.13-1.83-10.67-1.81-3.56-5.44-3.56m0-3.71q5.81 0 8.86 4.61 3.08 4.58 3.08 13.33 0 8.73-3.08 13.34-3.05 4.58-8.86 4.58t-8.89-4.58q-3.06-4.61-3.06-13.34 0-8.75 3.06-13.33 3.08-4.61 8.89-4.61zm20.65 29.31h4.88v5.88h-4.88v-5.88m0-18.64h4.88v5.88h-4.88v-5.88zm25.48-6.96q-3.61 0-5.44 3.56-1.8 3.54-1.8 10.67 0 7.11 1.8 10.67 1.83 3.55 5.44 3.55 3.64 0 5.44-3.55 1.83-3.56 1.83-10.67 0-7.13-1.83-10.67-1.8-3.56-5.44-3.56m0-3.71q5.81 0 8.87 4.61 3.08 4.58 3.08 13.33 0 8.73-3.08 13.34-3.06 4.58-8.87 4.58-5.81 0-8.89-4.58-3.05-4.61-3.05-13.34 0-8.75 3.05-13.33 3.08-4.61 8.89-4.61zm30.16 3.71q-3.61 0-5.43 3.56-1.81 3.54-1.81 10.67 0 7.11 1.81 10.67 1.82 3.55 5.43 3.55 3.64 0 5.44-3.55 1.83-3.56 1.83-10.67 0-7.13-1.83-10.67-1.8-3.56-5.44-3.56m0-3.71q5.81 0 8.87 4.61 3.08 4.58 3.08 13.33 0 8.73-3.08 13.34-3.06 4.58-8.87 4.58-5.81 0-8.88-4.58-3.06-4.61-3.06-13.34 0-8.75 3.06-13.33 3.07-4.61 8.88-4.61zm47.68 31.25h7.64v-26.36l-8.31 1.66v-4.26l8.26-1.66h4.68v30.62h7.64v3.94h-19.91v-3.94zm33.38 0h16.32v3.94h-21.95v-3.94q2.66-2.75 7.25-7.38 4.6-4.65 5.78-6 2.25-2.52 3.13-4.26.9-1.76.9-3.45 0-2.75-1.94-4.49-1.92-1.73-5.03-1.73-2.19 0-4.65.76-2.43.77-5.21 2.32v-4.73q2.83-1.13 5.28-1.71 2.46-.58 4.49-.58 5.37 0 8.57 2.69 3.19 2.68 3.19 7.17 0 2.13-.81 4.05-.79 1.9-2.89 4.5-.58.67-3.68 3.88-3.1 3.2-8.75 8.96zm26.62-1.94h4.88v5.88h-4.88v-5.88m0-18.64h4.88v5.88h-4.88v-5.88zm25.48-6.96q-3.61 0-5.44 3.56-1.8 3.54-1.8 10.67 0 7.11 1.8 10.67 1.83 3.55 5.44 3.55 3.64 0 5.44-3.55 1.83-3.56 1.83-10.67 0-7.13-1.83-10.67-1.8-3.56-5.44-3.56m0-3.71q5.81 0 8.87 4.61 3.08 4.58 3.08 13.33 0 8.73-3.08 13.34-3.06 4.58-8.87 4.58-5.81 0-8.89-4.58-3.05-4.61-3.05-13.34 0-8.75 3.05-13.33 3.08-4.61 8.89-4.61zm30.17 3.71q-3.62 0-5.44 3.56-1.81 3.54-1.81 10.67 0 7.11 1.81 10.67 1.82 3.55 5.44 3.55 3.63 0 5.44-3.55 1.82-3.56 1.82-10.67 0-7.13-1.82-10.67-1.81-3.56-5.44-3.56m0-3.71q5.81 0 8.86 4.61 3.08 4.58 3.08 13.33 0 8.73-3.08 13.34-3.05 4.58-8.86 4.58t-8.89-4.58q-3.06-4.61-3.06-13.34 0-8.75 3.06-13.33 3.08-4.61 8.89-4.61zm47.67 31.25h7.64v-26.36l-8.31 1.66v-4.26l8.26-1.66h4.68v30.62h7.64v3.94h-19.91v-3.94zm42.2-26.55l-11.81 18.45h11.81v-18.45m-1.23-4.07h5.88v22.52h4.93v3.89h-4.93v8.15h-4.65v-8.15h-15.6v-4.51l14.37-21.9zm19.03 28.68h4.88v5.88h-4.88v-5.88m0-18.64h4.88v5.88h-4.88v-5.88zm25.48-6.96q-3.61 0-5.44 3.56-1.8 3.54-1.8 10.67 0 7.11 1.8 10.67 1.83 3.55 5.44 3.55 3.64 0 5.44-3.55 1.83-3.56 1.83-10.67 0-7.13-1.83-10.67-1.8-3.56-5.44-3.56m0-3.71q5.81 0 8.87 4.61 3.08 4.58 3.08 13.33 0 8.73-3.08 13.34-3.06 4.58-8.87 4.58-5.81 0-8.88-4.58-3.06-4.61-3.06-13.34 0-8.75 3.06-13.33 3.07-4.61 8.88-4.61zm30.17 3.71q-3.61 0-5.44 3.56-1.81 3.54-1.81 10.67 0 7.11 1.81 10.67 1.83 3.55 5.44 3.55 3.63 0 5.44-3.55 1.82-3.56 1.82-10.67 0-7.13-1.82-10.67-1.81-3.56-5.44-3.56m0-3.71q5.81 0 8.86 4.61 3.08 4.58 3.08 13.33 0 8.73-3.08 13.34-3.05 4.58-8.86 4.58t-8.89-4.58q-3.06-4.61-3.06-13.34 0-8.75 3.06-13.33 3.08-4.61 8.89-4.61zm47.67 31.25h7.64v-26.36l-8.31 1.66v-4.26l8.26-1.66h4.68v30.62h7.64v3.94h-19.91v-3.94zm39.93-15.21q-3.15 0-5 2.16-1.83 2.15-1.83 5.9 0 3.73 1.83 5.9 1.85 2.16 5 2.16t4.98-2.16q1.85-2.17 1.85-5.9 0-3.75-1.85-5.9-1.83-2.16-4.98-2.16m9.28-14.65v4.26q-1.76-.83-3.56-1.27-1.79-.44-3.54-.44-4.63 0-7.09 3.12-2.43 3.13-2.78 9.45 1.37-2.02 3.43-3.08 2.06-1.09 4.54-1.09 5.21 0 8.21 3.17 3.04 3.15 3.04 8.59 0 5.32-3.15 8.54-3.15 3.22-8.38 3.22-6 0-9.17-4.58-3.17-4.61-3.17-13.34 0-8.19 3.89-13.05 3.89-4.89 10.44-4.89 1.76 0 3.54.35 1.81.35 3.75 1.04zm10.79 27.92h4.88v5.88h-4.88v-5.88m0-18.64h4.88v5.88h-4.88v-5.88zm25.48-6.96q-3.61 0-5.43 3.56-1.81 3.54-1.81 10.67 0 7.11 1.81 10.67 1.82 3.55 5.43 3.55 3.64 0 5.44-3.55 1.83-3.56 1.83-10.67 0-7.13-1.83-10.67-1.8-3.56-5.44-3.56m0-3.71q5.82 0 8.87 4.61 3.08 4.58 3.08 13.33 0 8.73-3.08 13.34-3.05 4.58-8.87 4.58-5.81 0-8.88-4.58-3.06-4.61-3.06-13.34 0-8.75 3.06-13.33 3.07-4.61 8.88-4.61zm30.17 3.71q-3.61 0-5.44 3.56-1.81 3.54-1.81 10.67 0 7.11 1.81 10.67 1.83 3.55 5.44 3.55 3.63 0 5.44-3.55 1.83-3.56 1.83-10.67 0-7.13-1.83-10.67-1.81-3.56-5.44-3.56m0-3.71q5.81 0 8.86 4.61 3.08 4.58 3.08 13.33 0 8.73-3.08 13.34-3.05 4.58-8.86 4.58t-8.89-4.58q-3.06-4.61-3.06-13.34 0-8.75 3.06-13.33 3.08-4.61 8.89-4.61zm47.67 31.25h7.64v-26.36l-8.31 1.66v-4.26l8.26-1.66h4.68v30.62h7.64v3.94h-19.91v-3.94zm39.35-12.47q-3.33 0-5.25 1.78-1.9 1.78-1.9 4.91 0 3.12 1.9 4.9 1.92 1.79 5.25 1.79t5.26-1.79q1.92-1.8 1.92-4.9 0-3.13-1.92-4.91-1.9-1.78-5.26-1.78m-4.67-1.99q-3.01-.75-4.7-2.81-1.67-2.06-1.67-5.02 0-4.14 2.94-6.55 2.96-2.41 8.1-2.41 5.16 0 8.1 2.41 2.94 2.41 2.94 6.55 0 2.96-1.69 5.02-1.66 2.06-4.65 2.81 3.38.78 5.26 3.07 1.89 2.3 1.89 5.61 0 5.02-3.08 7.7-3.05 2.69-8.77 2.69t-8.79-2.69q-3.06-2.68-3.06-7.7 0-3.31 1.9-5.61 1.9-2.29 5.28-3.07m-1.72-7.39q0 2.69 1.67 4.19 1.69 1.51 4.72 1.51 3.01 0 4.7-1.51 1.71-1.5 1.71-4.19 0-2.68-1.71-4.19-1.69-1.5-4.7-1.5-3.03 0-4.72 1.5-1.67 1.51-1.67 4.19zm27.04 19.91h4.88v5.88h-4.88v-5.88m0-18.64h4.88v5.88h-4.88v-5.88zm25.49-6.96q-3.62 0-5.44 3.56-1.81 3.54-1.81 10.67 0 7.11 1.81 10.67 1.82 3.55 5.44 3.55 3.63 0 5.44-3.55 1.82-3.56 1.82-10.67 0-7.13-1.82-10.67-1.81-3.56-5.44-3.56m0-3.71q5.81 0 8.86 4.61 3.08 4.58 3.08 13.33 0 8.73-3.08 13.34-3.05 4.58-8.86 4.58t-8.89-4.58q-3.06-4.61-3.06-13.34 0-8.75 3.06-13.33 3.08-4.61 8.89-4.61zm30.16 3.71q-3.61 0-5.44 3.56-1.81 3.54-1.81 10.67 0 7.11 1.81 10.67 1.83 3.55 5.44 3.55 3.63 0 5.44-3.55 1.83-3.56 1.83-10.67 0-7.13-1.83-10.67-1.81-3.56-5.44-3.56m0-3.71q5.81 0 8.86 4.61 3.08 4.58 3.08 13.33 0 8.73-3.08 13.34-3.05 4.58-8.86 4.58t-8.89-4.58q-3.06-4.61-3.06-13.34 0-8.75 3.06-13.33 3.08-4.61 8.89-4.61zm51.76 31.25h16.32v3.94h-21.95v-3.94q2.66-2.75 7.25-7.38 4.6-4.65 5.78-6 2.25-2.52 3.13-4.26.9-1.76.9-3.45 0-2.75-1.94-4.49-1.92-1.73-5.03-1.73-2.2 0-4.65.76-2.43.77-5.21 2.32v-4.73q2.83-1.13 5.28-1.71 2.45-.58 4.49-.58 5.37 0 8.57 2.69 3.19 2.68 3.19 7.17 0 2.13-.81 4.05-.79 1.9-2.89 4.5-.58.67-3.68 3.88-3.11 3.2-8.75 8.96zm36.13-27.54q-3.61 0-5.44 3.56-1.8 3.54-1.8 10.67 0 7.11 1.8 10.67 1.83 3.55 5.44 3.55 3.63 0 5.44-3.55 1.83-3.56 1.83-10.67 0-7.13-1.83-10.67-1.81-3.56-5.44-3.56m0-3.71q5.81 0 8.87 4.61 3.07 4.58 3.07 13.33 0 8.73-3.07 13.34-3.06 4.58-8.87 4.58-5.81 0-8.89-4.58-3.05-4.61-3.05-13.34 0-8.75 3.05-13.33 3.08-4.61 8.89-4.61zm20.65 29.31h4.88v5.88h-4.88v-5.88m0-18.64h4.88v5.88h-4.88v-5.88zm25.48-6.96q-3.61 0-5.44 3.56-1.8 3.54-1.8 10.67 0 7.11 1.8 10.67 1.83 3.55 5.44 3.55 3.64 0 5.44-3.55 1.83-3.56 1.83-10.67 0-7.13-1.83-10.67-1.8-3.56-5.44-3.56m0-3.71q5.81 0 8.87 4.61 3.08 4.58 3.08 13.33 0 8.73-3.08 13.34-3.06 4.58-8.87 4.58-5.81 0-8.88-4.58-3.06-4.61-3.06-13.34 0-8.75 3.06-13.33 3.07-4.61 8.88-4.61zm30.17 3.71q-3.61 0-5.44 3.56-1.81 3.54-1.81 10.67 0 7.11 1.81 10.67 1.83 3.55 5.44 3.55 3.63 0 5.44-3.55 1.82-3.56 1.82-10.67 0-7.13-1.82-10.67-1.81-3.56-5.44-3.56m0-3.71q5.81 0 8.86 4.61 3.08 4.58 3.08 13.33 0 8.73-3.08 13.34-3.05 4.58-8.86 4.58t-8.89-4.58q-3.06-4.61-3.06-13.34 0-8.75 3.06-13.33 3.08-4.61 8.89-4.61zm50.89 31.25h16.32v3.94h-21.95v-3.94q2.66-2.75 7.25-7.38 4.6-4.65 5.78-6 2.25-2.52 3.13-4.26.9-1.76.9-3.45 0-2.75-1.94-4.49-1.92-1.73-5.03-1.73-2.19 0-4.65.76-2.43.77-5.21 2.32v-4.73q2.83-1.13 5.28-1.71 2.45-.58 4.49-.58 5.37 0 8.57 2.69 3.19 2.68 3.19 7.17 0 2.13-.81 4.05-.79 1.9-2.89 4.5-.58.67-3.68 3.88-3.1 3.2-8.75 8.96zm30.16 0h16.32v3.94h-21.95v-3.94q2.67-2.75 7.25-7.38 4.61-4.65 5.79-6 2.24-2.52 3.12-4.26.9-1.76.9-3.45 0-2.75-1.94-4.49-1.92-1.73-5.02-1.73-2.2 0-4.66.76-2.43.77-5.2 2.32v-4.73q2.82-1.13 5.27-1.71 2.46-.58 4.49-.58 5.37 0 8.57 2.69 3.19 2.68 3.19 7.17 0 2.13-.81 4.05-.78 1.9-2.89 4.5-.58.67-3.68 3.88-3.1 3.2-8.75 8.96zm26.62-1.94h4.88v5.88h-4.88v-5.88m0-18.64h4.88v5.88h-4.88v-5.88zm25.49-6.96q-3.62 0-5.44 3.56-1.81 3.54-1.81 10.67 0 7.11 1.81 10.67 1.82 3.55 5.44 3.55 3.63 0 5.43-3.55 1.83-3.56 1.83-10.67 0-7.13-1.83-10.67-1.8-3.56-5.43-3.56m0-3.71q5.81 0 8.86 4.61 3.08 4.58 3.08 13.33 0 8.73-3.08 13.34-3.05 4.58-8.86 4.58-5.82 0-8.89-4.58-3.06-4.61-3.06-13.34 0-8.75 3.06-13.33 3.07-4.61 8.89-4.61zm30.16 3.71q-3.61 0-5.44 3.56-1.81 3.54-1.81 10.67 0 7.11 1.81 10.67 1.83 3.55 5.44 3.55 3.63 0 5.44-3.55 1.83-3.56 1.83-10.67 0-7.13-1.83-10.67-1.81-3.56-5.44-3.56m0-3.71q5.81 0 8.86 4.61 3.08 4.58 3.08 13.33 0 8.73-3.08 13.34-3.05 4.58-8.86 4.58t-8.89-4.58q-3.06-4.61-3.06-13.34 0-8.75 3.06-13.33 3.08-4.61 8.89-4.61z" fill="#f8f8f2" fill-rule="evenodd" fill-opacity="1"/><polyline clip-path="url(#clip652)" points="276.76,1225.51 2352.76,1225.51" stroke="#f8f8f2" stroke-linecap="butt" stroke-linejoin="round" stroke-width="2" stroke-opacity=".1" fill="none"/><polyline clip-path="url(#clip652)" points="276.76,935.484 2352.76,935.484" stroke="#f8f8f2" stroke-linecap="butt" stroke-linejoin="round" stroke-width="2" stroke-opacity=".1" fill="none"/><polyline clip-path="url(#clip652)" points="276.76,645.455 2352.76,645.455" stroke="#f8f8f2" stroke-linecap="butt" stroke-linejoin="round" stroke-width="2" stroke-opacity=".1" fill="none"/><polyline clip-path="url(#clip652)" points="276.76,355.426 2352.76,355.426" stroke="#f8f8f2" stroke-linecap="butt" stroke-linejoin="round" stroke-width="2" stroke-opacity=".1" fill="none"/><polyline clip-path="url(#clip652)" points="276.76,65.3972 2352.76,65.3972" stroke="#f8f8f2" stroke-linecap="butt" stroke-linejoin="round" stroke-width="2" stroke-opacity=".1" fill="none"/><polyline clip-path="url(#clip650)" points="276.76,1486.45 276.76,47.2441" stroke="#f8f8f2" stroke-linecap="butt" stroke-linejoin="round" stroke-width="4" stroke-opacity="1" fill="none"/><polyline clip-path="url(#clip650)" points="276.76,1225.51 295.657,1225.51" stroke="#f8f8f2" stroke-linecap="butt" stroke-linejoin="round" stroke-width="4" stroke-opacity="1" fill="none"/><polyline clip-path="url(#clip650)" points="276.76,935.484 295.657,935.484" stroke="#f8f8f2" stroke-linecap="butt" stroke-linejoin="round" stroke-width="4" stroke-opacity="1" fill="none"/><polyline clip-path="url(#clip650)" points="276.76,645.455 295.657,645.455" stroke="#f8f8f2" stroke-linecap="butt" stroke-linejoin="round" stroke-width="4" stroke-opacity="1" fill="none"/><polyline clip-path="url(#clip650)" points="276.76,355.426 295.657,355.426" stroke="#f8f8f2" stroke-linecap="butt" stroke-linejoin="round" stroke-width="4" stroke-opacity="1" fill="none"/><polyline clip-path="url(#clip650)" points="276.76,65.3972 295.657,65.3972" stroke="#f8f8f2" stroke-linecap="butt" stroke-linejoin="round" stroke-width="4" stroke-opacity="1" fill="none"/><path clip-path="url(#clip650)" d="M62.937 1211.31q-3.612 0-5.44 3.57-1.806 3.54-1.806 10.67 0 7.1 1.806 10.67 1.828 3.54 5.44 3.54 3.634 0 5.44-3.54 1.828-3.57 1.828-10.67 0-7.13-1.829-10.67-1.805-3.57-5.44-3.57m0-3.7q5.81 0 8.866 4.6 3.079 4.59 3.079 13.34 0 8.73-3.079 13.33-3.055 4.58-8.866 4.58-5.81 0-8.888-4.58-3.056-4.6-3.056-13.33 0-8.75 3.056-13.34 3.078-4.6 8.889-4.6zm20.162 29.3h4.885v5.88h-4.885v-5.88zm25.07-25.6q-3.611 0-5.44 3.57-1.806 3.54-1.806 10.67 0 7.1 1.806 10.67 1.829 3.54 5.44 3.54 3.634 0 5.44-3.54 1.828-3.57 1.828-10.67 0-7.13-1.828-10.67-1.806-3.57-5.44-3.57m0-3.7q5.81 0 8.865 4.6 3.079 4.59 3.079 13.34 0 8.73-3.079 13.33-3.055 4.58-8.865 4.58-5.81 0-8.89-4.58-3.055-4.6-3.055-13.33 0-8.75 3.056-13.34 3.079-4.6 8.889-4.6zm30.162 3.7q-3.611 0-5.44 3.57-1.806 3.54-1.806 10.67 0 7.1 1.806 10.67 1.829 3.54 5.44 3.54 3.634 0 5.439-3.54 1.829-3.57 1.829-10.67 0-7.13-1.829-10.67-1.805-3.57-5.439-3.57m0-3.7q5.81 0 8.865 4.6 3.079 4.59 3.079 13.34 0 8.73-3.079 13.33-3.055 4.58-8.865 4.58-5.811 0-8.889-4.58-3.056-4.6-3.056-13.33 0-8.75 3.056-13.34 3.078-4.6 8.889-4.6zm30.161 3.7q-3.611 0-5.439 3.57-1.806 3.54-1.806 10.67 0 7.1 1.806 10.67 1.828 3.54 5.439 3.54 3.635 0 5.44-3.54 1.829-3.57 1.829-10.67 0-7.13-1.829-10.67-1.805-3.57-5.44-3.57m0-3.7q5.811 0 8.866 4.6 3.079 4.59 3.079 13.34 0 8.73-3.079 13.33-3.055 4.58-8.866 4.58-5.81 0-8.888-4.58-3.056-4.6-3.056-13.33 0-8.75 3.056-13.34 3.078-4.6 8.888-4.6zm20.209.62h18.356v3.94h-14.074v8.47q1.019-.35 2.037-.51 1.019-.18 2.037-.18 5.787 0 9.167 3.17 3.379 3.17 3.379 8.59 0 5.57-3.472 8.68-3.472 3.07-9.791 3.07-2.176 0-4.445-.37-2.245-.37-4.653-1.11v-4.7q2.084 1.14 4.306 1.69 2.222.56 4.699.56 4.005 0 6.343-2.11 2.337-2.1 2.337-5.71 0-3.62-2.337-5.72-2.338-2.11-6.343-2.11-1.875 0-3.75.42-1.852.41-3.796 1.29v-17.36zm40.115 3.08q-3.611 0-5.44 3.57-1.805 3.54-1.805 10.67 0 7.1 1.805 10.67 1.829 3.54 5.44 3.54 3.634 0 5.44-3.54 1.829-3.57 1.829-10.67 0-7.13-1.829-10.67-1.806-3.57-5.44-3.57m0-3.7q5.81 0 8.866 4.6 3.079 4.59 3.079 13.34 0 8.73-3.079 13.33-3.056 4.58-8.866 4.58t-8.889-4.58q-3.055-4.6-3.055-13.33 0-8.75 3.055-13.34 3.079-4.6 8.889-4.6zM63.932 921.283q-3.611 0-5.44 3.565-1.805 3.542-1.805 10.671 0 7.107 1.805 10.671 1.829 3.542 5.44 3.542 3.634 0 5.44-3.542 1.828-3.564 1.828-10.671 0-7.129-1.828-10.671-1.806-3.565-5.44-3.565m0-3.704q5.81 0 8.866 4.607 3.078 4.583 3.078 13.333 0 8.727-3.078 13.333-3.056 4.584-8.866 4.584t-8.889-4.584q-3.056-4.606-3.056-13.333 0-8.75 3.056-13.333 3.079-4.607 8.889-4.607zm20.162 29.306h4.884v5.879h-4.884v-5.879zm25.069-25.602q-3.611 0-5.44 3.565-1.805 3.542-1.805 10.671 0 7.107 1.805 10.671 1.829 3.542 5.44 3.542 3.634 0 5.44-3.542 1.829-3.564 1.829-10.671 0-7.129-1.829-10.671-1.806-3.565-5.44-3.565m0-3.704q5.81 0 8.866 4.607 3.078 4.583 3.078 13.333 0 8.727-3.078 13.333-3.056 4.584-8.866 4.584t-8.889-4.584q-3.055-4.606-3.055-13.333 0-8.75 3.055-13.333 3.079-4.607 8.889-4.607zm30.162 3.704q-3.611 0-5.44 3.565-1.805 3.542-1.805 10.671 0 7.107 1.805 10.671 1.829 3.542 5.44 3.542 3.634 0 5.44-3.542 1.828-3.564 1.828-10.671 0-7.129-1.828-10.671-1.806-3.565-5.44-3.565m0-3.704q5.81 0 8.866 4.607 3.078 4.583 3.078 13.333 0 8.727-3.078 13.333-3.056 4.584-8.866 4.584t-8.889-4.584q-3.055-4.606-3.055-13.333 0-8.75 3.055-13.333 3.079-4.607 8.889-4.607zm30.162 3.704q-3.611 0-5.44 3.565-1.805 3.542-1.805 10.671 0 7.107 1.805 10.671 1.829 3.542 5.44 3.542 3.634 0 5.44-3.542 1.828-3.564 1.828-10.671 0-7.129-1.828-10.671-1.806-3.565-5.44-3.565m0-3.704q5.81 0 8.866 4.607 3.078 4.583 3.078 13.333 0 8.727-3.078 13.333-3.056 4.584-8.866 4.584t-8.889-4.584q-3.056-4.606-3.056-13.333 0-8.75 3.056-13.333 3.079-4.607 8.889-4.607zm18.981.625h22.222v1.991l-12.546 32.569h-4.884l11.805-30.624h-16.597v-3.936zm31.389 0h18.356v3.936h-14.074v8.472q1.019-.347 2.037-.51 1.019-.185 2.037-.185 5.787 0 9.167 3.172 3.38 3.171 3.38 8.588 0 5.578-3.473 8.68-3.472 3.079-9.791 3.079-2.176 0-4.445-.371-2.245-.37-4.652-1.111v-4.699q2.083 1.134 4.305 1.69 2.222.556 4.699.556 4.005 0 6.343-2.107 2.338-2.106 2.338-5.717 0-3.612-2.338-5.718-2.338-2.107-6.343-2.107-1.875 0-3.75.417-1.852.417-3.796 1.296v-17.361zm-156.92-286.95q-3.612 0-5.44 3.565-1.806 3.541-1.806 10.671 0 7.107 1.806 10.671 1.828 3.542 5.44 3.542 3.634 0 5.44-3.542 1.828-3.564 1.828-10.671 0-7.13-1.829-10.671-1.805-3.565-5.44-3.565m0-3.704q5.81 0 8.866 4.607 3.079 4.583 3.079 13.333 0 8.727-3.079 13.333-3.055 4.584-8.866 4.584-5.81 0-8.888-4.584-3.056-4.606-3.056-13.333 0-8.75 3.056-13.333 3.078-4.607 8.889-4.607zm20.162 29.306h4.885v5.879h-4.885v-5.879zm25.07-25.602q-3.611 0-5.44 3.565-1.806 3.541-1.806 10.671 0 7.107 1.806 10.671 1.829 3.542 5.44 3.542 3.634 0 5.44-3.542 1.828-3.564 1.828-10.671 0-7.13-1.828-10.671-1.806-3.565-5.44-3.565m0-3.704q5.81 0 8.865 4.607 3.079 4.583 3.079 13.333 0 8.727-3.079 13.333-3.055 4.584-8.865 4.584-5.81 0-8.89-4.584-3.055-4.606-3.055-13.333 0-8.75 3.056-13.333 3.079-4.607 8.889-4.607zm30.162 3.704q-3.611 0-5.44 3.565-1.806 3.541-1.806 10.671 0 7.107 1.806 10.671 1.829 3.542 5.44 3.542 3.634 0 5.439-3.542 1.829-3.564 1.829-10.671 0-7.13-1.829-10.671-1.805-3.565-5.439-3.565m0-3.704q5.81 0 8.865 4.607 3.079 4.583 3.079 13.333 0 8.727-3.079 13.333-3.055 4.584-8.865 4.584-5.811 0-8.889-4.584-3.056-4.606-3.056-13.333 0-8.75 3.056-13.333 3.078-4.607 8.889-4.607zm20.972 31.25h7.639v-26.365l-8.311 1.666v-4.259l8.264-1.667h4.676V658.8h7.639v3.935h-19.907V658.8zm39.351-27.546q-3.611 0-5.439 3.565-1.806 3.541-1.806 10.671 0 7.107 1.806 10.671 1.828 3.542 5.439 3.542 3.635 0 5.44-3.542 1.829-3.564 1.829-10.671 0-7.13-1.829-10.671-1.805-3.565-5.44-3.565m0-3.704q5.811 0 8.866 4.607 3.079 4.583 3.079 13.333 0 8.727-3.079 13.333-3.055 4.584-8.866 4.584-5.81 0-8.888-4.584-3.056-4.606-3.056-13.333 0-8.75 3.056-13.333 3.078-4.607 8.888-4.607zm30.162 3.704q-3.611 0-5.44 3.565-1.805 3.541-1.805 10.671 0 7.107 1.805 10.671 1.829 3.542 5.44 3.542 3.634 0 5.44-3.542 1.829-3.564 1.829-10.671 0-7.13-1.829-10.671-1.806-3.565-5.44-3.565m0-3.704q5.81 0 8.866 4.607 3.079 4.583 3.079 13.333 0 8.727-3.079 13.333-3.056 4.584-8.866 4.584t-8.889-4.584q-3.055-4.606-3.055-13.333 0-8.75 3.055-13.333 3.079-4.607 8.889-4.607zM63.932 341.225q-3.611 0-5.44 3.565-1.805 3.541-1.805 10.671 0 7.106 1.805 10.671 1.829 3.542 5.44 3.542 3.634 0 5.44-3.542 1.828-3.565 1.828-10.671 0-7.13-1.828-10.671-1.806-3.565-5.44-3.565m0-3.704q5.81 0 8.866 4.607 3.078 4.583 3.078 13.333 0 8.727-3.078 13.333-3.056 4.584-8.866 4.584t-8.889-4.584q-3.056-4.606-3.056-13.333 0-8.75 3.056-13.333 3.079-4.607 8.889-4.607zm20.162 29.306h4.884v5.879h-4.884v-5.879zm25.069-25.602q-3.611 0-5.44 3.565-1.805 3.541-1.805 10.671 0 7.106 1.805 10.671 1.829 3.542 5.44 3.542 3.634 0 5.44-3.542 1.829-3.565 1.829-10.671 0-7.13-1.829-10.671-1.806-3.565-5.44-3.565m0-3.704q5.81 0 8.866 4.607 3.078 4.583 3.078 13.333 0 8.727-3.078 13.333-3.056 4.584-8.866 4.584t-8.889-4.584q-3.055-4.606-3.055-13.333 0-8.75 3.055-13.333 3.079-4.607 8.889-4.607zm30.162 3.704q-3.611 0-5.44 3.565-1.805 3.541-1.805 10.671 0 7.106 1.805 10.671 1.829 3.542 5.44 3.542 3.634 0 5.44-3.542 1.828-3.565 1.828-10.671 0-7.13-1.828-10.671-1.806-3.565-5.44-3.565m0-3.704q5.81 0 8.866 4.607 3.078 4.583 3.078 13.333 0 8.727-3.078 13.333-3.056 4.584-8.866 4.584t-8.889-4.584q-3.055-4.606-3.055-13.333 0-8.75 3.055-13.333 3.079-4.607 8.889-4.607zm20.972 31.25h7.639v-26.366l-8.31 1.667v-4.259l8.264-1.667h4.676v30.625h7.638v3.935h-19.907v-3.935zm33.38 0h16.319v3.935h-21.944v-3.935q2.662-2.755 7.245-7.384 4.606-4.653 5.787-5.995 2.245-2.524 3.125-4.26.903-1.759.903-3.449 0-2.754-1.945-4.49-1.921-1.737-5.023-1.737-2.199 0-4.653.764-2.43.764-5.208 2.315v-4.722q2.824-1.134 5.278-1.713 2.453-.579 4.491-.579 5.37 0 8.564 2.685 3.195 2.686 3.195 7.176 0 2.13-.81 4.051-.787 1.898-2.894 4.491-.579.671-3.681 3.889-3.101 3.194-8.749 8.958zm26.18-30.625h18.356v3.935h-14.074v8.473q1.019-.348 2.037-.51 1.019-.185 2.037-.185 5.787 0 9.167 3.171 3.38 3.172 3.38 8.588 0 5.579-3.473 8.681-3.472 3.079-9.791 3.079-2.176 0-4.445-.371-2.245-.37-4.652-1.111v-4.699q2.083 1.134 4.305 1.69 2.222.555 4.699.555 4.005 0 6.343-2.106 2.338-2.107 2.338-5.718 0-3.611-2.338-5.717-2.338-2.107-6.343-2.107-1.875 0-3.75.417-1.852.417-3.796 1.296v-17.361zM62.937 51.196q-3.612 0-5.44 3.565-1.806 3.541-1.806 10.67 0 7.107 1.806 10.672 1.828 3.542 5.44 3.542 3.634 0 5.44-3.542 1.828-3.565 1.828-10.671 0-7.13-1.829-10.671-1.805-3.565-5.44-3.565m0-3.704q5.81 0 8.866 4.607 3.079 4.583 3.079 13.333 0 8.727-3.079 13.333-3.055 4.584-8.866 4.584-5.81 0-8.888-4.584-3.056-4.606-3.056-13.333 0-8.75 3.056-13.333 3.078-4.607 8.889-4.607zm20.162 29.306h4.885v5.88h-4.885v-5.88zm25.07-25.602q-3.611 0-5.44 3.565-1.806 3.541-1.806 10.67 0 7.107 1.806 10.672 1.829 3.542 5.44 3.542 3.634 0 5.44-3.542 1.828-3.565 1.828-10.671 0-7.13-1.828-10.671-1.806-3.565-5.44-3.565m0-3.704q5.81 0 8.865 4.607 3.079 4.583 3.079 13.333 0 8.727-3.079 13.333-3.055 4.584-8.865 4.584-5.81 0-8.89-4.584-3.055-4.606-3.055-13.333 0-8.75 3.056-13.333 3.079-4.607 8.889-4.607zm30.162 3.704q-3.611 0-5.44 3.565-1.806 3.541-1.806 10.67 0 7.107 1.806 10.672 1.829 3.542 5.44 3.542 3.634 0 5.439-3.542 1.829-3.565 1.829-10.671 0-7.13-1.829-10.671-1.805-3.565-5.439-3.565m0-3.704q5.81 0 8.865 4.607 3.079 4.583 3.079 13.333 0 8.727-3.079 13.333-3.055 4.584-8.865 4.584-5.811 0-8.889-4.584-3.056-4.606-3.056-13.333 0-8.75 3.056-13.333 3.078-4.607 8.889-4.607zm20.972 31.25h7.639V52.376l-8.311 1.667v-4.26l8.264-1.666h4.676v30.625h7.639v3.935h-19.907v-3.935zM188.7 48.117h18.356v3.935h-14.074v8.473q1.019-.348 2.037-.51 1.019-.185 2.037-.185 5.787 0 9.167 3.171 3.379 3.172 3.379 8.588 0 5.579-3.472 8.68-3.472 3.08-9.791 3.08-2.176 0-4.445-.37-2.245-.371-4.653-1.112v-4.699q2.084 1.134 4.306 1.69 2.222.555 4.699.555 4.005 0 6.343-2.106 2.337-2.107 2.337-5.718 0-3.61-2.337-5.717-2.338-2.107-6.343-2.107-1.875 0-3.75.417-1.852.417-3.796 1.296v-17.36zm40.115 3.079q-3.611 0-5.44 3.565-1.805 3.541-1.805 10.67 0 7.107 1.805 10.672 1.829 3.542 5.44 3.542 3.634 0 5.44-3.542 1.829-3.565 1.829-10.671 0-7.13-1.829-10.671-1.806-3.565-5.44-3.565m0-3.704q5.81 0 8.866 4.607 3.079 4.583 3.079 13.333 0 8.727-3.079 13.333-3.056 4.584-8.866 4.584t-8.889-4.584q-3.055-4.606-3.055-13.333 0-8.75 3.055-13.333 3.079-4.607 8.889-4.607z" fill="#f8f8f2" fill-rule="evenodd" fill-opacity="1"/><polyline clip-path="url(#clip652)" points="335.514,584.998 336.875,831.278 338.236,391.194 339.597,695.382 340.958,820.572 342.319,824.293 343.68,954.363 345.041,739.701 346.402,799.027 347.763,896.612 349.124,806.898 350.485,810.558 351.846,897.083 353.207,978.054 354.568,989.141 355.929,763.626 357.29,844.531 358.651,823.35 360.012,793.684 361.373,985.696 362.734,875.639 364.095,956.451 365.456,1015.79 366.817,803.225 368.178,858.151 369.539,955.004 370.9,923.318 372.261,944.091 373.622,946.818 374.983,968.447 376.344,856.139 377.705,947.523 379.066,967.686 380.427,876.727 381.788,1008.77 383.149,919.154 384.51,896.305 385.871,874.68 387.232,884.081 388.593,955.849 389.954,960.708 391.315,957.676 392.676,746.397 394.037,924.997 395.398,974.893 396.759,887.515 398.12,982.303 399.482,1008.51 400.843,1041.56 402.204,1075.53 403.565,1121.66 404.926,1026.61 406.287,1156.9 407.648,1082.72 409.009,1124.44 410.37,972.719 411.731,1020.78 413.092,1070.32 414.453,1071.07 415.814,1074.39 417.175,967.329 418.536,1031.37 419.897,1088.24 421.258,1063.16 422.619,1092.43 423.98,1007.76 425.341,942.415 426.702,1089.18 428.063,1035.61 429.424,1077.14 430.785,1112.89 432.146,1079.12 433.507,1141.97 434.868,1014.13 436.229,1061.17 437.59,1023.01 438.951,1168.56 440.312,1094.75 441.673,988.763 443.034,1123.97 444.395,1223.31 445.756,1108.45 447.117,1107.75 448.478,1148.98 449.839,1162.21 451.2,977.837 452.561,1067.77 453.922,1037.18 455.283,980.651 456.644,1101.36 458.005,1018.73 459.366,979.14 460.727,965.973 462.088,1068 463.449,1056.84 464.81,1073.93 466.171,1100.66 467.532,1069.08 468.893,1045.76 470.254,920.925 471.615,1026.1 472.976,1053.41 474.337,1117.89 475.698,1013.75 477.059,1031.61 478.42,1097.75 479.781,1080.01 481.142,1111.4 482.503,1168.88 483.864,1059.75 485.225,1168.18 486.586,1000.22 487.947,1090.5 489.308,1199.34 490.669,1137.01 492.03,1168.94 493.391,1204.43 494.752,1066.76 496.113,1225.75 497.474,1075.8 498.835,979.572 500.196,1047.72 501.557,1181.03 502.918,1122.3 504.279,1049.86 505.64,1127.32 507.001,1131.08 508.362,1177.7 509.723,1271.43 511.084,1268.63 512.445,1214.42 513.806,1197.83 515.167,1246.07 516.528,1189.14 517.889,1198.19 519.25,1233.99 520.611,1153.66 521.972,1240.21 523.333,1214.22 524.694,1198.28 526.055,1195.54 527.416,871.02 528.777,1150.72 530.138,1253.89 531.499,1145.43 532.86,1166.72 534.221,1177.48 535.582,1208.22 536.943,1215.78 538.304,1245.86 539.665,1198.72 541.026,1175.14 542.387,1184.47 543.748,1177.53 545.109,1097.49 546.47,1251.97 547.831,1172.14 549.192,1267.1 550.553,1220.66 551.914,1247.68 553.275,1320.84 554.636,1247.03 555.997,1179.16 557.358,1130.08 558.719,1230.05 560.08,1122.34 561.441,1112.32 562.802,1179.85 564.163,1217.04 565.524,1228.3 566.885,1162.73 568.246,1191.05 569.607,1247.19 570.968,1199.55 572.329,1234.76 573.69,1125.72 575.051,957.917 576.412,1051.8 577.773,1084.99 579.134,1008.6 580.495,954.514 581.856,1148.41 583.217,1225.28 584.578,1175.72 585.939,1057.15 587.3,1122.8 588.661,1093.23 590.022,1031.35 591.383,1101.27 592.744,1117 594.105,1052.18 595.466,1224.39 596.827,1096.56 598.188,1180.33 599.549,1079.63 600.91,1089.11 602.271,1102.4 603.632,1236.11 604.993,1194.29 606.354,1179.14 607.715,1020.89 609.076,1195.39 610.437,1134.1 611.798,1049.05 613.159,1189.65 614.52,1125.15 615.881,1106.35 617.242,1136.88 618.603,1069.29 619.964,867.227 621.325,1031.2 622.686,845.526 624.047,1082.98 625.408,1013.25 626.769,963.341 628.13,1049.27 629.491,1100.11 630.852,1129.85 632.213,1035.07 633.574,1135.53 634.935,955.381 636.296,910.083 637.657,993.436 639.018,915.057 640.379,1084.55 641.74,1006.86 643.102,1174.82 644.463,1158.26 645.824,1073.28 647.185,1222.8 648.546,1232.29 649.907,1245.31 651.268,1213.49 652.629,1189.29 653.99,1167.11 655.351,1083.48 656.712,1031.67 658.073,1102.67 659.434,1079.04 660.795,999.954 662.156,904.533 663.517,932.675 664.878,881.107 666.239,1007.6 667.6,1015.67 668.961,1037.09 670.322,1158.85 671.683,1258.71 673.044,1252.08 674.405,1251.08 675.766,1225.9 677.127,1188.7 678.488,1264.72 679.849,1187.22 681.21,1247.53 682.571,1166.73 683.932,1231.38 685.293,1134.31 686.654,1001.67 688.015,982.453 689.376,1193.66 690.737,1189.54 692.098,1127.9 693.459,1134.3 694.82,1209.81 696.181,1204.57 697.542,1206.63 698.903,1272.39 700.264,1189.04 701.625,1052.51 702.986,1181.35 704.347,1258.92 705.708,1165.78 707.069,1235.98 708.43,1182.21 709.791,1027.61 711.152,1189.19 712.513,1237.16 713.874,1184.64 715.235,1156.09 716.596,1206.37 717.957,1245.37 719.318,1167.57 720.679,1168.45 722.04,1269.24 723.401,1204.06 724.762,1218.7 726.123,1232.33 727.484,1143.29 728.845,1162.72 730.206,1208.38 731.567,1251.36 732.928,1260.65 734.289,1291.44 735.65,1093.62 737.011,985.99 738.372,1242.35 739.733,1204.42 741.094,1236.73 742.455,1209.47 743.816,1087.25 745.177,1173.12 746.538,1207.42 747.899,1021.9 749.26,1094.28 750.621,1025.55 751.982,1208.59 753.343,1200.58 754.704,1156.92 756.065,1250.07 757.426,1241.85 758.787,1272.58 760.148,1213.71 761.509,1265.73 762.87,1286.57 764.231,1169.55 765.592,1258.01 766.953,1139.34 768.314,1224.48 769.675,1325.48 771.036,1174.52 772.397,1075.7 773.758,1109.27 775.119,1244.24 776.48,1231.94 777.841,1179.57 779.202,1134.51 780.563,1151.43 781.924,960.055 783.285,1094.09 784.646,1136.36 786.007,1260.06 787.368,1125.71 788.729,1250.01 790.09,1266.38 791.451,1181.13 792.812,1309.89 794.173,1203.13 795.534,1150.37 796.895,1191.08 798.256,1226 799.617,1176.4 800.978,1278.3 802.339,1231.32 803.7,1277.15 805.061,1183.05 806.422,1217.75 807.783,1184.37 809.144,1094.01 810.505,1256.79 811.866,1212.21 813.227,1230.27 814.588,1176.62 815.949,1326.08 817.31,1274.57 818.671,1223.05 820.032,1313.58 821.393,1298.89 822.754,1328.86 824.115,1187.99 825.476,1113.42 826.837,1227.53 828.198,1359.08 829.559,1256.4 830.92,1289.27 832.281,1315.09 833.642,1206.8 835.003,1274.93 836.364,1372.98 837.725,1314.84 839.086,1079.49 840.447,1286.08 841.808,1066.8 843.169,1274.74 844.53,1259.6 845.891,1233.74 847.252,1335.42 848.613,1249.68 849.974,1183.07 851.335,1305.75 852.696,1240.68 854.057,1322.69 855.418,1272.55 856.779,1340.76 858.14,1387.95 859.501,1317.52 860.862,1373.71 862.223,1397.7 863.584,1395.94 864.945,1260.84 866.306,1246.41 867.667,1310.36 869.028,1348.72 870.389,1324.26 871.75,1274.88 873.111,1330.3 874.472,1289.27 875.833,1385.5 877.194,1273.66 878.555,1358.75 879.916,1335.04 881.277,1372.51 882.638,1325.11 883.999,1330.8 885.361,1394.38 886.722,1344.57 888.083,1376.05 889.444,1367.76 890.805,1342.28 892.166,1413.45 893.527,1407.2 894.888,1179.99 896.249,1292.15 897.61,1295.35 898.971,1363.68 900.332,1415.97 901.693,1370.26 903.054,1347.03 904.415,1374.71 905.776,1393.37 907.137,1329.05 908.498,1348.65 909.859,1351.46 911.22,1255.61 912.581,1357.36 913.942,1319.74 915.303,1331.89 916.664,1291.12 918.025,1313.62 919.386,1364.01 920.747,1218.67 922.108,1367.59 923.469,1329.82 924.83,1416.6 926.191,1428.56 927.552,1310.38 928.913,1300.54 930.274,1392.77 931.635,1361.86 932.996,1413.37 934.357,1332.14 935.718,1394.83 937.079,1351.57 938.44,1331.09 939.801,1383.44 941.162,1338.07 942.523,1372.61 943.884,1364.02 945.245,1412 946.606,1300.52 947.967,1260.57 949.328,1272.19 950.689,1301.34 952.05,1245.26 953.411,1267.59 954.772,1251.22 956.133,1398.32 957.494,1358.22 958.855,1407.79 960.216,1394.58 961.577,1392.14 962.938,1386.2 964.299,1384.73 965.66,1355.92 967.021,1298.18 968.382,1259.58 969.743,1146.69 971.104,1280.69 972.465,1332.74 973.826,1352.84 975.187,1352.14 976.548,1308.21 977.909,1383.84 979.27,1425.7 980.631,1337.9 981.992,1311.44 983.353,1219.26 984.714,1336.27 986.075,1287.54 987.436,1318.88 988.797,1218.08 990.158,1266.8 991.519,1125.44 992.88,1222.49 994.241,1289.11 995.602,1307.88 996.963,1274.7 998.324,1248.86 999.685,1289.97 1001.05,1306.11 1002.41,1237.6 1003.77,1246.01 1005.13,1301.76 1006.49,1194.45 1007.85,1244.57 1009.21,1156.41 1010.57,1261.91 1011.93,1233.59 1013.3,1293.83 1014.66,1303.5 1016.02,1259.78 1017.38,1262.34 1018.74,1231.99 1020.1,1248.06 1021.46,1206.49 1022.82,1246.35 1024.18,1160.16 1025.54,1224.06 1026.91,1269.28 1028.27,1250.53 1029.63,1227.27 1030.99,1356.63 1032.35,1308.07 1033.71,1312.31 1035.07,1262.26 1036.43,1349.38 1037.79,1286.23 1039.15,1320.64 1040.52,1321.96 1041.88,1387.19 1043.24,1278.74 1044.6,1350.21 1045.96,1402.83 1047.32,1366.51 1048.68,1287.23 1050.04,1240.64 1051.4,1222.32 1052.76,1318.29 1054.13,1287.33 1055.49,1366.03 1056.85,1219.14 1058.21,1318.31 1059.57,1343.84 1060.93,1352.31 1062.29,1378.93 1063.65,1340.61 1065.01,1408.1 1066.37,1445.72 1067.74,1307.4 1069.1,1342.89 1070.46,1240.14 1071.82,1299.77 1073.18,1362.82 1074.54,1324.33 1075.9,1276.37 1077.26,1253.32 1078.62,1284.38 1079.98,1201.33 1081.35,1265.79 1082.71,1306.8 1084.07,1141.03 1085.43,1264.63 1086.79,1272.8 1088.15,1289.93 1089.51,1304.51 1090.87,1254.16 1092.23,1336.24 1093.59,1394.14 1094.96,1374.83 1096.32,1265.72 1097.68,1302.86 1099.04,1240.73 1100.4,1278.34 1101.76,1364.57 1103.12,1233.06 1104.48,1327.48 1105.84,1258.89 1107.2,1304.34 1108.57,1264.46 1109.93,1368.04 1111.29,1184.51 1112.65,1345.6 1114.01,1328.86 1115.37,1291.79 1116.73,1243.12 1118.09,1281.57 1119.45,1196.58 1120.81,1277.8 1122.18,1249.97 1123.54,1243.12 1124.9,1303.18 1126.26,1306.78 1127.62,1289.09 1128.98,1360.91 1130.34,1402.98 1131.7,1324.4 1133.06,1419.81 1134.42,1323.94 1135.79,1085.2 1137.15,1340.28 1138.51,1306.61 1139.87,1361.09 1141.23,1415.94 1142.59,1315.19 1143.95,1304.76 1145.31,1311.45 1146.67,1325.58 1148.03,1277.32 1149.4,1346.85 1150.76,1377.95 1152.12,1185.88 1153.48,1258.18 1154.84,1093.76 1156.2,1295.24 1157.56,1339.7 1158.92,1285.15 1160.28,1023.09 1161.64,1304.62 1163.01,1208.06 1164.37,1162.89 1165.73,1252.06 1167.09,1296.49 1168.45,1222.97 1169.81,1251.39 1171.17,1336.01 1172.53,1148 1173.89,1368.76 1175.25,1291.72 1176.62,1357.66 1177.98,1277.58 1179.34,1319.73 1180.7,1290.86 1182.06,1312.08 1183.42,1278.03 1184.78,1278.94 1186.14,1332.92 1187.5,1382.53 1188.86,1400.52 1190.23,1383.3 1191.59,1356.47 1192.95,1305.5 1194.31,1228.29 1195.67,1241.73 1197.03,1361.26 1198.39,1244.66 1199.75,1181.49 1201.11,1184.98 1202.47,1347.11 1203.84,1270.28 1205.2,1391.08 1206.56,1305.23 1207.92,1405.19 1209.28,1310.9 1210.64,1270.82 1212,1348.42 1213.36,1366.77 1214.72,1383.19 1216.08,1296.13 1217.45,1319.28 1218.81,1391.55 1220.17,1312.3 1221.53,1252.93 1222.89,1365.74 1224.25,1266.51 1225.61,1308.95 1226.97,1257.88 1228.33,1294.54 1229.69,1354.19 1231.06,1079.08 1232.42,1317.46 1233.78,1180.47 1235.14,1105.73 1236.5,1285.56 1237.86,1125.31 1239.22,1229.32 1240.58,1268.58 1241.94,1295.9 1243.3,1254.49 1244.67,1264.73 1246.03,1335.16 1247.39,1264.59 1248.75,1220.52 1250.11,1253.91 1251.47,1268.6 1252.83,1286.18 1254.19,1295.27 1255.55,1320.15 1256.92,1296.77 1258.28,1240.47 1259.64,1316.73 1261,1287.96 1262.36,1297.44 1263.72,1314.93 1265.08,1260.76 1266.44,1258.66 1267.8,1327.71 1269.16,1372.45 1270.53,1349.79 1271.89,1264.53 1273.25,1373.37 1274.61,1355.66 1275.97,1270.37 1277.33,1240.63 1278.69,1211.21 1280.05,1238.01 1281.41,1253.39 1282.77,1316.39 1284.14,1371.68 1285.5,1352.35 1286.86,1032.11 1288.22,1083.35 1289.58,1178.44 1290.94,1236.95 1292.3,1159.81 1293.66,1268.51 1295.02,1182.84 1296.38,1230.94 1297.75,1230.71 1299.11,1208.65 1300.47,1180.31 1301.83,1228.38 1303.19,1334.28 1304.55,1231.08 1305.91,1292.74 1307.27,1183.98 1308.63,1267.21 1309.99,1266.41 1311.36,1296.32 1312.72,1230.76 1314.08,1250.44 1315.44,1153.95 1316.8,1172.47 1318.16,1191.37 1319.52,1029.22 1320.88,1158.56 1322.24,1135.75 1323.6,1221.92 1324.97,1220.92 1326.33,1241.2 1327.69,1164.18 1329.05,1203.89 1330.41,1243.22 1331.77,1199.91 1333.13,1130.76 1334.49,1165.37 1335.85,1173.58 1337.21,1212.25 1338.58,1170.49 1339.94,1226.17 1341.3,1215 1342.66,1189.47 1344.02,1039.3 1345.38,1139.74 1346.74,977.508 1348.1,1146.48 1349.46,1149.78 1350.82,1132.53 1352.19,1215.08 1353.55,1158.14 1354.91,1159.51 1356.27,1081.4 1357.63,1157.15 1358.99,1193.29 1360.35,1184.83 1361.71,1132.85 1363.07,1163.84 1364.43,1059.76 1365.8,961.087 1367.16,1111.8 1368.52,1133.65 1369.88,1100.83 1371.24,1158.13 1372.6,1068.68 1373.96,1170.4 1375.32,1014.6 1376.68,1035.53 1378.04,1103.57 1379.41,1147.68 1380.77,1147.98 1382.13,1137.33 1383.49,1115.64 1384.85,1104.34 1386.21,1196.95 1387.57,1205.34 1388.93,1186.79 1390.29,1112.26 1391.65,1152.71 1393.02,1191.72 1394.38,1280.91 1395.74,1147.92 1397.1,950.549 1398.46,1082.16 1399.82,1155.7 1401.18,1106.76 1402.54,1083.25 1403.9,1096.33 1405.26,1003.89 1406.63,1011.93 1407.99,1184.93 1409.35,1066.27 1410.71,1074.18 1412.07,1134.86 1413.43,1100.58 1414.79,1099.28 1416.15,1104.25 1417.51,1036.91 1418.87,1107.17 1420.24,1035.47 1421.6,1123.08 1422.96,1048 1424.32,932.706 1425.68,916.751 1427.04,1032.89 1428.4,1051.88 1429.76,1053.1 1431.12,913.482 1432.48,930.799 1433.85,1023.89 1435.21,1098.78 1436.57,1093.79 1437.93,400.723 1439.29,753.192 1440.65,570.628 1442.01,836.237 1443.37,701.146 1444.73,833.238 1446.09,856.777 1447.46,926.164 1448.82,760.416 1450.18,868.113 1451.54,959.282 1452.9,931.148 1454.26,973.157 1455.62,886.209 1456.98,926.039 1458.34,740.305 1459.7,837.683 1461.07,995.386 1462.43,968.812 1463.79,932.539 1465.15,942.647 1466.51,1000.64 1467.87,1028.96 1469.23,969.215 1470.59,863.756 1471.95,947.138 1473.31,923.935 1474.68,863.429 1476.04,832.095 1477.4,953.21 1478.76,720.334 1480.12,783.594 1481.48,868.405 1482.84,833.483 1484.2,854.145 1485.56,907.883 1486.92,914.557 1488.29,795.091 1489.65,867.107 1491.01,882.312 1492.37,927.242 1493.73,774.435 1495.09,959.991 1496.45,924.257 1497.81,926.711 1499.17,741.743 1500.54,751.4 1501.9,799.697 1503.26,436.412 1504.62,567.325 1505.98,728.107 1507.34,665.07 1508.7,863.707 1510.06,935.731 1511.42,813.06 1512.78,744.331 1514.15,862.08 1515.51,963.237 1516.87,814.247 1518.23,836.218 1519.59,387.642 1520.95,333.669 1522.31,213.106 1523.67,463.06 1525.03,381.387 1526.39,385.583 1527.76,355.742 1529.12,442.891 1530.48,563.327 1531.84,467.561 1533.2,546.193 1534.56,497.1 1535.92,335.596 1537.28,548.87 1538.64,657.774 1540,360.676 1541.37,538.774 1542.73,326.464 1544.09,382.406 1545.45,407.593 1546.81,284.355 1548.17,496.914 1549.53,454.798 1550.89,334.115 1552.25,514.416 1553.61,278.91 1554.98,459.92 1556.34,412.846 1557.7,457.792 1559.06,462.799 1560.42,87.9763 1561.78,460.259 1563.14,384.728 1564.5,452.539 1565.86,312.691 1567.22,186.704 1568.59,396.572 1569.95,400.147 1571.31,551.753 1572.67,470.673 1574.03,372.084 1575.39,507.309 1576.75,622.222 1578.11,477.85 1579.47,370.443 1580.83,445.976 1582.2,338.102 1583.56,258.81 1584.92,260.47 1586.28,330.731 1587.64,186.294 1589,485.65 1590.36,465.214 1591.72,529.045 1593.08,537.716 1594.44,494.818 1595.81,573.309 1597.17,602.146 1598.53,771.076 1599.89,679.479 1601.25,441.912 1602.61,479.171 1603.97,521.506 1605.33,491.995 1606.69,456.507 1608.05,451.222 1609.42,518.642 1610.78,426.101 1612.14,620.392 1613.5,534.968 1614.86,380.664 1616.22,672.684 1617.58,616.543 1618.94,592.852 1620.3,710.087 1621.66,520.867 1623.03,769.345 1624.39,691.649 1625.75,750.288 1627.11,672.381 1628.47,661.244 1629.83,378.015 1631.19,534.674 1632.55,566.57 1633.91,612.373 1635.27,595.532 1636.64,579.737 1638,531.646 1639.36,685.233 1640.72,687.845 1642.08,488.563 1643.44,450.592 1644.8,185.735 1646.16,231.619 1647.52,510.099 1648.88,288.759 1650.25,476.454 1651.61,557.937 1652.97,641.789 1654.33,372.128 1655.69,380.771 1657.05,583.725 1658.41,422.304 1659.77,632.717 1661.13,531.343 1662.49,557.165 1663.86,577.515 1665.22,500.838 1666.58,493.676 1667.94,676.817 1669.3,623.778 1670.66,748.838 1672.02,515.849 1673.38,669.811 1674.74,498.492 1676.1,541.554 1677.47,631.484 1678.83,557.101 1680.19,654.308 1681.55,721.115 1682.91,556.388 1684.27,730.329 1685.63,697.615 1686.99,694.485 1688.35,548.078 1689.71,537.946 1691.08,655.48 1692.44,710.179 1693.8,762.577 1695.16,680.027 1696.52,642.175 1697.88,722.645 1699.24,733.779 1700.6,535.269 1701.96,834.705 1703.32,663.171 1704.69,598.501 1706.05,693.145 1707.41,773.346 1708.77,649.906 1710.13,563.264 1711.49,684.984 1712.85,734.841 1714.21,847.172 1715.57,576.598 1716.93,619.203 1718.3,423.381 1719.66,646.364 1721.02,565.31 1722.38,655.692 1723.74,455.613 1725.1,545.259 1726.46,684.214 1727.82,608.208 1729.18,624.14 1730.54,548.976 1731.91,629.273 1733.27,763.738 1734.63,798.874 1735.99,690.582 1737.35,742.145 1738.71,786.723 1740.07,795.21 1741.43,766.447 1742.79,773.176 1744.16,626.679 1745.52,706.006 1746.88,681.754 1748.24,795.297 1749.6,781.5 1750.96,684.905 1752.32,727.112 1753.68,859.765 1755.04,629.481 1756.4,920.947 1757.77,679.38 1759.13,822.058 1760.49,772.734 1761.85,801.672 1763.21,842.864 1764.57,706.465 1765.93,701.721 1767.29,767.898 1768.65,695.251 1770.01,748.499 1771.38,789.488 1772.74,856.696 1774.1,880.447 1775.46,850.276 1776.82,838.385 1778.18,764.557 1779.54,885.344 1780.9,755.171 1782.26,890.672 1783.62,938.35 1784.99,760.423 1786.35,792.429 1787.71,725.607 1789.07,803.955 1790.43,756.834 1791.79,734.466 1793.15,766.777 1794.51,776.373 1795.87,862.177 1797.23,803.394 1798.6,811.456 1799.96,737.893 1801.32,770.033 1802.68,847.507 1804.04,821.751 1805.4,660.663 1806.76,800.6 1808.12,795.857 1809.48,741.573 1810.84,685.843 1812.21,745.987 1813.57,688.082 1814.93,730.731 1816.29,732.904 1817.65,725.795 1819.01,811.462 1820.37,852.496 1821.73,840.461 1823.09,811.097 1824.45,681.623 1825.82,774.292 1827.18,710.165 1828.54,663.823 1829.9,754.517 1831.26,891.093 1832.62,849.55 1833.98,810.247 1835.34,864.777 1836.7,893.659 1838.06,889.729 1839.43,881.09 1840.79,656.186 1842.15,748.059 1843.51,891.836 1844.87,841.254 1846.23,659.58 1847.59,675.31 1848.95,787.319 1850.31,788.644 1851.67,884.256 1853.04,926.382 1854.4,937.153 1855.76,863.029 1857.12,697.825 1858.48,849.638 1859.84,760.671 1861.2,927.033 1862.56,828.89 1863.92,750.508 1865.28,877.362 1866.65,848.896 1868.01,836.629 1869.37,570.859 1870.73,819.873 1872.09,692.311 1873.45,730.13 1874.81,697.962 1876.17,718.801 1877.53,769.459 1878.89,797.731 1880.26,686.897 1881.62,802.628 1882.98,864.428 1884.34,734.742 1885.7,781.482 1887.06,545.651 1888.42,741.099 1889.78,658.294 1891.14,564.334 1892.5,675.411 1893.87,734.742 1895.23,595.345 1896.59,806.803 1897.95,742.351 1899.31,638.813 1900.67,590.597 1902.03,701.796 1903.39,597.301 1904.75,796.496 1906.11,839.38 1907.48,690.611 1908.84,681.937 1910.2,840.192 1911.56,832.589 1912.92,900.958 1914.28,875.593 1915.64,880.265 1917,896.91 1918.36,903.401 1919.72,803.93 1921.09,684.697 1922.45,762.389 1923.81,800.338 1925.17,898.974 1926.53,806.522 1927.89,773.901 1929.25,738.101 1930.61,871.363 1931.97,696.522 1933.33,628.711 1934.7,659.207 1936.06,700.552 1937.42,741.992 1938.78,806.112 1940.14,704.549 1941.5,618.756 1942.86,745.882 1944.22,696.411 1945.58,826.311 1946.94,909.552 1948.31,359.985 1949.67,684.343 1951.03,709.604 1952.39,664.262 1953.75,792.59 1955.11,541.874 1956.47,819.898 1957.83,637.471 1959.19,836.008 1960.55,907.806 1961.92,838.302 1963.28,848.698 1964.64,817.643 1966,817.36 1967.36,675.972 1968.72,543.535 1970.08,624.294 1971.44,511.783 1972.8,361.267 1974.16,340.764 1975.53,232.424 1976.89,403.678 1978.25,494.217 1979.61,496.082 1980.97,702.219 1982.33,614.179 1983.69,651.077 1985.05,607.154 1986.41,683.035 1987.78,705.555 1989.14,722.311 1990.5,701.738 1991.86,631.989 1993.22,583.49 1994.58,468.134 1995.94,380.244 1997.3,517.987 1998.66,741.47 2000.02,637.573 2001.39,717.123 2002.75,602.747 2004.11,767.733 2005.47,470.821 2006.83,733.687 2008.19,819.191 2009.55,660.921 2010.91,650.636 2012.27,732.797 2013.63,659.637 2015,820.968 2016.36,722.657 2017.72,755.996 2019.08,659.073 2020.44,701.44 2021.8,681.583 2023.16,683.361 2024.52,639.651 2025.88,810.608 2027.24,716.421 2028.61,817.044 2029.97,575.647 2031.33,772.041 2032.69,722.258 2034.05,650.602 2035.41,619.174 2036.77,315.5 2038.13,593.592 2039.49,787.731 2040.85,683.844 2042.22,744.649 2043.58,523.949 2044.94,734.929 2046.3,624.786 2047.66,515.073 2049.02,263.206 2050.38,461.31 2051.74,626.665 2053.1,720.282 2054.46,658.347 2055.83,792.119 2057.19,822.917 2058.55,859.667 2059.91,922.451 2061.27,905.947 2062.63,646.147 2063.99,741.79 2065.35,847.23 2066.71,752.244 2068.07,897.168 2069.44,746.568 2070.8,953.226 2072.16,948.638 2073.52,877.233 2074.88,1018.74 2076.24,956.975 2077.6,792.802 2078.96,994.898 2080.32,957.444 2081.68,879.42 2083.05,809.942 2084.41,852.018 2085.77,1009.6 2087.13,1039.77 2088.49,828.497 2089.85,925.1 2091.21,765.397 2092.57,850.989 2093.93,809.839 2095.29,972.81 2096.66,896.6 2098.02,861.241 2099.38,827.879 2100.74,962.989 2102.1,976.52 2103.46,960.46 2104.82,831.934 2106.18,779.983 2107.54,753.308 2108.9,897.54 2110.27,909.511 2111.63,665.012 2112.99,791.453 2114.35,787.738 2115.71,676.635 2117.07,760.433 2118.43,892.81 2119.79,898.111 2121.15,811.265 2122.51,845.528 2123.88,687.36 2125.24,949.935 2126.6,628.458 2127.96,880.342 2129.32,860.977 2130.68,764.446 2132.04,567.583 2133.4,882.167 2134.76,922.098 2136.12,988.444 2137.49,1016.72 2138.85,912.79 2140.21,1140.8 2141.57,934.895 2142.93,1059.12 2144.29,997.577 2145.65,1065.94 2147.01,1014.7 2148.37,1001.25 2149.73,885.338 2151.1,1125.84 2152.46,1050.26 2153.82,1031.41 2155.18,1100.34 2156.54,1107.55 2157.9,1130.84 2159.26,908.569 2160.62,1045.49 2161.98,1039.52 2163.34,1137.8 2164.71,1068.44 2166.07,1052.84 2167.43,1080.34 2168.79,1229.26 2170.15,419.671 2171.51,1016.86 2172.87,1213.11 2174.23,1231.37 2175.59,1040.86 2176.95,1097.54 2178.32,1004.87 2179.68,962.591 2181.04,1063.51 2182.4,1055.29 2183.76,1131.19 2185.12,1093.91 2186.48,1175.38 2187.84,1216.96 2189.2,1095.48 2190.56,1123.09 2191.93,1168.61 2193.29,1127.13 2194.65,1105.76 2196.01,1075.68 2197.37,1025.19 2198.73,1004.03 2200.09,1045.67 2201.45,1079.1 2202.81,1033.1 2204.17,941.488 2205.54,1039.8 2206.9,1108.92 2208.26,1110.24 2209.62,1177.09 2210.98,994.853 2212.34,1080.45 2213.7,789.618 2215.06,935.062 2216.42,1058.99 2217.78,1028.47 2219.15,960.96 2220.51,949.425 2221.87,840.799 2223.23,819.002 2224.59,974.372 2225.95,1035.64 2227.31,850.13 2228.67,723.682 2230.03,828.4 2231.4,914.759 2232.76,858.254 2234.12,911.331 2235.48,960.322 2236.84,1042.72 2238.2,939.846 2239.56,1052.61 2240.92,808.12 2242.28,892.465 2243.64,939.264 2245.01,934.551 2246.37,1101.46 2247.73,1111.96 2249.09,1135.99 2250.45,1061.83 2251.81,1092.67 2253.17,1147.62 2254.53,1050.97 2255.89,1068.32 2257.25,1070.18 2258.62,1091.56 2259.98,1114.17 2261.34,1105.65 2262.7,1156.38 2264.06,1116.92 2265.42,1086.05 2266.78,1037.89 2268.14,1140.64 2269.5,1034.62 2270.86,1079.14 2272.23,1085.97 2273.59,1011.22 2274.95,993.6 2276.31,1021.8 2277.67,922.332 2279.03,1079.67 2280.39,962.709 2281.75,1052.48 2283.11,993.616 2284.47,909.459 2285.84,1053.58 2287.2,984.091 2288.56,1117.8 2289.92,1070.96 2291.28,1121.95 2292.64,1035.41 2294,988.174" stroke="#8be9fd" stroke-linecap="butt" stroke-linejoin="round" stroke-width="4" stroke-opacity="1" fill="none"/><polyline clip-path="url(#clip652)" points="335.514,768.291 336.875,774.069 338.236,779.784 339.597,785.438 340.958,791.03 342.319,796.561 343.68,802.033 345.041,807.446 346.402,812.8 347.763,818.094 349.124,823.329 350.485,828.506 351.846,833.635 353.207,838.706 354.568,843.719 355.929,848.675 357.29,853.574 358.651,858.416 360.012,863.202 361.373,867.933 362.734,872.61 364.095,877.232 365.456,881.799 366.817,886.331 368.178,890.809 369.539,895.232 370.9,899.601 372.261,903.917 373.622,908.181 374.983,912.393 376.344,916.553 377.705,920.663 379.066,924.722 380.427,928.731 381.788,932.7 383.149,936.628 384.51,940.504 385.871,944.331 387.232,948.108 388.593,951.837 389.954,955.517 391.315,959.15 392.676,962.735 394.037,966.274 395.398,969.768 396.759,973.222 398.12,976.636 399.482,980.004 400.843,983.326 402.204,986.603 403.565,989.835 404.926,993.03 406.287,996.186 407.648,999.298 409.009,1002.37 410.37,1005.39 411.731,1008.38 413.092,1011.34 414.453,1014.25 415.814,1017.12 417.175,1019.95 418.536,1022.74 419.897,1025.49 421.258,1028.19 422.619,1030.86 423.98,1033.48 425.341,1036.07 426.702,1038.62 428.063,1041.15 429.424,1043.64 430.785,1046.08 432.146,1048.48 433.507,1050.84 434.868,1053.17 436.229,1055.45 437.59,1057.7 438.951,1059.91 440.312,1062.09 441.673,1064.23 443.034,1066.35 444.395,1068.43 445.756,1070.46 447.117,1072.45 448.478,1074.41 449.839,1076.32 451.2,1078.2 452.561,1080.05 453.922,1081.86 455.283,1083.64 456.644,1085.39 458.005,1087.12 459.366,1088.8 460.727,1090.45 462.088,1092.07 463.449,1093.65 464.81,1095.2 466.171,1096.74 467.532,1098.27 468.893,1099.76 470.254,1101.22 471.615,1102.65 472.976,1104.05 474.337,1105.81 475.698,1107.53 477.059,1109.23 478.42,1110.9 479.781,1112.54 481.142,1114.16 482.503,1115.75 483.864,1117.3 485.225,1118.84 486.586,1120.34 487.947,1121.81 489.308,1123.84 490.669,1125.85 492.03,1127.85 493.391,1129.83 494.752,1131.79 496.113,1133.72 497.474,1135.62 498.835,1137.48 500.196,1139.3 501.557,1141.07 502.918,1142.8 504.279,1144.58 505.64,1146.43 507.001,1148.28 508.362,1150.12 509.723,1151.93 511.084,1153.71 512.445,1155.47 513.806,1157.19 515.167,1158.86 516.528,1160.49 517.889,1162.06 519.25,1163.54 520.611,1164.95 521.972,1166.33 523.333,1167.68 524.694,1168.99 526.055,1170.26 527.416,1171.33 528.777,1172.22 530.138,1173.06 531.499,1173.87 532.86,1174.64 534.221,1175.37 535.582,1175.56 536.943,1175.71 538.304,1175.83 539.665,1175.9 541.026,1175.93 542.387,1175.92 543.748,1175.88 545.109,1175.79 546.47,1175.67 547.831,1175.5 549.192,1175.31 550.553,1174.33 551.914,1173.28 553.275,1172.19 554.636,1171.04 555.997,1169.85 557.358,1168.62 558.719,1167.35 560.08,1166.05 561.441,1164.73 562.802,1163.38 564.163,1162.02 565.524,1160.36 566.885,1158.36 568.246,1156.31 569.607,1154.21 570.968,1152.08 572.329,1149.92 573.69,1147.73 575.051,1145.54 576.412,1143.34 577.773,1141.15 579.134,1138.97 580.495,1136.72 581.856,1134.36 583.217,1131.98 584.578,1129.59 585.939,1127.2 587.3,1124.83 588.661,1122.51 590.022,1120.24 591.383,1117.96 592.744,1115.7 594.105,1113.46 595.466,1111.25 596.827,1109.38 598.188,1107.52 599.549,1105.65 600.91,1103.78 602.271,1101.93 603.632,1100.1 604.993,1098.3 606.354,1096.54 607.715,1094.81 609.076,1093.13 610.437,1091.51 611.798,1090.54 613.159,1089.6 614.52,1088.67 615.881,1087.78 617.242,1086.91 618.603,1086.08 619.964,1085.28 621.325,1084.53 622.686,1083.82 624.047,1083.15 625.408,1082.53 626.769,1082.32 628.13,1082.52 629.491,1082.76 630.852,1083.05 632.213,1083.37 633.574,1083.74 634.935,1084.14 636.296,1084.59 637.657,1085.07 639.018,1085.58 640.379,1086.12 641.74,1086.94 643.102,1088.03 644.463,1089.16 645.824,1090.33 647.185,1091.53 648.546,1092.76 649.907,1094.14 651.268,1095.68 652.629,1097.25 653.99,1098.85 655.351,1100.48 656.712,1102.12 658.073,1103.86 659.434,1105.65 660.795,1107.49 662.156,1109.36 663.517,1111.27 664.878,1113.2 666.239,1115.15 667.6,1117.11 668.961,1119.08 670.322,1121.06 671.683,1123.02 673.044,1124.94 674.405,1126.91 675.766,1128.9 677.127,1130.92 678.488,1132.97 679.849,1135.03 681.21,1137.11 682.571,1139.19 683.932,1141.26 685.293,1143.33 686.654,1145.39 688.015,1147.28 689.376,1149.04 690.737,1150.81 692.098,1152.59 693.459,1154.38 694.82,1156.18 696.181,1157.98 697.542,1159.77 698.903,1161.56 700.264,1163.33 701.625,1165.1 702.986,1166.65 704.347,1168 705.708,1169.35 707.069,1170.7 708.43,1172.05 709.791,1173.38 711.152,1174.53 712.513,1175.49 713.874,1176.44 715.235,1177.39 716.596,1178.32 717.957,1179.26 719.318,1179.86 720.679,1180.45 722.04,1181.01 723.401,1181.56 724.762,1182.09 726.123,1182.62 727.484,1183.13 728.845,1183.64 730.206,1184.15 731.567,1184.65 732.928,1185.16 734.289,1185.43 735.65,1185.68 737.011,1185.9 738.372,1186.1 739.733,1186.29 741.094,1186.47 742.455,1186.65 743.816,1186.82 745.177,1186.99 746.538,1187.17 747.899,1187.35 749.26,1187.56 750.621,1187.76 751.982,1187.94 753.343,1188.12 754.704,1188.29 756.065,1188.46 757.426,1188.63 758.787,1188.8 760.148,1188.99 761.509,1189.19 762.87,1189.41 764.231,1189.7 765.592,1190.06 766.953,1190.41 768.314,1190.78 769.675,1191.16 771.036,1191.55 772.397,1192.03 773.758,1192.62 775.119,1193.21 776.48,1193.82 777.841,1194.44 779.202,1195.08 780.563,1195.99 781.924,1196.9 783.285,1197.84 784.646,1198.79 786.007,1199.76 787.368,1200.74 788.729,1201.75 790.09,1202.78 791.451,1203.83 792.812,1204.9 794.173,1205.99 795.534,1207.45 796.895,1208.93 798.256,1210.44 799.617,1211.98 800.978,1213.53 802.339,1215.11 803.7,1216.7 805.061,1218.31 806.422,1219.94 807.783,1221.58 809.144,1223.23 810.505,1225.04 811.866,1227.02 813.227,1229.03 814.588,1231.05 815.949,1233.1 817.31,1235.16 818.671,1237.23 820.032,1239.31 821.393,1241.4 822.754,1243.49 824.115,1245.57 825.476,1247.72 826.837,1249.95 828.198,1252.19 829.559,1254.43 830.92,1256.68 832.281,1258.92 833.642,1261.17 835.003,1263.43 836.364,1265.7 837.725,1267.96 839.086,1270.21 840.447,1272.46 841.808,1274.63 843.169,1276.81 844.53,1279 845.891,1281.18 847.252,1283.36 848.613,1285.54 849.974,1287.7 851.335,1289.85 852.696,1291.98 854.057,1294.08 855.418,1296.16 856.779,1298.11 858.14,1300.05 859.501,1301.98 860.862,1303.9 862.223,1305.81 863.584,1307.71 864.945,1309.58 866.306,1311.43 867.667,1313.26 869.028,1315.06 870.389,1316.83 871.75,1318.5 873.111,1320.08 874.472,1321.64 875.833,1323.17 877.194,1324.68 878.555,1326.17 879.916,1327.63 881.277,1329.05 882.638,1330.45 883.999,1331.8 885.361,1333.13 886.722,1334.38 888.083,1335.57 889.444,1336.72 890.805,1337.84 892.166,1338.92 893.527,1339.97 894.888,1340.96 896.249,1341.88 897.61,1342.76 898.971,1343.61 900.332,1344.42 901.693,1345.18 903.054,1345.78 904.415,1346.33 905.776,1346.85 907.137,1347.32 908.498,1347.76 909.859,1348.16 911.22,1348.51 912.581,1348.83 913.942,1349.1 915.303,1349.33 916.664,1349.52 918.025,1349.32 919.386,1349.07 920.747,1348.79 922.108,1348.46 923.469,1348.09 924.83,1347.69 926.191,1347.24 927.552,1346.77 928.913,1346.25 930.274,1345.71 931.635,1345.14 932.996,1344.33 934.357,1343.27 935.718,1342.18 937.079,1341.05 938.44,1339.89 939.801,1338.7 941.162,1337.49 942.523,1336.27 943.884,1335.03 945.245,1333.78 946.606,1332.52 947.967,1331.14 949.328,1329.64 950.689,1328.11 952.05,1326.58 953.411,1325.04 954.772,1323.5 956.133,1321.95 957.494,1320.37 958.855,1318.79 960.216,1317.2 961.577,1315.63 962.938,1314.07 964.299,1312.69 965.66,1311.29 967.021,1309.88 968.382,1308.47 969.743,1307.07 971.104,1305.66 972.465,1304.27 973.826,1302.89 975.187,1301.53 976.548,1300.19 977.909,1298.89 979.27,1297.92 980.631,1296.94 981.992,1295.96 983.353,1294.98 984.714,1294.01 986.075,1293.05 987.436,1292.09 988.797,1291.14 990.158,1290.21 991.519,1289.3 992.88,1288.41 994.241,1287.73 995.602,1287.24 996.963,1286.75 998.324,1286.28 999.685,1285.81 1001.05,1285.34 1002.41,1284.89 1003.77,1284.44 1005.13,1284.01 1006.49,1283.58 1007.85,1283.16 1009.21,1282.88 1010.57,1282.72 1011.93,1282.57 1013.3,1282.43 1014.66,1282.3 1016.02,1282.17 1017.38,1282.13 1018.74,1282.16 1020.1,1282.21 1021.46,1282.27 1022.82,1282.34 1024.18,1282.41 1025.54,1282.58 1026.91,1282.78 1028.27,1283 1029.63,1283.24 1030.99,1283.5 1032.35,1283.77 1033.71,1284.06 1035.07,1284.36 1036.43,1284.67 1037.79,1284.98 1039.15,1285.29 1040.52,1285.76 1041.88,1286.26 1043.24,1286.79 1044.6,1287.34 1045.96,1287.91 1047.32,1288.5 1048.68,1289.1 1050.04,1289.72 1051.4,1290.34 1052.76,1290.96 1054.13,1291.58 1055.49,1292.19 1056.85,1292.81 1058.21,1293.44 1059.57,1294.09 1060.93,1294.75 1062.29,1295.42 1063.65,1296.1 1065.01,1296.77 1066.37,1297.45 1067.74,1298.12 1069.1,1298.78 1070.46,1299.33 1071.82,1299.78 1073.18,1300.22 1074.54,1300.67 1075.9,1301.11 1077.26,1301.55 1078.62,1301.84 1079.98,1301.99 1081.35,1302.13 1082.71,1302.27 1084.07,1302.4 1085.43,1302.52 1086.79,1302.31 1088.15,1302.08 1089.51,1301.83 1090.87,1301.57 1092.23,1301.3 1093.59,1301.02 1094.96,1300.73 1096.32,1300.43 1097.68,1300.13 1099.04,1299.83 1100.4,1299.52 1101.76,1298.99 1103.12,1298.43 1104.48,1297.85 1105.84,1297.25 1107.2,1296.65 1108.57,1296.03 1109.93,1295.41 1111.29,1294.79 1112.65,1294.17 1114.01,1293.55 1115.37,1292.94 1116.73,1292.45 1118.09,1292.07 1119.45,1291.67 1120.81,1291.28 1122.18,1290.88 1123.54,1290.48 1124.9,1290.07 1126.26,1289.67 1127.62,1289.27 1128.98,1288.88 1130.34,1288.49 1131.7,1288.28 1133.06,1288.24 1134.42,1288.2 1135.79,1288.16 1137.15,1288.12 1138.51,1288.08 1139.87,1288.13 1141.23,1288.3 1142.59,1288.46 1143.95,1288.62 1145.31,1288.78 1146.67,1288.94 1148.03,1289.13 1149.4,1289.33 1150.76,1289.53 1152.12,1289.74 1153.48,1289.95 1154.84,1290.16 1156.2,1290.37 1157.56,1290.57 1158.92,1290.77 1160.28,1290.96 1161.64,1291.14 1163.01,1291.21 1164.37,1291.28 1165.73,1291.35 1167.09,1291.42 1168.45,1291.49 1169.81,1291.56 1171.17,1291.63 1172.53,1291.69 1173.89,1291.75 1175.25,1291.8 1176.62,1291.84 1177.98,1291.86 1179.34,1291.85 1180.7,1291.84 1182.06,1291.82 1183.42,1291.81 1184.78,1291.79 1186.14,1291.76 1187.5,1291.73 1188.86,1291.69 1190.23,1291.64 1191.59,1291.59 1192.95,1291.56 1194.31,1291.57 1195.67,1291.58 1197.03,1291.58 1198.39,1291.57 1199.75,1291.55 1201.11,1291.56 1202.47,1291.6 1203.84,1291.63 1205.2,1291.65 1206.56,1291.66 1207.92,1291.65 1209.28,1291.67 1210.64,1291.69 1212,1291.7 1213.36,1291.7 1214.72,1291.69 1216.08,1291.67 1217.45,1291.63 1218.81,1291.57 1220.17,1291.5 1221.53,1291.4 1222.89,1291.28 1224.25,1291.07 1225.61,1290.83 1226.97,1290.59 1228.33,1290.32 1229.69,1290.04 1231.06,1289.73 1232.42,1289.41 1233.78,1289.06 1235.14,1288.68 1236.5,1288.29 1237.86,1287.86 1239.22,1287.3 1240.58,1286.62 1241.94,1285.91 1243.3,1285.17 1244.67,1284.4 1246.03,1283.61 1247.39,1282.79 1248.75,1281.94 1250.11,1281.07 1251.47,1280.17 1252.83,1279.24 1254.19,1278.23 1255.55,1277.13 1256.92,1276 1258.28,1274.85 1259.64,1273.67 1261,1272.46 1262.36,1271.21 1263.72,1269.93 1265.08,1268.61 1266.44,1267.28 1267.8,1265.92 1269.16,1264.54 1270.53,1263.11 1271.89,1261.65 1273.25,1260.18 1274.61,1258.68 1275.97,1257.17 1277.33,1255.64 1278.69,1254.1 1280.05,1252.53 1281.41,1250.96 1282.77,1249.37 1284.14,1247.76 1285.5,1246.06 1286.86,1244.34 1288.22,1242.61 1289.58,1240.87 1290.94,1239.11 1292.3,1237.34 1293.66,1235.57 1295.02,1233.79 1296.38,1232 1297.75,1230.2 1299.11,1228.41 1300.47,1226.57 1301.83,1224.66 1303.19,1222.74 1304.55,1220.81 1305.91,1218.87 1307.27,1216.91 1308.63,1214.95 1309.99,1212.99 1311.36,1211.02 1312.72,1209.05 1314.08,1207.08 1315.44,1205.16 1316.8,1203.29 1318.16,1201.41 1319.52,1199.5 1320.88,1197.59 1322.24,1195.67 1323.6,1193.87 1324.97,1192.18 1326.33,1190.48 1327.69,1188.76 1329.05,1187.01 1330.41,1185.25 1331.77,1183.81 1333.13,1182.36 1334.49,1180.88 1335.85,1179.38 1337.21,1177.85 1338.58,1176.3 1339.94,1174.71 1341.3,1173.09 1342.66,1171.44 1344.02,1169.75 1345.38,1168.01 1346.74,1166.47 1348.1,1164.92 1349.46,1163.35 1350.82,1161.76 1352.19,1160.14 1353.55,1158.49 1354.91,1156.81 1356.27,1155.1 1357.63,1153.34 1358.99,1151.54 1360.35,1149.69 1361.71,1147.66 1363.07,1145.46 1364.43,1143.26 1365.8,1141.03 1367.16,1138.79 1368.52,1136.52 1369.88,1134.22 1371.24,1131.9 1372.6,1129.55 1373.96,1127.16 1375.32,1124.74 1376.68,1122.09 1378.04,1119.22 1379.41,1116.34 1380.77,1113.44 1382.13,1110.52 1383.49,1107.58 1384.85,1104.5 1386.21,1101.27 1387.57,1098.03 1388.93,1094.78 1390.29,1091.51 1391.65,1088.24 1393.02,1084.95 1394.38,1081.64 1395.74,1078.31 1397.1,1074.97 1398.46,1071.6 1399.82,1068.22 1401.18,1064.83 1402.54,1061.43 1403.9,1058.02 1405.26,1054.59 1406.63,1051.17 1407.99,1048.06 1409.35,1044.93 1410.71,1041.76 1412.07,1038.57 1413.43,1035.34 1414.79,1032.08 1416.15,1028.79 1417.51,1025.47 1418.87,1022.11 1420.24,1018.73 1421.6,1015.31 1422.96,1012.09 1424.32,1009.05 1425.68,1005.96 1427.04,1002.82 1428.4,999.625 1429.76,996.377 1431.12,993.07 1432.48,989.702 1433.85,986.269 1435.21,982.769 1436.57,979.198 1437.93,975.626 1439.29,972.059 1440.65,968.425 1442.01,964.719 1443.37,960.939 1444.73,957.08 1446.09,953.11 1447.46,949.04 1448.82,944.9 1450.18,940.686 1451.54,936.396 1452.9,932.024 1454.26,927.206 1455.62,922.337 1456.98,917.415 1458.34,912.439 1459.7,907.407 1461.07,902.318 1462.43,897.171 1463.79,891.963 1465.15,886.694 1466.51,881.361 1467.87,875.964 1469.23,869.904 1470.59,863.811 1471.95,857.689 1473.31,851.538 1474.68,845.362 1476.04,839.162 1477.4,832.942 1478.76,826.703 1480.12,820.448 1481.48,814.178 1482.84,807.897 1484.2,801.152 1485.56,793.934 1486.92,786.703 1488.29,779.468 1489.65,772.237 1491.01,765.017 1492.37,757.818 1493.73,750.647 1495.09,743.513 1496.45,736.424 1497.81,729.389 1499.17,721.993 1500.54,714.203 1501.9,706.44 1503.26,698.717 1504.62,691.047 1505.98,683.443 1507.34,675.632 1508.7,667.58 1510.06,659.574 1511.42,651.63 1512.78,643.766 1514.15,635.997 1515.51,628.189 1516.87,620.37 1518.23,612.558 1519.59,604.77 1520.95,597.024 1522.31,589.337 1523.67,581.727 1525.03,574.21 1526.39,566.806 1527.76,559.53 1529.12,552.4 1530.48,545.942 1531.84,539.492 1533.2,533.063 1534.56,526.669 1535.92,520.324 1537.28,514.042 1538.64,507.836 1540,501.721 1541.37,495.711 1542.73,489.818 1544.09,484.058 1545.45,479.27 1546.81,475.404 1548.17,471.613 1549.53,467.902 1550.89,464.273 1552.25,460.728 1553.61,457.273 1554.98,453.908 1556.34,450.639 1557.7,447.467 1559.06,444.396 1560.42,442.123 1561.78,440.653 1563.14,439.289 1564.5,438.027 1565.86,436.86 1567.22,435.784 1568.59,435.185 1569.95,435.09 1571.31,435.108 1572.67,435.229 1574.03,435.444 1575.39,435.743 1576.75,436.472 1578.11,437.367 1579.47,438.417 1580.83,439.61 1582.2,440.933 1583.56,442.374 1584.92,443.921 1586.28,445.561 1587.64,447.283 1589,449.075 1590.36,450.924 1591.72,452.878 1593.08,454.995 1594.44,457.262 1595.81,459.666 1597.17,462.197 1598.53,464.84 1599.89,467.585 1601.25,470.419 1602.61,473.329 1603.97,476.304 1605.33,479.331 1606.69,482.154 1608.05,484.822 1609.42,487.591 1610.78,490.452 1612.14,493.397 1613.5,496.417 1614.86,499.502 1616.22,502.644 1617.58,505.834 1618.94,509.064 1620.3,512.324 1621.66,515.352 1623.03,518.167 1624.39,521.023 1625.75,523.915 1627.11,526.838 1628.47,529.786 1629.83,532.539 1631.19,535.095 1632.55,537.668 1633.91,540.256 1635.27,542.855 1636.64,545.463 1638,547.572 1639.36,549.677 1640.72,551.78 1642.08,553.879 1643.44,555.975 1644.8,558.069 1646.16,560.161 1647.52,562.25 1648.88,564.338 1650.25,566.425 1651.61,568.51 1652.97,570.064 1654.33,571.594 1655.69,573.106 1657.05,574.601 1658.41,576.085 1659.77,577.558 1661.13,579.026 1662.49,580.491 1663.86,581.956 1665.22,583.426 1666.58,584.902 1667.94,586.402 1669.3,587.911 1670.66,589.413 1672.02,590.912 1673.38,592.41 1674.74,593.91 1676.1,595.416 1677.47,596.93 1678.83,598.456 1680.19,599.996 1681.55,601.553 1682.91,603.342 1684.27,605.357 1685.63,607.385 1686.99,609.427 1688.35,611.482 1689.71,613.551 1691.08,615.853 1692.44,618.391 1693.8,620.945 1695.16,623.513 1696.52,626.093 1697.88,628.684 1699.24,631.714 1700.6,634.773 1701.96,637.858 1703.32,640.963 1704.69,644.084 1706.05,647.216 1707.41,650.355 1708.77,653.496 1710.13,656.635 1711.49,659.767 1712.85,662.887 1714.21,666.101 1715.57,669.331 1716.93,672.573 1718.3,675.82 1719.66,679.068 1721.02,682.311 1722.38,685.544 1723.74,688.763 1725.1,691.961 1726.46,695.133 1727.82,698.275 1729.18,701.16 1730.54,703.805 1731.91,706.434 1733.27,709.045 1734.63,711.636 1735.99,714.203 1737.35,716.744 1738.71,719.257 1740.07,721.739 1741.43,724.186 1742.79,726.598 1744.16,728.812 1745.52,730.837 1746.88,732.835 1748.24,734.804 1749.6,736.745 1750.96,738.656 1752.32,740.505 1753.68,742.295 1755.04,744.058 1756.4,745.794 1757.77,747.504 1759.13,749.186 1760.49,750.978 1761.85,752.751 1763.21,754.503 1764.57,756.234 1765.93,757.943 1767.29,759.629 1768.65,761.291 1770.01,762.927 1771.38,764.537 1772.74,766.12 1774.1,767.675 1775.46,769.429 1776.82,771.165 1778.18,772.879 1779.54,774.571 1780.9,776.237 1782.26,777.876 1783.62,779.485 1784.99,781.061 1786.35,782.603 1787.71,784.109 1789.07,785.575 1790.43,786.898 1791.79,788.081 1793.15,789.225 1794.51,790.331 1795.87,791.397 1797.23,792.422 1798.6,793.406 1799.96,794.346 1801.32,795.243 1802.68,796.095 1804.04,796.901 1805.4,797.44 1806.76,797.713 1808.12,797.94 1809.48,798.123 1810.84,798.264 1812.21,798.365 1813.57,798.269 1814.93,797.975 1816.29,797.639 1817.65,797.265 1819.01,796.857 1820.37,796.417 1821.73,795.808 1823.09,795.152 1824.45,794.453 1825.82,793.716 1827.18,792.944 1828.54,792.141 1829.9,791.313 1831.26,790.464 1832.62,789.596 1833.98,788.716 1835.34,787.826 1836.7,787.15 1838.06,786.445 1839.43,785.715 1840.79,784.963 1842.15,784.191 1843.51,783.403 1844.87,782.601 1846.23,781.788 1847.59,780.967 1848.95,780.141 1850.31,779.313 1851.67,778.743 1853.04,778.422 1854.4,778.088 1855.76,777.742 1857.12,777.383 1858.48,777.01 1859.84,776.625 1861.2,776.226 1862.56,775.813 1863.92,775.386 1865.28,774.945 1866.65,774.669 1868.01,774.554 1869.37,774.418 1870.73,774.261 1872.09,774.079 1873.45,773.869 1874.81,773.694 1876.17,773.554 1877.53,773.386 1878.89,773.186 1880.26,772.953 1881.62,772.682 1882.98,772.186 1884.34,771.664 1885.7,771.116 1887.06,770.537 1888.42,769.928 1889.78,769.284 1891.14,768.605 1892.5,767.888 1893.87,767.131 1895.23,766.332 1896.59,765.49 1897.95,764.077 1899.31,762.637 1900.67,761.17 1902.03,759.676 1903.39,758.159 1904.75,756.617 1906.11,755.052 1907.48,753.466 1908.84,751.859 1910.2,750.232 1911.56,748.587 1912.92,746.72 1914.28,744.634 1915.64,742.535 1917,740.428 1918.36,738.315 1919.72,736.201 1921.09,734.089 1922.45,731.983 1923.81,729.886 1925.17,727.802 1926.53,725.735 1927.89,723.652 1929.25,721.541 1930.61,719.441 1931.97,717.355 1933.33,715.288 1934.7,713.243 1936.06,711.211 1937.42,709.182 1938.78,707.171 1940.14,705.181 1941.5,703.218 1942.86,701.285 1944.22,699.29 1945.58,697.296 1946.94,695.309 1948.31,693.333 1949.67,691.374 1951.03,689.437 1952.39,687.526 1953.75,685.647 1955.11,683.804 1956.47,682.002 1957.83,680.247 1959.19,678.107 1960.55,675.962 1961.92,673.819 1963.28,671.687 1964.64,669.572 1966,667.483 1967.36,665.427 1968.72,663.411 1970.08,661.444 1971.44,659.533 1972.8,657.684 1974.16,655.787 1975.53,653.794 1976.89,651.818 1978.25,649.869 1979.61,647.953 1980.97,646.081 1982.33,644.262 1983.69,642.503 1985.05,640.814 1986.41,639.205 1987.78,637.682 1989.14,636.44 1990.5,635.446 1991.86,634.509 1993.22,633.636 1994.58,632.832 1995.94,632.104 1997.3,631.815 1998.66,631.956 2000.02,632.166 2001.39,632.447 2002.75,632.802 2004.11,633.231 2005.47,634.741 2006.83,636.338 2008.19,638.019 2009.55,639.778 2010.91,641.612 2012.27,643.517 2013.63,645.488 2015,647.522 2016.36,649.615 2017.72,651.761 2019.08,653.957 2020.44,657.104 2021.8,660.351 2023.16,663.688 2024.52,667.105 2025.88,670.592 2027.24,674.141 2028.61,677.742 2029.97,681.385 2031.33,685.06 2032.69,688.758 2034.05,692.47 2035.41,696.095 2036.77,699.687 2038.13,703.349 2039.49,707.072 2040.85,710.847 2042.22,714.666 2043.58,718.521 2044.94,722.403 2046.3,726.303 2047.66,730.213 2049.02,734.125 2050.38,737.739 2051.74,741.092 2053.1,744.484 2054.46,747.91 2055.83,751.364 2057.19,754.843 2058.55,758.098 2059.91,761.141 2061.27,764.215 2062.63,767.318 2063.99,770.448 2065.35,773.604 2066.71,776.47 2068.07,779.362 2069.44,782.28 2070.8,785.225 2072.16,788.197 2073.52,791.195 2074.88,794.22 2076.24,797.271 2077.6,800.35 2078.96,803.456 2080.32,806.588 2081.68,809.793 2083.05,813.016 2084.41,816.256 2085.77,819.515 2087.13,822.791 2088.49,826.085 2089.85,829.398 2091.21,832.729 2092.57,836.078 2093.93,839.446 2095.29,842.832 2096.66,846.448 2098.02,850.285 2099.38,854.126 2100.74,857.97 2102.1,861.814 2103.46,865.655 2104.82,869.491 2106.18,873.32 2107.54,877.14 2108.9,880.947 2110.27,884.74 2111.63,888.654 2112.99,892.684 2114.35,896.686 2115.71,900.658 2117.07,904.594 2118.43,908.49 2119.79,912.417 2121.15,916.373 2122.51,920.283 2123.88,924.141 2125.24,927.942 2126.6,931.681 2127.96,935.254 2129.32,938.786 2130.68,942.273 2132.04,945.711 2133.4,949.095 2134.76,952.419 2136.12,955.68 2137.49,958.872 2138.85,961.99 2140.21,965.031 2141.57,967.988 2142.93,970.557 2144.29,973.081 2145.65,975.556 2147.01,977.981 2148.37,980.354 2149.73,982.671 2151.1,984.93 2152.46,987.13 2153.82,989.267 2155.18,991.339 2156.54,993.344 2157.9,995.008 2159.26,996.355 2160.62,997.668 2161.98,998.949 2163.34,1000.2 2164.71,1001.42 2166.07,1002.61 2167.43,1003.78 2168.79,1004.92 2170.15,1006.04 2171.51,1007.15 2172.87,1008.27 2174.23,1009.4 2175.59,1010.51 2176.95,1011.59 2178.32,1012.66 2179.68,1013.71 2181.04,1014.78 2182.4,1015.88 2183.76,1016.95 2185.12,1018.01 2186.48,1019.04 2187.84,1020.04 2189.2,1021.1 2190.56,1022.13 2191.93,1023.14 2193.29,1024.11 2194.65,1025.06 2196.01,1025.98 2197.37,1026.88 2198.73,1027.75 2200.09,1028.6 2201.45,1029.42 2202.81,1030.22 2204.17,1030.98 2205.54,1031.7 2206.9,1032.4 2208.26,1033.07 2209.62,1033.71 2210.98,1034.32 2212.34,1034.89 2213.7,1035.44 2215.06,1035.96 2216.42,1036.45 2217.78,1036.92 2219.15,1037.31 2220.51,1037.65 2221.87,1037.95 2223.23,1038.22 2224.59,1038.46 2225.95,1038.67 2227.31,1038.85 2228.67,1039 2230.03,1039.12 2231.4,1039.21 2232.76,1039.28 2234.12,1039.29 2235.48,1039.24 2236.84,1039.16 2238.2,1039.06 2239.56,1038.93 2240.92,1038.77 2242.28,1038.57 2243.64,1038.34 2245.01,1038.08 2246.37,1037.79 2247.73,1037.48 2249.09,1037.14 2250.45,1036.77 2251.81,1036.38 2253.17,1035.96 2254.53,1035.51 2255.89,1035.05 2257.25,1034.56 2258.62,1034.05 2259.98,1033.52 2261.34,1032.97 2262.7,1032.4 2264.06,1031.81 2265.42,1031.21 2266.78,1030.59 2268.14,1029.95 2269.5,1029.29 2270.86,1028.62 2272.23,1027.94 2273.59,1027.24 2274.95,1026.52 2276.31,1025.79 2277.67,1025.04 2279.03,1024.29 2280.39,1023.52 2281.75,1022.75 2283.11,1021.97 2284.47,1021.18 2285.84,1020.37 2287.2,1019.56 2288.56,1018.74 2289.92,1017.91 2291.28,1017.08 2292.64,1016.23 2294,1015.38" stroke="#ff79c6" stroke-linecap="butt" stroke-linejoin="round" stroke-width="12" stroke-opacity="1" fill="none"/><path clip-path="url(#clip650)" d="M1756.71 250.738h526.85V95.218h-526.85z" fill="#282a36" fill-rule="evenodd" fill-opacity="1"/><polyline clip-path="url(#clip650)" points="1756.71,250.738 2283.56,250.738 2283.56,95.2176 1756.71,95.2176 1756.71,250.738" stroke="#f8f8f2" stroke-linecap="butt" stroke-linejoin="round" stroke-width="4" stroke-opacity="1" fill="none"/><polyline clip-path="url(#clip650)" points="1779.78,147.058 1918.18,147.058" stroke="#8be9fd" stroke-linecap="butt" stroke-linejoin="round" stroke-width="4" stroke-opacity="1" fill="none"/><path clip-path="url(#clip650)" d="M1957.63 148.134q1.51.509 2.92 2.176 1.43 1.667 2.87 4.583l4.74 9.445h-5.02l-4.42-8.866q-1.71-3.472-3.33-4.607-1.6-1.134-4.38-1.134h-5.09v14.607h-4.68v-34.56h10.56q5.93 0 8.84 2.476 2.92 2.477 2.92 7.477 0 3.264-1.53 5.417-1.5 2.153-4.4 2.986m-11.71-14.514v12.269h5.88q3.38 0 5.09-1.551 1.74-1.574 1.74-4.607 0-3.032-1.74-4.56-1.71-1.551-5.09-1.551h-5.88zm38.82 17.685q-5.16 0-7.15 1.181-1.99 1.18-1.99 4.028 0 2.268 1.48 3.611 1.5 1.319 4.07 1.319 3.54 0 5.67-2.5 2.16-2.523 2.16-6.69v-.949h-4.24m8.49-1.759v14.792h-4.25v-3.936q-1.46 2.361-3.64 3.496-2.18 1.111-5.32 1.111-3.98 0-6.35-2.222-2.33-2.246-2.33-5.996 0-4.375 2.91-6.597 2.94-2.222 8.75-2.222h5.98v-.417q0-2.94-1.95-4.537-1.92-1.62-5.42-1.62-2.22 0-4.32.532-2.11.533-4.06 1.597v-3.935q2.34-.902 4.54-1.342 2.2-.463 4.28-.463 5.63 0 8.41 2.916 2.77 2.917 2.77 8.843zm6.3-11.134h4.26l5.32 20.231 5.3-20.231h5.03l5.32 20.231 5.3-20.231h4.26l-6.78 25.926h-5.02l-5.58-21.25-5.6 21.25h-5.03l-6.78-25.926z" fill="#f8f8f2" fill-rule="evenodd" fill-opacity="1"/><polyline clip-path="url(#clip650)" points="1779.78,198.898 1918.18,198.898" stroke="#ff79c6" stroke-linecap="butt" stroke-linejoin="round" stroke-width="4" stroke-opacity="1" fill="none"/><path clip-path="url(#clip650)" d="M1941.24 181.618h4.68v30.624h16.83v3.936h-21.51v-34.56zm38.75 3.171q-5.09 0-8.1 3.796-2.98 3.796-2.98 10.347 0 6.528 2.98 10.324 3.01 3.797 8.1 3.797 5.1 0 8.06-3.797 2.99-3.796 2.99-10.324 0-6.551-2.99-10.347-2.96-3.796-8.06-3.796m0-3.796q7.27 0 11.62 4.884 4.36 4.861 4.36 13.055 0 8.172-4.36 13.056-4.35 4.861-11.62 4.861-7.29 0-11.66-4.861-4.35-4.861-4.35-13.056 0-8.194 4.35-13.055 4.37-4.884 11.66-4.884zm23.29.625h21.85v3.935h-17.17v10.231h16.45v3.935h-16.45v12.523h17.59v3.936h-22.27v-34.56zm50.67 1.134v4.56q-2.66-1.273-5.02-1.898-2.36-.625-4.56-.625-3.82 0-5.9 1.481-2.06 1.482-2.06 4.213 0 2.292 1.36 3.472 1.39 1.158 5.23 1.875l2.83.579q5.23.996 7.7 3.519 2.5 2.5 2.5 6.713 0 5.023-3.37 7.615-3.36 2.593-9.87 2.593-2.45 0-5.23-.556-2.75-.555-5.71-1.643v-4.815q2.84 1.597 5.57 2.407 2.74.811 5.37.811 4.01 0 6.18-1.574 2.18-1.575 2.18-4.491 0-2.546-1.57-3.982-1.55-1.435-5.12-2.152l-2.85-.556q-5.23-1.042-7.57-3.264-2.33-2.222-2.33-6.18 0-4.584 3.21-7.223 3.24-2.638 8.92-2.638 2.43 0 4.95.439 2.52.44 5.16 1.32zm30.09 0v4.56q-2.66-1.273-5.02-1.898-2.36-.625-4.56-.625-3.82 0-5.9 1.481-2.06 1.482-2.06 4.213 0 2.292 1.36 3.472 1.39 1.158 5.23 1.875l2.83.579q5.23.996 7.71 3.519 2.5 2.5 2.5 6.713 0 5.023-3.38 7.615-3.36 2.593-9.86 2.593-2.46 0-5.23-.556-2.76-.555-5.72-1.643v-4.815q2.84 1.597 5.58 2.407 2.73.811 5.37.811 4 0 6.18-1.574 2.17-1.575 2.17-4.491 0-2.546-1.57-3.982-1.55-1.435-5.12-2.152l-2.84-.556q-5.24-1.042-7.57-3.264-2.34-2.222-2.34-6.18 0-4.584 3.22-7.223 3.24-2.638 8.91-2.638 2.43 0 4.95.439 2.53.44 5.16 1.32zm22.11 18.541h12.48v3.797h-12.48v-3.797zm44.93-16.597q-3.61 0-5.44 3.565-1.8 3.542-1.8 10.671 0 7.107 1.8 10.672 1.83 3.541 5.44 3.541 3.63 0 5.44-3.541 1.83-3.565 1.83-10.672 0-7.129-1.83-10.671-1.81-3.565-5.44-3.565m0-3.703q5.81 0 8.87 4.606 3.08 4.583 3.08 13.333 0 8.727-3.08 13.334-3.06 4.583-8.87 4.583-5.81 0-8.89-4.583-3.05-4.607-3.05-13.334 0-8.75 3.05-13.333 3.08-4.606 8.89-4.606zm20.16 29.305h4.89v5.88h-4.89v-5.88zm15.88 1.944h7.64v-26.365l-8.31 1.666v-4.259l8.26-1.666h4.68v30.624h7.64v3.936h-19.91v-3.936zm29.4-30.624h18.36v3.935h-14.08v8.472q1.02-.347 2.04-.509 1.02-.186 2.04-.186 5.78 0 9.16 3.172 3.38 3.171 3.38 8.588 0 5.578-3.47 8.68-3.47 3.079-9.79 3.079-2.18 0-4.45-.371-2.24-.37-4.65-1.111v-4.699q2.09 1.135 4.31 1.69 2.22.556 4.7.556 4 0 6.34-2.107 2.34-2.106 2.34-5.717 0-3.611-2.34-5.718-2.34-2.106-6.34-2.106-1.88 0-3.75.416-1.86.417-3.8 1.297v-17.361z" fill="#f8f8f2" fill-rule="evenodd" fill-opacity="1"/></svg>