<svg xmlns="http://www.w3.org/2000/svg" width="600" height="400" viewBox="0 0 2400 1600"><defs><clipPath id="clip490"><rect x="0" y="0" width="2400" height="1600"/></clipPath></defs><path clip-path="url(#clip490)" d="M0 1600h2400V0H0z" fill="#282a36" fill-rule="evenodd" fill-opacity="1"/><defs><clipPath id="clip491"><rect x="480" y="0" width="1681" height="1600"/></clipPath></defs><path clip-path="url(#clip490)" d="M249.542 1486.45H2352.76V47.244H249.542z" fill="#30343b" fill-rule="evenodd" fill-opacity="1"/><defs><clipPath id="clip492"><rect x="249" y="47" width="2104" height="1440"/></clipPath></defs><polyline clip-path="url(#clip492)" points="309.067,1486.45 309.067,47.2441" stroke="#f8f8f2" stroke-linecap="butt" stroke-linejoin="round" stroke-width="2" stroke-opacity=".1" fill="none"/><polyline clip-path="url(#clip492)" points="474.529,1486.45 474.529,47.2441" stroke="#f8f8f2" stroke-linecap="butt" stroke-linejoin="round" stroke-width="2" stroke-opacity=".1" fill="none"/><polyline clip-path="url(#clip492)" points="639.991,1486.45 639.991,47.2441" stroke="#f8f8f2" stroke-linecap="butt" stroke-linejoin="round" stroke-width="2" stroke-opacity=".1" fill="none"/><polyline clip-path="url(#clip492)" points="805.453,1486.45 805.453,47.2441" stroke="#f8f8f2" stroke-linecap="butt" stroke-linejoin="round" stroke-width="2" stroke-opacity=".1" fill="none"/><polyline clip-path="url(#clip492)" points="970.915,1486.45 970.915,47.2441" stroke="#f8f8f2" stroke-linecap="butt" stroke-linejoin="round" stroke-width="2" stroke-opacity=".1" fill="none"/><polyline clip-path="url(#clip492)" points="1136.38,1486.45 1136.38,47.2441" stroke="#f8f8f2" stroke-linecap="butt" stroke-linejoin="round" stroke-width="2" stroke-opacity=".1" fill="none"/><polyline clip-path="url(#clip492)" points="1301.84,1486.45 1301.84,47.2441" stroke="#f8f8f2" stroke-linecap="butt" stroke-linejoin="round" stroke-width="2" stroke-opacity=".1" fill="none"/><polyline clip-path="url(#clip492)" points="1467.3,1486.45 1467.3,47.2441" stroke="#f8f8f2" stroke-linecap="butt" stroke-linejoin="round" stroke-width="2" stroke-opacity=".1" fill="none"/><polyline clip-path="url(#clip492)" points="1632.76,1486.45 1632.76,47.2441" stroke="#f8f8f2" stroke-linecap="butt" stroke-linejoin="round" stroke-width="2" stroke-opacity=".1" fill="none"/><polyline clip-path="url(#clip492)" points="1798.22,1486.45 1798.22,47.2441" stroke="#f8f8f2" stroke-linecap="butt" stroke-linejoin="round" stroke-width="2" stroke-opacity=".1" fill="none"/><polyline clip-path="url(#clip492)" points="1963.69,1486.45 1963.69,47.2441" stroke="#f8f8f2" stroke-linecap="butt" stroke-linejoin="round" stroke-width="2" stroke-opacity=".1" fill="none"/><polyline clip-path="url(#clip492)" points="2129.15,1486.45 2129.15,47.2441" stroke="#f8f8f2" stroke-linecap="butt" stroke-linejoin="round" stroke-width="2" stroke-opacity=".1" fill="none"/><polyline clip-path="url(#clip490)" points="249.542,1486.45 2352.76,1486.45" stroke="#f8f8f2" stroke-linecap="butt" stroke-linejoin="round" stroke-width="4" stroke-opacity="1" fill="none"/><polyline clip-path="url(#clip490)" points="309.067,1486.45 309.067,1467.55" stroke="#f8f8f2" stroke-linecap="butt" stroke-linejoin="round" stroke-width="4" stroke-opacity="1" fill="none"/><polyline clip-path="url(#clip490)" points="474.529,1486.45 474.529,1467.55" stroke="#f8f8f2" stroke-linecap="butt" stroke-linejoin="round" stroke-width="4" stroke-opacity="1" fill="none"/><polyline clip-path="url(#clip490)" points="639.991,1486.45 639.991,1467.55" stroke="#f8f8f2" stroke-linecap="butt" stroke-linejoin="round" stroke-width="4" stroke-opacity="1" fill="none"/><polyline clip-path="url(#clip490)" points="805.453,1486.45 805.453,1467.55" stroke="#f8f8f2" stroke-linecap="butt" stroke-linejoin="round" stroke-width="4" stroke-opacity="1" fill="none"/><polyline clip-path="url(#clip490)" points="970.915,1486.45 970.915,1467.55" stroke="#f8f8f2" stroke-linecap="butt" stroke-linejoin="round" stroke-width="4" stroke-opacity="1" fill="none"/><polyline clip-path="url(#clip490)" points="1136.38,1486.45 1136.38,1467.55" stroke="#f8f8f2" stroke-linecap="butt" stroke-linejoin="round" stroke-width="4" stroke-opacity="1" fill="none"/><polyline clip-path="url(#clip490)" points="1301.84,1486.45 1301.84,1467.55" stroke="#f8f8f2" stroke-linecap="butt" stroke-linejoin="round" stroke-width="4" stroke-opacity="1" fill="none"/><polyline clip-path="url(#clip490)" points="1467.3,1486.45 1467.3,1467.55" stroke="#f8f8f2" stroke-linecap="butt" stroke-linejoin="round" stroke-width="4" stroke-opacity="1" fill="none"/><polyline clip-path="url(#clip490)" points="1632.76,1486.45 1632.76,1467.55" stroke="#f8f8f2" stroke-linecap="butt" stroke-linejoin="round" stroke-width="4" stroke-opacity="1" fill="none"/><polyline clip-path="url(#clip490)" points="1798.22,1486.45 1798.22,1467.55" stroke="#f8f8f2" stroke-linecap="butt" stroke-linejoin="round" stroke-width="4" stroke-opacity="1" fill="none"/><polyline clip-path="url(#clip490)" points="1963.69,1486.45 1963.69,1467.55" stroke="#f8f8f2" stroke-linecap="butt" stroke-linejoin="round" stroke-width="4" stroke-opacity="1" fill="none"/><polyline clip-path="url(#clip490)" points="2129.15,1486.45 2129.15,1467.55" stroke="#f8f8f2" stroke-linecap="butt" stroke-linejoin="round" stroke-width="4" stroke-opacity="1" fill="none"/><path clip-path="url(#clip490)" d="M255.838 1517.37q-3.611 0-5.44 3.56-1.805 3.54-1.805 10.67 0 7.11 1.805 10.67 1.829 3.55 5.44 3.55 3.634 0 5.44-3.55 1.829-3.56 1.829-10.67 0-7.13-1.829-10.67-1.806-3.56-5.44-3.56m0-3.71q5.81 0 8.866 4.61 3.078 4.58 3.078 13.33 0 8.73-3.078 13.34-3.056 4.58-8.866 4.58t-8.889-4.58q-3.055-4.61-3.055-13.34 0-8.75 3.055-13.33 3.079-4.61 8.889-4.61zm30.162 3.71q-3.611 0-5.44 3.56-1.805 3.54-1.805 10.67 0 7.11 1.805 10.67 1.829 3.55 5.44 3.55 3.634 0 5.44-3.55 1.828-3.56 1.828-10.67 0-7.13-1.828-10.67-1.806-3.56-5.44-3.56m0-3.71q5.81 0 8.866 4.61 3.078 4.58 3.078 13.33 0 8.73-3.078 13.34-3.056 4.58-8.866 4.58t-8.889-4.58q-3.055-4.61-3.055-13.34 0-8.75 3.055-13.33 3.079-4.61 8.889-4.61zm20.648 29.31h4.884v5.88h-4.884v-5.88m0-18.64h4.884v5.88h-4.884v-5.88zm25.486-6.96q-3.611 0-5.44 3.56-1.805 3.54-1.805 10.67 0 7.11 1.805 10.67 1.829 3.55 5.44 3.55 3.634 0 5.44-3.55 1.828-3.56 1.828-10.67 0-7.13-1.828-10.67-1.806-3.56-5.44-3.56m0-3.71q5.81 0 8.866 4.61 3.078 4.58 3.078 13.33 0 8.73-3.078 13.34-3.056 4.58-8.866 4.58t-8.889-4.58q-3.055-4.61-3.055-13.34 0-8.75 3.055-13.33 3.079-4.61 8.889-4.61zm30.162 3.71q-3.611 0-5.44 3.56-1.805 3.54-1.805 10.67 0 7.11 1.805 10.67 1.829 3.55 5.44 3.55 3.634 0 5.44-3.55 1.828-3.56 1.828-10.67 0-7.13-1.828-10.67-1.806-3.56-5.44-3.56m0-3.71q5.81 0 8.866 4.61 3.078 4.58 3.078 13.33 0 8.73-3.078 13.34-3.056 4.58-8.866 4.58t-8.889-4.58q-3.056-4.61-3.056-13.34 0-8.75 3.056-13.33 3.079-4.61 8.889-4.61zm59.004 3.71q-3.611 0-5.44 3.56-1.805 3.54-1.805 10.67 0 7.11 1.805 10.67 1.829 3.55 5.44 3.55 3.634 0 5.44-3.55 1.828-3.56 1.828-10.67 0-7.13-1.828-10.67-1.806-3.56-5.44-3.56m0-3.71q5.81 0 8.866 4.61 3.078 4.58 3.078 13.33 0 8.73-3.078 13.34-3.056 4.58-8.866 4.58t-8.889-4.58q-3.055-4.61-3.055-13.34 0-8.75 3.055-13.33 3.079-4.61 8.889-4.61zm24.19 31.25h16.319v3.94h-21.944v-3.94q2.662-2.75 7.245-7.38 4.606-4.65 5.787-6 2.245-2.52 3.125-4.26.903-1.76.903-3.45 0-2.75-1.945-4.49-1.921-1.73-5.023-1.73-2.199 0-4.653.76-2.43.77-5.208 2.32v-4.73q2.824-1.13 5.278-1.71 2.454-.58 4.491-.58 5.37 0 8.564 2.69 3.195 2.68 3.195 7.17 0 2.13-.81 4.05-.787 1.9-2.894 4.5-.579.67-3.68 3.88-3.102 3.2-8.75 8.96zm26.62-1.94h4.884v5.88h-4.884v-5.88m0-18.64h4.884v5.88h-4.884v-5.88zm25.486-6.96q-3.611 0-5.44 3.56-1.805 3.54-1.805 10.67 0 7.11 1.805 10.67 1.829 3.55 5.44 3.55 3.634 0 5.44-3.55 1.828-3.56 1.828-10.67 0-7.13-1.828-10.67-1.806-3.56-5.44-3.56m0-3.71q5.81 0 8.866 4.61 3.078 4.58 3.078 13.33 0 8.73-3.078 13.34-3.056 4.58-8.866 4.58t-8.889-4.58q-3.056-4.61-3.056-13.34 0-8.75 3.056-13.33 3.079-4.61 8.889-4.61zm30.162 3.71q-3.611 0-5.44 3.56-1.806 3.54-1.806 10.67 0 7.11 1.806 10.67 1.829 3.55 5.44 3.55 3.634 0 5.44-3.55 1.828-3.56 1.828-10.67 0-7.13-1.828-10.67-1.806-3.56-5.44-3.56m0-3.71q5.81 0 8.865 4.61 3.079 4.58 3.079 13.33 0 8.73-3.079 13.34-3.055 4.58-8.865 4.58-5.81 0-8.889-4.58-3.056-4.61-3.056-13.34 0-8.75 3.056-13.33 3.079-4.61 8.889-4.61zm59.004 3.71q-3.611 0-5.44 3.56-1.805 3.54-1.805 10.67 0 7.11 1.805 10.67 1.829 3.55 5.44 3.55 3.634 0 5.44-3.55 1.828-3.56 1.828-10.67 0-7.13-1.828-10.67-1.806-3.56-5.44-3.56m0-3.71q5.81 0 8.866 4.61 3.078 4.58 3.078 13.33 0 8.73-3.078 13.34-3.056 4.58-8.866 4.58t-8.889-4.58q-3.055-4.61-3.055-13.34 0-8.75 3.055-13.33 3.079-4.61 8.889-4.61zm33.009 4.7l-11.806 18.45h11.806v-18.45m-1.227-4.07h5.88v22.52h4.93v3.89h-4.93v8.15h-4.653v-8.15h-15.602v-4.51l14.375-21.9zm19.028 28.68h4.884v5.88h-4.884v-5.88m0-18.64h4.884v5.88h-4.884v-5.88zm25.486-6.96q-3.611 0-5.44 3.56-1.806 3.54-1.806 10.67 0 7.11 1.806 10.67 1.829 3.55 5.44 3.55 3.634 0 5.44-3.55 1.828-3.56 1.828-10.67 0-7.13-1.828-10.67-1.806-3.56-5.44-3.56m0-3.71q5.81 0 8.865 4.61 3.079 4.58 3.079 13.33 0 8.73-3.079 13.34-3.055 4.58-8.865 4.58-5.81 0-8.889-4.58-3.056-4.61-3.056-13.34 0-8.75 3.056-13.33 3.079-4.61 8.889-4.61zm30.162 3.71q-3.611 0-5.44 3.56-1.806 3.54-1.806 10.67 0 7.11 1.806 10.67 1.829 3.55 5.44 3.55 3.634 0 5.439-3.55 1.829-3.56 1.829-10.67 0-7.13-1.829-10.67-1.805-3.56-5.439-3.56m0-3.71q5.81 0 8.865 4.61 3.079 4.58 3.079 13.33 0 8.73-3.079 13.34-3.055 4.58-8.865 4.58-5.811 0-8.889-4.58-3.056-4.61-3.056-13.34 0-8.75 3.056-13.33 3.078-4.61 8.889-4.61zm59.004 3.71q-3.611 0-5.44 3.56-1.806 3.54-1.806 10.67 0 7.11 1.806 10.67 1.829 3.55 5.44 3.55 3.634 0 5.44-3.55 1.828-3.56 1.828-10.67 0-7.13-1.828-10.67-1.806-3.56-5.44-3.56m0-3.71q5.81 0 8.865 4.61 3.079 4.58 3.079 13.33 0 8.73-3.079 13.34-3.055 4.58-8.865 4.58-5.81 0-8.889-4.58-3.056-4.61-3.056-13.34 0-8.75 3.056-13.33 3.079-4.61 8.889-4.61zm30.74 16.04q-3.148 0-5 2.16-1.828 2.15-1.828 5.9 0 3.73 1.828 5.9 1.852 2.16 5 2.16 3.148 0 4.977-2.16 1.852-2.17 1.852-5.9 0-3.75-1.852-5.9-1.829-2.16-4.977-2.16m9.283-14.65v4.26q-1.76-.83-3.565-1.27-1.782-.44-3.542-.44-4.629 0-7.083 3.12-2.431 3.13-2.778 9.45 1.366-2.02 3.426-3.08 2.06-1.09 4.537-1.09 5.208 0 8.218 3.17 3.032 3.15 3.032 8.59 0 5.32-3.148 8.54-3.148 3.22-8.38 3.22-5.995 0-9.166-4.58-3.172-4.61-3.172-13.34 0-8.19 3.889-13.05 3.889-4.89 10.44-4.89 1.759 0 3.542.35 1.805.35 3.75 1.04zm10.787 27.92h4.884v5.88h-4.884v-5.88m0-18.64h4.884v5.88h-4.884v-5.88zm25.486-6.96q-3.611 0-5.44 3.56-1.806 3.54-1.806 10.67 0 7.11 1.806 10.67 1.829 3.55 5.44 3.55 3.634 0 5.439-3.55 1.829-3.56 1.829-10.67 0-7.13-1.829-10.67-1.805-3.56-5.439-3.56m0-3.71q5.81 0 8.865 4.61 3.079 4.58 3.079 13.33 0 8.73-3.079 13.34-3.055 4.58-8.865 4.58-5.81 0-8.889-4.58-3.056-4.61-3.056-13.34 0-8.75 3.056-13.33 3.079-4.61 8.889-4.61zm30.162 3.71q-3.612 0-5.44 3.56-1.806 3.54-1.806 10.67 0 7.11 1.806 10.67 1.828 3.55 5.44 3.55 3.634 0 5.439-3.55 1.829-3.56 1.829-10.67 0-7.13-1.829-10.67-1.805-3.56-5.439-3.56m0-3.71q5.81 0 8.865 4.61 3.079 4.58 3.079 13.33 0 8.73-3.079 13.34-3.055 4.58-8.865 4.58-5.811 0-8.889-4.58-3.056-4.61-3.056-13.34 0-8.75 3.056-13.33 3.078-4.61 8.889-4.61zm59.004 3.71q-3.611 0-5.44 3.56-1.806 3.54-1.806 10.67 0 7.11 1.806 10.67 1.829 3.55 5.44 3.55 3.634 0 5.439-3.55 1.829-3.56 1.829-10.67 0-7.13-1.829-10.67-1.805-3.56-5.439-3.56m0-3.71q5.81 0 8.865 4.61 3.079 4.58 3.079 13.33 0 8.73-3.079 13.34-3.055 4.58-8.865 4.58-5.81 0-8.889-4.58-3.056-4.61-3.056-13.34 0-8.75 3.056-13.33 3.079-4.61 8.889-4.61zm30.162 18.78q-3.334 0-5.255 1.78-1.898 1.78-1.898 4.91 0 3.12 1.898 4.9 1.921 1.79 5.255 1.79 3.333 0 5.254-1.79 1.921-1.8 1.921-4.9 0-3.13-1.921-4.91-1.898-1.78-5.254-1.78m-4.676-1.99q-3.01-.75-4.699-2.81-1.667-2.06-1.667-5.02 0-4.14 2.94-6.55 2.963-2.41 8.102-2.41 5.162 0 8.101 2.41 2.94 2.41 2.94 6.55 0 2.96-1.69 5.02-1.666 2.06-4.652 2.81 3.379.78 5.254 3.07 1.898 2.3 1.898 5.61 0 5.02-3.078 7.7-3.056 2.69-8.773 2.69-5.718 0-8.797-2.69-3.055-2.68-3.055-7.7 0-3.31 1.898-5.61 1.898-2.29 5.278-3.07m-1.713-7.39q0 2.69 1.666 4.19 1.69 1.51 4.723 1.51 3.009 0 4.699-1.51 1.713-1.5 1.713-4.19 0-2.68-1.713-4.19-1.69-1.5-4.699-1.5-3.033 0-4.723 1.5-1.666 1.51-1.666 4.19zm27.037 19.91h4.884v5.88h-4.884v-5.88m0-18.64h4.884v5.88h-4.884v-5.88zm25.486-6.96q-3.612 0-5.44 3.56-1.806 3.54-1.806 10.67 0 7.11 1.806 10.67 1.828 3.55 5.44 3.55 3.634 0 5.439-3.55 1.829-3.56 1.829-10.67 0-7.13-1.829-10.67-1.805-3.56-5.439-3.56m0-3.71q5.81 0 8.868 4.61 3.08 4.58 3.08 13.33 0 8.73-3.08 13.34-3.058 4.58-8.868 4.58-5.811 0-8.889-4.58-3.056-4.61-3.056-13.34 0-8.75 3.056-13.33 3.078-4.61 8.889-4.61zm30.158 3.71q-3.61 0-5.44 3.56-1.8 3.54-1.8 10.67 0 7.11 1.8 10.67 1.83 3.55 5.44 3.55 3.64 0 5.44-3.55 1.83-3.56 1.83-10.67 0-7.13-1.83-10.67-1.8-3.56-5.44-3.56m0-3.71q5.81 0 8.87 4.61 3.08 4.58 3.08 13.33 0 8.73-3.08 13.34-3.06 4.58-8.87 4.58-5.81 0-8.89-4.58-3.05-4.61-3.05-13.34 0-8.75 3.05-13.33 3.08-4.61 8.89-4.61zm48.78 31.25h7.64v-26.36l-8.32 1.66v-4.26l8.27-1.66h4.67v30.62h7.64v3.94h-19.9v-3.94zm39.35-27.54q-3.61 0-5.44 3.56-1.81 3.54-1.81 10.67 0 7.11 1.81 10.67 1.83 3.55 5.44 3.55 3.63 0 5.44-3.55 1.83-3.56 1.83-10.67 0-7.13-1.83-10.67-1.81-3.56-5.44-3.56m0-3.71q5.81 0 8.86 4.61 3.08 4.58 3.08 13.33 0 8.73-3.08 13.34-3.05 4.58-8.86 4.58t-8.89-4.58q-3.06-4.61-3.06-13.34 0-8.75 3.06-13.33 3.08-4.61 8.89-4.61zm20.65 29.31h4.88v5.88h-4.88v-5.88m0-18.64h4.88v5.88h-4.88v-5.88zm25.48-6.96q-3.61 0-5.44 3.56-1.8 3.54-1.8 10.67 0 7.11 1.8 10.67 1.83 3.55 5.44 3.55 3.64 0 5.44-3.55 1.83-3.56 1.83-10.67 0-7.13-1.83-10.67-1.8-3.56-5.44-3.56m0-3.71q5.81 0 8.87 4.61 3.08 4.58 3.08 13.33 0 8.73-3.08 13.34-3.06 4.58-8.87 4.58-5.81 0-8.89-4.58-3.05-4.61-3.05-13.34 0-8.75 3.05-13.33 3.08-4.61 8.89-4.61zm30.16 3.71q-3.61 0-5.44 3.56-1.8 3.54-1.8 10.67 0 7.11 1.8 10.67 1.83 3.55 5.44 3.55 3.64 0 5.44-3.55 1.83-3.56 1.83-10.67 0-7.13-1.83-10.67-1.8-3.56-5.44-3.56m0-3.71q5.81 0 8.87 4.61 3.08 4.58 3.08 13.33 0 8.73-3.08 13.34-3.06 4.58-8.87 4.58-5.81 0-8.89-4.58-3.05-4.61-3.05-13.34 0-8.75 3.05-13.33 3.08-4.61 8.89-4.61zm49.82 31.25h7.64v-26.36l-8.31 1.66v-4.26l8.26-1.66h4.68v30.62h7.64v3.94h-19.91v-3.94zm33.38 0h16.32v3.94h-21.95v-3.94q2.66-2.75 7.25-7.38 4.6-4.65 5.78-6 2.25-2.52 3.13-4.26.9-1.76.9-3.45 0-2.75-1.94-4.49-1.92-1.73-5.02-1.73-2.2 0-4.66.76-2.43.77-5.21 2.32v-4.73q2.83-1.13 5.28-1.71 2.46-.58 4.49-.58 5.37 0 8.57 2.69 3.19 2.68 3.19 7.17 0 2.13-.81 4.05-.79 1.9-2.89 4.5-.58.67-3.68 3.88-3.1 3.2-8.75 8.96zm26.62-1.94h4.88v5.88h-4.88v-5.88m0-18.64h4.88v5.88h-4.88v-5.88zm25.48-6.96q-3.61 0-5.44 3.56-1.8 3.54-1.8 10.67 0 7.11 1.8 10.67 1.83 3.55 5.44 3.55 3.64 0 5.44-3.55 1.83-3.56 1.83-10.67 0-7.13-1.83-10.67-1.8-3.56-5.44-3.56m0-3.71q5.81 0 8.87 4.61 3.08 4.58 3.08 13.33 0 8.73-3.08 13.34-3.06 4.58-8.87 4.58-5.81 0-8.89-4.58-3.05-4.61-3.05-13.34 0-8.75 3.05-13.33 3.08-4.61 8.89-4.61zm30.17 3.71q-3.62 0-5.44 3.56-1.81 3.54-1.81 10.67 0 7.11 1.81 10.67 1.82 3.55 5.44 3.55 3.63 0 5.44-3.55 1.82-3.56 1.82-10.67 0-7.13-1.82-10.67-1.81-3.56-5.44-3.56m0-3.71q5.81 0 8.86 4.61 3.08 4.58 3.08 13.33 0 8.73-3.08 13.34-3.05 4.58-8.86 4.58t-8.89-4.58q-3.06-4.61-3.06-13.34 0-8.75 3.06-13.33 3.08-4.61 8.89-4.61zm49.81 31.25h7.64v-26.36l-8.31 1.66v-4.26l8.26-1.66h4.68v30.62h7.64v3.94h-19.91v-3.94zm42.2-26.55l-11.81 18.45h11.81v-18.45m-1.23-4.07h5.88v22.52h4.93v3.89h-4.93v8.15h-4.65v-8.15h-15.6v-4.51l14.37-21.9zm19.03 28.68h4.88v5.88h-4.88v-5.88m0-18.64h4.88v5.88h-4.88v-5.88zm25.49-6.96q-3.62 0-5.44 3.56-1.81 3.54-1.81 10.67 0 7.11 1.81 10.67 1.82 3.55 5.44 3.55 3.63 0 5.44-3.55 1.82-3.56 1.82-10.67 0-7.13-1.82-10.67-1.81-3.56-5.44-3.56m0-3.71q5.81 0 8.86 4.61 3.08 4.58 3.08 13.33 0 8.73-3.08 13.34-3.05 4.58-8.86 4.58t-8.89-4.58q-3.06-4.61-3.06-13.34 0-8.75 3.06-13.33 3.08-4.61 8.89-4.61zm30.16 3.71q-3.61 0-5.44 3.56-1.81 3.54-1.81 10.67 0 7.11 1.81 10.67 1.83 3.55 5.44 3.55 3.63 0 5.44-3.55 1.83-3.56 1.83-10.67 0-7.13-1.83-10.67-1.81-3.56-5.44-3.56m0-3.71q5.81 0 8.86 4.61 3.08 4.58 3.08 13.33 0 8.73-3.08 13.34-3.05 4.58-8.86 4.58t-8.89-4.58q-3.06-4.61-3.06-13.34 0-8.75 3.06-13.33 3.08-4.61 8.89-4.61zm49.81 31.25h7.64v-26.36l-8.31 1.66v-4.26l8.26-1.66h4.68v30.62h7.64v3.94h-19.91v-3.94zm39.93-15.21q-3.15 0-5 2.16-1.83 2.15-1.83 5.9 0 3.73 1.83 5.9 1.85 2.16 5 2.16t4.98-2.16q1.85-2.17 1.85-5.9 0-3.75-1.85-5.9-1.83-2.16-4.98-2.16m9.28-14.65v4.26q-1.75-.83-3.56-1.27-1.78-.44-3.54-.44-4.63 0-7.09 3.12-2.43 3.13-2.77 9.45 1.36-2.02 3.42-3.08 2.06-1.09 4.54-1.09 5.21 0 8.22 3.17 3.03 3.15 3.03 8.59 0 5.32-3.15 8.54-3.15 3.22-8.38 3.22-5.99 0-9.16-4.58-3.18-4.61-3.18-13.34 0-8.19 3.89-13.05 3.89-4.89 10.44-4.89 1.76 0 3.54.35 1.81.35 3.75 1.04zm10.79 27.92h4.89v5.88h-4.89v-5.88m0-18.64h4.89v5.88h-4.89v-5.88zm25.49-6.96q-3.61 0-5.44 3.56-1.81 3.54-1.81 10.67 0 7.11 1.81 10.67 1.83 3.55 5.44 3.55 3.63 0 5.44-3.55 1.83-3.56 1.83-10.67 0-7.13-1.83-10.67-1.81-3.56-5.44-3.56m0-3.71q5.81 0 8.86 4.61 3.08 4.58 3.08 13.33 0 8.73-3.08 13.34-3.05 4.58-8.86 4.58t-8.89-4.58q-3.06-4.61-3.06-13.34 0-8.75 3.06-13.33 3.08-4.61 8.89-4.61zm30.16 3.71q-3.61 0-5.44 3.56-1.81 3.54-1.81 10.67 0 7.11 1.81 10.67 1.83 3.55 5.44 3.55 3.63 0 5.44-3.55 1.83-3.56 1.83-10.67 0-7.13-1.83-10.67-1.81-3.56-5.44-3.56m0-3.71q5.81 0 8.87 4.61 3.07 4.58 3.07 13.33 0 8.73-3.07 13.34-3.06 4.58-8.87 4.58-5.81 0-8.89-4.58-3.05-4.61-3.05-13.34 0-8.75 3.05-13.33 3.08-4.61 8.89-4.61zm49.81 31.25h7.64v-26.36l-8.31 1.66v-4.26l8.27-1.66h4.67v30.62h7.64v3.94h-19.91v-3.94zm39.36-12.47q-3.34 0-5.26 1.78-1.9 1.78-1.9 4.91 0 3.12 1.9 4.9 1.92 1.79 5.26 1.79 3.33 0 5.25-1.79 1.92-1.8 1.92-4.9 0-3.13-1.92-4.91-1.9-1.78-5.25-1.78m-4.68-1.99q-3.01-.75-4.7-2.81-1.67-2.06-1.67-5.02 0-4.14 2.94-6.55 2.97-2.41 8.11-2.41 5.16 0 8.1 2.41 2.94 2.41 2.94 6.55 0 2.96-1.69 5.02-1.67 2.06-4.66 2.81 3.38.78 5.26 3.07 1.9 2.3 1.9 5.61 0 5.02-3.08 7.7-3.06 2.69-8.77 2.69-5.72 0-8.8-2.69-3.06-2.68-3.06-7.7 0-3.31 1.9-5.61 1.9-2.29 5.28-3.07m-1.71-7.39q0 2.69 1.66 4.19 1.69 1.51 4.73 1.51 3 0 4.69-1.51 1.72-1.5 1.72-4.19 0-2.68-1.72-4.19-1.69-1.5-4.69-1.5-3.04 0-4.73 1.5-1.66 1.51-1.66 4.19zm27.03 19.91h4.89v5.88h-4.89v-5.88m0-18.64h4.89v5.88h-4.89v-5.88zm25.49-6.96q-3.61 0-5.44 3.56-1.81 3.54-1.81 10.67 0 7.11 1.81 10.67 1.83 3.55 5.44 3.55 3.63 0 5.44-3.55 1.83-3.56 1.83-10.67 0-7.13-1.83-10.67-1.81-3.56-5.44-3.56m0-3.71q5.81 0 8.87 4.61 3.07 4.58 3.07 13.33 0 8.73-3.07 13.34-3.06 4.58-8.87 4.58-5.81 0-8.89-4.58-3.05-4.61-3.05-13.34 0-8.75 3.05-13.33 3.08-4.61 8.89-4.61zm30.16 3.71q-3.61 0-5.44 3.56-1.8 3.54-1.8 10.67 0 7.11 1.8 10.67 1.83 3.55 5.44 3.55 3.64 0 5.44-3.55 1.83-3.56 1.83-10.67 0-7.13-1.83-10.67-1.8-3.56-5.44-3.56m0-3.71q5.81 0 8.87 4.61 3.08 4.58 3.08 13.33 0 8.73-3.08 13.34-3.06 4.58-8.87 4.58-5.81 0-8.89-4.58-3.05-4.61-3.05-13.34 0-8.75 3.05-13.33 3.08-4.61 8.89-4.61zm53.9 31.25h16.32v3.94h-21.94v-3.94q2.66-2.75 7.24-7.38 4.61-4.65 5.79-6 2.24-2.52 3.12-4.26.91-1.76.91-3.45 0-2.75-1.95-4.49-1.92-1.73-5.02-1.73-2.2 0-4.65.76-2.43.77-5.21 2.32v-4.73q2.82-1.13 5.28-1.71 2.45-.58 4.49-.58 5.37 0 8.56 2.69 3.2 2.68 3.2 7.17 0 2.13-.81 4.05-.79 1.9-2.9 4.5-.58.67-3.68 3.88-3.1 3.2-8.75 8.96zm36.14-27.54q-3.62 0-5.44 3.56-1.81 3.54-1.81 10.67 0 7.11 1.81 10.67 1.82 3.55 5.44 3.55 3.63 0 5.44-3.55 1.82-3.56 1.82-10.67 0-7.13-1.82-10.67-1.81-3.56-5.44-3.56m0-3.71q5.81 0 8.86 4.61 3.08 4.58 3.08 13.33 0 8.73-3.08 13.34-3.05 4.58-8.86 4.58t-8.89-4.58q-3.06-4.61-3.06-13.34 0-8.75 3.06-13.33 3.08-4.61 8.89-4.61zm20.64 29.31h4.89v5.88h-4.89v-5.88m0-18.64h4.89v5.88h-4.89v-5.88zm25.49-6.96q-3.61 0-5.44 3.56-1.81 3.54-1.81 10.67 0 7.11 1.81 10.67 1.83 3.55 5.44 3.55 3.63 0 5.44-3.55 1.83-3.56 1.83-10.67 0-7.13-1.83-10.67-1.81-3.56-5.44-3.56m0-3.71q5.81 0 8.87 4.61 3.07 4.58 3.07 13.33 0 8.73-3.07 13.34-3.06 4.58-8.87 4.58-5.81 0-8.89-4.58-3.05-4.61-3.05-13.34 0-8.75 3.05-13.33 3.08-4.61 8.89-4.61zm30.16 3.71q-3.61 0-5.44 3.56-1.8 3.54-1.8 10.67 0 7.11 1.8 10.67 1.83 3.55 5.44 3.55 3.64 0 5.44-3.55 1.83-3.56 1.83-10.67 0-7.13-1.83-10.67-1.8-3.56-5.44-3.56m0-3.71q5.81 0 8.87 4.61 3.08 4.58 3.08 13.33 0 8.73-3.08 13.34-3.06 4.58-8.87 4.58-5.81 0-8.89-4.58-3.05-4.61-3.05-13.34 0-8.75 3.05-13.33 3.08-4.61 8.89-4.61zm53.03 31.25h16.32v3.94h-21.94v-3.94q2.66-2.75 7.24-7.38 4.61-4.65 5.79-6 2.25-2.52 3.13-4.26.9-1.76.9-3.45 0-2.75-1.95-4.49-1.92-1.73-5.02-1.73-2.2 0-4.65.76-2.43.77-5.21 2.32v-4.73q2.82-1.13 5.28-1.71 2.45-.58 4.49-.58 5.37 0 8.56 2.69 3.2 2.68 3.2 7.17 0 2.13-.81 4.05-.79 1.9-2.9 4.5-.57.67-3.68 3.88-3.1 3.2-8.75 8.96zm30.17 0h16.31v3.94h-21.94v-3.94q2.66-2.75 7.25-7.38 4.6-4.65 5.78-6 2.25-2.52 3.13-4.26.9-1.76.9-3.45 0-2.75-1.94-4.49-1.93-1.73-5.03-1.73-2.2 0-4.65.76-2.43.77-5.21 2.32v-4.73q2.83-1.13 5.28-1.71 2.45-.58 4.49-.58 5.37 0 8.56 2.69 3.2 2.68 3.2 7.17 0 2.13-.81 4.05-.79 1.9-2.89 4.5-.58.67-3.68 3.88-3.11 3.2-8.75 8.96zm26.62-1.94h4.88v5.88h-4.88v-5.88m0-18.64h4.88v5.88h-4.88v-5.88zm25.48-6.96q-3.61 0-5.44 3.56-1.8 3.54-1.8 10.67 0 7.11 1.8 10.67 1.83 3.55 5.44 3.55 3.64 0 5.44-3.55 1.83-3.56 1.83-10.67 0-7.13-1.83-10.67-1.8-3.56-5.44-3.56m0-3.71q5.81 0 8.87 4.61 3.08 4.58 3.08 13.33 0 8.73-3.08 13.34-3.06 4.58-8.87 4.58-5.81 0-8.89-4.58-3.05-4.61-3.05-13.34 0-8.75 3.05-13.33 3.08-4.61 8.89-4.61zm30.16 3.71q-3.61 0-5.44 3.56-1.8 3.54-1.8 10.67 0 7.11 1.8 10.67 1.83 3.55 5.44 3.55 3.64 0 5.44-3.55 1.83-3.56 1.83-10.67 0-7.13-1.83-10.67-1.8-3.56-5.44-3.56m0-3.71q5.81 0 8.87 4.61 3.08 4.58 3.08 13.33 0 8.73-3.08 13.34-3.06 4.58-8.87 4.58-5.81 0-8.89-4.58-3.05-4.61-3.05-13.34 0-8.75 3.05-13.33 3.08-4.61 8.89-4.61z" fill="#f8f8f2" fill-rule="evenodd" fill-opacity="1"/><polyline clip-path="url(#clip492)" points="249.542,1445.72 2352.76,1445.72" stroke="#f8f8f2" stroke-linecap="butt" stroke-linejoin="round" stroke-width="2" stroke-opacity=".1" fill="none"/><polyline clip-path="url(#clip492)" points="249.542,1105.92 2352.76,1105.92" stroke="#f8f8f2" stroke-linecap="butt" stroke-linejoin="round" stroke-width="2" stroke-opacity=".1" fill="none"/><polyline clip-path="url(#clip492)" points="249.542,766.131 2352.76,766.131" stroke="#f8f8f2" stroke-linecap="butt" stroke-linejoin="round" stroke-width="2" stroke-opacity=".1" fill="none"/><polyline clip-path="url(#clip492)" points="249.542,426.339 2352.76,426.339" stroke="#f8f8f2" stroke-linecap="butt" stroke-linejoin="round" stroke-width="2" stroke-opacity=".1" fill="none"/><polyline clip-path="url(#clip492)" points="249.542,86.5463 2352.76,86.5463" stroke="#f8f8f2" stroke-linecap="butt" stroke-linejoin="round" stroke-width="2" stroke-opacity=".1" fill="none"/><polyline clip-path="url(#clip490)" points="249.542,1486.45 249.542,47.2441" stroke="#f8f8f2" stroke-linecap="butt" stroke-linejoin="round" stroke-width="4" stroke-opacity="1" fill="none"/><polyline clip-path="url(#clip490)" points="249.542,1445.72 268.44,1445.72" stroke="#f8f8f2" stroke-linecap="butt" stroke-linejoin="round" stroke-width="4" stroke-opacity="1" fill="none"/><polyline clip-path="url(#clip490)" points="249.542,1105.92 268.44,1105.92" stroke="#f8f8f2" stroke-linecap="butt" stroke-linejoin="round" stroke-width="4" stroke-opacity="1" fill="none"/><polyline clip-path="url(#clip490)" points="249.542,766.131 268.44,766.131" stroke="#f8f8f2" stroke-linecap="butt" stroke-linejoin="round" stroke-width="4" stroke-opacity="1" fill="none"/><polyline clip-path="url(#clip490)" points="249.542,426.339 268.44,426.339" stroke="#f8f8f2" stroke-linecap="butt" stroke-linejoin="round" stroke-width="4" stroke-opacity="1" fill="none"/><polyline clip-path="url(#clip490)" points="249.542,86.5463 268.44,86.5463" stroke="#f8f8f2" stroke-linecap="butt" stroke-linejoin="round" stroke-width="4" stroke-opacity="1" fill="none"/><path clip-path="url(#clip490)" d="M126.205 1431.51q-3.612 0-5.44 3.57-1.806 3.54-1.806 10.67 0 7.11 1.806 10.67 1.828 3.54 5.44 3.54 3.634 0 5.439-3.54 1.829-3.56 1.829-10.67 0-7.13-1.829-10.67-1.805-3.57-5.439-3.57m0-3.7q5.81 0 8.865 4.61 3.079 4.58 3.079 13.33 0 8.73-3.079 13.33-3.055 4.59-8.865 4.59-5.811 0-8.889-4.59-3.056-4.6-3.056-13.33 0-8.75 3.056-13.33 3.078-4.61 8.889-4.61zm20.161 29.31h4.885v5.88h-4.885v-5.88zm25.07-25.61q-3.611 0-5.44 3.57-1.806 3.54-1.806 10.67 0 7.11 1.806 10.67 1.829 3.54 5.44 3.54 3.634 0 5.44-3.54 1.828-3.56 1.828-10.67 0-7.13-1.828-10.67-1.806-3.57-5.44-3.57m0-3.7q5.81 0 8.865 4.61 3.079 4.58 3.079 13.33 0 8.73-3.079 13.33-3.055 4.59-8.865 4.59-5.81 0-8.889-4.59-3.056-4.6-3.056-13.33 0-8.75 3.056-13.33 3.079-4.61 8.889-4.61zm30.162 3.7q-3.611 0-5.44 3.57-1.806 3.54-1.806 10.67 0 7.11 1.806 10.67 1.829 3.54 5.44 3.54 3.634 0 5.439-3.54 1.829-3.56 1.829-10.67 0-7.13-1.829-10.67-1.805-3.57-5.439-3.57m0-3.7q5.81 0 8.865 4.61 3.079 4.58 3.079 13.33 0 8.73-3.079 13.33-3.055 4.59-8.865 4.59-5.811 0-8.889-4.59-3.056-4.6-3.056-13.33 0-8.75 3.056-13.33 3.078-4.61 8.889-4.61zM127.2 1091.72q-3.611 0-5.44 3.57-1.805 3.54-1.805 10.67 0 7.1 1.805 10.67 1.829 3.54 5.44 3.54 3.634 0 5.44-3.54 1.828-3.57 1.828-10.67 0-7.13-1.828-10.67-1.806-3.57-5.44-3.57m0-3.7q5.81 0 8.866 4.6 3.078 4.59 3.078 13.34 0 8.72-3.078 13.33-3.056 4.58-8.866 4.58t-8.889-4.58q-3.055-4.61-3.055-13.33 0-8.75 3.055-13.34 3.079-4.6 8.889-4.6zm20.162 29.3h4.884v5.88h-4.884v-5.88zm19.097 1.95h16.319v3.93h-21.944v-3.93q2.662-2.76 7.245-7.39 4.607-4.65 5.787-5.99 2.246-2.52 3.125-4.26.903-1.76.903-3.45 0-2.75-1.944-4.49-1.922-1.74-5.023-1.74-2.2 0-4.653.77-2.431.76-5.209 2.31v-4.72q2.825-1.13 5.278-1.71 2.454-.58 4.491-.58 5.37 0 8.565 2.68 3.194 2.69 3.194 7.18 0 2.13-.81 4.05-.787 1.9-2.894 4.49-.578.67-3.68 3.89-3.102 3.19-8.75 8.96zm26.18-30.63h18.357v3.94h-14.074v8.47q1.018-.35 2.037-.51 1.018-.18 2.037-.18 5.787 0 9.166 3.17 3.38 3.17 3.38 8.59 0 5.57-3.472 8.68-3.472 3.07-9.792 3.07-2.176 0-4.444-.37-2.246-.37-4.653-1.11v-4.7q2.083 1.14 4.306 1.69 2.222.56 4.699.56 4.004 0 6.342-2.11 2.338-2.1 2.338-5.71 0-3.62-2.338-5.72-2.338-2.11-6.342-2.11-1.875 0-3.75.42-1.852.41-3.797 1.29v-17.36zm-66.434-336.71q-3.612 0-5.44 3.564-1.806 3.542-1.806 10.672 0 7.106 1.806 10.671 1.828 3.542 5.44 3.542 3.634 0 5.439-3.542 1.829-3.565 1.829-10.671 0-7.13-1.829-10.672-1.805-3.564-5.439-3.564m0-3.704q5.81 0 8.865 4.606 3.079 4.584 3.079 13.334 0 8.727-3.079 13.333-3.055 4.583-8.865 4.583-5.811 0-8.889-4.583-3.056-4.606-3.056-13.333 0-8.75 3.056-13.334 3.078-4.606 8.889-4.606zm20.161 29.305h4.885v5.88h-4.885v-5.88zm15.116-28.68h18.357v3.935h-14.074v8.472q1.018-.347 2.037-.509 1.018-.185 2.037-.185 5.787 0 9.166 3.171 3.38 3.171 3.38 8.588 0 5.579-3.472 8.681-3.473 3.078-9.792 3.078-2.176 0-4.444-.37-2.246-.37-4.653-1.111v-4.699q2.083 1.134 4.305 1.69 2.223.555 4.699.555 4.005 0 6.343-2.106 2.338-2.107 2.338-5.718 0-3.611-2.338-5.717-2.338-2.107-6.343-2.107-1.875 0-3.75.417-1.851.416-3.796 1.296v-17.361zm40.116 3.079q-3.611 0-5.44 3.564-1.806 3.542-1.806 10.672 0 7.106 1.806 10.671 1.829 3.542 5.44 3.542 3.634 0 5.439-3.542 1.829-3.565 1.829-10.671 0-7.13-1.829-10.672-1.805-3.564-5.439-3.564m0-3.704q5.81 0 8.865 4.606 3.079 4.584 3.079 13.334 0 8.727-3.079 13.333-3.055 4.583-8.865 4.583-5.811 0-8.889-4.583-3.056-4.606-3.056-13.333 0-8.75 3.056-13.334 3.078-4.606 8.889-4.606zM127.2 412.137q-3.611 0-5.44 3.565-1.805 3.542-1.805 10.671 0 7.107 1.805 10.672 1.829 3.541 5.44 3.541 3.634 0 5.44-3.541 1.828-3.565 1.828-10.672 0-7.129-1.828-10.671-1.806-3.565-5.44-3.565m0-3.703q5.81 0 8.866 4.606 3.078 4.583 3.078 13.333 0 8.727-3.078 13.334-3.056 4.583-8.866 4.583t-8.889-4.583q-3.055-4.607-3.055-13.334 0-8.75 3.055-13.333 3.079-4.606 8.889-4.606zm20.162 29.305h4.884v5.88h-4.884v-5.88zm13.889-28.68h22.222v1.99l-12.546 32.57h-4.885l11.806-30.625h-16.597v-3.935zm31.388 0h18.357v3.935h-14.074v8.472q1.018-.347 2.037-.509 1.018-.185 2.037-.185 5.787 0 9.166 3.171 3.38 3.171 3.38 8.588 0 5.578-3.472 8.68-3.472 3.079-9.792 3.079-2.176 0-4.444-.37-2.246-.371-4.653-1.112v-4.699q2.083 1.135 4.306 1.69 2.222.556 4.699.556 4.004 0 6.342-2.107 2.338-2.106 2.338-5.717 0-3.611-2.338-5.718-2.338-2.106-6.342-2.106-1.875 0-3.75.416-1.852.417-3.797 1.297v-17.361zM117.015 99.891h7.639V73.525l-8.311 1.667v-4.26l8.264-1.666h4.676v30.625h7.639v3.935h-19.907v-3.935zm29.351-1.944h4.885v5.879h-4.885v-5.88zm25.07-25.602q-3.611 0-5.44 3.565-1.806 3.541-1.806 10.671 0 7.106 1.806 10.671 1.829 3.542 5.44 3.542 3.634 0 5.44-3.542 1.828-3.565 1.828-10.671 0-7.13-1.828-10.671-1.806-3.565-5.44-3.565m0-3.704q5.81 0 8.865 4.607 3.079 4.583 3.079 13.333 0 8.727-3.079 13.333-3.055 4.584-8.865 4.584-5.81 0-8.889-4.584-3.056-4.606-3.056-13.333 0-8.75 3.056-13.333 3.079-4.607 8.889-4.607zm30.162 3.704q-3.611 0-5.44 3.565-1.806 3.541-1.806 10.671 0 7.106 1.806 10.671 1.829 3.542 5.44 3.542 3.634 0 5.439-3.542 1.829-3.565 1.829-10.671 0-7.13-1.829-10.671-1.805-3.565-5.439-3.565m0-3.704q5.81 0 8.865 4.607 3.079 4.583 3.079 13.333 0 8.727-3.079 13.333-3.055 4.584-8.865 4.584-5.811 0-8.889-4.584-3.056-4.606-3.056-13.333 0-8.75 3.056-13.333 3.078-4.607 8.889-4.607zM16.484 1334.05v-27.31h5.411v20.88H35.9v-18.85h5.41v18.85h22.694v6.43h-47.52zm17.346-53.16q-.572.99-.827 2.17-.286 1.14-.286 2.54 0 4.97 3.246 7.64 3.215 2.64 9.262 2.64h18.78v5.89h-35.65v-5.89h5.538q-3.246-1.84-4.806-4.8-1.591-2.96-1.591-7.2 0-.6.095-1.33.064-.73.223-1.63l6.016-.03zm12.255-22.34q0 7.1 1.623 9.83 1.623 2.74 5.538 2.74 3.12 0 4.965-2.04 1.815-2.06 1.815-5.6 0-4.87-3.438-7.8-3.47-2.96-9.198-2.96h-1.305v5.83m-2.42-11.68h20.34v5.85h-5.412q3.247 2.01 4.806 5 1.528 2.99 1.528 7.32 0 5.48-3.055 8.72-3.088 3.22-8.244 3.22-6.016 0-9.071-4.01-3.056-4.04-3.056-12.03v-8.22h-.572q-4.043 0-6.239 2.68-2.228 2.64-2.228 7.45 0 3.05.732 5.95.732 2.89 2.196 5.57h-5.41q-1.242-3.22-1.847-6.24-.636-3.02-.636-5.89 0-7.73 4.01-11.55 4.01-3.82 12.159-3.82zm-13.94-37.72h5.474q-1.368 2.48-2.037 5-.7 2.48-.7 5.03 0 5.69 3.628 8.85 3.597 3.15 10.122 3.15t10.153-3.15q3.597-3.16 3.597-8.85 0-2.55-.669-5.03-.7-2.52-2.068-5h5.41q1.146 2.45 1.72 5.09.572 2.61.572 5.57 0 8.06-5.06 12.8-5.061 4.74-13.655 4.74-8.721 0-13.718-4.77-4.997-4.81-4.997-13.15 0-2.7.573-5.28.54-2.58 1.655-5zm-11.49-15.98h10.121v-12.06h4.552v12.06h19.351q4.36 0 5.602-1.17 1.242-1.21 1.242-4.87v-6.02h4.901v6.02q0 6.78-2.514 9.35-2.547 2.58-9.23 2.58H32.907v4.3h-4.552v-4.3h-10.12v-5.89zm10.121-19.76v-5.86h35.648v5.86H28.356m-13.877 0v-5.86h7.416v5.86h-7.416zm17.983-31.93q0 4.71 3.692 7.45 3.66 2.74 10.058 2.74 6.397 0 10.09-2.71 3.66-2.73 3.66-7.48 0-4.68-3.692-7.41-3.692-2.74-10.058-2.74-6.334 0-10.026 2.74-3.724 2.73-3.724 7.41m-4.965 0q0-7.64 4.965-12t13.75-4.36q8.753 0 13.75 4.36 4.965 4.36 4.965 12 0 7.67-4.965 12.03-4.997 4.33-13.75 4.33-8.785 0-13.75-4.33-4.965-4.36-4.965-12.03zm14.991-55.7h21.516v5.86H42.68q-5.06 0-7.575 1.97-2.515 1.98-2.515 5.92 0 4.75 3.024 7.48 3.024 2.74 8.244 2.74h20.147v5.89H28.356v-5.89h5.538q-3.214-2.1-4.806-4.93-1.591-2.87-1.591-6.59 0-6.14 3.82-9.3 3.787-3.15 11.171-3.15zm-10.026-46.21q0 4.71 3.692 7.45 3.66 2.73 10.058 2.73 6.397 0 10.09-2.7 3.66-2.74 3.66-7.48 0-4.68-3.692-7.42-3.692-2.73-10.058-2.73-6.334 0-10.026 2.73-3.724 2.74-3.724 7.42m-4.965 0q0-7.64 4.965-12t13.75-4.36q8.753 0 13.75 4.36 4.965 4.36 4.965 12 0 7.67-4.965 12.03-4.997 4.33-13.75 4.33-8.785 0-13.75-4.33-4.965-4.36-4.965-12.03zm-13.018-44.116h4.87v5.606q0 3.15 1.273 4.39 1.273 1.21 4.583 1.21h3.151v-9.646h4.552v9.646h31.096v5.89H32.908v5.6h-4.552v-5.6h-2.482q-5.952 0-8.658-2.77-2.737-2.77-2.737-8.79v-5.536zm2.005-19.288v-40.199h5.411v16.869h42.11v6.461h-42.11v16.869h-5.41z" fill="#f8f8f2" fill-rule="evenodd" fill-opacity="1"/><path clip-path="url(#clip490)" d="M32.462 927.278q0 4.71 3.692 7.448 3.66 2.737 10.058 2.737 6.397 0 10.09-2.706 3.66-2.737 3.66-7.479 0-4.679-3.692-7.416-3.692-2.738-10.058-2.738-6.334 0-10.026 2.738-3.724 2.737-3.724 7.416m-4.965 0q0-7.639 4.965-12 4.965-4.36 13.75-4.36 8.753 0 13.75 4.36 4.965 4.361 4.965 12 0 7.67-4.965 12.031-4.997 4.329-13.75 4.329-8.785 0-13.75-4.329-4.965-4.361-4.965-12.031zm-9.262-31.861h10.121v-12.063h4.552v12.063h19.351q4.36 0 5.602-1.177 1.242-1.21 1.242-4.87v-6.016h4.901v6.016q0 6.779-2.514 9.358-2.547 2.578-9.23 2.578H32.907v4.296h-4.552v-4.296h-10.12v-5.889zm27.85-35.966q0 7.098 1.623 9.835 1.623 2.737 5.538 2.737 3.12 0 4.965-2.037 1.815-2.069 1.815-5.601 0-4.87-3.438-7.798-3.47-2.961-9.198-2.961h-1.305v5.825m-2.42-11.681h20.34v5.856h-5.412q3.247 2.006 4.806 4.998 1.528 2.991 1.528 7.32 0 5.475-3.055 8.721-3.088 3.215-8.244 3.215-6.016 0-9.071-4.011-3.056-4.042-3.056-12.031v-8.212h-.572q-4.043 0-6.239 2.674-2.228 2.642-2.228 7.448 0 3.055.732 5.952.732 2.896 2.196 5.57h-5.41q-1.242-3.215-1.847-6.239-.636-3.023-.636-5.888 0-7.734 4.01-11.554 4.01-3.819 12.159-3.819zm-29.186-12.063v-5.856h49.525v5.856H14.48zm49.525-51.339l-47.52 18.142v-6.716l40.009-15.055-40.009-15.087v-6.684l47.52 18.111v7.289zm-31.542-40.836q0 4.71 3.692 7.447 3.66 2.738 10.058 2.738 6.397 0 10.09-2.706 3.66-2.737 3.66-7.479 0-4.679-3.692-7.416-3.692-2.738-10.058-2.738-6.334 0-10.026 2.738-3.724 2.737-3.724 7.416m-4.965 0q0-7.639 4.965-12 4.965-4.36 13.75-4.36 8.753 0 13.75 4.36 4.965 4.361 4.965 12 0 7.67-4.965 12.031-4.997 4.328-13.75 4.328-8.785 0-13.75-4.328-4.965-4.361-4.965-12.031zm-13.018-26.068v-5.856h49.525v5.856H14.48zm35.457-17.506h-21.58v-5.856h21.357q5.06 0 7.607-1.973 2.515-1.974 2.515-5.921 0-4.742-3.024-7.479-3.024-2.769-8.244-2.769h-20.21v-5.857h35.647v5.857H58.53q3.246 2.132 4.838 4.965 1.56 2.801 1.56 6.525 0 6.143-3.82 9.325-3.82 3.183-11.172 3.183m-22.44-14.736zm7.704-54.936q-3.947-2.197-5.825-5.252-1.878-3.056-1.878-7.193 0-5.57 3.915-8.594 3.883-3.024 11.076-3.024h21.516v5.889H42.68q-5.124 0-7.607 1.814-2.483 1.814-2.483 5.538 0 4.551 3.024 7.193 3.024 2.642 8.244 2.642h20.147v5.888H42.68q-5.156 0-7.607 1.814-2.483 1.815-2.483 5.602 0 4.488 3.056 7.13 3.024 2.642 8.212 2.642h20.147v5.888H28.356v-5.888h5.538q-3.278-2.006-4.838-4.806-1.56-2.801-1.56-6.653 0-3.883 1.974-6.588 1.974-2.737 5.73-4.042zm9.516-66.236h2.865v26.927q6.047-.382 9.23-3.628 3.15-3.278 3.15-9.103 0-3.374-.827-6.525-.827-3.183-2.482-6.302h5.538q1.337 3.151 2.037 6.461.7 3.31.7 6.716 0 8.53-4.965 13.527-4.965 4.966-13.432 4.966-8.753 0-13.877-4.711-5.156-4.743-5.156-12.763 0-7.194 4.647-11.363 4.615-4.202 12.572-4.202m-1.719 5.857q-4.806.064-7.67 2.705-2.865 2.61-2.865 6.939 0 4.902 2.77 7.862 2.768 2.928 7.797 3.373l-.032-20.879zm-1.273-58.978q.7-2.069 2.992-4.011 2.292-1.973 6.302-3.946l12.986-6.525v6.906l-12.19 6.08q-4.775 2.355-6.334 4.583-1.56 2.196-1.56 6.016v7.002h20.084v6.429h-47.52v-14.514q0-8.148 3.406-12.158 3.405-4.01 10.28-4.01 4.488 0 7.448 2.1 2.96 2.069 4.106 6.048m-19.956 16.105h16.869v-8.085q0-4.647-2.133-7.002-2.164-2.387-6.334-2.387t-6.27 2.387q-2.132 2.355-2.132 7.002v8.085zm22.948-66.172h2.865v26.927q6.047-.382 9.23-3.628 3.15-3.278 3.15-9.103 0-3.374-.827-6.525-.827-3.183-2.482-6.302h5.538q1.337 3.151 2.037 6.461.7 3.31.7 6.716 0 8.53-4.965 13.527-4.965 4.965-13.432 4.965-8.753 0-13.877-4.71-5.156-4.743-5.156-12.763 0-7.194 4.647-11.363 4.615-4.202 12.572-4.202m-1.719 5.857q-4.806.063-7.67 2.705-2.865 2.61-2.865 6.939 0 4.901 2.77 7.862 2.768 2.928 7.797 3.373l-.032-20.879zM35.2 423.496q-3.947-2.196-5.825-5.252-1.878-3.056-1.878-7.193 0-5.57 3.915-8.594 3.883-3.024 11.076-3.024h21.516v5.889H42.68q-5.124 0-7.607 1.814-2.483 1.814-2.483 5.538 0 4.551 3.024 7.193 3.024 2.642 8.244 2.642h20.147v5.888H42.68q-5.156 0-7.607 1.815-2.483 1.814-2.483 5.601 0 4.488 3.056 7.13 3.024 2.642 8.212 2.642h20.147v5.888H28.356v-5.888h5.538q-3.278-2.006-4.838-4.806-1.56-2.801-1.56-6.653 0-3.883 1.974-6.588 1.974-2.737 5.73-4.042zm10.885-51.944q0 7.097 1.623 9.835 1.623 2.737 5.538 2.737 3.12 0 4.965-2.037 1.815-2.069 1.815-5.602 0-4.87-3.438-7.798-3.47-2.96-9.198-2.96h-1.305v5.825m-2.42-11.682h20.34v5.857h-5.412q3.247 2.005 4.806 4.997 1.528 2.992 1.528 7.321 0 5.474-3.055 8.721-3.088 3.214-8.244 3.214-6.016 0-9.071-4.01-3.056-4.042-3.056-12.031v-8.212h-.572q-4.043 0-6.239 2.673-2.228 2.642-2.228 7.448 0 3.056.732 5.952.732 2.897 2.196 5.57h-5.41q-1.242-3.214-1.847-6.238-.636-3.024-.636-5.888 0-7.735 4.01-11.554 4.01-3.82 12.159-3.82zm-15.309-12.063v-5.856h35.648v5.856H28.356m-13.877 0v-5.856h7.416v5.856h-7.416zm28.009-47.742h21.516v5.856H42.68q-5.06 0-7.575 1.973-2.515 1.974-2.515 5.921 0 4.742 3.024 7.479 3.024 2.738 8.244 2.738h20.147v5.888H28.356v-5.888h5.538q-3.214-2.101-4.806-4.934-1.591-2.864-1.591-6.588 0-6.143 3.82-9.294 3.787-3.151 11.171-3.151zm-14.132-11.681v-5.857h35.648v5.857H28.356m-13.877 0v-5.857h7.416v5.857h-7.416zm28.009-47.743h21.516v5.856H42.68q-5.06 0-7.575 1.974-2.515 1.973-2.515 5.92 0 4.742 3.024 7.479 3.024 2.738 8.244 2.738h20.147v5.888H28.356v-5.888h5.538q-3.214-2.101-4.806-4.934-1.591-2.864-1.591-6.588 0-6.143 3.82-9.294 3.787-3.151 11.171-3.151zm3.278-35.139q-6.365 0-9.866 2.642-3.502 2.61-3.502 7.352 0 4.711 3.502 7.353 3.5 2.61 9.866 2.61 6.334 0 9.835-2.61 3.502-2.642 3.502-7.353 0-4.742-3.502-7.352-3.5-2.642-9.835-2.642m13.814-5.856q9.103 0 13.527 4.042 4.456 4.042 4.456 12.381 0 3.087-.477 5.825-.446 2.737-1.4 5.315h-5.698q1.4-2.578 2.069-5.092.668-2.515.668-5.125 0-5.761-3.023-8.625-2.992-2.865-9.072-2.865h-2.896q3.151 1.814 4.71 4.647 1.56 2.833 1.56 6.78 0 6.556-4.997 10.567-4.997 4.01-13.24 4.01-8.276 0-13.273-4.01-4.997-4.011-4.997-10.567 0-3.947 1.56-6.78 1.559-2.833 4.71-4.647h-5.41v-5.856H59.58z" fill="#f8f8f2" fill-rule="evenodd" fill-opacity="1"/><polyline clip-path="url(#clip492)" points="309.067,87.9763 310.446,89.1177 311.825,90.7748 313.204,92.0755 314.582,93.2295 315.961,94.3791 317.34,95.3764 318.719,96.6251 320.098,97.8044 321.477,98.8693 322.855,100.039 324.234,101.205 325.613,102.269 326.992,103.239 328.371,104.195 329.75,105.416 331.129,106.542 332.507,107.693 333.886,108.878 335.265,109.839 336.644,110.928 338.023,111.923 339.402,112.849 340.78,114.023 342.159,115.133 343.538,116.129 344.917,117.163 346.296,118.172 347.675,119.178 349.054,120.159 350.432,121.271 351.811,122.277 353.19,123.258 354.569,124.347 355.948,125.28 357.327,126.319 358.706,127.384 360.084,128.475 361.463,129.554 362.842,130.55 364.221,131.539 365.6,132.533 366.979,133.774 368.357,134.805 369.736,135.779 371.115,136.854 372.494,137.819 373.873,138.753 375.252,139.648 376.631,140.503 378.009,141.304 379.388,142.217 380.767,142.977 382.146,143.824 383.525,144.622 384.904,145.597 386.283,146.517 387.661,147.378 389.04,148.239 390.419,149.095 391.798,150.078 393.177,150.985 394.556,151.825 395.934,152.695 397.313,153.53 398.692,154.465 400.071,155.476 401.45,156.316 402.829,157.218 404.208,158.071 405.586,158.883 406.965,159.734 408.344,160.511 409.723,161.438 411.102,162.31 412.481,163.227 413.859,163.974 415.238,164.806 416.617,165.763 417.996,166.562 419.375,167.244 420.754,168.061 422.133,168.878 423.511,169.648 424.89,170.401 426.269,171.371 427.648,172.236 429.027,173.136 430.406,174.102 431.785,174.927 433.163,175.849 434.542,176.817 435.921,177.801 437.3,178.665 438.679,179.542 440.058,180.4 441.436,181.225 442.815,182.088 444.194,182.978 445.573,184.015 446.952,184.928 448.331,185.809 449.71,186.615 451.088,187.543 452.467,188.449 453.846,189.279 455.225,190.129 456.604,190.942 457.983,191.688 459.362,192.562 460.74,193.308 462.119,194.252 463.498,195.09 464.877,195.8 466.256,196.583 467.635,197.329 469.013,198.033 470.392,198.899 471.771,199.578 473.15,200.433 474.529,201.401 475.908,202.289 477.287,203.021 478.665,203.821 480.044,204.707 481.423,205.501 482.802,206.291 484.181,207.027 485.56,207.653 486.939,208.282 488.317,208.974 489.696,209.686 491.075,210.342 492.454,211.064 493.833,211.776 495.212,212.445 496.59,213.209 497.969,213.872 499.348,214.564 500.727,215.276 502.106,215.991 503.485,217.085 504.864,217.853 506.242,218.499 507.621,219.272 509,220.021 510.379,220.757 511.758,221.457 513.137,222.148 514.515,222.803 515.894,223.514 517.273,224.253 518.652,224.981 520.031,225.716 521.41,226.546 522.789,227.195 524.167,227.937 525.546,228.567 526.925,229.253 528.304,229.906 529.683,230.474 531.062,231.129 532.441,231.863 533.819,232.654 535.198,233.328 536.577,234.129 537.956,234.941 539.335,235.674 540.714,236.363 542.092,237.04 543.471,237.793 544.85,238.513 546.229,239.167 547.608,239.877 548.987,240.546 550.366,241.342 551.744,242.335 553.123,243.219 554.502,244.063 555.881,244.996 557.26,245.994 558.639,246.763 560.018,247.443 561.396,248.181 562.775,249.058 564.154,249.858 565.533,250.693 566.912,251.6 568.291,252.425 569.669,253.231 571.048,254.114 572.427,254.795 573.806,255.626 575.185,256.358 576.564,257.209 577.943,258.048 579.321,258.872 580.7,259.539 582.079,260.255 583.458,260.989 584.837,261.908 586.216,262.623 587.594,263.41 588.973,264.296 590.352,265.018 591.731,265.815 593.11,266.634 594.489,267.418 595.868,268.28 597.246,269.38 598.625,270.287 600.004,271.412 601.383,272.258 602.762,273.187 604.141,274.173 605.52,275.059 606.898,275.886 608.277,276.678 609.656,277.58 611.035,278.365 612.414,279.361 613.793,280.41 615.171,281.362 616.55,282.405 617.929,283.25 619.308,284.186 620.687,284.925 622.066,285.683 623.445,286.541 624.823,287.224 626.202,287.895 627.581,288.552 628.96,289.245 630.339,289.968 631.718,290.716 633.097,291.562 634.475,292.468 635.854,293.292 637.233,294.143 638.612,295.087 639.991,296.142 641.37,297.165 642.748,298.248 644.127,299.183 645.506,300.108 646.885,301.009 648.264,301.766 649.643,302.407 651.022,303.056 652.4,303.705 653.779,304.384 655.158,305.107 656.537,305.741 657.916,306.465 659.295,307.119 660.674,307.867 662.052,308.54 663.431,309.327 664.81,310.268 666.189,311.233 667.568,311.95 668.947,312.671 670.325,313.465 671.704,314.252 673.083,314.95 674.462,315.654 675.841,316.356 677.22,316.98 678.599,317.703 679.977,318.585 681.356,319.316 682.735,319.957 684.114,320.706 685.493,321.374 686.872,322.104 688.25,323.015 689.629,323.737 691.008,324.403 692.387,325.131 693.766,325.892 695.145,326.594 696.524,327.25 697.902,327.998 699.281,328.744 700.66,329.372 702.039,330.077 703.418,330.765 704.797,331.436 706.176,332.212 707.554,332.965 708.933,333.665 710.312,334.314 711.691,334.953 713.07,335.555 714.449,336.389 715.827,337.349 717.206,338.009 718.585,338.714 719.964,339.38 721.343,340.078 722.722,340.92 724.101,341.661 725.479,342.362 726.858,343.28 728.237,344.113 729.616,345.027 730.995,345.726 732.374,346.435 733.753,347.195 735.131,347.846 736.51,348.506 737.889,349.131 739.268,349.824 740.647,350.457 742.026,351.065 743.404,351.81 744.783,352.451 746.162,353.232 747.541,353.913 748.92,354.475 750.299,355.215 751.678,356.07 753.056,356.885 754.435,357.543 755.814,358.215 757.193,358.949 758.572,359.735 759.951,360.501 761.329,361.492 762.708,362.325 764.087,363.109 765.466,363.748 766.845,364.545 768.224,365.196 769.603,365.828 770.981,366.559 772.36,367.14 773.739,367.846 775.118,368.613 776.497,369.333 777.876,370.012 779.255,370.749 780.633,371.367 782.012,372.04 783.391,372.659 784.77,373.388 786.149,374.077 787.528,374.805 788.906,375.638 790.285,376.281 791.664,376.977 793.043,377.651 794.422,378.387 795.801,378.949 797.18,379.571 798.558,380.254 799.937,380.83 801.316,381.424 802.695,381.982 804.074,382.706 805.453,383.517 806.832,384.194 808.21,384.717 809.589,385.36 810.968,385.965 812.347,386.54 813.726,387.242 815.105,387.863 816.483,388.37 817.862,388.945 819.241,389.796 820.62,390.404 821.999,391.27 823.378,391.892 824.757,392.531 826.135,393.201 827.514,393.752 828.893,394.403 830.272,395.133 831.651,395.718 833.03,396.38 834.409,396.946 835.787,397.57 837.166,398.115 838.545,398.604 839.924,399.176 841.303,399.682 842.682,400.16 844.06,400.64 845.439,401.278 846.818,401.933 848.197,402.513 849.576,403.048 850.955,403.612 852.334,404.234 853.712,404.791 855.091,405.396 856.47,405.888 857.849,406.511 859.228,407.035 860.607,407.586 861.985,408.093 863.364,408.656 864.743,409.212 866.122,409.694 867.501,410.234 868.88,410.737 870.259,411.25 871.637,411.793 873.016,412.252 874.395,412.719 875.774,413.452 877.153,414.054 878.532,414.651 879.911,415.169 881.289,415.626 882.668,416.136 884.047,416.673 885.426,417.178 886.805,417.66 888.184,418.219 889.562,418.754 890.941,419.286 892.32,419.93 893.699,420.456 895.078,421.025 896.457,421.58 897.836,422.182 899.214,422.759 900.593,423.276 901.972,423.964 903.351,424.477 904.73,425.034 906.109,425.49 907.488,425.932 908.866,426.512 910.245,427.103 911.624,427.587 913.003,428.107 914.382,428.566 915.761,429.121 917.139,429.602 918.518,430.134 919.897,430.69 921.276,431.185 922.655,431.732 924.034,432.24 925.413,432.757 926.791,433.218 928.17,433.81 929.549,434.448 930.928,435.073 932.307,435.664 933.686,436.32 935.065,436.951 936.443,437.6 937.822,438.077 939.201,438.601 940.58,439.067 941.959,439.549 943.338,440.033 944.716,440.525 946.095,441.018 947.474,441.544 948.853,442.139 950.232,442.779 951.611,443.551 952.99,444.165 954.368,444.719 955.747,445.25 957.126,445.781 958.505,446.364 959.884,446.858 961.263,447.303 962.641,447.851 964.02,448.43 965.399,449.117 966.778,449.666 968.157,450.273 969.536,450.844 970.915,451.532 972.293,452.163 973.672,452.96 975.051,453.643 976.43,454.248 977.809,454.831 979.188,455.453 980.567,456.105 981.945,456.709 983.324,457.295 984.703,457.96 986.082,458.616 987.461,459.206 988.84,459.922 990.218,460.579 991.597,461.34 992.976,461.977 994.355,462.647 995.734,463.246 997.113,463.835 998.492,464.474 999.87,465.11 1001.25,465.782 1002.63,466.436 1004.01,467.137 1005.39,467.793 1006.76,468.549 1008.14,469.23 1009.52,469.858 1010.9,470.509 1012.28,471.186 1013.66,471.712 1015.04,472.295 1016.42,472.873 1017.8,473.509 1019.17,474.044 1020.55,474.652 1021.93,475.22 1023.31,475.787 1024.69,476.277 1026.07,476.894 1027.45,477.428 1028.83,477.9 1030.21,478.414 1031.58,479.021 1032.96,479.683 1034.34,480.367 1035.72,480.938 1037.1,481.545 1038.48,482.06 1039.86,482.747 1041.24,483.318 1042.61,483.859 1043.99,484.39 1045.37,484.889 1046.75,485.434 1048.13,485.9 1049.51,486.321 1050.89,486.905 1052.27,487.447 1053.65,488.11 1055.02,488.702 1056.4,489.221 1057.78,489.785 1059.16,490.405 1060.54,491.052 1061.92,491.662 1063.3,492.37 1064.68,493.003 1066.06,493.587 1067.43,494.366 1068.81,494.999 1070.19,495.624 1071.57,496.228 1072.95,496.815 1074.33,497.461 1075.71,498.011 1077.09,498.493 1078.46,498.997 1079.84,499.63 1081.22,500.219 1082.6,500.88 1083.98,501.498 1085.36,502.015 1086.74,502.686 1088.12,503.246 1089.5,503.886 1090.87,504.473 1092.25,505.107 1093.63,505.62 1095.01,506.348 1096.39,506.886 1097.77,507.445 1099.15,508.047 1100.53,508.706 1101.91,509.32 1103.28,510.033 1104.66,510.652 1106.04,511.303 1107.42,511.961 1108.8,512.55 1110.18,513.134 1111.56,513.74 1112.94,514.261 1114.31,514.732 1115.69,515.296 1117.07,515.748 1118.45,516.312 1119.83,517.156 1121.21,517.701 1122.59,518.286 1123.97,518.807 1125.35,519.263 1126.72,519.838 1128.1,520.424 1129.48,521.003 1130.86,521.566 1132.24,522.184 1133.62,522.722 1135,523.223 1136.38,523.949 1137.76,524.59 1139.13,525.424 1140.51,526.022 1141.89,526.568 1143.27,527.178 1144.65,528.094 1146.03,528.681 1147.41,529.381 1148.79,530.134 1150.16,530.783 1151.54,531.379 1152.92,532.062 1154.3,532.711 1155.68,533.261 1157.06,534.031 1158.44,534.543 1159.82,535.145 1161.2,535.67 1162.57,536.289 1163.95,536.858 1165.33,537.461 1166.71,538.039 1168.09,538.657 1169.47,539.274 1170.85,539.828 1172.23,540.323 1173.61,540.798 1174.98,541.293 1176.36,541.819 1177.74,542.405 1179.12,543.081 1180.5,543.742 1181.88,544.262 1183.26,544.919 1184.64,545.65 1186.02,546.378 1187.39,546.915 1188.77,547.542 1190.15,548.027 1191.53,548.614 1192.91,549.083 1194.29,549.662 1195.67,550.289 1197.05,550.824 1198.42,551.338 1199.8,551.833 1201.18,552.43 1202.56,553 1203.94,553.485 1205.32,554.063 1206.7,554.71 1208.08,555.226 1209.46,555.857 1210.83,556.439 1212.21,557.081 1213.59,557.679 1214.97,558.208 1216.35,559.059 1217.73,559.631 1219.11,560.364 1220.49,561.183 1221.87,561.793 1223.24,562.59 1224.62,563.265 1226,563.894 1227.38,564.491 1228.76,565.137 1230.14,565.77 1231.52,566.321 1232.9,566.955 1234.27,567.641 1235.65,568.287 1237.03,568.916 1238.41,569.525 1239.79,570.122 1241.17,570.691 1242.55,571.287 1243.93,571.949 1245.31,572.522 1246.68,573.128 1248.06,573.724 1249.44,574.299 1250.82,574.937 1252.2,575.578 1253.58,576.138 1254.96,576.645 1256.34,577.179 1257.72,577.813 1259.09,578.319 1260.47,578.846 1261.85,579.473 1263.23,580.135 1264.61,580.832 1265.99,581.496 1267.37,582.143 1268.75,582.717 1270.12,583.225 1271.5,583.756 1272.88,584.662 1274.26,585.508 1275.64,586.243 1277.02,586.909 1278.4,587.666 1279.78,588.295 1281.16,589.024 1282.53,589.698 1283.91,590.371 1285.29,591.071 1286.67,591.803 1288.05,592.479 1289.43,593.031 1290.81,593.705 1292.19,594.305 1293.57,595.034 1294.94,595.664 1296.32,596.296 1297.7,596.893 1299.08,597.566 1300.46,598.216 1301.84,598.98 1303.22,599.722 1304.6,600.441 1305.97,601.351 1307.35,602.109 1308.73,602.894 1310.11,603.577 1311.49,604.262 1312.87,604.923 1314.25,605.675 1315.63,606.38 1317.01,607.039 1318.38,607.748 1319.76,608.539 1321.14,609.289 1322.52,610.029 1323.9,610.724 1325.28,611.469 1326.66,612.147 1328.04,612.839 1329.42,613.561 1330.79,614.459 1332.17,615.239 1333.55,616.209 1334.93,616.981 1336.31,617.75 1337.69,618.538 1339.07,619.23 1340.45,619.988 1341.83,620.745 1343.2,621.594 1344.58,622.353 1345.96,623.071 1347.34,623.798 1348.72,624.586 1350.1,625.338 1351.48,626.212 1352.86,627.201 1354.23,628.014 1355.61,628.801 1356.99,629.627 1358.37,630.385 1359.75,631.249 1361.13,631.993 1362.51,632.919 1363.89,633.822 1365.27,634.644 1366.64,635.415 1368.02,636.185 1369.4,636.968 1370.78,637.776 1372.16,638.598 1373.54,639.311 1374.92,640.014 1376.3,640.739 1377.68,641.551 1379.05,642.316 1380.43,643.036 1381.81,643.65 1383.19,644.421 1384.57,645.422 1385.95,646.27 1387.33,647.031 1388.71,647.85 1390.08,648.696 1391.46,649.527 1392.84,650.467 1394.22,651.396 1395.6,652.123 1396.98,652.99 1398.36,653.847 1399.74,654.632 1401.12,655.458 1402.49,656.286 1403.87,657.107 1405.25,658.008 1406.63,658.826 1408.01,659.728 1409.39,660.528 1410.77,661.416 1412.15,662.438 1413.53,663.479 1414.9,664.385 1416.28,665.268 1417.66,666.149 1419.04,667.194 1420.42,668.219 1421.8,669.135 1423.18,669.963 1424.56,670.797 1425.93,672.443 1427.31,673.676 1428.69,675.123 1430.07,676.258 1431.45,677.552 1432.83,678.692 1434.21,679.803 1435.59,680.833 1436.97,682.058 1438.34,683.156 1439.72,684.148 1441.1,685.172 1442.48,686.147 1443.86,687.225 1445.24,688.255 1446.62,689.503 1448,690.637 1449.38,691.586 1450.75,692.567 1452.13,693.589 1453.51,694.6 1454.89,695.543 1456.27,696.453 1457.65,697.433 1459.03,698.537 1460.41,699.542 1461.78,700.575 1463.16,701.679 1464.54,702.819 1465.92,703.818 1467.3,705.089 1468.68,706.287 1470.06,707.385 1471.44,708.524 1472.82,709.638 1474.19,710.69 1475.57,711.734 1476.95,712.918 1478.33,714.017 1479.71,715.099 1481.09,716.128 1482.47,717.336 1483.85,718.327 1485.23,719.359 1486.6,720.389 1487.98,721.635 1489.36,722.87 1490.74,724.049 1492.12,725.653 1493.5,727.104 1494.88,728.366 1496.26,729.702 1497.63,730.806 1499.01,731.825 1500.39,732.987 1501.77,734.231 1503.15,735.336 1504.53,736.323 1505.91,737.484 1507.29,738.62 1508.67,740.281 1510.04,742.006 1511.42,743.871 1512.8,745.444 1514.18,747.113 1515.56,748.777 1516.94,750.475 1518.32,752.072 1519.7,753.527 1521.08,755.095 1522.45,756.57 1523.83,758.103 1525.21,759.825 1526.59,761.298 1527.97,762.642 1529.35,764.335 1530.73,765.819 1532.11,767.552 1533.49,769.219 1534.86,770.857 1536.24,772.64 1537.62,774.173 1539,775.755 1540.38,777.479 1541.76,778.992 1543.14,780.781 1544.52,782.357 1545.89,783.989 1547.27,785.568 1548.65,787.141 1550.03,789.153 1551.41,790.729 1552.79,792.394 1554.17,793.979 1555.55,795.728 1556.93,797.625 1558.3,799.276 1559.68,800.922 1561.06,802.391 1562.44,803.955 1563.82,805.635 1565.2,807.156 1566.58,808.542 1567.96,810.097 1569.34,811.779 1570.71,813.372 1572.09,815.091 1573.47,816.903 1574.85,818.713 1576.23,820.441 1577.61,822.338 1578.99,823.885 1580.37,825.455 1581.74,826.951 1583.12,828.436 1584.5,829.972 1585.88,831.415 1587.26,832.825 1588.64,834.037 1590.02,835.357 1591.4,836.954 1592.78,838.508 1594.15,840.013 1595.53,841.552 1596.91,843.132 1598.29,844.719 1599.67,846.227 1601.05,847.843 1602.43,849.231 1603.81,850.72 1605.19,852.389 1606.56,853.717 1607.94,855.11 1609.32,856.53 1610.7,857.814 1612.08,859.319 1613.46,860.533 1614.84,861.838 1616.22,863.074 1617.59,864.402 1618.97,865.743 1620.35,867.415 1621.73,868.904 1623.11,870.356 1624.49,871.754 1625.87,873.171 1627.25,874.607 1628.63,876.1 1630,877.413 1631.38,878.722 1632.76,880.265 1634.14,881.853 1635.52,883.75 1636.9,885.594 1638.28,887.112 1639.66,888.889 1641.04,890.446 1642.41,891.908 1643.79,893.271 1645.17,894.951 1646.55,896.62 1647.93,898.052 1649.31,899.672 1650.69,901.046 1652.07,902.539 1653.44,904.002 1654.82,905.441 1656.2,906.969 1657.58,908.506 1658.96,909.829 1660.34,911.213 1661.72,912.451 1663.1,913.962 1664.48,915.293 1665.85,916.824 1667.23,918.305 1668.61,919.681 1669.99,921.143 1671.37,922.492 1672.75,923.763 1674.13,925.226 1675.51,926.486 1676.89,927.784 1678.26,929.086 1679.64,930.559 1681.02,932.044 1682.4,933.391 1683.78,934.675 1685.16,935.897 1686.54,937.215 1687.92,938.578 1689.3,939.847 1690.67,941.103 1692.05,942.591 1693.43,943.729 1694.81,945.067 1696.19,946.481 1697.57,947.784 1698.95,948.994 1700.33,950.348 1701.7,951.803 1703.08,953.116 1704.46,954.371 1705.84,955.493 1707.22,956.933 1708.6,958.323 1709.98,959.942 1711.36,961.301 1712.74,962.754 1714.11,964.101 1715.49,965.682 1716.87,967.159 1718.25,968.473 1719.63,969.876 1721.01,971.26 1722.39,972.732 1723.77,974.11 1725.15,975.331 1726.52,976.51 1727.9,977.816 1729.28,979.062 1730.66,980.256 1732.04,981.44 1733.42,982.657 1734.8,983.867 1736.18,985.248 1737.55,986.536 1738.93,987.853 1740.31,989.036 1741.69,990.236 1743.07,991.549 1744.45,992.812 1745.83,993.921 1747.21,995.298 1748.59,996.335 1749.96,997.654 1751.34,998.807 1752.72,1000.02 1754.1,1001.19 1755.48,1002.32 1756.86,1003.61 1758.24,1004.9 1759.62,1006.12 1761,1007.42 1762.37,1008.66 1763.75,1009.85 1765.13,1010.96 1766.51,1012.04 1767.89,1013.16 1769.27,1014.29 1770.65,1015.51 1772.03,1016.59 1773.4,1017.82 1774.78,1018.9 1776.16,1019.91 1777.54,1021.14 1778.92,1022.32 1780.3,1023.59 1781.68,1024.76 1783.06,1025.99 1784.44,1027.24 1785.81,1028.46 1787.19,1029.67 1788.57,1030.77 1789.95,1031.95 1791.33,1033.11 1792.71,1034.36 1794.09,1035.58 1795.47,1036.7 1796.85,1037.85 1798.22,1039.19 1799.6,1040.37 1800.98,1041.55 1802.36,1042.8 1803.74,1044.11 1805.12,1045.35 1806.5,1046.66 1807.88,1047.92 1809.25,1049.18 1810.63,1050.44 1812.01,1051.61 1813.39,1052.72 1814.77,1053.85 1816.15,1055.02 1817.53,1056.34 1818.91,1057.54 1820.29,1058.83 1821.66,1060.17 1823.04,1061.4 1824.42,1062.47 1825.8,1063.59 1827.18,1064.75 1828.56,1065.86 1829.94,1066.93 1831.32,1068 1832.7,1069.08 1834.07,1070.43 1835.45,1071.67 1836.83,1072.74 1838.21,1073.87 1839.59,1075.21 1840.97,1076.53 1842.35,1077.73 1843.73,1078.92 1845.1,1080 1846.48,1081.03 1847.86,1082.05 1849.24,1083.15 1850.62,1084.45 1852,1085.57 1853.38,1086.79 1854.76,1087.82 1856.14,1088.97 1857.51,1090.2 1858.89,1091.29 1860.27,1092.41 1861.65,1093.54 1863.03,1094.99 1864.41,1096.15 1865.79,1097.45 1867.17,1098.71 1868.55,1100.01 1869.92,1101.28 1871.3,1102.5 1872.68,1103.68 1874.06,1104.99 1875.44,1106.16 1876.82,1107.26 1878.2,1108.52 1879.58,1109.72 1880.96,1111.19 1882.33,1112.44 1883.71,1113.79 1885.09,1115.24 1886.47,1116.56 1887.85,1117.82 1889.23,1119.24 1890.61,1120.41 1891.99,1121.65 1893.36,1123.02 1894.74,1124.44 1896.12,1125.74 1897.5,1127.15 1898.88,1128.33 1900.26,1129.47 1901.64,1130.77 1903.02,1132.09 1904.4,1133.22 1905.77,1134.36 1907.15,1135.42 1908.53,1136.51 1909.91,1137.59 1911.29,1138.66 1912.67,1139.71 1914.05,1140.89 1915.43,1142.2 1916.81,1143.42 1918.18,1144.6 1919.56,1145.66 1920.94,1146.83 1922.32,1148.04 1923.7,1149.29 1925.08,1150.39 1926.46,1151.69 1927.84,1153.07 1929.21,1154.41 1930.59,1155.7 1931.97,1156.95 1933.35,1158.12 1934.73,1159.41 1936.11,1160.8 1937.49,1162.04 1938.87,1163.34 1940.25,1164.49 1941.62,1165.54 1943,1167.23 1944.38,1168.55 1945.76,1169.83 1947.14,1171.17 1948.52,1172.35 1949.9,1173.83 1951.28,1174.99 1952.66,1176.36 1954.03,1177.49 1955.41,1178.55 1956.79,1179.68 1958.17,1180.8 1959.55,1181.96 1960.93,1183.11 1962.31,1184.44 1963.69,1185.92 1965.06,1187.3 1966.44,1188.82 1967.82,1190.51 1969.2,1192.22 1970.58,1194.07 1971.96,1195.71 1973.34,1197.25 1974.72,1198.78 1976.1,1200.07 1977.47,1201.47 1978.85,1202.82 1980.23,1204.23 1981.61,1205.54 1982.99,1206.83 1984.37,1208.1 1985.75,1209.39 1987.13,1210.77 1988.51,1212.2 1989.88,1213.77 1991.26,1215.44 1992.64,1216.94 1994.02,1218.19 1995.4,1219.56 1996.78,1220.83 1998.16,1222.24 1999.54,1223.46 2000.91,1225.02 2002.29,1226.28 2003.67,1227.43 2005.05,1228.78 2006.43,1230.13 2007.81,1231.39 2009.19,1232.73 2010.57,1233.88 2011.95,1235.15 2013.32,1236.38 2014.7,1237.72 2016.08,1239.02 2017.46,1240.33 2018.84,1241.65 2020.22,1243.01 2021.6,1244.18 2022.98,1245.46 2024.36,1246.61 2025.73,1248.06 2027.11,1249.27 2028.49,1250.54 2029.87,1251.89 2031.25,1253.28 2032.63,1255.02 2034.01,1256.44 2035.39,1257.64 2036.77,1258.95 2038.14,1260.19 2039.52,1261.7 2040.9,1262.95 2042.28,1264.33 2043.66,1265.85 2045.04,1267.65 2046.42,1269.23 2047.8,1270.61 2049.17,1271.88 2050.55,1273.22 2051.93,1274.41 2053.31,1275.56 2054.69,1276.67 2056.07,1277.71 2057.45,1278.76 2058.83,1280.12 2060.21,1281.36 2061.58,1282.49 2062.96,1283.72 2064.34,1284.78 2065.72,1286.03 2067.1,1287.02 2068.48,1288.03 2069.86,1289.12 2071.24,1290.04 2072.62,1291.03 2073.99,1292.22 2075.37,1293.17 2076.75,1294.16 2078.13,1295.25 2079.51,1296.41 2080.89,1297.53 2082.27,1298.46 2083.65,1299.36 2085.02,1300.5 2086.4,1301.54 2087.78,1302.76 2089.16,1303.87 2090.54,1305.04 2091.92,1306.02 2093.3,1307.08 2094.68,1308.19 2096.06,1309.33 2097.43,1310.32 2098.81,1311.29 2100.19,1312.28 2101.57,1313.42 2102.95,1314.62 2104.33,1315.86 2105.71,1316.92 2107.09,1317.97 2108.47,1319.31 2109.84,1320.49 2111.22,1321.69 2112.6,1323.01 2113.98,1324.23 2115.36,1325.3 2116.74,1326.37 2118.12,1327.53 2119.5,1328.66 2120.87,1329.97 2122.25,1330.97 2123.63,1332.35 2125.01,1333.43 2126.39,1334.54 2127.77,1335.76 2129.15,1337.21 2130.53,1338.29 2131.91,1339.33 2133.28,1340.28 2134.66,1341.21 2136.04,1342.25 2137.42,1343.03 2138.8,1344.05 2140.18,1344.93 2141.56,1345.87 2142.94,1346.74 2144.32,1347.67 2145.69,1348.61 2147.07,1349.69 2148.45,1350.48 2149.83,1351.37 2151.21,1352.27 2152.59,1353.1 2153.97,1353.92 2155.35,1354.71 2156.72,1355.76 2158.1,1356.65 2159.48,1357.55 2160.86,1358.33 2162.24,1359.19 2163.62,1360.08 2165,1360.93 2166.38,1361.6 2167.76,1363.22 2169.13,1364.15 2170.51,1364.84 2171.89,1365.52 2173.27,1366.41 2174.65,1367.24 2176.03,1368.18 2177.41,1369.17 2178.79,1370.04 2180.17,1370.91 2181.54,1371.7 2182.92,1372.54 2184.3,1373.28 2185.68,1373.97 2187.06,1374.8 2188.44,1375.6 2189.82,1376.34 2191.2,1377.14 2192.57,1377.96 2193.95,1378.81 2195.33,1379.73 2196.71,1380.67 2198.09,1381.56 2199.47,1382.41 2200.85,1383.31 2202.23,1384.33 2203.61,1385.22 2204.98,1386.04 2206.36,1386.85 2207.74,1387.59 2209.12,1388.54 2210.5,1389.39 2211.88,1390.58 2213.26,1391.6 2214.64,1392.47 2216.02,1393.39 2217.39,1394.37 2218.77,1395.38 2220.15,1396.51 2221.53,1397.66 2222.91,1398.64 2224.29,1399.54 2225.67,1400.66 2227.05,1401.93 2228.43,1403.07 2229.8,1404.12 2231.18,1405.23 2232.56,1406.27 2233.94,1407.26 2235.32,1408.16 2236.7,1409.17 2238.08,1410.05 2239.46,1411.22 2240.83,1412.29 2242.21,1413.31 2243.59,1414.33 2244.97,1415.15 2246.35,1415.96 2247.73,1416.75 2249.11,1417.62 2250.49,1418.46 2251.87,1419.23 2253.24,1420.11 2254.62,1420.97 2256,1421.84 2257.38,1422.67 2258.76,1423.48 2260.14,1424.3 2261.52,1425.06 2262.9,1425.87 2264.28,1426.71 2265.65,1427.61 2267.03,1428.39 2268.41,1429.29 2269.79,1430.15 2271.17,1430.99 2272.55,1431.92 2273.93,1432.87 2275.31,1433.79 2276.68,1434.82 2278.06,1435.67 2279.44,1436.66 2280.82,1437.54 2282.2,1438.5 2283.58,1439.54 2284.96,1440.43 2286.34,1441.39 2287.72,1442.19 2289.09,1443.05 2290.47,1443.86 2291.85,1444.76 2293.23,1445.72" stroke="#8be9fd" stroke-linecap="butt" stroke-linejoin="round" stroke-width="4" stroke-opacity="1" fill="none"/><path clip-path="url(#clip490)" d="M1178.59 198.898h1104.06V95.218H1178.59z" fill="#282a36" fill-rule="evenodd" fill-opacity="1"/><polyline clip-path="url(#clip490)" points="1178.59,198.898 2282.65,198.898 2282.65,95.2176 1178.59,95.2176 1178.59,198.898" stroke="#f8f8f2" stroke-linecap="butt" stroke-linejoin="round" stroke-width="4" stroke-opacity="1" fill="none"/><polyline clip-path="url(#clip490)" points="1201.96,147.058 1342.18,147.058" stroke="#8be9fd" stroke-linecap="butt" stroke-linejoin="round" stroke-width="4" stroke-opacity="1" fill="none"/><path clip-path="url(#clip490)" d="M1365.54 129.778h4.68v14.166h16.99v-14.166h4.68v34.56h-4.68v-16.459h-16.99v16.459h-4.68v-34.56zm45.51 11.62q-3.42 0-5.41 2.685-1.99 2.662-1.99 7.315 0 4.653 1.96 7.338 1.99 2.662 5.44 2.662 3.41 0 5.4-2.685 1.99-2.686 1.99-7.315 0-4.607-1.99-7.292-1.99-2.708-5.4-2.708m0-3.611q5.56 0 8.73 3.611 3.17 3.611 3.17 10 0 6.366-3.17 10-3.17 3.611-8.73 3.611-5.57 0-8.75-3.611-3.14-3.634-3.14-10 0-6.389 3.14-10 3.18-3.611 8.75-3.611zm16.49.625h4.25l5.33 20.231 5.3-20.231h5.02l5.33 20.231 5.3-20.231h4.26l-6.79 25.926h-5.02l-5.58-21.25-5.6 21.25h-5.02l-6.78-25.926zm76.5 4.977q1.6-2.871 3.82-4.236 2.22-1.366 5.23-1.366 4.05 0 6.25 2.847 2.2 2.824 2.2 8.055v15.649h-4.28v-15.51q0-3.726-1.32-5.532t-4.03-1.806q-3.31 0-5.23 2.2-1.92 2.199-1.92 5.995v14.653h-4.29v-15.51q0-3.75-1.31-5.532-1.32-1.806-4.08-1.806-3.26 0-5.18 2.223-1.93 2.199-1.93 5.972v14.653h-4.28v-25.926h4.28v4.028q1.46-2.385 3.5-3.519 2.04-1.134 4.84-1.134 2.82 0 4.79 1.435 1.99 1.435 2.94 4.167zm25.56 10.717v-15.694h4.25v15.532q0 3.681 1.44 5.532 1.43 1.829 4.3 1.829 3.45 0 5.44-2.199 2.02-2.199 2.02-5.995v-14.699h4.26v25.926h-4.26v-3.982q-1.55 2.361-3.61 3.519-2.04 1.134-4.75 1.134-4.47 0-6.78-2.778-2.31-2.778-2.31-8.125m10.71-16.319zm38.43 1.62v3.982q-1.81-.996-3.64-1.482-1.8-.509-3.65-.509-4.15 0-6.44 2.639-2.29 2.615-2.29 7.361 0 4.745 2.29 7.384 2.29 2.616 6.44 2.616 1.85 0 3.65-.486 1.83-.51 3.64-1.505v3.935q-1.78.834-3.71 1.25-1.89.417-4.05.417-5.85 0-9.3-3.681-3.45-3.68-3.45-9.93 0-6.343 3.47-9.977 3.5-3.634 9.56-3.634 1.97 0 3.84.416 1.88.394 3.64 1.204zm28.96 9.282v15.649h-4.26v-15.51q0-3.68-1.44-5.509-1.43-1.829-4.3-1.829-3.45 0-5.44 2.2-1.99 2.199-1.99 5.995v14.653h-4.29v-36.019h4.29v14.121q1.52-2.338 3.58-3.496 2.09-1.157 4.8-1.157 4.46 0 6.75 2.778 2.3 2.754 2.3 8.124zm23.56-10.277h4.26v25.926h-4.26v-25.926m0-10.093h4.26v5.394h-4.26v-5.394zm29.7 10.857v4.027q-1.81-.926-3.75-1.388-1.94-.463-4.03-.463-3.17 0-4.77.972-1.57.972-1.57 2.916 0 1.482 1.13 2.338 1.14.834 4.56 1.598l1.46.324q4.54.972 6.44 2.754 1.92 1.76 1.92 4.931 0 3.611-2.87 5.717-2.85 2.107-7.85 2.107-2.08 0-4.35-.417-2.25-.393-4.75-1.204v-4.398q2.37 1.227 4.66 1.852 2.29.602 4.53.602 3.01 0 4.63-1.018 1.62-1.042 1.62-2.917 0-1.736-1.18-2.662-1.15-.926-5.11-1.783l-1.48-.347q-3.96-.833-5.72-2.546-1.76-1.736-1.76-4.745 0-3.658 2.59-5.648 2.59-1.991 7.36-1.991 2.36 0 4.45.347 2.08.347 3.84 1.042zm23.24-10.857h4.26v36.019h-4.26v-36.019zm35.35 21.991v2.083h-19.59q.28 4.398 2.64 6.713 2.39 2.292 6.62 2.292 2.46 0 4.75-.602 2.31-.602 4.58-1.806v4.028q-2.29.972-4.7 1.482-2.4.509-4.88.509-6.2 0-9.84-3.611-3.61-3.611-3.61-9.769 0-6.365 3.43-10.092 3.45-3.75 9.28-3.75 5.23 0 8.26 3.379 3.06 3.357 3.06 9.144m-4.26-1.25q-.05-3.495-1.97-5.579-1.9-2.083-5.05-2.083-3.56 0-5.71 2.014-2.13 2.014-2.46 5.671l15.19-.023zm24.37-20.741v3.542h-4.07q-2.29 0-3.2.926-.87.926-.87 3.333v2.292h7.01v3.31h-7.01v22.616h-4.29v-22.616h-4.07v-3.31h4.07v-1.806q0-4.328 2.02-6.296 2.01-1.991 6.39-1.991h4.02zm6.95 2.732v7.361h8.77v3.31h-8.77v14.074q0 3.171.85 4.074.88.903 3.55.903h4.37v3.565h-4.37q-4.93 0-6.81-1.829-1.87-1.852-1.87-6.713v-14.074h-3.13v-3.31h3.13v-7.361h4.28zm33.65 0v7.361h8.78v3.31h-8.78v14.074q0 3.171.86 4.074.88.903 3.54.903h4.38v3.565h-4.38q-4.93 0-6.8-1.829-1.88-1.852-1.88-6.713v-14.074h-3.12v-3.31h3.12v-7.361h4.28zm24.43 10.347q-3.43 0-5.42 2.685-1.99 2.662-1.99 7.315 0 4.653 1.97 7.338 1.99 2.662 5.44 2.662 3.4 0 5.39-2.685 1.99-2.686 1.99-7.315 0-4.607-1.99-7.292-1.99-2.708-5.39-2.708m0-3.611q5.55 0 8.72 3.611 3.17 3.611 3.17 10 0 6.366-3.17 10-3.17 3.611-8.72 3.611-5.58 0-8.75-3.611-3.15-3.634-3.15-10 0-6.389 3.15-10 3.17-3.611 8.75-3.611zm38.24-6.736v7.361h8.77v3.31h-8.77v14.074q0 3.171.85 4.074.88.903 3.54.903h4.38v3.565h-4.38q-4.93 0-6.8-1.829-1.88-1.852-1.88-6.713v-14.074h-3.12v-3.31h3.12v-7.361h4.29zm29.39 11.342q-.71-.416-1.57-.602-.83-.208-1.85-.208-3.61 0-5.56 2.361-1.92 2.338-1.92 6.736v13.658h-4.28v-25.926h4.28v4.028q1.34-2.362 3.5-3.496 2.15-1.157 5.23-1.157.44 0 .97.069.53.047 1.18.162l.02 4.375zm16.25 8.912q-5.16 0-7.15 1.181-1.99 1.18-1.99 4.028 0 2.268 1.48 3.611 1.51 1.319 4.08 1.319 3.54 0 5.67-2.5 2.15-2.523 2.15-6.69v-.949h-4.24m8.5-1.759v14.792h-4.26v-3.936q-1.46 2.361-3.63 3.496-2.18 1.111-5.33 1.111-3.98 0-6.34-2.222-2.34-2.246-2.34-5.996 0-4.375 2.92-6.597 2.94-2.222 8.75-2.222h5.97v-.417q0-2.94-1.94-4.537-1.93-1.62-5.42-1.62-2.22 0-4.33.532-2.11.533-4.05 1.597v-3.935q2.34-.902 4.54-1.342 2.2-.463 4.28-.463 5.62 0 8.4 2.916 2.78 2.917 2.78 8.843zm25.83-7.199v-14.028h4.26v36.019h-4.26v-3.889q-1.34 2.314-3.4 3.449-2.04 1.111-4.91 1.111-4.7 0-7.66-3.75-2.94-3.75-2.94-9.861 0-6.111 2.94-9.861 2.96-3.75 7.66-3.75 2.87 0 4.91 1.134 2.06 1.111 3.4 3.426m-14.51 9.051q0 4.699 1.92 7.384 1.95 2.662 5.32 2.662 3.38 0 5.33-2.662 1.94-2.685 1.94-7.384t-1.94-7.361q-1.95-2.685-5.33-2.685-3.37 0-5.32 2.685-1.92 2.662-1.92 7.361zm49.72-1.088v2.083h-19.58q.28 4.398 2.64 6.713 2.38 2.292 6.62 2.292 2.45 0 4.74-.602 2.32-.602 4.59-1.806v4.028q-2.3.972-4.7 1.482-2.41.509-4.89.509-6.2 0-9.84-3.611-3.61-3.611-3.61-9.769 0-6.365 3.43-10.092 3.45-3.75 9.28-3.75 5.23 0 8.27 3.379 3.05 3.357 3.05 9.144m-4.26-1.25q-.04-3.495-1.97-5.579-1.89-2.083-5.04-2.083-3.57 0-5.72 2.014-2.13 2.014-2.45 5.671l15.18-.023zm26.32-10.648h4.26v25.926h-4.26v-25.926m0-10.093h4.26v5.394h-4.26v-5.394zm34.72 20.37v15.649h-4.26v-15.51q0-3.68-1.43-5.509-1.44-1.829-4.31-1.829-3.45 0-5.44 2.2-1.99 2.199-1.99 5.995v14.653h-4.28v-25.926h4.28v4.028q1.53-2.338 3.59-3.496 2.08-1.157 4.79-1.157 4.47 0 6.76 2.778 2.29 2.754 2.29 8.124zm27.78-17.638v7.361h8.77v3.31h-8.77v14.074q0 3.171.86 4.074.88.903 3.54.903h4.37v3.565h-4.37q-4.93 0-6.81-1.829-1.87-1.852-1.87-6.713v-14.074h-3.13v-3.31h3.13v-7.361h4.28zm35.93 17.638v15.649h-4.26v-15.51q0-3.68-1.44-5.509-1.43-1.829-4.3-1.829-3.45 0-5.44 2.2-1.99 2.199-1.99 5.995v14.653h-4.29v-36.019h4.29v14.121q1.52-2.338 3.58-3.496 2.09-1.157 4.8-1.157 4.46 0 6.76 2.778 2.29 2.754 2.29 8.124zm30.67 1.621v2.083h-19.59q.28 4.398 2.64 6.713 2.39 2.292 6.62 2.292 2.46 0 4.75-.602 2.31-.602 4.58-1.806v4.028q-2.29.972-4.7 1.482-2.4.509-4.88.509-6.2 0-9.84-3.611-3.61-3.611-3.61-9.769 0-6.365 3.43-10.092 3.45-3.75 9.28-3.75 5.23 0 8.26 3.379 3.06 3.357 3.06 9.144m-4.26-1.25q-.05-3.495-1.97-5.579-1.9-2.083-5.05-2.083-3.56 0-5.71 2.014-2.13 2.014-2.46 5.671l15.19-.023zm43.38-6.713v-14.028h4.26v36.019h-4.26v-3.889q-1.34 2.314-3.4 3.449-2.04 1.111-4.91 1.111-4.7 0-7.66-3.75-2.94-3.75-2.94-9.861 0-6.111 2.94-9.861 2.96-3.75 7.66-3.75 2.87 0 4.91 1.134 2.06 1.111 3.4 3.426m-14.52 9.051q0 4.699 1.93 7.384 1.94 2.662 5.32 2.662 3.38 0 5.32-2.662 1.95-2.685 1.95-7.384t-1.95-7.361q-1.94-2.685-5.32-2.685-3.38 0-5.32 2.685-1.93 2.662-1.93 7.361zm39.33-.093q-5.16 0-7.15 1.181-1.99 1.18-1.99 4.028 0 2.268 1.48 3.611 1.51 1.319 4.07 1.319 3.55 0 5.68-2.5 2.15-2.523 2.15-6.69v-.949h-4.24m8.5-1.759v14.792h-4.26v-3.936q-1.46 2.361-3.64 3.496-2.17 1.111-5.32 1.111-3.98 0-6.34-2.222-2.34-2.246-2.34-5.996 0-4.375 2.92-6.597 2.94-2.222 8.75-2.222h5.97v-.417q0-2.94-1.95-4.537-1.92-1.62-5.41-1.62-2.22 0-4.33.532-2.11.533-4.05 1.597v-3.935q2.34-.902 4.54-1.342 2.19-.463 4.28-.463 5.62 0 8.4 2.916 2.78 2.917 2.78 8.843zm19.56 17.199q-1.81 4.63-3.52 6.042t-4.58 1.412h-3.41v-3.565h2.5q1.76 0 2.73-.834.98-.833 2.16-3.935l.76-1.944-10.48-25.509h4.51l8.1 20.277 8.1-20.277h4.52l-11.39 28.333zm21.85-8.287h4.7v5.88h-4.7v-5.88m4.56-3.403h-4.42v-3.565q0-2.338.65-3.842.65-1.505 2.73-3.496l2.08-2.06q1.32-1.227 1.9-2.314.6-1.088.6-2.223 0-2.06-1.53-3.333-1.5-1.273-4-1.273-1.83 0-3.91.81-2.06.81-4.31 2.361v-4.352q2.18-1.319 4.4-1.967 2.25-.648 4.63-.648 4.26 0 6.83 2.245 2.59 2.245 2.59 5.926 0 1.759-.83 3.356-.84 1.574-2.92 3.565l-2.04 1.991q-1.08 1.088-1.55 1.713-.44.602-.62 1.18-.14.486-.21 1.181-.07.694-.07 1.898v2.847z" fill="#f8f8f2" fill-rule="evenodd" fill-opacity="1"/></svg>