<svg xmlns="http://www.w3.org/2000/svg" width="600" height="400" viewBox="0 0 2400 1600"><defs><clipPath id="clip050"><rect x="0" y="0" width="2400" height="1600"/></clipPath></defs><path clip-path="url(#clip050)" d="M0 1600h2400V0H0z" fill="#282a36" fill-rule="evenodd" fill-opacity="1"/><defs><clipPath id="clip051"><rect x="480" y="0" width="1681" height="1600"/></clipPath></defs><path clip-path="url(#clip050)" d="M186.76 1486.45h2166V47.244h-2166z" fill="#30343b" fill-rule="evenodd" fill-opacity="1"/><defs><clipPath id="clip052"><rect x="186" y="47" width="2167" height="1440"/></clipPath></defs><polyline clip-path="url(#clip052)" points="391.738,1486.45 391.738,47.2441" stroke="#f8f8f2" stroke-linecap="butt" stroke-linejoin="round" stroke-width="2" stroke-opacity=".1" fill="none"/><polyline clip-path="url(#clip052)" points="870.658,1486.45 870.658,47.2441" stroke="#f8f8f2" stroke-linecap="butt" stroke-linejoin="round" stroke-width="2" stroke-opacity=".1" fill="none"/><polyline clip-path="url(#clip052)" points="1365.54,1486.45 1365.54,47.2441" stroke="#f8f8f2" stroke-linecap="butt" stroke-linejoin="round" stroke-width="2" stroke-opacity=".1" fill="none"/><polyline clip-path="url(#clip052)" points="1860.43,1486.45 1860.43,47.2441" stroke="#f8f8f2" stroke-linecap="butt" stroke-linejoin="round" stroke-width="2" stroke-opacity=".1" fill="none"/><polyline clip-path="url(#clip052)" points="2307.42,1486.45 2307.42,47.2441" stroke="#f8f8f2" stroke-linecap="butt" stroke-linejoin="round" stroke-width="2" stroke-opacity=".1" fill="none"/><polyline clip-path="url(#clip050)" points="186.76,1486.45 2352.76,1486.45" stroke="#f8f8f2" stroke-linecap="butt" stroke-linejoin="round" stroke-width="4" stroke-opacity="1" fill="none"/><polyline clip-path="url(#clip050)" points="391.738,1486.45 391.738,1467.55" stroke="#f8f8f2" stroke-linecap="butt" stroke-linejoin="round" stroke-width="4" stroke-opacity="1" fill="none"/><polyline clip-path="url(#clip050)" points="870.658,1486.45 870.658,1467.55" stroke="#f8f8f2" stroke-linecap="butt" stroke-linejoin="round" stroke-width="4" stroke-opacity="1" fill="none"/><polyline clip-path="url(#clip050)" points="1365.54,1486.45 1365.54,1467.55" stroke="#f8f8f2" stroke-linecap="butt" stroke-linejoin="round" stroke-width="4" stroke-opacity="1" fill="none"/><polyline clip-path="url(#clip050)" points="1860.43,1486.45 1860.43,1467.55" stroke="#f8f8f2" stroke-linecap="butt" stroke-linejoin="round" stroke-width="4" stroke-opacity="1" fill="none"/><polyline clip-path="url(#clip050)" points="2307.42,1486.45 2307.42,1467.55" stroke="#f8f8f2" stroke-linecap="butt" stroke-linejoin="round" stroke-width="4" stroke-opacity="1" fill="none"/><path clip-path="url(#clip050)" d="M263.533 1544.91h16.319v3.94h-21.944v-3.94q2.662-2.75 7.245-7.38 4.606-4.65 5.787-6 2.245-2.52 3.125-4.26.903-1.76.903-3.45 0-2.75-1.945-4.49-1.921-1.73-5.023-1.73-2.199 0-4.653.76-2.43.77-5.208 2.32v-4.73q2.824-1.13 5.278-1.71 2.453-.58 4.491-.58 5.37 0 8.564 2.69 3.195 2.68 3.195 7.17 0 2.13-.81 4.05-.787 1.9-2.894 4.5-.579.67-3.681 3.88-3.101 3.2-8.749 8.96zm36.134-27.54q-3.611 0-5.44 3.56-1.806 3.54-1.806 10.67 0 7.11 1.806 10.67 1.829 3.55 5.44 3.55 3.634 0 5.439-3.55 1.829-3.56 1.829-10.67 0-7.13-1.829-10.67-1.805-3.56-5.439-3.56m0-3.71q5.81 0 8.865 4.61 3.079 4.58 3.079 13.33 0 8.73-3.079 13.34-3.055 4.58-8.865 4.58-5.811 0-8.889-4.58-3.056-4.61-3.056-13.34 0-8.75 3.056-13.33 3.078-4.61 8.889-4.61zm24.189 31.25h16.32v3.94h-21.945v-3.94q2.662-2.75 7.246-7.38 4.606-4.65 5.787-6 2.245-2.52 3.125-4.26.902-1.76.902-3.45 0-2.75-1.944-4.49-1.921-1.73-5.023-1.73-2.199 0-4.653.76-2.43.77-5.208 2.32v-4.73q2.824-1.13 5.278-1.71 2.453-.58 4.49-.58 5.371 0 8.565 2.69 3.194 2.68 3.194 7.17 0 2.13-.81 4.05-.787 1.9-2.893 4.5-.579.67-3.681 3.88-3.102 3.2-8.75 8.96zm26.945 0h7.638v-26.36l-8.31 1.66v-4.26l8.264-1.66h4.676v30.62h7.639v3.94h-19.907v-3.94zm26.597-10.95h12.476v3.8h-12.476v-3.8zm20.671 10.95h7.639v-26.36l-8.31 1.66v-4.26l8.263-1.66h4.676v30.62h7.639v3.94h-19.907v-3.94zm30.162 0h7.639v-26.36l-8.311 1.66v-4.26l8.264-1.66h4.676v30.62h7.639v3.94h-19.907v-3.94zm26.597-10.95h12.477v3.8h-12.477v-3.8zm29.861-16.59q-3.611 0-5.44 3.56-1.806 3.54-1.806 10.67 0 7.11 1.806 10.67 1.829 3.55 5.44 3.55 3.634 0 5.44-3.55 1.828-3.56 1.828-10.67 0-7.13-1.828-10.67-1.806-3.56-5.44-3.56m0-3.71q5.81 0 8.865 4.61 3.079 4.58 3.079 13.33 0 8.73-3.079 13.34-3.055 4.58-8.865 4.58-5.81 0-8.889-4.58-3.056-4.61-3.056-13.34 0-8.75 3.056-13.33 3.079-4.61 8.889-4.61zm20.972 31.25h7.639v-26.36l-8.31 1.66v-4.26l8.263-1.66h4.676v30.62h7.639v3.94h-19.907v-3.94zm236.792 0h16.319v3.94h-21.944v-3.94q2.662-2.75 7.245-7.38 4.606-4.65 5.787-6 2.245-2.52 3.125-4.26.903-1.76.903-3.45 0-2.75-1.945-4.49-1.921-1.73-5.023-1.73-2.199 0-4.653.76-2.43.77-5.208 2.32v-4.73q2.824-1.13 5.278-1.71 2.454-.58 4.491-.58 5.37 0 8.564 2.69 3.195 2.68 3.195 7.17 0 2.13-.81 4.05-.787 1.9-2.894 4.5-.579.67-3.68 3.88-3.102 3.2-8.75 8.96zm36.134-27.54q-3.611 0-5.44 3.56-1.806 3.54-1.806 10.67 0 7.11 1.806 10.67 1.829 3.55 5.44 3.55 3.634 0 5.439-3.55 1.829-3.56 1.829-10.67 0-7.13-1.829-10.67-1.805-3.56-5.439-3.56m0-3.71q5.81 0 8.865 4.61 3.079 4.58 3.079 13.33 0 8.73-3.079 13.34-3.055 4.58-8.865 4.58-5.81 0-8.889-4.58-3.056-4.61-3.056-13.34 0-8.75 3.056-13.33 3.079-4.61 8.889-4.61zm24.189 31.25h16.32v3.94h-21.945v-3.94q2.662-2.75 7.246-7.38 4.606-4.65 5.787-6 2.245-2.52 3.125-4.26.902-1.76.902-3.45 0-2.75-1.944-4.49-1.921-1.73-5.023-1.73-2.199 0-4.653.76-2.43.77-5.208 2.32v-4.73q2.824-1.13 5.278-1.71 2.453-.58 4.49-.58 5.371 0 8.565 2.69 3.195 2.68 3.195 7.17 0 2.13-.811 4.05-.787 1.9-2.893 4.5-.579.67-3.681 3.88-3.102 3.2-8.75 8.96zm26.945 0h7.639v-26.36l-8.311 1.66v-4.26l8.264-1.66h4.676v30.62h7.639v3.94h-19.907v-3.94zm26.597-10.95h12.477v3.8h-12.477v-3.8zm20.671 10.95h7.639v-26.36l-8.31 1.66v-4.26l8.263-1.66h4.676v30.62h7.639v3.94h-19.907v-3.94zm33.379 0h16.32v3.94h-21.945v-3.94q2.662-2.75 7.246-7.38 4.606-4.65 5.787-6 2.245-2.52 3.125-4.26.902-1.76.902-3.45 0-2.75-1.944-4.49-1.921-1.73-5.023-1.73-2.199 0-4.653.76-2.43.77-5.208 2.32v-4.73q2.824-1.13 5.278-1.71 2.453-.58 4.49-.58 5.371 0 8.565 2.69 3.195 2.68 3.195 7.17 0 2.13-.811 4.05-.787 1.9-2.893 4.5-.579.67-3.681 3.88-3.102 3.2-8.75 8.96zm23.38-10.95h12.477v3.8h-12.477v-3.8zm29.861-16.59q-3.611 0-5.44 3.56-1.806 3.54-1.806 10.67 0 7.11 1.806 10.67 1.829 3.55 5.44 3.55 3.634 0 5.44-3.55 1.828-3.56 1.828-10.67 0-7.13-1.828-10.67-1.806-3.56-5.44-3.56m0-3.71q5.81 0 8.866 4.61 3.078 4.58 3.078 13.33 0 8.73-3.078 13.34-3.056 4.58-8.866 4.58t-8.889-4.58q-3.056-4.61-3.056-13.34 0-8.75 3.056-13.33 3.079-4.61 8.889-4.61zm20.972 31.25h7.639v-26.36l-8.31 1.66v-4.26l8.263-1.66h4.676v30.62h7.641v3.94h-19.909v-3.94zm252.759 0h16.32v3.94h-21.95v-3.94q2.66-2.75 7.25-7.38 4.6-4.65 5.78-6 2.25-2.52 3.13-4.26.9-1.76.9-3.45 0-2.75-1.94-4.49-1.92-1.73-5.03-1.73-2.19 0-4.65.76-2.43.77-5.21 2.32v-4.73q2.83-1.13 5.28-1.71 2.45-.58 4.49-.58 5.37 0 8.57 2.69 3.19 2.68 3.19 7.17 0 2.13-.81 4.05-.79 1.9-2.89 4.5-.58.67-3.68 3.88-3.11 3.2-8.75 8.96zm36.13-27.54q-3.61 0-5.44 3.56-1.8 3.54-1.8 10.67 0 7.11 1.8 10.67 1.83 3.55 5.44 3.55 3.63 0 5.44-3.55 1.83-3.56 1.83-10.67 0-7.13-1.83-10.67-1.81-3.56-5.44-3.56m0-3.71q5.81 0 8.87 4.61 3.08 4.58 3.08 13.33 0 8.73-3.08 13.34-3.06 4.58-8.87 4.58-5.81 0-8.89-4.58-3.05-4.61-3.05-13.34 0-8.75 3.05-13.33 3.08-4.61 8.89-4.61zm24.19 31.25h16.32v3.94h-21.94v-3.94q2.66-2.75 7.24-7.38 4.61-4.65 5.79-6 2.24-2.52 3.12-4.26.91-1.76.91-3.45 0-2.75-1.95-4.49-1.92-1.73-5.02-1.73-2.2 0-4.65.76-2.44.77-5.21 2.32v-4.73q2.82-1.13 5.27-1.71 2.46-.58 4.5-.58 5.37 0 8.56 2.69 3.19 2.68 3.19 7.17 0 2.13-.81 4.05-.78 1.9-2.89 4.5-.58.67-3.68 3.88-3.1 3.2-8.75 8.96zm30.16 0h16.32v3.94h-21.94v-3.94q2.66-2.75 7.24-7.38 4.61-4.65 5.79-6 2.25-2.52 3.12-4.26.91-1.76.91-3.45 0-2.75-1.95-4.49-1.92-1.73-5.02-1.73-2.2 0-4.65.76-2.43.77-5.21 2.32v-4.73q2.82-1.13 5.28-1.71 2.45-.58 4.49-.58 5.37 0 8.56 2.69 3.2 2.68 3.2 7.17 0 2.13-.81 4.05-.79 1.9-2.9 4.5-.58.67-3.68 3.88-3.1 3.2-8.75 8.96zm23.38-10.95h12.48v3.8h-12.48v-3.8zm29.86-16.59q-3.61 0-5.44 3.56-1.8 3.54-1.8 10.67 0 7.11 1.8 10.67 1.83 3.55 5.44 3.55 3.64 0 5.44-3.55 1.83-3.56 1.83-10.67 0-7.13-1.83-10.67-1.8-3.56-5.44-3.56m0-3.71q5.81 0 8.87 4.61 3.08 4.58 3.08 13.33 0 8.73-3.08 13.34-3.06 4.58-8.87 4.58-5.81 0-8.89-4.58-3.05-4.61-3.05-13.34 0-8.75 3.05-13.33 3.08-4.61 8.89-4.61zm20.97 31.25h7.64v-26.36l-8.31 1.66v-4.26l8.27-1.66h4.67v30.62h7.64v3.94h-19.91v-3.94zm26.6-10.95h12.48v3.8h-12.48v-3.8zm29.86-16.59q-3.61 0-5.44 3.56-1.8 3.54-1.8 10.67 0 7.11 1.8 10.67 1.83 3.55 5.44 3.55 3.64 0 5.44-3.55 1.83-3.56 1.83-10.67 0-7.13-1.83-10.67-1.8-3.56-5.44-3.56m0-3.71q5.81 0 8.87 4.61 3.08 4.58 3.08 13.33 0 8.73-3.08 13.34-3.06 4.58-8.87 4.58-5.81 0-8.89-4.58-3.05-4.61-3.05-13.34 0-8.75 3.05-13.33 3.08-4.61 8.89-4.61zm20.98 31.25h7.63v-26.36l-8.31 1.66v-4.26l8.27-1.66h4.67v30.62h7.64v3.94h-19.9v-3.94zm252.75 0h16.32v3.94h-21.94v-3.94q2.66-2.75 7.24-7.38 4.61-4.65 5.79-6 2.24-2.52 3.12-4.26.91-1.76.91-3.45 0-2.75-1.95-4.49-1.92-1.73-5.02-1.73-2.2 0-4.65.76-2.43.77-5.21 2.32v-4.73q2.82-1.13 5.27-1.71 2.46-.58 4.5-.58 5.37 0 8.56 2.69 3.19 2.68 3.19 7.17 0 2.13-.81 4.05-.78 1.9-2.89 4.5-.58.67-3.68 3.88-3.1 3.2-8.75 8.96zm36.13-27.54q-3.61 0-5.43 3.56-1.81 3.54-1.81 10.67 0 7.11 1.81 10.67 1.82 3.55 5.43 3.55 3.64 0 5.44-3.55 1.83-3.56 1.83-10.67 0-7.13-1.83-10.67-1.8-3.56-5.44-3.56m0-3.71q5.81 0 8.87 4.61 3.08 4.58 3.08 13.33 0 8.73-3.08 13.34-3.06 4.58-8.87 4.58-5.81 0-8.88-4.58-3.06-4.61-3.06-13.34 0-8.75 3.06-13.33 3.07-4.61 8.88-4.61zm24.19 31.25h16.32v3.94h-21.94v-3.94q2.66-2.75 7.24-7.38 4.61-4.65 5.79-6 2.25-2.52 3.13-4.26.9-1.76.9-3.45 0-2.75-1.94-4.49-1.93-1.73-5.03-1.73-2.2 0-4.65.76-2.43.77-5.21 2.32v-4.73q2.83-1.13 5.28-1.71 2.45-.58 4.49-.58 5.37 0 8.56 2.69 3.2 2.68 3.2 7.17 0 2.13-.81 4.05-.79 1.9-2.9 4.5-.57.67-3.68 3.88-3.1 3.2-8.75 8.96zm30.17 0h16.32v3.94h-21.95v-3.94q2.66-2.75 7.25-7.38 4.6-4.65 5.78-6 2.25-2.52 3.13-4.26.9-1.76.9-3.45 0-2.75-1.94-4.49-1.92-1.73-5.03-1.73-2.2 0-4.65.76-2.43.77-5.21 2.32v-4.73q2.83-1.13 5.28-1.71 2.45-.58 4.49-.58 5.37 0 8.57 2.69 3.19 2.68 3.19 7.17 0 2.13-.81 4.05-.79 1.9-2.89 4.5-.58.67-3.68 3.88-3.11 3.2-8.75 8.96zm23.38-10.95h12.47v3.8h-12.47v-3.8zm29.86-16.59q-3.61 0-5.44 3.56-1.81 3.54-1.81 10.67 0 7.11 1.81 10.67 1.83 3.55 5.44 3.55 3.63 0 5.44-3.55 1.83-3.56 1.83-10.67 0-7.13-1.83-10.67-1.81-3.56-5.44-3.56m0-3.71q5.81 0 8.86 4.61 3.08 4.58 3.08 13.33 0 8.73-3.08 13.34-3.05 4.58-8.86 4.58t-8.89-4.58q-3.06-4.61-3.06-13.34 0-8.75 3.06-13.33 3.08-4.61 8.89-4.61zm24.19 31.25h16.32v3.94h-21.95v-3.94q2.66-2.75 7.25-7.38 4.6-4.65 5.78-6 2.25-2.52 3.13-4.26.9-1.76.9-3.45 0-2.75-1.94-4.49-1.92-1.73-5.03-1.73-2.19 0-4.65.76-2.43.77-5.21 2.32v-4.73q2.83-1.13 5.28-1.71 2.45-.58 4.49-.58 5.37 0 8.57 2.69 3.19 2.68 3.19 7.17 0 2.13-.81 4.05-.79 1.9-2.89 4.5-.58.67-3.68 3.88-3.11 3.2-8.75 8.96zm23.38-10.95h12.47v3.8h-12.47v-3.8zm29.86-16.59q-3.61 0-5.44 3.56-1.81 3.54-1.81 10.67 0 7.11 1.81 10.67 1.83 3.55 5.44 3.55 3.63 0 5.44-3.55 1.83-3.56 1.83-10.67 0-7.13-1.83-10.67-1.81-3.56-5.44-3.56m0-3.71q5.81 0 8.86 4.61 3.08 4.58 3.08 13.33 0 8.73-3.08 13.34-3.05 4.58-8.86 4.58t-8.89-4.58q-3.06-4.61-3.06-13.34 0-8.75 3.06-13.33 3.08-4.61 8.89-4.61zm20.97 31.25h7.64v-26.36l-8.31 1.66v-4.26l8.26-1.66h4.68v30.62h7.64v3.94h-19.91v-3.94zm204.86 0h16.32v3.94h-21.94v-3.94q2.66-2.75 7.24-7.38 4.61-4.65 5.79-6 2.25-2.52 3.13-4.26.9-1.76.9-3.45 0-2.75-1.95-4.49-1.92-1.73-5.02-1.73-2.2 0-4.65.76-2.43.77-5.21 2.32v-4.73q2.82-1.13 5.28-1.71 2.45-.58 4.49-.58 5.37 0 8.56 2.69 3.2 2.68 3.2 7.17 0 2.13-.81 4.05-.79 1.9-2.9 4.5-.58.67-3.68 3.88-3.1 3.2-8.75 8.96zm36.14-27.54q-3.61 0-5.44 3.56-1.81 3.54-1.81 10.67 0 7.11 1.81 10.67 1.83 3.55 5.44 3.55 3.63 0 5.44-3.55 1.83-3.56 1.83-10.67 0-7.13-1.83-10.67-1.81-3.56-5.44-3.56m0-3.71q5.81 0 8.86 4.61 3.08 4.58 3.08 13.33 0 8.73-3.08 13.34-3.05 4.58-8.86 4.58t-8.89-4.58q-3.06-4.61-3.06-13.34 0-8.75 3.06-13.33 3.08-4.61 8.89-4.61zm24.19 31.25h16.32v3.94h-21.95v-3.94q2.66-2.75 7.25-7.38 4.6-4.65 5.78-6 2.25-2.52 3.13-4.26.9-1.76.9-3.45 0-2.75-1.94-4.49-1.92-1.73-5.03-1.73-2.19 0-4.65.76-2.43.77-5.21 2.32v-4.73q2.83-1.13 5.28-1.71 2.45-.58 4.49-.58 5.37 0 8.57 2.69 3.19 2.68 3.19 7.17 0 2.13-.81 4.05-.79 1.9-2.89 4.5-.58.67-3.68 3.88-3.11 3.2-8.75 8.96zm30.16 0h16.32v3.94h-21.95v-3.94q2.67-2.75 7.25-7.38 4.61-4.65 5.79-6 2.24-2.52 3.12-4.26.9-1.76.9-3.45 0-2.75-1.94-4.49-1.92-1.73-5.02-1.73-2.2 0-4.66.76-2.43.77-5.21 2.32v-4.73q2.83-1.13 5.28-1.71 2.46-.58 4.49-.58 5.37 0 8.57 2.69 3.19 2.68 3.19 7.17 0 2.13-.81 4.05-.78 1.9-2.89 4.5-.58.67-3.68 3.88-3.1 3.2-8.75 8.96zm23.38-10.95h12.47v3.8h-12.47v-3.8zm29.86-16.59q-3.61 0-5.44 3.56-1.81 3.54-1.81 10.67 0 7.11 1.81 10.67 1.83 3.55 5.44 3.55 3.63 0 5.44-3.55 1.83-3.56 1.83-10.67 0-7.13-1.83-10.67-1.81-3.56-5.44-3.56m0-3.71q5.81 0 8.86 4.61 3.08 4.58 3.08 13.33 0 8.73-3.08 13.34-3.05 4.58-8.86 4.58t-8.89-4.58q-3.06-4.61-3.06-13.34 0-8.75 3.06-13.33 3.08-4.61 8.89-4.61zm34.33 16.55q3.35.72 5.23 2.99 1.9 2.27 1.9 5.6 0 5.12-3.52 7.92t-10 2.8q-2.18 0-4.49-.44-2.29-.42-4.75-1.27v-4.52q1.95 1.14 4.26 1.72 2.32.57 4.84.57 4.4 0 6.69-1.73 2.31-1.74 2.31-5.05 0-3.05-2.15-4.77-2.13-1.73-5.95-1.73h-4.03v-3.85h4.22q3.45 0 5.28-1.36 1.82-1.39 1.82-3.98 0-2.66-1.89-4.08-1.88-1.43-5.4-1.43-1.92 0-4.12.41-2.2.42-4.84 1.3v-4.17q2.67-.74 4.98-1.11 2.34-.37 4.4-.37 5.32 0 8.42 2.43 3.11 2.41 3.11 6.53 0 2.87-1.65 4.86-1.64 1.97-4.67 2.73zm13.24 3.75h12.47v3.8h-12.47v-3.8zm29.86-16.59q-3.61 0-5.44 3.56-1.81 3.54-1.81 10.67 0 7.11 1.81 10.67 1.83 3.55 5.44 3.55 3.63 0 5.44-3.55 1.83-3.56 1.83-10.67 0-7.13-1.83-10.67-1.81-3.56-5.44-3.56m0-3.71q5.81 0 8.86 4.61 3.08 4.58 3.08 13.33 0 8.73-3.08 13.34-3.05 4.58-8.86 4.58t-8.89-4.58q-3.06-4.61-3.06-13.34 0-8.75 3.06-13.33 3.08-4.61 8.89-4.61zm20.97 31.25h7.64v-26.36l-8.31 1.66v-4.26l8.26-1.66h4.68v30.62h7.64v3.94h-19.91v-3.94z" fill="#f8f8f2" fill-rule="evenodd" fill-opacity="1"/><polyline clip-path="url(#clip052)" points="186.76,1375 2352.76,1375" stroke="#f8f8f2" stroke-linecap="butt" stroke-linejoin="round" stroke-width="2" stroke-opacity=".1" fill="none"/><polyline clip-path="url(#clip052)" points="186.76,1079.3 2352.76,1079.3" stroke="#f8f8f2" stroke-linecap="butt" stroke-linejoin="round" stroke-width="2" stroke-opacity=".1" fill="none"/><polyline clip-path="url(#clip052)" points="186.76,783.59 2352.76,783.59" stroke="#f8f8f2" stroke-linecap="butt" stroke-linejoin="round" stroke-width="2" stroke-opacity=".1" fill="none"/><polyline clip-path="url(#clip052)" points="186.76,487.883 2352.76,487.883" stroke="#f8f8f2" stroke-linecap="butt" stroke-linejoin="round" stroke-width="2" stroke-opacity=".1" fill="none"/><polyline clip-path="url(#clip052)" points="186.76,192.177 2352.76,192.177" stroke="#f8f8f2" stroke-linecap="butt" stroke-linejoin="round" stroke-width="2" stroke-opacity=".1" fill="none"/><polyline clip-path="url(#clip050)" points="186.76,1486.45 186.76,47.2441" stroke="#f8f8f2" stroke-linecap="butt" stroke-linejoin="round" stroke-width="4" stroke-opacity="1" fill="none"/><polyline clip-path="url(#clip050)" points="186.76,1375 205.658,1375" stroke="#f8f8f2" stroke-linecap="butt" stroke-linejoin="round" stroke-width="4" stroke-opacity="1" fill="none"/><polyline clip-path="url(#clip050)" points="186.76,1079.3 205.658,1079.3" stroke="#f8f8f2" stroke-linecap="butt" stroke-linejoin="round" stroke-width="4" stroke-opacity="1" fill="none"/><polyline clip-path="url(#clip050)" points="186.76,783.59 205.658,783.59" stroke="#f8f8f2" stroke-linecap="butt" stroke-linejoin="round" stroke-width="4" stroke-opacity="1" fill="none"/><polyline clip-path="url(#clip050)" points="186.76,487.883 205.658,487.883" stroke="#f8f8f2" stroke-linecap="butt" stroke-linejoin="round" stroke-width="4" stroke-opacity="1" fill="none"/><polyline clip-path="url(#clip050)" points="186.76,192.177 205.658,192.177" stroke="#f8f8f2" stroke-linecap="butt" stroke-linejoin="round" stroke-width="4" stroke-opacity="1" fill="none"/><path clip-path="url(#clip050)" d="M65.02 1360.8q-3.611 0-5.44 3.57-1.805 3.54-1.805 10.67 0 7.1 1.805 10.67 1.829 3.54 5.44 3.54 3.634 0 5.44-3.54 1.828-3.57 1.828-10.67 0-7.13-1.828-10.67-1.806-3.57-5.44-3.57m0-3.7q5.81 0 8.865 4.6 3.08 4.59 3.08 13.34 0 8.72-3.08 13.33-3.055 4.58-8.865 4.58-5.81 0-8.889-4.58-3.056-4.61-3.056-13.33 0-8.75 3.056-13.34 3.079-4.6 8.889-4.6zm20.162 29.3h4.884v5.88h-4.884v-5.88zm25.069-25.6q-3.611 0-5.44 3.57-1.805 3.54-1.805 10.67 0 7.1 1.805 10.67 1.829 3.54 5.44 3.54 3.634 0 5.44-3.54 1.829-3.57 1.829-10.67 0-7.13-1.829-10.67-1.806-3.57-5.44-3.57m0-3.7q5.81 0 8.866 4.6 3.078 4.59 3.078 13.34 0 8.72-3.078 13.33-3.056 4.58-8.866 4.58t-8.889-4.58q-3.055-4.61-3.055-13.33 0-8.75 3.055-13.34 3.079-4.6 8.889-4.6zm24.19 31.25h16.319v3.93h-21.944v-3.93q2.662-2.76 7.245-7.39 4.607-4.65 5.787-5.99 2.245-2.53 3.125-4.26.903-1.76.903-3.45 0-2.76-1.945-4.49-1.921-1.74-5.023-1.74-2.199 0-4.652.77-2.431.76-5.209 2.31v-4.72q2.824-1.13 5.278-1.71 2.454-.58 4.491-.58 5.37 0 8.564 2.68 3.195 2.69 3.195 7.18 0 2.13-.81 4.05-.787 1.9-2.894 4.49-.578.67-3.68 3.89-3.102 3.19-8.75 8.96zM64.07 1065.09q-3.61 0-5.439 3.57-1.806 3.54-1.806 10.67 0 7.11 1.806 10.67 1.829 3.54 5.44 3.54 3.634 0 5.44-3.54 1.828-3.56 1.828-10.67 0-7.13-1.829-10.67-1.805-3.57-5.44-3.57m0-3.7q5.81 0 8.867 4.61 3.078 4.58 3.078 13.33 0 8.73-3.079 13.33-3.055 4.59-8.865 4.59-5.81 0-8.89-4.59-3.055-4.6-3.055-13.33 0-8.75 3.056-13.33 3.079-4.61 8.889-4.61zm20.163 29.31h4.884v5.88h-4.884v-5.88zm25.069-25.61q-3.611 0-5.44 3.57-1.805 3.54-1.805 10.67 0 7.11 1.805 10.67 1.829 3.54 5.44 3.54 3.634 0 5.44-3.54 1.828-3.56 1.828-10.67 0-7.13-1.828-10.67-1.806-3.57-5.44-3.57m0-3.7q5.81 0 8.866 4.61 3.078 4.58 3.078 13.33 0 8.73-3.078 13.33-3.056 4.59-8.866 4.59t-8.889-4.59q-3.055-4.6-3.055-13.33 0-8.75 3.055-13.33 3.079-4.61 8.889-4.61zm34.329 16.55q3.356.72 5.231 2.99 1.898 2.27 1.898 5.6 0 5.12-3.518 7.92-3.519 2.8-10 2.8-2.176 0-4.491-.44-2.292-.42-4.745-1.28v-4.51q1.944 1.13 4.259 1.71 2.315.58 4.838.58 4.398 0 6.69-1.73 2.314-1.74 2.314-5.05 0-3.06-2.152-4.77-2.13-1.73-5.949-1.73h-4.028v-3.85h4.213q3.449 0 5.277-1.36 1.829-1.39 1.829-3.98 0-2.67-1.898-4.08-1.875-1.43-5.393-1.43-1.922 0-4.121.41-2.199.42-4.838 1.3v-4.17q2.662-.74 4.977-1.11 2.338-.37 4.398-.37 5.324 0 8.426 2.43 3.102 2.41 3.102 6.53 0 2.87-1.644 4.86-1.643 1.97-4.675 2.73zM62.937 769.388q-3.612 0-5.44 3.565-1.806 3.542-1.806 10.671 0 7.107 1.806 10.672 1.828 3.541 5.44 3.541 3.634 0 5.44-3.541 1.828-3.565 1.828-10.672 0-7.129-1.829-10.671-1.805-3.565-5.44-3.565m0-3.703q5.81 0 8.866 4.606 3.079 4.583 3.079 13.333 0 8.727-3.079 13.334-3.055 4.583-8.866 4.583-5.81 0-8.888-4.583-3.056-4.607-3.056-13.334 0-8.75 3.056-13.333 3.078-4.606 8.889-4.606zm20.162 29.305h4.885v5.88h-4.885v-5.88zm25.07-25.602q-3.611 0-5.44 3.565-1.806 3.542-1.806 10.671 0 7.107 1.806 10.672 1.829 3.541 5.44 3.541 3.634 0 5.44-3.541 1.828-3.565 1.828-10.672 0-7.129-1.828-10.671-1.806-3.565-5.44-3.565m0-3.703q5.81 0 8.865 4.606 3.079 4.583 3.079 13.333 0 8.727-3.079 13.334-3.055 4.583-8.865 4.583-5.81 0-8.89-4.583-3.055-4.607-3.055-13.334 0-8.75 3.056-13.333 3.079-4.606 8.889-4.606zm33.009 4.699l-11.806 18.449h11.806v-18.449m-1.227-4.074h5.88v22.523h4.93v3.888h-4.93v8.149h-4.653v-8.149h-15.602v-4.513l14.375-21.898zM64.418 473.682q-3.611 0-5.44 3.565-1.805 3.541-1.805 10.671 0 7.106 1.805 10.671 1.829 3.542 5.44 3.542 3.634 0 5.44-3.542 1.828-3.565 1.828-10.671 0-7.13-1.828-10.671-1.806-3.565-5.44-3.565m0-3.704q5.81 0 8.866 4.606 3.078 4.584 3.078 13.334 0 8.727-3.078 13.333-3.056 4.583-8.866 4.583t-8.889-4.583q-3.055-4.606-3.055-13.333 0-8.75 3.055-13.334 3.079-4.606 8.889-4.606zm20.162 29.305h4.884v5.88H84.58v-5.88zm25.069-25.601q-3.611 0-5.44 3.565-1.805 3.541-1.805 10.671 0 7.106 1.805 10.671 1.829 3.542 5.44 3.542 3.634 0 5.44-3.542 1.829-3.565 1.829-10.671 0-7.13-1.829-10.671-1.806-3.565-5.44-3.565m0-3.704q5.81 0 8.866 4.606 3.079 4.584 3.079 13.334 0 8.727-3.079 13.333-3.056 4.583-8.866 4.583t-8.889-4.583q-3.055-4.606-3.055-13.333 0-8.75 3.055-13.334 3.079-4.606 8.889-4.606zm20.208.625h18.357v3.935H134.14v8.472q1.018-.347 2.037-.509 1.018-.185 2.037-.185 5.787 0 9.166 3.171 3.38 3.171 3.38 8.588 0 5.579-3.472 8.681-3.472 3.078-9.792 3.078-2.176 0-4.444-.37-2.245-.37-4.653-1.111v-4.699q2.083 1.134 4.306 1.69 2.222.555 4.699.555 4.004 0 6.342-2.106 2.338-2.107 2.338-5.718 0-3.611-2.338-5.717-2.338-2.107-6.342-2.107-1.875 0-3.75.417-1.852.416-3.797 1.296v-17.361zM63.26 177.975q-3.61 0-5.44 3.565-1.805 3.542-1.805 10.671 0 7.107 1.806 10.671 1.829 3.542 5.44 3.542 3.634 0 5.44-3.542 1.828-3.564 1.828-10.671 0-7.129-1.829-10.671-1.805-3.565-5.44-3.565m0-3.703q5.81 0 8.866 4.606 3.079 4.583 3.079 13.333 0 8.727-3.079 13.333-3.055 4.584-8.865 4.584-5.81 0-8.89-4.584-3.055-4.606-3.055-13.333 0-8.75 3.056-13.333 3.078-4.606 8.889-4.606zm20.162 29.305h4.885v5.88h-4.885v-5.88zm25.07-25.602q-3.611 0-5.44 3.565-1.806 3.542-1.806 10.671 0 7.107 1.806 10.671 1.829 3.542 5.44 3.542 3.634 0 5.44-3.542 1.828-3.564 1.828-10.671 0-7.129-1.828-10.671-1.806-3.565-5.44-3.565m0-3.703q5.81 0 8.866 4.606 3.078 4.583 3.078 13.333 0 8.727-3.078 13.333-3.056 4.584-8.866 4.584t-8.889-4.584q-3.056-4.606-3.056-13.333 0-8.75 3.056-13.333 3.079-4.606 8.889-4.606zm30.74 16.041q-3.148 0-5 2.153-1.828 2.153-1.828 5.903 0 3.726 1.828 5.902 1.852 2.153 5 2.153 3.149 0 4.977-2.153 1.852-2.176 1.852-5.902 0-3.75-1.852-5.903-1.828-2.153-4.977-2.153m9.283-14.653v4.26q-1.759-.834-3.565-1.274-1.782-.439-3.542-.439-4.629 0-7.083 3.125-2.431 3.125-2.778 9.444 1.366-2.014 3.426-3.079 2.06-1.088 4.537-1.088 5.208 0 8.218 3.172 3.032 3.148 3.032 8.588 0 5.324-3.148 8.541-3.148 3.218-8.38 3.218-5.995 0-9.166-4.584-3.172-4.606-3.172-13.333 0-8.194 3.889-13.055 3.889-4.884 10.44-4.884 1.759 0 3.542.347 1.805.347 3.75 1.041z" fill="#f8f8f2" fill-rule="evenodd" fill-opacity="1"/><polyline clip-path="url(#clip052)" points="248.062,1289.4 264.026,1293.14 279.99,1181.97 295.954,1213.28 311.918,1254.25 327.882,1177.66 343.846,1026.79 359.81,1431.49 375.774,1296.22 391.738,1187.67 407.702,1153.34 423.666,1209.58 439.63,1242.18 455.594,1104.94 471.558,1374.42 487.522,1362.71 503.486,992.451 519.45,986.803 535.414,905.926 551.378,1214.66 567.342,1005.1 583.306,1325.22 599.27,1283.34 615.234,1089.17 631.198,913.244 647.162,732.292 663.126,789.821 679.09,950.677 695.054,1350.66 711.018,1296.43 726.982,1075.93 742.946,1133.64 758.91,1003.74 774.874,1082.17 790.838,832.318 806.802,1272.53 822.766,1188.89 838.73,841.583 854.694,820.637 870.658,1041.69 886.622,1044.86 902.586,762.175 918.55,836.683 934.514,801.489 950.478,776.821 966.442,920.048 982.406,890.372 998.37,779.85 1014.33,1009.87 1030.3,1009.51 1046.26,963.642 1062.23,790.06 1078.19,865.191 1094.15,866.39 1110.12,939.755 1126.08,701.626 1142.05,1109.14 1158.01,1057.58 1173.97,786.895 1189.94,701.532 1205.9,941.342 1221.87,737.373 1237.83,930.136 1253.79,1375.52 1269.76,1302.79 1285.72,911.47 1301.69,552.034 1317.65,358.693 1333.61,87.9763 1349.58,920.138 1365.54,1200.28 1381.51,1381.52 1397.47,1036.8 1413.43,813.432 1429.4,658.862 1445.36,911.353 1461.33,498.537 1477.29,585.884 1493.25,1042.32 1509.22,709.894 1525.18,849.642 1541.15,875.872 1557.11,916.978 1573.07,1038.06 1589.04,1445.72 1605,1351.02 1620.97,1067.49 1636.93,776.936 1652.89,884.197 1668.86,721.731 1684.82,540.765 1700.79,651.478 1716.75,993.749 1732.71,480.096 1748.68,807.407 1764.64,642.078 1780.61,603.406 1796.57,928.727 1812.53,1294.86 1828.5,1306.52 1844.46,921.823 1860.43,983.372 1876.39,1037.83 1892.35,1042.17 1908.32,828.097 1924.28,1136.21 1940.25,1300.43 1956.21,951.598 1972.17,992.494 1988.14,1083.58 2004.1,871.752 2020.07,916.696 2036.03,1200.22 2051.99,1379.4 2067.96,1046.96 2083.92,1003.42 2099.89,1222.2 2115.85,776.793 2131.81,897.01 2147.78,1318.24 2163.74,1051.43 2179.71,814.346 2195.67,840.014 2211.63,913.2 2227.6,723.544 2243.56,890.562 2259.53,1279.74 2275.49,1000.56 2291.45,799.353" stroke="#8be9fd" stroke-linecap="butt" stroke-linejoin="round" stroke-width="4" stroke-opacity="1" fill="none"/><path clip-path="url(#clip050)" d="M1590.86 198.898h689.7V95.218h-689.7z" fill="#282a36" fill-rule="evenodd" fill-opacity="1"/><polyline clip-path="url(#clip050)" points="1590.86,198.898 2280.56,198.898 2280.56,95.2176 1590.86,95.2176 1590.86,198.898" stroke="#f8f8f2" stroke-linecap="butt" stroke-linejoin="round" stroke-width="4" stroke-opacity="1" fill="none"/><polyline clip-path="url(#clip050)" points="1614.93,147.058 1759.33,147.058" stroke="#8be9fd" stroke-linecap="butt" stroke-linejoin="round" stroke-width="4" stroke-opacity="1" fill="none"/><path clip-path="url(#clip050)" d="M1799.23 134.384l-6.34 17.199h12.71l-6.37-17.199m-2.64-4.606h5.3l13.17 34.56h-4.86l-3.15-8.866h-15.57l-3.15 8.866h-4.93l13.19-34.56zm17.5 8.634h4.52l8.1 21.759 8.1-21.759h4.51l-9.72 25.926h-5.79l-9.72-25.926zm53.29 11.898v2.083h-19.58q.27 4.398 2.63 6.713 2.39 2.292 6.62 2.292 2.46 0 4.75-.602 2.31-.602 4.58-1.806v4.028q-2.29.972-4.7 1.482-2.4.509-4.88.509-6.2 0-9.84-3.611-3.61-3.611-3.61-9.769 0-6.365 3.43-10.092 3.45-3.75 9.28-3.75 5.23 0 8.26 3.379 3.06 3.357 3.06 9.144m-4.26-1.25q-.05-3.495-1.97-5.579-1.9-2.083-5.04-2.083-3.57 0-5.72 2.014-2.13 2.014-2.46 5.671l15.19-.023zm26.27-6.667q-.72-.416-1.57-.602-.84-.208-1.85-.208-3.61 0-5.56 2.361-1.92 2.338-1.92 6.736v13.658h-4.28v-25.926h4.28v4.028q1.34-2.362 3.49-3.496 2.16-1.157 5.24-1.157.44 0 .97.069.53.047 1.18.162l.02 4.375zm16.25 8.912q-5.16 0-7.15 1.181-1.99 1.18-1.99 4.028 0 2.268 1.48 3.611 1.5 1.319 4.07 1.319 3.55 0 5.68-2.5 2.15-2.523 2.15-6.69v-.949h-4.24m8.5-1.759v14.792h-4.26v-3.936q-1.46 2.361-3.64 3.496-2.17 1.111-5.32 1.111-3.98 0-6.34-2.222-2.34-2.246-2.34-5.996 0-4.375 2.92-6.597 2.94-2.222 8.75-2.222h5.97v-.417q0-2.94-1.95-4.537-1.92-1.62-5.41-1.62-2.23 0-4.33.532-2.11.533-4.05 1.597v-3.935q2.34-.902 4.53-1.342 2.2-.463 4.29-.463 5.62 0 8.4 2.916 2.78 2.917 2.78 8.843zm25.83 1.528q0-4.63-1.92-7.176-1.9-2.546-5.35-2.546-3.42 0-5.35 2.546-1.89 2.546-1.89 7.176 0 4.606 1.89 7.152 1.93 2.547 5.35 2.547 3.45 0 5.35-2.547 1.92-2.546 1.92-7.152m4.26 10.046q0 6.62-2.94 9.838-2.94 3.241-9 3.241-2.25 0-4.24-.348-1.99-.324-3.87-1.018v-4.144q1.88 1.019 3.71 1.505t3.72.486q4.19 0 6.28-2.199 2.08-2.176 2.08-6.597v-2.107q-1.32 2.292-3.38 3.426-2.06 1.135-4.93 1.135-4.77 0-7.68-3.635-2.92-3.634-2.92-9.629 0-6.019 2.92-9.653 2.91-3.634 7.68-3.634 2.87 0 4.93 1.134 2.06 1.134 3.38 3.426v-3.935h4.26v22.708zm30.95-10.81v2.083h-19.58q.27 4.398 2.63 6.713 2.39 2.292 6.62 2.292 2.46 0 4.75-.602 2.31-.602 4.58-1.806v4.028q-2.29.972-4.7 1.482-2.4.509-4.88.509-6.2 0-9.84-3.611-3.61-3.611-3.61-9.769 0-6.365 3.43-10.092 3.45-3.75 9.28-3.75 5.23 0 8.26 3.379 3.06 3.357 3.06 9.144m-4.26-1.25q-.05-3.495-1.97-5.579-1.9-2.083-5.04-2.083-3.57 0-5.72 2.014-2.13 2.014-2.46 5.671l15.19-.023zm21.71-19.282h29.24v3.935h-12.27v30.625h-4.7v-30.625h-12.27v-3.935z" fill="#f8f8f2" fill-rule="evenodd" fill-opacity="1"/><path clip-path="url(#clip050)" d="M2034.25 142.393q-.72-.416-1.57-.602-.83-.208-1.85-.208-3.61 0-5.56 2.361-1.92 2.338-1.92 6.736v13.658h-4.28v-25.926h4.28v4.028q1.34-2.362 3.5-3.496 2.15-1.157 5.23-1.157.44 0 .97.069.53.047 1.18.162l.02 4.375zm16.25 8.912q-5.16 0-7.15 1.181-1.99 1.18-1.99 4.028 0 2.268 1.48 3.611 1.51 1.319 4.07 1.319 3.55 0 5.68-2.5 2.15-2.523 2.15-6.69v-.949h-4.24m8.5-1.759v14.792h-4.26v-3.936q-1.46 2.361-3.64 3.496-2.17 1.111-5.32 1.111-3.98 0-6.34-2.222-2.34-2.246-2.34-5.996 0-4.375 2.92-6.597 2.94-2.222 8.75-2.222h5.97v-.417q0-2.94-1.95-4.537-1.92-1.62-5.41-1.62-2.22 0-4.33.532-2.11.533-4.05 1.597v-3.935q2.34-.902 4.53-1.342 2.2-.463 4.29-.463 5.62 0 8.4 2.916 2.78 2.917 2.78 8.843zm25.83-7.199v-14.028h4.26v36.019h-4.26v-3.889q-1.34 2.314-3.4 3.449-2.04 1.111-4.91 1.111-4.7 0-7.66-3.75-2.94-3.75-2.94-9.861 0-6.111 2.94-9.861 2.96-3.75 7.66-3.75 2.87 0 4.91 1.134 2.06 1.111 3.4 3.426m-14.51 9.051q0 4.699 1.92 7.384 1.94 2.662 5.32 2.662 3.38 0 5.33-2.662 1.94-2.685 1.94-7.384t-1.94-7.361q-1.95-2.685-5.33-2.685t-5.32 2.685q-1.92 2.662-1.92 7.361zm49.72-1.088v2.083h-19.58q.27 4.398 2.63 6.713 2.39 2.292 6.63 2.292 2.45 0 4.74-.602 2.32-.602 4.58-1.806v4.028q-2.29.972-4.7 1.482-2.4.509-4.88.509-6.2 0-9.84-3.611-3.61-3.611-3.61-9.769 0-6.365 3.43-10.092 3.45-3.75 9.28-3.75 5.23 0 8.26 3.379 3.06 3.357 3.06 9.144m-4.26-1.25q-.05-3.495-1.97-5.579-1.9-2.083-5.04-2.083-3.57 0-5.72 2.014-2.13 2.014-2.46 5.671l15.19-.023zm47.22-18.148v4.56q-2.66-1.273-5.02-1.898-2.36-.625-4.56-.625-3.82 0-5.9 1.481-2.06 1.482-2.06 4.213 0 2.292 1.36 3.472 1.39 1.158 5.23 1.875l2.83.579q5.23.996 7.71 3.519 2.5 2.5 2.5 6.713 0 5.023-3.38 7.615-3.36 2.593-9.87 2.593-2.45 0-5.23-.556-2.75-.555-5.71-1.643v-4.815q2.84 1.597 5.57 2.407 2.74.811 5.37.811 4.01 0 6.19-1.574 2.17-1.575 2.17-4.491 0-2.546-1.57-3.982-1.55-1.435-5.12-2.152l-2.85-.556q-5.23-1.042-7.57-3.264-2.33-2.222-2.33-6.18 0-4.584 3.21-7.223 3.24-2.638 8.92-2.638 2.43 0 4.95.439 2.52.44 5.16 1.32zm9.19 7.5h4.26v25.926h-4.26v-25.926m0-10.093h4.26v5.394h-4.26v-5.394zm11.32 10.093h20.23v3.889l-16.02 18.634h16.02v3.403h-20.81v-3.889l16.02-18.634h-15.44v-3.403zm48.91 11.898v2.083h-19.58q.28 4.398 2.64 6.713 2.38 2.292 6.62 2.292 2.45 0 4.74-.602 2.32-.602 4.59-1.806v4.028q-2.29.972-4.7 1.482-2.41.509-4.89.509-6.2 0-9.83-3.611-3.61-3.611-3.61-9.769 0-6.365 3.42-10.092 3.45-3.75 9.28-3.75 5.23 0 8.27 3.379 3.05 3.357 3.05 9.144m-4.26-1.25q-.04-3.495-1.96-5.579-1.9-2.083-5.05-2.083-3.57 0-5.72 2.014-2.13 2.014-2.45 5.671l15.18-.023z" fill="#f8f8f2" fill-rule="evenodd" fill-opacity="1"/></svg>