<svg width="101" height="102" viewBox="0 0 101 102" fill="none" xmlns="http://www.w3.org/2000/svg"><path d="M100.279 61.277l-9.677-42.138c-.55-2.306-2.64-4.611-4.946-5.28L41.428.215C40.878 0 40.22 0 39.552 0c-1.876 0-3.847.765-5.173 1.876L2.695 31.36C.94 32.902.055 35.985.605 38.183L10.95 83.295c.55 2.306 2.64 4.624 4.946 5.28l41.36 12.76c.55.215 1.207.215 1.876.215 1.876 0 3.847-.764 5.173-1.876l33.882-31.456c1.769-1.649 2.641-4.624 2.091-6.941zm-54.228-51.05L76.41 19.58c1.206.335 1.206.884 0 1.207l-15.95 3.632c-1.206.334-2.855-.215-3.739-1.1L45.61 11.327c-.992-.98-.777-1.422.441-1.1zm18.912 54.466c.335 1.207-.441 1.876-1.648 1.542l-32.783-10.12c-1.207-.334-1.434-1.326-.55-2.198l25.09-23.333c.883-.884 1.875-.549 2.198.658l7.693 33.451zM10.951 34.981l26.63-24.754c.884-.884 2.306-.765 3.19.107l13.309 14.42c.884.884.764 2.306-.108 3.19L27.342 52.7c-.884.884-2.306.764-3.19-.108L10.843 38.183c-.884-.992-.764-2.425.108-3.202zm6.499 39.282l-7.037-30.919c-.334-1.207.215-1.434.992-.55l11.11 11.995c.885.884 1.207 2.64.885 3.847l-4.85 15.627c-.335 1.207-.885 1.207-1.1 0zm38.936 18.04L21.619 81.634c-1.206-.334-1.875-1.648-1.54-2.855l5.83-18.71c.334-1.206 1.648-1.875 2.855-1.54L63.53 69.198c1.207.334 1.876 1.648 1.541 2.855l-5.83 18.709c-.43 1.219-1.637 1.876-2.855 1.541zM87.186 67L63.983 88.564c-.884.884-1.314.55-.992-.657L67.83 72.28c.334-1.207 1.648-2.425 2.855-2.64l15.95-3.632c1.218-.323 1.433.227.55.991zm2.532-4.611l-19.14 4.396c-1.206.335-2.425-.442-2.747-1.649l-8.136-35.423c-.335-1.206.442-2.425 1.648-2.747l19.14-4.397c1.206-.335 2.425.442 2.748 1.649l8.136 35.423c.334 1.314-.43 2.52-1.65 2.748z" fill="#fff"/></svg>