<svg xmlns="http://www.w3.org/2000/svg" width="1894.469" height="322.954" viewBox="0 0 1894.469 322.954"><g id="Group_63" data-name="Group 63" transform="translate(-35.839 -60.9)"><g id="Group_3" data-name="Group 3" transform="translate(35.839 60.9)"><g id="Group_1" data-name="Group 1"><path id="Path_1" data-name="Path 1" d="M264.806 314.235H534.59l169.752 149.489v12.137H448.128l-169.49-149.432z" transform="translate(-264.806 -314.088)" fill="#626262"/><path id="Path_2" data-name="Path 2" d="M264.828 530.99h269.784L704.3 381.914v-12.1H448.089z" transform="translate(-264.766 -208.036)"/></g></g><g id="Group_62" data-name="Group 62" transform="translate(643.426 64.9)"><path id="Path_20" data-name="Path 20" d="M35.024 39.42a33.124 33.124 0 100-66.248A33.391 33.391 0 001.9 6.3a33.391 33.391 0 0033.124 33.12zm27.894 241.457V70.365H7.566v210.512zm259.326 0V132.255c0-40.969-22.228-67.12-68.427-67.12-34.432 0-60.146 16.562-73.657 32.688V70.365h-55.352v210.512h55.352V139.228c9.153-12.639 26.151-24.843 47.943-24.843 23.535 0 38.79 10.024 38.79 39.226v127.266zm176.08 0l84.554-210.512h-59.71l-54.916 146.443-54.917-146.443h-59.274l84.553 210.512zM601.184 175.4c0 67.556 48.379 110.7 112.448 110.7 32.688 0 65.376-9.589 86.733-29.2l-24.407-35.739c-13.511 13.075-36.611 20.92-56.224 20.92-35.739 0-57.1-22.228-60.582-48.814h156.467v-12.2c0-68.863-42.713-115.934-105.474-115.934-64.069.002-108.961 49.252-108.961 110.267zm108.961-66.248c36.611 0 50.558 26.586 51.865 46.635H658.279c2.615-20.917 17.434-46.632 51.866-46.632zm315.114 171.722V232.5h-98.065l96.321-122.036v-40.1H853.537v48.379h95.014l-95.014 120.729v41.405zm150.8 5.23c69.735 0 111.576-50.558 111.576-110.7 0-59.71-41.841-110.268-111.576-110.268-69.3 0-111.14 50.558-111.14 110.268.002 60.145 41.843 110.703 111.141 110.703zm0-49.25c-34.432 0-53.609-28.33-53.609-61.454 0-32.688 19.177-61.018 53.609-61.018s54.044 28.33 54.044 61.018c-.003 33.127-19.611 61.457-54.043 61.457z" transform="translate(-.754 27.975)" fill="#121212"/><circle id="Ellipse_10" data-name="Ellipse 10" cx="34.409" cy="34.409" r="34.409"/></g></g></svg>