<svg width="100" height="100" version="1.1" viewBox="0 0 100 100" xmlns="http://www.w3.org/2000/svg"><g fill="#fff"><path d="M70.68 50.28c1.137 8.674 2.193 16.82 3.288 24.963.131.974-.079 1.319-1.2 1.373-6.761.319-6.756.352-9.2-5.633-1.017-2.492-2.009-4.992-3.092-7.458a2.15 2.057 0 01.423-2.53c3.202-3.403 6.304-6.891 9.782-10.716zm-39.732 7.27c.967 4.777 1.924 9.265 2.764 13.774.26 1.396 1.432 3.17.428 4.112-.861.81-2.775-.337-4.245-.284-3.906.142-5.724-1.614-6.36-5.302-.371-2.164-.538-3.668 1.334-5.343a76.306 73.01 0 006.08-6.957z"/><path d="M41.977 66.263c0-2.68-.044-5.363.021-8.044.025-1.053-.282-1.409-1.45-1.445q-11.965-.38-23.927-.919c-1.252-.056-1.747.284-2.012 1.469-1.23 5.486-2.627 10.94-3.834 16.427-.333 1.543-.951 2.115-2.638 1.937a35.132 33.614 0 00-5.631-.12c-1.415.069-1.684-.494-1.667-1.676.122-8.238.302-16.475.218-24.712a11.69 11.185 0 012.51-6.988c4.408-5.866 8.667-11.84 12.938-17.798a2.235 2.139 0 012.442-1.073q23.908 2.448 47.84 4.743a6.098 5.834 0 012.772 1.014c9.491 5.901 18.967 11.825 28.504 17.654 1.423.871 1.467 1.367.093 2.152a2.765 2.646 0 00-.782.598c-2.748 3.397-5.964 3.242-9.856 1.743-4.706-1.813-9.668-3.017-14.502-4.56a3.025 2.895 0 00-2.834.283q-6.657 3.957-13.377 7.815a2.812 2.69 0 00-1.467 2.084c-.983 5.662-2.107 11.303-3.01 16.976-.26 1.627-.865 2.142-2.555 2.029a56.073 53.65 0 00-6.445-.01c-1.273.055-1.598-.376-1.563-1.534.083-2.68.026-5.365.026-8.048z"/></g></svg>