<svg width="100" height="100" version="1.1" viewBox="0 0 100 100" xmlns="http://www.w3.org/2000/svg"><path d="M8.375 4.385a5.016 5.016 0 00-5.027 5.027v81.182a5.016 5.016 0 005.027 5.027h83.256a5.016 5.016 0 005.027-5.027V9.412a5.016 5.016 0 00-5.027-5.027H8.375zM42.918 22.24c.458-.044.983.174 1.467.494a4.618 4.618 0 011.387 1.437c.025.021.05.043.074.067a.795.795 0 01.234.555 4.443 4.443 0 01-.56 4.62c-.742.894-1.673 1.175-2.522 1.018a.935.935 0 01-.373.147c-1.592.495-3.434-.839-3.86-2.543-.25-1.003-.34-2.594.294-3.494a1.377 1.377 0 01.32-.327 3.444 3.444 0 01.187-1.017c.302-.823 1-.818 1.653-.563a2.104 2.104 0 01.351-.027c.185.002.395.013.617.031.206-.25.456-.372.73-.398zm32.738 0c.459-.044.984.174 1.469.494a4.637 4.637 0 011.389 1.437l.076.067a.807.807 0 01.246.555 4.443 4.443 0 01-.58 4.62c-.742.894-1.669 1.175-2.52 1.018a.935.935 0 01-.373.147c-1.595.495-3.434-.839-3.86-2.543-.25-1.003-.342-2.594.292-3.494a1.422 1.422 0 01.32-.327 3.444 3.444 0 01.19-1.017c.301-.823 1-.818 1.652-.563a2.125 2.125 0 01.351-.027c.183.002.393.013.616.031.205-.25.457-.372.732-.398zm-50.842.627c.87-.051 1.79.232 2.518.75a4.143 4.143 0 01.894.865l.233.148c1.33.94 1.22 2.609.293 3.813l-.022.023c-.538 1.251-1.739 2.194-3.478 2.147-1.174-.03-2.376-.323-3.19-1.043a2.806 2.806 0 01-1.29-2.402.503.503 0 01.354-.487 3.975 3.975 0 011.32-2.306 3.69 3.69 0 01.147-.25c.53-.822 1.35-1.207 2.22-1.258zm33.729 0c.87-.051 1.79.234 2.518.752a4.143 4.143 0 01.892.865l.235.146c1.328.94 1.22 2.609.287 3.813l-.022.023c-.538 1.251-1.739 2.194-3.478 2.147-1.177-.03-2.378-.321-3.19-1.041a2.806 2.806 0 01-1.29-2.404.507.507 0 01.36-.487 3.987 3.987 0 011.319-2.306c.047-.087.095-.17.146-.25.53-.822 1.352-1.207 2.223-1.258zm1.57 1.918c.045.051.091.106.131.162h.045a.507.507 0 01.346.297 2.338 2.338 0 01.877.486 3.086 3.086 0 00-.235-.402c-.028-.04-.055-.08-.086-.117h-.003a4.61 4.61 0 00-1.075-.426zm-33.73.002a1.716 1.716 0 01.131.16h.045a.507.507 0 01.344.295 2.308 2.308 0 01.877.486 3.086 3.086 0 00-.235-.402 2.104 2.104 0 00-.086-.115 4.61 4.61 0 00-1.076-.424zm16.023.463a7.015 7.015 0 00-.017 1.128c.292-.17.312-.657.242-1.003a.673.673 0 00-.078-.055 1.17 1.17 0 00-.147-.07zm32.754 0a7.293 7.293 0 00-.02 1.128c.293-.17.315-.657.247-1.003-.028-.02-.052-.039-.08-.055a1.192 1.192 0 00-.147-.07zm-15.926.84l-.33.099c.01.054.025.109.04.16a.528.528 0 01.683.106 1.637 1.637 0 00-.014-.215 1.195 1.195 0 01-.29-.094.437.437 0 01-.089-.057zm-33.727.007l-.332.102c.01.054.027.107.041.158a.528.528 0 01.682.096 1.637 1.637 0 00-.014-.215 1.228 1.228 0 01-.289-.094.367.367 0 01-.088-.047zm19.994.434l-.04.066a1.459 1.459 0 01-.505.912.068.068 0 000 .02.449.449 0 01-.154.455 5.31 5.31 0 01-.111.252 7.368 7.368 0 01-.576 1.096 2.203 2.203 0 00.845-.79l.004-.011a3.507 3.507 0 00.537-2zm32.754 0l-.04.066a1.459 1.459 0 01-.505.912v.02a.444.444 0 01-.154.455 5.31 5.31 0 01-.111.252 7.152 7.152 0 01-.574 1.096 2.198 2.198 0 00.841-.79l.006-.011a3.507 3.507 0 00.537-2zm-38.69.144c-.003.171.003.345.017.516.07.712.307 1.461.853 1.973a2.387 2.387 0 00.332.252 3.921 3.921 0 01-.554-1.063 9.46 9.46 0 01-.649-1.678zm32.75 0c0 .167.005.337.02.504.069.716.308 1.47.852 1.985a2.277 2.277 0 00.334.252 3.991 3.991 0 01-.556-1.063 9.645 9.645 0 01-.65-1.678zm-45.337.569a1.655 1.655 0 01-.111.234c.044.089.092.177.139.264a.935.935 0 00-.028-.498zm33.73 0a1.934 1.934 0 01-.112.234l.135.264a.91.91 0 00-.024-.498zm-35.319 1.564a2.385 2.385 0 01-.7.143l-.048.062a1.464 1.464 0 00.268.022 2.104 2.104 0 00.619-.074 1.961 1.961 0 01-.139-.153zm33.73 0a2.385 2.385 0 01-.7.143l-.048.064a1.464 1.464 0 00.268.02 2.072 2.072 0 00.617-.074 2.77 2.77 0 01-.137-.153zm-16.752 8.836a4.108 4.108 0 014.088 4.121v32.97a4.096 4.096 0 11-8.183 0v-32.97a4.108 4.108 0 014.095-4.12zm32.762 0a4.108 4.108 0 014.098 4.121v32.97a4.096 4.096 0 11-8.184 0v-32.97a4.108 4.108 0 014.086-4.12zm-50.314.4c.871-.05 1.79.233 2.518.75a4.143 4.143 0 01.894.866c.085.049.16.099.233.15 1.33.938 1.221 2.607.293 3.81l-.022.024c-.537 1.251-1.739 2.193-3.478 2.147-1.174-.03-2.376-.32-3.19-1.043a2.806 2.806 0 01-1.289-2.405.503.503 0 01.354-.486 3.975 3.975 0 011.32-2.305c.047-.086.095-.17.147-.25.53-.82 1.35-1.206 2.22-1.258zm33.73 0c.87-.05 1.79.233 2.517.75a4.143 4.143 0 01.892.866c.085.049.162.099.235.15 1.328.938 1.22 2.607.287 3.81l-.02.024c-.537 1.251-1.74 2.193-3.48 2.147-1.176-.03-2.378-.32-3.19-1.043a2.806 2.806 0 01-1.29-2.405.507.507 0 01.36-.486 3.987 3.987 0 011.32-2.305 3.69 3.69 0 01.146-.25c.53-.82 1.352-1.206 2.222-1.258zm1.568 1.928c.044.054.09.109.13.162h.045a.507.507 0 01.344.295 2.376 2.376 0 01.877.487 3.086 3.086 0 00-.234-.403c-.028-.04-.056-.08-.086-.117v-.012a4.61 4.61 0 00-1.076-.412zm-33.73.012c.047.054.092.108.132.162h.044a.507.507 0 01.344.295 2.338 2.338 0 01.877.486 3.086 3.086 0 00-.234-.402c-.028-.04-.056-.08-.086-.117v-.024a4.61 4.61 0 00-1.076-.4zm32.853 1.29l-.33.102c.009.054.025.107.039.159a.528.528 0 01.683.107 1.67 1.67 0 00-.013-.217 1.195 1.195 0 01-.291-.093v.011a.437.437 0 01-.088-.068zm-33.727.013l-.332.101c.009.054.027.107.04.158a.528.528 0 01.682.108 1.67 1.67 0 00-.013-.217 1.228 1.228 0 01-.29-.094.367.367 0 01-.087-.056zm1.47 1.134a1.744 1.744 0 01-.11.233c.044.089.091.179.138.267a.935.935 0 00-.028-.5zm33.73 0a2.065 2.065 0 01-.112.235l.135.265a.907.907 0 00-.024-.5zm-1.592 1.57a2.39 2.39 0 01-.702.147l-.046.06a1.71 1.71 0 00.265.024 2.158 2.158 0 00.617-.078 2.09 2.09 0 01-.134-.152zm-33.727.012a2.39 2.39 0 01-.702.145l-.046.063a1.71 1.71 0 00.267.023 2.184 2.184 0 00.62-.078 1.686 1.686 0 01-.14-.153zm.595 10.123a4.108 4.108 0 014.09 4.12V74.73a4.096 4.096 0 11-8.183 0V58.246a4.108 4.108 0 014.093-4.12zm32.766 0a4.108 4.108 0 014.086 4.12V74.73a4.096 4.096 0 11-8.183 0V58.246a4.108 4.108 0 014.097-4.12z" fill="#fff"/></svg>