<svg version="1.1" viewBox="0 0 456 456" xmlns="http://www.w3.org/2000/svg"><rect width="456" height="456" fill="#512BD4"/><path d="M81.274 291.33c-3.224 0-5.965-1.074-8.222-3.223-2.257-2.204-3.385-4.821-3.385-7.851 0-3.086 1.128-5.73 3.385-7.934s4.998-3.306 8.222-3.306c3.278 0 6.045 1.102 8.303 3.306 2.31 2.204 3.466 4.848 3.466 7.934 0 3.03-1.156 5.647-3.467 7.851-2.256 2.149-5.024 3.223-8.302 3.223zm128.896-1.81h-20.958l-55.215-87.109a38.977 38.977 0 01-3.466-6.86h-.484c.43 2.535.645 7.962.645 16.281v77.688h-18.54V171h22.328l53.362 85.043c2.257 3.527 3.708 5.951 4.353 7.273h.322c-.537-3.14-.806-8.457-.806-15.951V171h18.459v118.52zm90.28 0h-64.888V171h62.309v16.695h-43.124v33.554h39.739v16.612h-39.739v35.042h45.703v16.612zm92.22-101.82h-33.21v101.82h-19.185V187.7h-33.129v-16.695h85.524V187.7z" fill="#fff"/></svg>