<svg fill="none" version="1.1" width="155" height="36" viewBox="0 0 155 36" xmlns="http://www.w3.org/2000/svg"><g clip-path="url(#clip0_6142_49959)" fill="#E2401B"><path d="M31.935 11.422a7.868 7.868 0 00-6.079 2.665c-1.599 1.764-2.412 4.095-2.412 6.942 0 2.847.839 5.04 2.494 6.7s3.811 2.531 6.413 2.531a9.68 9.68 0 004.579-1.031c1.291-.685 2.182-1.392 2.653-2.103l.019-.022-2.06-3.875v-.023h-.297v.023a5.726 5.726 0 01-1.996 1.924 5.444 5.444 0 01-2.887.845 4.031 4.031 0 01-2.847-1.094 3.604 3.604 0 01-1.169-2.695h12.12l.034-1.329c0-2.78-.824-5.073-2.446-6.819a8.051 8.051 0 00-6.12-2.639zm3.785 7.474h-7.31a4.844 4.844 0 011.161-2.189 3.191 3.191 0 012.49-1.023 3.33 3.33 0 012.557 1.06 3.93 3.93 0 011.102 2.152zm19.308-5.237a4.933 4.933 0 00-1.996-1.623 6.33 6.33 0 00-2.724-.614 7.403 7.403 0 00-5.938 2.71c-1.484 1.798-2.249 4.094-2.249 6.8 0 2.706.724 4.97 2.153 6.7 1.428 1.73 3.425 2.606 5.937 2.606a6.716 6.716 0 003.25-.745 5.463 5.463 0 002.116-1.999h.034l.437 2.334v.041h3.57V5.973h-4.59v7.686zM54 17.177a5.878 5.878 0 011.188 3.755 5.445 5.445 0 01-1.203 3.64 3.974 3.974 0 01-3.165 1.415 3.612 3.612 0 01-3.066-1.44 5.905 5.905 0 01-1.076-3.615 6.31 6.31 0 011.114-3.633 3.507 3.507 0 013.031-1.615A3.868 3.868 0 0154 17.177zm17.705-5.755a6.718 6.718 0 00-3.414.808 5.09 5.09 0 00-1.986 1.95h-.03l-.285-2.375h-3.733v23.993h4.568v-7.924h.056a5.159 5.159 0 001.989 1.697c.866.448 1.827.68 2.802.677a6.725 6.725 0 005.566-2.605c1.366-1.73 2.056-3.986 2.056-6.7s-.705-5.003-2.104-6.797a6.662 6.662 0 00-5.485-2.725zm3.02 9.51a5.796 5.796 0 01-1.113 3.63 3.494 3.494 0 01-2.876 1.425 3.668 3.668 0 01-2.968-1.348c-.743-.897-1.114-2.144-1.114-3.722s.371-2.9 1.114-3.837a3.59 3.59 0 012.968-1.411 3.388 3.388 0 012.906 1.522 6.316 6.316 0 011.084 3.741zm18.927-7.686c-1.366-1.21-3.147-1.824-5.292-1.824a9.358 9.358 0 00-4.275.972 8.543 8.543 0 00-3.176 2.761v.027l2.226 3.722v.022h.29V18.9a6.657 6.657 0 012.1-2.46 4.77 4.77 0 012.765-.905 3.62 3.62 0 012.089.503 1.54 1.54 0 01.697 1.306c0 .476-.281.834-.864 1.094a25.786 25.786 0 01-3.967 1.069c-1.997.424-3.448 1.116-4.316 2.077a5.187 5.187 0 00-1.31 3.629c0 1.567.479 2.81 1.429 3.703.95.894 2.36 1.344 4.208 1.344 2.46 0 4.227-.927 5.255-2.758h.033l.46 2.375h3.674v-11.48c.019-2.207-.675-3.937-2.026-5.15zm-3.711 12.045a4.835 4.835 0 01-2.869.856c-1.254 0-1.855-.446-1.855-1.362a1.444 1.444 0 01.523-1.117 4.78 4.78 0 011.922-.774c2.049-.462 3.184-.934 3.474-1.448v1.861c-.011.745-.408 1.422-1.195 1.984zm17.599-13.869a6.529 6.529 0 00-3.058.726 5.756 5.756 0 00-2.226 2.032h-.03l-.289-2.375h-3.719v18.06h4.572V20.74a5.93 5.93 0 011.061-3.644 3.526 3.526 0 012.969-1.41c1.986-.001 2.991 1.171 2.991 3.483v10.698h4.569V17.724a6.166 6.166 0 00-1.771-4.523c-1.146-1.18-2.872-1.779-5.069-1.779zM129 13.659a4.932 4.932 0 00-1.996-1.623 6.344 6.344 0 00-2.724-.614c-1.131-.034-2.254.193-3.283.663s-1.937 1.17-2.655 2.047c-1.484 1.798-2.249 4.094-2.249 6.8 0 2.706.743 4.97 2.153 6.7s3.425 2.606 5.937 2.606a6.715 6.715 0 003.251-.745 5.485 5.485 0 002.115-1.999h.03l.442 2.334v.041h3.57V5.973H129v7.686zm-1.031 3.518a5.862 5.862 0 011.191 3.755 5.43 5.43 0 01-1.206 3.64 3.961 3.961 0 01-3.162 1.415 3.614 3.614 0 01-3.065-1.44 5.898 5.898 0 01-1.08-3.615 6.311 6.311 0 011.113-3.633 3.501 3.501 0 013.032-1.615 3.858 3.858 0 013.177 1.493zm20.601-3.931c-1.369-1.21-3.147-1.824-5.292-1.824a9.348 9.348 0 00-4.26.972 8.502 8.502 0 00-3.177 2.761l-.018.027 2.226 3.722v.022h.286V18.9a6.657 6.657 0 012.097-2.46 4.78 4.78 0 012.768-.905 3.63 3.63 0 012.09.503 1.544 1.544 0 01.694 1.306c0 .476-.282.834-.861 1.094a25.802 25.802 0 01-3.967 1.069c-1.997.424-3.452 1.116-4.32 2.077a5.217 5.217 0 00-1.31 3.629c0 1.567.482 2.81 1.429 3.703.946.894 2.364 1.344 4.208 1.344 2.464 0 4.231-.927 5.258-2.758h.034l.46 2.375h3.674v-11.48c.041-2.207-.653-3.937-2.019-5.15zm-3.711 12.045a4.841 4.841 0 01-2.868.856c-1.255 0-1.856-.446-1.856-1.362a1.42 1.42 0 01.523-1.117 4.737 4.737 0 011.923-.774c2.044-.462 3.184-.934 3.473-1.448v1.861c.004.745-.397 1.422-1.195 1.984zM18.438 22.745a20.116 20.116 0 01-.935-1.943 8.282 8.282 0 002.724-1.924c1.202-1.18 1.803-2.844 1.803-4.995 0-2.494-.814-4.432-2.442-5.815a8.775 8.775 0 00-5.867-2.073H3.275v23.822H8.36v-8.56h1.934l1.18-.03c.438 1.068 1.414 3.416 1.982 4.667l4.983-3.149zM8.359 10.748h4.68c2.35 0 3.525.952 3.525 2.855 0 2.045-1.311 3.066-3.934 3.063H8.36v-5.918zm15.333 17.357l-1.332-.945-5.511 3.58 1.93.752 3.362-.007 2.438-1.742-.887-1.638zm-4.408-3.979l-5.11 3.227 1.436 2.256 5.437-3.436-1.763-2.047z"/></g><defs><clipPath id="clip0_6142_49959"><rect transform="translate(3.275 5.969)" width="147.36" height="29.83" fill="#fff"/></clipPath></defs></svg>