<svg fill="none" height="49" viewBox="0 0 68 48" xmlns="http://www.w3.org/2000/svg"><path d="M38.48 22.295h6.922v-6.263H38.48v6.263zm-8.24 0h6.922v-6.263H30.24v6.263zm-8.074 0h6.921v-6.263h-6.921v6.263zm-8.075 0h6.756v-6.263h-6.756v6.263zm-8.24 0h6.921v-6.263h-6.92v6.263zm8.24-7.581h6.756V8.452h-6.756v6.262zm8.075 0h6.921V8.452h-6.921v6.262zm8.075 0h6.92V8.452h-6.92v6.262zm0-7.58h6.92V.87h-6.92v6.263zm37.243 12.36s-2.966-2.802-9.064-1.814c-.659-4.779-5.767-7.58-5.767-7.58s-4.78 5.768-1.319 12.195c-.989.494-2.637 1.153-5.108 1.153H.907C.083 26.58.083 47.343 22.825 47.343c16.314 0 28.51-7.58 34.277-21.423 8.57.66 10.382-6.427 10.382-6.427z" fill="#F35183"/></svg>