<svg fill="none" height="49" viewBox="0 0 41 48" xmlns="http://www.w3.org/2000/svg"><path d="M29.967 30.681a8.96 8.96 0 011.951.86c.132.074.259.15.383.215.317-.029.834-.138 1.26-.226a11.496 11.496 0 012.332-.324c.27 0 .54.025.807.071.038-.707.025-1.416-.042-2.121a16.69 16.69 0 00-3.677-8.63c-1.875-2.063-4.764-5.026-4.764-7.277V7.002a6.923 6.923 0 00-13.844 0V16.1c-.299 1.575-1.088 1.726-2.325 3.452a20.596 20.596 0 00-2.89 5.333c-.578 1.733-1.8 3.562-2.36 5.003.146-.047.296-.085.447-.114.225-.035.452-.053.679-.054.798.007 1.58.222 2.27.623a32.984 32.984 0 014.171-9.735 8.986 8.986 0 001.39-5.814c.726.577 1.451 2.375 3.425 2.375 1.974 0 3.302-1.551 4.402-2.101.28-.14.538-.325.76-.546l.19.045a93.377 93.377 0 014.577 9.792 22.12 22.12 0 01.858 6.322zM18.709 10.588a4.455 4.455 0 00-1.076.37 4.97 4.97 0 00-.747.43 2.648 2.648 0 01-.681-1.644c-.097-1.157.408-2.143 1.128-2.203.72-.06 1.38.828 1.478 1.985.028.357-.006.716-.102 1.062zm4.782-.832a3.195 3.195 0 01-.556 1.6 9.236 9.236 0 00-.37-.185l-.1-.047a6.287 6.287 0 00-.5-.207h-.02a6.467 6.467 0 00-1.344-.333 3.514 3.514 0 01-.076-1.07c.109-1.303.864-2.303 1.682-2.234.82.068 1.394 1.168 1.285 2.476h-.001zM10.26 34.52c-.676-1.025-1.603-1.943-2.527-1.793-.925.15-1.575 1.818-2.176 2.319-.6.5-2.902.05-3.601.8-.7.75-.051 3.426-.175 4.702-.124 1.276-.801 1.951-.876 2.55-.074.6.124 1.276 1.251 1.677 1.127.4 5.327 1.45 6.778 1.775 1.45.324 4.852 2.476 6.452-.124 1.25-2.032.426-3.903-.95-5.478a67.772 67.772 0 01-4.177-6.428zm9.946 8.745c-.464 0-.896-.026-1.327-.068a6.37 6.37 0 01.04 2.107 27.899 27.899 0 015.147.184 9.152 9.152 0 01.163-3.238 8.34 8.34 0 01-4.023 1.015zm19.615-3.868a4.795 4.795 0 01-2.426-2.501c-.224-1-.024-1.925-.8-2.526-.775-.6-3.305.544-4.8.359-1.045-.132-2.608-1.77-3.675-1.092-.634.403-.299 2.008-.278 2.86a45.815 45.815 0 01-.377 5.101c-.174.976-1.525 4.053 1.102 5.802 1.815 1.21 3.852-.049 4.902-1.074a14.664 14.664 0 013.727-2.776 9.197 9.197 0 003.326-2.101c.4-.676.35-1.451-.7-2.052z" fill="#F35183"/></svg>