<svg fill="none" height="49" viewBox="0 0 41 49" xmlns="http://www.w3.org/2000/svg"><path d="M40.502 36.003c-1.084 2.4-1.601 3.472-2.998 5.594-1.945 2.962-4.689 6.652-8.09 6.683-3.02.029-3.797-1.965-7.898-1.941-4.101.023-4.956 1.977-7.976 1.949-3.401-.03-6-3.362-7.947-6.327C.15 33.676-.418 23.953 2.94 18.785c2.385-3.675 6.15-5.823 9.688-5.823 3.604 0 5.87 1.976 8.85 1.976 2.89 0 4.65-1.979 8.817-1.979 3.15 0 6.486 1.715 8.864 4.677-7.791 4.269-6.525 15.392 1.344 18.367zM27.572 7.775c1.515-1.943 2.662-4.684 2.245-7.488-2.473.169-5.364 1.743-7.052 3.793-1.533 1.86-2.799 4.62-2.306 7.303 2.697.085 5.49-1.527 7.113-3.608z" fill="#F35183"/></svg>