<svg fill="none" height="49" viewBox="0 0 41 55" xmlns="http://www.w3.org/2000/svg"><path d="M13.613 42.106s-2.047 1.19 1.456 1.593c4.245.484 6.414.415 11.09-.47 0 0 1.23.77 2.948 1.438-10.485 4.494-23.73-.26-15.494-2.561zm-1.281-5.864s-2.296 1.7 1.21 2.062c4.534.468 8.114.506 14.31-.687 0 0 .856.869 2.204 1.344-12.677 3.707-26.796.292-17.724-2.719zm10.8-9.947c2.584 2.975-.679 5.651-.679 5.651s6.56-3.386 3.548-7.627c-2.814-3.954-4.972-5.919 6.71-12.693 0 0-18.336 4.579-9.579 14.67z" fill="#F35183"/><path d="M36.999 46.443s1.514 1.248-1.668 2.213c-6.052 1.834-25.189 2.387-30.505.073-1.91-.83 1.673-1.985 2.8-2.227 1.176-.255 1.848-.207 1.848-.207-2.125-1.497-13.737 2.94-5.898 4.21 21.377 3.467 38.968-1.56 33.423-4.062zM14.597 30.167s-9.734 2.312-3.447 3.151c2.654.356 7.946.275 12.875-.138 4.029-.34 8.074-1.062 8.074-1.062s-1.42.608-2.448 1.31c-9.885 2.6-28.98 1.39-23.483-1.269 4.649-2.247 8.429-1.992 8.429-1.992zm17.462 9.76c10.048-5.221 5.402-10.24 2.16-9.563-.796.165-1.15.309-1.15.309s.295-.463.859-.663c6.415-2.255 11.349 6.652-2.071 10.18 0 0 .155-.139.202-.263zM26 .687s5.566 5.566-5.277 14.127c-8.695 6.866-1.983 10.781-.004 15.255-5.076-4.58-8.8-8.61-6.301-12.363C18.085 12.2 28.246 9.53 26 .686z" fill="#F35183"/><path d="M15.584 54.076c9.646.617 24.457-.343 24.807-4.906 0 0-.674 1.73-7.97 3.104-8.233 1.549-18.386 1.368-24.409.375 0 0 1.233 1.02 7.572 1.427z" fill="#F35183"/></svg>