<svg xmlns="http://www.w3.org/2000/svg" fill="none" viewBox="0 0 506 474"><rect width="359" height="400" x=".152" y=".036" fill="#3D3F4D" rx="16"/><rect width="81" height="33" x="37.152" y="22.544" fill="#fff" fill-opacity=".05" rx="7"/><path fill="#85F689" d="M75.002 44.544h1.845v-3.729h1.879l1.999 3.729h2.058l-2.203-4.037c1.199-.482 1.83-1.506 1.83-2.889 0-1.944-1.253-3.256-3.59-3.256h-3.818v10.182zm1.845-5.26v-3.38h1.69c1.377 0 1.994.63 1.994 1.714s-.617 1.666-1.984 1.666h-1.7zm12.048 2.048c0 1.163-.83 1.74-1.625 1.74-.865 0-1.442-.611-1.442-1.58v-4.585h-1.8v4.863c0 1.834 1.044 2.873 2.546 2.873 1.143 0 1.949-.601 2.297-1.456h.08v1.357h1.744v-7.636h-1.8v4.424zm5.45-1.263c0-1.103.667-1.74 1.616-1.74.93 0 1.487.612 1.487 1.631v4.584h1.8v-4.862c.004-1.83-1.04-2.874-2.616-2.874-1.143 0-1.928.547-2.276 1.397h-.09v-1.298h-1.72v7.637h1.8v-4.475zm-38.718-6.075a.444.444 0 00-.375-.038c-.15.075-.225.188-.225.338v10.5c0 .15.075.262.188.337.075.038.112.038.187.038s.15-.038.225-.075l7.5-5.25a.341.341 0 00.15-.3c0-.113-.075-.225-.15-.3l-7.5-5.25z"/><path fill="#FF7CCA" d="M79.432 92.275c-1.013 0-1.893-.153-2.64-.46-.746-.32-1.326-.78-1.74-1.38l1.36-1.2c.734.934 1.794 1.4 3.18 1.4.787 0 1.4-.14 1.84-.42.454-.28.68-.68.68-1.2 0-.4-.126-.673-.38-.82-.24-.16-.546-.273-.92-.34l-1.5-.26a7.636 7.636 0 01-1.12-.28 3.345 3.345 0 01-.92-.48 2.59 2.59 0 01-.66-.8c-.16-.32-.24-.713-.24-1.18 0-.56.114-1.046.34-1.46.24-.426.56-.78.96-1.06a4.169 4.169 0 011.44-.64 6.855 6.855 0 011.78-.22c.92 0 1.714.14 2.38.42.68.267 1.214.634 1.6 1.1l-1.32 1.26c-.2-.28-.526-.54-.98-.78-.453-.24-1.053-.36-1.8-.36-.746 0-1.32.134-1.72.4-.386.267-.58.64-.58 1.12 0 .414.127.694.38.84.267.147.587.254.96.32l1.5.28c.374.067.734.16 1.08.28.347.107.654.26.92.46.28.187.5.44.66.76.174.307.26.694.26 1.16 0 .547-.113 1.04-.34 1.48a3.14 3.14 0 01-.98 1.12c-.413.307-.92.54-1.52.7-.586.16-1.24.24-1.96.24zm12.292 0c-1.413 0-2.48-.373-3.2-1.12-.706-.746-1.06-1.846-1.06-3.3 0-.946.14-1.806.42-2.58a6.205 6.205 0 011.2-2.02 5.438 5.438 0 011.84-1.3c.72-.32 1.514-.48 2.38-.48.52 0 1 .06 1.44.18.44.12.82.3 1.14.54.334.227.594.52.78.88.187.347.28.747.28 1.2 0 .387-.086.78-.26 1.18-.16.4-.5.767-1.02 1.1-.52.334-1.26.614-2.22.84-.96.227-2.226.367-3.8.42-.013.094-.02.18-.02.26v.14c0 .32.034.627.1.92.08.28.207.527.38.74.174.214.407.38.7.5.307.12.694.18 1.16.18.334 0 .634-.033.9-.1.28-.08.54-.2.78-.36.254-.16.5-.366.74-.62.254-.266.52-.593.8-.98l1.4.9c-.28.44-.58.84-.9 1.2a5.38 5.38 0 01-1.08.9c-.386.24-.82.427-1.3.56a5.26 5.26 0 01-1.58.22zm1.38-9.18c-.88 0-1.6.26-2.16.78s-.926 1.314-1.1 2.38l-.04.22c1.12-.04 2.007-.126 2.66-.26.667-.146 1.174-.313 1.52-.5.36-.2.587-.413.68-.64.107-.226.16-.446.16-.66 0-.386-.133-.7-.4-.94-.253-.253-.693-.38-1.32-.38zm10.193 9.18c-.667 0-1.154-.166-1.46-.5-.294-.333-.44-.78-.44-1.34 0-.266.04-.613.12-1.04l2-10.42h-3.4l.3-1.74h5.58l-2.54 13.16.42.14 3.56-3.22 1.2 1.1-1.72 1.68c-.427.414-.807.76-1.14 1.04-.334.28-.64.507-.92.68-.28.16-.547.274-.8.34-.254.08-.507.12-.76.12zm12.412 0c-1.413 0-2.48-.373-3.2-1.12-.707-.746-1.06-1.846-1.06-3.3 0-.946.14-1.806.42-2.58a6.191 6.191 0 011.2-2.02 5.434 5.434 0 011.84-1.3c.72-.32 1.513-.48 2.38-.48.52 0 1 .06 1.44.18.44.12.82.3 1.14.54.333.227.593.52.78.88.187.347.28.747.28 1.2 0 .387-.087.78-.26 1.18-.16.4-.5.767-1.02 1.1-.52.334-1.26.614-2.22.84-.96.227-2.227.367-3.8.42-.013.094-.02.18-.02.26v.14c0 .32.033.627.1.92.08.28.207.527.38.74.173.214.407.38.7.5.307.12.693.18 1.16.18.333 0 .633-.033.9-.1.28-.08.54-.2.78-.36.253-.16.5-.366.74-.62.253-.266.52-.593.8-.98l1.4.9c-.28.44-.58.84-.9 1.2a5.38 5.38 0 01-1.08.9c-.387.24-.82.427-1.3.56a5.26 5.26 0 01-1.58.22zm1.38-9.18c-.88 0-1.6.26-2.16.78s-.927 1.314-1.1 2.38l-.04.22c1.12-.04 2.007-.126 2.66-.26.667-.146 1.173-.313 1.52-.5.36-.2.587-.413.68-.64a1.54 1.54 0 00.16-.66c0-.386-.133-.7-.4-.94-.253-.253-.693-.38-1.32-.38zm10.452 9.18c-1.333 0-2.347-.393-3.04-1.18-.693-.786-1.04-1.846-1.04-3.18 0-.933.133-1.793.4-2.58.267-.8.64-1.48 1.12-2.04a5.297 5.297 0 011.74-1.34c.68-.32 1.427-.48 2.24-.48.56 0 1.053.067 1.48.2.427.12.793.3 1.1.54.307.227.553.494.74.8.2.307.347.64.44 1l-1.78.78c-.173-.56-.427-.953-.76-1.18-.333-.24-.807-.36-1.42-.36-.733 0-1.353.24-1.86.72-.493.467-.82 1.18-.98 2.14l-.2 1.2a9.233 9.233 0 00-.06.5 5 5 0 00-.02.44c0 .747.187 1.307.56 1.68.387.374.94.56 1.66.56.213 0 .427-.02.64-.06.227-.053.46-.16.7-.32.253-.173.533-.413.84-.72.307-.32.653-.746 1.04-1.28l1.42.88a12.509 12.509 0 01-1.02 1.42c-.347.4-.713.74-1.1 1.02-.387.28-.813.487-1.28.62a5.19 5.19 0 01-1.56.22zm11.672 0c-.64 0-1.12-.173-1.44-.52-.32-.346-.48-.82-.48-1.42 0-.12.014-.26.04-.42.027-.173.054-.353.08-.54l.98-5.92h-2.84l.28-1.74h1.92c.387 0 .674-.073.86-.22.187-.16.314-.433.38-.82l.44-2.6h2l-.6 3.64h4.16l-.28 1.74h-4.18l-1.14 6.84.4.2 3.92-2.78 1.06 1.28-1.82 1.36c-.453.347-.853.64-1.2.88a8.91 8.91 0 01-.94.6 4.271 4.271 0 01-.82.32c-.253.08-.513.12-.78.12z"/><path fill="#909194" d="M38.912 92.035v-1.86h3.92v-10.46h-.16l-3.24 3.46-1.38-1.24 3.56-3.86h3.46v12.1h3.38v1.86h-9.54z"/><path fill="#A0E7FA" d="M79.252 129.276c-.64 0-1.12-.174-1.44-.52-.32-.347-.48-.82-.48-1.42 0-.12.014-.26.04-.42.027-.174.054-.354.08-.54l.98-5.92h-2.84l.28-1.74h1.92c.387 0 .674-.074.86-.22.187-.16.314-.434.38-.82l.44-2.6h2l-.6 3.64h4.16l-.28 1.74h-4.18l-1.14 6.84.4.2 3.92-2.78 1.06 1.28-1.82 1.36c-.453.346-.853.64-1.2.88a8.91 8.91 0 01-.94.6 4.368 4.368 0 01-.82.32c-.253.08-.513.12-.78.12zm13.693-12.46c-.507 0-.86-.094-1.06-.28a.96.96 0 01-.3-.7c0-.08.006-.174.02-.28.013-.107.033-.22.06-.34.066-.36.213-.64.44-.84.24-.214.613-.32 1.12-.32.506 0 .86.1 1.06.3.2.186.3.413.3.68 0 .08-.007.173-.02.28a3.69 3.69 0 01-.06.34c-.067.36-.22.646-.46.86-.227.2-.594.3-1.1.3zm-1.16 12.46c-.64 0-1.12-.167-1.44-.5-.32-.334-.48-.767-.48-1.3 0-.174.013-.347.04-.52.026-.174.06-.38.1-.62l1.14-5.88h-3.48l.28-1.74h5.66l-1.68 8.66.4.16 3.46-3.18 1.22 1.1-1.56 1.56c-.414.413-.787.766-1.12 1.06-.334.28-.64.513-.92.7-.28.173-.554.3-.82.38-.254.08-.52.12-.8.12zm6.392-.24l1.72-10.32h1.82l-.28 1.7h.1c.24-.56.533-1.02.88-1.38.36-.374.82-.56 1.38-.56.56 0 .973.18 1.24.54.28.36.393.846.34 1.46h.08c.253-.6.573-1.08.96-1.44.4-.374.906-.56 1.52-.56.586 0 1.026.166 1.32.5.306.333.46.82.46 1.46 0 .2-.014.446-.04.74-.027.28-.06.54-.1.78l-1.18 7.08h-1.82l1.14-6.82a49.9 49.9 0 00.08-.6c.026-.214.04-.387.04-.52 0-.654-.26-.98-.78-.98-.454 0-.834.246-1.14.74-.147.24-.28.506-.4.8-.12.28-.207.573-.26.88l-1.08 6.5h-1.82l1.16-6.92c.026-.187.046-.36.06-.52.026-.174.04-.334.04-.48 0-.667-.24-1-.72-1-.454 0-.847.246-1.18.74a3.17 3.17 0 00-.4.8 6.052 6.052 0 00-.22.78l-1.1 6.6h-1.82zm17.532.24c-1.413 0-2.48-.374-3.2-1.12-.707-.747-1.06-1.847-1.06-3.3 0-.947.14-1.807.42-2.58a6.187 6.187 0 011.2-2.02 5.424 5.424 0 011.84-1.3c.72-.32 1.513-.48 2.38-.48.52 0 1 .06 1.44.18.44.12.82.3 1.14.54.333.226.593.52.78.88.187.346.28.746.28 1.2 0 .386-.087.78-.26 1.18-.16.4-.5.766-1.02 1.1-.52.333-1.26.613-2.22.84-.96.226-2.227.366-3.8.42-.013.093-.02.18-.02.26v.14c0 .32.033.626.1.92.08.28.207.526.38.74.173.213.407.38.7.5.307.12.693.18 1.16.18.333 0 .633-.034.9-.1.28-.08.54-.2.78-.36.253-.16.5-.367.74-.62.253-.267.52-.594.8-.98l1.4.9c-.28.44-.58.84-.9 1.2-.32.346-.68.646-1.08.9-.387.24-.82.426-1.3.56-.467.146-.993.22-1.58.22zm1.38-9.18c-.88 0-1.6.26-2.16.78s-.927 1.313-1.1 2.38l-.04.22c1.12-.04 2.007-.127 2.66-.26.667-.147 1.173-.314 1.52-.5.36-.2.587-.414.68-.64.107-.227.16-.447.16-.66 0-.387-.133-.7-.4-.94-.253-.254-.693-.38-1.32-.38zm10.312 9.18c-1.013 0-1.893-.154-2.64-.46-.747-.32-1.327-.78-1.74-1.38l1.36-1.2c.733.933 1.793 1.4 3.18 1.4.787 0 1.4-.14 1.84-.42.453-.28.68-.68.68-1.2 0-.4-.127-.674-.38-.82-.24-.16-.547-.274-.92-.34l-1.5-.26a7.675 7.675 0 01-1.12-.28 3.344 3.344 0 01-.92-.48 2.587 2.587 0 01-.66-.8c-.16-.32-.24-.714-.24-1.18 0-.56.113-1.047.34-1.46.24-.427.56-.78.96-1.06a4.142 4.142 0 011.44-.64 6.84 6.84 0 011.78-.22c.92 0 1.713.14 2.38.42.68.266 1.213.633 1.6 1.1l-1.32 1.26c-.2-.28-.527-.54-.98-.78-.453-.24-1.053-.36-1.8-.36-.747 0-1.32.133-1.72.4-.387.266-.58.64-.58 1.12 0 .413.127.693.38.84.267.146.587.253.96.32l1.5.28c.373.066.733.16 1.08.28.347.106.653.26.92.46.28.186.5.44.66.76.173.306.26.693.26 1.16 0 .546-.113 1.04-.34 1.48-.227.44-.553.813-.98 1.12-.413.306-.92.54-1.52.7-.587.16-1.24.24-1.96.24zm11.812 0c-.64 0-1.12-.174-1.44-.52-.32-.347-.48-.82-.48-1.42 0-.12.014-.26.04-.42.027-.174.054-.354.08-.54l.98-5.92h-2.84l.28-1.74h1.92c.387 0 .674-.074.86-.22.187-.16.314-.434.38-.82l.44-2.6h2l-.6 3.64h4.16l-.28 1.74h-4.18l-1.14 6.84.4.2 3.92-2.78 1.06 1.28-1.82 1.36c-.453.346-.853.64-1.2.88a8.91 8.91 0 01-.94.6 4.345 4.345 0 01-.82.32c-.253.08-.513.12-.78.12zm14.232-.24l.4-2.44h-.08c-.386.8-.853 1.446-1.4 1.94-.546.493-1.266.74-2.16.74-1.066 0-1.86-.347-2.38-1.04-.506-.694-.76-1.68-.76-2.96 0-.827.094-1.647.28-2.46.2-.814.5-1.54.9-2.18.4-.64.9-1.16 1.5-1.56.614-.4 1.334-.6 2.16-.6.787 0 1.414.18 1.88.54.467.36.794.88.98 1.56h.1l.3-1.86h2.14l-1.72 10.32h-2.14zm-2.38-1.5c.787 0 1.494-.36 2.12-1.08a4.83 4.83 0 00.64-.94c.2-.374.34-.8.42-1.28l.34-2.06c.107-.6-.026-1.074-.4-1.42-.36-.36-.9-.54-1.62-.54-.893 0-1.586.273-2.08.82-.48.533-.793 1.22-.94 2.06l-.24 1.42a3.41 3.41 0 00-.06.42c-.013.146-.02.293-.02.44 0 .653.147 1.18.44 1.58.294.386.76.58 1.4.58zm7.073 1.5l1.72-10.32h1.82l-.28 1.7h.1c.24-.56.533-1.02.88-1.38.36-.374.82-.56 1.38-.56.56 0 .973.18 1.24.54.28.36.393.846.34 1.46h.08c.253-.6.573-1.08.96-1.44.4-.374.906-.56 1.52-.56.586 0 1.026.166 1.32.5.306.333.46.82.46 1.46 0 .2-.014.446-.04.74-.027.28-.06.54-.1.78l-1.18 7.08h-1.82l1.14-6.82a49.9 49.9 0 00.08-.6c.026-.214.04-.387.04-.52 0-.654-.26-.98-.78-.98-.454 0-.834.246-1.14.74-.147.24-.28.506-.4.8-.12.28-.207.573-.26.88l-1.08 6.5h-1.82l1.16-6.92c.026-.187.046-.36.06-.52.026-.174.04-.334.04-.48 0-.667-.24-1-.72-1-.454 0-.847.246-1.18.74a3.17 3.17 0 00-.4.8 6.052 6.052 0 00-.22.78l-1.1 6.6h-1.82zm14.472-10.32h2.14l-.4 2.44h.08c.2-.4.413-.76.64-1.08.227-.334.48-.62.76-.86s.593-.42.94-.54c.36-.134.767-.2 1.22-.2 1.067 0 1.853.346 2.36 1.04.52.693.78 1.68.78 2.96 0 .826-.1 1.646-.3 2.46a7.069 7.069 0 01-.88 2.18 5 5 0 01-1.52 1.56c-.6.4-1.313.6-2.14.6-.787 0-1.413-.18-1.88-.54-.467-.36-.793-.88-.98-1.56h-.1l-.96 5.86h-2.14l2.38-14.32zm3.02 8.82c.893 0 1.58-.267 2.06-.8.493-.547.813-1.24.96-2.08l.24-1.42c.027-.12.047-.254.06-.4.013-.16.02-.314.02-.46 0-.654-.147-1.174-.44-1.56-.293-.4-.76-.6-1.4-.6-.8 0-1.507.36-2.12 1.08a4.77 4.77 0 00-.64.94c-.2.373-.34.8-.42 1.28l-.34 2.06c-.107.6.02 1.08.38 1.44.373.346.92.52 1.64.52z"/><path fill="#fff" d="M186.602 126.016h3.04l-3.38 5.92h-1.72l2.06-5.92z"/><path fill="#909194" d="M48.052 129.036h-9.64v-2.14l4.56-3.98c.72-.64 1.274-1.247 1.66-1.82.4-.574.6-1.18.6-1.82v-.22c0-.734-.2-1.294-.6-1.68-.4-.4-.98-.6-1.74-.6-.773 0-1.373.206-1.8.62-.413.413-.713.94-.9 1.58l-1.96-.74c.134-.44.327-.86.58-1.26.254-.414.574-.78.96-1.1.4-.32.867-.574 1.4-.76.547-.187 1.174-.28 1.88-.28.72 0 1.36.106 1.92.32.574.2 1.054.48 1.44.84.387.36.68.793.88 1.3.2.493.3 1.04.3 1.64 0 .56-.086 1.08-.26 1.56-.16.466-.393.92-.7 1.36-.293.426-.646.84-1.06 1.24-.413.4-.866.8-1.36 1.2l-3.38 2.84h7.22v1.9z"/><path fill="#A0E7FA" d="M74.192 166.036l1.72-10.32h1.82l-.28 1.7h.1c.24-.56.534-1.02.88-1.38.36-.374.82-.56 1.38-.56.56 0 .974.18 1.24.54.28.36.394.846.34 1.46h.08c.254-.6.574-1.08.96-1.44.4-.374.907-.56 1.52-.56.587 0 1.027.166 1.32.5.307.333.46.82.46 1.46a10.854 10.854 0 01-.14 1.52l-1.18 7.08h-1.82l1.14-6.82c.027-.187.054-.387.08-.6a4.32 4.32 0 00.04-.52c0-.654-.26-.98-.78-.98-.453 0-.833.246-1.14.74-.146.24-.28.506-.4.8a3.97 3.97 0 00-.26.88l-1.08 6.5h-1.82l1.16-6.92c.027-.187.047-.36.06-.52.027-.174.04-.334.04-.48 0-.667-.24-1-.72-1-.453 0-.846.246-1.18.74-.173.253-.306.52-.4.8a6.233 6.233 0 00-.22.78l-1.1 6.6h-1.82zm18.753-12.22c-.507 0-.86-.094-1.06-.28a.96.96 0 01-.3-.7c0-.08.006-.174.02-.28.013-.107.033-.22.06-.34.066-.36.213-.64.44-.84.24-.214.613-.32 1.12-.32.506 0 .86.1 1.06.3.2.186.3.413.3.68 0 .08-.007.173-.02.28a3.69 3.69 0 01-.06.34c-.067.36-.22.646-.46.86-.227.2-.594.3-1.1.3zm-1.16 12.46c-.64 0-1.12-.167-1.44-.5-.32-.334-.48-.767-.48-1.3 0-.174.013-.347.04-.52.026-.174.06-.38.1-.62l1.14-5.88h-3.48l.28-1.74h5.66l-1.68 8.66.4.16 3.46-3.18 1.22 1.1-1.56 1.56c-.414.413-.787.766-1.12 1.06-.334.28-.64.513-.92.7-.28.173-.554.3-.82.38-.254.08-.52.12-.8.12zm7.252-.24l1.72-10.32h2.14l-.42 2.44h.1c.386-.827.84-1.48 1.36-1.96.52-.48 1.2-.72 2.04-.72.92 0 1.613.28 2.08.84.48.546.72 1.26.72 2.14 0 .24-.014.493-.04.76a6.984 6.984 0 01-.12.9l-.98 5.92h-2.14l1-6 .08-.58c.026-.214.04-.407.04-.58 0-.467-.12-.86-.36-1.18-.227-.32-.607-.48-1.14-.48-.4 0-.76.093-1.08.28-.307.186-.594.44-.86.76a8.7 8.7 0 00-.58.84c-.24.4-.407.873-.5 1.42l-.92 5.52h-2.14z"/><path fill="#fff" d="M113.949 161.516c0-1.134.153-2.234.46-3.3.32-1.067.747-2.067 1.28-3a14.09 14.09 0 011.82-2.52 11.405 11.405 0 012.14-1.86h2.2a17.345 17.345 0 00-1.98 1.6 14.273 14.273 0 00-1.7 1.9c-.493.68-.92 1.4-1.28 2.16a8.966 8.966 0 00-.72 2.32l-.3 1.78a6.53 6.53 0 00-.08.7c-.013.226-.02.453-.02.68 0 .68.08 1.346.24 2 .173.653.4 1.273.68 1.86.28.586.607 1.126.98 1.62.373.506.773.953 1.2 1.34h-2c-.413-.374-.8-.82-1.16-1.34a10.118 10.118 0 01-.92-1.68 13.04 13.04 0 01-.62-2 11.28 11.28 0 01-.22-2.26zm13.272 4.76c-.64 0-1.12-.174-1.44-.52-.32-.347-.48-.82-.48-1.42 0-.12.013-.26.04-.42.027-.174.053-.354.08-.54l.98-5.92h-2.84l.28-1.74h1.92c.387 0 .673-.074.86-.22.187-.16.313-.434.38-.82l.44-2.6h2l-.6 3.64h4.16l-.28 1.74h-4.18l-1.14 6.84.4.2 3.92-2.78 1.06 1.28-1.82 1.36c-.453.346-.853.64-1.2.88-.333.24-.647.44-.94.6a4.37 4.37 0 01-.82.32c-.253.08-.513.12-.78.12zm12.472 0c-1.413 0-2.48-.374-3.2-1.12-.706-.747-1.06-1.847-1.06-3.3 0-.947.14-1.807.42-2.58a6.222 6.222 0 011.2-2.02 5.434 5.434 0 011.84-1.3c.72-.32 1.514-.48 2.38-.48.52 0 1 .06 1.44.18.44.12.82.3 1.14.54.334.226.594.52.78.88.187.346.28.746.28 1.2 0 .386-.086.78-.26 1.18-.16.4-.5.766-1.02 1.1-.52.333-1.26.613-2.22.84-.96.226-2.226.366-3.8.42-.013.093-.02.18-.02.26v.14c0 .32.034.626.1.92.08.28.207.526.38.74.174.213.407.38.7.5.307.12.694.18 1.16.18.334 0 .634-.034.9-.1.28-.08.54-.2.78-.36.254-.16.5-.367.74-.62a9.65 9.65 0 00.8-.98l1.4.9c-.28.44-.58.84-.9 1.2-.32.346-.68.646-1.08.9-.386.24-.82.426-1.3.56-.466.146-.993.22-1.58.22zm1.38-9.18c-.88 0-1.6.26-2.16.78s-.926 1.313-1.1 2.38l-.04.22c1.12-.04 2.007-.127 2.66-.26.667-.147 1.174-.314 1.52-.5.36-.2.587-.414.68-.64.107-.227.16-.447.16-.66 0-.387-.133-.7-.4-.94-.253-.254-.693-.38-1.32-.38zm5.072 8.94l1.72-10.32h1.82l-.28 1.7h.1c.24-.56.534-1.02.88-1.38.36-.374.82-.56 1.38-.56.56 0 .974.18 1.24.54.28.36.394.846.34 1.46h.08c.254-.6.574-1.08.96-1.44.4-.374.907-.56 1.52-.56.587 0 1.027.166 1.32.5.307.333.46.82.46 1.46a10.854 10.854 0 01-.14 1.52l-1.18 7.08h-1.82l1.14-6.82c.027-.187.054-.387.08-.6a4.32 4.32 0 00.04-.52c0-.654-.26-.98-.78-.98-.453 0-.833.246-1.14.74-.146.24-.28.506-.4.8a3.97 3.97 0 00-.26.88l-1.08 6.5h-1.82l1.16-6.92c.027-.187.047-.36.06-.52.027-.174.04-.334.04-.48 0-.667-.24-1-.72-1-.453 0-.846.246-1.18.74-.173.253-.306.52-.4.8a6.39 6.39 0 00-.22.78l-1.1 6.6h-1.82zm14.473-10.32h2.14l-.4 2.44h.08c.2-.4.413-.76.64-1.08.226-.334.48-.62.76-.86s.593-.42.94-.54c.36-.134.766-.2 1.22-.2 1.066 0 1.853.346 2.36 1.04.52.693.78 1.68.78 2.96 0 .826-.1 1.646-.3 2.46a7.069 7.069 0 01-.88 2.18 5 5 0 01-1.52 1.56c-.6.4-1.314.6-2.14.6-.787 0-1.414-.18-1.88-.54-.467-.36-.794-.88-.98-1.56h-.1l-.96 5.86h-2.14l2.38-14.32zm3.02 8.82c.893 0 1.58-.267 2.06-.8.493-.547.813-1.24.96-2.08l.24-1.42c.026-.12.046-.254.06-.4.013-.16.02-.314.02-.46 0-.654-.147-1.174-.44-1.56-.294-.4-.76-.6-1.4-.6-.8 0-1.507.36-2.12 1.08a4.77 4.77 0 00-.64.94c-.2.373-.34.8-.42 1.28l-.34 2.06c-.107.6.02 1.08.38 1.44.373.346.92.52 1.64.52zm7.292 1.5l2.34-13.96h8.96l-.32 1.86h-6.76l-.7 4.1h6.18l-.32 1.84h-6.16l-1.02 6.16h-2.2zm19.732-7.94c0 1.133-.16 2.24-.48 3.32a13.649 13.649 0 01-1.26 3c-.52.92-1.127 1.753-1.82 2.5-.68.76-1.393 1.386-2.14 1.88h-2.18c.68-.48 1.333-1.02 1.96-1.62a13.266 13.266 0 001.68-1.9c.507-.68.933-1.394 1.28-2.14.36-.76.607-1.54.74-2.34l.3-1.76c.04-.24.067-.474.08-.7.013-.227.02-.454.02-.68 0-.68-.087-1.347-.26-2a9.584 9.584 0 00-.66-1.86 8.629 8.629 0 00-1-1.62 9.675 9.675 0 00-1.18-1.34h2c.413.373.793.813 1.14 1.32.36.506.667 1.073.92 1.7.267.613.473 1.28.62 2 .16.72.24 1.466.24 2.24zm20.564 8.18c-.666 0-1.153-.167-1.46-.5-.293-.334-.44-.78-.44-1.34 0-.267.04-.614.12-1.04l2-10.42h-3.4l.3-1.74h5.58l-2.54 13.16.42.14 3.56-3.22 1.2 1.1-1.72 1.68c-.426.413-.806.76-1.14 1.04a8.09 8.09 0 01-.92.68c-.28.16-.546.273-.8.34-.253.08-.506.12-.76.12zm12.133 0c-.68 0-1.28-.107-1.8-.32a3.835 3.835 0 01-1.32-.88 4.03 4.03 0 01-.8-1.38 5.6 5.6 0 01-.28-1.82c0-.987.14-1.874.42-2.66.28-.787.666-1.454 1.16-2 .506-.56 1.1-.987 1.78-1.28a5.468 5.468 0 012.24-.46c.68 0 1.28.106 1.8.32.52.213.953.513 1.3.9.36.373.633.833.82 1.38.186.546.28 1.146.28 1.8 0 .986-.14 1.873-.42 2.66a5.955 5.955 0 01-1.18 2.02 5.223 5.223 0 01-1.78 1.28 5.55 5.55 0 01-2.22.44zm.14-1.7c.84 0 1.513-.254 2.02-.76.506-.52.833-1.234.98-2.14l.22-1.32c.026-.187.046-.36.06-.52.026-.16.04-.3.04-.42 0-.76-.2-1.32-.6-1.68-.387-.374-.92-.56-1.6-.56-.84 0-1.514.26-2.02.78-.507.506-.834 1.213-.98 2.12l-.22 1.32c-.027.186-.054.36-.08.52-.014.16-.02.3-.02.42 0 .76.193 1.326.58 1.7.4.36.94.54 1.62.54zm11.072-1.56h3.04l-3.38 5.92h-1.72l2.06-5.92z"/><path fill="#909194" d="M42.572 157.836c.894 0 1.554-.187 1.98-.56.44-.387.66-.867.66-1.44v-.14c0-.64-.213-1.127-.64-1.46-.413-.347-.973-.52-1.68-.52-.68 0-1.26.153-1.74.46-.466.306-.86.726-1.18 1.26l-1.52-1.3c.214-.307.46-.6.74-.88.28-.28.6-.52.96-.72.36-.214.774-.38 1.24-.5.467-.134.994-.2 1.58-.2.654 0 1.26.08 1.82.24.56.16 1.047.4 1.46.72.414.306.734.686.96 1.14.227.44.34.94.34 1.5 0 .44-.073.84-.22 1.2a2.92 2.92 0 01-.58.96 3.04 3.04 0 01-.86.66 4.2 4.2 0 01-1.06.38v.1c.4.08.78.213 1.14.4.36.173.68.406.96.7.28.28.5.62.66 1.02.16.386.24.833.24 1.34 0 .613-.12 1.173-.36 1.68a3.68 3.68 0 01-1.04 1.28c-.44.36-.973.64-1.6.84a7.367 7.367 0 01-2.1.28 6.294 6.294 0 01-1.74-.22 5.42 5.42 0 01-1.32-.54 5.66 5.66 0 01-1.02-.8 7.91 7.91 0 01-.74-.94l1.66-1.28a5.14 5.14 0 001.22 1.38c.48.346 1.134.52 1.96.52.88 0 1.554-.2 2.02-.6.467-.414.7-.98.7-1.7v-.16c0-.72-.246-1.267-.74-1.64-.48-.387-1.18-.58-2.1-.58h-1.5v-1.88h1.44z"/><path fill="#A0E7FA" d="M81.492 203.036l.4-2.44h-.08c-.386.8-.853 1.446-1.4 1.94-.546.493-1.266.74-2.16.74-1.066 0-1.86-.347-2.38-1.04-.506-.694-.76-1.68-.76-2.96 0-.827.094-1.647.28-2.46.2-.814.5-1.54.9-2.18.4-.64.9-1.16 1.5-1.56.614-.4 1.334-.6 2.16-.6.787 0 1.414.18 1.88.54.467.36.794.88.98 1.56h.1l.3-1.86h2.14l-1.72 10.32h-2.14zm-2.38-1.5c.787 0 1.494-.36 2.12-1.08a4.83 4.83 0 00.64-.94c.2-.374.34-.8.42-1.28l.34-2.06c.107-.6-.026-1.074-.4-1.42-.36-.36-.9-.54-1.62-.54-.893 0-1.586.273-2.08.82-.48.533-.793 1.22-.94 2.06l-.24 1.42a3.41 3.41 0 00-.06.42c-.013.146-.02.293-.02.44 0 .653.147 1.18.44 1.58.294.386.76.58 1.4.58zm12.493-8.82l-1.34 8.8.26.16c.746-.16 1.393-.434 1.94-.82a5.37 5.37 0 001.36-1.38c.36-.534.626-1.12.8-1.76.186-.64.28-1.287.28-1.94 0-.934-.207-1.794-.62-2.58l1.96-.66c.266.413.466.893.6 1.44a6.54 6.54 0 01.22 1.74 7.75 7.75 0 01-.56 2.94 7.75 7.75 0 01-1.52 2.38 7.21 7.21 0 01-2.18 1.62 6.075 6.075 0 01-2.6.58c-.667 0-1.16-.167-1.48-.5-.32-.334-.48-.794-.48-1.38 0-.147.006-.294.02-.44.013-.147.033-.314.06-.5l.92-5.96h-2.02l.28-1.74h4.1zm10.852 14.56c-.88 0-1.64-.114-2.28-.34a3.728 3.728 0 01-1.6-1.12l1.36-1.36c.573.72 1.42 1.08 2.54 1.08.413 0 .786-.047 1.12-.14.346-.094.646-.26.9-.5.266-.24.486-.56.66-.96.173-.387.313-.88.42-1.48l.38-2.24h-.1c-.387.826-.854 1.486-1.4 1.98-.547.48-1.267.72-2.16.72-1.08 0-1.88-.354-2.4-1.06-.507-.72-.76-1.687-.76-2.9 0-.774.093-1.547.28-2.32a7.28 7.28 0 01.88-2.08 4.537 4.537 0 011.48-1.5c.6-.387 1.313-.58 2.14-.58.8 0 1.433.18 1.9.54.466.36.793.88.98 1.56h.1l.3-1.86h2.14l-1.66 9.96c-.134.813-.354 1.506-.66 2.08a4.384 4.384 0 01-1.12 1.44c-.44.373-.954.646-1.54.82a6.563 6.563 0 01-1.9.26zm.7-6.12c.773 0 1.473-.354 2.1-1.06.186-.2.386-.48.6-.84.226-.36.386-.807.48-1.34l.28-1.7c.106-.614-.027-1.1-.4-1.46-.36-.36-.9-.54-1.62-.54-.88 0-1.567.266-2.06.8-.494.533-.814 1.233-.96 2.1l-.16.96a5.07 5.07 0 00-.08.94c0 .666.14 1.193.42 1.58.293.373.76.56 1.4.56zm110.249 1.88l.4-2.44h-.08c-.386.8-.853 1.446-1.4 1.94-.546.493-1.266.74-2.16.74-1.066 0-1.86-.347-2.38-1.04-.506-.694-.76-1.68-.76-2.96 0-.827.094-1.647.28-2.46.2-.814.5-1.54.9-2.18.4-.64.9-1.16 1.5-1.56.614-.4 1.334-.6 2.16-.6.787 0 1.414.18 1.88.54.467.36.794.88.98 1.56h.1l.3-1.86h2.14l-1.72 10.32h-2.14zm-2.38-1.5c.787 0 1.494-.36 2.12-1.08a4.83 4.83 0 00.64-.94c.2-.374.34-.8.42-1.28l.34-2.06c.107-.6-.026-1.074-.4-1.42-.36-.36-.9-.54-1.62-.54-.893 0-1.586.273-2.08.82-.48.533-.793 1.22-.94 2.06l-.24 1.42a3.41 3.41 0 00-.06.42c-.013.146-.02.293-.02.44 0 .653.147 1.18.44 1.58.294.386.76.58 1.4.58zm12.493-8.82l-1.34 8.8.26.16c.746-.16 1.393-.434 1.94-.82a5.37 5.37 0 001.36-1.38c.36-.534.626-1.12.8-1.76.186-.64.28-1.287.28-1.94 0-.934-.207-1.794-.62-2.58l1.96-.66c.266.413.466.893.6 1.44.146.533.22 1.113.22 1.74a7.75 7.75 0 01-.56 2.94 7.75 7.75 0 01-1.52 2.38 7.224 7.224 0 01-2.18 1.62 6.078 6.078 0 01-2.6.58c-.667 0-1.16-.167-1.48-.5-.32-.334-.48-.794-.48-1.38 0-.147.006-.294.02-.44.013-.147.033-.314.06-.5l.92-5.96h-2.02l.28-1.74h4.1zm10.852 14.56c-.88 0-1.64-.114-2.28-.34a3.726 3.726 0 01-1.6-1.12l1.36-1.36c.573.72 1.42 1.08 2.54 1.08.413 0 .786-.047 1.12-.14.346-.094.646-.26.9-.5.266-.24.486-.56.66-.96.173-.387.313-.88.42-1.48l.38-2.24h-.1c-.387.826-.854 1.486-1.4 1.98-.547.48-1.267.72-2.16.72-1.08 0-1.88-.354-2.4-1.06-.507-.72-.76-1.687-.76-2.9 0-.774.093-1.547.28-2.32.2-.774.493-1.467.88-2.08a4.537 4.537 0 011.48-1.5c.6-.387 1.313-.58 2.14-.58.8 0 1.433.18 1.9.54.466.36.793.88.98 1.56h.1l.3-1.86h2.14l-1.66 9.96c-.134.813-.354 1.506-.66 2.08a4.384 4.384 0 01-1.12 1.44c-.44.373-.954.646-1.54.82a6.563 6.563 0 01-1.9.26zm.7-6.12c.773 0 1.473-.354 2.1-1.06.186-.2.386-.48.6-.84.226-.36.386-.807.48-1.34l.28-1.7c.106-.614-.027-1.1-.4-1.46-.36-.36-.9-.54-1.62-.54-.88 0-1.567.266-2.06.8-.494.533-.814 1.233-.96 2.1l-.16.96a5.07 5.07 0 00-.08.94c0 .666.14 1.193.42 1.58.293.373.76.56 1.4.56z"/><path fill="#fff" d="M113.949 198.516c0-1.134.153-2.234.46-3.3.32-1.067.747-2.067 1.28-3a14.09 14.09 0 011.82-2.52 11.405 11.405 0 012.14-1.86h2.2a17.345 17.345 0 00-1.98 1.6 14.273 14.273 0 00-1.7 1.9c-.493.68-.92 1.4-1.28 2.16a8.966 8.966 0 00-.72 2.32l-.3 1.78a6.53 6.53 0 00-.08.7c-.013.226-.02.453-.02.68 0 .68.08 1.346.24 2 .173.653.4 1.273.68 1.86.28.586.607 1.126.98 1.62.373.506.773.953 1.2 1.34h-2c-.413-.374-.8-.82-1.16-1.34a10.118 10.118 0 01-.92-1.68 13.04 13.04 0 01-.62-2 11.28 11.28 0 01-.22-2.26zm13.272 4.76c-.64 0-1.12-.174-1.44-.52-.32-.347-.48-.82-.48-1.42 0-.12.013-.26.04-.42.027-.174.053-.354.08-.54l.98-5.92h-2.84l.28-1.74h1.92c.387 0 .673-.074.86-.22.187-.16.313-.434.38-.82l.44-2.6h2l-.6 3.64h4.16l-.28 1.74h-4.18l-1.14 6.84.4.2 3.92-2.78 1.06 1.28-1.82 1.36c-.453.346-.853.64-1.2.88-.333.24-.647.44-.94.6a4.37 4.37 0 01-.82.32c-.253.08-.513.12-.78.12zm12.472 0c-1.413 0-2.48-.374-3.2-1.12-.706-.747-1.06-1.847-1.06-3.3 0-.947.14-1.807.42-2.58a6.222 6.222 0 011.2-2.02 5.434 5.434 0 011.84-1.3c.72-.32 1.514-.48 2.38-.48.52 0 1 .06 1.44.18.44.12.82.3 1.14.54.334.226.594.52.78.88.187.346.28.746.28 1.2 0 .386-.086.78-.26 1.18-.16.4-.5.766-1.02 1.1-.52.333-1.26.613-2.22.84-.96.226-2.226.366-3.8.42-.013.093-.02.18-.02.26v.14c0 .32.034.626.1.92.08.28.207.526.38.74.174.213.407.38.7.5.307.12.694.18 1.16.18.334 0 .634-.034.9-.1.28-.08.54-.2.78-.36.254-.16.5-.367.74-.62a9.65 9.65 0 00.8-.98l1.4.9c-.28.44-.58.84-.9 1.2-.32.346-.68.646-1.08.9-.386.24-.82.426-1.3.56-.466.146-.993.22-1.58.22zm1.38-9.18c-.88 0-1.6.26-2.16.78s-.926 1.313-1.1 2.38l-.04.22c1.12-.04 2.007-.127 2.66-.26.667-.147 1.174-.314 1.52-.5.36-.2.587-.414.68-.64.107-.227.16-.447.16-.66 0-.387-.133-.7-.4-.94-.253-.254-.693-.38-1.32-.38zm5.072 8.94l1.72-10.32h1.82l-.28 1.7h.1c.24-.56.534-1.02.88-1.38.36-.374.82-.56 1.38-.56.56 0 .974.18 1.24.54.28.36.394.846.34 1.46h.08c.254-.6.574-1.08.96-1.44.4-.374.907-.56 1.52-.56.587 0 1.027.166 1.32.5.307.333.46.82.46 1.46a10.854 10.854 0 01-.14 1.52l-1.18 7.08h-1.82l1.14-6.82c.027-.187.054-.387.08-.6a4.32 4.32 0 00.04-.52c0-.654-.26-.98-.78-.98-.453 0-.833.246-1.14.74-.146.24-.28.506-.4.8a3.97 3.97 0 00-.26.88l-1.08 6.5h-1.82l1.16-6.92c.027-.187.047-.36.06-.52.027-.174.04-.334.04-.48 0-.667-.24-1-.72-1-.453 0-.846.246-1.18.74-.173.253-.306.52-.4.8a6.39 6.39 0 00-.22.78l-1.1 6.6h-1.82zm14.473-10.32h2.14l-.4 2.44h.08c.2-.4.413-.76.64-1.08.226-.334.48-.62.76-.86s.593-.42.94-.54c.36-.134.766-.2 1.22-.2 1.066 0 1.853.346 2.36 1.04.52.693.78 1.68.78 2.96 0 .826-.1 1.646-.3 2.46a7.069 7.069 0 01-.88 2.18 5 5 0 01-1.52 1.56c-.6.4-1.314.6-2.14.6-.787 0-1.414-.18-1.88-.54-.467-.36-.794-.88-.98-1.56h-.1l-.96 5.86h-2.14l2.38-14.32zm3.02 8.82c.893 0 1.58-.267 2.06-.8.493-.547.813-1.24.96-2.08l.24-1.42c.026-.12.046-.254.06-.4.013-.16.02-.314.02-.46 0-.654-.147-1.174-.44-1.56-.294-.4-.76-.6-1.4-.6-.8 0-1.507.36-2.12 1.08a4.77 4.77 0 00-.64.94c-.2.373-.34.8-.42 1.28l-.34 2.06c-.107.6.02 1.08.38 1.44.373.346.92.52 1.64.52zm7.292 1.5l2.34-13.96h8.96l-.32 1.86h-6.76l-.7 4.1h6.18l-.32 1.84h-6.16l-1.02 6.16h-2.2zm19.732-7.94c0 1.133-.16 2.24-.48 3.32a13.649 13.649 0 01-1.26 3c-.52.92-1.127 1.753-1.82 2.5-.68.76-1.393 1.386-2.14 1.88h-2.18c.68-.48 1.333-1.02 1.96-1.62a13.266 13.266 0 001.68-1.9c.507-.68.933-1.394 1.28-2.14.36-.76.607-1.54.74-2.34l.3-1.76c.04-.24.067-.474.08-.7.013-.227.02-.454.02-.68 0-.68-.087-1.347-.26-2a9.584 9.584 0 00-.66-1.86 8.629 8.629 0 00-1-1.62 9.675 9.675 0 00-1.18-1.34h2c.413.373.793.813 1.14 1.32.36.506.667 1.073.92 1.7.267.613.473 1.28.62 2 .16.72.24 1.466.24 2.24zm55.901 4.92h3.04l-3.38 5.92h-1.72l2.06-5.92z"/><path fill="#909194" d="M44.392 203.036v-2.72h-6.64v-1.92l5.84-9.32h2.94v9.48h1.96v1.76h-1.96v2.72h-2.14zm-4.74-4.48h4.74v-7.42h-.12l-4.62 7.42z"/><path fill="#A0E7FA" d="M74.192 240.036l1.72-10.32h1.82l-.28 1.7h.1c.24-.56.534-1.02.88-1.38.36-.374.82-.56 1.38-.56.56 0 .974.18 1.24.54.28.36.394.846.34 1.46h.08c.254-.6.574-1.08.96-1.44.4-.374.907-.56 1.52-.56.587 0 1.027.166 1.32.5.307.333.46.82.46 1.46a10.854 10.854 0 01-.14 1.52l-1.18 7.08h-1.82l1.14-6.82c.027-.187.054-.387.08-.6a4.32 4.32 0 00.04-.52c0-.654-.26-.98-.78-.98-.453 0-.833.246-1.14.74-.146.24-.28.506-.4.8a3.97 3.97 0 00-.26.88l-1.08 6.5h-1.82l1.16-6.92c.027-.187.047-.36.06-.52.027-.174.04-.334.04-.48 0-.667-.24-1-.72-1-.453 0-.846.246-1.18.74-.173.253-.306.52-.4.8a6.233 6.233 0 00-.22.78l-1.1 6.6h-1.82zm19.293 0l.4-2.44h-.08c-.387.8-.854 1.446-1.4 1.94-.547.493-1.267.74-2.16.74-1.067 0-1.86-.347-2.38-1.04-.507-.694-.76-1.68-.76-2.96 0-.827.093-1.647.28-2.46.2-.814.5-1.54.9-2.18.4-.64.9-1.16 1.5-1.56.613-.4 1.333-.6 2.16-.6.786 0 1.413.18 1.88.54.466.36.793.88.98 1.56h.1l.3-1.86h2.14l-1.72 10.32h-2.14zm-2.38-1.5c.786 0 1.493-.36 2.12-1.08.226-.254.44-.567.64-.94.2-.374.34-.8.42-1.28l.34-2.06c.106-.6-.027-1.074-.4-1.42-.36-.36-.9-.54-1.62-.54-.894 0-1.587.273-2.08.82-.48.533-.794 1.22-.94 2.06l-.24 1.42a4.611 4.611 0 00-.08.86c0 .653.146 1.18.44 1.58.293.386.76.58 1.4.58zm9.152 1.74c-.68 0-1.2-.214-1.56-.64-.347-.427-.52-1.067-.52-1.92 0-.174.006-.34.02-.5.013-.174.033-.394.06-.66l1.82-.18c-.027.146-.04.286-.04.42v.34c0 .533.06.926.18 1.18.12.24.333.36.64.36.44 0 .806-.207 1.1-.62.293-.414.526-.914.7-1.5a9.277 9.277 0 00.38-1.86c.08-.654.12-1.22.12-1.7 0-.32-.014-.64-.04-.96a3.51 3.51 0 00-.12-.82l-.28-.14-2.94 1.9-.86-1.22 1.36-1.02a9.804 9.804 0 011.44-.9c.453-.24.9-.36 1.34-.36.4 0 .713.093.94.28a1.7 1.7 0 01.56.72c.133.306.22.666.26 1.08.04.4.06.82.06 1.26h.14c.28-1.2.666-2.054 1.16-2.56a2.495 2.495 0 011.86-.78c.666 0 1.173.22 1.52.66.36.44.54 1.066.54 1.88 0 .146-.007.313-.02.5 0 .186-.014.413-.04.68l-1.82.18c.013-.16.02-.307.02-.44a3.78 3.78 0 00.02-.36c0-.507-.06-.88-.18-1.12-.12-.254-.334-.38-.64-.38-.44 0-.807.206-1.1.62-.294.4-.534.893-.72 1.48-.174.573-.3 1.18-.38 1.82-.067.626-.1 1.166-.1 1.62 0 .346.013.693.04 1.04.04.333.093.626.16.88l.26.14 2.84-2 .9 1.18-1 .88c-.68.6-1.267 1.006-1.76 1.22-.48.213-.914.32-1.3.32-.36 0-.66-.08-.9-.24a1.725 1.725 0 01-.56-.7 3.936 3.936 0 01-.28-1.06c-.054-.414-.08-.854-.08-1.32l-.14-.02c-.28 1.2-.674 2.06-1.18 2.58-.507.506-1.134.76-1.88.76z"/><path fill="#fff" d="M113.949 235.516c0-1.134.153-2.234.46-3.3.32-1.067.747-2.067 1.28-3a14.09 14.09 0 011.82-2.52 11.405 11.405 0 012.14-1.86h2.2a17.345 17.345 0 00-1.98 1.6 14.273 14.273 0 00-1.7 1.9c-.493.68-.92 1.4-1.28 2.16a8.966 8.966 0 00-.72 2.32l-.3 1.78a6.53 6.53 0 00-.08.7c-.013.226-.02.453-.02.68 0 .68.08 1.346.24 2 .173.653.4 1.273.68 1.86.28.586.607 1.126.98 1.62.373.506.773.953 1.2 1.34h-2c-.413-.374-.8-.82-1.16-1.34a10.118 10.118 0 01-.92-1.68 13.04 13.04 0 01-.62-2 11.28 11.28 0 01-.22-2.26zm13.272 4.76c-.64 0-1.12-.174-1.44-.52-.32-.347-.48-.82-.48-1.42 0-.12.013-.26.04-.42.027-.174.053-.354.08-.54l.98-5.92h-2.84l.28-1.74h1.92c.387 0 .673-.074.86-.22.187-.16.313-.434.38-.82l.44-2.6h2l-.6 3.64h4.16l-.28 1.74h-4.18l-1.14 6.84.4.2 3.92-2.78 1.06 1.28-1.82 1.36c-.453.346-.853.64-1.2.88-.333.24-.647.44-.94.6a4.37 4.37 0 01-.82.32c-.253.08-.513.12-.78.12zm12.472 0c-1.413 0-2.48-.374-3.2-1.12-.706-.747-1.06-1.847-1.06-3.3 0-.947.14-1.807.42-2.58a6.222 6.222 0 011.2-2.02 5.434 5.434 0 011.84-1.3c.72-.32 1.514-.48 2.38-.48.52 0 1 .06 1.44.18.44.12.82.3 1.14.54.334.226.594.52.78.88.187.346.28.746.28 1.2 0 .386-.086.78-.26 1.18-.16.4-.5.766-1.02 1.1-.52.333-1.26.613-2.22.84-.96.226-2.226.366-3.8.42-.013.093-.02.18-.02.26v.14c0 .32.034.626.1.92.08.28.207.526.38.74.174.213.407.38.7.5.307.12.694.18 1.16.18.334 0 .634-.034.9-.1.28-.08.54-.2.78-.36.254-.16.5-.367.74-.62a9.65 9.65 0 00.8-.98l1.4.9c-.28.44-.58.84-.9 1.2-.32.346-.68.646-1.08.9-.386.24-.82.426-1.3.56-.466.146-.993.22-1.58.22zm1.38-9.18c-.88 0-1.6.26-2.16.78s-.926 1.313-1.1 2.38l-.04.22c1.12-.04 2.007-.127 2.66-.26.667-.147 1.174-.314 1.52-.5.36-.2.587-.414.68-.64.107-.227.16-.447.16-.66 0-.387-.133-.7-.4-.94-.253-.254-.693-.38-1.32-.38zm5.072 8.94l1.72-10.32h1.82l-.28 1.7h.1c.24-.56.534-1.02.88-1.38.36-.374.82-.56 1.38-.56.56 0 .974.18 1.24.54.28.36.394.846.34 1.46h.08c.254-.6.574-1.08.96-1.44.4-.374.907-.56 1.52-.56.587 0 1.027.166 1.32.5.307.333.46.82.46 1.46a10.854 10.854 0 01-.14 1.52l-1.18 7.08h-1.82l1.14-6.82c.027-.187.054-.387.08-.6a4.32 4.32 0 00.04-.52c0-.654-.26-.98-.78-.98-.453 0-.833.246-1.14.74-.146.24-.28.506-.4.8a3.97 3.97 0 00-.26.88l-1.08 6.5h-1.82l1.16-6.92c.027-.187.047-.36.06-.52.027-.174.04-.334.04-.48 0-.667-.24-1-.72-1-.453 0-.846.246-1.18.74-.173.253-.306.52-.4.8a6.39 6.39 0 00-.22.78l-1.1 6.6h-1.82zm14.473-10.32h2.14l-.4 2.44h.08c.2-.4.413-.76.64-1.08.226-.334.48-.62.76-.86s.593-.42.94-.54c.36-.134.766-.2 1.22-.2 1.066 0 1.853.346 2.36 1.04.52.693.78 1.68.78 2.96 0 .826-.1 1.646-.3 2.46a7.069 7.069 0 01-.88 2.18 5 5 0 01-1.52 1.56c-.6.4-1.314.6-2.14.6-.787 0-1.414-.18-1.88-.54-.467-.36-.794-.88-.98-1.56h-.1l-.96 5.86h-2.14l2.38-14.32zm3.02 8.82c.893 0 1.58-.267 2.06-.8.493-.547.813-1.24.96-2.08l.24-1.42c.026-.12.046-.254.06-.4.013-.16.02-.314.02-.46 0-.654-.147-1.174-.44-1.56-.294-.4-.76-.6-1.4-.6-.8 0-1.507.36-2.12 1.08a4.77 4.77 0 00-.64.94c-.2.373-.34.8-.42 1.28l-.34 2.06c-.107.6.02 1.08.38 1.44.373.346.92.52 1.64.52zm7.292 1.5l2.34-13.96h8.96l-.32 1.86h-6.76l-.7 4.1h6.18l-.32 1.84h-6.16l-1.02 6.16h-2.2zm19.732-7.94c0 1.133-.16 2.24-.48 3.32a13.649 13.649 0 01-1.26 3c-.52.92-1.127 1.753-1.82 2.5-.68.76-1.393 1.386-2.14 1.88h-2.18c.68-.48 1.333-1.02 1.96-1.62a13.266 13.266 0 001.68-1.9c.507-.68.933-1.394 1.28-2.14.36-.76.607-1.54.74-2.34l.3-1.76c.04-.24.067-.474.08-.7.013-.227.02-.454.02-.68 0-.68-.087-1.347-.26-2a9.584 9.584 0 00-.66-1.86 8.629 8.629 0 00-1-1.62 9.675 9.675 0 00-1.18-1.34h2c.413.373.793.813 1.14 1.32.36.506.667 1.073.92 1.7.267.613.473 1.28.62 2 .16.72.24 1.466.24 2.24zm18.764-6.86h2.14l-1.16 6.92h.1c.387-.827.84-1.48 1.36-1.96.52-.48 1.2-.72 2.04-.72.92 0 1.614.28 2.08.84.48.546.72 1.26.72 2.14 0 .24-.013.493-.04.76a6.648 6.648 0 01-.12.9l-.98 5.92h-2.14l1-6c.027-.187.054-.38.08-.58.027-.214.04-.407.04-.58 0-.467-.12-.86-.36-1.18-.226-.32-.606-.48-1.14-.48-.4 0-.76.093-1.08.28-.306.186-.593.44-.86.76-.133.16-.326.44-.58.84-.24.4-.406.873-.5 1.42l-.92 5.52h-2.14l2.46-14.8zm15.433 2.58c-.507 0-.86-.094-1.06-.28a.96.96 0 01-.3-.7c0-.08.006-.174.02-.28.013-.107.033-.22.06-.34.066-.36.213-.64.44-.84.24-.214.613-.32 1.12-.32.506 0 .86.1 1.06.3.2.186.3.413.3.68 0 .08-.007.173-.02.28a4.23 4.23 0 01-.06.34c-.067.36-.22.646-.46.86-.227.2-.594.3-1.1.3zm-1.16 12.46c-.64 0-1.12-.167-1.44-.5-.32-.334-.48-.767-.48-1.3 0-.174.013-.347.04-.52.026-.174.06-.38.1-.62l1.14-5.88h-3.48l.28-1.74h5.66l-1.68 8.66.4.16 3.46-3.18 1.22 1.1-1.56 1.56c-.414.413-.787.766-1.12 1.06-.334.28-.64.513-.92.7-.28.173-.554.3-.82.38-.254.08-.52.12-.8.12z"/><path fill="#909194" d="M47.372 228.016h-6.34l-.36 4.96h.16c.32-.547.707-.98 1.16-1.3.454-.334 1.074-.5 1.86-.5.6 0 1.154.1 1.66.3.52.2.967.486 1.34.86a3.8 3.8 0 01.9 1.38c.227.533.34 1.14.34 1.82 0 .693-.113 1.333-.34 1.92a4.372 4.372 0 01-.98 1.5c-.426.413-.953.74-1.58.98-.626.226-1.34.34-2.14.34a5.92 5.92 0 01-1.68-.22 5.489 5.489 0 01-1.3-.54c-.373-.24-.7-.507-.98-.8a7.91 7.91 0 01-.74-.94l1.64-1.28c.174.266.354.52.54.76.2.226.42.426.66.6.24.173.514.306.82.4.32.093.68.14 1.08.14.867 0 1.527-.234 1.98-.7.454-.48.68-1.127.68-1.94v-.16c0-.814-.233-1.447-.7-1.9-.453-.454-1.106-.68-1.96-.68-.626 0-1.12.113-1.48.34-.36.226-.673.48-.94.76l-1.86-.26.52-7.78h8.04v1.94z"/><path fill="#FF7CCA" d="M77.912 281.276c-.28 0-.54-.054-.78-.16-.24-.094-.48-.24-.72-.44a8.259 8.259 0 01-.74-.76 37.292 37.292 0 01-.92-1.06l-1.04-1.26 1.46-1.14 2.62 3.04.32-.08 1.82-10.96h-3.48l.28-1.74h3.48l.32-1.92c.12-.72.427-1.327.92-1.82.494-.494 1.2-.74 2.12-.74h3.5l-.28 1.74h-3.98l-.46 2.74h4l-.28 1.74h-4l-1.72 10.3c-.133.786-.393 1.4-.78 1.84-.386.453-.94.68-1.66.68zm11.532-4.24l1.42-8.58h-2.66l.3-1.74h4.8l-.5 2.92h.12c.387-.894.88-1.6 1.48-2.12.6-.534 1.4-.8 2.4-.8h1.2l-.36 2.14h-1.8c-.573 0-1.046.08-1.42.24a2.39 2.39 0 00-.96.74c-.133.16-.32.42-.56.78-.226.36-.38.78-.46 1.26l-.86 5.16h-2.14zm13.993.24c-.68 0-1.28-.107-1.8-.32a3.835 3.835 0 01-1.32-.88 4.043 4.043 0 01-.8-1.38 5.612 5.612 0 01-.28-1.82c0-.987.14-1.874.42-2.66.28-.787.666-1.454 1.16-2 .506-.56 1.1-.987 1.78-1.28a5.468 5.468 0 012.24-.46c.68 0 1.28.106 1.8.32.52.213.953.513 1.3.9.36.373.633.833.82 1.38.186.546.28 1.146.28 1.8 0 .986-.14 1.873-.42 2.66a5.955 5.955 0 01-1.18 2.02 5.223 5.223 0 01-1.78 1.28 5.55 5.55 0 01-2.22.44zm.14-1.7c.84 0 1.513-.254 2.02-.76.506-.52.833-1.234.98-2.14l.22-1.32c.026-.187.046-.36.06-.52.026-.16.04-.3.04-.42 0-.76-.2-1.32-.6-1.68-.387-.374-.92-.56-1.6-.56-.84 0-1.514.26-2.02.78-.507.506-.834 1.213-.98 2.12l-.22 1.32c-.027.186-.054.36-.08.52-.014.16-.02.3-.02.42 0 .76.193 1.326.58 1.7.4.36.94.54 1.62.54zm6.592 1.46l1.72-10.32h1.82l-.28 1.7h.1c.24-.56.533-1.02.88-1.38.36-.374.82-.56 1.38-.56.56 0 .973.18 1.24.54.28.36.393.846.34 1.46h.08c.253-.6.573-1.08.96-1.44.4-.374.907-.56 1.52-.56.587 0 1.027.166 1.32.5.307.333.46.82.46 1.46 0 .2-.013.446-.04.74-.027.28-.06.54-.1.78l-1.18 7.08h-1.82l1.14-6.82c.027-.187.053-.387.08-.6a4.32 4.32 0 00.04-.52c0-.654-.26-.98-.78-.98-.453 0-.833.246-1.14.74-.147.24-.28.506-.4.8-.12.28-.207.573-.26.88l-1.08 6.5h-1.82l1.16-6.92c.027-.187.047-.36.06-.52.027-.174.04-.334.04-.48 0-.667-.24-1-.72-1-.453 0-.847.246-1.18.74-.173.253-.307.52-.4.8a6.216 6.216 0 00-.22.78l-1.1 6.6h-1.82z"/><path fill="#fff" d="M136.573 277.256c-.64 0-1.113-.187-1.42-.56-.293-.387-.44-.9-.44-1.54a8 8 0 01.04-.72c.027-.28.067-.567.12-.86l1.14-6.86h1.8l-1.16 6.74-.08.58c-.026.186-.04.36-.04.52 0 .64.267.96.8.96.24 0 .454-.074.64-.22.187-.147.36-.34.52-.58.147-.214.267-.474.36-.78.094-.307.16-.58.2-.82l1.06-6.4h1.74l-1.1 6.78c-.026.2-.053.393-.08.58-.013.186-.02.353-.02.5 0 .64.254.96.76.96.32 0 .62-.167.9-.5.294-.347.54-.794.74-1.34.214-.56.38-1.187.5-1.88.134-.694.2-1.4.2-2.12 0-.48-.033-.954-.1-1.42-.066-.48-.173-.88-.32-1.2l1.62-.48c.187.36.334.806.44 1.34.107.52.16 1.1.16 1.74 0 1.2-.146 2.326-.44 3.38-.28 1.04-.68 1.906-1.2 2.6-.8 1.066-1.766 1.6-2.9 1.6-.626 0-1.093-.18-1.4-.54-.306-.36-.44-.894-.4-1.6h-.1c-.266.68-.606 1.206-1.02 1.58-.4.373-.906.56-1.52.56zm15.112.02c-1.413 0-2.48-.374-3.2-1.12-.706-.747-1.06-1.847-1.06-3.3 0-.947.14-1.807.42-2.58a6.222 6.222 0 011.2-2.02 5.434 5.434 0 011.84-1.3c.72-.32 1.514-.48 2.38-.48.52 0 1 .06 1.44.18.44.12.82.3 1.14.54.334.226.594.52.78.88.187.346.28.746.28 1.2 0 .386-.086.78-.26 1.18-.16.4-.5.766-1.02 1.1-.52.333-1.26.613-2.22.84-.96.226-2.226.366-3.8.42-.013.093-.02.18-.02.26v.14c0 .32.034.626.1.92.08.28.207.526.38.74.174.213.407.38.7.5.307.12.694.18 1.16.18.334 0 .634-.034.9-.1.28-.08.54-.2.78-.36.254-.16.5-.367.74-.62a9.65 9.65 0 00.8-.98l1.4.9c-.28.44-.58.84-.9 1.2-.32.346-.68.646-1.08.9-.386.24-.82.426-1.3.56-.466.146-.993.22-1.58.22zm1.38-9.18c-.88 0-1.6.26-2.16.78s-.926 1.313-1.1 2.38l-.04.22c1.12-.04 2.007-.127 2.66-.26.667-.147 1.174-.314 1.52-.5.36-.2.587-.414.68-.64.107-.227.16-.447.16-.66 0-.387-.133-.7-.4-.94-.253-.254-.693-.38-1.32-.38zm12.373 8.94l.4-2.44h-.08c-.387.8-.854 1.446-1.4 1.94-.547.493-1.267.74-2.16.74-1.067 0-1.86-.347-2.38-1.04-.507-.694-.76-1.68-.76-2.96 0-.827.093-1.647.28-2.46.2-.814.5-1.54.9-2.18.4-.64.9-1.16 1.5-1.56.613-.4 1.333-.6 2.16-.6.786 0 1.413.18 1.88.54.466.36.793.88.98 1.56h.1l.3-1.86h2.14l-1.72 10.32h-2.14zm-2.38-1.5c.786 0 1.493-.36 2.12-1.08.226-.254.44-.567.64-.94.2-.374.34-.8.42-1.28l.34-2.06c.106-.6-.027-1.074-.4-1.42-.36-.36-.9-.54-1.62-.54-.894 0-1.587.273-2.08.82-.48.533-.794 1.22-.94 2.06l-.24 1.42a4.611 4.611 0 00-.08.86c0 .653.146 1.18.44 1.58.293.386.76.58 1.4.58zm12.132 1.74c-.64 0-1.12-.174-1.44-.52-.32-.347-.48-.82-.48-1.42 0-.12.013-.26.04-.42.027-.174.053-.354.08-.54l.98-5.92h-2.84l.28-1.74h1.92c.387 0 .673-.074.86-.22.187-.16.313-.434.38-.82l.44-2.6h2l-.6 3.64h4.16l-.28 1.74h-4.18l-1.14 6.84.4.2 3.92-2.78 1.06 1.28-1.82 1.36c-.453.346-.853.64-1.2.88-.333.24-.647.44-.94.6a4.37 4.37 0 01-.82.32c-.253.08-.513.12-.78.12zm10.252-15.04h2.14l-1.16 6.92h.1c.387-.827.84-1.48 1.36-1.96.52-.48 1.2-.72 2.04-.72.92 0 1.613.28 2.08.84.48.546.72 1.26.72 2.14 0 .24-.013.493-.04.76a6.648 6.648 0 01-.12.9l-.98 5.92h-2.14l1-6c.027-.187.053-.38.08-.58.027-.214.04-.407.04-.58 0-.467-.12-.86-.36-1.18-.227-.32-.607-.48-1.14-.48-.4 0-.76.093-1.08.28-.307.186-.593.44-.86.76-.133.16-.327.44-.58.84-.24.4-.407.873-.5 1.42l-.92 5.52h-2.14l2.46-14.8zm14.212 15.04c-1.413 0-2.48-.374-3.2-1.12-.706-.747-1.06-1.847-1.06-3.3 0-.947.14-1.807.42-2.58a6.222 6.222 0 011.2-2.02 5.434 5.434 0 011.84-1.3c.72-.32 1.514-.48 2.38-.48.52 0 1 .06 1.44.18.44.12.82.3 1.14.54.334.226.594.52.78.88.187.346.28.746.28 1.2 0 .386-.086.78-.26 1.18-.16.4-.5.766-1.02 1.1-.52.333-1.26.613-2.22.84-.96.226-2.226.366-3.8.42-.013.093-.02.18-.02.26v.14c0 .32.034.626.1.92.08.28.207.526.38.74.174.213.407.38.7.5.307.12.694.18 1.16.18.334 0 .634-.034.9-.1.28-.08.54-.2.78-.36.254-.16.5-.367.74-.62a9.65 9.65 0 00.8-.98l1.4.9c-.28.44-.58.84-.9 1.2-.32.346-.68.646-1.08.9-.386.24-.82.426-1.3.56-.466.146-.993.22-1.58.22zm1.38-9.18c-.88 0-1.6.26-2.16.78s-.926 1.313-1.1 2.38l-.04.22c1.12-.04 2.007-.127 2.66-.26.667-.147 1.174-.314 1.52-.5.36-.2.587-.414.68-.64.107-.227.16-.447.16-.66 0-.387-.133-.7-.4-.94-.253-.254-.693-.38-1.32-.38zm8.332 8.94l1.42-8.58h-2.66l.3-1.74h4.8l-.5 2.92h.12c.387-.894.88-1.6 1.48-2.12.6-.534 1.4-.8 2.4-.8h1.2l-.36 2.14h-1.8c-.573 0-1.046.08-1.42.24a2.39 2.39 0 00-.96.74c-.133.16-.32.42-.56.78-.226.36-.38.78-.46 1.26l-.86 5.16h-2.14z"/><path fill="#909194" d="M43.192 277.276c-.786 0-1.486-.127-2.1-.38a4.33 4.33 0 01-1.56-1.08 4.962 4.962 0 01-.98-1.72c-.226-.667-.34-1.42-.34-2.26 0-1.014.154-1.967.46-2.86.307-.894.707-1.714 1.2-2.46a11.443 11.443 0 011.64-1.98 12.06 12.06 0 011.78-1.46h3c-.8.573-1.52 1.126-2.16 1.66-.64.533-1.2 1.08-1.68 1.64a9.578 9.578 0 00-1.18 1.78c-.32.613-.566 1.3-.74 2.06l.14.04c.147-.28.32-.54.52-.78.2-.254.434-.474.7-.66.267-.187.574-.334.92-.44a4 4 0 011.18-.16c.6 0 1.154.1 1.66.3.507.2.947.493 1.32.88.374.373.66.826.86 1.36.214.533.32 1.133.32 1.8 0 .693-.12 1.333-.36 1.92a4.05 4.05 0 01-1 1.48c-.426.413-.946.74-1.56.98a5.862 5.862 0 01-2.04.34zm-.02-1.8c.854 0 1.514-.227 1.98-.68.467-.467.7-1.12.7-1.96v-.2c0-.84-.233-1.487-.7-1.94-.466-.467-1.126-.7-1.98-.7-.84 0-1.493.233-1.96.7-.466.453-.7 1.1-.7 1.94v.2c0 .84.234 1.493.7 1.96.467.453 1.12.68 1.96.68z"/><path fill="#FF7CCA" d="M79.432 314.276c-1.013 0-1.893-.154-2.64-.46-.746-.32-1.326-.78-1.74-1.38l1.36-1.2c.734.933 1.794 1.4 3.18 1.4.787 0 1.4-.14 1.84-.42.454-.28.68-.68.68-1.2 0-.4-.126-.674-.38-.82-.24-.16-.546-.274-.92-.34l-1.5-.26a7.687 7.687 0 01-1.12-.28 3.345 3.345 0 01-.92-.48 2.598 2.598 0 01-.66-.8c-.16-.32-.24-.714-.24-1.18 0-.56.114-1.047.34-1.46.24-.427.56-.78.96-1.06a4.148 4.148 0 011.44-.64 6.838 6.838 0 011.78-.22c.92 0 1.714.14 2.38.42.68.266 1.214.633 1.6 1.1l-1.32 1.26c-.2-.28-.526-.54-.98-.78-.453-.24-1.053-.36-1.8-.36-.746 0-1.32.133-1.72.4-.386.266-.58.64-.58 1.12 0 .413.127.693.38.84.267.146.587.253.96.32l1.5.28c.374.066.734.16 1.08.28.347.106.654.26.92.46.28.186.5.44.66.76.174.306.26.693.26 1.16 0 .546-.113 1.04-.34 1.48-.226.44-.553.813-.98 1.12-.413.306-.92.54-1.52.7-.586.16-1.24.24-1.96.24zm14.052-.24l.4-2.44h-.08c-.386.8-.853 1.446-1.4 1.94-.546.493-1.266.74-2.16.74-1.066 0-1.86-.347-2.38-1.04-.506-.694-.76-1.68-.76-2.96 0-.827.094-1.647.28-2.46.2-.814.5-1.54.9-2.18.4-.64.9-1.16 1.5-1.56.614-.4 1.334-.6 2.16-.6.787 0 1.414.18 1.88.54.467.36.794.88.98 1.56h.1l.3-1.86h2.14l-1.72 10.32h-2.14zm-2.38-1.5c.787 0 1.494-.36 2.12-1.08a4.83 4.83 0 00.64-.94c.2-.374.34-.8.42-1.28l.34-2.06c.107-.6-.026-1.074-.4-1.42-.36-.36-.9-.54-1.62-.54-.893 0-1.586.273-2.08.82-.48.533-.793 1.22-.94 2.06l-.24 1.42a3.41 3.41 0 00-.06.42c-.013.146-.02.293-.02.44 0 .653.147 1.18.44 1.58.294.386.76.58 1.4.58zm7.073 1.5l1.72-10.32h1.82l-.28 1.7h.1c.24-.56.533-1.02.88-1.38.36-.374.82-.56 1.38-.56.56 0 .973.18 1.24.54.28.36.393.846.34 1.46h.08c.253-.6.573-1.08.96-1.44.4-.374.906-.56 1.52-.56.586 0 1.026.166 1.32.5.306.333.46.82.46 1.46 0 .2-.014.446-.04.74-.027.28-.06.54-.1.78l-1.18 7.08h-1.82l1.14-6.82a49.9 49.9 0 00.08-.6c.026-.214.04-.387.04-.52 0-.654-.26-.98-.78-.98-.454 0-.834.246-1.14.74-.147.24-.28.506-.4.8-.12.28-.207.573-.26.88l-1.08 6.5h-1.82l1.16-6.92c.026-.187.046-.36.06-.52.026-.174.04-.334.04-.48 0-.667-.24-1-.72-1-.454 0-.847.246-1.18.74a3.17 3.17 0 00-.4.8 6.052 6.052 0 00-.22.78l-1.1 6.6h-1.82zm14.472-10.32h2.14l-.4 2.44h.08c.2-.4.413-.76.64-1.08.227-.334.48-.62.76-.86s.593-.42.94-.54c.36-.134.767-.2 1.22-.2 1.067 0 1.853.346 2.36 1.04.52.693.78 1.68.78 2.96 0 .826-.1 1.646-.3 2.46a7.069 7.069 0 01-.88 2.18 5 5 0 01-1.52 1.56c-.6.4-1.313.6-2.14.6-.787 0-1.413-.18-1.88-.54-.467-.36-.793-.88-.98-1.56h-.1l-.96 5.86h-2.14l2.38-14.32zm3.02 8.82c.893 0 1.58-.267 2.06-.8.493-.547.813-1.24.96-2.08l.24-1.42c.027-.12.047-.254.06-.4.013-.16.02-.314.02-.46 0-.654-.147-1.174-.44-1.56-.293-.4-.76-.6-1.4-.6-.8 0-1.507.36-2.12 1.08a4.77 4.77 0 00-.64.94c-.2.373-.34.8-.42 1.28l-.34 2.06c-.107.6.02 1.08.38 1.44.373.346.92.52 1.64.52zm11.612 1.74c-.667 0-1.153-.167-1.46-.5-.293-.334-.44-.78-.44-1.34 0-.267.04-.614.12-1.04l2-10.42h-3.4l.3-1.74h5.58l-2.54 13.16.42.14 3.56-3.22 1.2 1.1-1.72 1.68c-.427.413-.807.76-1.14 1.04a8.09 8.09 0 01-.92.68c-.28.16-.547.273-.8.34-.253.08-.507.12-.76.12zm12.412 0c-1.413 0-2.48-.374-3.2-1.12-.706-.747-1.06-1.847-1.06-3.3 0-.947.14-1.807.42-2.58a6.222 6.222 0 011.2-2.02 5.434 5.434 0 011.84-1.3c.72-.32 1.514-.48 2.38-.48.52 0 1 .06 1.44.18.44.12.82.3 1.14.54.334.226.594.52.78.88.187.346.28.746.28 1.2 0 .386-.086.78-.26 1.18-.16.4-.5.766-1.02 1.1-.52.333-1.26.613-2.22.84-.96.226-2.226.366-3.8.42-.013.093-.02.18-.02.26v.14c0 .32.034.626.1.92.08.28.207.526.38.74.174.213.407.38.7.5.307.12.694.18 1.16.18.334 0 .634-.034.9-.1.28-.08.54-.2.78-.36.254-.16.5-.367.74-.62a9.65 9.65 0 00.8-.98l1.4.9c-.28.44-.58.84-.9 1.2-.32.346-.68.646-1.08.9-.386.24-.82.426-1.3.56-.466.146-.993.22-1.58.22zm1.38-9.18c-.88 0-1.6.26-2.16.78s-.926 1.313-1.1 2.38l-.04.22c1.12-.04 2.007-.127 2.66-.26.667-.147 1.174-.314 1.52-.5.36-.2.587-.414.68-.64.107-.227.16-.447.16-.66 0-.387-.133-.7-.4-.94-.253-.254-.693-.38-1.32-.38zm20.285-5.86h2.14l-1.14 6.92h.08c.2-.4.413-.76.64-1.08.226-.334.48-.62.76-.86s.593-.42.94-.54c.36-.134.766-.2 1.22-.2 1.066 0 1.853.346 2.36 1.04.52.693.78 1.68.78 2.96 0 .826-.1 1.646-.3 2.46a7.069 7.069 0 01-.88 2.18 5 5 0 01-1.52 1.56c-.6.4-1.314.6-2.14.6-.787 0-1.414-.18-1.88-.54-.467-.36-.794-.88-.98-1.56h-.1l-.3 1.86h-2.14l2.46-14.8zm2.28 13.3c.893 0 1.58-.267 2.06-.8.493-.547.813-1.24.96-2.08l.24-1.42c.026-.12.046-.254.06-.4.013-.16.02-.314.02-.46 0-.654-.147-1.174-.44-1.56-.294-.4-.76-.6-1.4-.6-.8 0-1.507.36-2.12 1.08a4.77 4.77 0 00-.64.94c-.2.373-.34.8-.42 1.28l-.34 2.06c-.107.6.02 1.08.38 1.44.373.346.92.52 1.64.52zm10.672 5.74c-.893 0-1.66-.114-2.3-.34a3.591 3.591 0 01-1.58-1.12l1.36-1.36c.573.72 1.42 1.08 2.54 1.08.853 0 1.54-.227 2.06-.68.533-.454.893-1.267 1.08-2.44l.34-2.14h-.08c-.387.826-.84 1.48-1.36 1.96-.52.48-1.2.72-2.04.72-.92 0-1.62-.274-2.1-.82-.467-.56-.7-1.28-.7-2.16 0-.24.007-.487.02-.74.027-.267.073-.574.14-.92l.92-5.6h2.14l-.94 5.68c-.027.186-.053.386-.08.6-.027.2-.04.386-.04.56 0 .466.113.86.34 1.18.24.32.627.48 1.16.48.4 0 .753-.094 1.06-.28.32-.187.613-.44.88-.76.133-.16.32-.44.56-.84.253-.4.427-.874.52-1.42l.86-5.2h2.14l-1.68 10.04c-.267 1.586-.853 2.733-1.76 3.44-.907.72-2.06 1.08-3.46 1.08z"/><path fill="#fff" d="M194.954 314.036l.3-1.84h3.9l1.76-10.48h-.18l-3.74 3.48-1.24-1.26 4.12-3.86h3.5l-2.02 12.12h3.38l-.3 1.84h-9.48zm20.292-6.68l.78-4.24h-.16l-4.04 7.18-1.62-7.18h-.16l-.64 4.24-1.1 6.68h-1.96l2.32-13.96h2.6l1.24 5.58h.14l3.1-5.58h2.66l-2.32 13.96h-1.96l1.12-6.68zm7.333 3.66h3.04l-3.38 5.92h-1.72l2.06-5.92zm1.84-4.26c-.56 0-.96-.1-1.2-.3a1.032 1.032 0 01-.34-.78c0-.107.006-.22.02-.34.026-.12.053-.274.08-.46.066-.427.253-.76.56-1 .32-.24.76-.36 1.32-.36s.953.106 1.18.32c.24.2.36.453.36.76 0 .106-.014.22-.04.34-.014.12-.034.273-.06.46-.067.426-.26.76-.58 1-.307.24-.74.36-1.3.36z"/><path fill="#909194" d="M40.532 314.036l5.18-12.1h-5.44v2.58h-1.94v-4.44h9.62v1.96l-5.04 12h-2.38zm2.62 37.24c-.826 0-1.553-.1-2.18-.3-.626-.214-1.153-.5-1.58-.86a3.66 3.66 0 01-.98-1.28 4.043 4.043 0 01-.32-1.62c0-.934.26-1.68.78-2.24.52-.56 1.2-.954 2.04-1.18v-.16c-.72-.254-1.3-.654-1.74-1.2-.44-.547-.66-1.22-.66-2.02 0-1.08.4-1.947 1.2-2.6.814-.654 1.96-.98 3.44-.98s2.62.326 3.42.98c.814.653 1.22 1.52 1.22 2.6 0 .8-.22 1.473-.66 2.02-.44.546-1.02.946-1.74 1.2v.16c.84.226 1.52.62 2.04 1.18.52.56.78 1.306.78 2.24 0 .586-.113 1.126-.34 1.62-.213.493-.533.92-.96 1.28-.426.36-.953.646-1.58.86-.626.2-1.353.3-2.18.3zm0-1.78c.88 0 1.554-.194 2.02-.58.48-.387.72-.934.72-1.64v-.42c0-.707-.24-1.254-.72-1.64-.466-.387-1.14-.58-2.02-.58-.88 0-1.56.193-2.04.58-.466.386-.7.933-.7 1.64v.42c0 .706.234 1.253.7 1.64.48.386 1.16.58 2.04.58zm0-6.58c.8 0 1.407-.174 1.82-.52.427-.36.64-.86.64-1.5v-.26c0-.64-.213-1.134-.64-1.48-.413-.36-1.02-.54-1.82-.54s-1.413.18-1.84.54c-.413.346-.62.84-.62 1.48v.26c0 .64.207 1.14.62 1.5.427.346 1.04.52 1.84.52z"/><path fill="#fff" d="M305.453 105.036h176v109a6 6 0 01-6 6h-164a6 6 0 01-6-6v-109z"/><path fill="#D14671" d="M314.509 125.561v-1.116h2.352v-6.276h-.096l-1.944 2.076-.828-.744 2.136-2.316h2.076v7.26h2.028v1.116h-5.724zm5.484 21.346h-5.784v-1.284l2.736-2.388c.432-.384.764-.748.996-1.092.24-.344.36-.708.36-1.092v-.132c0-.44-.12-.776-.36-1.008-.24-.24-.588-.36-1.044-.36-.464 0-.824.124-1.08.372a2.171 2.171 0 00-.54.948l-1.176-.444c.08-.264.196-.516.348-.756.152-.248.344-.468.576-.66.24-.192.52-.344.84-.456a3.485 3.485 0 011.128-.168c.432 0 .816.064 1.152.192.344.12.632.288.864.504.232.216.408.476.528.78.12.296.18.624.18.984 0 .336-.052.648-.156.936-.096.28-.236.552-.42.816-.176.256-.388.504-.636.744s-.52.48-.816.72l-2.028 1.704h4.332v1.14zm-3.288 16.426c.536 0 .932-.112 1.188-.336.264-.232.396-.52.396-.864v-.084c0-.384-.128-.676-.384-.876-.248-.208-.584-.312-1.008-.312-.408 0-.756.092-1.044.276-.28.184-.516.436-.708.756l-.912-.78c.128-.184.276-.36.444-.528.168-.168.36-.312.576-.432.216-.128.464-.228.744-.3.28-.08.596-.12.948-.12.392 0 .756.048 1.092.144.336.096.628.24.876.432a1.9 1.9 0 01.576.684c.136.264.204.564.204.9 0 .264-.044.504-.132.72-.08.216-.196.408-.348.576a1.81 1.81 0 01-.516.396c-.2.104-.412.18-.636.228v.06c.24.048.468.128.684.24.216.104.408.244.576.42.168.168.3.372.396.612.096.232.144.5.144.804 0 .368-.072.704-.216 1.008a2.207 2.207 0 01-.624.768 2.88 2.88 0 01-.96.504 4.407 4.407 0 01-1.26.168 3.76 3.76 0 01-1.044-.132 3.22 3.22 0 01-.792-.324 3.385 3.385 0 01-.612-.48 4.726 4.726 0 01-.444-.564l.996-.768c.208.336.452.612.732.828.288.208.68.312 1.176.312.528 0 .932-.12 1.212-.36.28-.248.42-.588.42-1.02v-.096c0-.432-.148-.76-.444-.984-.288-.232-.708-.348-1.26-.348h-.9v-1.128h.864zm1.092 26.266v-1.632h-3.984v-1.152l3.504-5.592h1.764v5.688h1.176v1.056h-1.176v1.632h-1.284zm-2.844-2.688h2.844v-4.452h-.072l-2.772 4.452zm4.632 16.821h-3.804l-.216 2.976h.096a2.45 2.45 0 01.696-.78c.272-.2.644-.3 1.116-.3.36 0 .692.06.996.18.312.12.58.292.804.516.232.224.412.5.54.828.136.32.204.684.204 1.092 0 .416-.068.8-.204 1.152a2.62 2.62 0 01-.588.9 2.761 2.761 0 01-.948.588 3.76 3.76 0 01-1.284.204 3.538 3.538 0 01-1.788-.456 3.2 3.2 0 01-.588-.48 4.726 4.726 0 01-.444-.564l.984-.768c.104.16.212.312.324.456.12.136.252.256.396.36.144.104.308.184.492.24.192.056.408.084.648.084.52 0 .916-.14 1.188-.42.272-.288.408-.676.408-1.164v-.096c0-.488-.14-.868-.42-1.14-.272-.272-.664-.408-1.176-.408-.376 0-.672.068-.888.204a2.927 2.927 0 00-.564.456l-1.116-.156.312-4.668h4.824v1.164z"/><path fill="#EAEAEA" d="M305.453 102.036a6 6 0 016-6h164a6 6 0 016 6v3h-176v-3z"/><circle cx="311.127" cy="100.514" r="1.493" fill="#6422F1"/><circle cx="315.307" cy="100.514" r="1.493" fill="#F46591"/><circle cx="319.486" cy="100.514" r="1.493" fill="#2BD38D"/><rect width="86" height="7" x="326.453" y="119.036" fill="#D7D7D7" rx="3.5"/><rect width="52.548" height="7.166" x="346.656" y="140.058" fill="#EAEAEA" rx="3.583"/><rect width="16" height="7" x="326.453" y="140.036" fill="#EAEAEA" rx="3.5"/><rect width="37.62" height="7.166" x="326.95" y="161.036" fill="#D7D7D7" rx="3.583"/><rect width="37.62" height="7.166" x="326.95" y="181.036" fill="#EAEAEA" rx="3.583"/><rect width="60" height="7" x="326.453" y="202.036" fill="#EAEAEA" rx="3.5"/><rect width="33.44" height="7.166" x="368.153" y="181.036" fill="#D7D7D7" rx="3.583"/><rect width="22.691" height="7.166" x="405.176" y="181.036" fill="#EAEAEA" rx="3.583"/><rect width="37.62" height="7.166" x="369.453" y="161.036" fill="#EAEAEA" rx="3.583"/><g filter="url(#filter0_d)"><rect width="219.878" height="171.017" x="281.453" y="294.168" fill="#D14671" rx="5"/></g><path stroke="#fff" stroke-linecap="round" stroke-linejoin="round" stroke-miterlimit="10" stroke-opacity=".1" stroke-width="2.11" d="M304.012 362.643l22.397 17.603 17.58-24.159 21.433 17.118 13.004-16.146 11.921 15.175 30.464-16.147 9.512 24.159 21.433-11.047 26.972 12.019"/><path stroke="#fff" stroke-linecap="round" stroke-linejoin="round" stroke-miterlimit="10" d="M297.74 407.742l25.744-26.847 17.5 16.469 21.558-45.572 21.559 6.994 22.699-29.329 5.2 84.151 13.315-43.316 15.471 18.725 14.457-22.11 29.801 10.604"/><circle cx="297.74" cy="408.179" r="2.415" fill="#D14671" stroke="#fff" stroke-width=".6"/><circle cx="322.171" cy="381.033" r="2.415" fill="#D14671" stroke="#fff" stroke-width=".6"/><circle cx="341.173" cy="397.321" r="2.415" fill="#D14671" stroke="#fff" stroke-width=".6"/><circle cx="362.89" cy="351.173" r="2.415" fill="#D14671" stroke="#fff" stroke-width=".6"/><circle cx="406.322" cy="329.457" r="2.415" fill="#D14671" stroke="#fff" stroke-width=".6"/><circle cx="487.759" cy="378.319" r="2.415" fill="#D14671" stroke="#fff" stroke-width=".6"/><circle cx="411.751" cy="413.608" r="2.415" fill="#D14671" stroke="#fff" stroke-width=".6"/><circle cx="384.606" cy="359.317" r="2.415" fill="#D14671" stroke="#fff" stroke-width=".6"/><circle cx="425.324" cy="370.175" r="2.415" fill="#D14671" stroke="#fff" stroke-width=".6"/><circle cx="455.184" cy="367.461" r="2.415" fill="#D14671" stroke="#fff" stroke-width=".6"/><circle cx="441.612" cy="389.177" r="2.415" fill="#D14671" stroke="#fff" stroke-width=".6"/><path fill="#fff" d="M295.026 435.324h195.448v5.43H295.026z"/><defs><filter id="filter0_d" width="227.878" height="179.017" x="277.453" y="294.168" color-interpolation-filters="sRGB" filterUnits="userSpaceOnUse"><feFlood flood-opacity="0" result="BackgroundImageFix"/><feColorMatrix in="SourceAlpha" values="0 0 0 0 0 0 0 0 0 0 0 0 0 0 0 0 0 0 127 0"/><feOffset dy="4"/><feGaussianBlur stdDeviation="2"/><feColorMatrix values="0 0 0 0 0 0 0 0 0 0 0 0 0 0 0 0 0 0 0.17 0"/><feBlend in2="BackgroundImageFix" result="effect1_dropShadow"/><feBlend in="SourceGraphic" in2="effect1_dropShadow" result="shape"/></filter></defs></svg>