<svg width="88" height="111" viewBox="0 0 88 111" fill="none" xmlns="http://www.w3.org/2000/svg"><path d="M7.074 35.517c3.642 0 6.594-3 6.594-6.7s-2.952-6.7-6.594-6.7c-3.642 0-6.594 3-6.594 6.7s2.952 6.7 6.594 6.7zm0 18.758c3.642 0 6.594-3 6.594-6.7s-2.952-6.699-6.594-6.699c-3.642 0-6.594 3-6.594 6.7s2.952 6.699 6.594 6.699z" fill="#fff"/><path opacity=".2" d="M25.537 35.517c3.642 0 6.594-3 6.594-6.7s-2.952-6.7-6.594-6.7c-3.642 0-6.594 3-6.594 6.7s2.952 6.7 6.594 6.7z" fill="#fff"/><path d="M25.537 54.457c3.642 0 6.594-3 6.594-6.7s-2.952-6.699-6.594-6.699c-3.642 0-6.594 3-6.594 6.7s2.952 6.699 6.594 6.699z" fill="#fff"/><path opacity=".2" d="M44 35.517c3.642 0 6.594-3 6.594-6.7s-2.952-6.7-6.594-6.7c-3.642 0-6.594 3-6.594 6.7s2.952 6.7 6.594 6.7zm0-21.438c3.642 0 6.594-3 6.594-6.7S47.642.68 44 .68c-3.642 0-6.594 3-6.594 6.7s2.952 6.699 6.594 6.699zm0 40.378c3.642 0 6.594-3 6.594-6.7S47.642 41.059 44 41.059c-3.642 0-6.594 3-6.594 6.7s2.952 6.699 6.594 6.699zm18.463-18.94c3.642 0 6.594-3 6.594-6.7s-2.952-6.7-6.594-6.7c-3.642 0-6.594 3-6.594 6.7s2.952 6.7 6.594 6.7z" fill="#fff"/><path d="M80.926 35.517c3.642 0 6.594-3 6.594-6.7s-2.952-6.7-6.594-6.7c-3.642 0-6.594 3-6.594 6.7s2.952 6.7 6.594 6.7zm-18.463 18.94c3.642 0 6.594-3 6.594-6.7s-2.952-6.699-6.594-6.699c-3.642 0-6.594 3-6.594 6.7s2.952 6.699 6.594 6.699zm18.463 0c3.642 0 6.594-3 6.594-6.7s-2.952-6.699-6.594-6.699c-3.642 0-6.594 3-6.594 6.7s2.952 6.699 6.594 6.699zM7.074 73.033c3.642 0 6.594-3 6.594-6.7s-2.952-6.699-6.594-6.699c-3.642 0-6.594 3-6.594 6.7s2.952 6.699 6.594 6.699z" fill="#fff"/><path opacity=".2" d="M25.537 73.215c3.642 0 6.594-3 6.594-6.7s-2.952-6.699-6.594-6.699c-3.642 0-6.594 3-6.594 6.7s2.952 6.7 6.594 6.7z" fill="#fff"/><path d="M44 73.215c3.642 0 6.594-3 6.594-6.7S47.642 59.817 44 59.817c-3.642 0-6.594 3-6.594 6.7s2.952 6.7 6.594 6.7z" fill="#fff"/><path opacity=".2" d="M62.463 73.215c3.642 0 6.594-3 6.594-6.7s-2.952-6.699-6.594-6.699c-3.642 0-6.594 3-6.594 6.7s2.952 6.7 6.594 6.7z" fill="#fff"/><path d="M80.926 73.215c3.642 0 6.594-3 6.594-6.7s-2.952-6.699-6.594-6.699c-3.642 0-6.594 3-6.594 6.7s2.952 6.7 6.594 6.7zM7.074 91.791c3.642 0 6.594-3 6.594-6.7s-2.952-6.699-6.594-6.699c-3.642 0-6.594 3-6.594 6.7s2.952 6.699 6.594 6.699z" fill="#fff"/><path opacity=".2" d="M25.537 91.973c3.642 0 6.594-3 6.594-6.7s-2.952-6.698-6.594-6.698c-3.642 0-6.594 2.999-6.594 6.699 0 3.7 2.952 6.7 6.594 6.7zm18.463 0c3.642 0 6.594-3 6.594-6.7S47.642 78.576 44 78.576c-3.642 0-6.594 2.999-6.594 6.699 0 3.7 2.952 6.7 6.594 6.7zm0 18.758c3.642 0 6.594-2.999 6.594-6.699 0-3.7-2.952-6.7-6.594-6.7-3.642 0-6.594 3-6.594 6.7s2.952 6.699 6.594 6.699zm18.463-18.758c3.642 0 6.594-3 6.594-6.7s-2.952-6.698-6.594-6.698c-3.642 0-6.594 2.999-6.594 6.699 0 3.7 2.952 6.7 6.594 6.7z" fill="#fff"/><path d="M80.926 91.973c3.642 0 6.594-3 6.594-6.7s-2.952-6.698-6.594-6.698c-3.642 0-6.594 2.999-6.594 6.699 0 3.7 2.952 6.7 6.594 6.7z" fill="#fff"/></svg>