<svg xmlns="http://www.w3.org/2000/svg" width="1000" height="200"><defs><style type="text/css">@namespace &quot;http://www.w3.org/2000/svg&quot;;text.nonterminal,text.terminal{font-family:-apple-system,BlinkMacSystemFont,&quot;Segoe UI&quot;,Roboto,Ubuntu,Cantarell,Helvetica,sans-serif;font-size:12px}text.terminal{fill:#fff;font-weight:700}text.nonterminal{fill:#e289a4;font-weight:400}polygon,rect{fill:none;stroke:none}rect.terminal{fill:none;stroke:#be2f5b}rect.nonterminal{fill:rgba(255,255,255,.1);stroke:none}</style></defs><polygon points="9 17 1 13 1 21"/><polygon points="17 17 9 13 9 21"/><rect x="31" y="3" width="64" height="32" rx="10"/><rect x="29" y="1" width="64" height="32" class="terminal" rx="10"/><text class="terminal" x="39" y="21">ALIGN</text><rect x="115" y="3" width="38" height="32" rx="10"/><rect x="113" y="1" width="38" height="32" class="terminal" rx="10"/><text class="terminal" x="123" y="21">TO</text><rect x="193" y="3" width="60" height="32" rx="10"/><rect x="191" y="1" width="60" height="32" class="terminal" rx="10"/><text class="terminal" x="201" y="21">FIRST</text><rect x="273" y="3" width="120" height="32" rx="10"/><rect x="271" y="1" width="120" height="32" class="terminal" rx="10"/><text class="terminal" x="281" y="21">OBSERVATION</text><rect x="193" y="47" width="92" height="32" rx="10"/><rect x="191" y="45" width="92" height="32" class="terminal" rx="10"/><text class="terminal" x="201" y="65">CALENDAR</text><rect x="325" y="79" width="54" height="32" rx="10"/><rect x="323" y="77" width="54" height="32" class="terminal" rx="10"/><text class="terminal" x="333" y="97">TIME</text><rect x="399" y="79" width="58" height="32" rx="10"/><rect x="397" y="77" width="58" height="32" class="terminal" rx="10"/><text class="terminal" x="407" y="97">ZONE</text><a xmlns:xlink="http://www.w3.org/1999/xlink" xlink:href="#timezone" xlink:title="timezone"><rect x="477" y="79" width="78" height="32"/><rect x="475" y="77" width="78" height="32" class="nonterminal"/><text class="nonterminal" x="485" y="97">timezone</text></a><rect x="325" y="123" width="58" height="32" rx="10"/><rect x="323" y="121" width="58" height="32" class="terminal" rx="10"/><text class="terminal" x="333" y="141">WITH</text><rect x="403" y="123" width="72" height="32" rx="10"/><rect x="401" y="121" width="72" height="32" class="terminal" rx="10"/><text class="terminal" x="411" y="141">OFFSET</text><a xmlns:xlink="http://www.w3.org/1999/xlink" xlink:href="#offset" xlink:title="offset"><rect x="495" y="123" width="56" height="32"/><rect x="493" y="121" width="56" height="32" class="nonterminal"/><text class="nonterminal" x="503" y="141">offset</text></a><path xmlns:svg="http://www.w3.org/2000/svg" d="M17 17h2m0 0h10m64 0h10m0 0h10m38 0h10m20 0h10m60 0h10m0 0h10m120 0h10m0 0h182m-422 0h20m402 0h20m-442 0q10 0 10 10m422 0q0-10 10-10M171 27v24m422 0V27M171 51q0 10 10 10m402 0q10 0 10-10M181 61h10m92 0h10m20 0h10m0 0h240m-270 0h20m250 0h20m-290 0q10 0 10 10m270 0q0-10 10-10M303 71v12m270 0V71M303 83q0 10 10 10m250 0q10 0 10-10M313 93h10m54 0h10m0 0h10m58 0h10m0 0h10m78 0h10M303 83v20m270 0V83m-270 20v24m270 0v-24m-270 24q0 10 10 10m250 0q10 0 10-10m-260 10h10m58 0h10m0 0h10m72 0h10m0 0h10m56 0h10m0 0h4m43-120h-3" fill="none" stroke="#636273"/><polygon points="613 17 621 13 621 21"/><polygon points="613 17 605 13 605 21"/></svg>