<svg xmlns="http://www.w3.org/2000/svg" width="1000" height="200">
         <defs>
            <style type="text/css">
                @namespace "http://www.w3.org/2000/svg";
                .line                 {fill: none; stroke: #636273;}
                .bold-line            {stroke: #636273; shape-rendering: crispEdges; stroke-width: 2; }
                .thin-line            {stroke: #636273; shape-rendering: crispEdges}
                .filled               {fill: #636273; stroke: none;}
                text.terminal         {font-family: -apple-system, BlinkMacSystemFont, "Segoe UI", Roboto, Ubuntu, Cantarell, Helvetica, sans-serif;
                font-size: 12px;
                fill: #ffffff;
                font-weight: bold;
                }
                text.nonterminal      {font-family: -apple-system, BlinkMacSystemFont, "Segoe UI", Roboto, Ubuntu, Cantarell, Helvetica, sans-serif;
                font-size: 12px;
                fill: #e289a4;
                font-weight: normal;
                }
                text.regexp           {font-family: -apple-system, BlinkMacSystemFont, "Segoe UI", Roboto, Ubuntu, Cantarell, Helvetica, sans-serif;
                font-size: 12px;
                fill: #00141F;
                font-weight: normal;
                }
                rect, circle, polygon {fill: none; stroke: none;}
                rect.terminal         {fill: none; stroke: #be2f5b;}
                rect.nonterminal      {fill: rgba(255,255,255,0.1); stroke: none;}
                rect.text             {fill: none; stroke: none;}
                polygon.regexp        {fill: #C7ECFF; stroke: #038cbc;}
  </style>
         </defs>
         <polygon points="9 61 1 57 1 65"/>
         <polygon points="17 61 9 57 9 65"/>
         <rect x="51" y="47" width="56" height="32" rx="10"/>
         <rect x="49" y="45" width="56" height="32" class="terminal" rx="10"/>
         <text class="terminal" x="59" y="65">ASOF</text>
         <rect x="51" y="91" width="36" height="32" rx="10"/>
         <rect x="49" y="89" width="36" height="32" class="terminal" rx="10"/>
         <text class="terminal" x="59" y="109">LT</text>
         <rect x="51" y="135" width="70" height="32" rx="10"/>
         <rect x="49" y="133" width="70" height="32" class="terminal" rx="10"/>
         <text class="terminal" x="59" y="153">SPLICE</text>
         <rect x="161" y="47" width="54" height="32" rx="10"/>
         <rect x="159" y="45" width="54" height="32" class="terminal" rx="10"/>
         <text class="terminal" x="169" y="65">JOIN</text><a xmlns:xlink="http://www.w3.org/1999/xlink" xlink:href="#table" xlink:title="table">
            <rect x="255" y="47" width="52" height="32"/>
            <rect x="253" y="45" width="52" height="32" class="nonterminal"/>
            <text class="nonterminal" x="263" y="65">table</text></a><rect x="255" y="91" width="26" height="32" rx="10"/>
         <rect x="253" y="89" width="26" height="32" class="terminal" rx="10"/>
         <text class="terminal" x="263" y="109">(</text><a xmlns:xlink="http://www.w3.org/1999/xlink" xlink:href="#sub-query" xlink:title="sub-query">
            <rect x="301" y="91" width="84" height="32"/>
            <rect x="299" y="89" width="84" height="32" class="nonterminal"/>
            <text class="nonterminal" x="309" y="109">sub-query</text></a><rect x="405" y="91" width="26" height="32" rx="10"/>
         <rect x="403" y="89" width="26" height="32" class="terminal" rx="10"/>
         <text class="terminal" x="413" y="109">)</text>
         <rect x="491" y="47" width="40" height="32" rx="10"/>
         <rect x="489" y="45" width="40" height="32" class="terminal" rx="10"/>
         <text class="terminal" x="499" y="65">ON</text><a xmlns:xlink="http://www.w3.org/1999/xlink" xlink:href="#column" xlink:title="column">
            <rect x="591" y="47" width="64" height="32"/>
            <rect x="589" y="45" width="64" height="32" class="nonterminal"/>
            <text class="nonterminal" x="599" y="65">column</text></a><rect x="675" y="47" width="30" height="32" rx="10"/>
         <rect x="673" y="45" width="30" height="32" class="terminal" rx="10"/>
         <text class="terminal" x="683" y="65">=</text><a xmlns:xlink="http://www.w3.org/1999/xlink" xlink:href="#anotherColumn" xlink:title="anotherColumn">
            <rect x="725" y="47" width="118" height="32"/>
            <rect x="723" y="45" width="118" height="32" class="nonterminal"/>
            <text class="nonterminal" x="733" y="65">anotherColumn</text></a><rect x="591" y="3" width="48" height="32" rx="10"/>
         <rect x="589" y="1" width="48" height="32" class="terminal" rx="10"/>
         <text class="terminal" x="599" y="21">AND</text>
         <rect x="571" y="135" width="26" height="32" rx="10"/>
         <rect x="569" y="133" width="26" height="32" class="terminal" rx="10"/>
         <text class="terminal" x="579" y="153">(</text><a xmlns:xlink="http://www.w3.org/1999/xlink" xlink:href="#column" xlink:title="column">
            <rect x="637" y="135" width="64" height="32"/>
            <rect x="635" y="133" width="64" height="32" class="nonterminal"/>
            <text class="nonterminal" x="645" y="153">column</text></a><rect x="637" y="91" width="24" height="32" rx="10"/>
         <rect x="635" y="89" width="24" height="32" class="terminal" rx="10"/>
         <text class="terminal" x="645" y="109">,</text>
         <rect x="741" y="135" width="26" height="32" rx="10"/>
         <rect x="739" y="133" width="26" height="32" class="terminal" rx="10"/>
         <text class="terminal" x="749" y="153">)</text>
         <path class="line" d="m17 61 h2 m20 0 h10 m56 0 h10 m0 0 h14 m-110 0 h20 m90 0 h20 m-130 0 q10 0 10 10 m110 0 q0 -10 10 -10 m-120 10 v24 m110 0 v-24 m-110 24 q0 10 10 10 m90 0 q10 0 10 -10 m-100 10 h10 m36 0 h10 m0 0 h34 m-100 -10 v20 m110 0 v-20 m-110 20 v24 m110 0 v-24 m-110 24 q0 10 10 10 m90 0 q10 0 10 -10 m-100 10 h10 m70 0 h10 m20 -88 h10 m54 0 h10 m20 0 h10 m52 0 h10 m0 0 h124 m-216 0 h20 m196 0 h20 m-236 0 q10 0 10 10 m216 0 q0 -10 10 -10 m-226 10 v24 m216 0 v-24 m-216 24 q0 10 10 10 m196 0 q10 0 10 -10 m-206 10 h10 m26 0 h10 m0 0 h10 m84 0 h10 m0 0 h10 m26 0 h10 m40 -44 h10 m40 0 h10 m40 0 h10 m64 0 h10 m0 0 h10 m30 0 h10 m0 0 h10 m118 0 h10 m-292 0 l20 0 m-1 0 q-9 0 -9 -10 l0 -24 q0 -10 10 -10 m272 44 l20 0 m-20 0 q10 0 10 -10 l0 -24 q0 -10 -10 -10 m-272 0 h10 m48 0 h10 m0 0 h204 m-312 44 h20 m312 0 h20 m-352 0 q10 0 10 10 m332 0 q0 -10 10 -10 m-342 10 v68 m332 0 v-68 m-332 68 q0 10 10 10 m312 0 q10 0 10 -10 m-322 10 h10 m26 0 h10 m20 0 h10 m64 0 h10 m-104 0 l20 0 m-1 0 q-9 0 -9 -10 l0 -24 q0 -10 10 -10 m84 44 l20 0 m-20 0 q10 0 10 -10 l0 -24 q0 -10 -10 -10 m-84 0 h10 m24 0 h10 m0 0 h40 m20 44 h10 m26 0 h10 m0 0 h96 m-412 -88 h20 m412 0 h20 m-452 0 q10 0 10 10 m432 0 q0 -10 10 -10 m-442 10 v102 m432 0 v-102 m-432 102 q0 10 10 10 m412 0 q10 0 10 -10 m-422 10 h10 m0 0 h402 m23 -122 h-3"/>
         <polygon points="921 61 929 57 929 65"/>
         <polygon points="921 61 913 57 913 65"/></svg>