<svg xmlns="http://www.w3.org/2000/svg" width="779" height="85"><defs><style type="text/css">@namespace &quot;http://www.w3.org/2000/svg&quot;;text.nonterminal,text.terminal{font-family:-apple-system,BlinkMacSystemFont,&quot;Segoe UI&quot;,Roboto,Ubuntu,Cantarell,Helvetica,sans-serif;font-size:12px}text.terminal{fill:#fff;font-weight:700}text.nonterminal{fill:#e289a4;font-weight:400}polygon,rect{fill:none;stroke:none}rect.terminal{fill:none;stroke:#be2f5b}rect.nonterminal{fill:rgba(255,255,255,.1);stroke:none}</style></defs><polygon points="9 33 1 29 1 37"/><polygon points="17 33 9 29 9 37"/><rect x="31" y="19" width="56" height="32" rx="10"/><rect x="29" y="17" width="56" height="32" class="terminal" rx="10"/><text class="terminal" x="39" y="37">CASE</text><rect x="147" y="19" width="62" height="32" rx="10"/><rect x="145" y="17" width="62" height="32" class="terminal" rx="10"/><text class="terminal" x="155" y="37">WHEN</text><a xmlns:xlink="http://www.w3.org/1999/xlink" xlink:href="#condition" xlink:title="condition"><rect x="229" y="19" width="78" height="32"/><rect x="227" y="17" width="78" height="32" class="nonterminal"/><text class="nonterminal" x="237" y="37">condition</text></a><rect x="327" y="19" width="56" height="32" rx="10"/><rect x="325" y="17" width="56" height="32" class="terminal" rx="10"/><text class="terminal" x="335" y="37">THEN</text><a xmlns:xlink="http://www.w3.org/1999/xlink" xlink:href="#value" xlink:title="value"><rect x="403" y="19" width="54" height="32"/><rect x="401" y="17" width="54" height="32" class="nonterminal"/><text class="nonterminal" x="411" y="37">value</text></a><rect x="537" y="51" width="52" height="32" rx="10"/><rect x="535" y="49" width="52" height="32" class="terminal" rx="10"/><text class="terminal" x="545" y="69">ELSE</text><a xmlns:xlink="http://www.w3.org/1999/xlink" xlink:href="#value" xlink:title="value"><rect x="609" y="51" width="54" height="32"/><rect x="607" y="49" width="54" height="32" class="nonterminal"/><text class="nonterminal" x="617" y="69">value</text></a><rect x="703" y="19" width="48" height="32" rx="10"/><rect x="701" y="17" width="48" height="32" class="terminal" rx="10"/><text class="terminal" x="711" y="37">END</text><path xmlns:svg="http://www.w3.org/2000/svg" d="M17 33h2m0 0h10m56 0h10m40 0h10m62 0h10m0 0h10m78 0h10m0 0h10m56 0h10m0 0h10m54 0h10m-350 0h20m-1 0q-9 0-9-10V11q0-10 10-10m330 32h20m-20 0q10 0 10-10V11q0-10-10-10M135 1h10m0 0h320M95 33h20m370 0h20M95 33q10 0 10 10m390 0q0-10 10-10M105 43v14m390 0V43M105 57q0 10 10 10m370 0q10 0 10-10M115 67h10m0 0h360m40-34h10m0 0h136m-166 0h20m146 0h20m-186 0q10 0 10 10m166 0q0-10 10-10M515 43v12m166 0V43M515 55q0 10 10 10m146 0q10 0 10-10M525 65h10m52 0h10m0 0h10m54 0h10m20-32h10m48 0h10m3 0h-3" fill="none" stroke="#636273"/><polygon points="769 33 777 29 777 37"/><polygon points="769 33 761 29 761 37"/></svg>