<svg xmlns="http://www.w3.org/2000/svg" width="800" height="80">
    <defs>
       <style type="text/css">
           @namespace "http://www.w3.org/2000/svg";
           .line                 {fill: none; stroke: #636273;}
           .bold-line            {stroke: #636273; shape-rendering: crispEdges; stroke-width: 2; }
           .thin-line            {stroke: #636273; shape-rendering: crispEdges}
           .filled               {fill: #636273; stroke: none;}
           text.terminal         {font-family: -apple-system, BlinkMacSystemFont, "Segoe UI", Roboto, Ubuntu, Cantarell, Helvetica, sans-serif;
           font-size: 12px;
           fill: #ffffff;
           font-weight: bold;
           }
           text.nonterminal      {font-family: -apple-system, BlinkMacSystemFont, "Segoe UI", Roboto, Ubuntu, Cantarell, Helvetica, sans-serif;
           font-size: 12px;
           fill: #e289a4;
           font-weight: normal;
           }
           text.regexp           {font-family: -apple-system, BlinkMacSystemFont, "Segoe UI", Roboto, Ubuntu, Cantarell, Helvetica, sans-serif;
           font-size: 12px;
           fill: #00141F;
           font-weight: normal;
           }
           rect, circle, polygon {fill: none; stroke: none;}
           rect.terminal         {fill: none; stroke: #be2f5b;}
           rect.nonterminal      {fill: rgba(255,255,255,0.1); stroke: none;}
           rect.text             {fill: none; stroke: none;}
           polygon.regexp        {fill: #C7ECFF; stroke: #038cbc;}
</style>
    </defs>
    <polygon points="9 17 1 13 1 21"/>
    <polygon points="17 17 9 13 9 21"/>
    <rect x="31" y="3" width="72" height="32" rx="10"/>
    <rect x="29" y="1" width="72" height="32" class="terminal" rx="10"/>
    <text class="terminal" x="39" y="21">CREATE</text>
    <rect x="123" y="3" width="62" height="32" rx="10"/>
    <rect x="121" y="1" width="62" height="32" class="terminal" rx="10"/>
    <text class="terminal" x="131" y="21">TABLE</text>
    <rect x="225" y="35" width="26" height="32" rx="10"/>
    <rect x="223" y="33" width="26" height="32" class="terminal" rx="10"/>
    <text class="terminal" x="233" y="53">(</text>
    <rect x="271" y="35" width="52" height="32" rx="10"/>
    <rect x="269" y="33" width="52" height="32" class="terminal" rx="10"/>
    <text class="terminal" x="279" y="53">LIKE</text><a xmlns:xlink="http://www.w3.org/1999/xlink" xlink:href="#sourceTableName" xlink:title="sourceTableName">
       <rect x="343" y="35" width="132" height="32"/>
       <rect x="341" y="33" width="132" height="32" class="nonterminal"/>
       <text class="nonterminal" x="351" y="53">sourceTableName</text></a><rect x="495" y="35" width="26" height="32" rx="10"/>
    <rect x="493" y="33" width="26" height="32" class="terminal" rx="10"/>
    <text class="terminal" x="503" y="53">)</text>
    <rect x="561" y="3" width="24" height="32" rx="10"/>
    <rect x="559" y="1" width="24" height="32" class="terminal" rx="10"/>
    <text class="terminal" x="569" y="21">;</text>
    <path class="line" d="m17 17 h2 m0 0 h10 m72 0 h10 m0 0 h10 m62 0 h10 m20 0 h10 m0 0 h306 m-336 0 h20 m316 0 h20 m-356 0 q10 0 10 10 m336 0 q0 -10 10 -10 m-346 10 v12 m336 0 v-12 m-336 12 q0 10 10 10 m316 0 q10 0 10 -10 m-326 10 h10 m26 0 h10 m0 0 h10 m52 0 h10 m0 0 h10 m132 0 h10 m0 0 h10 m26 0 h10 m20 -32 h10 m24 0 h10 m3 0 h-3"/>
    <polygon points="603 17 611 13 611 21"/>
    <polygon points="603 17 595 13 595 21"/></svg>