<svg xmlns="http://www.w3.org/2000/svg" width="800" height="100">
         <defs>
            <style type="text/css">
                @namespace "http://www.w3.org/2000/svg";
                .line                 {fill: none; stroke: #636273;}
                .bold-line            {stroke: #636273; shape-rendering: crispEdges; stroke-width: 2; }
                .thin-line            {stroke: #636273; shape-rendering: crispEdges}
                .filled               {fill: #636273; stroke: none;}
                text.terminal         {font-family: -apple-system, BlinkMacSystemFont, "Segoe UI", Roboto, Ubuntu, Cantarell, Helvetica, sans-serif;
                font-size: 12px;
                fill: #ffffff;
                font-weight: bold;
                }
                text.nonterminal      {font-family: -apple-system, BlinkMacSystemFont, "Segoe UI", Roboto, Ubuntu, Cantarell, Helvetica, sans-serif;
                font-size: 12px;
                fill: #e289a4;
                font-weight: normal;
                }
                text.regexp           {font-family: -apple-system, BlinkMacSystemFont, "Segoe UI", Roboto, Ubuntu, Cantarell, Helvetica, sans-serif;
                font-size: 12px;
                fill: #00141F;
                font-weight: normal;
                }
                rect, circle, polygon {fill: none; stroke: none;}
                rect.terminal         {fill: none; stroke: #be2f5b;}
                rect.nonterminal      {fill: rgba(255,255,255,0.1); stroke: none;}
                rect.text             {fill: none; stroke: none;}
                polygon.regexp        {fill: #C7ECFF; stroke: #038cbc;}
  </style>
         </defs>
          <polygon points="9 17 1 13 1 21"/>
         <polygon points="17 17 9 13 9 21"/>
         <rect x="31" y="3" width="66" height="32" rx="10"/>
         <rect x="29" y="1" width="66" height="32" class="terminal" rx="10"/>
         <text class="terminal" x="39" y="21">CROSS</text>
         <rect x="117" y="3" width="54" height="32" rx="10"/>
         <rect x="115" y="1" width="54" height="32" class="terminal" rx="10"/>
         <text class="terminal" x="125" y="21">JOIN</text><a xmlns:xlink="http://www.w3.org/1999/xlink" xlink:href="#table" xlink:title="table">
            <rect x="211" y="3" width="52" height="32"/>
            <rect x="209" y="1" width="52" height="32" class="nonterminal"/>
            <text class="nonterminal" x="219" y="21">table</text></a><rect x="211" y="47" width="26" height="32" rx="10"/>
         <rect x="209" y="45" width="26" height="32" class="terminal" rx="10"/>
         <text class="terminal" x="219" y="65">(</text><a xmlns:xlink="http://www.w3.org/1999/xlink" xlink:href="#sub-query" xlink:title="sub-query">
            <rect x="257" y="47" width="84" height="32"/>
            <rect x="255" y="45" width="84" height="32" class="nonterminal"/>
            <text class="nonterminal" x="265" y="65">sub-query</text></a><rect x="361" y="47" width="26" height="32" rx="10"/>
         <rect x="359" y="45" width="26" height="32" class="terminal" rx="10"/>
         <text class="terminal" x="369" y="65">)</text>
         <path class="line" d="m17 17 h2 m0 0 h10 m66 0 h10 m0 0 h10 m54 0 h10 m20 0 h10 m52 0 h10 m0 0 h124 m-216 0 h20 m196 0 h20 m-236 0 q10 0 10 10 m216 0 q0 -10 10 -10 m-226 10 v24 m216 0 v-24 m-216 24 q0 10 10 10 m196 0 q10 0 10 -10 m-206 10 h10 m26 0 h10 m0 0 h10 m84 0 h10 m0 0 h10 m26 0 h10 m23 -44 h-3"/>
         <polygon points="425 17 433 13 433 21"/>
         <polygon points="425 17 417 13 417 21"/></svg>