<svg xmlns="http://www.w3.org/2000/svg" width="535" height="69"><defs><style type="text/css">text.nonterminal,text.terminal{font-family:-apple-system,BlinkMacSystemFont,&quot;Segoe UI&quot;,Roboto,Ubuntu,Cantarell,Helvetica,sans-serif;font-size:12px}text.terminal{fill:#fff;font-weight:700}text.nonterminal{fill:#e289a4;font-weight:400}.line{fill:none;stroke:#636273}polygon,rect{fill:none;stroke:none}rect.terminal{fill:none;stroke:#be2f5b}rect.nonterminal{fill:rgba(255,255,255,.1);stroke:none}</style></defs><polygon points="9 17 1 13 1 21"/><polygon points="17 17 9 13 9 21"/><rect x="31" y="3" width="58" height="32" rx="10"/><rect x="29" y="1" width="58" height="32" class="terminal" rx="10"/><text class="terminal" x="39" y="21">DROP</text><rect x="109" y="3" width="62" height="32" rx="10"/><rect x="107" y="1" width="62" height="32" class="terminal" rx="10"/><text class="terminal" x="117" y="21">TABLE</text><rect x="211" y="35" width="34" height="32" rx="10"/><rect x="209" y="33" width="34" height="32" class="terminal" rx="10"/><text class="terminal" x="219" y="53">IF</text><rect x="265" y="35" width="70" height="32" rx="10"/><rect x="263" y="33" width="70" height="32" class="terminal" rx="10"/><text class="terminal" x="273" y="53">EXISTS</text><a xmlns:xlink="http://www.w3.org/1999/xlink" xlink:href="#tableName" xlink:title="tableName"><rect x="375" y="3" width="88" height="32"/><rect x="373" y="1" width="88" height="32" class="nonterminal"/><text class="nonterminal" x="383" y="21">tableName</text></a><rect x="483" y="3" width="24" height="32" rx="10"/><rect x="481" y="1" width="24" height="32" class="terminal" rx="10"/><text class="terminal" x="491" y="21">;</text><path class="line" d="M17 17h2m0 0h10m58 0h10m0 0h10m62 0h10m20 0h10m0 0h134m-164 0h20m144 0h20m-184 0q10 0 10 10m164 0q0-10 10-10M189 27v12m164 0V27M189 39q0 10 10 10m144 0q10 0 10-10M199 49h10m34 0h10m0 0h10m70 0h10m20-32h10m88 0h10m0 0h10m24 0h10m3 0h-3"/><polygon points="525 17 533 13 533 21"/><polygon points="525 17 517 13 517 21"/></svg>