<svg xmlns="http://www.w3.org/2000/svg" width="980" height="450"><defs><style type="text/css">@namespace &quot;http://www.w3.org/2000/svg&quot;;text.nonterminal,text.terminal{font-family:-apple-system,BlinkMacSystemFont,&quot;Segoe UI&quot;,Roboto,Ubuntu,Cantarell,Helvetica,sans-serif;font-size:12px}text.terminal{fill:#fff;font-weight:700}text.nonterminal{fill:#e289a4;font-weight:400}polygon,rect{fill:none;stroke:none}rect.terminal{fill:none;stroke:#be2f5b}rect.nonterminal{fill:rgba(255,255,255,.1);stroke:none}</style></defs><polygon points="9 17 1 13 1 21"/><polygon points="17 17 9 13 9 21"/><rect x="31" y="3" width="70" height="32" rx="10"/><rect x="29" y="1" width="70" height="32" class="terminal" rx="10"/><text class="terminal" x="39" y="21">INSERT</text><rect x="141" y="35" width="56" height="32" rx="10"/><rect x="139" y="33" width="56" height="32" class="terminal" rx="10"/><text class="terminal" x="149" y="53">batch</text><a xmlns:xlink="http://www.w3.org/1999/xlink" xlink:href="#batchCount" xlink:title="batchCount"><rect x="217" y="35" width="92" height="32"/><rect x="215" y="33" width="92" height="32" class="nonterminal"/><text class="nonterminal" x="225" y="53">batchCount</text></a><rect x="329" y="35" width="94" height="32" rx="10"/><rect x="327" y="33" width="94" height="32" class="terminal" rx="10"/><text class="terminal" x="337" y="53">commitLag</text><a xmlns:xlink="http://www.w3.org/1999/xlink" xlink:href="#n" xlink:title="n"><rect x="443" y="35" width="28" height="32"/><rect x="441" y="33" width="28" height="32" class="nonterminal"/><text class="nonterminal" x="451" y="53">n</text></a><rect x="511" y="35" width="36" height="32" rx="10"/><rect x="509" y="33" width="36" height="32" class="terminal" rx="10"/><text class="terminal" x="519" y="53">us</text><rect x="511" y="79" width="26" height="32" rx="10"/><rect x="509" y="77" width="26" height="32" class="terminal" rx="10"/><text class="terminal" x="519" y="97">s</text><rect x="511" y="123" width="32" height="32" rx="10"/><rect x="509" y="121" width="32" height="32" class="terminal" rx="10"/><text class="terminal" x="519" y="141">m</text><rect x="511" y="167" width="28" height="32" rx="10"/><rect x="509" y="165" width="28" height="32" class="terminal" rx="10"/><text class="terminal" x="519" y="185">h</text><rect x="511" y="211" width="28" height="32" rx="10"/><rect x="509" y="209" width="28" height="32" class="terminal" rx="10"/><text class="terminal" x="519" y="229">d</text><rect x="607" y="3" width="56" height="32" rx="10"/><rect x="605" y="1" width="56" height="32" class="terminal" rx="10"/><text class="terminal" x="615" y="21">INTO</text><a xmlns:xlink="http://www.w3.org/1999/xlink" xlink:href="#tableName" xlink:title="tableName"><rect x="683" y="3" width="88" height="32"/><rect x="681" y="1" width="88" height="32" class="nonterminal"/><text class="nonterminal" x="691" y="21">tableName</text></a><rect x="89" y="365" width="26" height="32" rx="10"/><rect x="87" y="363" width="26" height="32" class="terminal" rx="10"/><text class="terminal" x="97" y="383">(</text><a xmlns:xlink="http://www.w3.org/1999/xlink" xlink:href="#columnName" xlink:title="columnName"><rect x="155" y="365" width="102" height="32"/><rect x="153" y="363" width="102" height="32" class="nonterminal"/><text class="nonterminal" x="163" y="383">columnName</text></a><rect x="155" y="321" width="24" height="32" rx="10"/><rect x="153" y="319" width="24" height="32" class="terminal" rx="10"/><text class="terminal" x="163" y="339">,</text><rect x="297" y="365" width="26" height="32" rx="10"/><rect x="295" y="363" width="26" height="32" class="terminal" rx="10"/><text class="terminal" x="305" y="383">)</text><rect x="383" y="365" width="72" height="32" rx="10"/><rect x="381" y="363" width="72" height="32" class="terminal" rx="10"/><text class="terminal" x="391" y="383">VALUES</text><rect x="495" y="365" width="26" height="32" rx="10"/><rect x="493" y="363" width="26" height="32" class="terminal" rx="10"/><text class="terminal" x="503" y="383">(</text><a xmlns:xlink="http://www.w3.org/1999/xlink" xlink:href="#value" xlink:title="value"><rect x="561" y="365" width="54" height="32"/><rect x="559" y="363" width="54" height="32" class="nonterminal"/><text class="nonterminal" x="569" y="383">value</text></a><rect x="561" y="321" width="24" height="32" rx="10"/><rect x="559" y="319" width="24" height="32" class="terminal" rx="10"/><text class="terminal" x="569" y="339">,</text><rect x="655" y="365" width="26" height="32" rx="10"/><rect x="653" y="363" width="26" height="32" class="terminal" rx="10"/><text class="terminal" x="663" y="383">)</text><rect x="495" y="277" width="24" height="32" rx="10"/><rect x="493" y="275" width="24" height="32" class="terminal" rx="10"/><text class="terminal" x="503" y="295">,</text><rect x="383" y="409" width="70" height="32" rx="10"/><rect x="381" y="407" width="70" height="32" class="terminal" rx="10"/><text class="terminal" x="391" y="427">SELECT</text><a xmlns:xlink="http://www.w3.org/1999/xlink" xlink:href="#queryDef" xlink:title="queryDef"><rect x="473" y="409" width="78" height="32"/><rect x="471" y="407" width="78" height="32" class="nonterminal"/><text class="nonterminal" x="481" y="427">queryDef</text></a><a xmlns:xlink="http://www.w3.org/1999/xlink" xlink:href="#mainQuery" xlink:title="mainQuery"><rect x="571" y="409" width="88" height="32"/><rect x="569" y="407" width="88" height="32" class="nonterminal"/><text class="nonterminal" x="579" y="427">mainQuery</text></a><rect x="741" y="365" width="24" height="32" rx="10"/><rect x="739" y="363" width="24" height="32" class="terminal" rx="10"/><text class="terminal" x="749" y="383">;</text><path xmlns:svg="http://www.w3.org/2000/svg" d="M17 17h2m0 0h10m70 0h10m20 0h10m0 0h436m-466 0h20m446 0h20m-486 0q10 0 10 10m466 0q0-10 10-10M119 27v12m466 0V27M119 39q0 10 10 10m446 0q10 0 10-10M129 49h10m56 0h10m0 0h10m92 0h10m0 0h10m94 0h10m0 0h10m28 0h10m20 0h10m36 0h10m-76 0h20m56 0h20m-96 0q10 0 10 10m76 0q0-10 10-10m-86 10v24m76 0V59m-76 24q0 10 10 10m56 0q10 0 10-10m-66 10h10m26 0h10m0 0h10m-66-10v20m76 0V83m-76 20v24m76 0v-24m-76 24q0 10 10 10m56 0q10 0 10-10m-66 10h10m32 0h10m0 0h4m-66-10v20m76 0v-20m-76 20v24m76 0v-24m-76 24q0 10 10 10m56 0q10 0 10-10m-66 10h10m28 0h10m0 0h8m-66-10v20m76 0v-20m-76 20v24m76 0v-24m-76 24q0 10 10 10m56 0q10 0 10-10m-66 10h10m28 0h10m0 0h8m40-208h10m56 0h10m0 0h10m88 0h10m2 0h2m2 0h2m2 0h2M45 379h2m2 0h2m2 0h2m22 0h10m26 0h10m20 0h10m102 0h10m-142 0h20m-1 0q-9 0-9-10v-24q0-10 10-10m122 44h20m-20 0q10 0 10-10v-24q0-10-10-10m-122 0h10m24 0h10m0 0h78m20 44h10m26 0h10m-274 0h20m254 0h20m-294 0q10 0 10 10m274 0q0-10 10-10M67 389v14m274 0v-14M67 403q0 10 10 10m254 0q10 0 10-10M77 413h10m0 0h244m40-34h10m72 0h10m20 0h10m26 0h10m20 0h10m54 0h10m-94 0h20m-1 0q-9 0-9-10v-24q0-10 10-10m74 44h20m-20 0q10 0 10-10v-24q0-10-10-10m-74 0h10m24 0h10m0 0h30m20 44h10m26 0h10m-226 0h20m-1 0q-9 0-9-10v-68q0-10 10-10m206 88h20m-20 0q10 0 10-10v-68q0-10-10-10m-206 0h10m24 0h10m0 0h162m-338 88h20m338 0h20m-378 0q10 0 10 10m358 0q0-10 10-10m-368 10v24m358 0v-24m-358 24q0 10 10 10m338 0q10 0 10-10m-348 10h10m70 0h10m0 0h10m78 0h10m0 0h10m88 0h10m0 0h42m20-44h10m24 0h10m3 0h-3" fill="none" stroke="#636273"/><polygon points="783 379 791 375 791 383"/><polygon points="783 379 775 375 775 383"/></svg>