<svg xmlns="http://www.w3.org/2000/svg" width="789" height="81"><defs><style type="text/css">@namespace &quot;http://www.w3.org/2000/svg&quot;;text.nonterminal,text.terminal{font-family:-apple-system,BlinkMacSystemFont,&quot;Segoe UI&quot;,Roboto,Ubuntu,Cantarell,Helvetica,sans-serif;font-size:12px}text.terminal{fill:#fff;font-weight:700}text.nonterminal{fill:#e289a4;font-weight:400}polygon,rect{fill:none;stroke:none}rect.terminal{fill:none;stroke:#be2f5b}rect.nonterminal{fill:rgba(255,255,255,.1);stroke:none}</style></defs><polygon points="9 61 1 57 1 65"/><polygon points="17 61 9 57 9 65"/><rect x="31" y="47" width="70" height="32" rx="10"/><rect x="29" y="45" width="70" height="32" class="terminal" rx="10"/><text class="terminal" x="39" y="65">SELECT</text><a xmlns:xlink="http://www.w3.org/1999/xlink" xlink:href="#columnName" xlink:title="columnName"><rect x="141" y="47" width="102" height="32"/><rect x="139" y="45" width="102" height="32" class="nonterminal"/><text class="nonterminal" x="149" y="65">columnName</text></a><rect x="141" y="3" width="24" height="32" rx="10"/><rect x="139" y="1" width="24" height="32" class="terminal" rx="10"/><text class="terminal" x="149" y="21">,</text><rect x="283" y="47" width="60" height="32" rx="10"/><rect x="281" y="45" width="60" height="32" class="terminal" rx="10"/><text class="terminal" x="291" y="65">FROM</text><a xmlns:xlink="http://www.w3.org/1999/xlink" xlink:href="#tableName" xlink:title="tableName"><rect x="363" y="47" width="88" height="32"/><rect x="361" y="45" width="88" height="32" class="nonterminal"/><text class="nonterminal" x="371" y="65">tableName</text></a><rect x="471" y="47" width="70" height="32" rx="10"/><rect x="469" y="45" width="70" height="32" class="terminal" rx="10"/><text class="terminal" x="479" y="65">LATEST</text><rect x="561" y="47" width="38" height="32" rx="10"/><rect x="559" y="45" width="38" height="32" class="terminal" rx="10"/><text class="terminal" x="569" y="65">BY</text><a xmlns:xlink="http://www.w3.org/1999/xlink" xlink:href="#columnName" xlink:title="columnName"><rect x="639" y="47" width="102" height="32"/><rect x="637" y="45" width="102" height="32" class="nonterminal"/><text class="nonterminal" x="647" y="65">columnName</text></a><rect x="639" y="3" width="24" height="32" rx="10"/><rect x="637" y="1" width="24" height="32" class="terminal" rx="10"/><text class="terminal" x="647" y="21">,</text><path xmlns:svg="http://www.w3.org/2000/svg" d="M17 61h2m0 0h10m70 0h10m20 0h10m102 0h10m-142 0h20m-1 0q-9 0-9-10V27q0-10 10-10m122 44h20m-20 0q10 0 10-10V27q0-10-10-10m-122 0h10m24 0h10m0 0h78m20 44h10m60 0h10m0 0h10m88 0h10m0 0h10m70 0h10m0 0h10m38 0h10m20 0h10m102 0h10m-142 0h20m-1 0q-9 0-9-10V27q0-10 10-10m122 44h20m-20 0q10 0 10-10V27q0-10-10-10m-122 0h10m24 0h10m0 0h78m23 44h-3" fill="none" stroke="#636273"/><polygon points="779 61 787 57 787 65"/><polygon points="779 61 771 57 771 65"/></svg>