<svg xmlns="http://www.w3.org/2000/svg" width="605" height="157"><defs><style type="text/css">@namespace &quot;http://www.w3.org/2000/svg&quot;;text.nonterminal,text.terminal{font-family:-apple-system,BlinkMacSystemFont,&quot;Segoe UI&quot;,Roboto,Ubuntu,Cantarell,Helvetica,sans-serif;font-size:12px}text.terminal{fill:#fff;font-weight:700}text.nonterminal{fill:#e289a4;font-weight:400}polygon,rect{fill:none;stroke:none}rect.terminal{fill:none;stroke:#be2f5b}rect.nonterminal{fill:rgba(255,255,255,.1);stroke:none}</style></defs><polygon points="9 61 1 57 1 65"/><polygon points="17 61 9 57 9 65"/><a xmlns:xlink="http://www.w3.org/1999/xlink" xlink:href="#someSelectQuery" xlink:title="someSelectQuery"><rect x="31" y="47" width="130" height="32"/><rect x="29" y="45" width="130" height="32" class="nonterminal"/><text class="nonterminal" x="39" y="65">someSelectQuery</text></a><rect x="181" y="47" width="68" height="32" rx="10"/><rect x="179" y="45" width="68" height="32" class="terminal" rx="10"/><text class="terminal" x="189" y="65">ORDER</text><rect x="269" y="47" width="38" height="32" rx="10"/><rect x="267" y="45" width="38" height="32" class="terminal" rx="10"/><text class="terminal" x="277" y="65">BY</text><a xmlns:xlink="http://www.w3.org/1999/xlink" xlink:href="#columnName" xlink:title="columnName"><rect x="347" y="47" width="102" height="32"/><rect x="345" y="45" width="102" height="32" class="nonterminal"/><text class="nonterminal" x="355" y="65">columnName</text></a><a xmlns:xlink="http://www.w3.org/1999/xlink" xlink:href="#asc" xlink:title="asc"><rect x="489" y="79" width="40" height="32"/><rect x="487" y="77" width="40" height="32" class="nonterminal"/><text class="nonterminal" x="497" y="97">ASC</text></a><a xmlns:xlink="http://www.w3.org/1999/xlink" xlink:href="#desc" xlink:title="desc"><rect x="489" y="123" width="48" height="32"/><rect x="487" y="121" width="48" height="32" class="nonterminal"/><text class="nonterminal" x="497" y="141">DESC</text></a><rect x="347" y="3" width="24" height="32" rx="10"/><rect x="345" y="1" width="24" height="32" class="terminal" rx="10"/><text class="terminal" x="355" y="21">,</text><path xmlns:svg="http://www.w3.org/2000/svg" d="M17 61h2m0 0h10m130 0h10m0 0h10m68 0h10m0 0h10m38 0h10m20 0h10m102 0h10m20 0h10m0 0h58m-88 0h20m68 0h20m-108 0q10 0 10 10m88 0q0-10 10-10m-98 10v12m88 0V71m-88 12q0 10 10 10m68 0q10 0 10-10m-78 10h10m40 0h10m0 0h8m-78-10v20m88 0V83m-88 20v24m88 0v-24m-88 24q0 10 10 10m68 0q10 0 10-10m-78 10h10m48 0h10M315 61h20m-1 0q-9 0-9-10V27q0-10 10-10m230 44h20m-20 0q10 0 10-10V27q0-10-10-10m-230 0h10m24 0h10m0 0h186m23 44h-3" fill="none" stroke="#636273"/><polygon points="595 61 603 57 603 65"/><polygon points="595 61 587 57 587 65"/></svg>