<svg xmlns="http://www.w3.org/2000/svg" width="625" height="69"><defs><style type="text/css">text.nonterminal,text.terminal{font-family:-apple-system,BlinkMacSystemFont,&quot;Segoe UI&quot;,Roboto,Ubuntu,Cantarell,Helvetica,sans-serif;font-size:12px}text.terminal{fill:#fff;font-weight:700}text.nonterminal{fill:#e289a4;font-weight:400}.line{fill:none;stroke:#636273}polygon,rect{fill:none;stroke:none}rect.terminal{fill:none;stroke:#be2f5b}rect.nonterminal{fill:rgba(255,255,255,.1);stroke:none}</style></defs><polygon points="9 17 1 13 1 21"/><polygon points="17 17 9 13 9 21"/><rect x="51" y="35" width="24" height="32" rx="10"/><rect x="49" y="33" width="24" height="32" class="terminal" rx="10"/><text class="terminal" x="59" y="53">,</text><rect x="115" y="3" width="36" height="32" rx="10"/><rect x="113" y="1" width="36" height="32" class="terminal" rx="10"/><text class="terminal" x="123" y="21">IN</text><rect x="171" y="3" width="76" height="32" rx="10"/><rect x="169" y="1" width="76" height="32" class="terminal" rx="10"/><text class="terminal" x="179" y="21">VOLUME</text><rect x="287" y="35" width="24" height="32" rx="10"/><rect x="285" y="33" width="24" height="32" class="terminal" rx="10"/><text class="terminal" x="295" y="53">&apos;</text><a xmlns:xlink="http://www.w3.org/1999/xlink" xlink:href="#secondaryVolumeAlias" xlink:title="secondaryVolumeAlias"><rect x="351" y="3" width="162" height="32"/><rect x="349" y="1" width="162" height="32" class="nonterminal"/><text class="nonterminal" x="359" y="21">secondaryVolumeAlias</text></a><rect x="553" y="35" width="24" height="32" rx="10"/><rect x="551" y="33" width="24" height="32" class="terminal" rx="10"/><text class="terminal" x="561" y="53">&apos;</text><path class="line" d="M17 17h2m20 0h10m0 0h34m-64 0h20m44 0h20m-84 0q10 0 10 10m64 0q0-10 10-10M29 27v12m64 0V27M29 39q0 10 10 10m44 0q10 0 10-10M39 49h10m24 0h10m20-32h10m36 0h10m0 0h10m76 0h10m20 0h10m0 0h34m-64 0h20m44 0h20m-84 0q10 0 10 10m64 0q0-10 10-10m-74 10v12m64 0V27m-64 12q0 10 10 10m44 0q10 0 10-10m-54 10h10m24 0h10m20-32h10m162 0h10m20 0h10m0 0h34m-64 0h20m44 0h20m-84 0q10 0 10 10m64 0q0-10 10-10m-74 10v12m64 0V27m-64 12q0 10 10 10m44 0q10 0 10-10m-54 10h10m24 0h10m23-32h-3"/><polygon points="615 17 623 13 623 21"/><polygon points="615 17 607 13 607 21"/></svg>