<svg xmlns="http://www.w3.org/2000/svg" width="631" height="220"><defs><style type="text/css">@namespace &quot;http://www.w3.org/2000/svg&quot;;text.nonterminal{font-family:-apple-system,BlinkMacSystemFont,&quot;Segoe UI&quot;,Roboto,Ubuntu,Cantarell,Helvetica,sans-serif;font-size:12px;fill:#e289a4;font-weight:400}polygon,rect{fill:none;stroke:none}rect.nonterminal{fill:rgba(255,255,255,.1);stroke:none}</style></defs><polygon points="9 51 1 47 1 55"/><polygon points="17 51 9 47 9 55"/><a xmlns:xlink="http://www.w3.org/1999/xlink" xlink:href="#query_1" xlink:title="query_1"><rect x="31" y="37" width="72" height="32"/><rect x="29" y="35" width="72" height="32" class="nonterminal"/><text class="nonterminal" x="39" y="55">query_1</text></a><a xmlns:xlink="http://www.w3.org/1999/xlink" xlink:href="#UNION" xlink:title="UNION"><rect x="143" y="37" width="60" height="32"/><rect x="141" y="35" width="60" height="32" class="nonterminal"/><text class="nonterminal" x="151" y="55">UNION</text></a><a xmlns:xlink="http://www.w3.org/1999/xlink" xlink:href="#ALL" xlink:title="ALL"><rect x="243" y="3" width="42" height="32"/><rect x="241" y="1" width="42" height="32" class="nonterminal"/><text class="nonterminal" x="251" y="21">ALL</text></a><a xmlns:xlink="http://www.w3.org/1999/xlink" xlink:href="#EXCEPT" xlink:title="EXCEPT"><rect x="143" y="81" width="68" height="32"/><rect x="141" y="79" width="68" height="32" class="nonterminal"/><text class="nonterminal" x="151" y="99">EXCEPT</text></a><a xmlns:xlink="http://www.w3.org/1999/xlink" xlink:href="#INTERSECT" xlink:title="INTERSECT"><rect x="143" y="125" width="88" height="32"/><rect x="141" y="123" width="88" height="32" class="nonterminal"/><text class="nonterminal" x="151" y="143">INTERSECT</text></a><a xmlns:xlink="http://www.w3.org/1999/xlink" xlink:href="#query_2" xlink:title="query_2"><rect x="345" y="37" width="72" height="32"/><rect x="343" y="35" width="72" height="32" class="nonterminal"/><text class="nonterminal" x="353" y="55">query_2</text></a><path xmlns:svg="http://www.w3.org/2000/svg" d="M17 51h2m0 0h10m72 0h10m20 0h10m60 0h10m20 0h10m0 0h52m-82 0h20m-1 0q-9 0-9-10V27q0-10 10-10m62 34h20m-20 0q10 0 10-10V27q0-10-10-10m-62 0h10m42 0h10M111 51h20m182 0h20m-222 0q10 0 10 10m202 0q0-10 10-10M121 61v24m202 0V61M121 85q0 10 10 10m182 0q10 0 10-10M131 95h10m68 0h10m0 0h94M121 85v20m202 0V85m-202 20v24m202 0v-24m-202 24q0 10 10 10m182 0q10 0 10-10m-192 10h10m88 0h10m0 0h74m20-88h10m72 0h10m3 0h-3" fill="none" stroke="#636273"/><polygon points="435 51 443 47 443 55"/><polygon points="435 51 427 47 427 55"/></svg>