<svg xmlns="http://www.w3.org/2000/svg" width="800" height="290"><defs><style type="text/css">@namespace &quot;http://www.w3.org/2000/svg&quot;;text.nonterminal,text.terminal{font-family:-apple-system,BlinkMacSystemFont,&quot;Segoe UI&quot;,Roboto,Ubuntu,Cantarell,Helvetica,sans-serif;font-size:12px}text.terminal{fill:#fff;font-weight:700}text.nonterminal{fill:#e289a4;font-weight:400}polygon,rect{fill:none;stroke:none}rect.terminal{fill:none;stroke:#be2f5b}rect.nonterminal{fill:rgba(255,255,255,.1);stroke:none}</style></defs><polygon points="9 61 1 57 1 65"/><polygon points="17 61 9 57 9 65"/><a xmlns:xlink="http://www.w3.org/1999/xlink" xlink:href="#UPDATE" xlink:title="UPDATE"><rect x="31" y="47" width="68" height="32"/><rect x="29" y="45" width="68" height="32" class="nonterminal"/><text class="nonterminal" x="39" y="65">UPDATE</text></a><rect x="119" y="47" width="92" height="32" rx="10"/><rect x="117" y="45" width="92" height="32" class="terminal" rx="10"/><text class="terminal" x="127" y="65">tableName</text><a xmlns:xlink="http://www.w3.org/1999/xlink" xlink:href="#SET" xlink:title="SET"><rect x="231" y="47" width="42" height="32"/><rect x="229" y="45" width="42" height="32" class="nonterminal"/><text class="nonterminal" x="239" y="65">SET</text></a><a xmlns:xlink="http://www.w3.org/1999/xlink" xlink:href="#columnName" xlink:title="columnName"><rect x="313" y="47" width="102" height="32"/><rect x="311" y="45" width="102" height="32" class="nonterminal"/><text class="nonterminal" x="321" y="65">columnName</text></a><rect x="435" y="47" width="30" height="32" rx="10"/><rect x="433" y="45" width="30" height="32" class="terminal" rx="10"/><text class="terminal" x="443" y="65">=</text><rect x="485" y="47" width="92" height="32" rx="10"/><rect x="483" y="45" width="92" height="32" class="terminal" rx="10"/><text class="terminal" x="493" y="65">expression</text><rect x="313" y="3" width="24" height="32" rx="10"/><rect x="311" y="1" width="24" height="32" class="terminal" rx="10"/><text class="terminal" x="321" y="21">,</text><a xmlns:xlink="http://www.w3.org/1999/xlink" xlink:href="#FROM" xlink:title="FROM"><rect x="45" y="129" width="54" height="32"/><rect x="43" y="127" width="54" height="32" class="nonterminal"/><text class="nonterminal" x="53" y="147">FROM</text></a><rect x="119" y="129" width="92" height="32" rx="10"/><rect x="117" y="127" width="92" height="32" class="terminal" rx="10"/><text class="terminal" x="127" y="147">joinTable1</text><a xmlns:xlink="http://www.w3.org/1999/xlink" xlink:href="#JOIN" xlink:title="JOIN"><rect x="251" y="161" width="48" height="32"/><rect x="249" y="159" width="48" height="32" class="nonterminal"/><text class="nonterminal" x="259" y="179">JOIN</text></a><rect x="319" y="161" width="92" height="32" rx="10"/><rect x="317" y="159" width="92" height="32" class="terminal" rx="10"/><text class="terminal" x="327" y="179">joinTable2</text><a xmlns:xlink="http://www.w3.org/1999/xlink" xlink:href="#ON" xlink:title="ON"><rect x="431" y="161" width="38" height="32"/><rect x="429" y="159" width="38" height="32" class="nonterminal"/><text class="nonterminal" x="439" y="179">ON</text></a><rect x="489" y="161" width="118" height="32" rx="10"/><rect x="487" y="159" width="118" height="32" class="terminal" rx="10"/><text class="terminal" x="497" y="179">joinCondition2</text><a xmlns:xlink="http://www.w3.org/1999/xlink" xlink:href="#WHERE" xlink:title="WHERE"><rect x="483" y="247" width="66" height="32"/><rect x="481" y="245" width="66" height="32" class="nonterminal"/><text class="nonterminal" x="491" y="265">WHERE</text></a><rect x="569" y="247" width="52" height="32" rx="10"/><rect x="567" y="245" width="52" height="32" class="terminal" rx="10"/><text class="terminal" x="577" y="265">filter</text><path xmlns:svg="http://www.w3.org/2000/svg" d="M17 61h2m0 0h10m68 0h10m0 0h10m92 0h10m0 0h10m42 0h10m20 0h10m102 0h10m0 0h10m30 0h10m0 0h10m92 0h10m-304 0h20m-1 0q-9 0-9-10V27q0-10 10-10m284 44h20m-20 0q10 0 10-10V27q0-10-10-10m-284 0h10m24 0h10m0 0h240m22 44h2m2 0h2m2 0h2M1 111h2m2 0h2m2 0h2m22 0h10m0 0h592m-622 0h20m602 0h20m-642 0q10 0 10 10m622 0q0-10 10-10M23 121v12m622 0v-12M23 133q0 10 10 10m602 0q10 0 10-10M33 143h10m54 0h10m0 0h10m92 0h10m20 0h10m0 0h366m-396 0h20m376 0h20m-416 0q10 0 10 10m396 0q0-10 10-10m-406 10v12m396 0v-12m-396 12q0 10 10 10m376 0q10 0 10-10m-386 10h10m48 0h10m0 0h10m92 0h10m0 0h10m38 0h10m0 0h10m118 0h10m42-64h2m2 0h2m2 0h2M439 229h2m2 0h2m2 0h2m22 0h10m0 0h148m-178 0h20m158 0h20m-198 0q10 0 10 10m178 0q0-10 10-10m-188 10v12m178 0v-12m-178 12q0 10 10 10m158 0q10 0 10-10m-168 10h10m66 0h10m0 0h10m52 0h10m23-32h-3" fill="none" stroke="#636273"/><polygon points="659 229 667 225 667 233"/><polygon points="659 229 651 225 651 233"/></svg>