<svg xmlns="http://www.w3.org/2000/svg" xml:space="preserve" xmlns:vectornator="http://vectornator.io" viewBox="0 0 144 56" clip-rule="evenodd" stroke-linecap="round" stroke-linejoin="round"><defs><linearGradient y1="37.422" id="a" x1="5.474" y2="7.45" x2="32.46" gradientUnits="userSpaceOnUse" gradientTransform="translate(20.632 12.982) scale(.98478)"><stop stop-color="#ff5416" offset="0"/><stop stop-color="#ff5115" offset=".254"/><stop stop-color="#ff4712" offset=".461"/><stop stop-color="#ff350e" offset=".652"/><stop stop-color="#ff1e08" offset=".833"/><stop stop-color="red" offset="1"/></linearGradient><linearGradient y1="39.359" id="b" x1="10.708" y2="21.645" x2="26.658" gradientUnits="userSpaceOnUse" gradientTransform="translate(20.632 12.982) scale(.98478)"><stop stop-color="#ff5416" offset="0"/><stop stop-color="#ff5115" offset=".254"/><stop stop-color="#ff4712" offset=".461"/><stop stop-color="#ff350e" offset=".652"/><stop stop-color="#ff1e08" offset=".833"/><stop stop-color="red" offset="1"/></linearGradient></defs><g vectornator:layerName="Untitled" fill-rule="evenodd"><path d="M82.597 37.58V17.009h3.713v7.448c1.258-1.198 2.879-1.862 4.59-1.862 4.016 0 7.579 3.06 7.579 7.67 0 4.61-3.563 7.679-7.58 7.679a6.63 6.63 0 01-4.77-2.013v1.65h-3.532zm12.168-7.316c0-2.577-1.832-4.379-4.227-4.379-2.335 0-4.137 1.711-4.228 4.197v.182c0 2.576 1.832 4.378 4.228 4.378 2.395 0 4.227-1.802 4.227-4.378zm5.435 7.317V17.008h3.714v20.573H100.2zm8.907 5.334l2.164-5.163-5.878-14.796h4.016l3.744 10.337 3.805-10.337h4.076l-7.971 19.97h-3.956v-.011zM76.698 22.956v1.862c-1.288-1.409-3.09-2.214-4.941-2.214-4.016 0-7.58 3.06-7.58 7.67 0 4.62 3.564 7.669 7.58 7.669 1.922 0 3.744-.835 5.062-2.335v1.983h3.241V22.956h-3.362zm-.362 7.308c0 2.546-1.832 4.378-4.227 4.378-2.395 0-4.227-1.832-4.227-4.378 0-2.547 1.831-4.379 4.227-4.379 2.335 0 4.137 1.741 4.227 4.197v.182z" fill="#fff"/><path d="M39.624 12.982L23.732 42.07l-3.1-2.174 14.705-26.914h4.287zm.222 0L55.738 42.07l3.1-2.174-14.704-26.914h-4.288z" fill="url(#a)"/><path d="M55.517 42.24L39.735 29.882l-15.781 12.36 3.22 2.254 12.561-9.833 12.561 9.833 3.22-2.254z" fill="url(#b)"/></g></svg>