<svg width="108" height="20" viewBox="0 0 108 20" fill="none" xmlns="http://www.w3.org/2000/svg"><path fill-rule="evenodd" clip-rule="evenodd" d="M49.412 6.783c0-3.623-2.376-6.376-7.274-6.376h-9.854v19.04h4.637V4.522h5.246c1.942 0 2.637 1.102 2.637 2.376 0 1.305-.725 2.377-2.666 2.377h-4.492l6.374 10.172h5.275s-4.347-6.84-4.318-6.84c2.695-.637 4.435-2.52 4.435-5.824zM24.517.407h4.638v19.04h-4.638V.407zM12.664 12.26H8.762l2.888-5.854h.058L18.2 19.447h5.332L13.823.407H9.71L0 19.447h5.217l1.573-3.188h7.817l-1.942-4-.001.001zm53.674-2.695c1.478-.812 2.26-2.116 2.26-4.029 0-3.072-2.289-5.13-6.143-5.13h-10.84v19.041h11.274c3.942 0 6.521-2.116 6.521-5.332 0-2.232-1.246-3.913-3.072-4.55zm-10.085-5.13h6.202c.927 0 1.651.725 1.651 1.681 0 .956-.724 1.68-1.68 1.68h-6.174v-3.36l.001-.001zm6.317 11.013h-6.318v-3.884h6.318c1.13 0 2 .812 2 1.913 0 1.13-.87 1.971-2 1.971zm21.475-4.405c0 2.89-1.333 4.492-3.97 4.492-2.608 0-3.942-1.602-3.942-4.492V.407h-4.752v10.288c0 5.883 3.1 9.158 8.694 9.158 5.593 0 8.723-3.275 8.723-9.158V.407h-4.753v10.636zm17.128-3.072c-4.402-1.072-5.362-1.174-5.362-2.435 0-.975 1.101-1.449 2.956-1.449 2.464 0 5.087.618 6.579 1.536l1.478-3.883C104.911.726 102.1 0 98.825 0c-4.898 0-7.651 2.436-7.651 5.71 0 3.524 2.057 4.955 6.782 5.97 3.678.811 4.462 1.317 4.462 2.347 0 1.12-1.014 1.623-3.013 1.623-2.899 0-5.522-.703-7.622-1.854l-1.42 4.057c2.289 1.217 5.709 2 9.157 2 4.811 0 7.68-2.232 7.68-5.97.001-3-1.94-4.927-6.027-5.912z" fill="#fff"/></svg>