<svg width="119" height="56" viewBox="0 0 119 56" fill="none" xmlns="http://www.w3.org/2000/svg"><path d="M7.628 18.512v3.33h.106a7.403 7.403 0 013.013-3.09 8.916 8.916 0 014.229-.981c2.326 0 4.114.634 5.365 1.903 1.251 1.269 1.877 3.33 1.876 6.185V46.95h-7.296V27.339c0-1.48-.247-2.51-.74-3.09a2.957 2.957 0 00-2.38-.872c-2.572 0-3.859 1.568-3.858 4.705v18.87H.65v-28.44h6.977zm26.787-9.728H27.12v6.238h7.295V8.784zm0 9.728H27.12v28.44h7.295v-28.44zM2.552 9.454l1.315 4.966H2.823l-.23-1.048H1.27l-.23 1.048H0l1.314-4.966h1.238zm-.131 3.095l-.48-2.232h-.014l-.48 2.232h.974zm3.776-3.095c.221-.007.441.037.643.129.165.078.309.194.421.337.108.142.186.304.23.476.046.179.07.362.07.547.004.228-.035.454-.116.667a1.21 1.21 0 01-.816.738c-.21.062-.428.092-.647.09h-.536v1.982H4.444V9.454h1.753zM5.89 11.7a.664.664 0 00.483-.18.76.76 0 00.184-.564.883.883 0 00-.16-.57.656.656 0 00-.535-.195h-.417V11.7h.445zm4.148-2.246l1.314 4.966h-1.045l-.229-1.048H8.754l-.23 1.048h-1.04l1.314-4.966h1.24zm-.132 3.095l-.48-2.232h-.014l-.48 2.232h.974zm3.918-2.208a.48.48 0 00-.47-.247.47.47 0 00-.31.101.669.669 0 00-.19.327 2.79 2.79 0 00-.098.59c-.02.244-.028.542-.028.895-.003.304.01.608.038.911.014.184.054.366.118.54a.497.497 0 00.201.256.674.674 0 00.53.02.42.42 0 00.198-.18 1.18 1.18 0 00.132-.382 3.54 3.54 0 00.05-.65h1a4.46 4.46 0 01-.062.765 1.742 1.742 0 01-.233.632 1.16 1.16 0 01-.48.425 1.818 1.818 0 01-.804.153 1.89 1.89 0 01-.897-.181 1.22 1.22 0 01-.511-.522 2.295 2.295 0 01-.23-.814 9.519 9.519 0 01-.052-1.043 9.548 9.548 0 01.052-1.04c.026-.284.104-.561.23-.817.115-.224.292-.409.511-.532.278-.14.587-.206.897-.192.292-.014.583.046.846.174.192.102.352.255.463.442.101.177.167.374.191.577.025.192.038.386.039.58h-1.002a1.809 1.809 0 00-.13-.788zm2.973-.887v1.899h1.168V9.454h1.002v4.966h-1.002v-2.207h-1.168v2.207h-1.002V9.454h1.002zm5.87.821h-1.774v1.169h1.669v.82h-1.67V13.6h1.844v.82H19.89V9.454h2.775v.821zm15.328 13.197v-4.97h3.7V15.28a8.698 8.698 0 01.529-3.225c.31-.823.83-1.551 1.506-2.114a5.985 5.985 0 012.405-1.137 13.566 13.566 0 013.172-.343c1.303 0 2.607.053 3.911.159v5.18a4.031 4.031 0 00-.74-.055h-.687a3.428 3.428 0 00-2.168.528 2.152 2.152 0 00-.634 1.745V18.5h4.229v4.97h-4.23v23.473h-7.294v-23.47h-3.7zM64.85 8.776h-7.294v6.238h7.294V8.776zm0 9.727h-7.294v28.44h7.294v-28.44zm33.276 35.312A18.946 18.946 0 0179.18 34.868c0-9.003 7.057-17.641 11.885-23.942A70.923 70.923 0 0097.93.122a.22.22 0 01.393 0 70.907 70.907 0 006.866 10.805c4.826 6.3 11.886 14.933 11.886 23.942h-11.562a.445.445 0 00-.445.445v6.498h-6.496a.445.445 0 00-.445.445l-.001 11.558z" fill="#fff"/><path d="M105.533 49.218v-6.186H99.79a.445.445 0 00-.445.445v5.742h6.188zm-6.185 6.18a18.47 18.47 0 006.187-1.19v-3.115h-5.743a.445.445 0 00-.445.445v3.86zm13.125-13.125v-6.186h-5.742a.447.447 0 00-.445.445v5.741h6.187zm.739 7.687l.007-.008c.241-.245.375-.575.372-.918v-4.89h-6.187v6.189h4.888c.344.002.675-.132.92-.374zm-5.387 5.486a18.507 18.507 0 004.574-2.812h-4.574v2.812zm9.633-13.173a18.432 18.432 0 001.191-6.186h-4.304v6.186h3.113zm-1.574 6.869a18.463 18.463 0 002.81-4.575h-2.81v4.575z" fill="#fff"/><path d="M115.884 49.142a18.463 18.463 0 002.81-4.575h-2.81v4.575zM94.002 9.18c-.35.489-.694.98-1.046 1.465-1.11 1.53-2.279 3.018-3.423 4.523.448.062.898.131 1.35.207.951-1.598 1.926-3.186 2.84-4.807.257-.454.508-.912.761-1.37.2-.357-.265-.321-.482-.017zm-4.517 8.583c.168-.292.342-.585.512-.883a47.17 47.17 0 00-1.537-.274h-.005a63.422 63.422 0 00-4.436 6.808c-2.382 4.319-4.034 9.146-3.275 14.128a17.726 17.726 0 005.906 10.665 17.45 17.45 0 002.145 1.584.227.227 0 00.28-.356 19 19 0 01-5.125-8.642c-1.418-5.229-.24-10.588 1.78-15.493a67.144 67.144 0 013.755-7.537z" fill="#fff"/></svg>