<svg xmlns="http://www.w3.org/2000/svg" xml:space="preserve" xmlns:vectornator="http://vectornator.io" viewBox="0 0 144 56" clip-rule="evenodd" stroke-linecap="round" stroke-linejoin="round"><g fill-rule="evenodd" vectornator:layerName="Untitled"><path d="M11.444 17.466c-.09.049-.164.115-.164.147 0 .032-.056.058-.125.058a.159.159 0 00-.155.114c-.016.063-.095.13-.174.15-.09.024-.144.08-.144.155 0 .079-.04.118-.119.118-.078 0-.12.04-.12.116 0 .074-.047.122-.134.134a.17.17 0 00-.153.148.204.204 0 01-.134.159c-.064.016-.116.073-.116.125 0 .055-.05.095-.119.095-.076 0-.131.053-.155.15-.024.093-.08.149-.151.149-.073 0-.113.042-.113.12 0 .081-.04.12-.125.12a.159.159 0 00-.155.113.225.225 0 01-.144.144.159.159 0 00-.114.155c0 .087-.038.125-.125.125a.159.159 0 00-.155.114.225.225 0 01-.144.144.159.159 0 00-.114.148.16.16 0 01-.12.149c-.065.017-.119.072-.119.122s-.06.1-.134.11a.17.17 0 00-.153.148.203.203 0 01-.134.159c-.064.016-.117.07-.117.121 0 .05-.06.1-.134.11a.17.17 0 00-.153.148.203.203 0 01-.134.158c-.064.017-.116.072-.116.122s-.06.1-.135.11a.17.17 0 00-.153.154c-.012.086-.06.134-.135.134-.075 0-.115.041-.115.12 0 .08-.04.119-.125.119a.159.159 0 00-.156.117c-.017.065-.117.146-.228.182-.221.073-.268.153-.268.459 0 .16.029.217.12.24.065.018.12.081.12.142 0 .08.059.12.223.147.328.054.376.076.36.16-.011.05.07.083.234.095.205.015.254.042.269.15.015.107.064.134.267.149.186.013.255.047.278.134.023.091.083.117.275.117.2 0 .244.02.244.113 0 .128.111.185.364.185.109 0 .174.031.174.083 0 .098.128.156.34.156.097 0 .16.04.18.114.03.116.181.183.414.184a.16.16 0 01.159.12c.024.09.082.12.231.12.135 0 .225.039.274.117.04.064.168.134.285.156.117.022.24.09.273.154.034.063.094.11.133.106.206-.026.33.016.357.123.022.084.102.129.276.157.137.021.245.072.245.114 0 .093.134.149.357.149.117 0 .176.036.198.12.028.106.082.119.49.119.41 0 .464-.013.491-.12.022-.083.082-.12.199-.12.228 0 .357-.056.357-.155 0-.05.061-.083.152-.083.083 0 .22-.067.301-.15a.494.494 0 01.322-.149c.103 0 .206-.047.254-.114.044-.064.179-.133.3-.156.14-.026.233-.083.256-.154.026-.082.092-.114.238-.114.128 0 .23-.04.28-.11.043-.061.175-.129.295-.151.146-.027.228-.08.248-.159.025-.092.082-.118.269-.118s.244-.025.269-.12c.024-.091.082-.119.248-.119.175 0 .226-.028.272-.15.048-.124.096-.148.298-.148.198 0 .24-.02.24-.116 0-.095.049-.12.254-.135.211-.015.257-.041.273-.153.016-.114.056-.134.26-.134.19 0 .247-.025.271-.12.025-.094.082-.12.27-.12.185 0 .244-.025.268-.117a.244.244 0 01.143-.153c.246-.078.156-.616-.122-.735-.13-.055-.248-.147-.263-.204-.016-.058-.084-.105-.153-.105-.085 0-.125-.038-.125-.12 0-.079-.04-.119-.12-.119-.087 0-.12-.04-.12-.15 0-.119-.03-.149-.149-.149-.11 0-.149-.032-.149-.12 0-.079-.04-.119-.12-.119-.087 0-.12-.04-.12-.15 0-.119-.029-.149-.148-.149-.11 0-.15-.032-.15-.119 0-.08-.04-.12-.12-.12-.081 0-.119-.04-.119-.125a.159.159 0 00-.114-.154.225.225 0 01-.144-.144.159.159 0 00-.155-.114c-.087 0-.125-.038-.125-.125a.159.159 0 00-.114-.155.225.225 0 01-.144-.144.159.159 0 00-.154-.114c-.088 0-.126-.038-.126-.125a.159.159 0 00-.114-.155.225.225 0 01-.143-.144.159.159 0 00-.155-.114c-.086 0-.125-.038-.125-.12 0-.08-.04-.119-.12-.119-.087 0-.12-.04-.12-.15 0-.119-.03-.149-.149-.149-.11 0-.15-.032-.15-.12 0-.079-.039-.119-.119-.119-.087 0-.119-.04-.119-.15 0-.119-.03-.148-.15-.148-.11 0-.149-.032-.149-.12 0-.078-.04-.12-.113-.12-.07 0-.127-.055-.15-.149-.02-.082-.057-.146-.082-.142-.1.015-.192-.01-.186-.052.02-.13-.018-.194-.12-.194a.155.155 0 01-.14-.11c-.056-.212-2.565-.293-2.929-.095M3.99 24.903c0 .032.033.059.075.06.04 0 .027.029-.03.063-.059.033-.132.044-.165.024-.033-.02-.06-.008-.06.027s-.04.063-.089.063c-.049 0-.122.054-.163.12-.041.065-.122.12-.18.12-.065 0-.105.044-.105.118 0 .065-.054.153-.12.194-.065.04-.12.107-.12.146 0 .039-.052.087-.116.108a.265.265 0 00-.153.154c-.02.065-.063.102-.093.083-.03-.019-.056-.004-.056.032 0 .038-.03.048-.068.025-.038-.024-.053-.017-.034.015.045.072-.223.392-.28.335-.023-.023-.024.004-.003.06.024.062.011.103-.03.103-.092 0-.217.127-.239.24-.054.29-.048 2.27.007 2.27.035 0 .047.04.028.09-.018.05-.006.09.027.09.034 0 .042.03.02.069-.028.044-.017.052.032.022.044-.027.097-.013.127.035.028.045.083.083.122.083.039 0 .078.05.087.112a.684.684 0 00.162.268c.08.087.161.205.182.262.02.058.069.099.108.09.04-.008.107.052.15.134.046.087.12.141.177.13.063-.012.088.01.069.06-.017.044.006.114.051.156.045.043.082.06.082.037 0-.021.041-.005.091.036.05.042.078.09.06.107-.06.06.1.183.193.147.07-.027.086-.01.059.06-.02.052.002.127.05.166.046.04.085.052.085.027 0-.024.041-.01.091.031.05.042.079.088.064.104-.052.052.113.18.193.148.045-.017.075.006.068.053-.024.172.006.224.116.203.075-.014.125.02.145.098a.238.238 0 00.155.151c.068.018.124.07.124.117 0 .046.068.11.15.141.082.031.143.09.135.128-.009.04.04.1.11.137.068.036.117.112.11.169-.012.075.026.104.134.104.097 0 .14.027.122.075-.03.076.1.24.15.188.016-.014.062.014.104.064.042.05.056.091.03.091-.024 0-.011.039.028.086.04.047.114.07.167.05.066-.026.085-.011.063.048-.032.084.092.253.146.2.016-.016.062.013.104.063.041.05.058.09.036.09-.022 0-.005.038.037.083.042.045.115.067.162.05.06-.023.074-.004.049.062-.037.095.087.253.149.19.018-.017.086.036.15.118.066.083.136.134.157.113.02-.02.038-.006.038.033 0 .038.08.154.178.256.098.103.16.215.14.248-.021.034-.01.043.026.022.088-.055.577.41.523.498-.025.04-.009.064.038.058.156-.022.237.003.2.063-.02.032-.008.06.026.06.035 0 .064.04.064.089 0 .05.041.09.091.09.05 0 .107.04.126.09.02.048.072.089.118.089.074 0 .108.07.091.19-.003.023.048.058.113.08a.41.41 0 01.193.167c.041.072.115.13.164.13.05 0 .086.047.082.105-.005.058.017.105.049.105.094 0 .526.465.526.567 0 .051.04.109.09.128.05.019.09.073.09.12s.033.082.075.077c.166-.022.224.01.224.124 0 .08.04.119.119.119.066 0 .121.034.124.075.015.244.115.467.115.256 0-.088.016-.094.09-.032.049.04.09.111.09.156 0 .112.557.114.65.002.053-.064.112-9.318.06-9.69a.942.942 0 01.005-.172c.009-.087-.017-.106-.113-.08-.068.018-.139.01-.157-.019-.017-.028-.067-.038-.11-.022-.043.017-.124-.038-.179-.121-.06-.094-.155-.153-.243-.153-.204 0-.329-.058-.298-.14.017-.043-.052-.073-.186-.08a.412.412 0 01-.336-.168c-.072-.091-.16-.143-.21-.124-.101.039-.326-.066-.396-.184-.026-.044-.127-.08-.224-.08-.116 0-.176-.03-.176-.09a.09.09 0 00-.09-.09c-.049 0-.09-.027-.09-.06 0-.032-.095-.06-.212-.06-.117 0-.198-.022-.18-.05.037-.062-.223-.189-.388-.189-.067 0-.146-.062-.184-.144-.054-.118-.102-.14-.268-.125-.143.013-.201-.006-.201-.067 0-.047-.047-.103-.105-.124-.057-.02-.18-.1-.274-.177-.093-.077-.194-.125-.224-.107-.03.02-.055.01-.055-.019 0-.03-.06-.048-.134-.041-.14.012-.463-.144-.463-.224 0-.026-.08-.047-.18-.047-.139 0-.179-.027-.179-.12 0-.072-.041-.121-.104-.124-.296-.014-.387-.047-.473-.17-.068-.097-.131-.124-.232-.099-.103.026-.17-.005-.26-.12-.066-.084-.15-.136-.183-.115-.034.02-.062.008-.062-.03 0-.036-.028-.049-.061-.028-.034.021-.058.016-.053-.011.022-.128-.013-.206-.08-.183a.392.392 0 01-.21-.023c-.081-.03-.134-.027-.134.009" fill="#5d9ef7"/><path d="M3.865 24.904c-.118.073.021.207.143.138.07-.04.074-.066.015-.12a.13.13 0 00-.158-.018m.303.004c.12.048.131.07.06.115-.049.03-.06.056-.024.056.11.002.147-.073.077-.157a.232.232 0 00-.164-.077c-.06.002-.04.026.05.063m16.973.016a.227.227 0 00-.06.139c0 .063-.143.095-.333.073-.02-.002-.083.052-.142.12-.059.067-.152.123-.207.123-.055 0-.173.054-.262.12a.931.931 0 01-.303.148c-.174.033-.316.147-.273.217.018.029-.05.053-.15.053-.1 0-.182.028-.182.063s-.032.044-.07.02c-.037-.023-.1.002-.14.056-.068.094-.226.145-.473.155-.063.003-.098.021-.077.042.068.068-.123.199-.31.213-.117.009-.198.054-.22.121-.018.059-.072.11-.119.114a1.133 1.133 0 00-.145.023 1.21 1.21 0 01-.145.022c-.047.004-.103.061-.124.127-.027.084-.09.12-.213.12a.471.471 0 00-.29.115.627.627 0 01-.296.143c-.229.037-.307.085-.307.193 0 .073-.131.105-.333.082-.019-.002-.08.048-.134.11-.098.112-.4.227-.519.198-.032-.008-.04.004-.017.027.074.074-.107.197-.317.217-.112.011-.194.044-.183.073.028.074-.114.154-.274.155a.417.417 0 00-.248.115.72.72 0 01-.239.153c-.192.06-.19-.01-.172 5.17l.016 4.871.369.018c.324.015.373.003.407-.102a.268.268 0 01.154-.156.173.173 0 00.116-.153c0-.075.041-.115.12-.115.08 0 .119-.04.119-.12 0-.08.04-.12.121-.12.074 0 .143-.057.178-.149.032-.082.09-.143.132-.135.04.01.083-.042.094-.113.012-.078.078-.143.166-.165.08-.02.146-.07.146-.11 0-.042.054-.109.12-.15.065-.04.119-.114.119-.163 0-.05.03-.09.068-.09.093 0 .468-.37.47-.463 0-.04.053-.075.12-.075.069 0 .119-.04.119-.095 0-.052.054-.109.12-.127.066-.017.136-.095.156-.173.02-.078.071-.142.115-.142.044 0 .115-.05.158-.109a.48.48 0 01.183-.147c.058-.022.102-.06.098-.086-.021-.126.015-.196.101-.196.053 0 .11-.054.127-.12.017-.065.055-.122.084-.127l.128-.015c.04-.004.074-.047.074-.097 0-.049.06-.116.134-.148.074-.033.135-.107.135-.165 0-.063.045-.105.113-.105.063 0 .126-.054.144-.124a.242.242 0 01.156-.156c.068-.018.11-.054.094-.08-.04-.063.145-.248.208-.209.026.017.063-.026.08-.093a.241.241 0 01.156-.156c.07-.018.125-.081.125-.145 0-.102.056-.137.157-.098.02.009.061-.048.09-.125.028-.077.105-.154.171-.17.066-.018.12-.082.12-.145 0-.067.041-.112.105-.112.058 0 .132-.06.164-.135.033-.074.1-.134.149-.134.049 0 .093-.034.097-.075.004-.04.01-.101.015-.134.004-.033.06-.06.127-.06.08 0 .12-.04.12-.12 0-.065.037-.12.082-.12.045 0 .127-.066.18-.149.054-.082.138-.149.187-.149.048 0 .088-.053.088-.12 0-.077.04-.119.113-.119.063 0 .126-.054.145-.124a.241.241 0 01.155-.156c.068-.018.11-.054.094-.08-.039-.063.145-.248.208-.209.026.017.063-.025.08-.094a.243.243 0 01.157-.155c.068-.018.124-.081.124-.141 0-.06.05-.124.11-.143a.41.41 0 00.187-.18c.043-.08.108-.14.144-.134.065.011.075-.024.09-.302.004-.092.044-.134.126-.134.066 0 .12-.007.122-.015l.036-.254c.018-.132.083-.286.144-.343.188-.178.152-1.778-.04-1.778-.066 0-.12-.186-.073-.255.031-.045-.144-.281-.188-.254-.07.043-.118-.042-.134-.233-.007-.085-.035-.155-.063-.155-.027 0-.031-.03-.007-.069.026-.043.016-.053-.028-.025-.046.028-.094-.023-.135-.14-.041-.118-.105-.184-.178-.184s-.113-.042-.113-.12c0-.105-.06-.145-.189-.128-.021.003-.055-.061-.076-.142-.02-.08-.056-.144-.08-.14-.131.02-.193-.02-.193-.127 0-.089-.04-.12-.153-.12-.084 0-.138-.024-.12-.053.094-.152-.541-.305-.683-.163m-15.883.572c.083.132.14.115.086-.025-.019-.05-.063-.092-.097-.092-.04 0-.035.043.011.117m-2.04.01c-.002.054-.058.112-.123.13-.08.02-.118.079-.115.17.003.09.017.109.04.053a.58.58 0 01.152-.183c.065-.053.104-.135.085-.182-.026-.067-.035-.064-.038.013m-.503.45c-.022.021-.039.095-.038.164.002.123.003.123.07.005a.589.589 0 01.132-.163c.041-.028.03-.045-.03-.045-.051 0-.112.017-.134.039m3.486.005c0 .025.057.082.128.125.113.072.124.07.09-.02a.686.686 0 01-.039-.125c0-.014-.04-.025-.09-.025-.049 0-.09.02-.09.045m-3.644.247c0 .04-.027.057-.06.037-.033-.02-.06.01-.06.069 0 .1.007.1.101.005.056-.056.083-.12.06-.143-.023-.022-.041-.008-.041.032m-.3.306c-.048.032-.065.058-.036.058.028 0 .018.042-.023.09-.051.063-.053.09-.007.09.037 0 .067-.024.067-.055 0-.03.042-.098.094-.15.104-.103.046-.124-.094-.033m-.319.278c-.022.022-.04.123-.039.224.001.132.017.16.055.1a.21.21 0 00.022-.164c-.017-.044 0-.08.036-.08s.066-.027.066-.06c0-.068-.08-.079-.14-.02m6.414.26c.116.074.18.074.18 0 0-.034-.061-.06-.135-.06-.109.001-.117.012-.045.06m.538.238c0 .033.04.06.09.06.049 0 .089-.027.089-.06 0-.032-.04-.06-.09-.06-.049 0-.09.027-.09.06m.577.329c.019.049.058.09.087.09.03 0 .054-.041.054-.09a.09.09 0 00-.088-.09c-.053 0-.074.035-.053.09m1.67.836c.054.083.129.15.166.149.047 0 .048-.014.004-.045a.357.357 0 01-.103-.148c-.021-.058-.067-.105-.102-.105-.035 0-.019.067.035.15m.59 5.377c0 2.465.008 3.482.017 2.26.01-1.221.01-3.238 0-4.481-.009-1.243-.016-.244-.016 2.221m-9.29-3.829c0 .058.053.12.119.137.066.017.12.067.12.11 0 .044.024.095.053.113.111.069-.01-.2-.15-.33-.125-.12-.143-.123-.143-.03m2.406 2.362c.01.102.063.158.18.188.095.026.15.022.13-.01-.019-.03-.073-.055-.122-.055-.048 0-.114-.06-.145-.135-.057-.134-.057-.134-.043.012m2.137 2.175c0 .06.05.124.113.14a.222.222 0 01.143.144c.017.063.059.114.093.114.035 0 .018-.077-.038-.176-.056-.096-.112-.164-.126-.15-.014.014-.06-.021-.104-.078-.074-.098-.079-.098-.08.006m.775.788c0 .05.04.108.092.127.135.052.142.005.017-.114-.093-.088-.11-.09-.11-.013m.79.775c.012.078.07.124.167.133.087.008.112-.002.06-.024a.534.534 0 01-.167-.133c-.069-.085-.075-.082-.06.024m.316.389c.02.032.076.06.123.06s.086.038.086.085c0 .048.027.103.06.123.106.066.063-.086-.06-.209-.123-.122-.275-.166-.209-.06m.538.538a.15.15 0 00.116.06c.043 0 .093.054.11.12.018.065.078.119.136.119.08 0 .06-.04-.084-.18-.178-.17-.357-.246-.278-.119m1.404 1.42c0 .067.04.137.09.156.052.02.09 0 .09-.047 0-.044-.041-.114-.09-.154-.075-.062-.09-.054-.09.046m.857.045c-.038.083-.044.148-.013.148.066 0 .132-.15.103-.235-.011-.033-.052.006-.09.087" fill="#0c54bc"/><path d="M126.19 18.862c0 .094-.049.12-.254.135-.211.015-.258.04-.274.153-.012.088-.06.134-.14.134a.158.158 0 00-.15.114.224.224 0 01-.144.144.157.157 0 00-.114.141c0 .062-.052.157-.115.21-.248.213-.261 1.785-.017 1.947.072.048.132.138.132.2 0 .071.042.112.115.112.075 0 .123.048.135.135a.169.169 0 00.153.153c.087.012.135.06.135.135 0 .077.041.115.125.115.072 0 .138.048.154.113.072.273 1.812.272 1.812 0 0-.092.045-.113.245-.113.19 0 .251-.025.274-.114a.224.224 0 01.144-.144.16.16 0 00.114-.15c0-.08.046-.128.134-.14.112-.016.138-.063.153-.274.015-.205.041-.253.135-.253.179 0 .179-1.49 0-1.536-.084-.022-.122-.092-.135-.248-.013-.159-.055-.234-.153-.277-.073-.033-.134-.107-.134-.165a.102.102 0 00-.105-.105c-.058 0-.132-.06-.165-.134-.043-.098-.118-.14-.277-.153-.156-.013-.226-.051-.248-.135-.047-.179-1.535-.18-1.535 0m-94.963.977c-.366.088-.349-.356-.332 8.383l.015 8.003 4.492.015c4.452.015 4.493.014 4.53-.105.033-.102.09-.12.409-.12.325 0 .384-.018.482-.149.09-.12.164-.15.379-.15s.272-.022.297-.119a.16.16 0 01.148-.12c.167 0 .347-.108.347-.21 0-.054.059-.088.15-.088.094 0 .15-.034.15-.091 0-.05.063-.115.14-.145a.306.306 0 00.174-.178c.018-.068.075-.124.128-.124.052 0 .095-.04.095-.087 0-.049.053-.117.119-.152.075-.04.133-.152.157-.3.029-.18.066-.238.15-.238.092 0 .112-.045.112-.264 0-.23.018-.268.134-.284.124-.018.136-.055.152-.458.014-.336.045-.468.135-.564.177-.19.175-1.38-.003-1.491-.095-.06-.12-.14-.12-.384 0-.387-.041-.498-.185-.498-.093 0-.113-.045-.113-.245 0-.195-.025-.251-.12-.276-.066-.017-.12-.075-.12-.129 0-.149-.266-.426-.41-.426-.096 0-.127-.037-.127-.15 0-.106-.032-.149-.113-.149-.062 0-.126-.053-.144-.12a.159.159 0 00-.156-.119c-.085 0-.125-.038-.125-.12 0-.086-.04-.119-.145-.119-.09 0-.16-.043-.182-.113-.038-.12-.186-.18-.48-.192-.101-.004-.133-.02-.074-.035.057-.015.104-.08.104-.143 0-.066.041-.115.098-.115.053 0 .142-.05.196-.113a.466.466 0 01.246-.135.29.29 0 00.206-.155c.033-.074.105-.134.16-.134.062 0 .115-.065.137-.168a.486.486 0 01.154-.252.31.31 0 00.118-.22c0-.083.036-.137.09-.137.099 0 .209-.228.209-.43a.28.28 0 01.104-.201c.2-.146.185-2.536-.016-2.536-.063 0-.088-.067-.088-.235 0-.303-.092-.542-.208-.542-.057 0-.091-.055-.091-.15 0-.11-.032-.149-.12-.149-.08 0-.12-.04-.12-.123 0-.176-.501-.653-.687-.653-.111 0-.149-.032-.149-.126a.159.159 0 00-.114-.154.225.225 0 01-.144-.144c-.023-.09-.084-.114-.274-.114-.2 0-.245-.021-.245-.114 0-.129-.111-.185-.368-.185a.633.633 0 01-.332-.12c-.116-.091-.243-.119-.535-.119-.287 0-.423-.03-.545-.118-.173-.126-7.238-.22-7.732-.104m13.877-.018c-.388.095-.363-.499-.346 8.333l.015 8.07 1.938.016c1.51.013 1.949 0 1.986-.06.026-.041.048-3.668.049-8.058v-7.984l-.146-.158-.146-.158h-1.4c-.77 0-1.477-.012-1.571-.026a1.175 1.175 0 00-.379.025m30.801 0l-.239.03-.015 8.202-.015 8.201h1.936c1.71 0 1.94-.01 1.972-.094.02-.052.036-.953.036-2.002 0-1.867.003-1.907.12-1.907.088 0 .12-.04.12-.15 0-.094.033-.149.091-.149.05 0 .11-.047.134-.104.03-.075.051-.037.073.134.024.191.057.243.164.258.098.014.135.06.135.164 0 .104.033.146.116.146.09 0 .12.048.135.224.013.164.054.24.152.283.074.032.135.094.135.137 0 .043.05.132.113.199.062.067.128.2.148.296.02.102.073.175.126.175.05 0 .09.052.09.119 0 .076.054.131.15.156.116.028.15.076.15.207 0 .097.047.202.11.247.062.043.13.138.154.213.025.078.09.134.158.134.082 0 .115.041.115.145 0 .203.06.333.152.333.043 0 .087.06.098.134a.17.17 0 00.154.154c.108.015.134.057.134.217 0 .325-.012.323 2.318.343l2.164.019v-.377c0-.295-.026-.403-.122-.506a.733.733 0 01-.155-.261c-.017-.072-.084-.144-.147-.16a.158.158 0 01-.114-.155c0-.082-.038-.125-.112-.125-.084 0-.121-.059-.15-.235-.025-.162-.074-.247-.156-.273a.176.176 0 01-.12-.159.159.159 0 00-.114-.15c-.073-.02-.127-.105-.153-.24-.026-.138-.08-.222-.155-.241-.074-.02-.116-.082-.116-.173 0-.103-.033-.142-.119-.142-.074 0-.12-.04-.12-.105 0-.059-.054-.14-.12-.18-.065-.041-.118-.126-.118-.19 0-.192-.068-.302-.186-.302-.08 0-.114-.043-.114-.14a.38.38 0 00-.114-.244.583.583 0 01-.149-.244.28.28 0 00-.155-.18c-.066-.02-.12-.089-.12-.153 0-.072-.04-.115-.111-.115-.084 0-.121-.058-.15-.235-.026-.162-.074-.247-.157-.273-.065-.02-.12-.09-.12-.153 0-.076-.04-.116-.118-.116-.09 0-.12-.04-.12-.153 0-.2-.101-.384-.211-.384-.054 0-.088-.058-.088-.15 0-.11-.032-.15-.12-.15-.078 0-.119-.04-.119-.114 0-.073-.05-.126-.134-.142l-.135-.026.135-.008c.092-.006.134-.046.134-.128 0-.08.04-.12.12-.12.077 0 .12-.039.12-.112 0-.063.053-.126.123-.145a.243.243 0 00.156-.156c.018-.068.07-.124.115-.124.044 0 .098-.067.118-.15.021-.081.071-.149.112-.149.078 0 .212-.246.212-.39 0-.049.054-.088.12-.088.087 0 .119-.04.119-.15 0-.111.031-.149.125-.149a.159.159 0 00.156-.119c.018-.066.082-.12.144-.12.08 0 .112-.042.112-.149 0-.11.032-.15.12-.15.066 0 .12-.026.12-.06 0-.033.067-.118.15-.19.081-.071.148-.165.148-.208 0-.044.054-.133.12-.199.066-.065.12-.171.12-.234 0-.075.047-.123.134-.135a.17.17 0 00.153-.153c.013-.087.06-.135.135-.135.073 0 .115-.041.115-.113 0-.07.056-.127.15-.15.096-.025.149-.08.149-.156 0-.079.04-.119.12-.119.08 0 .119-.04.119-.12 0-.065.04-.119.087-.119.196 0 .312-.832.14-1.004-.197-.197-4.17-.074-4.17.13 0 .046-.054.097-.119.114-.083.022-.129.102-.157.276-.03.186-.066.245-.15.245-.071 0-.113.043-.113.116 0 .074-.048.122-.134.134a.17.17 0 00-.154.154c-.012.086-.06.134-.134.134-.076 0-.115.041-.115.12 0 .065-.031.12-.069.12-.085 0-.47.388-.47.474 0 .061-.036.108-.373.474-.09.098-.164.218-.164.265 0 .048-.054.1-.12.118a.159.159 0 00-.12.156c0 .087-.037.125-.124.125a.16.16 0 00-.155.114.222.222 0 01-.144.144.159.159 0 00-.114.155c0 .084-.038.125-.115.125-.072 0-.125.05-.141.135-.015.074-.03-1.565-.034-3.64-.008-3.684-.018-3.964-.14-3.964-.032 0-.103-.053-.158-.117-.1-.117-2.678-.21-3.386-.122m24.194-.012a.547.547 0 00-.389.17l-.141.15-.016 7.907c-.01 5.12.005 7.962.044 8.063l.059.156 1.928-.016 1.928-.015.016-3.82c.015-3.729.018-3.824.134-3.932a.437.437 0 00.119-.285c0-.106.059-.232.15-.324.082-.082.149-.204.149-.271 0-.1.038-.123.215-.123.159 0 .222-.028.244-.11.051-.199 1.931-.226 1.931-.03 0 .046.068.11.15.14.082.032.149.098.149.149 0 .05.052.09.12.09.087 0 .119.04.119.15 0 .11.032.15.119.15.119 0 .12.04.121 3.988 0 2.194.017 4.05.037 4.123l.036.134h3.93l-.015-4.616-.015-4.616-.135-.019c-.123-.017-.134-.05-.134-.4 0-.327-.017-.385-.119-.417-.093-.03-.12-.09-.12-.27 0-.173-.028-.239-.114-.266-.07-.022-.128-.115-.153-.25-.026-.14-.08-.224-.155-.244a.16.16 0 01-.116-.148.16.16 0 00-.117-.149.243.243 0 01-.154-.144c-.027-.085-.093-.113-.266-.113-.194 0-.235-.021-.25-.134a.171.171 0 00-.154-.154c-.087-.012-.135-.06-.135-.134 0-.097-.043-.116-.269-.116-.223 0-.268-.019-.268-.112 0-.142-.155-.185-.681-.186-.318 0-.429-.024-.486-.102-.126-.173-1.169-.192-1.336-.024-.096.096-.201.126-.44.127-.341 0-.422.033-.481.193-.028.076-.104.104-.279.104-.201 0-.241.02-.241.12 0 .092-.04.12-.175.12-.169 0-.363.13-.363.243 0 .03-.054.055-.119.055-.074 0-.12.04-.121.105 0 .057-.067.135-.149.173l-.149.07v-4.78l-.174-.175c-.122-.121-.235-.174-.374-.175l-1.424-.015a34.977 34.977 0 00-1.471.004M38.11 23.341c0 .129.112.185.364.185.134 0 .174.028.174.12 0 .079.04.12.116.12.094 0 .12.048.134.254.016.21.042.257.153.273.215.03.203.844-.015 1.016-.082.064-.149.17-.149.236a.16.16 0 01-.12.15c-.065.017-.12.074-.12.127 0 .054-.049.095-.115.095a.17.17 0 00-.15.112c-.024.074-.114.125-.267.149-.161.026-.239.072-.26.157-.031.116-.08.12-1.502.12h-1.47v-3.227h1.614c1.543 0 1.613.005 1.613.113m17.33.224a.412.412 0 00-.21.107c-.04.051-.266.087-.653.104-.527.023-.6.04-.679.157-.068.103-.145.131-.354.131-.217 0-.273.023-.298.12-.025.094-.082.12-.264.12-.207 0-.232.015-.232.149 0 .135-.023.15-.245.15-.194 0-.25.024-.275.119-.017.066-.082.12-.143.12-.069 0-.125.056-.149.149-.023.093-.08.149-.15.149-.073 0-.113.042-.113.12 0 .081-.04.12-.125.12a.159.159 0 00-.156.117.244.244 0 01-.144.153.17.17 0 00-.113.151c0 .074-.041.116-.113.116-.119 0-.186.11-.186.303 0 .063-.054.148-.12.189-.089.055-.119.14-.119.329 0 .215-.019.255-.12.255-.101 0-.119.04-.119.264 0 .23-.018.267-.134.284-.122.017-.137.057-.153.404-.014.3-.044.403-.134.466-.18.127-.18 3.31 0 3.437.093.065.12.165.134.496.017.378.03.416.153.434.116.017.134.055.134.284 0 .225.018.265.12.265.1 0 .12.04.12.244 0 .19.025.252.112.274.077.02.124.105.15.27.028.169.074.248.157.27.065.017.118.08.118.14 0 .06.052.125.116.145.07.027.127.083.154.154a.173.173 0 00.152.116c.076 0 .116.041.116.12 0 .08.04.119.12.119.075 0 .144.058.178.15.046.12.098.149.268.149s.21.022.21.12c0 .095.04.119.2.119.15 0 .218.036.279.15.066.123.123.149.338.149.22 0 .259.018.259.119 0 .105.04.12.325.12.27 0 .342.023.42.134.175.25 3.389.234 3.469-.018.031-.098.093-.117.397-.117.307 0 .364-.017.39-.116.023-.087.092-.12.279-.134.204-.015.25-.042.266-.153.017-.114.056-.134.26-.134.188 0 .247-.026.271-.117a.203.203 0 01.159-.134.17.17 0 00.147-.153c.012-.086.06-.134.135-.134.075 0 .115-.041.115-.12 0-.08.04-.119.12-.119.078 0 .119-.04.119-.115 0-.075.048-.123.134-.135a.17.17 0 00.154-.153c.012-.087.06-.135.134-.135.076 0 .116-.041.116-.12 0-.075.058-.144.15-.179.1-.038.148-.102.148-.198 0-.078.054-.19.12-.25.08-.072.12-.184.12-.338 0-.185.021-.23.112-.23.132 0 .184-.154.185-.545.001-.226.023-.283.12-.309.113-.029.12-.08.12-.818 0-.698.014-.806.12-.94a.603.603 0 00.12-.316.603.603 0 00-.12-.314c-.106-.135-.12-.243-.12-.94 0-.738-.007-.79-.12-.82-.1-.026-.119-.081-.119-.348 0-.393-.04-.505-.185-.505-.095 0-.114-.046-.114-.27 0-.189-.035-.304-.119-.388a.412.412 0 01-.12-.238c0-.076-.052-.131-.149-.156-.093-.023-.15-.08-.15-.15 0-.073-.041-.113-.119-.113-.093 0-.12-.04-.12-.177 0-.097-.041-.212-.093-.254a2.91 2.91 0 01-.22-.212c-.07-.073-.162-.134-.205-.134-.043 0-.079-.04-.079-.088 0-.103-.18-.21-.354-.21-.084 0-.124-.04-.124-.12 0-.086-.04-.12-.142-.12-.092 0-.154-.042-.173-.117-.022-.084-.102-.13-.277-.157-.136-.022-.245-.073-.245-.115 0-.106-.14-.149-.482-.149-.248 0-.294-.017-.294-.112 0-.144-.155-.185-.713-.186-.316 0-.472-.027-.546-.093-.106-.097-1.001-.17-1.31-.108m12.795.073c-.11.11-.198.128-.62.128-.608.002-.762.04-.762.186 0 .098-.048.112-.365.112-.314 0-.368.017-.395.12-.02.078-.082.12-.176.12-.08 0-.213.067-.295.149-.082.082-.202.15-.266.15-.077 0-.117.04-.117.119 0 .08-.04.12-.123.12-.174 0-.355.107-.355.21 0 .05-.055.088-.125.088a.159.159 0 00-.156.12c-.017.065-.053.12-.08.12-.107 0-.237.197-.237.362 0 .135-.027.175-.119.175-.077 0-.12.04-.12.113 0 .07-.056.127-.149.15-.088.023-.15.08-.15.142 0 .057-.053.137-.119.179-.087.054-.12.139-.12.315 0 .178-.039.281-.149.39-.125.126-.15.207-.15.5 0 .298-.016.353-.119.38-.116.03-.12.081-.12 2.073 0 1.993.004 2.044.12 2.075.097.025.12.081.12.289 0 .323.089.564.207.564.066 0 .092.064.092.23 0 .154.039.266.12.338a.42.42 0 01.119.272c0 .125.035.172.15.201.096.024.148.08.148.156 0 .077.04.118.116.118.074 0 .122.048.134.135a.17.17 0 00.154.153c.086.012.134.06.134.135 0 .075.041.115.12.115.08 0 .12.04.12.12 0 .078.04.119.115.119.074 0 .122.048.134.134a.17.17 0 00.148.153c.07.01.141.07.158.134.024.092.083.117.275.117.221 0 .245.014.245.15 0 .136.022.149.262.149.212 0 .268.023.293.119.027.103.082.12.391.12.305 0 .366.018.397.116.08.252 3.294.269 3.47.018.076-.11.15-.135.395-.135.248 0 .306-.02.33-.116.024-.087.093-.12.28-.134.204-.015.25-.042.266-.153.017-.116.055-.134.284-.134.225 0 .265-.018.265-.12 0-.08.04-.12.122-.12.067 0 .19-.067.271-.149.083-.082.175-.15.205-.15.074 0 .179-.203.179-.35 0-.078.046-.125.134-.138a.17.17 0 00.154-.153c.012-.087.06-.135.134-.135.08 0 .116-.041.116-.135 0-.074.05-.167.114-.206.062-.04.133-.16.157-.267.024-.108.086-.228.138-.267.068-.05.102-.196.118-.521.02-.38.041-.458.136-.488.173-.055.17-1.128-.002-1.221-.072-.038-.752-.062-1.794-.062h-1.68l-.059.157a1.402 1.402 0 01-.177.306.675.675 0 00-.12.367.452.452 0 01-.149.356c-.082.078-.148.206-.148.284 0 .104-.034.143-.12.143-.078 0-.12.04-.12.117 0 .093-.048.12-.253.134-.212.015-.258.041-.274.153-.03.219-1.034.206-1.135-.015-.053-.117-.112-.15-.271-.15-.154 0-.211-.029-.235-.119-.017-.066-.07-.12-.117-.12s-.116-.067-.154-.149c-.037-.082-.109-.15-.159-.15s-.09-.052-.09-.119c0-.08-.04-.12-.12-.12-.092 0-.12-.04-.12-.174 0-.252-.056-.363-.185-.363-.18 0-.176-3.197.005-3.244.083-.021.129-.101.156-.27.026-.165.073-.25.15-.27.088-.023.113-.084.113-.274 0-.208.02-.245.126-.245a.159.159 0 00.156-.119c.023-.09.082-.12.235-.12.159 0 .218-.032.271-.149.094-.207 1.387-.237 1.44-.034.02.076.104.13.246.156.132.025.215.075.215.13 0 .048.052.101.114.118.07.023.124.078.146.148a.236.236 0 00.154.15c.106.028.124.08.124.351 0 .244.027.337.113.398a.368.368 0 01.135.197c.023.118 3.138.223 3.562.12.193-.047.205-.964.015-1.136-.096-.087-.12-.184-.12-.487 0-.314-.02-.392-.12-.453a.284.284 0 01-.119-.236c0-.157-.133-.348-.243-.348-.03 0-.055-.08-.055-.176 0-.103-.046-.208-.11-.254a.721.721 0 01-.182-.212c-.04-.074-.11-.135-.159-.135-.048 0-.087-.054-.087-.12 0-.079-.04-.12-.119-.12-.076 0-.132-.052-.156-.148-.02-.084-.08-.15-.136-.15-.054 0-.132-.053-.173-.12-.051-.08-.14-.119-.28-.119-.166 0-.207-.025-.223-.134-.016-.112-.062-.138-.273-.153-.205-.015-.254-.04-.254-.135 0-.097-.042-.116-.262-.116-.204 0-.268-.024-.29-.11-.036-.137-.273-.188-.868-.188-.348 0-.465-.022-.52-.099-.126-.171-1.233-.194-1.398-.029m24.212-.073a.423.423 0 00-.201.115c-.051.06-.204.086-.527.086-.664.002-.905.051-.905.187 0 .092-.046.111-.264.111-.213 0-.273.024-.303.12-.03.093-.09.12-.273.12-.211 0-.235.015-.235.149 0 .135-.024.15-.245.15-.192 0-.25.024-.275.115a.205.205 0 01-.159.135.17.17 0 00-.147.152c-.012.087-.06.135-.135.135-.075 0-.115.041-.115.12 0 .081-.04.12-.125.12a.16.16 0 00-.155.113.223.223 0 01-.144.144.159.159 0 00-.114.155c0 .083-.038.125-.112.125-.082 0-.124.058-.153.21-.022.116-.092.244-.156.284-.085.053-.116.14-.116.323 0 .214-.02.253-.134.27-.078.01-.143.068-.155.138a.368.368 0 01-.118.195c-.069.054-.104.2-.122.5-.017.313-.053.454-.136.537-.178.179-.172 3.339.007 3.518.092.093.12.2.12.47 0 .273.026.372.12.457.065.06.119.172.119.252 0 .17.103.385.218.453.044.026.08.114.08.194 0 .104.034.146.113.146.082 0 .124.058.153.21.022.117.092.244.156.284.064.04.116.106.116.146 0 .04.052.1.116.135a.364.364 0 01.153.181c.021.066.09.12.154.12.075 0 .115.041.115.12 0 .079.04.119.12.119.065 0 .12.025.12.055 0 .114.193.244.362.244.135 0 .175.027.175.12 0 .101.04.119.269.119.247 0 .269.012.269.15 0 .137.022.149.269.149.229 0 .269.017.269.119 0 .107.04.12.388.12.301 0 .389.02.389.087 0 .181.232.211 1.631.211 1.55 0 1.754-.02 1.806-.186.03-.094.096-.113.396-.113.307 0 .365-.017.39-.116.024-.087.093-.12.279-.134.205-.015.251-.042.267-.153.016-.113.056-.134.25-.134.178 0 .24-.027.269-.12.02-.065.09-.12.153-.12.084 0 .116-.04.116-.149 0-.12.03-.15.149-.15.11 0 .15-.031.15-.119 0-.08.04-.119.119-.119.077 0 .12-.04.12-.113 0-.07.055-.127.149-.15.088-.023.15-.08.15-.143 0-.058.053-.151.119-.208.07-.06.12-.176.12-.28a.49.49 0 01.148-.326.48.48 0 00.15-.384c0-.185.025-.241.121-.266.116-.03.12-.071.105-.919l-.017-.886-1.657-.016-1.658-.016-.18.172c-.162.154-.18.209-.18.539 0 .327-.013.367-.12.367-.076 0-.119.04-.119.112 0 .064-.054.127-.124.145a.241.241 0 00-.156.157c-.018.07-.081.123-.145.123-.072 0-.112.043-.112.117 0 .09-.05.12-.225.134-.165.014-.24.054-.283.153-.093.213-.907.202-1.07-.015-.086-.114-.167-.15-.343-.15-.19 0-.23-.02-.23-.119 0-.088-.04-.12-.15-.12-.126 0-.15-.028-.15-.175 0-.105-.045-.208-.113-.256a.38.38 0 01-.134-.227c-.015-.1-.065-.154-.156-.167-.123-.018-.135-.05-.135-.404 0-.344-.012-.384-.119-.384-.115 0-.12-.04-.12-1.071 0-1.02.006-1.074.12-1.11.102-.032.12-.09.12-.394 0-.325.013-.36.149-.413.12-.045.15-.098.15-.26 0-.153.029-.211.119-.235a.159.159 0 00.12-.156c0-.088.037-.126.124-.126a.159.159 0 00.157-.119.16.16 0 01.147-.12c.168 0 .348-.109.348-.21 0-.18 1.34-.123 1.424.061.053.118.112.15.278.15.17 0 .21.022.21.119 0 .088.04.12.15.12.137 0 .15.021.15.268 0 .23.017.27.119.27.106 0 .12.039.12.36 0 .49-.037.481 1.993.462l1.681-.016.017-.77c.016-.716.008-.776-.105-.855-.078-.055-.121-.152-.122-.276-.001-.307-.062-.46-.185-.46-.092 0-.113-.044-.113-.244 0-.194-.024-.25-.12-.276-.065-.017-.119-.07-.119-.12 0-.109-.34-.435-.454-.435-.046 0-.084-.054-.084-.12 0-.087-.04-.12-.15-.12-.118 0-.148-.029-.148-.148 0-.107-.033-.15-.113-.15-.062 0-.126-.053-.144-.12-.025-.094-.081-.119-.276-.119-.22 0-.244-.014-.244-.149 0-.113-.031-.15-.128-.15a.278.278 0 01-.2-.099c-.047-.064-.19-.108-.41-.126-.271-.023-.338-.049-.338-.133 0-.134-.221-.18-.87-.18-.402 0-.509-.018-.553-.098-.057-.101-.82-.17-1.127-.102m24.988.002a.63.63 0 00-.209.109c-.055.047-.318.086-.682.101-.529.022-.601.039-.679.156-.066.099-.147.131-.325.131-.185 0-.244.026-.267.117-.023.087-.093.12-.279.134-.205.015-.251.041-.267.153-.013.097-.059.134-.164.134a.43.43 0 00-.26.114.53.53 0 01-.224.135c-.06.012-.118.082-.129.155-.012.086-.06.134-.134.134-.064 0-.115.04-.115.088 0 .049-.068.133-.15.187-.109.071-.149.15-.149.295 0 .16-.026.202-.135.218-.094.013-.14.066-.152.177a.493.493 0 01-.135.263c-.081.073-.116.184-.116.365 0 .215-.019.26-.113.26-.062 0-.129.042-.149.094-.095.245.003.682.153.682.036 0 .1.047.142.105.133.18 3.395.158 3.421-.024a.205.205 0 01.135-.159c.088-.023.116-.082.116-.245 0-.176.022-.214.122-.214.067 0 .187-.065.265-.143.157-.157.39-.182 1.51-.165.453.007.553.025.553.1 0 .05.042.108.094.128.052.02.119.1.148.177.03.078.095.141.145.141.073 0 .091.084.091.419v.418h-.215c-.158 0-.222.029-.243.11-.027.102-.127.114-1.169.145-1.029.032-1.156.047-1.308.159-.14.104-.255.124-.704.124-.483 0-.54.012-.574.12-.028.087-.09.119-.235.119-.368 0-.572.067-.572.187 0 .091-.045.112-.244.112-.194 0-.251.024-.276.12-.017.065-.079.119-.137.119-.058 0-.15.067-.203.15a.305.305 0 01-.252.149c-.102 0-.164.039-.184.116a.452.452 0 01-.174.21c-.078.052-.143.147-.143.211 0 .065-.067.161-.149.215-.082.054-.15.139-.15.189 0 .05-.044.123-.099.163-.065.048-.108.19-.126.425-.016.206-.068.399-.125.463-.167.19-.177 1.262-.014 1.364.108.068.125.137.125.507 0 .474.035.618.149.618.041 0 .092.105.113.235.026.163.074.247.157.273.065.021.119.09.119.153 0 .075.041.116.115.116.075 0 .123.048.135.134a.17.17 0 00.153.154c.087.012.135.06.135.135 0 .076.041.115.121.115.074 0 .143.058.178.15.045.118.098.149.26.149.154 0 .212.029.235.119.027.104.082.12.425.12.347 0 .394.013.394.113 0 .173.097.185 1.432.185 1.387 0 1.618-.026 1.661-.188.022-.084.085-.11.266-.11.187 0 .244-.026.269-.12.02-.077.082-.12.174-.12.112 0 .142-.031.142-.149 0-.135.024-.15.245-.15.19 0 .251-.025.274-.113a.22.22 0 01.139-.143c.06-.016.121-.092.136-.17.015-.078.03.108.035.413l.008.553 1.837-.016 1.838-.015v-9.363l-.135-.108c-.107-.087-.134-.17-.134-.413 0-.239-.026-.32-.12-.378-.065-.041-.119-.111-.119-.156 0-.098-.342-.428-.444-.428-.04 0-.098-.1-.128-.224-.048-.193-.087-.232-.28-.28-.156-.038-.224-.087-.224-.164 0-.076-.045-.109-.149-.109-.091 0-.15-.034-.15-.087 0-.105-.181-.212-.36-.212a.16.16 0 01-.16-.119c-.027-.104-.081-.12-.413-.12-.334 0-.381-.014-.381-.113 0-.155-.111-.185-.673-.185-.376 0-.509-.024-.598-.105-.117-.105-1.269-.175-1.568-.094m19.451.08c-.087.086-.199.119-.411.119-.44 0-.677.062-.71.188-.021.08-.084.11-.23.11-.137 0-.226.039-.276.12-.042.066-.122.12-.179.12-.061 0-.12.061-.142.149-.023.093-.08.15-.15.15-.073 0-.113.041-.113.119 0 .08-.04.12-.12.12-.087 0-.119.04-.119.149 0 .12-.03.149-.15.149h-.149v-.629c0-.795.124-.745-1.852-.745-.86 0-1.614.026-1.7.058l-.153.058v12.372h3.944v-7.941l.149-.15c.083-.082.15-.201.15-.265s.052-.128.119-.146a.16.16 0 00.12-.156c0-.088.038-.126.125-.126a.159.159 0 00.156-.119c.03-.114.082-.12 1.1-.12 1.029 0 1.069.005 1.069.12 0 .08.04.12.119.12.082 0 .12.04.12.125 0 .075.048.137.119.156.094.024.12.082.12.26 0 .296.092.534.207.534.127 0 .118.29-.013.435-.176.194-.191 6.69-.016 6.926.066.09.12.205.12.256 0 .14 3.71.138 3.85-.002.163-.163.138-8.482-.025-8.69-.09-.115-.117-.245-.118-.559-.001-.358-.017-.412-.121-.44-.084-.022-.12-.082-.12-.199 0-.245-.058-.356-.185-.356-.093 0-.113-.045-.113-.245 0-.194-.025-.25-.12-.276-.066-.017-.119-.081-.119-.143 0-.08-.043-.113-.15-.113-.119 0-.149-.03-.149-.15 0-.109-.032-.149-.12-.149-.079 0-.119-.04-.119-.12 0-.086-.04-.119-.145-.119-.105 0-.151-.037-.165-.134-.014-.1-.066-.14-.196-.155a.488.488 0 01-.275-.134c-.055-.063-.146-.115-.203-.115-.056 0-.152-.06-.212-.134-.095-.117-.175-.137-.636-.155-.424-.017-.55-.044-.635-.135-.161-.17-1.007-.165-1.178.006m-11.785.212c-.291.158-.291.163-.273 6.422.015 5.13.028 5.867.107 5.916.125.08 3.799.076 3.947-.003.159-.085.185-11.698.026-11.83-.049-.04-.089-.164-.089-.274 0-.136-.037-.22-.116-.261-.196-.105-3.403-.078-3.602.03m-68.347 3.188c0 .123.11.186.326.186.088 0 .15.043.17.119.017.071.082.12.156.12.106 0 .125.036.125.244 0 .192.025.251.116.275.088.023.121.092.135.279.014.204.04.25.152.266l.135.02v2.985l-.15.138c-.113.105-.15.199-.15.385 0 .208-.018.248-.119.248-.102 0-.12.04-.12.269 0 .247-.011.268-.149.268a.444.444 0 00-.269.12.413.413 0 01-.237.12c-.077 0-.132.053-.156.149-.053.21-1.303.237-1.37.03-.025-.083-.11-.131-.272-.157-.177-.028-.235-.066-.235-.15 0-.079-.044-.112-.15-.112-.12 0-.149-.03-.149-.149 0-.11-.032-.15-.12-.15-.097 0-.12-.04-.12-.214 0-.16-.028-.222-.11-.244-.093-.024-.117-.111-.15-.547-.029-.377-.072-.562-.158-.68-.173-.236-.18-1.511-.009-1.556.111-.029.187-.379.188-.866 0-.127.03-.195.084-.195.096 0 .156-.127.156-.33 0-.087.045-.154.12-.178.065-.02.119-.09.119-.153 0-.077.041-.116.125-.116a.16.16 0 00.157-.119c.017-.066.07-.12.12-.12.049 0 .142-.067.206-.149.161-.205 1.603-.238 1.603-.036m-18.832 2.398c.066.08.201.133.408.157.233.027.315.064.337.148.016.062.071.112.122.112.12 0 .397.276.397.397 0 .05.05.105.113.122.255.066.254 1.93-.002 1.93-.07 0-.111.043-.111.117 0 .094-.049.12-.254.134-.211.016-.257.041-.273.153l-.02.134h-3.756v-3.525h1.47c1.403 0 1.474.005 1.569.121m81.575 2.172c0 .63-.009.683-.12.712-.095.025-.119.081-.119.276 0 .208-.019.244-.125.244a.158.158 0 00-.156.12c-.018.066-.082.12-.144.12-.08 0-.113.042-.113.149 0 .135-.023.15-.245.15-.194 0-.251.024-.275.119-.029.11-.082.12-.712.12-.64 0-.68-.008-.68-.12 0-.1-.04-.12-.235-.12-.198 0-.238-.02-.254-.134a.169.169 0 00-.153-.154c-.202-.028-.211-1.086-.01-1.086a.159.159 0 00.155-.114c.019-.074.105-.128.24-.153.137-.026.221-.08.241-.155.025-.098.084-.116.387-.116.302 0 .362-.018.387-.115.027-.103.1-.116.749-.134.66-.018.726-.03.815-.152.26-.352.367-.193.367.543" fill="#040404"/></g></svg>