<svg width="121" height="10" viewBox="0 0 121 10" fill="none" xmlns="http://www.w3.org/2000/svg"><path d="M9.198 8.037l.053-.084-1.413-1.017-.06.094a2.53 2.53 0 01-.99.906c-.437.214-.919.32-1.406.312-.4.004-.795-.077-1.16-.24a2.74 2.74 0 01-.91-.663 3.083 3.083 0 01-.599-1.021 4.034 4.034 0 010-2.61c.134-.379.34-.728.606-1.028a2.86 2.86 0 01.917-.677c.36-.165.752-.248 1.148-.245.474-.008.943.099 1.367.312.4.21.738.523.978.907l.06.093.09-.064 1.23-.882.083-.06-.057-.085A4.154 4.154 0 007.575.578 4.949 4.949 0 003.522.469c-.566.246-1.08.6-1.51 1.042a4.852 4.852 0 00-1.01 1.568 5.15 5.15 0 00-.37 1.946A5.328 5.328 0 00.986 6.99a4.73 4.73 0 00.985 1.556c.425.44.936.786 1.501 1.018a4.909 4.909 0 001.897.362 5.072 5.072 0 002.251-.49 3.824 3.824 0 001.578-1.398zm8.189 1.665V8.161H13.71V5.665h3.291v-1.54h-3.29V1.852h3.551V.312H12.01v9.39h5.378zm15.809-7.85v7.85h1.8v-7.85h2.446V.312H30.75v1.54h2.446zm11.756 7.85h1.909l-1.932-3.58a2.956 2.956 0 002.008-2.848c0-1.772-1.311-2.961-3.26-2.961H39.99v9.389h1.701V6.328h1.477l1.784 3.374zm.243-6.391c0 .706-.422 1.46-1.607 1.46h-1.897V1.852h1.897c1.185 0 1.607.754 1.607 1.459zM56.35 9.702h1.894L54.457.312H52.8L49 9.702h1.857l.795-2.111h3.903l.794 2.111zm-1.382-3.65h-2.725l1.362-3.62 1.363 3.62zm7.485 2.108V.31H60.65v9.392h6.107V8.161h-4.305zM26.465.312v6.456L21.881.312H20.22v9.39h1.739V3.245l4.583 6.457h1.663V.312h-1.739z" fill="#fff"/><path d="M108.06.312v5.385a2.9 2.9 0 01-.553 1.895 2.141 2.141 0 01-3.079.006 2.946 2.946 0 01-.541-1.901V.312h-1.801v5.47a5.21 5.21 0 00.267 1.712c.164.486.428.933.774 1.312.342.366.763.651 1.231.833a4.328 4.328 0 001.609.287 4.225 4.225 0 001.599-.293 3.477 3.477 0 001.235-.839c.35-.378.618-.825.787-1.311.188-.548.28-1.123.273-1.702V.311h-1.801zM97.956 1.529a5.008 5.008 0 00-1.56-1.053 4.786 4.786 0 00-1.911-.388 4.86 4.86 0 00-1.929.388c-.588.25-1.124.61-1.579 1.059-.454.45-.816.985-1.066 1.573a4.92 4.92 0 000 3.828c.249.582.606 1.11 1.053 1.56a4.92 4.92 0 001.559 1.046 4.99 4.99 0 003.84-.006 5.133 5.133 0 001.579-1.052 4.88 4.88 0 001.454-3.482 4.92 4.92 0 00-.388-1.914 5.003 5.003 0 00-1.052-1.559zm-.422 3.484a3.285 3.285 0 01-.903 2.285 3.08 3.08 0 01-.979.697 2.948 2.948 0 01-2.384 0 3.092 3.092 0 01-.979-.697 3.265 3.265 0 01-.902-2.285 3.35 3.35 0 01.24-1.259 3.191 3.191 0 011.642-1.732 2.887 2.887 0 012.383 0 3.191 3.191 0 011.642 1.732c.16.4.241.828.24 1.259zm-23.84-.528v1.54h2.417a2.9 2.9 0 01-.276.85c-.14.277-.33.526-.56.734-.231.205-.5.365-.791.47-.32.114-.656.17-.994.167a2.956 2.956 0 01-2.183-.923 3.183 3.183 0 01-.644-1.028 3.695 3.695 0 010-2.593c.147-.38.365-.73.643-1.027.272-.288.6-.516.965-.671.386-.163.8-.244 1.219-.24a2.9 2.9 0 011.39.341c.44.243.815.587 1.094 1.004l.061.089.087-.063 1.23-.882.08-.058-.053-.084A4.202 4.202 0 0075.762.614a4.806 4.806 0 00-2.26-.528 5.064 5.064 0 00-1.953.375 4.742 4.742 0 00-1.563 1.043 4.949 4.949 0 00-1.421 3.52c-.006.668.121 1.33.374 1.948.24.58.591 1.107 1.036 1.55.448.44.979.79 1.56 1.027a5.07 5.07 0 001.954.375 4.83 4.83 0 001.867-.35 4.11 4.11 0 001.438-.993c.41-.447.723-.973.922-1.545a5.897 5.897 0 00.323-1.998v-.553h-4.345zM116.813.312h-3.686v9.39h1.701V6.328h1.985a3.338 3.338 0 002.421-.886c.277-.288.493-.628.637-1a3 3 0 00.204-1.167c-.001-1.773-1.31-2.963-3.262-2.963zm-1.985 1.54h1.897c1.185 0 1.608.753 1.608 1.457 0 .705-.423 1.46-1.608 1.46h-1.897V1.852zM87.527 3.273c0-1.772-1.311-2.961-3.26-2.961H80.58v9.39h1.701V6.328h1.478l1.784 3.374h1.909l-1.931-3.58a2.956 2.956 0 002.006-2.85zM82.28 1.85h1.897c1.186 0 1.608.753 1.608 1.459 0 .705-.422 1.46-1.608 1.46H82.28V1.85z" fill="#AAA"/></svg>