<svg xmlns="http://www.w3.org/2000/svg" xml:space="preserve" xmlns:vectornator="http://vectornator.io" viewBox="0 0 144 56" clip-rule="evenodd" stroke-linecap="round" stroke-linejoin="round"><g vectornator:layerName="svgg"><path d="M364.583 53.44c-3.101.639-6.313 2.026-7.748 3.345-.228.21-.464.382-.524.382-.352 0-3.856 3.893-4.2 4.666-.062.138-.375.7-.697 1.25-.322.55-.66 1.188-.753 1.417-.092.229-.237.567-.322.75-.421.91-.811 1.93-1.085 2.833-.166.55-.404 1.283-.528 1.629-.124.345-.226.847-.226 1.114 0 .267-.082.697-.182.955-.174.451-.232.885-.659 4.969-.374 3.575-.071 10.5.608 13.917.232 1.169.315 1.529.75 3.25.093.366.239.738.326.825.086.087.157.297.157.467 0 .506 2.263 5.291 2.503 5.291.068 0 .169.131.223.292.377 1.122 3.658 4.502 5.395 5.558.346.21.666.424.712.475.172.19 2.624 1.342 2.857 1.342.134 0 .315.067.402.149.977.923 8.778 1.302 11.408.554 1.616-.459 2.709-.854 2.908-1.048a.645.645 0 01.396-.155c1.417 0 6.185-4.221 7.814-6.918.732-1.211 2.264-4.551 2.638-5.749.157-.504.383-1.217.502-1.583a11.1 11.1 0 00.334-1.411c.064-.409.18-.859.258-1 .58-1.044.786-13.663.281-17.173-.502-3.485-1.006-5.506-1.902-7.625-1.278-3.023-1.889-4.146-3.084-5.672-1.018-1.298-3.407-3.657-3.845-3.797-.165-.052-.3-.148-.3-.212 0-.065-.356-.303-.792-.53-.435-.228-.829-.459-.875-.514-.046-.055-.345-.219-.666-.363-1.719-.774-2.172-.953-2.402-.953-.14 0-.5-.106-.801-.236-1.675-.72-6.48-.986-8.881-.491M195 81.247v27.42h8.5V96.656c0-7.961.058-12.12.173-12.334.168-.314.482-.322 12.49-.322h12.318l.26.37c.229.327.259 1.776.259 12.334v11.963h8.5V53.828l-4.208.044-4.209.045-.083 11.25c-.046 6.187-.144 11.343-.218 11.458-.206.319-24.829.303-25.094-.016-.131-.158-.198-3.497-.228-11.458l-.043-11.234-4.209-.045-4.208-.044v27.419m57.244-27.205c-.044.114-.06 12.433-.037 27.375l.043 27.166 17.625.043 17.625.042v-7.166l-13.292-.043-13.291-.042-.047-8.334c-.025-4.583-.005-8.502.045-8.708l.091-.375h22.827v-7.164l-11.458-.043-11.458-.043v-15.5L274 61.167l13.083-.084.049-3.083c.027-1.696.005-3.327-.049-3.625l-.098-.542h-17.331c-13.712 0-17.348.044-17.41.209m41.016-.059c-.092.15.668 2.762.903 3.1.064.092.285.654.491 1.25.206.596.481 1.283.61 1.526.13.243.236.56.236.703 0 .249.346 1.148.714 1.853.095.183.229.558.298.834.069.275.288.913.487 1.418.198.504.437 1.179.53 1.5.093.32.237.654.32.741.083.087.151.299.151.47 0 .171.092.474.203.675.231.413.387.817 1.041 2.697.255.733.521 1.408.59 1.5.07.092.181.415.246.72.065.304.223.754.351 1 .129.245.234.573.235.728 0 .156.07.325.155.377.084.053.204.325.265.605.062.28.217.71.345.956.129.246.234.564.235.706 0 .142.071.329.157.416.086.087.349.752.585 1.477.236.725.493 1.4.571 1.5.079.1.184.369.235.598.118.534.579 1.841.766 2.172.079.141.197.496.262.79.064.294.186.577.271.63.084.052.156.221.159.377.003.155.151.581.328.948.177.367.325.82.328 1.008.003.188.069.413.146.5.078.087.309.646.514 1.242.206.596.48 1.282.61 1.526.129.243.235.587.235.764 0 .176.049.369.108.428.156.157.891 1.997.892 2.235 0 .185.134.532.754 1.964.119.275.254.65.301.833.046.183.244.746.439 1.25.664 1.712.86 2.249 1.032 2.833.095.321.24.655.323.742a.719.719 0 01.157.417c.003.142.151.558.328.925.177.366.327.816.333 1 .006.183.121.479.255.657.135.177.245.484.245.68 0 .196.048.405.107.464.186.186.891 2.019.892 2.318.002.557.569.639 4.116.592l3.457-.045.323-.833c.177-.458.423-1.07.547-1.359.123-.288.225-.64.225-.781 0-.142.075-.303.166-.36.092-.057.167-.231.167-.387 0-.157.15-.564.333-.907.184-.342.334-.803.334-1.025 0-.222.065-.428.145-.459.08-.03.338-.618.574-1.305.447-1.303 1.17-3.265 1.783-4.834.196-.504.433-1.179.526-1.5.093-.32.237-.654.32-.741a.65.65 0 00.152-.392c0-.128.104-.469.231-.758.227-.515.886-2.286 1.281-3.442.109-.321.27-.723.356-.894.087-.17.344-.883.572-1.583.228-.7.484-1.344.57-1.431.086-.087.156-.291.156-.453 0-.269.114-.578.754-2.056.119-.275.254-.65.301-.833.046-.183.246-.746.444-1.25.199-.504.438-1.179.532-1.5.094-.321.229-.658.3-.75.071-.092.3-.692.51-1.333.21-.642.432-1.242.495-1.334.062-.091.244-.579.404-1.083.159-.504.392-1.142.517-1.417.26-.568.723-1.836.853-2.333.048-.183.184-.558.303-.833.641-1.478.754-1.787.754-2.057 0-.163.11-.442.245-.62.134-.178.247-.478.25-.666.003-.189.115-.489.25-.667.134-.178.247-.478.25-.667.003-.189.115-.489.25-.666.134-.178.247-.437.25-.574.007-.278.729-2.113.898-2.282.059-.059.107-.263.108-.454.001-.191.109-.554.241-.808.132-.253.424-1.003.648-1.666.224-.664.482-1.394.574-1.623.091-.229.297-.754.457-1.167.16-.413.398-.997.529-1.298.572-1.315.687-1.28-4.293-1.33l-4.426-.044-.305.628a7.928 7.928 0 00-.438 1.127c-.187.697-1.114 3.346-1.297 3.704-.136.266-.376.976-1.143 3.38-.132.412-.299.865-.373 1.005-.073.141-.188.516-.256.833-.068.318-.198.67-.288.782-.09.112-.225.449-.3.75-.152.614-.444 1.456-.775 2.238-.123.289-.223.668-.223.842 0 .174-.063.388-.14.475-.077.087-.307.683-.511 1.325-.204.641-.472 1.391-.594 1.666-.22.493-.973 2.692-1.255 3.667-.218.749-1.243 3.642-1.359 3.833-.056.092-.155.416-.22.72a4.773 4.773 0 01-.352 1c-.128.246-.234.611-.234.812-.001.201-.071.408-.155.46-.085.053-.204.325-.266.605-.061.28-.217.71-.345.956-.128.246-.234.58-.234.741a1.427 1.427 0 01-.167.584c-.179.314-.606 1.489-.831 2.289-.23.818-.525 1.636-.772 2.139-.127.259-.231.638-.231.843 0 .204-.11.517-.245.694-.135.178-.247.453-.25.61-.003.157-.113.532-.245.833-.132.301-.28.735-.33.964-.049.23-.268.638-.487.907l-.396.491-.205-.657a12.54 12.54 0 00-.44-1.183c-.13-.288-.236-.678-.236-.865 0-.187-.069-.382-.154-.435-.084-.052-.206-.335-.271-.629-.064-.294-.183-.649-.263-.79-.144-.253-1.534-4.294-1.807-5.255a23.792 23.792 0 00-.749-2.167c-.321-.787-.607-1.623-.744-2.168a4.554 4.554 0 00-.3-.833c-.096-.183-.345-.895-.552-1.582-.207-.688-.432-1.325-.499-1.417-.067-.092-.177-.429-.244-.75-.068-.321-.168-.658-.224-.75-.12-.198-1.153-3.118-1.355-3.833a21.808 21.808 0 00-.776-2.214c-.126-.301-.228-.628-.228-.725 0-.098-.1-.414-.223-.703-.334-.789-.624-1.626-.779-2.254-.077-.309-.22-.643-.319-.741-.099-.099-.179-.36-.179-.579 0-.22-.104-.599-.231-.842s-.401-1.005-.609-1.692c-.207-.688-.42-1.325-.473-1.417-.113-.197-1.049-2.875-1.542-4.417a33.215 33.215 0 00-.722-2l-.375-.916-4.429-.045c-2.611-.026-4.469.02-4.526.111m77.49 7.618c2.303.53 4.089 1.665 5.561 3.534.633.804 2.189 3.786 2.189 4.197a.7.7 0 00.165.433c.22.22.419 1.141 1.094 5.068.579 3.372.289 12.241-.518 15.834-.134.596-.244 1.195-.243 1.333 0 .138-.101.442-.223.678a4.705 4.705 0 00-.338.916c-.12.511-.612 1.595-.79 1.739-.056.046-.158.271-.226.5-.347 1.167-2.691 3.624-4.171 4.372-2.797 1.413-6.455 1.483-9.212.174-1.442-.684-3.895-2.974-4.373-4.083a7.94 7.94 0 00-.331-.671 15.165 15.165 0 01-.767-1.458 8.083 8.083 0 01-.404-1.084c-.074-.275-.21-.725-.303-1-.392-1.158-.693-2.395-.693-2.848 0-.267-.113-1.073-.25-1.791-.294-1.537-.352-10.549-.076-11.748.091-.396.236-1.334.322-2.083.179-1.557.432-2.653.77-3.335.128-.259.234-.587.234-.728 0-.363 1.67-3.717 1.851-3.717.082 0 .149-.099.149-.22 0-.264 2.241-2.529 2.833-2.863.229-.13.604-.316.833-.414.23-.099.53-.228.667-.289 1.642-.717 4.259-.904 6.25-.446" fill="#0d0d0d"/><path d="M68.083 19.421c-.366.133-.826.242-1.021.243-.195.002-.448.115-.562.253-.114.137-.313.25-.443.25-.34 0-2.426 2.16-2.741 2.84-.763 1.644-.816 1.859-.811 3.29.007 1.659.322 2.765 1.153 4.049.51.785 2.393 2.486 2.756 2.488.093.001.394.129.669.285.971.55 4.087.403 5.46-.258 1.085-.523 3.124-2.336 3.124-2.779 0-.1.084-.267.188-.37 1.093-1.093 1.059-4.388-.07-6.879-1.088-2.399-5.315-4.271-7.702-3.412M123 31.102c-.916.347-2.464 1.066-2.745 1.276-.525.39-1.088.96-1.088 1.1 0 .089-.057.186-.125.216-.22.098-.875 1.117-.875 1.362 0 .13-.113.33-.25.444-.529.439-.346 4.479.254 5.623.779 1.483 1.862 2.572 3.037 3.055.252.103.459.246.459.317 0 .071.372.178.826.238.455.061.872.183.927.272.128.208 2.196.212 2.324.005.053-.087.43-.207.838-.268.407-.062.827-.216.933-.343.106-.128.269-.232.363-.232.567 0 2.453-1.966 2.879-3 .056-.138.209-.449.339-.693.339-.633.325-4.427-.018-4.881-.135-.178-.245-.425-.245-.548 0-.528-1.989-2.747-2.651-2.957-.192-.061-.349-.18-.349-.266 0-.085-.131-.156-.291-.156-.161-.001-.517-.125-.792-.276-.505-.276-3.227-.486-3.75-.288M75.083 44.257c-.458.125-.963.306-1.122.402-.16.096-.379.174-.488.174-.268 0-1.915 1.131-2.549 1.75-.585.572-1.419 1.772-1.678 2.417-.055.137-.201.475-.324.75-.781 1.742-.766 5.27.029 6.838.091.181.346.692.566 1.136.358.723 2.308 2.943 2.586 2.943.06 0 .461.216.89.48 3.176 1.954 8.522.853 10.776-2.22 1.556-2.122 2.019-3.842 1.831-6.815-.162-2.57-2.272-6.168-3.924-6.692-.189-.06-.343-.179-.343-.265 0-.085-.093-.155-.208-.156-.115-.001-.433-.12-.708-.264-1.141-.601-3.959-.854-5.334-.478m29.506 6.067c-.053.086-.43.207-.838.268-.407.061-.827.215-.933.343-.106.127-.295.232-.422.232-.126 0-.229.07-.229.155 0 .086-.148.202-.329.26-.59.187-2.297 2.021-2.661 2.86-.086.197-.236.408-.333.468-.098.06-.178.236-.178.392-.001.155-.126.506-.278.781-.414.746-.42 5.282-.009 6 .157.275.286.6.287.722.003.723 2.639 3.753 3.537 4.066.255.089.464.229.464.312 0 .083.17.15.379.15s.565.131.792.29c.344.243.787.29 2.689.285 2.278-.007 2.59-.069 3.806-.767a8.22 8.22 0 01.5-.259c1.578-.729 3.781-3.846 4.099-5.799.261-1.604.057-4.917-.334-5.416-.107-.138-.375-.625-.595-1.084-.399-.831-2.293-2.916-2.649-2.916-.103 0-.187-.068-.187-.151 0-.082-.225-.228-.5-.324s-.5-.254-.5-.35c0-.096-.207-.176-.459-.176-.252-.001-.673-.113-.935-.25-.545-.284-4.018-.361-4.184-.092m-19.506 20.92c-.091.029-.616.146-1.166.262-.55.115-1.166.311-1.369.435-.203.124-.466.228-.584.232-.367.01-2.25 1.234-3.087 2.006-2.605 2.406-4.192 7.294-3.391 10.446l.339 1.335c.342 1.352 1.713 3.592 2.874 4.696.813.773 2.528 2.011 2.786 2.011.085 0 .367.106.626.236 1.536.771 3.563 1.042 5.806.777 1.296-.153 1.856-.327 3.355-1.046 2.62-1.256 4.869-3.914 5.547-6.555.071-.277.216-.666.322-.864.293-.548.247-5.015-.058-5.548-.131-.229-.241-.571-.244-.758-.008-.461-1.032-2.434-1.703-3.281-.708-.894-2.111-2.295-2.299-2.295-.08 0-.246-.098-.367-.217-1.137-1.125-5.898-2.331-7.387-1.872m29.09 9.527c-.3.126-.684.229-.855.229-.341 0-1.955.83-2.461 1.265-.753.648-1.458 1.367-1.69 1.725a7.372 7.372 0 01-.417.58c-.316.371-.917 1.58-.917 1.844 0 .145-.12.447-.266.671-.32.489-.281 4.596.05 5.165.106.183.439.858.739 1.5.616 1.319 2.417 3.283 3.186 3.475.252.063.458.188.458.278 0 .09.133.164.296.164.163 0 .482.131.709.291.348.247.799.292 2.924.292 2.17 0 2.551-.04 2.803-.292.161-.16.468-.291.683-.291.215 0 .416-.057.446-.125.069-.155 1.085-.875 1.235-.875.206 0 1.339-1.249 1.738-1.917.219-.367.453-.705.519-.752.066-.046.172-.29.235-.541.063-.252.174-.457.246-.457.377 0 .863-4.811.526-5.218-.09-.109-.218-.499-.285-.865-.067-.367-.224-.815-.349-.996-.124-.181-.226-.456-.226-.611 0-.155-.056-.307-.125-.338-.069-.03-.34-.372-.603-.76a9.162 9.162 0 00-1.667-1.833c-.476-.39-2.425-1.379-2.723-1.381-.164-.002-.619-.115-1.011-.251-.863-.301-2.455-.289-3.198.024m25.339 9.517c-.405.037-.891.175-1.078.306a1.482 1.482 0 01-.721.239c-.209 0-.38.069-.38.154 0 .084-.331.366-.737.625-.405.259-.816.64-.913.846-.097.207-.252.375-.346.375-.094 0-.17.113-.17.25 0 .138-.07.25-.156.25-.085 0-.207.169-.269.375a2.117 2.117 0 01-.323.625c-.115.138-.251.687-.303 1.22-.052.534-.185 1.08-.296 1.213-.155.187-.157.343-.009.668.106.233.154.489.105.567-.048.078-.012.19.081.247.093.058.17.43.17.827 0 .489.081.754.25.819.137.052.25.248.25.434s.131.476.291.645c.161.168.404.478.542.689.137.21.346.466.464.569l.417.362c.111.096.334.225.494.286.16.061.292.188.292.282 0 .095.133.172.296.172.163 0 .482.131.708.292.747.528 4.284.491 5.383-.057 1.766-.88 2.348-1.347 2.993-2.401.197-.321.454-.683.572-.804a.864.864 0 00.214-.523c0-.166.112-.517.249-.779.675-1.294.063-4.64-1.122-6.144-.469-.595-.967-1.084-1.105-1.084-.088 0-.186-.056-.216-.125-.1-.224-1.119-.875-1.37-.875-.135 0-.346-.1-.469-.224-.243-.242-2.533-.437-3.788-.321" fill="#32b1c9"/><path d="M388.567 80.583c.001 1.467.026 2.045.057 1.284.031-.761.031-1.961 0-2.667-.031-.706-.057-.083-.057 1.383M62.833 95.935c-2.253.852-3.407 1.662-4.64 3.259-.473.612-.86 1.217-.86 1.344 0 .128-.11.377-.244.555a1.5 1.5 0 00-.256.74c-.006.23-.119.605-.25.834-.556.973-.294 3.734.561 5.916.769 1.962 3.838 4.75 5.229 4.75.125 0 .321.094.436.209.34.34 4.14.268 4.774-.091.275-.155.602-.283.726-.283.124-.001.559-.226.967-.501.407-.275.793-.501.857-.501.542-.004 3.007-3.28 3.026-4.022.004-.15.12-.487.257-.75.411-.788.343-4.173-.111-5.549-.745-2.258-2.381-4.139-4.615-5.308-1.09-.571-4.902-.962-5.857-.602m29.815 6.894c-7.418 2.441-8.567 12.608-1.898 16.797.341.214.404.242 1.417.62 7.904 2.955 14.655-5.896 10.396-13.632-1.702-3.092-6.479-4.916-9.915-3.785m-49.315 14.429c-1.529.704-1.803.881-2.582 1.659-.882.88-1.008 1.056-1.618 2.25-.713 1.396-.472 5.712.363 6.5.048.045.303.399.565.786.263.387.619.748.791.803.173.055.315.163.315.241 0 .817 5.068 2.168 5.713 1.523.103-.103.429-.187.725-.187s.647-.108.78-.241.438-.292.678-.352c.24-.06.439-.158.441-.216.003-.059.284-.282.625-.496 2.635-1.652 3.356-6.927 1.313-9.611-.884-1.162-2.416-2.417-2.95-2.417a.778.778 0 01-.467-.208c-.342-.342-3.966-.368-4.692-.034m56.75 13.186c-.183.048-.404.156-.491.239a.709.709 0 01-.425.15c-1.047 0-3.404 2.573-4.002 4.368-.406 1.22-.43 3.861-.041 4.549.104.183.349.674.544 1.09 1.966 4.18 7.95 5.098 11.349 1.74 1.858-1.835 2.756-5.052 1.963-7.03-.864-2.154-2.178-3.796-3.563-4.45a30.498 30.498 0 01-1-.494c-.351-.187-3.761-.315-4.334-.162" fill="#fc8a3f"/><path d="M363.667 53.281c-.596.134-1.296.351-1.556.481-.259.131-.572.238-.694.238-.218 0-.449.101-1.857.817-1.244.632-1.465.76-2.477 1.428-.92.608-3.22 2.765-4.004 3.755-.571.721-1.615 2.353-1.547 2.421.035.035.399-.436.808-1.047 7.14-10.672 23.082-11.127 30.884-.882.94 1.234 2.776 4.478 2.776 4.905 0 .105.218.635.833 2.02.081.183.196.595.256.916.06.321.211.921.337 1.334.276.906.637 2.749.914 4.666.291 2.013.407 10.403.169 12.259-.105.82-.225 1.904-.267 2.408l-.075.917.258-.917c.341-1.211.528-10.629.26-13.083-.35-3.201-.868-6.186-1.173-6.756-.075-.14-.187-.515-.25-.833a8.406 8.406 0 00-.337-1.161c-.57-1.487-1.333-3.271-1.482-3.468-.091-.119-.321-.533-.512-.919-1.281-2.592-4.149-5.555-7.125-7.362-.153-.092-.64-.346-1.083-.564a78.962 78.962 0 01-1.249-.625c-.243-.126-.553-.229-.689-.229-.136 0-.462-.112-.724-.249-.263-.137-.628-.25-.811-.252-.183-.001-.702-.114-1.151-.251-1.117-.338-6.881-.316-8.432.033m-168.723.33c-.061.061-.108.23-.106.375.005.224.031.219.175-.028.275-.472 8.227-.443 8.481.031.114.213.173 4.114.173 11.501v11.179l12.541-.043 12.542-.043.083-11.25c.046-6.187.144-11.343.219-11.458.24-.371 8.213-.292 8.446.083.165.267.177.263.131-.041-.06-.4-8.269-.619-8.733-.233-.19.158-.229 2.083-.229 11.303 0 8.421-.049 11.161-.2 11.313-.152.152-3.137.2-12.417.2h-12.217V65.322c0-7.386-.058-11.287-.172-11.5-.175-.327-8.401-.526-8.717-.211m57.167 0c-.274.274-.123 55.182.153 55.288.547.21 35.157.113 35.369-.099.283-.283.283-7.15 0-7.433-.152-.152-3.3-.2-13.153-.2-7.124 0-13.071-.046-13.216-.101-.236-.091-.264-.981-.264-8.334V84.5h11.321c10.07 0 11.351-.029 11.584-.262.339-.34.396-7.204.062-7.538-.152-.152-2.952-.2-11.584-.2H261v-15h12.928c8.592 0 13.035-.058 13.25-.173.447-.239.502-7.123.06-7.565-.273-.274-34.856-.422-35.127-.151m40.836-.002c-.164.163-.14.963.034 1.149.082.087.322.684.535 1.325.212.642.482 1.355.601 1.584.118.229.215.543.215.698.001.155.068.323.149.373.081.051.196.336.255.635s.228.694.375.877l.267.333-.127-.333a82.509 82.509 0 01-.527-1.5c-.22-.642-.467-1.287-.549-1.435-.518-.936-1.203-3.362-.987-3.498.732-.464 9.312-.121 9.312.372 0 .098.106.414.235.702.129.289.364.959.524 1.488.159.529.328.923.376.875.135-.135-.538-2.162-1.136-3.421-.125-.264-9.296-.48-9.552-.224m38.483.151c-.143.143-.384.686-.535 1.207-.151.52-.329 1.059-.396 1.198-.187.389-.513 1.358-.667 1.98-.077.31-.22.643-.319.742-.099.099-.174.371-.167.605.008.233.051.312.096.175.045-.138.15-.4.232-.584.082-.183.308-.821.502-1.416.195-.596.459-1.32.589-1.609.129-.289.237-.626.239-.75.002-.124.148-.543.325-.933l.321-.708 4.384.002c4.81.003 4.894.018 4.712.851-.118.535-.198.747-.815 2.172-.146.335-.264.724-.264.865 0 .141-.065.297-.144.346-.079.048-.24.447-.358.884-.118.438-.278.868-.356.955-.078.087-.142.321-.142.521s-.113.456-.25.57a.784.784 0 00-.25.532c0 .289-.484 1.639-.827 2.307-.072.141-.184.496-.248.79-.065.294-.187.577-.271.629-.085.053-.154.211-.154.352s-.104.493-.231.782a25.681 25.681 0 00-.597 1.608c-.201.596-.435 1.214-.519 1.373-.219.414-.189.531.079.309.127-.106.269-.396.314-.645.046-.249.244-.866.44-1.37.197-.504.551-1.479.788-2.167.236-.687.496-1.321.578-1.408.081-.087.148-.314.148-.505 0-.19.103-.494.228-.675.126-.18.285-.591.353-.912.068-.321.184-.658.257-.75.073-.091.296-.654.495-1.25.2-.596.469-1.319.598-1.608.129-.289.235-.605.235-.703 0-.175.387-1.139.702-1.752.451-.876.596-1.944.287-2.11-.553-.295-9.087-.204-9.392.1m-44.344.282c.05.206.07 1.912.045 3.791l-.048 3.417-13.083.083-13.083.084v15.166l11.333.084c6.233.045 11.427.144 11.542.218.291.188.299 6.791.008 7.082-.152.151-2.929.2-11.482.2-10.134 0-11.293.026-11.384.263-.17.444-.11 16.463.062 16.737.138.217 1.869.26 13.373.333l13.214.083.045 3.436c.036 2.756 0 3.472-.184 3.625-.17.141-4.784.18-17.712.148l-17.482-.042-.043-27.333c-.023-15.034-.007-27.427.037-27.542.062-.165 3.699-.208 17.414-.208h17.336l.092.375m-92.378 27.261c-.028 18.406.014 27.155.131 27.375.24.448 8.289.504 8.732.06.234-.233.262-1.574.262-12.251V84.498l12.375.043 12.375.042.043 11.985c.031 8.516.097 12.049.229 12.208.341.411 8.583.318 8.806-.099.118-.221.16-8.917.131-27.375l-.043-27.052-.041 27.092c-.032 20.803-.088 27.138-.241 27.291-.285.285-8.149.285-8.434 0-.152-.152-.2-3.077-.2-12.146 0-9.87-.039-11.979-.226-12.134-.165-.137-3.583-.177-12.542-.146l-12.315.043-.043 12.068c-.03 8.577-.096 12.132-.229 12.291-.272.328-8.185.328-8.457 0-.136-.164-.198-7.624-.229-27.292l-.043-27.067-.041 27.053m108.96-23.798c.001.043.3.941.664 1.995.365 1.054.933 2.742 1.263 3.75.33 1.008.696 2.059.814 2.334.117.275.266.743.332 1.04.065.296.187.582.272.634.084.052.154.248.154.434 0 .187.102.539.227.782.288.562.59 1.425.796 2.269.088.363.223.738.299.834.077.095.195.433.263.751s.187.693.264.833c.078.141.456 1.193.84 2.339l1.175 3.5c.262.779.54 1.567.618 1.75.078.183.311.878.516 1.544.206.666.44 1.251.521 1.301.081.05.147.232.147.404 0 .172.088.524.195.782.107.258.37.956.586 1.552.215.596.361.859.324.584-.037-.275-.235-.913-.44-1.417-.205-.504-.409-1.158-.453-1.452-.044-.295-.185-.623-.313-.729-.127-.106-.232-.353-.233-.548-.001-.195-.113-.569-.25-.832-.137-.262-.249-.6-.25-.75-.001-.15-.106-.474-.234-.719a4.717 4.717 0 01-.352-1c-.065-.305-.174-.628-.243-.72-.069-.092-.168-.354-.221-.583-.052-.229-.403-1.28-.779-2.334a133.141 133.141 0 01-1.033-3 27.58 27.58 0 00-.559-1.583 26.288 26.288 0 01-.554-1.583c-.396-1.245-.805-2.435-1.004-2.917a21.641 21.641 0 01-.708-2.083 8.748 8.748 0 00-.307-.917c-.079-.183-.417-1.158-.75-2.167-.333-1.008-.667-1.948-.742-2.088-.076-.141-.194-.516-.263-.834-.103-.472-.587-1.433-.582-1.156m25.346 2.803c-.1.185-.181.424-.181.531 0 .107-.119.444-.264.751-.145.306-.238.69-.207.852.031.163.259-.298.507-1.025.44-1.293.503-1.779.145-1.109M295.392 61c.041.229.237.829.436 1.333.198.504.548 1.48.777 2.167.229.688.486 1.321.572 1.408.086.087.156.317.156.51s.11.497.245.675c.135.178.247.435.25.57.005.244.572 1.814.858 2.376.081.16.15.385.153.5.003.116.151.511.328.878.177.366.324.752.327.856.01.332.504 1.171.505.858.001-.253-.109-.551-.691-1.881a8.92 8.92 0 01-.298-.833 26.094 26.094 0 00-.506-1.417c-.47-1.219-.7-1.843-1.225-3.333-.704-1.996-1.968-5.123-1.887-4.667m71.108.541c-1.136.259-.445.366.862.132.831-.148 1.361-.157 1.933-.032.434.095 1.161.222 1.616.282.455.059.978.214 1.162.343.184.129.468.234.631.234.163 0 .296.075.296.167 0 .091.084.166.187.166.129 0 .123-.077-.02-.25-.114-.137-.334-.25-.487-.25a.792.792 0 01-.485-.205c-.552-.552-4.204-.929-5.695-.587m-337 .126c-.335.107-.351.134-.083.138.183.003.483-.06.666-.138.425-.183-.013-.183-.583 0m334.359.767c-2.71 1.455-4.757 4.22-5.848 7.899-.204.688-.445 1.495-.536 1.794-.921 3.034-.847 14.617.117 18.456.681 2.707.718 2.834.984 3.345.141.269.256.582.256.697.001.115.068.208.15.208.082 0 .2.206.263.457s.169.495.235.542c.065.046.317.426.558.844.559.968 2.68 2.967 3.641 3.43 2.098 1.011 1.92.974 4.654.975 3.036.001 4.238-.344 6.053-1.737 1.012-.777 2.93-3.053 2.941-3.491.004-.129-.142-.043-.327.192-.183.234-.333.48-.333.547 0 .465-1.971 2.409-3.183 3.138-2.487 1.499-7.836 1.678-9.497.319-.145-.119-.322-.216-.393-.216-.461 0-2.676-2.164-3.496-3.416-.7-1.069-1.674-3.168-1.818-3.917a8.322 8.322 0 00-.25-.917c-.683-2.009-1.019-5.356-1.02-10.166 0-3.531.312-8.327.569-8.743.059-.096.171-.531.247-.966.454-2.577 2.238-5.955 4.003-7.581 1.188-1.094 2.144-1.662 3.671-2.182.137-.047.063-.084-.167-.082-.229.001-.892.258-1.474.571m-329.026.271c.321.201.639.443.706.539.082.115.123.109.125-.019.002-.106-.264-.349-.59-.542-.786-.464-.986-.446-.241.022m316.096.609c-.236.374-.428.775-.426.891.002.116.232-.152.511-.597.279-.445.471-.845.426-.891-.046-.045-.276.224-.511.597m-22.902-.057c-.106.234-.194.516-.195.626 0 .11-.106.402-.234.647a4.849 4.849 0 00-.353.995c-.067.301-.186.662-.266.803-.15.262-1.055 2.861-1.308 3.755a23.52 23.52 0 01-.76 2.167 18.063 18.063 0 00-.732 2.168 4.633 4.633 0 01-.299.833c-.096.183-.33.82-.521 1.416-.28.873-1.011 2.973-1.566 4.5-.05.137-.255.775-.455 1.416-.2.642-.471 1.403-.601 1.692-.13.289-.239.664-.242.834-.003.169-.116.453-.25.631-.135.178-.245.451-.245.606 0 .155-.112.497-.249.76s-.249.603-.25.755c-.001.153-.105.491-.233.75-.245.5-.538 1.313-.772 2.139-.684 2.416-1.829 4.95-1.829 4.047 0-.152-.086-.486-.19-.744-.281-.695-1.297-3.56-1.467-4.136a34.653 34.653 0 00-.706-2.064c-.082-.218-.194-.352-.247-.298-.054.053-.04.232.031.396.184.429 1.183 3.274 1.597 4.549.193.596.452 1.308.575 1.583.122.275.27.725.328 1l.106.5.35-.481c.31-.426 1.755-4.332 2.11-5.707.075-.287.193-.615.263-.728.07-.114.186-.441.257-.728.072-.287.293-.935.493-1.439.199-.504.424-1.142.5-1.417.075-.275.3-.912.5-1.416.199-.505.425-1.142.502-1.417.077-.275.41-1.25.74-2.167.33-.916.792-2.266 1.026-3 .234-.733.494-1.483.578-1.666.083-.184.338-.896.565-1.584.228-.687.68-2 1.006-2.916.326-.917.886-2.53 1.245-3.584.36-1.054.85-2.467 1.09-3.141.427-1.195.495-1.783.108-.935m45.783-.125a11.572 11.572 0 013.542 4.201c.513 1.052.981 2.205.981 2.419 0 .116.112.425.249.687.137.263.25.363.25.224.002-.371-.9-2.625-1.399-3.496a21.777 21.777 0 01-.545-1c-.468-1.008-2.824-3.355-3.339-3.326-.073.004.045.135.261.291M56.847 64.561c.038.034.37.107.736.163.465.071.566.056.334-.05-.32-.145-1.213-.239-1.07-.113m293.261.536c-.16.359-.362.783-.449.942-.088.16-.155.385-.151.5.005.116.229-.239.498-.789s.467-1.069.441-1.153c-.027-.084-.18.141-.339.5m-298.775.751c-.276.227-.304.283-.083.169.544-.281.845-.512.667-.511-.092.001-.354.155-.584.342m-1.093.86l-.49.542.542-.49c.298-.269.541-.512.541-.541 0-.129-.137-.016-.593.489m298.987.582c-.29.708-.726 2.157-.881 2.93a45.802 45.802 0 01-.32 1.447c-.708 2.931-.972 14.506-.395 17.333.102.504.268 1.329.368 1.833.099.504.244 1.18.322 1.5l.141.584.019-.531a3.021 3.021 0 00-.155-.988c-1.332-3.505-1.063-17.085.435-21.92.131-.425.239-.864.239-.975 0-.112.12-.455.266-.763.146-.308.24-.639.208-.735-.032-.096-.143.033-.247.285M23.718 68.917c.001.55.032.755.069.455.038-.3.037-.75-.001-1s-.069-.005-.068.545m14.487-.25c0 .32.035.452.077.291.041-.16.041-.423 0-.583-.042-.16-.077-.029-.077.292m296.32 2.701a62.432 62.432 0 01-1.039 2.695c-.267.631-.486 1.224-.486 1.319 0 .184-.871 2.527-1.251 3.368-.125.275-.397 1.025-.605 1.667-.209.641-.476 1.354-.594 1.583-.118.229-.215.508-.216.619-.001.179-.124.498-.693 1.798-.08.183-.214.558-.298.833-.083.275-.313.912-.51 1.417a44.4 44.4 0 00-.5 1.333c-.078.229-.303.829-.501 1.333a17.16 17.16 0 00-.448 1.25l-.089.334.239-.334c.131-.183.434-.895.673-1.583.87-2.502 1.46-4.09 1.624-4.373.093-.159.171-.421.174-.583.003-.162.116-.44.25-.618.135-.177.245-.466.245-.64 0-.175.106-.517.235-.76.129-.244.586-1.418 1.015-2.609a429.758 429.758 0 011.706-4.667c.136-.367.351-.866.479-1.109.127-.243.232-.56.232-.703 0-.143.105-.506.233-.807.653-1.532.799-1.951.742-2.123-.035-.103-.312.509-.617 1.36M23.86 70.25c-.001.092.1.429.223.75.124.321.227.471.23.333.003-.137-.098-.475-.224-.75s-.229-.425-.229-.333m354.997 1.167c.002.58.445 1.862.461 1.333.006-.183-.096-.671-.226-1.083-.206-.655-.236-.687-.235-.25M64.523 71.5c0 .137.065.4.144.583.09.21.143.241.143.084 0-.138-.065-.4-.143-.584-.091-.21-.144-.241-.144-.083m-17.418 1.182a6.499 6.499 0 00-.083 1.214c.016.508.057.383.156-.476.143-1.229.104-1.622-.073-.738m-10.699.86l-.489.541.541-.489c.505-.456.619-.594.49-.594-.029 0-.273.244-.542.542m342.955.541c-.009.459.091 1.621.222 2.584.277 2.023.318 6.406.081 8.583-.266 2.436-.354 4.21-.157 3.167.616-3.269.62-10.606.008-14.334l-.137-.833-.017.833m-79.356-.407c.003.133.116.386.25.564.173.228.243.253.24.084-.003-.133-.116-.386-.25-.564-.173-.228-.243-.253-.24-.084M34.25 75.181c-.458.263-.774.48-.702.482.215.006 1.421-.644 1.534-.827.131-.213.161-.225-.832.345m266.26-.312c-.006.158.095.533.222.834.128.301.319.763.423 1.027.105.264.224.446.265.406.041-.041-.145-.632-.413-1.313-.268-.682-.492-1.111-.497-.954M30.711 76.12c.253.038.628.037.833-.003.205-.039-.002-.071-.461-.069-.458.001-.626.033-.372.072m16.801.463c0 .092.107.355.238.584.131.229.238.341.238.25 0-.092-.107-.354-.238-.584-.131-.229-.238-.341-.238-.25m253.999.941c-.006.151.214.826.488 1.5.275.674.5 1.342.5 1.484.001.142.071.33.157.417.086.087.342.731.57 1.431.228.701.489 1.413.581 1.584.091.17.334.797.54 1.393.206.596.421 1.159.478 1.25.057.092.286.73.51 1.417.388 1.195.832 2.114.832 1.723 0-.102-.112-.4-.249-.662-.137-.263-.25-.594-.25-.736a.696.696 0 00-.153-.417c-.083-.087-.227-.421-.321-.741a39.696 39.696 0 00-.704-2 136.05 136.05 0 01-1.022-2.834c-.269-.779-.559-1.488-.645-1.575a.724.724 0 01-.167-.416c-.016-.388-1.133-3.135-1.145-2.818M63.23 78.875c-.573.973-.611 1.056-.319.708.339-.403.631-.916.521-.916-.043 0-.134.093-.202.208m50.52 1.869c-.674.309-.27.32.439.013.309-.134.449-.244.311-.243-.138.001-.475.104-.75.23m3.667.011c.366.132.779.235.916.23.351-.014-.843-.458-1.25-.465-.183-.003-.033.103.334.235m-66.857.207c.132.213 1.107.935 1.107.819 0-.041-.276-.285-.612-.541-.337-.257-.559-.382-.495-.278m10.046.472c-.446.311-.738.566-.65.566.181 0 1.544-.957 1.544-1.084 0-.11.03-.127-.894.518m58.487-.189c.178.134.399.244.49.244.092 0 .021-.11-.157-.244-.177-.135-.398-.245-.49-.245-.091 0-.021.11.157.245m-8.526 1.113c-.315.355-.315.356.058.16.206-.108.375-.269.375-.357 0-.237-.08-.201-.433.197m-55.112.596c.295.036.82.037 1.166.001s.104-.066-.538-.067c-.641-.001-.924.029-.628.066m67.005.838c.268.343.572.775.676.958.103.183.189.25.192.149.006-.198-1.116-1.732-1.266-1.732-.05 0 .13.281.398.625m-14.344 1.531c-.406.687-.344.865.074.212.193-.302.32-.581.28-.62-.039-.039-.198.144-.354.408m15.397.02c-.007.143.104.406.246.583.255.319.257.319.106-.009a10.619 10.619 0 01-.246-.584c-.08-.216-.094-.214-.106.01m-15.999 1.465c-.273.509-.216.65.086.218.147-.209.228-.42.181-.468-.048-.047-.168.065-.267.25m17.042 2.692c0 .688.029.969.065.625a7.247 7.247 0 000-1.25c-.036-.344-.065-.062-.065.625m-17.338.083c.001.55.032.755.069.456.038-.3.037-.75-.001-1-.038-.251-.069-.006-.068.544m271.808.728c-.106.354-.193.78-.193.947 0 .443-.636 2.367-1.096 3.313-.498 1.025-.397 1.223.12.237.464-.885 1.092-2.947 1.426-4.683.13-.676-.034-.557-.257.186m-72.85-.053c-.005.188.059.413.142.5.083.087.227.421.32.742s.33.996.528 1.5c.197.504.423 1.104.501 1.333.078.23.301.829.495 1.334.72 1.863.864 2.261.998 2.75.075.275.261.8.412 1.166.442 1.067.533 1.3.75 1.917.663 1.882 1.137 3.128 1.312 3.447.11.201.199.479.199.62 0 .234.16.658.757 2.016.121.275.266.661.321.857.144.513.464.555 4.185.558 3.783.002 3.782.003 4.22-1.415.113-.366.248-.771.3-.898.058-.144.023-.187-.094-.115-.104.064-.271.443-.372.843-.356 1.414-.378 1.422-4.115 1.409-4.246-.016-3.739.267-4.771-2.655-.243-.688-.512-1.4-.597-1.584-.086-.183-.341-.858-.567-1.5-.225-.641-.65-1.804-.943-2.583-.293-.779-.637-1.717-.766-2.083a18.568 18.568 0 00-.378-1 24.683 24.683 0 01-.433-1.167 28.003 28.003 0 00-.499-1.333 32.758 32.758 0 01-.578-1.584 28.244 28.244 0 00-.515-1.416c-.08-.184-.294-.709-.475-1.167-.185-.47-.332-.685-.337-.492m81.849.115c-.049.902-.744 3.503-1.48 5.544-3.506 9.716-11.605 14.772-21.378 13.345-6.66-.971-11.228-4.491-14.619-11.262-.574-1.146-1.044-1.989-1.046-1.873-.001.116.069.341.156.5.087.159.47.927.851 1.706.756 1.548.854 1.727 1.559 2.834.711 1.115 3.419 3.971 4.775 5.033.516.405 3.297 1.862 4.574 2.396 2.131.892 6.38 1.424 8.583 1.074.688-.109 1.668-.257 2.179-.329.511-.072 1.087-.216 1.281-.319.193-.104.493-.189.666-.189.315 0 3.049-1.121 3.207-1.314.046-.056.44-.288.875-.516.436-.227.792-.465.792-.53 0-.064.131-.16.292-.213.492-.163 2.345-1.861 3.384-3.103 1.676-2.003 3.531-5.431 4.323-7.99.213-.688.442-1.325.509-1.417.066-.092.173-.504.237-.917a13.47 13.47 0 01.284-1.336c.092-.323.134-.81.094-1.083-.073-.495-.073-.495-.098-.041m-248.731-.088c.207.039.507.038.666-.004.16-.042-.01-.074-.377-.072-.366.002-.497.036-.289.076m2.331-.001c.206.04.544.04.75 0 .206-.039.037-.072-.375-.072-.413 0-.581.033-.375.072m-3.542.305c-.275.126-.383.233-.24.237.143.004.406-.103.583-.237.396-.299.311-.299-.343 0m5.084-.113c0 .172.504.408.621.291.041-.04-.083-.157-.274-.259-.191-.103-.347-.117-.347-.032m-18.905.786c-.061.244-.074.481-.028.527.046.046.133-.116.195-.36.061-.245.074-.482.028-.528-.046-.046-.134.117-.195.361m20.238-.099c.229.185.507.412.618.504.25.207.433.217.309.016-.051-.082-.374-.309-.718-.503-.587-.332-.6-.333-.209-.017m-7.983.34c-.404.273-.67.497-.593.497.152 0 1.409-.838 1.409-.939 0-.103-.06-.07-.816.442m190.502.11c-.123.35-.316.862-.427 1.137-.112.275-.296.763-.408 1.083-.464 1.324-1.068 2.948-1.271 3.417a20.17 20.17 0 00-.514 1.417c-.163.504-.394 1.104-.514 1.333-.119.229-.217.508-.217.619-.001.212-.382 1.151-.773 1.907-.125.243-.229.543-.229.666 0 .124-.225.776-.5 1.45-.523 1.285-.687 2.138-.248 1.297.137-.262.249-.551.249-.641 0-.09.108-.401.24-.689a8.94 8.94 0 00.421-1.227c.1-.386.254-.746.343-.801.089-.056.165-.265.168-.466.003-.201.115-.511.25-.689.134-.177.244-.481.244-.675 0-.193.066-.422.146-.509.081-.087.355-.78.609-1.539.254-.76.526-1.421.604-1.469.078-.048.141-.23.141-.405 0-.175.108-.564.239-.865.131-.301.402-.997.603-1.547.2-.55.43-1.131.511-1.29.081-.159.147-.373.147-.475 0-.102.12-.437.266-.745.147-.309.239-.644.205-.746-.034-.101-.162.102-.285.452m-219.661.137c-.008.183.096.479.231.657.134.178.244.249.244.158a.561.561 0 00-.15-.323c-.083-.087-.187-.309-.231-.492l-.08-.333-.014.333m28.059.75c-.166.183-.218.333-.115.333.102 0 .267-.15.365-.333.098-.183.15-.333.115-.333-.035 0-.199.15-.365.333m11 .461c.091.067.31.404.485.748.175.345.347.597.383.562.121-.122-.652-1.438-.843-1.435-.122.002-.131.047-.025.125m202.088.091c-.008.213.505 1.812.758 2.365.346.754.282.207-.112-.964-.347-1.032-.636-1.659-.646-1.401m-214.172 1.031c-.117.142-.176.296-.131.342.046.046.18-.033.298-.175s.177-.296.131-.341c-.046-.046-.18.032-.298.174m-11.42.539c-.181.341-.616.918-.966 1.282-.603.625-.857.813-1.739 1.283-.206.11-.375.272-.375.36 0 .087.258-.037.573-.277.314-.24.636-.437.715-.437.218 0 1.427-1.328 1.933-2.125.248-.389.392-.708.32-.708-.073 0-.28.28-.461.622m-13.239 1.307c.408.42.88.838 1.048.93.168.092-.123-.251-.647-.763-1.144-1.117-1.451-1.244-.401-.167m24.181-.028c-.228.903-.231.978-.036.858.169-.105.426-1.403.302-1.527-.043-.043-.163.258-.266.669M63 95.746c-.864.2-1.402.417-2.583 1.041-1.404.742-3.071 2.955-3.929 5.213-.578 1.521-.204 6.308.528 6.76.083.051.151.209.151.351 0 .49 2.354 3.222 2.777 3.222.113 0 .266.094.339.209.238.37 2.356 1.295 2.946 1.285.195-.003-.058-.154-.562-.335-3.02-1.084-5.463-3.542-5.913-5.949-.064-.344-.19-.715-.279-.822-.231-.28-.088-3.851.182-4.554.123-.321.341-.884.485-1.25.386-.987 2.268-3.417 2.645-3.417.057 0 .222-.107.367-.238 1.094-.99 3.677-1.662 5.763-1.5.705.054.901.031.666-.081-.471-.223-2.496-.186-3.583.065m4.333.199c.138.047.487.191.776.32.288.129.607.235.708.235.101 0 .183.067.183.149 0 .081.184.194.408.251.45.113 2.339 1.894 2.846 2.683.597.93.913 1.581.913 1.883 0 .165.093.394.208.509.138.138.237 1.004.292 2.575.079 2.233.092 2.304.221 1.247.476-3.882-1.598-7.763-5.017-9.386-.67-.318-1.345-.572-1.502-.565-.227.011-.234.031-.036.099m44.167 1.464c.572.326 1.518.759 1.645.752.208-.01-.548-.494-.772-.494-.127 0-.343-.113-.48-.25-.138-.138-.376-.249-.53-.248-.199.002-.16.071.137.24m22.184.258c.012.661.453 1.726.47 1.135.007-.247-.064-.496-.157-.554-.093-.057-.126-.174-.074-.258.052-.085.018-.286-.076-.447-.148-.255-.169-.239-.163.124m-14.809.11c-.115.046-.208.162-.208.257 0 .118.066.119.208.004.115-.093.358-.206.542-.251l.333-.082-.333-.006a1.713 1.713 0 00-.542.078m-2.958.547c-1.47.082-1.585.109-.968.231.766.151 2.502-.007 2.646-.241.05-.081.068-.133.04-.115-.028.018-.802.074-1.718.125m31.602.861c-.122.276-.186.536-.143.58.044.043.174-.151.291-.432.276-.666.141-.801-.148-.148m-13.152.974c.23.368.392.322.242-.068-.054-.142-.177-.258-.272-.258-.11 0-.098.12.03.326m12.715.233c-.26.296-.765 1.108-.689 1.108.109 0 .98-1.183.915-1.244-.032-.031-.134.03-.226.136m-12.018.87c.136.282.379.619.54.75.302.245.225.016-.144-.429a15.849 15.849 0 01-.39-.5c-.227-.299-.227-.28-.006.179m10.603.988c-.311.321-.654.583-.763.583-.108 0-.29.113-.404.25-.128.155-.141.25-.032.25.18 0 2.023-1.648 1.856-1.66-.05-.003-.346.256-.657.577m-50.875.201c.206.04.543.04.75 0 .206-.04.037-.072-.375-.072-.413 0-.582.032-.375.072m-2.375.305c-.662.303-.342.302.5-.001.366-.132.516-.238.333-.234-.183.003-.558.109-.833.235m5-.001c.835.301.949.299.416-.005-.229-.131-.566-.238-.75-.237-.183.001-.033.11.334.242m1.216.42c.718.288 1.948 1.221 2.943 2.233.546.555.824.769.619.475-.66-.944-3.167-2.894-3.692-2.872-.145.006-.089.076.13.164m39.094.409c.605.316.787.312.366-.006-.178-.135-.44-.244-.583-.244-.143.001-.045.113.217.25m5.609.092c-.319.178-.469.324-.333.323.136-.001.472-.15.747-.332.638-.423.349-.416-.414.009m-53.971.913c-.98.907-2.396 2.744-2.116 2.744.044 0 .277-.318.519-.708.548-.886 1.251-1.647 2.289-2.479.443-.355.734-.646.645-.646-.089 0-.691.49-1.337 1.089m51.468-.599c-1.436.085-1.517.106-.871.234.774.152 2.315.003 2.464-.24.052-.083.07-.136.042-.119-.028.018-.764.074-1.635.125m-38.333 2.586c0 .067.15.312.333.545.184.233.334.369.334.303 0-.067-.15-.312-.334-.545-.183-.233-.333-.369-.333-.303m-29.164 1.11c-.876 2.749-2.81 4.69-5.747 5.766-.553.202-.839.371-.636.375.203.003.615-.101.916-.231.301-.131.66-.284.798-.34.261-.107.578-.293 1.416-.831 1.569-1.007 3.842-4.4 3.545-5.292-.033-.098-.164.151-.292.553m13.083 1.681c-.273 1.237-.279 3.411-.011 4.237.144.447.222.588.171.313-.242-1.315-.275-2.992-.077-3.924.116-.551.173-1.04.125-1.088-.048-.048-.141.16-.208.462m17.37.3c.064.32.116 1.183.116 1.916 0 .734-.052 1.596-.116 1.917-.111.557-.106.553.118-.083.129-.367.234-1.192.234-1.834 0-.641-.105-1.466-.234-1.833-.224-.636-.229-.64-.118-.083m-39.326 4.289a8.34 8.34 0 001.333-.002c.341-.035.021-.064-.713-.064-.733.001-1.012.03-.62.066m39.037.555c0 .189-.079.508-.176.708-.17.352-.167.353.083.041.24-.299.368-1.093.176-1.093-.046 0-.083.155-.083.344m-16.821.156c0 .24.47 1.194.482.977.003-.058-.104-.358-.238-.667-.134-.308-.244-.448-.244-.31m16.204 1.374c-.095.207-.456.751-.803 1.209-.347.458-.47.691-.274.518.43-.381 1.435-1.916 1.326-2.025-.043-.043-.155.091-.249.298m-15.683-.083c.392.805.541 1.042.654 1.042.074 0-.02-.263-.209-.583-.291-.493-.634-.847-.445-.459m-42.95.875c-.33.084.11.134 1.297.147 1.187.013 2.002.106 2.401.272.646.27.961.223.425-.064-.766-.41-3.112-.612-4.123-.355m-1.59.472c-3.131 1.477-4.849 4.881-4.158 8.237.285 1.383 1.312 3.253 2.152 3.916.738.583 2.012 1.375 2.208 1.372.122-.002-.154-.237-.612-.523-2.216-1.384-3.201-2.801-3.596-5.176-.295-1.775.012-3.19 1.131-5.202.376-.676 1.737-1.803 2.853-2.362 1.113-.557 1.133-.786.022-.262m45.472.112c.178.338 1.169 1.309 1.793 1.755.188.135.076.006-.25-.287a17.69 17.69 0 01-1.155-1.166c-.309-.35-.484-.486-.388-.302m-38.548.672c1.255.888 1.907 1.657 2.61 3.078.517 1.043.535 4.744.029 5.666-.703 1.279-1.494 2.315-2.052 2.688a8.96 8.96 0 00-.671.478c-.046.046-.373.232-.726.412-.353.18-.57.351-.481.381.312.104 2.231-1.182 2.8-1.876 2.104-2.568 2.45-5.69.94-8.476-.483-.891-2.582-2.94-3.011-2.94-.149 0 .104.265.562.589m51.057.679c-.921.765-.89.733-.71.725.161-.007 1.676-1.326 1.523-1.326-.049 0-.415.27-.813.601m-8.83 1.489c.308.133.608.24.666.237.217-.012-.737-.482-.977-.482-.138.001.002.111.311.245m1.439.421c1.255.316 2.32.341 3.417.079l1.083-.258-.917.12a13.421 13.421 0 01-3.416.001c-.8-.105-.806-.103-.167.058m8.13 9.611c.438.035 1.113.034 1.5-.001.387-.034.028-.063-.797-.062-.825 0-1.141.029-.703.063m-1.973.289c-.178.135-.245.247-.149.25a.547.547 0 00.334-.145c.087-.083.308-.187.491-.231.326-.078.325-.08-.009-.099-.189-.011-.489.09-.667.225m4.51-.126c.183.044.404.148.491.231a.665.665 0 00.417.144c.164-.003.106-.093-.158-.244-.229-.131-.567-.232-.75-.224l-.334.013.334.08m-60.167.621c.863.331 3.154.332 3.833.003l.5-.242-.583.105c-.816.147-2.953.148-3.75.002l-.667-.123.667.255m54 .385c-.458.331-.91.683-1.003.781-.45.47-1.414 1.915-1.413 2.117.001.125.112.014.248-.246.46-.882 1.306-1.813 2.314-2.546.552-.402.933-.726.846-.72-.087.007-.534.283-.992.614m9.234.836c.523.526 1.124 1.316 1.336 1.756.212.441.417.768.457.729.253-.253-1.711-2.887-2.447-3.281-.164-.088.13.271.654.796m-11.957 2.796c-.106.234-.19.553-.186.71.004.156.113-.014.242-.377.269-.755.233-.967-.056-.333m13.811.077c0 .137.073.362.162.5.144.222.162.222.162 0 0-.138-.073-.363-.162-.5-.144-.223-.162-.223-.162 0m.388 2.25c-.001.825.028 1.183.062.796.035-.386.036-1.061.001-1.5-.034-.438-.063-.121-.063.704m-14.505 0c.001.641.031.883.067.538a6.222 6.222 0 00-.001-1.167c-.037-.296-.066-.013-.066.629m.132 1.843c-.011.189.09.489.225.666.135.178.247.245.25.149a.547.547 0 00-.145-.333c-.083-.087-.187-.309-.231-.492-.078-.325-.08-.325-.099.01m13.901.727c-.154.463-.349.885-.433.938a.373.373 0 00-.154.289c0 .106.115.029.255-.171.295-.421.781-1.729.68-1.83-.037-.037-.194.311-.348.774m-13.421.48c0 .448 1.496 2.43 2.063 2.733.188.101-.026-.198-.476-.663-.451-.466-.992-1.169-1.203-1.564-.211-.395-.384-.623-.384-.506m12.24 1.575l-.49.541.542-.489c.298-.269.542-.513.542-.542 0-.129-.138-.015-.594.49m-1.167 1.166l-.489.542.582-.5c.321-.275.614-.519.653-.542.039-.023-.003-.041-.093-.041s-.384.243-.653.541m-8.572.256c.002.148 1.019.738 1.112.645.038-.037-.197-.224-.522-.416-.325-.192-.59-.295-.59-.229m6.666.714c-.596.263-.971.477-.833.475.137-.001.7-.218 1.25-.48 1.296-.619.989-.615-.417.005m-4.833.269c.374.171 1.151.283 2.166.311l1.584.043-1.5-.123c-.825-.068-1.711-.21-1.97-.317-.709-.294-.948-.22-.28.086" fill="#b9ab9c"/><path d="M196.5 53.783c3.502.119 6.962.123 6.891.009-.042-.069-1.929-.11-4.193-.091-2.263.019-3.477.056-2.698.082m34.718.008c1.174.029 3.049.029 4.167 0 1.117-.029.157-.052-2.135-.052s-3.206.024-2.032.052m21.058.001c-.07.113 12.127.112 28.557-.003 3.438-.024-1.564-.061-11.115-.083-9.551-.022-17.4.017-17.442.086m43.182-.001c1.215.029 3.202.029 4.417 0 1.215-.028.221-.052-2.208-.052-2.43 0-3.423.024-2.209.052m36.151.001c-.043.068 1.246.105 2.865.082 5.556-.081 6.103-.138 1.661-.172-2.447-.02-4.484.021-4.526.09M194.915 81.333c0 14.988.019 21.119.043 13.625.024-7.493.024-19.756 0-27.25-.024-7.493-.043-1.362-.043 13.625m8.664-16c0 6.188.021 8.719.046 5.625a843.76 843.76 0 000-11.25c-.025-3.093-.046-.562-.046 5.625m25.333-.166c0 6.095.021 8.589.046 5.541a787.4 787.4 0 000-11.083c-.025-3.048-.046-.554-.046 5.542m8.669 16.166c0 14.988.02 21.119.044 13.625.024-7.493.024-19.756 0-27.25-.024-7.493-.044-1.362-.044 13.625m36.51-20.208c-7.146.024-13.049.1-13.117.168-.068.068 5.738.104 12.903.08 8.295-.028 13.087-.104 13.192-.208.09-.091.131-.147.089-.124-.041.022-5.921.06-13.067.084m-244.008.542a2.643 2.643 0 01-.798.155c-.256.006-.952.274-1.547.595-6.122 3.305-4.673 12.383 2.145 13.443 3.456.537 6.328-1.139 7.899-4.61.958-2.117.199-5.635-1.601-7.427-1.689-1.682-4.713-2.751-6.098-2.156m332.157 1.708l-.49.542.583-.5c.32-.275.614-.519.652-.542.039-.023-.003-.042-.093-.042s-.383.244-.652.542M53.917 64.823c-1.187.353-2.824 1.229-3.606 1.929-.704.63-1.811 1.977-1.811 2.203 0 .094-.113.264-.25.378-.138.114-.25.337-.25.495 0 .158-.104.505-.232.771-.85 1.779-.638 5.479.416 7.234.083.138.217.4.3.584 1.103 2.456 4.46 4.419 7.547 4.414 5.612-.01 9.905-5.634 8.544-11.193-.493-2.014-2.44-5.138-3.202-5.138-.098 0-.204-.059-.234-.131-.09-.211-1.088-.869-1.318-.869-.116 0-.33-.101-.475-.224-.789-.67-3.843-.925-5.429-.453m281.745 3.02c-.101.188-.159.416-.129.507.03.09.141-.064.247-.343.219-.58.153-.671-.118-.164m-27.984 1.74c0 .092.108.355.239.584.131.229.238.341.238.25 0-.092-.107-.354-.238-.584-.131-.229-.239-.341-.239-.25M379.887 77c0 .596.03.84.067.542a5.307 5.307 0 000-1.084c-.037-.298-.067-.054-.067.542m-32.345-.25c.002.367.036.497.076.29.04-.208.038-.508-.003-.667-.042-.159-.075.01-.073.377m9.199 4.583c0 2.796.022 3.94.05 2.542.028-1.398.028-3.685 0-5.083-.028-1.398-.05-.255-.05 2.541M216.25 76.667l-12.5.086 12.448.04c8.163.027 12.484-.017 12.552-.126.057-.092.08-.149.052-.127-.029.022-5.677.079-12.552.127m44.726.043c.07.069 5.147.106 11.284.083l11.157-.043-11.284-.083c-6.206-.046-11.226-.027-11.157.043m127.566.707c.002.366.036.497.076.289a1.83 1.83 0 00-.003-.666c-.042-.16-.075.01-.073.377m-104.638 3c0 1.925.024 2.689.054 1.699.029-.99.029-2.565 0-3.5-.03-.935-.054-.124-.054 1.801m104.635 3.25c0 .32.034.452.076.291.042-.16.042-.423 0-.583-.042-.16-.076-.029-.076.292m-184.763.458c-.07.113 8.725.112 20.224-.003 2.429-.024-1.11-.062-7.865-.083-6.755-.022-12.317.017-12.359.086m62.849 0c3.14.025 8.277.025 11.417 0 3.139-.025.57-.046-5.709-.046s-8.848.021-5.708.046m113.263 1.292c.001.641.031.883.067.538a6.308 6.308 0 00-.001-1.167c-.037-.296-.067-.013-.066.629m8.662-.25c0 .504.031.71.069.458a3.608 3.608 0 000-.917c-.038-.252-.069-.046-.069.459M203.579 96.5c0 6.646.021 9.365.046 6.042.025-3.323.025-8.761 0-12.084-.025-3.323-.046-.604-.046 6.042m25.333.083c0 6.6.021 9.276.046 5.946.026-3.329.026-8.729 0-12-.025-3.27-.046-.546-.046 6.054m118.63-10.5c.002.367.036.497.076.29.04-.207.038-.507-.003-.667-.042-.159-.075.011-.073.377M313.346 86c-.001.24.469 1.194.481.977.004-.058-.103-.358-.237-.666-.134-.309-.244-.449-.244-.311m74.927 1.368c-.056.21-.095.57-.086.799.01.245.076.113.161-.323.153-.781.099-1.124-.075-.476m-68.913 1.389c-.279.613-.226.744.076.187.141-.261.226-.505.187-.543-.038-.038-.156.122-.263.356m-12.892 1.826c.085.184.195.446.246.584.08.216.095.214.106-.01.007-.143-.103-.406-.246-.583-.255-.319-.257-.319-.106.009m-241.76 5.199c.161.041.423.041.584 0 .16-.042.029-.077-.292-.077s-.452.035-.292.077m303 5.506c.344.036.907.036 1.25 0 .344-.036.063-.065-.625-.065-.687 0-.968.029-.625.065m-80.137 3.795c0 1.925.024 2.69.053 1.7.03-.991.03-2.566 0-3.5-.029-.935-.054-.125-.053 1.8m93.835-.875l-.489.542.541-.49c.505-.456.619-.593.49-.593-.029 0-.273.243-.542.541m-68.894 2.709c0 .091.107.354.238.583.131.229.238.342.238.25 0-.092-.107-.354-.238-.583-.131-.229-.238-.342-.238-.25m-60.203 1.792c.069.069 7.997.107 17.617.083l17.491-.042-17.617-.083c-9.689-.046-17.56-.027-17.491.042m-55.091.082c1.174.029 3.049.029 4.167 0 1.117-.029.157-.052-2.135-.052s-3.206.024-2.032.052m34 0c1.174.029 3.049.029 4.167 0 1.117-.029.157-.052-2.135-.052s-3.206.024-2.032.052m84.074 0c.939.03 2.477.03 3.416 0 .94-.03.171-.054-1.708-.054s-2.648.024-1.708.054m55.25.491c.16.041.423.041.583 0 .16-.042.029-.077-.292-.077s-.452.035-.291.077m-3.334.174c.527.034 1.39.034 1.917 0 .527-.033.096-.06-.958-.06s-1.486.027-.959.06M38.545 124c0 .412.033.581.073.375a2.418 2.418 0 000-.75c-.04-.206-.073-.038-.073.375" fill="#fc6987"/><path d="M67.333 19.25c-.229.131-.541.241-.694.244-.389.008-2.48 1.606-2.924 2.234-2.262 3.198-2.052 7.17.519 9.846 2.895 3.013 7.597 3.05 10.574.083.849-.847 1.13-1.278 1.883-2.891.302-.647.316-4.326.017-4.625-.114-.114-.208-.365-.208-.558 0-.478-1.309-2.24-2.193-2.951-.737-.592-1.23-.877-2.354-1.361-.834-.358-4.004-.373-4.62-.021m3.856.183c3.48 1.037 5.467 3.575 5.467 6.984 0 1.314-.379 2.873-.801 3.295-.104.103-.188.27-.188.37 0 .443-2.039 2.256-3.124 2.779-1.373.661-4.489.808-5.46.258-.275-.156-.576-.284-.669-.285-.363-.002-2.246-1.703-2.756-2.488-.831-1.284-1.146-2.39-1.153-4.049-.005-1.431.048-1.646.811-3.29.315-.68 2.401-2.84 2.741-2.84.13 0 .329-.113.443-.25.114-.138.367-.251.562-.253.195-.001.655-.11 1.021-.243.885-.318 2.012-.314 3.106.012m51.86 11.299c-.568.102-1.127.278-1.241.393-.115.115-.307.208-.428.208-.843 0-2.845 1.962-3.572 3.5-1.843 3.898.236 9.205 3.954 10.096.269.064.593.2.722.302.138.11.959.186 2.016.186 1.056 0 1.877-.076 2.016-.186.129-.102.453-.238.722-.302.699-.167 2.171-1.186 2.836-1.963 3.797-4.436 1.431-11.146-4.316-12.242-1.307-.249-1.267-.249-2.709.008m3.701.658c.275.151.631.275.792.276.16 0 .291.071.291.156 0 .086.157.205.349.266.662.21 2.651 2.429 2.651 2.957 0 .123.11.37.245.548.343.454.357 4.248.018 4.881-.13.244-.283.555-.339.693-.426 1.034-2.312 3-2.879 3-.094 0-.257.104-.363.232-.106.127-.526.281-.933.343-.408.061-.785.181-.838.268-.128.207-2.196.203-2.324-.005-.055-.089-.472-.211-.927-.272-.454-.06-.826-.167-.826-.238 0-.071-.207-.214-.459-.317-1.175-.483-2.258-1.572-3.037-3.055-.6-1.144-.783-5.184-.254-5.623.137-.114.25-.314.25-.444 0-.245.655-1.264.875-1.362.068-.03.125-.127.125-.216 0-.14.563-.71 1.088-1.1.281-.21 1.829-.929 2.745-1.276.523-.198 3.245.012 3.75.288M75.417 43.778c-.184.04-.484.138-.667.218-.183.079-.542.19-.796.245-1.155.251-3.834 2.441-4.5 3.68-1.235 2.294-1.366 2.789-1.366 5.162 0 2.127.089 2.613.685 3.776.125.243.227.521.227.617 0 .613 2.677 3.484 3.644 3.908.242.106.477.233.523.283.634.693 5.629 1.135 6.351.562.128-.1.44-.233.695-.294 4.196-1.003 7.449-8.581 5.266-12.268a4.01 4.01 0 01-.242-.5 3.473 3.473 0 00-.249-.5 5.81 5.81 0 01-.315-.62c-.55-1.269-3.432-3.609-4.84-3.929a43.575 43.575 0 01-1.083-.269c-.654-.171-2.676-.214-3.333-.071m3.666.522c.459.094 1.059.29 1.334.435.275.144.593.263.708.264.115.001.208.071.208.156 0 .086.154.205.343.265 1.652.524 3.762 4.122 3.924 6.692.188 2.973-.275 4.693-1.831 6.815-2.254 3.073-7.6 4.174-10.776 2.22-.429-.264-.83-.48-.89-.48-.278 0-2.228-2.22-2.586-2.943-.22-.444-.475-.955-.566-1.136-.795-1.568-.81-5.096-.029-6.838.123-.275.269-.613.324-.75.259-.645 1.093-1.845 1.678-2.417.634-.619 2.281-1.75 2.549-1.75.109 0 .328-.078.488-.174.983-.592 3.218-.748 5.122-.359m25.25 5.635a20.46 20.46 0 00-.775.33c-.289.129-.609.235-.712.235-.76 0-3.54 2.632-4.148 3.929-.212.451-.465.967-.563 1.145-1.492 2.719-.487 7.553 2.115 10.172 4.972 5.005 12.487 2.956 14.982-4.085.872-2.46.028-6.53-1.774-8.554-.252-.283-.458-.564-.458-.624 0-.182-1.759-1.452-2.53-1.826a27.21 27.21 0 01-1.053-.538c-.348-.196-4.641-.351-5.084-.184m4.44.481c.262.137.683.249.935.25.252 0 .459.08.459.176 0 .096.225.254.5.35.275.096.5.242.5.324 0 .083.084.151.187.151.356 0 2.25 2.085 2.649 2.916.22.459.488.946.595 1.084.391.499.595 3.812.334 5.416-.318 1.953-2.521 5.07-4.099 5.799a8.22 8.22 0 00-.5.259c-1.216.698-1.528.76-3.806.767-1.902.005-2.345-.042-2.689-.285-.227-.159-.583-.29-.792-.29-.209 0-.379-.067-.379-.15 0-.083-.209-.223-.464-.312-.898-.313-3.534-3.343-3.537-4.066-.001-.122-.13-.447-.287-.722-.411-.718-.405-5.254.009-6 .152-.275.277-.626.278-.781 0-.156.08-.332.178-.392.097-.06.247-.271.333-.468.364-.839 2.071-2.673 2.661-2.86.181-.058.329-.174.329-.26 0-.085.103-.155.229-.155.127 0 .316-.105.422-.232.106-.128.526-.282.933-.343.408-.061.785-.182.838-.268.166-.269 3.639-.192 4.184.092m-25.44 20.865c-.412.142-.975.354-1.25.472l-.75.321c-.266.113-.61.316-1.416.836-1.864 1.202-3.598 3.667-4.518 6.423-.598 1.792-.338 6.324.44 7.667.079.138.312.587.517 1 2.377 4.787 9.079 7.546 13.561 5.583.275-.12.837-.354 1.25-.52 5.462-2.191 8.153-9.796 5.508-15.563-.795-1.733-3.455-4.688-4.443-4.936-.219-.055-.399-.161-.399-.235 0-.075-.219-.184-.488-.243s-.578-.215-.687-.347c-.109-.131-.321-.24-.47-.242-.149-.001-.571-.11-.938-.242-.943-.34-4.899-.322-5.917.026m5.402.215c1.316.319 3.281 1.17 3.735 1.62.121.119.287.217.367.217.188 0 1.591 1.401 2.299 2.295.671.847 1.695 2.82 1.703 3.281.003.187.113.529.244.758.305.533.351 5 .058 5.548a4.693 4.693 0 00-.322.864c-.26 1.012-.585 1.697-1.359 2.858-1.757 2.638-4.542 4.389-7.543 4.743-2.243.265-4.27-.006-5.806-.777-.259-.13-.541-.236-.626-.236-.258 0-1.973-1.238-2.786-2.011-1.161-1.104-2.532-3.344-2.874-4.696l-.339-1.335c-.801-3.152.786-8.04 3.391-10.446.837-.772 2.72-1.996 3.087-2.006.118-.004.381-.108.584-.232.203-.124.819-.32 1.369-.435.55-.116 1.075-.233 1.166-.262.537-.165 2.479-.031 3.652.252" fill="#95d1ea"/><path d="M364.167 53.009c-1.258.295-1.742.457-1.416.474.184.009.597-.071.917-.179.324-.109 2.168-.242 4.165-.3l3.584-.105-3.334-.014c-1.833-.007-3.595.048-3.916.124m8 .25c.412.13.9.238 1.083.239.183.002.548.116.811.253.262.137.6.249.75.248.498-.002-.694-.512-1.433-.613-.396-.055-.76-.164-.809-.243-.049-.078-.328-.138-.621-.132-.503.011-.492.024.219.248m-177.3.274c-.11.11-.193.354-.184.542.014.286.036.274.133-.075l.116-.417 4.242-.044c3.841-.041 4.262-.018 4.451.24.181.248.208.251.208.021a.43.43 0 00-.263-.366c-.529-.203-8.492-.112-8.703.099m33.837.06l-.371.259v22.319l-12.25-.044c-9.712-.035-12.25-.001-12.25.165 0 .297 24.336.306 24.634.008.151-.152.2-2.892.2-11.313 0-9.22.039-11.145.229-11.303.161-.134 1.476-.177 4.45-.145l4.222.044.116.417c.097.349.119.361.133.075.034-.707-.18-.742-4.563-.742-3.513 0-4.239.042-4.55.26m41.01-.095c15.281.075 17.485.117 17.623.335.318.504.202 7.292-.129 7.505-.272.175-.271.181.014.091.168-.053.337-.096.375-.096.038 0 .07-1.727.07-3.837v-3.838l-.428-.162c-.27-.103-6.782-.148-17.708-.123l-17.281.041 17.464.084m23.161-.054c-.294.118-.262 1.304.042 1.556.284.236.344-.005.07-.28-.099-.099-.155-.395-.125-.658l.055-.479h4.732c4.042 0 4.749.037 4.85.25.401.845.66 1.459.736 1.75.048.184.054.034.014-.332-.041-.366-.151-.691-.245-.722-.094-.031-.171-.195-.171-.364 0-.798-.214-.833-5.137-.819-2.537.008-4.706.051-4.821.098m38.367.33c-.225.243-.406.599-.402.792.005.262.07.204.257-.227.367-.847.285-.834 5.039-.836 4.759-.003 5.127.055 4.859.761-.226.594-.202.686.083.31.828-1.095.24-1.241-5.013-1.241h-4.414l-.409.441m-79.298-.163c-.274.274-.122 55.349.153 55.455.753.288 35.36.103 35.583-.191.188-.248.186-.261-.013-.083-.269.24-35.084.309-35.46.07-.167-.106-.2-5.731-.166-27.747.023-15.188.036-27.615.028-27.615a.89.89 0 00-.125.111m109.556.153c-.365.203-.376.231-.083.228.183-.001.479-.113.657-.247.418-.317.006-.303-.574.019m-1.093.481c-.178.134-.244.247-.147.25.097.003.322-.105.5-.24.178-.134.244-.247.147-.25-.097-.003-.322.105-.5.24m15.019 0c.424.32.671.323.407.005-.114-.138-.325-.25-.469-.25-.209 0-.197.049.062.245m-16.183.433c-.181.294.01.335.353.076.281-.214.286-.244.039-.249-.155-.003-.331.075-.392.173m17.35.067c.178.134.393.247.477.25.085.003.291.13.46.282.168.152.35.232.403.178.116-.115-1.168-.955-1.462-.955-.111 0-.056.11.122.245m-46.07.763c-.124.281-.182.555-.129.608.112.112.474-.763.403-.976-.026-.078-.15.087-.274.368m27.81-.258c-.264.318-.016.315.407-.005.259-.196.272-.245.062-.245-.144 0-.355.112-.469.25m-65.159.448c-.004.247.073.498.17.559.278.172.294.034.057-.507l-.219-.5-.008.448m47.334.036c-.127.238-.181.482-.119.544.061.061.111-.008.111-.153s.086-.293.192-.328c.105-.035.159-.161.119-.279-.044-.134-.159-.051-.303.216m-37.086.516c.064.183.175.579.247.88.072.3.206.638.297.75.09.112.202.353.247.537.065.264.086.242.101-.105.011-.241-.093-.531-.231-.645-.137-.114-.25-.409-.25-.656 0-.246-.118-.593-.263-.771-.26-.319-.262-.319-.148.01m53.129.142a7.114 7.114 0 01-.957.788c-.326.222-.592.465-.593.539 0 .075.318-.117.707-.428.39-.311.925-.728 1.189-.928.265-.2.377-.362.25-.36-.126.001-.395.176-.596.389m22.542-.156c.349.256.507.228.331-.058-.061-.098-.233-.178-.382-.178-.228 0-.219.039.051.236m-49.136.929c-.16.369-.293.801-.296.961-.003.16-.115.436-.25.614-.134.178-.247.478-.25.667-.003.189-.115.489-.25.667a1.362 1.362 0 00-.229.75c.013.391.027.382.169-.107.085-.294.228-.58.318-.635.091-.056.167-.303.17-.55.003-.247.115-.594.25-.772.134-.178.244-.463.244-.633 0-.171.117-.537.26-.813.144-.277.237-.575.208-.662-.029-.087-.184.144-.344.513m10.084-.272c-.291.639-.259.921.054.474.144-.205.237-.499.208-.652-.04-.207-.108-.161-.262.178m41.045 1.006c.824.77 1.522 1.376 1.553 1.347.031-.029-.269-.361-.666-.738l-1.418-1.347c-.382-.364-.755-.661-.83-.661-.075 0 .538.63 1.361 1.399m-87.416-.816c.002.39.269.867.407.729.053-.053-.018-.313-.156-.579-.202-.386-.252-.416-.251-.15m45.948 1c-.065.184-.165.446-.221.584-.084.202-.049.198.182-.022.158-.15.257-.412.222-.584-.061-.293-.071-.292-.183.022m-45.432.26c-.011.235.091.572.225.75.195.257.246.27.25.065a.67.67 0 00-.145-.416c-.083-.087-.186-.309-.23-.492-.065-.269-.084-.251-.1.093m59.814.352c-.321.362-.668.752-.772.867-.443.489-1.895 2.693-1.895 2.877 0 .11-.059.225-.132.255-.209.089-.868 1.236-.868 1.514 0 .138-.112.345-.25.459a.824.824 0 00-.25.559c0 .269.08.205.334-.27.183-.342.333-.705.333-.806 0-.102.225-.518.5-.926.275-.407.5-.78.5-.829 0-.304 1.496-2.335 2.648-3.595.402-.44.664-.792.583-.782-.081.01-.41.315-.731.677m-49.667.462c0 .086.075.203.167.26.092.056.173.267.18.468.007.201.052.268.099.15.119-.297-.082-1.035-.282-1.035a.161.161 0 00-.164.157m34.804.26c-.054.183-.154.483-.222.666-.105.286-.082.28.159-.044.156-.208.256-.508.223-.667-.053-.25-.074-.244-.16.045m-44.469.354c-.001.195.111.448.249.562.137.114.25.409.25.656 0 .246.11.593.244.771.135.178.247.475.25.661.003.186.109.486.234.667.126.181.283.577.349.882.126.576.587 1.575.588 1.274.001-.181-.409-1.368-1.006-2.911a17.985 17.985 0 01-.487-1.416c-.213-.806-.67-1.586-.671-1.146m88.336.104c.193.206.616.774.94 1.261.324.488.628.848.676.8.047-.048-.035-.208-.183-.357-.149-.148-.27-.373-.27-.499 0-.127-.1-.29-.221-.363-.121-.074-.398-.377-.615-.675-.216-.298-.458-.542-.536-.542-.078 0 .016.169.209.375m-78.171.523c0 .035.11.316.244.625.249.573.39.186.155-.426-.087-.227-.399-.383-.399-.199m33.675.67c-.127.237-.187.476-.133.529.128.128.497-.563.422-.788-.031-.096-.161.021-.289.259M29 61.525c-.596.197-1.108.422-1.139.5-.03.078-.151.142-.268.142-.308 0-2.426 1.625-2.426 1.862 0 .066-.225.454-.5.862-.275.407-.501.805-.501.883-.001.079-.125.368-.276.643-.396.719-.417 3.963-.032 4.763.152.313.414.86.584 1.214 1.555 3.247 6.796 5.001 9.725 3.254a6.52 6.52 0 01.626-.311c2.373-1.026 4.144-5.008 3.574-8.033-.385-2.04-2.732-5.137-3.893-5.137-.169 0-.307-.069-.307-.154 0-.084-.244-.205-.542-.269-.298-.064-.633-.189-.744-.279-.437-.351-2.741-.316-3.881.06m3.583.165c5.692 1.218 7.644 8.453 3.353 12.426-3.369 3.119-8.448 2.496-11-1.347-2.814-4.241-.425-10.113 4.506-11.073l1.308-.255a1.81 1.81 0 01.583-.015c.138.028.7.147 1.25.264m295.764-.049a1.887 1.887 0 00-.186.723 1.416 1.416 0 01-.25.71 1.411 1.411 0 00-.237.75c.009.503.457-.526.613-1.407.048-.275.164-.596.258-.713.093-.116.127-.254.076-.306-.052-.051-.175.058-.274.243m-67.308 7.317L261 76.5h11.383c8.632 0 11.432.048 11.584.2.13.13.2.137.2.02 0-.526-.491-.551-11.683-.594l-11.234-.043-.086-7.333-.086-7.333-.039 7.541m106.707-7.37c-.094.045-.619.138-1.166.208-.733.093-.269.127 1.753.128 1.554 0 2.424-.047 2-.11-1.523-.226-2.421-.304-2.587-.226m-62.413.289c0 .047.11.337.244.646.233.537.244.542.25.122.003-.24-.106-.531-.244-.645-.137-.114-.25-.169-.25-.123m32.851.206c-.015.184-.138.479-.273.657-.134.178-.244.482-.244.675 0 .194-.089.44-.198.549-.108.108-.141.252-.074.32.172.172.433-.288.436-.771.001-.222.121-.534.266-.694a.89.89 0 00.189-.68c-.062-.327-.078-.336-.102-.056m26.483.193c-.4.21-.402.219-.052.222.201.001.415-.078.475-.176.169-.273.034-.288-.423-.046m6.907-.021c.177.135.436.245.573.245.189 0 .171-.06-.073-.245-.178-.134-.437-.244-.574-.244-.189 0-.171.059.074.244m13.103-.005c0 .092.11.312.245.49s.245.249.245.157-.11-.312-.245-.49-.245-.249-.245-.157m-21.084.505c-.259.196-.271.245-.062.245.144 0 .355-.113.469-.25.264-.318.016-.315-.407.005m9.24-.005c.114.137.313.25.443.25.129 0 .278.112.33.25.053.137.201.25.329.25.297 0 2.059 1.797 2.247 2.292.079.206.222.375.318.375.245 0-.269-.786-1.071-1.638-.688-.73-1.981-1.696-2.271-1.696a.163.163 0 01-.158-.166c0-.092-.084-.167-.187-.167-.129 0-.123.077.02.25m-10.987 1.356c-.656.608-1.307 1.339-1.445 1.625l-.25.519.371-.481c.48-.62 2.167-2.269 2.323-2.269.066 0 .163-.113.215-.25.149-.387.063-.326-1.214.856m-56.013-.755c0 .137.068.32.151.407.083.087.186.309.23.492.066.272.083.256.095-.083a1.36 1.36 0 00-.231-.741c-.183-.242-.245-.261-.245-.075m79.334-.082c0 .067.099.24.22.385.286.34 1.679 3.702 1.836 4.429.046.215.079.152.091-.176.011-.281-.091-.656-.225-.833-.135-.178-.247-.462-.25-.632-.003-.169-.115-.506-.248-.75a22.91 22.91 0 01-.658-1.385c-.367-.836-.766-1.376-.766-1.038M53.761 64.482c-.05.081-.298.197-.551.257-1.783.426-5.377 3.603-5.377 4.754 0 .089-.103.409-.23.71-.801 1.903-1.051 4.534-.52 5.464.131.229.241.592.244.807.006.345.226.88.699 1.693.08.137.227.456.326.708.099.252.248.458.331.458.083 0 .15.084.15.187 0 .682 2.508 2.472 4.667 3.331.771.307 4.557.326 4.858.024a.815.815 0 01.5-.208c1.819 0 4.906-3.266 5.907-6.25.342-1.02.414-4.804.098-5.121a.725.725 0 01-.196-.439c0-.134-.282-.813-.625-1.508-1.079-2.184-2.979-3.823-5.459-4.707-.901-.322-4.645-.446-4.822-.16m273.575.179c-.105.196-.157.484-.116.639.059.223.079.21.094-.058.011-.188.108-.431.217-.539.108-.109.152-.243.096-.298-.055-.055-.186.06-.291.256M58.26 64.76c6.726 1.955 8.878 10.637 3.865 15.586-6.877 6.788-17.546-.561-14.416-9.929.184-.55.437-1.119.562-1.263.126-.145.229-.354.229-.464 0-.385 2.575-2.792 3.417-3.194 2.118-1.011 4.462-1.283 6.343-.736m278.785.253c-.113.302-.176.578-.139.615.119.119.45-.637.396-.904-.031-.152-.136-.033-.257.289m-30.706-.075c.016.392.482.988.488.624.004-.195-.106-.448-.244-.562-.137-.114-.247-.142-.244-.062m-9.5.738c.003.133.115.386.25.564.172.228.243.253.239.084-.003-.133-.115-.386-.25-.564-.172-.228-.243-.253-.239-.084m52.565.4c-.057.225-.064.507-.017.625.048.119.093.051.1-.149.007-.201.088-.412.18-.469.214-.132.216-.416.003-.416-.09 0-.21.184-.266.409m-22.636.021c-.212.551-.097.814.15.342.29-.557.298-.606.1-.606-.082 0-.195.119-.25.264m9.766.351c-.384 1.13-.395 1.318-.034.582.194-.395.33-.831.302-.969-.029-.137-.149.037-.268.387m-29.694-.259c-.004.15.105.488.242.75.321.614.326.272.008-.462-.134-.308-.247-.438-.25-.288m69.827.27c0 .092.112.26.25.374.139.116.25.134.25.041 0-.092-.113-.26-.25-.374-.14-.116-.25-.134-.25-.041m-16.966.382c-.129.206-.14.326-.031.326.096 0 .218-.116.272-.258.15-.39-.011-.436-.241-.068m-62.362.085c.011.28.482 1.003.483.741 0-.138-.109-.396-.244-.574-.135-.178-.242-.253-.239-.167m29.03.48c-.111.243-.199.571-.196.727.004.156.118.027.254-.287.293-.673.237-1.089-.058-.44m22.535.004c-.057.225-.064.506-.017.625.048.118.093.051.1-.15.007-.201.088-.412.18-.468.214-.133.216-.417.003-.417-.09 0-.21.184-.266.41m28.263-.046c0 .144.112.355.25.469.318.264.315.017-.006-.407-.196-.259-.244-.271-.244-.062m-18.327 1.204c-.298.684-.502 1.342-.454 1.462.06.151.092.132.101-.058.007-.153.119-.491.249-.75.676-1.355.824-1.717.739-1.802-.051-.052-.337.465-.635 1.148m-51.453-.818c.181.659.993 3.01 1.208 3.5.121.275.252.65.293.833.046.209.081.135.093-.196.01-.291-.084-.633-.211-.76-.126-.126-.283-.544-.348-.928-.065-.383-.178-.734-.251-.78-.073-.045-.185-.36-.249-.7-.064-.34-.231-.772-.371-.96-.25-.335-.254-.335-.164-.009m28.482.489c-.111.244-.202.581-.202.748a.767.767 0 01-.25.513c-.138.114-.25.366-.25.56 0 .268.079.204.333-.27.183-.342.333-.757.333-.923 0-.165.084-.384.186-.486.102-.102.155-.275.118-.385-.036-.11-.157-.001-.268.243m-38.03.104c-.003.143.104.406.239.583.313.415.317.119.005-.426-.152-.267-.24-.323-.244-.157m79.838.074c-.006.353.258.877.374.745.037-.043-.03-.304-.15-.579-.166-.379-.22-.419-.224-.166m-29.15.34c-.106.234-.19.591-.186.793.005.234.1.105.262-.358.281-.802.228-1.103-.076-.435M325.833 69c-.116.281-.174.548-.128.594.046.046.179-.146.295-.427.116-.281.174-.549.128-.594-.046-.046-.178.146-.295.427m61.506-.325a.667.667 0 00.147.417c.084.087.186.346.227.575.067.37.077.359.098-.093.012-.281-.088-.656-.222-.834-.195-.257-.246-.27-.25-.065m-88.986.93a.784.784 0 00.272.583c.254.199.267.196.101-.021a1.91 1.91 0 01-.272-.584c-.078-.316-.083-.315-.101.022m79.911.374c.059.602.171.809.343.636.059-.059.029-.203-.067-.319a1.602 1.602 0 01-.253-.546c-.043-.183-.054-.08-.023.229m-52.889.306c-.298.641-.248 1.063.059.497.139-.257.23-.575.201-.706-.032-.147-.131-.067-.26.209m22.666.378c-.114.183-.202.54-.196.793.011.42.033.403.253-.198.278-.758.247-1.082-.057-.595m9.994.076c-.111.244-.202.609-.203.811-.001.201-.114.735-.25 1.185-.137.45-.245.975-.241 1.166.011.541.449-.809.582-1.795.063-.471.187-.991.274-1.157.087-.165.132-.38.099-.477-.032-.097-.15.023-.261.267m-23.16.154c-.292.639-.26.921.053.474.144-.205.238-.499.208-.652-.04-.207-.107-.161-.261.178m53.029-.119c.059.197.177.685.263 1.084l.155.725-.054-.884c-.03-.487-.148-.975-.263-1.084-.165-.157-.187-.124-.101.159m-89.07.331c0 .195.112.448.249.562.315.261.315.162.001-.44-.215-.413-.249-.43-.25-.122m79.915.627c.036.54.144 1.061.241 1.158.097.097.19.63.207 1.185l.03 1.008.065-.833c.037-.461-.051-1.243-.194-1.75a20.134 20.134 0 01-.337-1.333c-.042-.229-.047.025-.012.565m-53.957.259c-.161.373-.292.823-.292 1 0 .178-.069.365-.154.418-.084.052-.204.324-.266.604-.061.28-.216.711-.345.957-.128.245-.225.634-.215.863.015.335.033.352.092.084.041-.184.173-.559.294-.834.29-.66.591-1.538.759-2.213.074-.3.224-.653.332-.783a.69.69 0 00.142-.506c-.034-.162-.17-.001-.347.41m9.576.249c-.244.535-.181.72.122.355a.74.74 0 00.148-.536c-.042-.222-.105-.18-.27.181m-34.928.331c.07.54.172.706.334.544.059-.059.029-.203-.066-.319a1.7 1.7 0 01-.252-.463c-.044-.137-.051-.03-.016.238m9.568-.071c-.002.046.105.383.237.75.199.552.242.593.248.24a1.409 1.409 0 00-.238-.75c-.134-.178-.246-.286-.247-.24m38.53.907a6.344 6.344 0 00-.19 1.47c.013.579.058.468.254-.616.273-1.513.238-1.983-.064-.854m40.879.343c.069.367.185 1.154.256 1.75.124 1.031.128 1.009.094-.46-.024-1.022-.111-1.613-.257-1.75-.181-.17-.198-.089-.093.46m-88.53-.013c.016.268.142.524.28.569.196.064.209.031.059-.154a1.855 1.855 0 01-.28-.569c-.056-.209-.078-.152-.059.154m33.987-.074c-.303.485-.254.812.055.37.144-.206.238-.449.208-.539-.03-.09-.148-.014-.263.169m-24.141.922c.1.321.209.506.241.409.086-.259-.125-.994-.286-.994-.076 0-.056.263.045.585m-9.383.341c-.009.281.093.656.228.834.135.178.247.455.25.616.008.441.672 1.624.672 1.197 0-.187-.07-.411-.155-.498-.163-.167-.609-1.312-.841-2.158l-.137-.5-.017.509m33.012-.007c-.114.252-.174.492-.132.533.113.114.468-.609.4-.813-.033-.097-.153.029-.268.28m23.747 1.623c-.133 1.715-.11 8.695.034 10.041.059.55.107-1.793.107-5.208s-.008-6.208-.017-6.208c-.009 0-.065.618-.124 1.375m-47.101-1.209c-.002.046.105.384.237.75.199.553.242.594.248.241a1.403 1.403 0 00-.238-.75c-.134-.178-.246-.287-.247-.241m69.433 1.25c.104 1.666.105 7.307.002 9.417-.062 1.257-.048 1.411.069.75.299-1.687.359-8.048.094-9.833l-.248-1.667.083 1.333m-46.552-.267c-.112.299-.127.517-.036.517.204 0 .357-.404.286-.757-.037-.187-.119-.108-.25.24m-9.709.325a1.754 1.754 0 00-.173.723c.006.283.071.209.243-.274.257-.722.216-.983-.07-.449m-12.674.317c.003.069.113.313.244.542.248.434.357.139.149-.403-.102-.265-.404-.372-.393-.139m21.881.651c-.107.351-.17.664-.138.695.124.125.436-.675.386-.993-.037-.245-.106-.163-.248.298m14.852 3.808c0 2.383.024 3.335.052 2.115.029-1.22.029-3.17 0-4.334-.028-1.163-.052-.165-.052 2.219m-24.658-3.072c-.157.713-.027.755.19.062.098-.316.121-.574.051-.574-.071 0-.179.231-.241.512m-21.081-.148c0 .232.301.978.677 1.676.086.159.156.382.156.497 0 .335 1.004 2.849 1.099 2.753.075-.075-.619-2.033-.779-2.198a.669.669 0 01-.153-.404c0-.228-.793-2.353-.936-2.507-.035-.038-.064.044-.064.183m9.5.249c0 .085.068.225.15.312.083.087.187.309.231.492.063.263.084.24.1-.105.01-.24-.094-.531-.231-.645-.138-.114-.25-.138-.25-.054m20.878.567c-.113.302-.175.578-.139.615.119.119.45-.637.397-.904-.031-.152-.137-.033-.258.289m-9.698.462c-.099.185-.177.473-.173.639.003.181.105.075.252-.264.27-.623.209-.913-.079-.375m-10.68.307c0 .099.112.395.249.657.199.382.248.411.245.144-.003-.183-.115-.479-.249-.657-.135-.177-.245-.242-.245-.144m19.878.565c-.113.301-.175.578-.139.615.119.118.45-.638.397-.905-.031-.152-.137-.033-.258.29m-217.211-.078c-1.44.276-3.507 1.39-4.591 2.474-.488.487-1.409 1.698-1.409 1.851 0 .071-.102.248-.226.393-1.353 1.575-1.463 5.871-.219 8.513.752 1.596 2.226 3.5 2.711 3.5.109 0 .237.103.286.229.048.125.412.392.809.591.397.2.834.426.972.502 3.118 1.73 8.531.052 10.766-3.338 4.578-6.942-1.168-16.234-9.099-14.715m4.117.559c.568.179 1.336.515 1.705.748.369.233.733.424.808.424.662 0 3.026 3.356 3.405 4.833l.303 1.167c.205.777.195 2.259-.02 3.083-.096.367-.231.93-.301 1.25-.128.594-.217.777-1.084 2.25-.498.847-1.726 2.25-1.969 2.25-.074 0-.444.225-.824.5-.38.275-.794.5-.921.5s-.397.105-.6.233c-.744.47-3.069.665-4.461.374-2.029-.423-3.042-.965-4.401-2.353-1.3-1.326-1.326-1.362-1.849-2.612-.244-.582-.524-1.158-.624-1.28-.319-.391-.235-4.908.101-5.421.155-.236.281-.554.281-.707 0-.246.58-1.346.825-1.567.051-.046.305-.395.563-.777.512-.755 2.269-2.223 2.661-2.223.134 0 .337-.113.451-.25a.75.75 0 01.502-.25c.161 0 .546-.11.854-.243.844-.367 3.32-.328 4.595.071m203.297.351c-.062.281-.068.556-.014.611.055.054.1-.059.1-.252 0-.194.075-.398.166-.455.21-.129.219-.416.014-.416-.085 0-.204.23-.266.512m9.433.238c-.014.183-.135.479-.269.657-.135.177-.245.482-.245.676 0 .194-.11.499-.245.676-.134.178-.247.478-.25.666-.003.188-.07.413-.15.5-.079.087-.259.495-.399.908-.14.412-.31.9-.377 1.083l-.124.334.267-.334c.147-.183.272-.445.278-.583.006-.138.156-.55.333-.917.177-.366.325-.792.328-.944.003-.153.114-.491.245-.75.533-1.048.779-1.75.708-2.021-.062-.233-.08-.225-.1.049M312 81.377c0 .047.112.3.249.562.137.263.249.637.25.832.001.195.113.448.251.562.158.131.25.142.25.031a.356.356 0 00-.152-.272c-.084-.051-.202-.389-.263-.75-.087-.514-.585-1.336-.585-.965m9.18 1.098c-.099.185-.177.473-.173.639.003.181.105.075.252-.264.27-.623.209-.913-.079-.375m-17.68 1.223c0 .144.112.355.25.469.318.264.315.016-.005-.407-.196-.259-.245-.272-.245-.062m17.208.131c-.114.183-.208.465-.207.627.001.197.084.134.255-.192.296-.568.257-.923-.048-.435m-7.707.207c-.001.157.105.532.235.833.13.301.332.804.449 1.118.117.314.243.48.28.369.036-.11-.007-.292-.097-.403-.089-.112-.216-.452-.281-.756-.151-.704-.585-1.563-.586-1.161m-29.133.23c-.18.196-2.04.234-11.541.234H261v8.232c0 7.353.028 8.243.264 8.334.145.055 6.092.101 13.216.101 9.853 0 13.001.048 13.153.2.111.111.2.126.2.033 0-.555-.268-.567-13.533-.567h-13.133V84.667l11.291-.003c10.667-.002 11.838-.049 11.687-.462-.036-.1-.15-.073-.277.064m-67.826.358l12.291.045v11.973c0 11.388.015 11.986.305 12.249.267.241.834.276 4.55.276 4.224 0 4.655-.054 4.64-.575-.003-.097-.081-.044-.175.116-.226.39-8.479.453-8.798.068-.132-.159-.198-3.692-.229-12.208l-.043-11.985-12.416-.001-12.417-.002 12.292.044m87.965.302c-.004.189.103.489.238.667.314.416.318.258.012-.449-.18-.413-.246-.471-.25-.218m16.201.403c-.303.486-.255.812.054.37.145-.206.238-.448.208-.538-.03-.09-.148-.015-.262.168m-15.707.931c-.001.189.109.489.244.666.32.424.324.078.006-.532-.208-.399-.249-.421-.25-.134m84.132 1.157c-.065.733-.169 1.55-.233 1.816-.078.33-.057.448.066.371.246-.152.401-1.308.337-2.521l-.053-1-.117 1.334m-68.925-.754c-.114.183-.208.465-.207.626.001.198.084.135.255-.192.296-.568.257-.923-.048-.434m-5.685.345c-.013.234.06.508.162.61.101.101.243.435.316.742l.132.557.017-.53c.009-.291-.089-.636-.218-.765s-.269-.416-.311-.637l-.076-.402-.022.425m14.673.578c-.115.251-.174.491-.132.533.113.113.467-.609.399-.814-.032-.097-.153.03-.267.281m18.715.497c.028.55.133 1.263.234 1.584.204.651.132-.226-.152-1.834-.125-.707-.129-.693-.082.25m-42.401-.5c-.005.354.258.878.374.746.038-.044-.03-.304-.15-.579-.166-.379-.22-.419-.224-.167m74.187 1.009c-.017.554-.11 1.087-.207 1.184-.097.097-.205.618-.241 1.159-.035.54-.03.794.012.565.042-.229.194-.829.337-1.333.143-.507.231-1.29.194-1.75l-.065-.834-.03 1.009m-60.092-.198c-.149.315-.272.684-.272.82 0 .137-.112.463-.249.725-.137.263-.251.628-.255.811-.003.183-.116.479-.251.657a1.405 1.405 0 00-.237.75c.007.449.325-.233.656-1.407.224-.796.524-1.623.8-2.209.141-.299.217-.583.168-.631-.048-.049-.21.169-.36.484m9.084.523c-.121.335-.185.642-.143.684.113.113.498-.887.425-1.104-.034-.103-.161.086-.282.42m29.174-.167c-.002.275.103.763.233 1.083.28.687.241.119-.067-1l-.162-.583-.004.5m-51.844.271c-.01.241.093.532.231.646.137.114.25.371.25.572 0 .373.485 1.17.495.813a.38.38 0 00-.162-.302c-.091-.057-.166-.269-.166-.473 0-.203-.104-.517-.23-.698a2.428 2.428 0 01-.314-.662c-.067-.267-.088-.246-.104.104m9.248.173c.066.106.175.425.243.708.118.497.123.5.14.07.02-.543-.131-.972-.344-.972-.088 0-.105.087-.039.194m-175.934.757c-2.168.699-4.828 3.035-4.834 4.244-.001.122-.121.447-.267.722-.191.358-.269.978-.276 2.19-.011 1.733-.017 1.707.906 3.678.394.842 1.972 2.489 2.7 2.818.287.129.634.301.771.381 1.121.656 3.405.85 4.856.414 1.142-.343 1.135-.341 1.728-.731.275-.182.612-.382.75-.445 1.237-.568 2.646-2.848 3.007-4.863.934-5.23-4.375-10.01-9.341-8.408m188.792.488c-.16.316-.292.707-.292.868a.792.792 0 01-.197.49c-.108.109-.142.253-.074.32.172.173.432-.288.435-.771.002-.221.122-.535.268-.695.145-.161.239-.404.208-.539-.035-.152-.169-.025-.348.327m60.572-.006a5.145 5.145 0 01-.216 1.217c-.232.664-.057.904.189.259.098-.259.152-.851.118-1.315-.055-.774-.062-.787-.091-.161m-245.721-.185c5.286.69 7.22 8.399 3.08 12.278-2.103 1.97-6.479 2.292-8.62.635-2.949-2.283-3.972-5.714-2.658-8.911.579-1.408 2.28-3.011 3.972-3.743.974-.422 2.34-.505 4.226-.259m172.906.746c.102.271.217.462.255.424.119-.119-.135-.918-.292-.918-.082 0-.066.222.037.494m42.482-.077c-.01.275.088.687.219.916.151.265.241.323.244.159a.656.656 0 00-.148-.417c-.084-.087-.185-.383-.225-.658l-.071-.5-.019.5m-10.018.333c-.001.275.108.646.243.824.307.406.307.197-.001-.657-.23-.64-.24-.647-.242-.167m-41.339.376c-.004.206.151.656.344 1 .369.658.339.4-.083-.709-.183-.481-.255-.562-.261-.291m9.178.124c.021.489.456 1.33.469.907a1.376 1.376 0 00-.232-.75c-.135-.178-.241-.249-.237-.157m62.653.654c-.094.248-.168.577-.164.732.004.154.113-.016.242-.38.263-.737.191-1.06-.078-.352m-51.485.188c-.011.188-.108.43-.217.539-.108.108-.152.242-.097.297.157.157.491-.578.408-.895-.059-.222-.079-.21-.094.059m31.503.019c-.012.199.083.574.211.834.129.259.405.847.612 1.305.503 1.108 1.155 2.139 1.276 2.017.054-.054-.015-.23-.153-.391a2.763 2.763 0 01-.362-.543c-.061-.137-.298-.58-.525-.984-.228-.404-.415-.868-.415-1.03a.877.877 0 00-.235-.53c-.129-.129-.269-.416-.311-.637-.068-.366-.077-.37-.098-.041m-40.918.431c-.185.692-.094.88.152.314.285-.657.29-.689.096-.689-.081 0-.192.168-.248.375m30.909.125c-.001.229.105.604.236.833.308.538.31.264.005-.583-.19-.529-.24-.581-.241-.25m39.345.031c-.014.247-.1.495-.192.552a.389.389 0 00-.167.296c0 .115.105.087.264-.071.162-.163.235-.447.191-.744l-.071-.481-.025.448m-71.52.075c-.003.104.107.404.244.666.208.4.249.422.25.135.001-.354-.485-1.141-.494-.801m-9.005.273c0 .147.075.314.166.371.092.056.17.229.173.385.003.155.157.581.343.948.395.779.323.377-.162-.896-.376-.989-.52-1.214-.52-.808m70.694.235c-.107.2-.194.472-.194.604 0 .133-.113.334-.25.448-.138.114-.249.367-.248.562.001.224.187-.01.503-.634.461-.907.635-1.813.189-.98m-51.748.842a39.45 39.45 0 01-.542 1.341c-.131.301-.238.69-.238.865 0 .175-.063.357-.141.405-.078.048-.35.709-.604 1.469-.254.759-.528 1.452-.609 1.539-.246.267-.161.478.104.258.138-.114.251-.33.251-.479.001-.149.106-.472.235-.718.128-.246.287-.696.353-1 .066-.304.224-.701.349-.882.126-.181.231-.481.234-.666.003-.186.116-.484.25-.662.135-.178.245-.462.245-.631 0-.169.119-.488.264-.71.145-.221.239-.519.208-.662-.03-.143-.192.097-.359.533m-9.176-.215c-.163.25-.266.486-.227.524.126.127.659-.575.591-.778-.037-.113-.196-.002-.364.254m69.997.97c-.173.571-.643 1.707-1.043 2.523-.4.816-.7 1.512-.667 1.546.087.087 1.609-2.923 1.609-3.181 0-.118.118-.451.262-.739.144-.289.238-.674.208-.856-.031-.195-.184.098-.369.707m-38.081-.523c-.011.24.093.531.23.645.268.222.351.006.1-.258-.083-.087-.187-.309-.231-.492-.063-.263-.084-.24-.099.105m-285.103.474a36.55 36.55 0 01-1.205.327c-.685.172-2.317.978-2.815 1.39-.595.491-1.563 1.45-1.563 1.547 0 .059.415-.273.924-.737 2.696-2.464 6.569-3.05 9.714-1.469.489.245.926.446.971.446.21 0-.422-.47-.784-.583-.225-.071-.454-.199-.51-.285-.055-.086-.43-.199-.833-.25-.403-.051-.82-.162-.926-.246-.277-.218-2.38-.317-2.973-.14m285.605.838c-.019.474.235.965.41.791.064-.064.038-.212-.057-.329a1.652 1.652 0 01-.254-.546c-.068-.274-.085-.26-.099.084m-41.177.083c0 .183.109.479.244.657.325.429.321-.003-.005-.574-.211-.368-.239-.378-.239-.083m67.603 1.212c-.822 1.024-2.08 2.073-2.828 2.358-.249.094-.453.246-.453.338 0 .226 1.766-.854 2.447-1.497.752-.709 1.785-1.985 1.687-2.083-.044-.044-.428.354-.853.884m-304.862.299c1.289 1.272 2.123 2.547 2.553 3.906.241.763.345.944.352.614.01-.504-1.105-2.948-1.345-2.948-.08 0-.146-.087-.146-.194 0-.195-.156-.394-.867-1.105a8.148 8.148 0 00-1.216-1.027c-.183-.129.118.211.669.754m278.917-.313c-.002.201.077.415.175.476.273.168.288.033.047-.424-.211-.4-.22-.402-.222-.052m-41.169.087c0 .142.124.36.277.486.254.209.259.193.061-.188-.291-.558-.338-.6-.338-.298m41.669.752c-.003.26.69 1.612.865 1.685.073.031.132.151.132.268 0 .117.375.714.834 1.327.458.613.833 1.16.833 1.215 0 .164 2.945 3.051 3.113 3.051.085 0-.591-.768-1.503-1.708-.912-.94-1.747-1.821-1.855-1.958-.288-.368-1.168-1.711-1.311-2-.515-1.046-1.106-2.048-1.108-1.88m12.401.979c.432.33.822.563.867.519.081-.081-1.361-1.118-1.553-1.118-.054 0 .254.27.686.599m-305.217.076c-.206.279-.352.57-.323.647.029.076.259-.152.51-.508.536-.76.366-.886-.187-.139m251.647-.221c0 .189.114.387.254.441.213.082.223.038.06-.274-.276-.531-.314-.552-.314-.167m75.467 1.286c-.286.474-.361.709-.208.65.132-.051.241-.192.241-.313s.118-.339.263-.484c.145-.144.238-.338.208-.429-.031-.092-.257.167-.504.576M364 100.083c.114.138.282.25.374.25.093 0 .075-.11-.041-.25-.114-.137-.282-.25-.374-.25-.093 0-.075.111.041.25m-54.332.188c-.001.195.111.448.249.562.314.262.315.163.001-.439-.216-.414-.249-.43-.25-.123m-252.81.283c-.104.125-.237.466-.295.757-.058.291-.171.57-.251.619-.08.049-.143.254-.139.455.008.494.479-.284.488-.806.003-.186.126-.51.273-.719.292-.418.229-.674-.076-.306m308.453.036c.706.307.864.302.449-.012-.178-.135-.478-.242-.667-.238-.253.005-.196.07.218.25m5.763-.012c-.408.308-.323.31.509.01.553-.199.594-.241.241-.247a1.403 1.403 0 00-.75.237m-3.532.378c.435.034 1.148.034 1.583 0 .435-.034.079-.063-.792-.063s-1.227.029-.791.063m-44.001.54c-.303.485-.255.812.055.37.144-.206.238-.448.208-.539-.03-.09-.149-.014-.263.169m60.192.281a7.88 7.88 0 01-.711.931c-.23.252-.356.459-.281.459.178 0 .926-.806.926-.997 0-.08.121-.268.27-.416.148-.148.229-.31.179-.36-.049-.049-.222.123-.383.383m-73.56-.101c-.004.143.104.406.238.584.314.414.317.119.006-.427-.153-.267-.241-.323-.244-.157m-22.269 3.407c0 1.925.024 2.69.054 1.7.029-.991.029-2.566 0-3.5-.03-.935-.054-.125-.054 1.8M93.75 102.321c-.513.064-.002.103 1.333.104 1.485 0 1.905-.036 1.334-.114-.967-.133-1.514-.131-2.667.01m-2.417.686c-1.067.553-1.628.972-2.617 1.956-1.155 1.149-.821 1.01.447-.186 1.023-.966 1.562-1.3 3.337-2.073.35-.152.363-.181.083-.177-.183.003-.746.218-1.25.48m6.5-.257c.23.131.529.24.667.243.138.003.035-.107-.227-.244-.609-.317-.995-.316-.44.001m225.195.031c-.288.537-.236.853.068.418.144-.206.232-.466.194-.578-.041-.123-.145-.059-.262.16m-12.351.136c-.006.353.258.877.374.745.037-.043-.03-.304-.15-.579-.166-.379-.22-.419-.224-.166M73.91 104.773c0 1.776.019 1.899.199 1.303.261-.865.263-1.484.01-2.463-.201-.772-.209-.728-.209 1.16m-17.848-.023c.001 1.008.028 1.399.061.869a16.72 16.72 0 000-1.833c-.034-.478-.061-.044-.061.964m43.358-1.308c3.616 2.41 5.45 6.474 4.503 9.975-.159.587-.25 1.165-.203 1.284.048.118.093.024.1-.209.007-.234.107-.519.222-.634.274-.274.291-4.204.019-4.541-.104-.128-.241-.478-.305-.777-.213-.994-2.171-4.04-2.598-4.04-.08 0-.279-.134-.443-.298-.507-.507-1.515-1.202-1.743-1.202-.119 0 .083.199.448.442m282.721.35c-.592.655-2.128 2.026-2.63 2.347-.498.319-.913.694-.766.694.108 0 .878-.531 1.57-1.083.71-.567 2.389-2.269 2.312-2.345-.039-.039-.258.134-.486.387m-59.455.133c-.011.188-.108.43-.217.539-.108.108-.152.242-.096.297.156.157.49-.578.407-.895-.059-.222-.079-.209-.094.059m-11.5.335c-.011.189.091.489.225.666.135.178.248.474.251.657.004.184.119.548.256.811s.249.614.249.78c0 .166.112.415.25.552.137.138.25.368.25.512 0 .833.433.929 4.227.929 3.977 0 4.464-.126 4.42-1.137-.015-.347-.037-.372-.1-.113-.247 1.022-.482 1.083-4.118 1.081-3.721-.003-4.041-.045-4.185-.558a8.142 8.142 0 00-.321-.857c-.607-1.38-.757-1.785-.757-2.052 0-.159-.103-.438-.23-.619a2.488 2.488 0 01-.314-.662c-.082-.326-.084-.325-.103.01m11.003 1.022c-.012.201-.097.411-.189.468a.389.389 0 00-.167.296c0 .115.106.086.265-.072.152-.152.232-.433.189-.661-.07-.372-.076-.374-.098-.031m34.314.656c-.003.199 1.636 1.395 1.911 1.395.089 0-.249-.27-.751-.6-.502-.331-.968-.687-1.035-.792-.09-.139-.124-.14-.125-.003m-269.135.674c-.21.329-.359.664-.333.744.027.081.253-.191.503-.605.536-.887.386-1.009-.17-.139m234.177.235c-.113.301-.176.578-.139.615.119.118.45-.638.396-.905-.031-.152-.136-.033-.257.29m-265.362.185c-.009.247.05.489.131.54.082.05.197.336.256.634.121.612.597 1.363.597.943a.667.667 0 00-.162-.411c-.089-.089-.307-.61-.483-1.158-.232-.719-.327-.872-.339-.548m17.454.218c-.058.275-.155.688-.214.917-.104.396-.096.393.161-.051.148-.257.245-.67.214-.917l-.056-.449-.105.5m304.456-.153c-.27.198-.279.236-.051.236.149 0 .321-.08.382-.177.176-.286.018-.314-.331-.059m-19.26.486c.114.138.325.25.469.25.21 0 .197-.048-.062-.244-.423-.321-.671-.324-.407-.006m-272.163.411c-.105.196-.158.484-.117.64.059.222.079.209.094-.059.011-.188.108-.43.217-.539.108-.108.152-.242.097-.297-.055-.056-.186.059-.291.255m273.163.089c.114.138.325.25.469.25.21 0 .197-.048-.062-.244-.423-.321-.671-.324-.407-.006m16.334 0c-.242.138-.312.239-.167.239.137 0 .396-.109.574-.244.411-.311.14-.308-.407.005m-15.241.495c.178.135.432.247.564.25.169.004.145-.067-.083-.239-.178-.135-.432-.247-.564-.25-.169-.004-.145.067.083.239m14.074.005c-.395.226-.398.239-.059.244.196.004.4-.106.453-.244.114-.298.128-.298-.394 0m-180.328.009c-.015.52.417.575 4.578.575 4.108 0 4.583-.057 4.583-.546 0-.079-.118-.027-.262.117-.418.419-8.479.391-8.724-.03-.094-.16-.172-.213-.175-.116m-122.005 1.017c-.86 1.367-2.756 3.224-3.294 3.224-.077 0-.227.088-.334.195-.251.25-1.271.635-2.122.801l-.667.129.676.021c.373.012.823-.089 1-.224.178-.134.427-.247.552-.25.867-.02 4.355-3.031 4.355-3.759 0-.075.121-.269.267-.432.147-.162.241-.371.209-.464-.033-.093-.322.248-.642.759m289.759-.531c.178.135.512.241.741.237.367-.006.347-.034-.167-.232-.779-.3-.966-.301-.574-.005m10.824.011c-.419.192-.442.231-.144.237.196.004.571-.105.833-.242.633-.33.033-.325-.689.005m-287.051.469c-.307.847-.261 3.802.065 4.202.259.319.261.319.137-.01-.239-.631-.278-3.279-.058-3.945.26-.788.131-1.009-.144-.247m278.362.012c.281.155.828.255 1.333.242l.856-.02-.667-.12-1.333-.243-.667-.123.478.264m6.728-.136c-.055.055-.499.158-.986.229l-.886.129.925.021c.508.011.996-.048 1.083-.132.087-.084.346-.186.575-.228.367-.065.356-.077-.097-.097-.283-.012-.559.022-.614.078m-314.115.125c-.022.413 2.358 2.941 2.769 2.941.123 0 .224.072.224.16 0 .311 2.421 1.341 3.1 1.319l.65-.021-.667-.121c-1.074-.195-2.724-.916-2.967-1.295a.475.475 0 00-.35-.209c-.223 0-1.494-1.289-2.3-2.333-.248-.321-.454-.519-.459-.441m7.281 4.561c.295.037.82.038 1.166.002s.104-.067-.538-.067c-.641-.001-.924.028-.628.065m22.057.547c-.004.229.063.527.148.662.254.401.291.13.068-.496-.181-.505-.21-.527-.216-.166m16.606 1.195c-.671 1.326-2.415 3.291-3.285 3.7-.712.335-1.069.6-.812.602.149.002.365-.11.479-.247.114-.138.303-.25.42-.25.551 0 3.043-2.745 3.329-3.667.071-.229.203-.464.294-.522.09-.059.134-.198.097-.309-.038-.112-.272.2-.522.693M87 115.834c0 .956 3.548 4.547 4.221 4.272.107-.044.071-.086-.082-.093-.153-.007-.303-.069-.333-.138-.031-.069-.374-.341-.763-.605-.389-.265-1.013-.827-1.386-1.25-.885-1.005-.912-1.042-1.314-1.792-.189-.352-.343-.529-.343-.394m-42.21.658c-.958.188-.977.378-.025.251.995-.132 3.162.171 3.687.515.203.133.476.242.605.242.401 0 2.513 2.087 2.976 2.94.896 1.653 1.117 3.354.713 5.477l-.095.5.258-.561c.544-1.183.317-3.252-.579-5.273-.313-.707-2.15-2.75-2.472-2.75-.105 0-.191-.073-.191-.163 0-.09-.207-.213-.459-.273-.252-.059-.571-.199-.708-.309-.228-.183-1.298-.449-2.583-.644-.275-.041-.782-.02-1.127.048m-1.952.501c-.402.255-.13.292.495.068.506-.181.528-.21.167-.216-.229-.003-.527.063-.662.148m-1.064.59c-.138.138-.312.253-.387.257-.426.019-2.387 2.252-2.387 2.718 0 .097.326-.271.725-.816.642-.879 1.867-1.949 2.601-2.272.222-.097.218-.115-.022-.125-.154-.006-.393.101-.53.238m49.966 2.839c.178.135.478.242.667.238.253-.005.196-.07-.218-.25-.706-.307-.864-.302-.449.012m6.26.009c-.391.216-.394.231-.062.233a.815.815 0 00.562-.247c.251-.303.061-.298-.5.014m-4.523.477c.735.339 2.641.34 3.379.001l.561-.257-.667.13c-.834.163-2.481.159-3.25-.007l-.583-.126.56.259m-54.797.233c-.099.186-.18.477-.18.648a.844.844 0 01-.208.519c-.136.136-.209.728-.209 1.692s.073 1.556.209 1.692c.114.114.208.388.208.607 0 .473.366 1.172 1.153 2.201 1.077 1.409 1.673 1.845 3.728 2.729.808.348 3.772.379 4.427.046.243-.123.742-.365 1.109-.537 1.004-.472 2.041-1.3 2.635-2.103.64-.866 1.202-1.937 1.079-2.059-.048-.049-.241.236-.428.633-2.344 4.987-9.474 5.58-12.498 1.041-1.412-2.119-1.75-4.385-.981-6.577.279-.793.254-1.088-.044-.532M101 130c-.172.111.165.159 1.083.152.898-.006 1.225-.056 1-.152-.458-.197-1.778-.197-2.083 0m-1.831.51c-.319.178-.465.323-.325.323a.737.737 0 00.448-.191c.105-.106.476-.247.825-.314.567-.11.581-.124.133-.133-.275-.005-.761.136-1.081.315m4.748-.189c.275.067.675.215.889.33.214.115.423.176.464.134.132-.131-1.055-.619-1.462-.601-.33.014-.313.036.109.137m-6.441 1.11c-.734.545-2.252 2.348-2.102 2.498.038.039.322-.286.631-.721.65-.917 1.006-1.261 1.87-1.813.595-.38.773-.576.5-.55-.069.007-.473.271-.899.586m8.352-.299c.226.157.882.757 1.458 1.335s1.047.99 1.046.917c-.003-.245-2.01-2.217-2.257-2.217-.133 0-.242-.075-.242-.167 0-.092-.093-.163-.208-.159-.115.004-.023.135.203.291m2.505 2.648c0 .084.076.229.168.321.092.092.315.576.494 1.075.246.684.328.797.332.459.004-.247-.063-.491-.148-.544-.084-.052-.201-.314-.26-.581-.101-.458-.586-1.063-.586-.73m-13.381 1.063c-.157.362-.275.865-.263 1.116.022.445.025.446.09.041.037-.229.188-.699.337-1.043.148-.345.236-.66.196-.701-.041-.04-.202.224-.36.587m14.438 2.574c.001.733.03 1.012.066.62a8.34 8.34 0 00-.002-1.333c-.035-.341-.064-.021-.064.713m-14.845-.084c0 .413.033.582.073.375a2.418 2.418 0 000-.75c-.04-.206-.073-.037-.073.375m.196 1.912c.033.455.142.855.243.888.1.034.189.186.196.339.008.182.043.204.099.064.047-.118-.011-.33-.129-.473-.118-.142-.272-.571-.341-.952-.125-.682-.126-.68-.068.134m14.292.345c-.558 2.14-2.451 4.026-4.95 4.93-.515.186-.689.304-.456.307.208.004.508-.064.667-.15.159-.086.654-.328 1.1-.539 1.851-.874 4.146-3.86 3.909-5.087-.03-.159-.152.084-.27.539m-13.69 1.288c-.055.721 2.868 3.455 3.693 3.455.115 0-.083-.156-.44-.347-.357-.192-.755-.454-.884-.584-.13-.129-.301-.235-.381-.235-.14 0-1.363-1.447-1.78-2.104-.109-.172-.202-.255-.208-.185m4.25 3.7c.178.135.511.244.74.243.331-.002.28-.052-.25-.242-.838-.303-.889-.303-.49-.001m1.862.376c.295.036.82.037 1.166.001s.104-.066-.538-.067c-.641-.001-.924.029-.628.066" fill="#c5caca"/></g></svg>