<svg xmlns="http://www.w3.org/2000/svg" xml:space="preserve" xmlns:vectornator="http://vectornator.io" viewBox="0 0 144 56" clip-rule="evenodd" stroke-linecap="round" stroke-linejoin="round"><path d="M2.193 28v20.782h41.391V7.218H2.194V28zm16.545-10.333v2.09h-4.122v-4.18h4.122v2.09zm8.301 0v2.09h-4.18v-2.05c0-1.131.018-2.072.041-2.09.018-.023.958-.04 2.09-.04h2.05v2.09zm8.29.011l.012 2.079h-4.18v-4.18l2.078.012 2.073.017.017 2.072zm-16.59 12.44v6.241h-4.123V23.88h4.122v6.24zm8.289.013l.011 6.228h-4.18v-6.2c0-3.413.018-6.223.041-6.24.024-.023.952-.035 2.073-.029l2.037.017.018 6.224zm8.301 0l.012 6.228h-4.18V23.884l2.078.012 2.073.011.017 6.224zM68.36 11.252c-.76.157-1.51.645-1.898 1.23-.39.581-.517 1.458-.32 2.195.262 1.01.97 1.585 2.607 2.12 1.22.394 1.538.638 1.538 1.183 0 .662-.557 1.138-1.393 1.185-.72.04-1.318-.233-1.7-.778l-.175-.25-.656.563c-.36.308-.656.58-.656.604-.006.023.151.209.343.412.627.674 1.352.964 2.525 1.01.656.03.813.018 1.23-.098 1.562-.424 2.462-1.812 2.166-3.356-.081-.441-.273-.79-.61-1.132-.412-.412-.708-.563-1.84-.934-1.01-.331-1.323-.488-1.567-.778-.418-.5-.145-1.307.522-1.562.331-.128.917-.133 1.312-.023.279.081.697.418.836.673.058.105.07.099.314-.104.133-.116.44-.39.679-.61l.435-.395-.354-.354c-.58-.58-1.225-.818-2.31-.859-.418-.017-.773 0-1.028.058zm45.843-.029c-1.631.261-2.943 1.289-3.547 2.775-.29.72-.342 1.033-.342 1.985.006 1.045.069 1.37.464 2.177.552 1.138 1.504 1.968 2.729 2.386.394.134.586.163 1.277.186 1.004.029 1.387-.046 2.229-.459.505-.25.679-.371 1.062-.754.256-.256.453-.494.441-.534-.023-.076-1.248-1.028-1.323-1.028-.023 0-.116.105-.203.232-.215.308-.592.61-.993.796-.401.18-1.196.243-1.718.139-1.016-.215-1.841-1.022-2.171-2.125-.14-.464-.14-1.428 0-1.944.412-1.527 1.799-2.508 3.216-2.276.557.093 1.172.412 1.468.766l.238.285.662-.505c.366-.279.662-.529.662-.558 0-.023-.192-.238-.418-.47a3.881 3.881 0 00-1.788-.987c-.47-.11-1.48-.157-1.945-.087zm-62.172.244c-.018.04-.024 2.101-.018 4.574l.018 4.5h1.625l.017-4.575.012-4.569h-.813c-.598 0-.824.018-.841.07zm4.034 4.516v4.586h1.626l.011-3.303.017-3.309 2.23 3.31 2.234 3.302h1.835v-9.172h-1.626v3.286c0 1.805-.017 3.268-.04 3.257-.03-.018-1.028-1.492-2.224-3.286l-2.176-3.25-.94-.007h-.947v4.586zm17.717-1.294l.017 3.297.157.424c.412 1.138 1.306 1.956 2.456 2.247.447.116 1.41.11 1.857 0 1.045-.273 1.806-.895 2.288-1.87.342-.69.354-.783.354-4.243v-3.147h-1.626v2.897c0 1.69-.023 3.025-.058 3.204-.139.761-.656 1.417-1.236 1.591-.378.11-.923.11-1.3 0-.599-.18-1.086-.813-1.237-1.596-.035-.18-.058-1.521-.058-3.199v-2.897h-1.631l.017 3.292zm8.94 1.277l.017 4.574h1.626l.017-1.904.012-1.904.47.018.465.017 1.09 1.887 1.086 1.886 1.005.018c.812.011.998 0 .975-.064-.017-.04-.569-.946-1.23-2.009-.657-1.062-1.19-1.938-1.18-1.944.012-.006.158-.07.326-.14 1.103-.447 1.747-1.55 1.585-2.705a7.12 7.12 0 00-.116-.604c-.157-.528-.645-1.08-1.196-1.352-.616-.302-.964-.343-3.065-.343H82.71l.012 4.569zm4.017-2.88c.215.105.325.21.424.401.226.424.157 1.063-.145 1.353-.285.273-.592.342-1.649.377l-.975.03v-2.352l1.033.023c.964.018 1.045.03 1.312.169zm7.576-1.323c-.087.197-.981 2.24-1.991 4.534-1.01 2.293-1.835 4.197-1.835 4.226 0 .023.418.046.923.046h.923l.43-1.073.424-1.074h3.831l.43 1.073.435 1.074h.917c.61 0 .917-.023.917-.063 0-.03-.754-1.829-1.677-3.989s-1.788-4.197-1.928-4.527l-.25-.593h-1.398l-.151.366zm1.451 3.605c.325.795.586 1.469.586 1.492 0 .029-.563.052-1.248.052-.8 0-1.248-.023-1.248-.058 0-.157 1.243-3.077 1.283-3.007.023.04.308.726.627 1.521zm5.172.615v4.586h1.626l.012-3.326.017-3.32 2.235 3.309 2.235 3.308.917.018.911.017v-9.178h-1.625l-.012 3.286-.017 3.286-2.194-3.286-2.195-3.286h-1.91v4.586zm19.041 0v4.586h6.27v-1.625h-4.644V16.68h4.121v-1.625h-4.121v-2.09h4.412v-1.568h-6.038v4.586zm-42.51 8.128c-2.421.296-4.105 2.252-4.105 4.76 0 2.31 1.416 4.162 3.588 4.679.481.122 1.7.133 2.188.029 1.527-.331 2.793-1.4 3.344-2.822.255-.65.343-1.126.343-1.84 0-1.985-.93-3.553-2.584-4.348a5.185 5.185 0 00-2.775-.458zm1.445 1.648c1.69.447 2.63 2.433 2.02 4.267a2.988 2.988 0 01-4.133 1.776c-1.086-.516-1.713-1.59-1.713-2.931 0-1.486.76-2.624 2.05-3.06.446-.156 1.306-.18 1.776-.052zm48.229-1.648c-.848.11-1.794.51-2.421 1.039a4.836 4.836 0 00-1.562 2.653c-.15.731-.121 1.793.07 2.45.534 1.88 2.026 3.146 3.994 3.384 2.508.302 4.714-1.272 5.213-3.721.076-.372.087-.662.064-1.272-.035-.923-.122-1.288-.482-2.008-.522-1.057-1.283-1.77-2.357-2.206-.702-.285-1.73-.412-2.519-.32zm1.457 1.648c.964.256 1.683.958 2.043 1.991.302.877.192 2.084-.261 2.862a2.925 2.925 0 01-2.508 1.469c-.905.006-1.567-.25-2.182-.86-.598-.591-.918-1.41-.912-2.362.006-.615.087-.998.343-1.527a2.862 2.862 0 011.695-1.52c.458-.157 1.306-.18 1.782-.053zm-76.558-1.434c-.023.018-.04 2.084-.04 4.586v4.546h1.683v-9.172h-.801c-.441 0-.825.017-.842.04zm4.023 4.546v4.586h1.626v-6.641l.713 1.056c.39.58 1.393 2.079 2.235 3.32l1.533 2.265h1.846v-9.172h-1.626l-.011 3.314-.018 3.321-2.206-3.315-2.205-3.314-.94-.006h-.947v4.586zm10.333 0v4.586h1.625v-3.774h4.006v-1.567h-4.006v-2.264h4.296v-1.567h-5.921v4.586zm17.822 0v4.586h1.625V29.62l.476.017.476.017 1.005 1.742c.545.958 1.039 1.811 1.09 1.898l.094.163h2.026l-.383-.627c-.215-.343-.76-1.225-1.22-1.962-.458-.737-.836-1.37-.836-1.405 0-.04.035-.07.076-.07.046 0 .238-.081.43-.174.754-.377 1.323-1.196 1.393-2.009.093-1.155-.406-2.118-1.335-2.577-.598-.29-1.057-.342-3.1-.348H84.22v4.586zm3.976-2.874c.459.232.563.43.54 1.016-.023.528-.145.737-.557.94-.25.123-.366.134-1.3.152l-1.034.023v-2.346l1.004.018c.976.023 1.01.029 1.347.197zm4.267 2.874v4.586h1.625v-3.094c.006-2.624.018-3.065.082-2.944.046.082.62 1.475 1.283 3.095l1.207 2.949.552-.018.557-.017 1.248-3.054 1.254-3.059.017 3.07.012 3.072h1.683l-.011-4.575-.018-4.568h-2.142l-1.236 2.96c-.68 1.626-1.254 3.019-1.271 3.089-.018.075-.053.133-.076.133-.017 0-.29-.61-.598-1.352l-1.3-3.106-.737-1.753h-2.131v4.586zm14.246-4.14c-.116.25-1.005 2.27-1.98 4.488-.975 2.218-1.794 4.081-1.828 4.133-.047.099.011.105.905.105h.952l.43-1.074.424-1.074 1.909.011 1.916.018.418 1.045.418 1.045.941.017c.882.012.94.006.911-.087-.023-.081-3.228-7.61-3.756-8.83l-.11-.243h-1.347l-.203.447zm1.521 3.67c.302.743.54 1.364.528 1.375-.012.018-.586.018-1.271.012l-1.248-.017.638-1.556.639-1.556.081.192c.046.104.331.8.633 1.55zm3.274-3.39c0 .4-.006.742-.012.766-.011.029.61.058 1.376.075 1.057.023 1.393.046 1.399.099.006.04.012 1.747.017 3.79l.006 3.716h1.626v-7.605h2.786v-1.567h-7.198v.725zm8.591 3.86v4.586h1.626v-9.172h-1.626v4.586zm13.759 0v4.586h1.625l.012-3.31.017-3.314.726 1.08 2.235 3.309 1.503 2.235h1.835v-9.172h-1.626l-.011 3.297-.018 3.303-2.206-3.303-2.206-3.297h-1.886v4.586zM64.749 37.2c-.987.348-1.51 1.237-1.323 2.24.145.802.598 1.197 1.84 1.615 1.33.447 1.649.673 1.776 1.254.337 1.503-1.904 2.275-2.978 1.015l-.197-.226-.29.203c-.157.11-.29.22-.302.25-.03.081.482.54.766.685 1.388.708 3.036.284 3.634-.94.116-.238.145-.378.145-.784 0-.424-.023-.54-.162-.825-.174-.36-.621-.783-.743-.708-.041.024-.053.018-.035-.017.046-.076-.372-.273-1.109-.511-.72-.232-1.178-.488-1.428-.801-.163-.203-.18-.261-.18-.639.006-.627.192-.917.778-1.19.447-.209 1.074-.203 1.527.012.185.087.4.238.481.337.163.191.169.191.58-.145.175-.146.175-.146.065-.268-.198-.214-.691-.51-1.016-.61-.5-.144-1.335-.121-1.829.053zM52.06 40.83v3.6h.697v-7.2h-.697v3.6zm3.193 0v3.6h.697v-3.106c0-1.707.023-3.106.046-3.106.024 0 .088.07.14.157.052.093.528.79 1.062 1.555l1.353 1.945c.209.302.69 1.005 1.074 1.55l.702 1.005h.847v-7.205l-.33.018-.337.017-.012 2.99c-.011 1.643-.023 3.013-.035 3.042-.017.052-.18-.169-.737-.976-.447-.65-.79-1.12-.859-1.184-.052-.035-.075-.07-.052-.07s-.18-.307-.447-.684a68.382 68.382 0 01-.825-1.179c-.795-1.15-1.097-1.55-1.149-1.52-.029.017-.035.005-.011-.03.023-.035-.018-.145-.088-.244-.127-.168-.15-.174-.586-.174h-.453v3.6zm13.816-3.28v.32h2.38v6.56h.697l-.012-3.28-.017-3.28h2.467v-.639h-5.515v.32zm7.187 3.222c-.012 1.95-.006 3.57 0 3.6.012.034.163.057.337.057h.313V37.23h-.638l-.012 3.541zm2.334-3.222v.32h2.438v6.56h.697v-6.56h2.38v-.639H78.59v.32zm7.1 2.305c.023 2.856.028 2.908.36 3.524.493.9 1.532 1.352 2.71 1.178 1.097-.156 1.823-.841 2.055-1.921.058-.296.082-.964.082-2.897V37.23h-.691l-.018 2.624c-.017 2.618-.017 2.63-.156 2.972-.163.407-.5.767-.906.964-.406.197-1.202.203-1.625.012-.343-.157-.691-.477-.848-.778-.255-.5-.284-.813-.284-3.373v-2.42h-.703l.023 2.623zm6.774-2.305v.32h2.438v6.56h.697v-6.56h2.38v-.639h-5.515v.32zm7.198 3.28v3.6h2.264c1.771 0 2.264-.018 2.27-.076.006-.035.006-.174.012-.302v-.232l-1.928-.017-1.921-.012v-2.786h3.483v-.64h-3.483V37.87h3.715v-.639h-4.412v3.6z" fill-rule="evenodd" fill="#0a2c45" vectornator:layerName="Layer 1"/></svg>