<svg width="110" height="22" viewBox="0 0 110 22" fill="none" xmlns="http://www.w3.org/2000/svg"><path fill-rule="evenodd" clip-rule="evenodd" d="M.186.093c0 .062-.03.093-.093.093C.001.186 0 .216 0 10.217c0 10 0 10.032.093 10.032.078 0 .093.03.093.185s.016.186.093.186c.062 0 .093.03.093.093 0 .092.031.093 5.364.093s5.364 0 5.364-.093c0-.068.031-.093.117-.093h.117l-.025-2.345-8.336-.024L2.95.395 2.845.38C2.778.37 2.741.333 2.741.276c0-.06-.032-.09-.093-.09-.062 0-.093-.031-.093-.093C2.555.003 2.524 0 1.371 0 .217 0 .186.002.186.093zM12.92 1.277c-.055.064-.122.116-.148.116-.032 0-.043.586-.035 1.754l.012 1.753.174.014c.136.011.174.034.174.105 0 .14 2.132.14 2.169 0a.16.16 0 01.123-.105l.1-.014V1.602l-.102-.014a.132.132 0 01-.116-.116c-.014-.1-.032-.102-.787-.115-.725-.011-.775-.018-.797-.104-.04-.153-.63-.135-.767.024zm65.892.394c0 .087-.039.092-.778.104l-.778.013-.044.197c-.032.144-.067.198-.128.198-.138 0-.129 2.505.01 2.54.05.014.092.064.092.112 0 .063.034.088.116.088.085 0 .116.025.116.093 0 .09.031.093 1.073.093 1.033 0 1.073-.004 1.097-.093.013-.052.063-.093.111-.093.084 0 .088-.064.088-1.58 0-1.515-.004-1.578-.088-1.578-.048 0-.098-.041-.111-.093-.037-.141-.776-.142-.776-.001zm-31.86.303c0 .178-.013.209-.092.209-.077 0-.093.03-.093.182 0 .154-.016.185-.104.198-.087.012-.107.048-.12.212-.01.16-.03.197-.104.197s-.09.033-.09.18c0 .142-.02.186-.093.206-.074.019-.093.063-.093.214 0 .159-.015.19-.092.19-.078 0-.094.03-.094.19 0 .148-.02.195-.088.213-.1.026-.142.143-.143.398 0 .143-.017.174-.094.174-.079 0-.093.031-.093.209s-.013.209-.092.209c-.077 0-.093.03-.093.175 0 .137-.023.184-.105.22-.076.034-.108.092-.119.22-.008.107-.038.175-.076.175-.085 0-.118.106-.118.375 0 .197-.013.228-.093.228-.077 0-.093.031-.093.18 0 .142-.02.186-.093.205-.074.02-.093.064-.093.215 0 .14-.018.19-.07.19-.09 0-.162.186-.162.421 0 .152-.016.183-.093.183s-.093.03-.093.182c0 .142-.02.19-.093.212-.078.025-.092.07-.092.302 0 .247-.01.274-.105.287-.087.013-.107.048-.119.213-.011.16-.031.197-.104.197-.08 0-.09.034-.09.278 0 .248-.01.279-.093.279-.08 0-.093.031-.093.209s-.014.209-.093.209c-.083 0-.093.03-.093.302 0 .291-.004.302-.116.302-.104 0-.116.018-.116.182 0 .142-.02.19-.093.213-.08.025-.093.07-.093.305 0 .244-.01.275-.093.275-.079 0-.093.031-.093.21 0 .173-.014.208-.088.208-.11 0-.144.087-.144.375 0 .198-.013.229-.093.229-.077 0-.093.03-.093.182 0 .142-.02.19-.093.212-.079.026-.093.071-.093.306 0 .244-.01.275-.092.275-.084 0-.093.031-.093.302 0 .29-.005.302-.116.302-.105 0-.116.019-.116.183 0 .141-.021.189-.093.212-.08.025-.093.07-.093.305 0 .244-.01.275-.093.275s-.093.03-.093.299c0 .274-.009.3-.104.313-.087.013-.107.048-.12.208-.01.144-.036.198-.104.216-.075.02-.09.065-.09.278 0 .215-.014.258-.093.279-.08.02-.093.063-.093.307 0 .252-.01.283-.092.283-.08 0-.094.03-.094.209 0 .156-.017.209-.07.209-.09 0-.162.186-.162.42 0 .153-.015.184-.092.184-.084 0-.093.03-.093.301s-.01.302-.093.302-.093.031-.093.276c0 .25-.01.277-.105.29-.087.012-.107.048-.119.212-.01.133-.035.198-.08.198-.08 0-.126.163-.106.376.019.199.55.286.55.09 0-.086.028-.095.298-.095.258 0 .303-.012.328-.093.025-.079.07-.093.305-.093.242 0 .276-.01.276-.09 0-.079.038-.093.29-.105.26-.012.292-.024.305-.118.014-.099.036-.104.406-.104.36 0 .392-.008.392-.094 0-.068.03-.092.116-.092.104 0 .116-.02.116-.18 0-.142.02-.186.093-.206.08-.02.093-.063.093-.307 0-.252.01-.283.093-.283.079 0 .093-.03.093-.209 0-.156.018-.209.07-.209.09 0 .162-.185.162-.415 0-.139.02-.183.093-.202.08-.02.093-.063.093-.307 0-.252.01-.283.092-.283.083 0 .093-.031.093-.279 0-.247.01-.278.093-.278.08 0 .093-.031.093-.21 0-.156.018-.208.07-.208.09 0 .162-.186.162-.421 0-.152.016-.183.093-.183.084 0 .093-.031.093-.302s.01-.302.093-.302c.077 0 .093-.03.093-.185 0-.136.019-.186.07-.186.09 0 .162-.186.162-.416 0-.138.02-.183.093-.202.08-.02.093-.063.093-.307 0-.252.01-.283.093-.283.079 0 .093-.03.093-.209 0-.178.013-.209.092-.209.083 0 .093-.03.093-.278 0-.243.012-.28.088-.28.111 0 .144-.086.144-.374 0-.198.013-.229.093-.229s.093-.03.093-.204c0-.164.018-.208.093-.227.078-.02.093-.064.093-.273 0-.214.015-.256.105-.295.087-.039.106-.088.118-.308.011-.215.03-.266.104-.286.072-.019.091-.064.091-.214 0-.159.015-.19.093-.19.083 0 .093-.03.093-.302 0-.27.01-.302.093-.302.077 0 .093-.03.093-.185 0-.152.016-.186.088-.186.11 0 .144-.087.144-.376 0-.197.013-.228.093-.228.079 0 .093-.03.093-.209 0-.178.013-.209.092-.209.078 0 .093-.03.093-.186 0-.135.02-.186.071-.186.09 0 .161-.185.161-.42 0-.152.016-.183.093-.183.08 0 .093-.031.093-.209s.014-.209.093-.209c.083 0 .093-.03.093-.279 0-.247.01-.278.093-.278.079 0 .094-.034.1-.221l.009-.22.018.197c.014.158.035.197.108.197.074 0 .09.033.09.19 0 .15.02.196.09.214.069.018.094.072.105.216.012.16.032.196.118.208.095.013.105.04.105.29 0 .244.01.275.093.275.08 0 .093.031.093.21 0 .178.013.208.093.208.081 0 .093.031.093.253 0 .197.02.267.089.316.051.035.095.13.104.223.012.125.038.164.12.175.09.013.105.043.105.221 0 .175.014.206.092.206.083 0 .093.03.093.283 0 .244.013.286.093.307.073.019.093.063.093.205 0 .161.012.18.116.18.112 0 .116.01.116.302 0 .27.01.302.093.302.08 0 .093.03.093.209 0 .178.014.209.093.209.082 0 .093.03.093.275 0 .235.013.28.093.305.063.02.092.07.092.16 0 .247.055.412.145.435.068.018.088.066.088.213 0 .16.015.19.093.19.082 0 .092.032.092.284 0 .243.013.286.094.307.072.019.092.063.092.204 0 .162.012.18.116.18.112 0 .116.012.116.303 0 .27.01.302.093.302.084 0 .093.03.093.301 0 .272.01.303.093.303.082 0 .093.03.093.252 0 .197.02.267.09.316.056.04.095.13.104.246.012.15.034.187.12.199.094.013.104.04.104.29 0 .244.01.275.093.275s.093.031.093.302c0 .269.01.302.09.302s.093.038.105.29c.012.261.025.292.118.306.096.013.105.039.105.313 0 .268.01.299.093.299.081 0 .093.03.093.26 0 .22.013.263.092.283.076.02.093.064.093.228 0 .173.014.204.093.204.08 0 .093.03.093.228 0 .332.027.376.237.376.15 0 .18.016.18.092 0 .084.032.093.303.093.24 0 .302.015.302.071 0 .1.193.162.513.162.245 0 .276.01.276.092 0 .084.031.093.302.093s.302.01.302.093c0 .084.03.093.302.093.273 0 .302.01.302.095 0 .087.024.094.267.082l.267-.014.014-.248c.012-.217.002-.25-.081-.272-.077-.02-.096-.063-.096-.21 0-.144-.02-.19-.09-.209-.075-.019-.094-.07-.105-.285-.012-.232-.026-.264-.118-.277-.09-.013-.105-.043-.105-.221 0-.175-.014-.206-.093-.206-.083 0-.093-.03-.093-.301 0-.272-.01-.302-.092-.302s-.093-.031-.093-.26c0-.219-.015-.264-.09-.284-.069-.017-.095-.07-.105-.216-.012-.159-.032-.195-.119-.207-.096-.014-.104-.04-.104-.314 0-.267-.01-.298-.093-.298-.082 0-.093-.031-.093-.256 0-.204-.018-.266-.093-.313-.066-.04-.093-.108-.093-.232 0-.155-.013-.175-.116-.175-.112 0-.116-.01-.116-.302 0-.27-.01-.301-.093-.301-.082 0-.093-.031-.093-.284 0-.243-.013-.286-.093-.307-.073-.019-.092-.063-.092-.209 0-.144-.02-.19-.091-.208-.074-.02-.093-.072-.105-.286-.011-.22-.03-.27-.118-.308-.09-.04-.104-.081-.104-.295 0-.21-.015-.252-.094-.273-.074-.02-.092-.063-.092-.228 0-.172-.014-.203-.093-.203-.08 0-.093-.031-.093-.229 0-.288-.034-.375-.144-.375-.072 0-.088-.034-.088-.186 0-.154-.016-.185-.093-.185-.083 0-.093-.031-.093-.302s-.01-.302-.093-.302c-.078 0-.093-.031-.093-.19 0-.15-.02-.195-.09-.214-.075-.02-.094-.072-.105-.286-.011-.22-.03-.27-.118-.308-.082-.036-.105-.084-.105-.22 0-.145-.016-.175-.093-.175-.081 0-.093-.031-.093-.253 0-.197-.02-.267-.089-.316-.056-.04-.095-.13-.104-.246-.013-.15-.035-.187-.12-.199-.095-.013-.105-.04-.105-.29 0-.245-.01-.276-.092-.276-.078 0-.093-.03-.093-.19 0-.15-.02-.195-.093-.214-.073-.019-.093-.063-.093-.205 0-.149-.016-.18-.093-.18s-.093-.03-.093-.183c0-.235-.071-.42-.161-.42-.053 0-.07-.053-.07-.21 0-.178-.015-.209-.094-.209-.077 0-.093-.03-.093-.185s-.015-.186-.093-.186c-.077 0-.093-.031-.093-.183 0-.235-.07-.421-.16-.421-.054 0-.072-.053-.072-.209 0-.178-.013-.209-.093-.209-.077 0-.093-.03-.093-.186 0-.154-.015-.185-.092-.185-.08 0-.093-.031-.093-.21 0-.177-.014-.208-.093-.208-.076 0-.093-.032-.094-.174 0-.255-.043-.372-.143-.398-.069-.018-.088-.066-.088-.214 0-.159-.016-.19-.093-.19-.078 0-.093-.03-.093-.19 0-.15-.019-.195-.093-.214-.073-.02-.093-.064-.093-.205 0-.161-.012-.18-.116-.18-.106 0-.116-.017-.116-.209v-.209h-2.554l-.001.209zm22.292.672c0 .087-.038.092-.684.105-.671.012-.686.015-.7.117-.01.067-.047.104-.105.104-.144 0-.14 14.021.004 14.059.086.022.092.063.092.575 0 .502.009.557.093.61.066.041.093.108.093.232 0 .156.013.175.116.175.112 0 .116.012.116.283 0 .244.013.286.093.307a.124.124 0 01.093.117c0 .052.04.102.093.115.052.014.093.064.093.112 0 .055.033.088.089.088.067 0 .096.045.12.186.03.18.037.186.213.186.163 0 .181.011.181.115 0 .083.026.117.088.117.049 0 .098.041.112.092.02.074.063.093.214.093.16 0 .19.016.19.093s.031.093.18.093c.142 0 .186.02.206.093.02.08.063.093.311.093.247 0 .29.013.311.092.036.135.167.145 1.732.13l1.417-.013.015-.105c.014-.098.036-.104.387-.104.334 0 .375-.01.397-.093.021-.08.063-.093.302-.093.238 0 .281-.013.302-.093.02-.078.063-.093.279-.093.212 0 .258-.014.277-.09a.16.16 0 01.124-.104.132.132 0 00.114-.12c.009-.057.043-.103.077-.103.152 0 .177-.69.027-.73-.076-.02-.093-.071-.105-.309-.012-.256-.024-.287-.118-.3-.096-.014-.104-.04-.104-.314 0-.267-.01-.298-.093-.298-.062 0-.093-.031-.093-.093 0-.087-.031-.093-.488-.093-.457 0-.487.006-.487.093 0 .079-.031.093-.21.093-.177 0-.209.014-.209.093 0 .082-.03.093-.278.093-.248 0-.279.01-.279.093 0 .09-.03.092-1.016.092-.977 0-1.017-.003-1.04-.092-.021-.08-.064-.093-.285-.093-.228 0-.26-.011-.26-.093 0-.068-.03-.093-.116-.093-.085 0-.115-.025-.115-.093 0-.062-.031-.093-.094-.093-.079 0-.092-.03-.092-.209 0-.178-.014-.209-.093-.209-.083 0-.093-.03-.093-.276 0-.32-.061-.513-.162-.513-.063 0-.07-.446-.07-3.995V8.685h5.201v-.674c0-.638-.005-.673-.09-.673-.083 0-.093-.038-.105-.383-.013-.357-.021-.384-.118-.398-.076-.011-.105-.046-.105-.128v-.113h-2.27c-2.231 0-2.27-.002-2.295-.093a.124.124 0 00-.121-.093c-.097 0-.097-.005-.097-1.695 0-1.664-.002-1.695-.093-1.695-.062 0-.093-.03-.093-.093 0-.087-.031-.093-.488-.093-.454 0-.488.006-.488.092zm37.618 1.812c0 .08-.031.093-.209.093s-.209.014-.209.093c0 .071-.031.093-.13.093-.171 0-.241.078-.241.265 0 .122-.019.153-.093.153-.062 0-.093.03-.093.093 0 .052-.031.093-.071.093-.125 0-.161.222-.161.99.001.839.016.942.143.975.053.016.09.065.089.12 0 .066.03.098.09.098.071 0 .093.037.105.174.013.164.024.175.185.188.136.011.174.036.186.116.003.03.017.058.039.08a.13.13 0 00.08.037c.057.008.104.042.104.076 0 .162 1.895.187 1.937.025.017-.065.064-.093.155-.093.191 0 .277-.045.277-.144 0-.057.033-.088.093-.088.062 0 .093-.03.093-.093 0-.062.031-.093.093-.093.077 0 .092-.03.092-.182 0-.154.017-.185.105-.197.094-.014.106-.045.118-.3.011-.238.029-.29.105-.31.138-.036.138-.775 0-.775-.079 0-.093-.038-.105-.29-.012-.261-.024-.292-.118-.306-.089-.012-.105-.043-.105-.201 0-.148-.019-.193-.092-.212-.052-.013-.093-.063-.093-.112 0-.055-.033-.087-.09-.087-.049 0-.103-.042-.119-.093-.023-.072-.071-.093-.212-.093-.152 0-.183-.015-.183-.093 0-.089-.031-.092-.882-.092-.852 0-.883.003-.883.092zm1.394.686c0 .018-.162.029-.36.022-.637-.022-.699-.042-.163-.05.287-.004.523.008.523.028zm-1.399 1.184c-.003.44-.015.766-.026.724-.011-.042-.061-.087-.111-.1-.069-.018-.09-.064-.09-.195 0-.132-.021-.176-.093-.195-.075-.02-.093-.064-.093-.223s.018-.203.093-.222c.074-.02.093-.063.093-.214 0-.16.015-.19.093-.19.062 0 .093-.032.093-.093 0-.052.01-.093.023-.093s.021.361.018.801zm1.912-.43c.083 0 .09.035.09.418 0 .345-.012.418-.071.418-.039 0-.09.047-.113.105-.028.068-.04-.146-.037-.616.003-.396.013-.63.023-.522.014.158.035.197.108.197zm-75.33.14c0 .085-.032.092-.4.092-.357 0-.401.01-.422.091-.02.074-.072.093-.286.105-.232.012-.265.026-.278.118-.012.09-.042.104-.22.104-.175 0-.206.014-.206.093 0 .077-.03.093-.183.093-.141 0-.189.02-.212.093-.016.051-.07.093-.119.093-.065 0-.09.032-.09.116 0 .104-.018.116-.185.116-.155 0-.186.016-.186.093 0 .063-.031.093-.098.093a.124.124 0 00-.12.089.172.172 0 01-.112.111c-.048.013-.088.054-.088.092s-.042.08-.093.093a.124.124 0 00-.093.121c0 .065-.03.098-.089.098-.067 0-.096.044-.12.185-.024.141-.053.186-.12.186-.056 0-.089.032-.089.088 0 .048-.041.098-.093.111a.124.124 0 00-.093.116c0 .053-.04.103-.092.117-.07.018-.093.063-.093.18 0 .117-.026.167-.105.201-.076.034-.108.093-.118.216-.01.122-.04.176-.105.193-.071.018-.09.064-.09.214 0 .159-.016.19-.093.19-.083 0-.093.03-.093.283 0 .239-.014.286-.089.306-.11.028-.142.143-.143.508 0 .246-.013.288-.093.31-.091.023-.093.063-.093 2.164 0 2.11.001 2.14.093 2.14.085 0 .093.032.093.384.001.464.028.577.143.607.075.02.089.066.089.306 0 .252.01.283.093.283.078 0 .093.03.093.19 0 .15.019.195.09.214.065.017.094.071.105.193.01.123.042.182.118.215.079.034.105.085.105.202 0 .116.023.162.093.18.05.013.092.063.092.112 0 .056.033.087.093.087.064 0 .093.031.093.098 0 .057.038.107.093.12.051.014.093.064.093.113 0 .062.033.087.116.087.085 0 .116.025.116.093 0 .062.031.093.093.093.068 0 .093.03.093.116 0 .085.025.116.093.116.062 0 .093.031.093.093 0 .068.03.093.116.093.085 0 .116.025.116.093 0 .06.03.093.087.093.049 0 .099.041.112.092.019.071.063.093.188.093.134 0 .166.02.178.105.013.087.049.107.213.119.16.011.197.031.197.104 0 .076.033.09.209.09.178 0 .209.014.209.093 0 .083.03.093.273.093.234 0 .277.013.298.093.022.084.063.093.423.093.364 0 .4.008.4.09 0 .134.2.148 1.857.133l1.463-.014.015-.105c.014-.102.028-.104.596-.104.543 0 .583-.006.606-.093.014-.052.064-.093.112-.093.055 0 .087-.033.087-.087 0-.049.042-.099.093-.112.08-.021.093-.063.093-.307 0-.247.011-.283.088-.283.11 0 .144-.088.144-.376 0-.197.013-.228.093-.228.079 0 .093-.031.093-.204 0-.164.018-.208.093-.228.124-.032.145-1.084.023-1.13-.15-.058-.487.03-.487.125 0 .076-.034.09-.21.09-.177 0-.208.014-.208.093 0 .082-.031.093-.26.093-.221 0-.264.014-.284.093-.021.08-.063.093-.325.093s-.304.012-.325.093c-.024.09-.064.092-1.32.092-1.264 0-1.295-.002-1.295-.092 0-.086-.03-.093-.395-.093-.363 0-.394-.008-.394-.093 0-.078-.031-.093-.186-.093s-.186-.016-.186-.093c0-.08-.03-.093-.209-.093-.192 0-.209-.01-.209-.116 0-.085-.024-.116-.092-.116-.062 0-.093-.031-.093-.093s-.031-.093-.093-.093-.093-.03-.093-.093c0-.068-.031-.093-.116-.093-.102 0-.116-.02-.116-.162 0-.112-.03-.18-.093-.22-.051-.032-.093-.095-.093-.14 0-.05-.035-.081-.09-.081-.073 0-.093-.038-.105-.198-.012-.164-.032-.2-.119-.212-.095-.014-.104-.04-.104-.29 0-.245-.01-.276-.093-.276-.086 0-.093-.03-.093-.399 0-.36-.009-.401-.093-.423-.072-.02-.093-.063-.093-.205v-.18l9.126-.023.015-.105c.01-.067.047-.104.104-.104.058 0 .09-.032.09-.09 0-.058.038-.095.105-.105.195-.027.18-2.545-.015-2.545-.084 0-.09-.038-.09-.585 0-.546-.006-.587-.093-.61-.081-.02-.093-.063-.093-.34 0-.354-.027-.462-.118-.462-.04 0-.067-.071-.077-.198-.011-.164-.031-.2-.118-.212-.088-.012-.105-.043-.105-.197 0-.152-.015-.183-.092-.183-.08 0-.093-.03-.093-.209 0-.178-.014-.209-.093-.209-.062 0-.093-.03-.093-.093 0-.06-.031-.093-.087-.093-.065 0-.094-.045-.116-.18-.02-.127-.056-.188-.122-.204a.124.124 0 01-.093-.122c0-.067-.03-.098-.093-.098-.062 0-.093-.03-.093-.092 0-.068-.03-.093-.116-.093-.085 0-.116-.025-.116-.093 0-.077-.031-.093-.186-.093-.167 0-.186-.012-.186-.116 0-.085-.024-.116-.093-.116-.061 0-.092-.031-.092-.093 0-.08-.031-.093-.21-.093-.177 0-.208-.014-.208-.093 0-.077-.031-.093-.183-.093-.154 0-.185-.016-.197-.104-.013-.087-.049-.107-.208-.119-.145-.01-.198-.036-.216-.104-.02-.08-.066-.09-.396-.09-.332 0-.376-.01-.403-.093-.028-.09-.07-.093-1.28-.093-1.22 0-1.25.002-1.25.093zm27.864 0c0 .086-.03.092-.464.092-.414 0-.47.01-.522.093-.041.066-.108.093-.233.093-.155 0-.174.013-.174.116 0 .111-.012.116-.283.116-.244 0-.287.013-.307.093a.124.124 0 01-.117.093.124.124 0 00-.115.093c-.016.059-.064.093-.132.093-.168 0-.254.049-.254.144 0 .057-.032.088-.092.088-.063 0-.093.031-.093.093 0 .068-.031.093-.116.093-.086 0-.117.025-.117.093 0 .067-.03.093-.112.093-.209 0-.259.046-.259.237 0 .162-.012.18-.116.18-.085 0-.116.025-.116.094 0 .061-.031.092-.093.092s-.093.031-.093.093-.03.093-.093.093c-.068 0-.093.031-.093.116s-.025.116-.093.116c-.077 0-.093.031-.093.183 0 .154-.016.185-.104.197-.087.013-.107.048-.119.213-.011.16-.031.197-.104.197-.075 0-.09.033-.09.186 0 .155-.016.186-.093.186-.08 0-.093.03-.093.208 0 .174-.015.21-.088.21-.11 0-.145.086-.145.37 0 .183-.016.227-.092.247-.086.022-.093.063-.093.493 0 .437-.006.468-.093.468-.091 0-.093.031-.093 1.855 0 1.814.002 1.855.093 1.884.083.026.093.07.093.42 0 .362.007.393.093.393.082 0 .092.03.092.275 0 .32.061.514.162.514.052 0 .07.05.07.19 0 .151.02.195.094.215.072.019.092.063.092.204 0 .15.016.18.093.18.072 0 .093.031.093.136 0 .196.044.282.145.282.056 0 .087.033.087.094s.031.092.093.092c.076 0 .093.031.093.167 0 .128.022.173.093.191a.124.124 0 01.093.117c0 .052.04.102.093.115.051.014.093.064.093.112 0 .063.033.088.116.088.093 0 .116.023.116.116 0 .083.025.116.087.116.049 0 .099.042.112.093.014.05.056.093.095.093.04 0 .084.041.1.093.024.072.071.093.213.093.151 0 .182.016.182.092 0 .063.031.093.093.093.06 0 .093.031.093.088 0 .1.087.145.283.145.104 0 .135.02.135.092 0 .078.031.093.183.093.142 0 .189.021.212.093.025.08.07.093.3.093.23 0 .273.014.294.093.023.087.063.093.606.093.568 0 .582.002.596.104l.015.105 1.354.012c1.362.013 1.595-.01 1.595-.15 0-.06.082-.071.488-.071.457 0 .487-.006.487-.093 0-.083.031-.093.302-.093s.302-.01.302-.093c0-.081.031-.093.253-.093.191 0 .268-.02.314-.084a.367.367 0 01.141-.114c.134-.05.123-1.195-.011-1.195-.086 0-.093-.03-.093-.395 0-.364-.007-.395-.093-.395-.077 0-.093-.03-.093-.185v-.186h-.488c-.456 0-.487.006-.487.093 0 .083-.031.093-.302.093-.27 0-.302.01-.302.093s-.03.093-.302.093c-.27 0-.302.01-.302.093 0 .145-2.204.145-2.242 0-.022-.084-.064-.093-.4-.093-.345 0-.376-.008-.376-.093 0-.077-.031-.093-.18-.093-.142 0-.186-.02-.205-.093-.02-.074-.063-.093-.215-.093-.172 0-.19-.011-.19-.116 0-.083-.025-.116-.087-.116-.049 0-.099-.042-.112-.093a.123.123 0 00-.122-.093c-.058 0-.097-.03-.097-.074 0-.04-.042-.085-.093-.098a.124.124 0 01-.092-.116.124.124 0 00-.093-.117c-.052-.013-.093-.063-.093-.111 0-.056-.033-.088-.09-.088-.071 0-.094-.037-.105-.174-.011-.14-.035-.177-.119-.189-.09-.013-.104-.042-.104-.22 0-.175-.014-.206-.093-.206-.083 0-.093-.031-.093-.283 0-.244-.013-.286-.093-.307-.085-.023-.093-.064-.093-.507 0-.451-.006-.482-.093-.482-.09 0-.093-.031-.093-.906 0-.743.012-.905.065-.905.102 0 .121-.11.121-.678 0-.499.006-.53.093-.53.083 0 .093-.03.093-.279 0-.247.01-.278.093-.278.079 0 .093-.031.093-.206 0-.178.014-.208.104-.22.087-.013.107-.049.119-.213.012-.16.032-.197.104-.197.06 0 .09-.032.09-.093 0-.062.032-.093.094-.093s.093-.03.093-.093c0-.06.03-.093.09-.093a.133.133 0 00.117-.088.19.19 0 01.12-.111.124.124 0 00.09-.121c0-.067.03-.098.093-.098.062 0 .093-.03.093-.093 0-.075.031-.092.167-.092.127 0 .173-.022.19-.09.018-.069.072-.095.217-.105.159-.012.195-.032.207-.119.014-.096.04-.104.314-.104.267 0 .298-.01.298-.093 0-.09.031-.093.993-.093.955 0 .995.003 1.018.093.022.083.063.093.401.093.36 0 .38.005.421.116.04.104.07.116.296.116.212 0 .255.014.275.093.022.083.064.093.4.093.345 0 .376-.008.376-.093 0-.062.031-.093.093-.093.083 0 .093-.031.093-.299 0-.274.009-.3.104-.313.094-.014.106-.045.119-.305.012-.252.025-.29.104-.29.084 0 .09-.035.09-.488 0-.447-.006-.488-.087-.488-.048 0-.098-.041-.111-.093-.02-.073-.064-.093-.215-.093-.155 0-.19-.016-.19-.087 0-.111-.087-.145-.375-.145-.164 0-.228-.018-.228-.064 0-.101-.11-.122-.651-.122-.463 0-.507-.007-.534-.093-.028-.09-.07-.092-1.49-.092-1.428 0-1.459.002-1.459.093zm24.674 0c-.022.083-.063.092-.414.092-.358 0-.389.008-.389.093 0 .08-.031.093-.228.093-.289 0-.376.034-.376.145 0 .07-.034.087-.182.087-.142 0-.19.021-.212.093-.019.058-.071.093-.139.093-.158 0-.256.047-.256.121 0 .036-.042.065-.093.065-.068 0-.093.03-.093.116 0 .105-.018.116-.19.116-.151 0-.195.019-.214.093-.014.051-.064.093-.112.093-.057 0-.088.033-.088.093 0 .063-.031.093-.097.093a.123.123 0 00-.12.088.174.174 0 01-.112.112.124.124 0 00-.089.12c0 .067-.03.098-.093.098-.06 0-.093.03-.093.087 0 .048-.041.098-.092.112-.071.018-.093.063-.093.188 0 .134-.019.166-.105.178a.132.132 0 00-.12.12c-.008.067-.046.104-.104.104-.073 0-.09.033-.09.186 0 .155-.015.186-.092.186-.08 0-.093.03-.093.209 0 .192-.01.209-.116.209-.104 0-.116.019-.116.18 0 .141-.02.186-.093.205-.074.019-.093.063-.093.21s-.02.194-.093.217c-.082.027-.093.07-.093.398 0 .338-.007.369-.092.369-.088 0-.094.03-.094.6 0 .588-.002.601-.104.615l-.105.015-.013 1.161c-.014 1.28-.005 1.37.13 1.37.087 0 .092.033.092.585 0 .546.007.587.094.61.08.02.092.063.092.301 0 .239.013.281.093.302.079.02.093.063.093.279 0 .215.014.258.093.278.065.017.093.064.093.155 0 .19.045.277.144.277.072 0 .088.034.088.186 0 .154.015.185.093.185.068 0 .093.031.093.117 0 .083.025.116.09.116.07 0 .093.037.105.174.01.14.034.177.118.189.076.01.105.046.105.128 0 .081.025.112.093.112.062 0 .093.031.093.093s.03.093.092.093c.063 0 .093.031.093.093 0 .06.031.093.09.093.057 0 .095.037.104.104a.133.133 0 00.12.12c.067.01.104.047.104.104 0 .059.032.09.093.09.062 0 .093.03.093.093 0 .068.031.093.116.093s.116.024.116.092c0 .078.031.093.183.093.154 0 .185.017.197.105.012.083.049.107.184.118.122.01.176.04.193.105.019.07.065.09.214.09.159 0 .19.016.19.093 0 .08.031.093.209.093s.209.014.209.093c0 .086.031.093.395.093.39 0 .395.001.395.116v.116h1.505c1.59 0 1.653-.005 1.653-.144 0-.08.038-.088.376-.088.337 0 .378-.01.4-.093.019-.073.063-.093.209-.093s.19-.02.209-.093c.019-.073.063-.093.204-.093.146 0 .181-.017.181-.087 0-.066.046-.094.19-.117.135-.022.198-.057.215-.122.013-.05.063-.092.111-.092.057 0 .087-.032.087-.093 0-.075.031-.092.167-.092.128 0 .173-.022.192-.093.013-.052.052-.093.086-.093.033 0 .088-.038.122-.084a.372.372 0 01.142-.115c.044-.017.081-.073.081-.125 0-.064.03-.094.094-.094.052 0 .108-.037.125-.081a.37.37 0 01.115-.142c.053-.039.084-.12.084-.22 0-.13.018-.16.093-.16.062 0 .093-.032.093-.094s.031-.093.093-.093c.06 0 .093-.03.093-.087 0-.048.041-.098.091-.112.065-.016.101-.078.121-.21.021-.128.058-.193.118-.21.065-.016.088-.065.088-.186 0-.123.023-.171.092-.193.072-.023.093-.07.093-.212 0-.133.02-.183.071-.183.09 0 .161-.186.161-.42 0-.126.021-.184.065-.184.093 0 .121-.105.121-.463 0-.276.012-.318.093-.34.091-.024.093-.063.093-2.072 0-2.016-.001-2.047-.093-2.047-.085 0-.093-.031-.093-.395 0-.36-.008-.395-.09-.395-.079 0-.093-.038-.105-.29-.012-.26-.025-.292-.118-.305-.095-.014-.105-.04-.105-.295 0-.24-.013-.283-.093-.304-.051-.013-.092-.063-.092-.112 0-.055-.033-.087-.091-.087-.072 0-.093-.038-.104-.197-.012-.165-.032-.2-.119-.213-.088-.012-.104-.043-.104-.197 0-.152-.016-.183-.093-.183-.069 0-.093-.03-.093-.116 0-.085-.025-.116-.093-.116-.062 0-.093-.03-.093-.093 0-.062-.031-.093-.093-.093s-.093-.03-.093-.092c0-.069-.031-.093-.116-.093-.093 0-.116-.024-.116-.116 0-.086-.025-.117-.093-.117-.062 0-.093-.03-.093-.092 0-.063-.031-.093-.093-.093s-.093-.031-.093-.093c0-.068-.031-.093-.116-.093s-.116-.025-.116-.093c0-.062-.031-.093-.092-.093s-.094-.03-.094-.088c0-.095-.085-.144-.253-.144-.068 0-.116-.034-.131-.093-.02-.074-.064-.093-.215-.093-.159 0-.19-.015-.19-.093 0-.079-.031-.093-.209-.093-.192 0-.209-.01-.209-.116 0-.103-.019-.116-.175-.116-.124 0-.191-.027-.232-.093-.052-.083-.108-.093-.522-.093-.433 0-.464-.006-.464-.093 0-.09-.031-.092-1.259-.092-1.219 0-1.258.003-1.282.093zm12.944 0c0 .089-.031.092-.794.092-.75 0-.795.005-.818.092-.021.082-.071.093-.495.104-.448.013-.471.018-.486.118-.014.099-.035.104-.406.104-.361 0-.391.008-.391.093 0 .084-.031.093-.302.093-.265 0-.302.011-.302.088 0 .048-.042.098-.093.111-.142.037-.148 13.687-.006 13.687.049 0 .099.041.112.093.038.145 2.355.145 2.355 0 0-.062.031-.093.093-.093.093 0 .093-.03.093-5.852V8.917h.116c.093 0 .116-.023.116-.116v-.116h.79c.758 0 .789-.004.789-.093s.031-.093.697-.093c.666 0 .697.004.697.093 0 .087.03.093.51.093h.511v.116c0 .104.019.116.183.116.142 0 .189.02.212.093.023.072.07.093.212.093.152 0 .183.015.183.092 0 .063.031.094.093.094.068 0 .092.03.092.115 0 .086.025.117.093.117s.093.03.093.112c0 .173.048.259.145.259.071 0 .087.035.087.19 0 .151.02.195.093.215.08.02.093.063.093.301 0 .239.013.282.093.302.089.024.093.064.093 1.084s.003 1.06.093 1.09c.092.029.093.07.093 3.788v3.757h.116c.085 0 .116.025.116.093 0 .09.031.093 1.091.093 1.061 0 1.092-.003 1.092-.093 0-.062.031-.093.092-.093.093 0 .094-.03.094-5.043 0-5.004-.001-5.043-.094-5.068-.083-.022-.092-.063-.092-.433 0-.47-.023-.555-.145-.555-.076 0-.087-.037-.087-.284 0-.243-.013-.286-.094-.307-.072-.019-.092-.063-.092-.201 0-.137-.022-.184-.093-.207-.058-.018-.093-.07-.093-.139 0-.17-.049-.256-.144-.256-.057 0-.088-.032-.088-.092 0-.063-.031-.093-.093-.093-.077 0-.093-.031-.093-.183 0-.14-.021-.19-.09-.211a.214.214 0 01-.073-.047.197.197 0 01-.047-.073.136.136 0 00-.045-.063.136.136 0 00-.073-.027c-.059 0-.09-.032-.09-.093 0-.077-.031-.093-.186-.093-.157 0-.186-.015-.186-.097a.123.123 0 00-.091-.121.182.182 0 01-.072-.042.183.183 0 01-.047-.07c-.021-.067-.072-.088-.211-.088-.151 0-.182-.016-.182-.093 0-.076-.031-.093-.175-.093-.137 0-.185-.022-.221-.104-.038-.088-.087-.107-.308-.118-.214-.012-.266-.03-.286-.105-.022-.084-.067-.09-.608-.09-.554 0-.585-.005-.585-.093 0-.091-.031-.093-1.277-.093s-1.277.003-1.277.094zm-86.01.393c0 .085-.024.116-.093.116-.143 0-.147 14.02-.004 14.058a.173.173 0 01.112.111c.036.14 2.354.138 2.354 0 0-.059.037-.096.104-.105l.105-.015.012-7.078c.008-5.192-.003-7.094-.041-7.14-.042-.05-.306-.063-1.3-.063h-1.249v.116zm3.422-.085c-.086.085-.033.953.06.977.078.02.092.071.104.379.012.317.024.36.118.4.091.04.104.08.104.314 0 .237.011.268.093.268.086 0 .093.03.093.391 0 .351.01.395.093.422.08.025.093.07.093.304 0 .243.01.276.09.276s.093.038.105.29c.013.26.025.292.118.305.096.014.105.04.105.314 0 .267.01.298.093.298s.093.031.093.302c0 .269.01.302.09.302.079 0 .093.038.105.29.012.261.024.292.118.306.095.013.105.04.105.294 0 .24.013.283.093.304.08.021.092.063.092.298 0 .242.011.273.093.273.08 0 .093.03.093.228 0 .27.033.376.119.376.04 0 .067.07.076.197.012.164.032.2.119.212.094.014.104.04.104.287 0 .232.014.277.093.302.072.023.093.07.093.212 0 .152.016.183.093.183.08 0 .093.03.093.228 0 .288.033.376.144.376.073 0 .088.035.088.209 0 .178.014.209.093.209.082 0 .093.03.093.278 0 .248.01.279.093.279.079 0 .093.03.093.209 0 .176.014.209.09.209.073 0 .093.038.104.197.012.164.032.2.119.213.095.013.104.04.104.29 0 .244.01.275.093.275.078 0 .093.031.093.19 0 .15.02.195.09.214.066.017.095.071.105.193.01.123.043.182.119.215.081.036.104.084.104.22 0 .145.017.176.093.176.08 0 .093.03.093.209 0 .178.014.209.093.209.077 0 .093.03.093.185v.186h.209c.178 0 .209.014.209.093 0 .09.03.093.956.093.917 0 .958-.004.98-.093.017-.06.064-.093.136-.093.077 0 .11-.026.11-.087 0-.049.042-.099.093-.112.074-.02.093-.063.093-.21 0-.145.02-.189.093-.208.079-.02.093-.064.093-.284 0-.229.011-.26.093-.26.079 0 .093-.03.093-.206 0-.178.014-.207.104-.22.087-.013.107-.048.119-.213.012-.16.032-.197.104-.197.075 0 .09-.033.09-.183 0-.141.021-.189.094-.212.079-.025.093-.07.093-.301 0-.247.009-.274.104-.287.087-.013.107-.049.119-.213.011-.16.031-.197.104-.197.074 0 .09-.033.09-.18 0-.142.02-.186.093-.205.08-.021.093-.063.093-.307 0-.252.01-.283.093-.283.077 0 .093-.031.093-.175 0-.137.023-.185.104-.22.088-.04.107-.089.119-.309.011-.214.03-.266.104-.286.072-.019.09-.064.09-.214 0-.159.016-.19.094-.19.083 0 .093-.03.093-.298 0-.275.008-.3.104-.314.087-.012.107-.048.119-.207.01-.145.036-.199.104-.217.076-.02.09-.065.09-.277 0-.216.015-.259.094-.279.08-.02.092-.064.092-.307 0-.253.01-.284.093-.284.084 0 .093-.03.093-.301 0-.265.01-.302.088-.302.11 0 .144-.087.144-.375 0-.198.013-.229.093-.229.083 0 .093-.03.093-.273 0-.234.013-.277.093-.297.08-.021.093-.064.093-.297 0-.237.013-.277.104-.318.087-.038.107-.088.12-.299.01-.186.037-.27.104-.316.075-.053.09-.119.09-.408 0-.315.008-.346.093-.346.083 0 .093-.031.093-.297 0-.257.012-.3.093-.32.083-.022.092-.064.092-.4 0-.344.008-.377.092-.377.125 0 .147-.116.131-.696l-.014-.488h-2.553l-.015.105c-.01.067-.046.104-.104.104-.08 0-.09.035-.09.302 0 .271-.01.302-.093.302-.085 0-.093.031-.093.395 0 .355-.008.395-.087.395-.101 0-.145.16-.145.534 0 .205-.015.248-.093.269-.083.021-.093.063-.093.4 0 .345-.007.376-.093.376-.083 0-.092.03-.092.301s-.01.302-.093.302c-.084 0-.093.031-.093.302 0 .264-.011.302-.087.302-.102 0-.145.16-.145.54 0 .219-.012.25-.093.25-.083 0-.093.03-.093.278 0 .248-.01.279-.093.279s-.093.03-.093.298c0 .275-.008.3-.104.314-.087.012-.107.048-.12.212-.008.127-.036.198-.075.198-.086 0-.119.105-.119.375 0 .197-.013.228-.093.228-.083 0-.093.031-.093.302s-.01.302-.092.302c-.078 0-.093.031-.093.186 0 .135-.02.186-.071.186-.09 0-.162.185-.162.415 0 .139-.02.183-.092.202-.08.02-.093.063-.093.307 0 .252-.01.283-.093.283-.077 0-.093.03-.093.175 0 .136-.023.184-.105.22-.076.034-.108.092-.118.22-.01.113-.038.175-.081.175-.036 0-.078.05-.094.11-.048.193-.206.104-.206-.116 0-.161-.012-.18-.116-.18-.112 0-.116-.011-.116-.302 0-.271-.01-.302-.093-.302-.08 0-.093-.03-.093-.209 0-.176-.014-.209-.09-.209-.078 0-.093-.038-.105-.267-.012-.225-.03-.274-.118-.313-.082-.036-.105-.084-.105-.22 0-.144-.016-.175-.093-.175-.083 0-.093-.031-.093-.302 0-.27-.01-.302-.092-.302-.083 0-.093-.03-.093-.283 0-.244-.013-.286-.093-.307-.071-.019-.093-.064-.094-.193 0-.25-.043-.366-.143-.392-.074-.02-.088-.067-.088-.288 0-.225-.014-.267-.093-.288-.077-.02-.093-.064-.093-.248 0-.266-.034-.37-.121-.37-.045 0-.065-.057-.065-.182 0-.235-.071-.421-.161-.421-.056 0-.071-.063-.071-.302 0-.271-.01-.302-.093-.302s-.093-.03-.093-.302c0-.27-.01-.302-.093-.302-.085 0-.093-.03-.093-.375 0-.337-.01-.379-.093-.4-.079-.021-.092-.064-.092-.295 0-.315-.062-.509-.162-.509-.057 0-.07-.07-.07-.375 0-.337-.01-.379-.093-.4-.082-.022-.093-.064-.093-.34 0-.355-.028-.464-.118-.464-.034 0-.068-.047-.076-.104l-.015-.105-1.35-.012c-.743-.007-1.366.002-1.383.02zm60.886 0c-.017.017-.032.07-.032.116 0 .047-.029.085-.065.085-.119 0-.12.12-.12 6.998 0 6.812 0 6.85.092 6.875.052.013.093.063.093.111 0 .063.034.088.116.088.085 0 .116.025.116.093 0 .09.031.093 1.092.093 1.06 0 1.091-.003 1.091-.093 0-.062.031-.093.093-.093.093 0 .093-.023.082-7.14l-.013-7.14-1.257-.013c-.69-.007-1.27.002-1.288.02zm30.619.801c0 .126.013.262.028.302.022.056-.002.073-.104.074h-.133l.016-.302c.021-.401.193-.467.193-.074zM35.403 8.591c.02.072.064.093.204.093.14 0 .188.022.225.104.033.077.092.108.22.12.136.01.174.033.174.104 0 .057.032.09.087.09.049 0 .099.041.112.092.013.052.058.094.098.094.041 0 .074.031.074.07 0 .04.053.09.116.115.064.024.117.078.117.12 0 .04.041.085.092.099.052.014.093.063.093.111 0 .057.033.088.093.088.078 0 .093.031.093.19 0 .15.02.195.09.214.075.02.094.071.105.286.012.22.03.27.119.308.098.043.104.073.104.523v.476H31.21v-.302c0-.27.01-.302.093-.302s.093-.03.093-.298c0-.275.009-.3.104-.314.084-.012.108-.049.12-.184.01-.122.039-.176.104-.193a.124.124 0 00.09-.12c0-.067.03-.098.093-.098.077 0 .093-.031.093-.186 0-.167.011-.186.116-.186.085 0 .116-.024.116-.093 0-.062.03-.092.093-.092.068 0 .093-.031.093-.117 0-.104.018-.116.185-.116.155 0 .186-.015.186-.093 0-.063.031-.092.097-.092a.124.124 0 00.121-.09c.017-.066.072-.095.193-.105.135-.012.173-.035.185-.119.012-.09.042-.104.22-.104.175 0 .206-.014.206-.093 0-.09.03-.093.784-.093.745 0 .785.005.808.093zm52.572 0c.021.08.063.093.307.093.247 0 .283.01.283.088 0 .099.087.144.277.144.091 0 .138.028.155.093.018.07.063.093.191.093.136 0 .167.017.167.092 0 .063.031.094.093.094.063 0 .093.03.093.097 0 .056.037.107.088.12a.174.174 0 01.112.112c.016.053.065.09.12.088.067 0 .098.03.098.093 0 .062.031.093.092.093.062 0 .093.031.093.093 0 .061.031.093.09.093.073 0 .094.038.105.197.012.164.032.2.119.212.09.013.104.043.104.221 0 .175.014.206.093.206.083 0 .093.03.093.279 0 .247.01.278.093.278.086 0 .093.031.093.4 0 .36.009.4.093.423.089.023.092.063.092 1.197 0 1.135-.003 1.175-.092 1.198-.086.023-.093.063-.093.516 0 .462-.006.492-.093.492-.077 0-.093.031-.093.18 0 .142-.02.186-.093.205-.074.02-.093.064-.093.215 0 .156-.015.19-.088.19-.068 0-.097.045-.121.186-.024.14-.053.185-.12.185-.064 0-.089.033-.089.116 0 .086-.025.117-.093.117-.077 0-.092.03-.092.185 0 .167-.012.186-.117.186-.082 0-.116.025-.116.088 0 .064-.045.096-.167.119-.111.02-.176.062-.192.121a.122.122 0 01-.111.09c-.056 0-.087.033-.087.093 0 .078-.031.093-.19.093-.151 0-.195.019-.214.093-.02.073-.064.093-.209.093-.146 0-.19.02-.209.093-.024.089-.064.092-1.018.092-.962 0-.993-.002-.993-.092 0-.084-.031-.093-.302-.093s-.302-.01-.302-.093c0-.06-.031-.093-.087-.093-.049 0-.099-.042-.112-.093-.018-.07-.063-.093-.188-.093-.134 0-.166-.019-.178-.104a.132.132 0 00-.12-.12c-.067-.01-.104-.047-.104-.104 0-.059-.032-.09-.093-.09-.062 0-.093-.03-.093-.093 0-.06-.031-.093-.09-.093-.057 0-.095-.037-.104-.104a.132.132 0 00-.119-.12c-.088-.012-.105-.043-.105-.197 0-.151-.016-.182-.093-.182s-.093-.031-.093-.183c0-.142-.02-.19-.093-.212-.072-.023-.092-.07-.092-.212 0-.152-.016-.183-.093-.183-.082 0-.093-.03-.093-.25 0-.379-.043-.54-.145-.54-.084 0-.087-.066-.087-1.602 0-1.54.003-1.602.087-1.602.111 0 .145-.087.145-.375 0-.164.018-.229.064-.229.088 0 .122-.103.122-.375 0-.197.012-.228.092-.228.078 0 .093-.031.093-.186s.016-.186.093-.186c.068 0 .093-.03.093-.116 0-.084.025-.116.089-.116.067 0 .096-.045.12-.186.024-.141.053-.186.12-.186.058 0 .089-.032.089-.093 0-.062.031-.092.093-.092.068 0 .093-.031.093-.117 0-.104.019-.116.182-.116.142 0 .19-.02.212-.093.017-.05.07-.092.12-.092.058 0 .089-.032.089-.09 0-.073.038-.093.198-.105.164-.012.2-.032.212-.119.014-.096.039-.104.314-.104.267 0 .298-.01.298-.093 0-.089.031-.093.692-.093.652 0 .692.005.715.093z" fill="#FCFCFC"/><path fill-rule="evenodd" clip-rule="evenodd" d="M47.959 11.734c-.017.018-.031.099-.031.18 0 .111-.024.157-.093.174-.073.02-.093.064-.093.21 0 .145-.02.19-.093.208-.08.021-.093.064-.093.308 0 .252-.01.282-.092.282-.077 0-.093.031-.093.175 0 .137-.023.185-.105.22-.073.033-.109.094-.12.208-.008.092-.053.187-.104.223-.07.048-.09.118-.09.315 0 .222-.01.253-.092.253-.083 0-.093.03-.093.302 0 .29-.004.302-.116.302-.104 0-.116.018-.116.18 0 .141-.02.185-.093.205-.08.02-.093.063-.093.307 0 .252-.01.283-.093.283-.08 0-.093.03-.093.209 0 .178-.013.209-.092.209-.083 0-.094.03-.094.267 0 .233-.013.274-.104.314-.088.038-.107.088-.118.308-.012.215-.03.266-.105.286-.077.02-.09.065-.09.307 0 .252-.01.282-.093.282-.084 0-.093.031-.093.303v.301h.414c.475 0 .561-.022.561-.144 0-.077.036-.088.283-.088.244 0 .286-.013.307-.093.021-.08.064-.093.302-.093.239 0 .281-.013.302-.092.02-.08.063-.093.294-.093.243 0 .272-.01.29-.105l.02-.105.007.105c.006.097.028.105.308.105.271 0 .302.01.302.093s.03.092.302.092c.27 0 .302.01.302.093 0 .086.03.093.391.093.37 0 .393.006.407.105.013.096.041.105.374.118l.36.013v-.397c0-.365-.007-.396-.093-.396-.083 0-.093-.031-.093-.302s-.009-.302-.092-.302-.093-.03-.093-.283c0-.242-.014-.286-.091-.306-.074-.02-.093-.072-.105-.286-.01-.22-.03-.27-.118-.309-.082-.036-.104-.084-.104-.22 0-.144-.017-.175-.093-.175-.084 0-.093-.031-.093-.302 0-.27-.01-.302-.093-.302-.077 0-.093-.03-.093-.182 0-.236-.071-.421-.161-.421-.052 0-.071-.05-.071-.186 0-.155-.016-.186-.093-.186-.082 0-.093-.03-.093-.283 0-.244-.013-.286-.093-.307-.073-.02-.092-.064-.092-.21 0-.145-.02-.189-.094-.208-.072-.02-.092-.064-.092-.205 0-.161-.013-.18-.117-.18-.111 0-.115-.011-.115-.302 0-.271-.01-.302-.093-.302-.08 0-.093-.03-.093-.209 0-.174-.015-.209-.088-.209-.048 0-.098-.041-.111-.093-.025-.092-.298-.138-.374-.062z" fill="#fff"/></svg>