<svg width="128" height="19" viewBox="0 0 128 19" fill="none" xmlns="http://www.w3.org/2000/svg"><path fill-rule="evenodd" clip-rule="evenodd" d="M21.795.206c-.059.016-.115.109-.137.227-.038.197-.043.2-.338.201-.46.001-.554.043-.596.265-.032.174-.059.196-.25.213-.199.016-.213.03-.23.233-.017.202-.03.216-.233.233-.203.017-.216.03-.233.233-.017.202-.031.217-.234.234l-.215.017-.017.45-.017.448-.217.018-.216.018-.017.449-.017.448-.216.018-.216.018-.017.773-.016.773h.207a.87.87 0 00.447-.16l.393-.262c.376-.252 1.22-.108 1.578.269.154.162.247.211.4.211.152 0 .205.029.23.123.026.101.062.116.209.086.239-.047.237-.044.262-.498l.023-.4.196-.037c.165-.03.201-.067.232-.233s.068-.202.234-.233c.166-.032.202-.067.233-.236.034-.178.06-.2.25-.217.2-.016.215-.03.231-.236l.019-.219h1.846l.037.198c.043.227.134.267.603.268l.307.001v.467h.466v.396c0 .439.056.537.304.537h.163v1.867h-.163c-.248 0-.304.098-.304.536V8.1H26.3v.467h-.397c-.439 0-.537.055-.537.303v.163h-1.86l-.018-.218c-.016-.206-.03-.22-.23-.237-.191-.016-.217-.038-.25-.217-.032-.168-.068-.204-.234-.235s-.203-.067-.234-.234-.066-.202-.238-.234L22.1 7.62v-.39c0-.428-.057-.53-.295-.53-.154 0-.154.002-.192.569-.049.73-.049 3.857 0 4.258l.036.306h.222c.214 0 .222.008.24.22l.018.218 2.333.017c2.73.02 2.694.022 2.746-.253.037-.199.042-.202.338-.203.46 0 .554-.042.596-.265.032-.173.059-.196.249-.212.2-.017.214-.031.23-.233.018-.202.032-.216.234-.233.202-.017.217-.031.233-.234.017-.202.031-.216.233-.233.204-.017.217-.03.234-.237.016-.195.036-.218.178-.218.244 0 .3-.1.3-.537v-.397h.168c.305 0 .301.039.285-2.865l-.015-2.706-.22-.018-.218-.018v-.393c0-.434-.056-.533-.3-.533-.142 0-.162-.023-.178-.219-.017-.206-.03-.22-.233-.236-.203-.017-.217-.032-.234-.234-.016-.202-.03-.216-.233-.233-.202-.017-.216-.031-.233-.233-.017-.203-.03-.217-.237-.234-.195-.016-.219-.035-.219-.178 0-.244-.1-.3-.536-.3-.396 0-.397 0-.397-.163 0-.31.054-.304-2.739-.296-1.43.003-2.644.018-2.699.032zm-17.733 2.8c-.059.016-.115.109-.138.225l-.037.198-.446.017-.445.016-.019.22-.018.218h-.303c-.462.002-.557.043-.598.264-.03.16-.068.198-.228.228-.22.041-.262.136-.263.598v.303l-.22.018-.218.018-.017.449-.017.448-.217.019-.216.017v4.356c0 2.396.021 4.377.047 4.402.026.026.228.058.45.07l.4.023.019.212.018.213h1.341l.018-.22.018-.218h.394c.58 0 .533.313.533-3.566V8.107l.218-.018.22-.018.016-.449.017-.448.216-.019c.204-.016.218-.03.235-.236L4.84 6.7h.402c.348 0 .413-.017.492-.13.068-.098.09-.106.09-.036 0 .115.169.164.566.165l.303.001.018.219c.017.207.03.22.236.237l.22.018v.302c.001.465.042.557.267.6l.196.037.016 3.43c.01 1.887.037 3.452.063 3.478.026.025.23.057.452.07.398.022.405.025.405.183 0 .261.103.299.767.28l.604-.017.018-.216.018-.216.449-.017.449-.017.015-3.252.015-3.252h.162c.27 0 .303-.086.303-.767v-.626l.219-.018c.207-.017.22-.03.237-.237l.018-.219h.436c.397 0 .44-.012.488-.131.037-.09.054-.101.057-.036.004.116.17.165.566.166.295.001.3.004.338.203.032.173.066.207.236.239.179.034.2.06.217.25.016.2.03.214.235.231l.218.018.016 1.907.015 1.907.245.018c.205.015.26-.005.337-.124.31-.472 1.954-.504 2.1-.041.031.095.089.118.298.118h.259l-.015-2.815-.015-2.814-.22-.018-.218-.018v-.394c0-.433-.056-.533-.3-.533-.142 0-.162-.023-.178-.218-.017-.206-.03-.22-.233-.237-.203-.017-.217-.031-.234-.233l-.017-.216-.45-.017-.448-.017-.018-.216-.018-.217-.452-.017c-.45-.016-.452-.017-.452-.177 0-.298-.02-.301-1.776-.3-1.888 0-1.883 0-1.933.265l-.037.196-.446.017-.445.016-.019.22c-.017.212-.024.218-.247.218-.14 0-.23.027-.23.07 0 .055-.016.055-.07 0-.041-.04-.236-.07-.463-.07h-.394l-.018-.219-.018-.219-.452-.017c-.45-.016-.452-.017-.452-.177 0-.3-.016-.302-1.806-.294-.916.003-1.71.018-1.765.032zm83.067.934c-.058.015-.115.105-.134.212-.053.292-.005 10.35.049 10.403.027.027.644.049 1.37.049h1.323l.018-.215c.017-.202.031-.217.233-.234l.216-.018.016-1.152.016-1.152h1.004c1.214-.001 1.254-.01 1.302-.269l.037-.197h.624c.676 0 .763-.034.763-.3 0-.143.024-.162.219-.178.206-.017.22-.03.236-.234.018-.202.032-.216.234-.233.203-.017.217-.03.233-.237.017-.195.036-.218.179-.218.3 0 .3.002.3-2.1 0-2.103 0-2.1-.3-2.1-.143 0-.162-.024-.179-.22-.016-.205-.03-.219-.233-.236-.202-.017-.216-.03-.234-.233-.016-.203-.03-.217-.233-.233-.202-.017-.216-.032-.233-.234l-.018-.215-.685-.017-.686-.016v-.162c0-.307.052-.301-2.739-.294-1.429.003-2.643.018-2.698.033zm9.236.04c-.048.057-.062 1.504-.051 5.351l.015 5.273h2.742l.014-5.273c.011-3.847-.002-5.294-.05-5.352-.097-.115-2.574-.115-2.67 0zm4.175-.042c-.049.049-.053 1.923-.004 2.104.024.09.095.141.229.167.174.032.197.059.213.25.017.199.031.213.236.23l.219.018.001.303c.001.464.042.557.265.599.173.032.196.059.212.25.017.198.031.213.233.23.203.017.217.03.234.233.017.203.03.217.236.234l.219.018v.913l-.198.037c-.226.042-.267.134-.268.6l-.001.302-.219.018c-.206.017-.219.03-.236.237-.017.196-.036.219-.178.219-.244 0-.3.1-.3.533v.393l-.219.018c-.206.017-.219.03-.236.234-.017.202-.031.216-.234.233l-.215.018-.017.449-.017.448-.217.019-.216.018v.622c0 .342.022.644.049.67.081.082 3.01.096 3.106.016.046-.038.083-.141.083-.23 0-.137.029-.167.197-.199.226-.042.267-.133.268-.599l.001-.303.219-.018c.206-.017.22-.03.237-.23.015-.19.038-.217.212-.25.223-.042.264-.135.265-.602l.001-.307h.461l.017.452.018.453.218.018.219.018.001.302c.001.464.042.557.265.6.173.032.196.059.212.249.017.2.031.213.233.23.203.017.217.032.234.234l.018.215h2.741l.018-.215c.017-.202.031-.217.233-.234l.216-.018v-.875l-.219-.018-.219-.018-.001-.302c-.001-.464-.042-.557-.264-.6-.174-.032-.197-.059-.213-.249-.016-.2-.031-.214-.236-.23l-.219-.019-.001-.302c-.001-.464-.042-.557-.265-.6-.174-.032-.196-.059-.212-.249-.017-.2-.031-.214-.237-.23l-.218-.019-.001-.302c-.001-.466-.042-.558-.268-.6l-.198-.037v-.913l.219-.018c.207-.017.219-.03.236-.237.017-.196.036-.219.179-.219.243 0 .299-.1.299-.533v-.393l.219-.018c.206-.017.22-.03.237-.234.017-.202.031-.216.233-.233l.216-.018.016-.449.018-.448.216-.019.216-.018.016-.851c.021-1.084.159-.992-1.452-.973l-1.305.016-.018.216c-.017.202-.031.216-.234.233-.202.017-.216.031-.233.23-.016.19-.039.217-.212.25-.223.042-.264.135-.265.599l-.001.303-.219.018c-.207.017-.219.03-.237.237-.017.212-.025.218-.244.218s-.227-.006-.245-.218c-.017-.207-.029-.22-.236-.237l-.219-.018-.001-.303c-.001-.464-.042-.557-.265-.6-.174-.032-.196-.058-.212-.248-.017-.2-.032-.214-.233-.23-.203-.018-.217-.032-.234-.234l-.017-.216-1.346-.015c-.74-.01-1.363.002-1.385.024zm10.266 0c-.022.022-.04.126-.04.23 0 .18-.014.193-.219.21l-.218.018v9.741l.215.018c.203.017.217.032.234.234l.018.215h3.888c2.139 0 3.911-.022 3.938-.048.027-.027.049-.644.049-1.371v-1.322l-2.553-.016-2.552-.015v-1.399h4.2V8.1h-3.72l-.038-.202c-.032-.174-.066-.207-.24-.24l-.202-.038v-.919l2.552-.015 2.553-.015V4.396l-.216-.018c-.202-.017-.216-.031-.233-.233l-.018-.216-3.68-.015c-2.023-.008-3.697.003-3.718.024zm8.898.03c-.111.112-.102 10.508.009 10.6.057.048 1.079.062 3.718.051l3.64-.015.015-1.385.016-1.386h-4.189l-.038-.201c-.033-.174-.067-.208-.24-.24l-.201-.038-.015-3.713-.015-3.712-1.315-.015c-.973-.012-1.332.002-1.385.055zm-84.51.47c-.016.041-.022 2.345-.014 5.12l.016 5.046 1.538.016c1.087.01 1.562-.004 1.619-.051.065-.054.081-.439.087-2 .004-1.062.018-1.886.033-1.831.015.058.108.115.223.137.177.033.2.059.215.25.017.2.031.213.236.23l.22.018v.303c.001.466.042.557.268.6.167.031.198.062.198.194 0 .231.103.296.467.296.365 0 .466-.065.466-.3 0-.142.024-.16.219-.177.206-.017.22-.03.236-.234.018-.202.032-.216.234-.233l.216-.018.016-.449.018-.448.216-.018c.204-.017.217-.03.234-.237.017-.198.034-.219.187-.219.092 0 .189-.033.214-.073.027-.04.061.899.077 2.086l.03 2.158 1.384.016 1.386.016V4.367H43.87c-1.796 0-1.704-.03-1.704.533v.393l-.219.018c-.205.017-.22.031-.236.23-.016.191-.039.218-.212.25-.223.042-.264.135-.265.6v.302l-.22.018-.218.018-.018.452-.017.452h-.227c-.22 0-.228-.006-.246-.218-.016-.207-.03-.22-.234-.237l-.216-.018-.017-.449-.017-.449-.22-.018-.218-.018v-.302c-.002-.464-.043-.558-.266-.6-.173-.032-.196-.059-.212-.249-.016-.2-.031-.214-.233-.23-.202-.017-.216-.032-.233-.234l-.018-.215-1.591-.016c-1.242-.012-1.598 0-1.62.059zm14.944-.033c-.02.022-.038.23-.038.464v.424l-.22.018-.218.018-.017.449-.017.448-.216.019-.216.017-.018.446-.016.447-.196.036c-.24.045-.265.121-.266.833v.536l-.22.018-.218.018-.017.452c-.017.45-.017.452-.178.452-.245 0-.3.1-.3.53v.39l-.199.038c-.242.045-.267.12-.268.832v.536l-.22.018-.218.019-.017.452-.017.452h-.165c-.277 0-.301.086-.284 1l.017.837 1.385.016 1.385.016v-.231c0-.225.006-.232.219-.25l.219-.018.017-.452c.017-.45.017-.452.178-.452.205 0 .3-.097.3-.303v-.163h3.267v.396c0 .438.056.537.301.537.16 0 .161.002.178.452l.017.452h3.209v-1.341l-.22-.019-.218-.018-.001-.536c-.001-.712-.025-.787-.268-.832l-.198-.038v-.39c0-.43-.056-.53-.3-.53-.16 0-.161-.002-.179-.452l-.016-.452-.22-.018-.218-.018-.001-.536c-.001-.713-.025-.787-.268-.833l-.198-.037v-.39c0-.432-.056-.53-.3-.53-.16 0-.162-.002-.179-.453l-.016-.452-.22-.018-.218-.018-.001-.536c-.001-.713-.025-.787-.268-.833l-.198-.037v-.39c0-.226-.03-.42-.07-.46-.075-.076-3.083-.106-3.157-.032zm10.267 0c-.021.022-.039.126-.039.231v.193l-.452.016-.452.017-.018.22c-.018.212-.025.218-.248.218-.23 0-.23 0-.23.233v.234h-.233c-.233 0-.233 0-.233.23 0 .223-.006.23-.22.247-.206.017-.219.03-.236.237-.016.196-.035.219-.178.219-.266 0-.3.087-.3.77v.63h-.168c-.291 0-.302.055-.285 1.466l.016 1.305.217.018.217.018.016.682.017.682.218.018.22.018v.303c0 .464.042.557.265.599.173.032.196.059.212.25.017.198.032.213.23.23.19.015.218.038.25.212.042.223.135.264.599.265h.303l.018.22.018.218.679.017.68.016.036.196c.048.258.085.265 1.376.265 1.29 0 1.327-.007 1.375-.265l.037-.196.68-.017.679-.016.017-.216.018-.217.449-.016.449-.018.018-.218c.017-.213.024-.219.248-.219.229 0 .23-.001.23-.23 0-.223.006-.23.218-.248l.22-.018V8.596l-2.553-.015-2.552-.016V10.9H64.1v.933h-.63c-.376 0-.656.026-.694.064-.046.045-.074.045-.102 0-.023-.037-.222-.064-.467-.064h-.428l-.038-.201c-.032-.173-.066-.208-.234-.24-.166-.03-.202-.066-.233-.233s-.067-.202-.236-.234c-.178-.033-.2-.059-.216-.25-.017-.2-.031-.214-.237-.23l-.219-.019V8.574l.219-.018c.206-.017.22-.03.236-.234.018-.202.032-.216.234-.233.202-.017.217-.031.233-.234.017-.202.031-.216.234-.233.203-.017.216-.03.233-.237l.018-.218h1.847l.037.197c.043.227.134.267.603.268.296.001.306.007.306.165 0 .238.1.303.467.303.365 0 .467-.065.467-.3 0-.142.023-.162.218-.178.206-.017.22-.03.237-.233.017-.203.031-.217.233-.234.203-.016.217-.03.234-.236.016-.196.035-.219.178-.219.26 0 .3-.09.3-.7 0-.611-.039-.7-.304-.7-.14 0-.163-.023-.163-.163 0-.248-.098-.304-.537-.304-.395 0-.396 0-.396-.163 0-.09-.032-.195-.07-.233-.077-.076-4.95-.107-5.025-.032zm7.922.035c-.016.04-.021 2.343-.013 5.118l.015 5.046 1.539.016c1.086.01 1.562-.004 1.618-.051.11-.092.12-10.022.01-10.132-.102-.103-3.13-.1-3.17.003zm7.012-.035c-.022.022-.04.127-.04.234v.194h-.396c-.437 0-.537.056-.537.3 0 .143-.023.162-.219.178-.206.017-.22.03-.236.234-.017.202-.031.216-.233.233-.202.017-.217.031-.234.23-.016.19-.038.217-.212.25-.223.042-.264.135-.265.602 0 .299-.005.307-.168.307-.303 0-.302-.007-.285 2.398l.015 2.239.216.018.217.018.016.449.018.449.215.017c.202.017.216.031.233.234.017.203.03.216.237.233.213.018.219.025.219.248 0 .229 0 .23.23.23.223 0 .23.006.247.219.017.205.031.22.231.236.19.016.217.039.25.212.046.25.106.265 1.065.265l.77.001.018.22.018.218 1.071.016c1.162.017 1.233 0 1.233-.284v-.166l.685-.017.686-.016.018-.216.018-.217.448-.016.45-.018.017-.215c.017-.202.031-.216.233-.233l.216-.018v-1.808l-.216-.018c-.202-.017-.216-.032-.233-.234-.017-.203-.03-.216-.237-.233-.195-.016-.218-.036-.218-.178 0-.261-.091-.3-.7-.3-.61 0-.7.039-.7.3 0 .142-.024.162-.22.178-.206.017-.219.03-.236.237l-.018.218h-2.32l-.018-.218c-.016-.207-.03-.22-.233-.237-.202-.017-.216-.031-.233-.233-.017-.203-.031-.217-.234-.234l-.215-.018-.018-.696c-.01-.383-.01-1.01 0-1.394l.018-.696.215-.018c.203-.017.217-.031.234-.234.017-.202.03-.216.233-.233.203-.017.217-.03.233-.237l.019-.218h1.846l.037.197c.043.226.134.267.6.268l.303.001.018.22.018.218.604.016c.666.019.767-.019.767-.282 0-.148.022-.166.218-.183.206-.017.22-.03.237-.23.016-.192.038-.217.216-.251.25-.047.274-.153.25-1.112l-.017-.7-.216-.018c-.202-.017-.216-.03-.233-.233l-.018-.216-.449-.017-.448-.016-.018-.217-.018-.216-2.513-.015c-1.382-.009-2.53.002-2.552.024zm15.838 2.514l.019.218.448.018.449.016.018.217c.017.204.03.217.236.234.213.018.22.025.22.245 0 .219-.007.226-.22.244-.206.017-.219.03-.236.237l-.018.219h-.303c-.466.002-.557.043-.6.269l-.037.197h-.92V6.7h.926l.018.219zm-39.21 2.587v.46l-.365-.006c-.2-.004-.321-.018-.269-.032.12-.033.165-.194.166-.604V9l.234.022.233.023v.46z" fill="#FCFCFC"/><path fill-rule="evenodd" clip-rule="evenodd" d="M19.387 5.448c-.192.108-.393.251-.447.316-.068.085-.166.12-.335.12h-.239L18.36 8.99c-.004 1.708-.019 3.06-.034 3.005-.015-.059-.108-.115-.226-.137-.11-.02-.2-.061-.2-.09 0-.028-.112-.052-.25-.052-.203 0-.299-.041-.528-.23-.43-.356-.971-.395-1.326-.096-.1.084-.217.151-.261.151-.045 0-.174.082-.288.182-.166.146-.246.176-.41.157l-.205-.024.015 2.541.015 2.54.217.018.216.019.017.448.017.449.215.018c.203.017.217.03.234.233.016.202.031.216.23.233.19.016.217.039.25.212.05.267.029.265 2.166.265 2.005.001 2.01 0 2.01-.299 0-.142.023-.161.218-.177.206-.018.22-.03.237-.234.016-.203.03-.216.233-.233.203-.017.216-.03.233-.237.017-.195.036-.219.178-.219.306 0 .3.055.3-2.838v-2.698l-.153-.534c-.2-.696-.18-3.112.032-4.05.066-.29.12-.716.12-.948l.001-.424h-.222c-.178 0-.262-.04-.423-.207-.515-.532-1.011-.62-1.6-.286z" fill="#F44424"/></svg>