<svg width="748" height="224" viewBox="0 0 748 224" fill="none" xmlns="http://www.w3.org/2000/svg">
<path d="M219.67 0H5.631C4.311 0 3.045 0.524008 2.112 1.45801C1.178 2.39101 0.654007 3.657 0.654007 4.978V219.017C0.654007 220.337 1.178 221.603 2.112 222.536C3.045 223.47 4.311 223.994 5.631 223.994H219.67C220.991 223.994 222.257 223.47 223.19 222.536C224.124 221.603 224.648 220.337 224.648 219.017V4.978C224.648 3.657 224.124 2.39101 223.19 1.45801C222.257 0.524008 220.991 0 219.67 0ZM149.983 144.352C149.983 145.672 149.459 146.938 148.525 147.872C147.592 148.805 146.326 149.33 145.006 149.33H80.296C78.976 149.33 77.71 148.805 76.776 147.872C75.843 146.938 75.319 145.672 75.319 144.352V79.642C75.319 78.322 75.843 77.056 76.776 76.123C77.71 75.189 78.976 74.665 80.296 74.665H145.006C146.326 74.665 147.592 75.189 148.525 76.123C149.459 77.056 149.983 78.322 149.983 79.642V144.352Z" fill="white"/>
<path d="M667.783 74.673H603.074C600.325 74.673 598.096 76.901 598.096 79.65V144.36C598.096 147.109 600.325 149.338 603.074 149.338H667.783C670.532 149.338 672.761 147.109 672.761 144.36V79.65C672.761 76.901 670.532 74.673 667.783 74.673Z" fill="white"/>
<path d="M593.088 0.00601196H528.379C525.63 0.00601196 523.401 2.23401 523.401 4.98401V69.693C523.401 72.442 525.63 74.671 528.379 74.671H593.088C595.838 74.671 598.066 72.442 598.066 69.693V4.98401C598.066 2.23401 595.838 0.00601196 593.088 0.00601196Z" fill="white"/>
<path d="M742.418 0.00601196H677.708C674.959 0.00601196 672.73 2.23401 672.73 4.98401V69.693C672.73 72.442 674.959 74.671 677.708 74.671H742.418C745.167 74.671 747.395 72.442 747.395 69.693V4.98401C747.395 2.23401 745.167 0.00601196 742.418 0.00601196Z" fill="white"/>
<path d="M593.088 149.334H528.379C525.63 149.334 523.401 151.562 523.401 154.311V219.021C523.401 221.77 525.63 223.999 528.379 223.999H593.088C595.838 223.999 598.066 221.77 598.066 219.021V154.311C598.066 151.562 595.838 149.334 593.088 149.334Z" fill="white"/>
<path d="M742.418 149.334H677.708C674.959 149.334 672.73 151.562 672.73 154.311V219.021C672.73 221.77 674.959 223.999 677.708 223.999H742.418C745.167 223.999 747.395 221.77 747.395 219.021V154.311C747.395 151.562 745.167 149.334 742.418 149.334Z" fill="white"/>
<path d="M480.997 0.00601196H416.288C413.539 0.00601196 411.31 2.23401 411.31 4.98401V69.693C411.31 72.442 413.539 74.671 416.288 74.671H480.997C483.746 74.671 485.975 72.442 485.975 69.693V4.98401C485.975 2.23401 483.746 0.00601196 480.997 0.00601196Z" fill="white"/>
<path d="M480.997 149.334H416.288C413.539 149.334 411.31 151.562 411.31 154.311V219.021C411.31 221.77 413.539 223.999 416.288 223.999H480.997C483.746 223.999 485.975 221.77 485.975 219.021V154.311C485.975 151.562 483.746 149.334 480.997 149.334Z" fill="white"/>
<path d="M411.31 79.586C411.31 78.266 410.785 77 409.852 76.067C408.918 75.133 407.652 74.609 406.332 74.609H336.645V4.978C336.645 3.657 336.12 2.39101 335.187 1.45801C334.253 0.524008 332.987 0 331.667 0H266.958C265.637 0 264.371 0.524008 263.438 1.45801C262.504 2.39101 261.98 3.657 261.98 4.978V218.905C261.98 220.225 262.504 221.491 263.438 222.424C264.371 223.358 265.637 223.882 266.958 223.882H331.667C332.987 223.882 334.253 223.358 335.187 222.424C336.12 221.491 336.645 220.225 336.645 218.905V149.274H406.332C407.652 149.274 408.918 148.749 409.852 147.816C410.785 146.882 411.31 145.616 411.31 144.296V79.586Z" fill="white"/>
</svg>
