<svg xmlns="http://www.w3.org/2000/svg" xml:space="preserve" xmlns:vectornator="http://vectornator.io" viewBox="0 0 144 56" clip-rule="evenodd" stroke-linecap="round" stroke-linejoin="round"><g vectornator:layerName="Untitled" fill-rule="evenodd" fill="#fff"><path d="M120.615 33.231c-2.929 0-4.574-1.631-4.574-5.231 0-3.6 1.645-5.232 4.574-5.232 3.095 0 4.266 1.744 4.266 5.232 0 3.488-1.171 5.231-4.266 5.231zm.585-12.713c-2.51 0-4.211 1.04-5.159 2.869v-2.419h-2.788v18.82h2.788v-7.176c.948 1.829 2.649 2.87 5.159 2.87 4.49 0 6.498-3.348 6.498-7.482 0-4.135-2.008-7.482-6.498-7.482zm-17.486 12.713c-3.012 0-4.378-1.49-4.378-5.231 0-3.741 1.366-5.232 4.378-5.232s4.378 1.49 4.378 5.232c0 3.74-1.366 5.231-4.378 5.231zm0-12.713c-4.852 0-7.195 3.347-7.195 7.453 0 4.163 2.343 7.51 7.195 7.51s7.195-3.375 7.195-7.51c0-4.078-2.343-7.453-7.195-7.453zm35.582.449l-3.905 10.306-3.823-10.306h-2.872l5.271 14.064-.469 1.236a1.96 1.96 0 01-1.83 1.27h-2.778v2.25h2.398c3.374 0 3.742-.537 4.886-3.519l5.828-15.3h-2.706zM90.36 24.371v-3.403H87.6v14.064h2.788v-5.373c0-3.825.893-6.188 4.63-6.188h.697v-2.728h-.418c-2.593 0-4.1 1.547-4.936 3.628zm-9.395-6.581h-2.789v3.178h-2.65v2.165h2.65v7.763c0 2.813.837 4.135 4.21 4.135h2.761v-2.25h-3.203a.984.984 0 01-.98-.988v-8.66h4.463v-2.165h-4.462v-3.179zm-11.961 2.728c-2.677 0-4.212 1.519-5.048 3.6v-3.15h-2.789v14.063h2.789v-5.935c0-4.472 1.506-6.244 4.24-6.244 1.756 0 3.094.703 3.094 3.657v8.522h2.789v-8.775c0-3.685-1.366-5.738-5.075-5.738zM52.797 31.273l-3.823-10.306h-2.872l5.27 14.064-.468 1.236a1.96 1.96 0 01-1.83 1.27h-2.778v2.25h2.398c3.374 0 3.742-.537 4.886-3.519l5.828-15.3h-2.705l-3.906 10.305zm-11.74-4.483l-3.012-.45c-1.506-.224-1.924-.928-1.924-1.771 0-1.125.864-1.998 3.012-1.998 2.147 0 3.178 1.098 3.318 2.392h2.789c-.196-2.644-2.426-4.472-6.024-4.472-3.653 0-5.8 1.63-5.8 4.33 0 2.139 1.31 3.489 3.736 3.854l3.458.535c1.479.225 2.12.872 2.12 2.025 0 1.294-.614 2.166-3.095 2.166-2.706 0-3.849-1.35-3.96-3.067H33.08c0 2.87 1.869 5.148 6.47 5.148 4.044 0 5.912-1.49 5.912-4.388 0-2.165-.948-3.768-4.406-4.303zm-17.37-2.234a3.915 3.915 0 00-3.944 0l-5.915 3.445 5.915 3.445c1.22.71 2.724.71 3.944 0a3.984 3.984 0 001.971-3.445 3.984 3.984 0 00-1.971-3.445z"/><path d="M3.97 24.556a3.984 3.984 0 00-1.972 3.445c0 1.421.752 2.734 1.972 3.445 1.22.71 2.723.71 3.943 0l5.916-3.445-5.916-3.445a3.915 3.915 0 00-3.943 0zm6.445 13.389a3.938 3.938 0 003.415 1.989c1.41 0 2.711-.758 3.415-1.989a4.007 4.007 0 000-3.978l-3.415-5.966-3.415 5.966a4.008 4.008 0 000 3.978zm6.83-19.89a3.938 3.938 0 00-3.415-1.989c-1.409 0-2.71.759-3.415 1.99a4.007 4.007 0 000 3.977l3.415 5.966 3.415-5.966a4.007 4.007 0 000-3.978z"/></g></svg>