<svg width="108" height="16" viewBox="0 0 108 16" fill="none" xmlns="http://www.w3.org/2000/svg"><path fill-rule="evenodd" clip-rule="evenodd" d="M7.936 2.94h4.862V.5H.36v2.44h4.862v12.54h2.714V2.94zM107.532.5H96.445v14.98h11.195v-2.374h-8.584V9.104h7.514V6.729h-7.514V2.877h8.476V.5zM83.075 15.48h10.572v-2.375h-7.94V.5h-2.632v14.98-.001zm-3.732-2.035V7.108h-2.6v5.143a5.79 5.79 0 01-1.648.839c-.66.212-1.35.318-2.043.312-.787 0-1.495-.137-2.13-.41a4.94 4.94 0 01-1.636-1.135 4.97 4.97 0 01-1.06-1.717 6.12 6.12 0 01-.37-2.16 5.61 5.61 0 011.43-3.78 4.91 4.91 0 011.571-1.156 4.587 4.587 0 011.957-.42c.48 0 .92.04 1.32.118a5.575 5.575 0 012.064.83c.305.202.604.425.894.669l1.704-2.005a9.662 9.662 0 00-1.212-.873 7.72 7.72 0 00-1.322-.635c-.492-.18-1-.313-1.517-.398a10.841 10.841 0 00-1.823-.14c-1.15 0-2.209.208-3.177.623a7.595 7.595 0 00-4.127 4.18 7.933 7.933 0 00-.58 3.02c0 1.107.19 2.134.568 3.082a7.298 7.298 0 001.606 2.468 7.378 7.378 0 002.5 1.64c.975.394 2.06.59 3.254.59.67 0 1.31-.06 1.921-.182a9.451 9.451 0 003.2-1.261c.458-.287.877-.59 1.256-.905zm-17.414 0V7.108h-2.597v5.143a5.818 5.818 0 01-1.648.839c-.66.212-1.35.318-2.043.312-.786 0-1.496-.137-2.129-.41a4.937 4.937 0 01-1.638-1.135 4.97 4.97 0 01-1.06-1.717 6.116 6.116 0 01-.37-2.16 5.61 5.61 0 011.43-3.78c.441-.486.976-.88 1.572-1.156a4.586 4.586 0 011.955-.42c.48 0 .92.04 1.322.118.4.079.766.188 1.102.324.335.137.655.305.96.507.306.2.606.424.896.668l1.704-2.005a9.757 9.757 0 00-1.213-.873A7.7 7.7 0 0058.85.728 8.469 8.469 0 0057.335.33 10.854 10.854 0 0055.51.19c-1.15 0-2.209.208-3.177.623a7.759 7.759 0 00-2.5 1.694 7.59 7.59 0 00-1.628 2.488 7.931 7.931 0 00-.578 3.018c0 1.107.19 2.134.567 3.082a7.312 7.312 0 001.605 2.468 7.367 7.367 0 002.501 1.64c.975.394 2.06.59 3.253.59a9.8 9.8 0 001.922-.182 9.458 9.458 0 003.2-1.261c.439-.273.858-.575 1.255-.905zM24.04 2.704c2.908 0 5.287 2.386 5.287 5.305 0 2.918-2.379 5.306-5.287 5.306-2.906 0-5.285-2.388-5.285-5.306s2.38-5.305 5.285-5.305zm0-2.497c-4.275 0-7.772 3.51-7.772 7.802 0 4.29 3.497 7.803 7.772 7.803 4.276 0 7.774-3.512 7.774-7.803 0-4.292-3.498-7.802-7.774-7.802z" fill="#fff"/><path fill-rule="evenodd" clip-rule="evenodd" d="M37.454.19h-5.998a10.853 10.853 0 013.295 7.801 10.857 10.857 0 01-3.296 7.802h5.998c4.227 0 7.685-3.51 7.685-7.802 0-4.29-3.458-7.802-7.684-7.802" fill="#FFA852"/></svg>