<svg xmlns="http://www.w3.org/2000/svg" xml:space="preserve" viewBox="0 0 755.907 255.867"><defs><clipPath clipPathUnits="userSpaceOnUse" id="a"><path d="M0 191.9h566.93V0H0z"/></clipPath></defs><g clip-path="url(#a)" transform="matrix(1.33333 0 0 -1.33333 0 255.867)" fill="#fff"><path d="M57.852 106.166l.04-29.434-.034-18.092h23.319l.03 15.094.035 19.58.038 20.796 13.35-.021c2.544 5.62 6.428 10.222 11.65 13.76a47.304 47.304 0 0011.787 5.808H19.45l1.778-3.113 3.627-6.344 5.714-9.996 12.572-.02 14.712-.03zm210.218-9.555c-4.658 3.323-11.248 6.55-20.418 6.55l-31.36.041c-3.497-.136-6.24 1.716-6.236 3.604.003 1.895 1.121 5.011 6.255 5.011l48.691-.084.772 1.364a.12.12 0 00.01 0l.647 1.16-.009.003 9.554 16.551-57.883.011c-5.535.008-10.286-.528-14.258-1.61-3.292-.904-6.079-2.109-8.369-3.613-.42-.278-.575-.369-.96-.665l.011-.003c-.089-.065-.182-.123-.268-.189 7.063-5.852 11.048-14.143 11.891-24.713.115-1.448.174-2.936.172-4.466-.007-2.729-.04-3.952-.412-6.404-.64-2.426 3.063-3.767 8.181-3.566l18.456-.022 12.904-.018c2.673-.026 7.746-.274 7.746-3.716 0-3.08-2.358-4.442-4.715-4.996a13.642 13.642 0 00-3.05-.345l-28.998.038-4.886.013-13.827.021-24.34.045 13.981-18.875 54.43-.018c7.39-.017 12.143.52 16.115 1.606 3.8 1.04 6.94 2.514 9.442 4.422.112.086.232.172.344.261.57.451 1.097.93 1.601 1.433a17.702 17.702 0 013.982 6.09c1.17 2.986 1.762 6.333 1.766 10.051.015 6.698-2.308 11.705-6.962 15.028"/><path d="M201.644 102.49c-1.334 9.548-5.627 16.79-12.873 21.721-1.91 1.3-4.036 2.451-6.348 3.47-8.494 3.75-19.711 5.644-33.671 5.67-.582.002-1.144-.008-1.717-.014-.522-.005-1.052-.006-1.57-.016h.003c-.036-.002-.071 0-.107-.002l.005-.003-.007.003c-16.152-.334-28.395-3.322-36.712-8.958-5.302-3.595-9.013-8.436-11.162-14.515-1.459-4.122-2.209-8.812-2.217-14.083-.008-3.907.39-7.49 1.168-10.773 1.344-5.659 3.85-10.389 7.535-14.185a29.31 29.31 0 014.515-3.792c8.37-5.74 20.811-8.777 37.322-9.109v-.029h.127l2.672-.002h.018l10.045-.019 4.51-5.242 22.275.006-21.964 31.01h-22.805l5.526-6.71-.37-.012c-4.47.073-8.349.307-11.61.71-3.933.48-7.118 1.413-9.557 2.8-2.435 1.39-4.196 3.3-5.286 5.745-1.086 2.443-1.628 5.627-1.62 9.563.006 3.29.4 6.055 1.173 8.302.146.434.306.856.482 1.252 1.1 2.438 2.868 4.328 5.31 5.67 2.443 1.341 5.628 2.245 9.562 2.712 3.934.467 8.74.695 14.42.685 5.68-.009 10.488-.256 14.417-.739 3.933-.479 7.116-1.396 9.553-2.747 2.438-1.352 4.201-3.249 5.291-5.689 1.085-2.444 1.63-5.628 1.62-9.56-.008-3.043-.342-5.629-1-7.777-.192-.63-.41-1.224-.66-1.778-1.094-2.439-2.863-4.347-5.307-5.725-.069-.04-.143-.076-.215-.115l27.003-.045c.097.234.175.482.265.723-.09-.24.2.484.403 1.104 1.327 4.004 2.003 8.521 2.012 13.568a49.069 49.069 0 01-.454 6.924"/><path d="M140.192 92.564l-1.779 1.233-2.636.246-.395-.599-.532.166-.262.92-.79.053.328.873-.659.058-.663-.488-.458.615.397 1.043 1.78.248.327-.86.463.057v.803l1.253 1.594 1.585.802 2.041.857-1.449 3.015-.66-.368-.526 1.347-1.255-.057-.328-2.4-.463-.06-1.915 1.904.397.986 1.981.367.386 5.325-1.572-.157-.73-1.251-1.049-.24-1.38 1.204-1.875-.071-1.299-1.553-1.187-1.042-3.233 1.657-1.78-.983.658-.924h-.729l-.194-.675.988-.121-.988-.736.325-1.048.862-.182-1.386-1.046 2.177.982 1.184.614 1.916-1.106 1.52-2.397v-2.155l.92-1.593 1.515-2.213 1.85-.615.793-.367.922-1.106.644.091-.709-1.077.591-2.212 1.256-1.043-1.52-5.715.531-1.23 1.516-.367-.923.92 1.253 2.213 2.704 2.152.198.98 1.322.189 1.318 2.517-2.309 1.044zm28.82-1.759l-.133-1.113-.888.34.162.603-.974.088-1.265-1.25-1.34-.515.326-1.932-.122-.387.488-.3 1.99.522.767-.475.365.217.247-.782 1.016-.301.727.47.408 2.32-1.096 1.163zm-4.912 1.723l1.053-.218.492 1.591-.287.261-1.422-.947zm-14.805 16.229l.905.58-.757 1.483-.387-.013-.36-1.67zm20.153-24.297l.551.584-.996.229zm.78 6.907l-.366.82-1.662.855-.855-.084 1.096-1.205.627-.044.267.26zm-.893 11.361h-.283l-.042-1.55-.729-1.636-.935-.73-.04-.644 1.704 1.075.084 1.12.567.56-.448.388.243.899zm4.468-15.913l.142-1.37-1.434-1.42.926-.102.828 1.326.646.93-.415.047zm-27.381 16.863v-1.253l.82.38.233.385-.888 1.81-.525-.383.034-.484-.494-.632-.035-.66h.593zm7.591-13.228l-.036-1.396.53-.239.525 1.672-.132.694z"/><path d="M154.672 99.577l.16.667-.36.973 1.018.591v-.52l-.395-.177.332-.52.159-1.08zm-1.187.595l-.721.21-.986-.176-.23.451.525.98 1.712-.947zm19.87 5.14l1.46.858-.407 1.207-2.832.423-1.937-.253-.958 1.36-1.573-.438-3.466.52-2.166 1.46-.031-1.708-3.561.004-4.366-.895-3.117.612-1.252-.733-.492-1.287-.593-.49-.033-1.077.329-.209.689.417.33-1.113.59.242.397 1.117-.396.45.36.836.428.56.256-.044-.238-.654-.28-.208.104-.267-.02-.043.034-.007.244-.623.69.207.238-.298-.765-.26.166-.66-.493.174-.364-.976-1.281.036-.23.697-.295-.42.099-.453-.462-.036-.557-.799-1.02-.35.267-.593.423-.732-1.345.104.066-1.394 1.05-.172.69 1.148.987.528.427-.528.588-.834.43.526-.82.586-.034.558.392-.207.66-.559-.035-.553.495-.665.232.84.264-.143.357-.663 1.114-.196-.182-.648-.418-.264-1.612.441-.408-.603-1.054.732-.161.73-2.598-.473-1.338-1.725-.248-2.324 1.385-1.418 2.475.173.727-2.41-.282-1.379 1.176-3.01 1.342.256 1.34 2.67.729.602-.201 1.85 1.299 1.248.405 1.507-1.3-.645-1.327 3.22.274.051 1.3-2.715 2.516 1.595-.853.69-.652-.348-.405 1.037.285.168.567-.51 1.95-.39.808-1.033.738-1.936.566.597v.734l1.584 1.163.568-1.292.467.13.098-1.293.488-.948-1.053.563.77-1.16.853-.86 2.03-.39-1.1.47-.81.304-.288 1.38-.646.773.027.776.745-.818.732.644-.69 1.073.32.565 1.505.083.689 1.336-.484 1.462.607.69.447-.644.162-.819.527.298-.204.906.452.688.73.131.849 2.494-.73.557 1.013 1.04 1.34-.09 1.097.947.853.127-1.381-1.768.042-1.545 1.055 1.377-.038.992zm-31.8 5.519l-1.587.391-1.96-1.899 2.522-5.945 1.188-.272.098 1.938.803.444.049.737.832 1.42-.58 1.072zm311.689 14.855c-1.558 0-2.794 1.18-2.794 2.577 0 1.451 1.236 2.637 2.794 2.637 1.505 0 2.74-1.186 2.74-2.637 0-1.397-1.235-2.577-2.74-2.577M292.9 120.58h4.515V92.914H292.9zm2.257 5.34c-1.488 0-2.667 1.129-2.667 2.463 0 1.387 1.179 2.517 2.667 2.517 1.437 0 2.621-1.13 2.621-2.517 0-1.334-1.184-2.463-2.621-2.463m24.157-33.006v19.866c0 2.567-1.078 5.387-5.802 5.387-2.566 0-3.796-.357-5.233-.974v-24.28h-4.516v26.23c2.463 1.18 5.697 1.952 10.112 1.952 7.7 0 9.956-4.26 9.956-8.214V92.914zm18.909-.256c-5.027 0-6.877 3.596-6.877 6.979v18.12h-3.18v2.823h3.18v5.59l4.52 2.163v-7.753h4.822v-2.823h-4.822V99.742c0-2.205.971-4.003 3.487-4.003.462 0 .872.106 1.335.203v-2.873c-.514-.155-1.335-.411-2.465-.411m16.993 25.51c-4.003 0-6.979-3.231-6.874-10.726l13.24 2c0 6.263-2.413 8.726-6.365 8.726m-6.721-13.14c.514-6.261 3.437-9.34 8.416-9.34 3.133 0 5.39.77 6.826 1.592l1.178-2.977c-1.693-1.026-4.615-1.9-8.364-1.9-7.236 0-12.318 4.57-12.318 14.423 0 9.396 4.62 14.27 11.138 14.27 6.623 0 10.626-4.311 10.52-13.551zm37.013 12.574c-1.026.565-2.358.773-3.951.773-5.596 0-8.01-4.672-8.01-11.96 0-7.132 2.313-11.136 7.6-11.136 1.744 0 3.284.46 4.36 1.13zm-6.263-34.732c-3.64 0-6.722.767-8.571 1.898l1.389 3.027c1.54-.874 3.952-1.64 6.414-1.64 5.083 0 7.03 3.08 7.03 7.238v.394c-1.228-.718-3.13-1.177-5.543-1.177-6.62 0-10.88 5.235-10.88 13.652 0 8.775 4.26 14.833 12.574 14.833 3.85 0 6.624-.926 8.213-1.953v-25.24c0-6.98-4.002-11.032-10.626-11.032m27.548 34.732c-2.261.67-4.827.466-6.316-.51V92.913h-4.515v26.18c2.72 1.386 5.334 2.105 11.905 1.95zm18.422-8.982c-6.979-.871-11.136-2.357-11.136-7.953 0-4.005 2.462-5.646 6.568-5.646 1.744 0 3.437.308 4.568.92zm-4.928-16.216c-7.185 0-10.519 3.13-10.519 8.16 0 7.339 6.876 9.493 15.447 10.369v1.69c0 4.26-2.566 5.496-6.108 5.496-2.669 0-5.134-.978-6.674-1.745l-1.075 2.666c1.59.875 4.672 2.056 8.468 2.056 5.13 0 9.65-2.211 9.65-8.982V94.35c-2.106-1.178-5.338-1.947-9.188-1.947m22.639.255c-5.027 0-6.876 3.596-6.876 6.979v18.12h-3.184v2.823h3.184v5.59l4.515 2.163v-7.753h4.822v-2.823h-4.822V99.742c0-2.205.973-4.003 3.49-4.003.461 0 .872.106 1.332.203v-2.873c-.51-.155-1.332-.411-2.46-.411m7.907 27.922h4.52V92.914h-4.52zm20.617-2.359c-5.287 0-6.311-5.905-6.311-11.498 0-5.593 1.127-11.189 6.31-11.189 5.287 0 6.263 5.645 6.263 11.19 0 5.544-.976 11.497-6.262 11.497m0-25.817c-7.546 0-10.831 6.21-10.831 14.32 0 8.262 3.335 14.371 10.78 14.371 7.595 0 10.828-6.109 10.828-14.372 0-8.109-3.284-14.319-10.777-14.319m31.344.51v19.866c0 2.567-1.081 5.388-5.803 5.388-2.564 0-3.798-.358-5.236-.975v-24.28h-4.515v26.23c2.463 1.18 5.697 1.953 10.115 1.953 7.698 0 9.955-4.261 9.955-8.215V92.914zM302.476 65.87l-2.812 7.013-2.834-7.012zm.537-1.363h-6.72l-1.737-4.28H292.9l5.957 14.476h1.612l5.937-14.476h-1.675zm13.039-3.609a7.028 7.028 0 00-2.75 2.707c-.654 1.154-.983 2.437-.983 3.859 0 1.433.324 2.722.973 3.866a7.01 7.01 0 002.72 2.7c1.162.655 2.505.982 4.022.982.854 0 1.77-.142 2.75-.425a10.176 10.176 0 002.667-1.19l-1.406-2.77a7.103 7.103 0 01-1.82.932 5.843 5.843 0 01-1.883.33c-.909 0-1.704-.192-2.387-.578a4 4 0 01-1.572-1.583c-.366-.67-.547-1.424-.547-2.264 0-.855.184-1.617.557-2.287a4.006 4.006 0 011.614-1.582c.703-.383 1.542-.576 2.522-.576.523 0 1.107.102 1.748.309a7.838 7.838 0 011.81.846l1.364-2.646a10.468 10.468 0 00-2.585-1.21 9.626 9.626 0 00-2.812-.402c-1.489 0-2.824.326-4.002.982m17.856 2.739c.414.468.621 1.055.621 1.758 0 .69-.207 1.27-.621 1.737-.413.468-.93.705-1.55.705-.606 0-1.116-.237-1.531-.705-.412-.468-.619-1.047-.619-1.737 0-.703.207-1.29.619-1.758.415-.468.925-.703 1.531-.703.62 0 1.137.235 1.55.703m-4.371-3.008a5.184 5.184 0 00-1.997 1.964c-.483.834-.724 1.77-.724 2.802 0 1.021.238 1.948.713 2.782a5.124 5.124 0 001.986 1.965c.848.475 1.796.713 2.843.713s1.996-.238 2.844-.713a5.218 5.218 0 001.996-1.965c.482-.834.723-1.76.723-2.782 0-1.033-.241-1.968-.723-2.802a5.202 5.202 0 00-1.996-1.964c-.848-.475-1.797-.714-2.844-.714-1.034 0-1.975.24-2.821.714m16.945 3.111c.414.455.621 1.02.621 1.696 0 .677-.207 1.242-.62 1.695a1.983 1.983 0 01-1.53.685c-.62 0-1.135-.225-1.54-.672-.408-.449-.61-1.018-.61-1.708 0-.688.202-1.258.61-1.706.405-.446.92-.67 1.54-.67.606 0 1.116.225 1.53.68m3.93 6.806v-9.762c0-1.007-.225-1.903-.674-2.688-.447-.786-1.086-1.402-1.913-1.852-.826-.447-1.792-.672-2.894-.672-.925 0-1.755.094-2.492.28-.738.186-1.555.495-2.45.92l.908 2.44c.732-.4 1.366-.68 1.904-.838a6.169 6.169 0 011.757-.238c.83 0 1.458.228 1.891.683.435.455.653 1.07.653 1.84v.538a4.25 4.25 0 00-1.292-.848 3.987 3.987 0 00-1.562-.31c-.938 0-1.772.221-2.502.661-.732.441-1.304 1.062-1.718 1.862-.413.8-.619 1.724-.619 2.77 0 1.023.206 1.953.62 2.793.413.84.99 1.506 1.727 1.996a4.415 4.415 0 002.492.734c.592 0 1.161-.128 1.708-.383a4.134 4.134 0 001.374-1.023l.435 1.096zm10.815-.209a3.791 3.791 0 001.53-1.478c.374-.64.559-1.38.559-2.223v-6.41h-3.31v5.666c0 .703-.167 1.255-.506 1.655-.337.397-.795.6-1.375.6-.606 0-1.09-.208-1.447-.622-.36-.413-.537-.972-.537-1.675v-5.624h-3.31v10.32h2.627l.393-1.18c.812.993 1.883 1.49 3.205 1.49.8 0 1.523-.173 2.17-.519m4.467.208h3.309V60.226h-3.309zm.291 1.768a1.585 1.585 0 00-.539 1.23c0 .51.18.932.539 1.262.357.332.812.497 1.364.497.55 0 1.01-.165 1.376-.497a1.63 1.63 0 00.547-1.262c0-.496-.183-.906-.547-1.23-.366-.323-.826-.486-1.376-.486-.552 0-1.007.163-1.364.486m13.917-9.606v-2.482h-8.81v1.82l4.528 5.999h-4.3v2.502h8.542v-1.82l-4.55-6.02zm7.382.093c.374.38.559.846.559 1.396v.247a4.602 4.602 0 01-1.428.209c-.634 0-1.13-.1-1.488-.3-.358-.2-.54-.493-.54-.881 0-.33.147-.62.436-.867a1.56 1.56 0 011.055-.373c.565 0 1.034.19 1.406.569m1.294 7.517a4.133 4.133 0 001.676-1.52c.404-.655.609-1.41.609-2.264v-6.307h-2.628l-.308.889c-.828-.8-1.801-1.2-2.917-1.2-.716 0-1.362.145-1.934.435a3.253 3.253 0 00-1.334 1.2c-.317.51-.475 1.087-.475 1.737 0 1.062.413 1.87 1.24 2.429.827.559 1.993.837 3.495.837a7.19 7.19 0 001.84-.226v.455c0 .456-.21.837-.63 1.147-.42.31-.913.465-1.478.465a5.06 5.06 0 01-1.531-.216c-.454-.145-.98-.39-1.57-.734l-.83 2.234c.788.439 1.504.746 2.152.917.648.175 1.379.26 2.19.26.912 0 1.723-.18 2.433-.538m13.017.02a3.797 3.797 0 001.53-1.478c.373-.64.559-1.38.559-2.223v-6.41h-3.311v5.666c0 .703-.167 1.255-.505 1.655-.337.397-.797.6-1.375.6-.608 0-1.09-.208-1.447-.622-.36-.413-.537-.972-.537-1.675v-5.624h-3.31v10.32h2.627l.393-1.18c.812.993 1.88 1.49 3.205 1.49.8 0 1.523-.173 2.17-.519m6.081-9.459c-.663.64-.993 1.492-.993 2.552v4.614h-1.655v2.502h1.656v3.039h3.31v-3.04h2.356v-2.501h-2.356v-4.262c0-.386.102-.69.309-.911.206-.218.497-.33.869-.33.304 0 .654.062 1.054.188l.33-2.36a3.67 3.67 0 00-1.012-.35 6.507 6.507 0 00-1.221-.102c-1.103 0-1.983.318-2.647.96m15.097.104a6.92 6.92 0 00-2.668 2.688c-.636 1.136-.951 2.41-.951 3.815 0 1.42.313 2.695.94 3.826a6.776 6.776 0 002.646 2.658c1.138.641 2.431.961 3.878.961.827 0 1.676-.132 2.545-.392a9.181 9.181 0 002.398-1.118l-.683-1.324a7.047 7.047 0 01-1.974.994 7.024 7.024 0 01-2.161.352c-1.172 0-2.206-.257-3.101-.765a5.312 5.312 0 01-2.08-2.12c-.49-.904-.732-1.927-.732-3.072 0-1.13.246-2.154.743-3.072a5.434 5.434 0 012.108-2.159c.91-.525 1.966-.787 3.166-.787.689 0 1.392.114 2.109.341a7.215 7.215 0 011.985.983l.663-1.282a8.7 8.7 0 00-4.944-1.51c-1.447 0-2.743.327-3.887.983m17.227.972c.523.337.933.804 1.228 1.396.297.592.446 1.253.446 1.985 0 .73-.149 1.389-.446 1.975a3.486 3.486 0 01-1.228 1.386 3.18 3.18 0 01-1.758.505 3.18 3.18 0 01-1.759-.505 3.506 3.506 0 01-1.23-1.386c-.297-.586-.446-1.245-.446-1.975 0-.732.149-1.393.446-1.985a3.475 3.475 0 011.23-1.396 3.165 3.165 0 011.759-.507c.647 0 1.235.168 1.758.507m-4.334-1.262a4.863 4.863 0 00-1.799 1.913c-.434.814-.651 1.723-.651 2.73s.217 1.913.651 2.72a4.901 4.901 0 001.799 1.902c.765.462 1.624.693 2.576.693.951 0 1.808-.231 2.573-.693a4.879 4.879 0 001.801-1.912c.433-.814.649-1.718.649-2.71 0-1.007-.216-1.916-.649-2.73a4.861 4.861 0 00-1.801-1.913c-.765-.461-1.622-.693-2.573-.693-.952 0-1.811.232-2.576.693m23.679 9.461a3.49 3.49 0 001.346-1.416c.322-.614.485-1.334.485-2.16v-6.35h-1.573v6.038c0 .965-.236 1.717-.713 2.254-.476.538-1.12.807-1.934.807-.8 0-1.45-.304-1.953-.91-.504-.605-.755-1.406-.755-2.399v-5.79h-1.573v6.038c0 .965-.236 1.717-.713 2.254-.476.538-1.12.807-1.934.807-.8 0-1.45-.304-1.953-.91-.504-.605-.755-1.406-.755-2.399v-5.79h-1.572V70.42h1.26l.167-1.384c.358.522.816.923 1.375 1.198.558.277 1.196.415 1.912.415.759 0 1.432-.178 2.017-.529a3.373 3.373 0 001.334-1.498 3.655 3.655 0 001.448 1.498c.62.351 1.336.53 2.15.53.716 0 1.362-.167 1.934-.498m11.571-8.199c.51.337.913.804 1.21 1.396.295.592.443 1.253.443 1.985 0 .73-.148 1.393-.443 1.985a3.515 3.515 0 01-1.21 1.396 3.018 3.018 0 01-1.696.507 3.05 3.05 0 01-1.717-.507 3.437 3.437 0 01-1.199-1.396c-.29-.592-.435-1.255-.435-1.985 0-.732.144-1.393.435-1.985.29-.592.69-1.06 1.2-1.396a3.035 3.035 0 011.716-.507c.62 0 1.184.168 1.696.507m.971 8.003c.703-.463 1.26-1.097 1.665-1.902.406-.807.611-1.713.611-2.72 0-1.007-.202-1.916-.6-2.73-.4-.814-.954-1.451-1.665-1.913a4.26 4.26 0 00-2.368-.693c-1.668 0-2.889.572-3.66 1.717v-5.833h-1.572V70.42h1.262l.227-1.612c.76 1.226 2 1.84 3.723 1.84.883 0 1.674-.231 2.377-.693m9.388-8.23c.443.268.787.622 1.035 1.065.249.44.373.91.373 1.407v.536a7.571 7.571 0 01-2.089.291c-1.007 0-1.791-.166-2.348-.497-.558-.33-.837-.772-.837-1.324 0-.55.223-1.003.673-1.354.446-.352 1.008-.527 1.685-.527.565 0 1.067.135 1.508.403m1.748 7.931c.75-.662 1.128-1.545 1.128-2.647v-6.784h-1.262l-.166 1.242a3.683 3.683 0 00-1.344-1.098c-.523-.246-1.171-.37-1.945-.37-1.047 0-1.911.29-2.594.867-.683.58-1.023 1.33-1.023 2.255 0 .978.406 1.75 1.221 2.315.812.566 1.928.85 3.349.85.828 0 1.593-.09 2.296-.269v.805c0 .717-.259 1.297-.777 1.737-.517.441-1.175.663-1.975.663a4.996 4.996 0 01-1.622-.249 5.551 5.551 0 01-1.479-.785l-.414 1.324c.564.4 1.141.69 1.728.867.584.18 1.243.27 1.975.27 1.186 0 2.154-.332 2.904-.993m11.22.465a3.761 3.761 0 001.428-1.478c.344-.636.515-1.364.515-2.193v-6.223h-1.571v5.912c0 .98-.256 1.755-.765 2.329-.511.569-1.2.856-2.068.856-.87 0-1.574-.327-2.12-.982-.547-.654-.817-1.478-.817-2.471v-5.644h-1.57v10.194h1.26l.164-1.468c.373.537.85.953 1.438 1.25.586.299 1.259.445 2.017.445.787 0 1.483-.176 2.089-.527m7.548-9.813l-4.178 10.113h1.654l3.247-8.375 3.163 8.375h1.636l-5.75-14.54h-1.53z"/></g></svg>