<svg width="140" height="46" viewBox="0 0 140 46" fill="none" xmlns="http://www.w3.org/2000/svg"><path fill-rule="evenodd" clip-rule="evenodd" d="M107.904 9.192c0 5.573.008 6.112.094 6.112.093 0 .466-.2 1.53-.826.921-.54.999-.585 1.19-.676.102-.049.222-.123.265-.164.044-.041.173-.123.287-.18.113-.057.339-.184.502-.28.162-.098.521-.302.797-.454.276-.152.511-.298.522-.325.011-.026.057-.047.103-.047.205 0 .005-.172-.625-.534a434.02 434.02 0 01-1.476-.853l-1.329-.77c-1.145-.659-1.597-.926-1.644-.971-.039-.037.991-.663 2.559-1.553 2.398-1.36 2.673-1.553 2.407-1.687a8.377 8.377 0 01-.428-.244 9.198 9.198 0 00-.502-.283 1.77 1.77 0 01-.321-.207c-.063-.057-.148-.104-.188-.104-.04 0-.108-.034-.151-.076a1.517 1.517 0 00-.285-.18 20.281 20.281 0 01-.738-.416c-1.25-.733-2.003-1.159-2.048-1.159a.05.05 0 01-.035-.015.05.05 0 01-.014-.035c0-.058-.265-.186-.387-.186-.074 0-.085.807-.085 6.113zm10.666-6.07c-.1.1-.036 9.065.064 9.027.055-.021.341-.18.635-.353.786-.464 1.575-.923 2.366-1.377.227-.13.806-.463 1.285-.743l.871-.508v6.087c0 5.772-.006 6.084-.104 6.047-.099-.037-.855-.47-3.351-1.922-1.746-1.015-1.727-1.004-1.827-1.004-.11 0-.145 9.056-.035 9.124.031.019.157-.016.28-.077.355-.178.808-.443.883-.516.037-.037.157-.103.265-.147a.965.965 0 00.227-.116c.029-.036.985-.58 1.329-.756a.841.841 0 00.209-.138c.017-.025.128-.087.247-.136.118-.05.231-.116.251-.148.02-.032.148-.112.284-.178.166-.081.328-.17.485-.268.155-.096.313-.187.473-.274a1.62 1.62 0 00.266-.164 1.47 1.47 0 01.28-.148c.138-.061.251-.13.251-.152 0-.023.12-.09.266-.151.146-.06.266-.127.266-.148 0-.02.106-.085.236-.144.13-.059.236-.124.236-.145 0-.02.12-.087.266-.147.146-.06.266-.128.266-.151 0-.023.119-.09.265-.15.146-.061.266-.128.266-.15 0-.022.082-.074.182-.116a1 1 0 00.252-.142c.037-.037.188-.126.334-.198.146-.072.505-.276.797-.453.293-.177.651-.377.796-.444.145-.068.277-.144.295-.17.017-.025.244-.162.504-.303.26-.142.486-.274.502-.295a.918.918 0 01.227-.116c.108-.044.228-.11.267-.145.079-.071.271-.185.717-.424.162-.087.308-.174.325-.195.031-.038.36-.223.708-.399.114-.057.22-.121.236-.143.017-.022.163-.111.325-.199.163-.087.402-.223.532-.302.13-.078.329-.19.443-.247.114-.058.22-.119.236-.137.033-.035.517-.317 1.299-.756.147-.082.28-.164.296-.182a1.4 1.4 0 01.236-.137c.17-.088.337-.181.502-.28.175-.104.353-.204.532-.302.13-.07.249-.146.265-.168.07-.05.146-.09.227-.119.108-.043.23-.113.272-.154.041-.041.169-.123.284-.183.115-.06.44-.24.722-.403.282-.163.637-.363.789-.446.381-.208.365-.325-.079-.566-.728-.395-.827-.452-.856-.49a.876.876 0 00-.227-.12 1.077 1.077 0 01-.266-.148 4.947 4.947 0 00-.541-.326 5.841 5.841 0 01-.502-.293 1.71 1.71 0 00-.266-.151 2.095 2.095 0 01-.265-.148 2.185 2.185 0 00-.266-.148 1.746 1.746 0 01-.266-.15c-.033-.037-.387-.238-1.063-.604-.243-.132-.473-.271-.511-.31a1.056 1.056 0 00-.267-.15 1.264 1.264 0 01-.311-.186c-.063-.058-.147-.105-.188-.105-.04 0-.111-.038-.157-.084a1.108 1.108 0 00-.285-.168 4.809 4.809 0 01-.555-.314 8.706 8.706 0 00-.561-.336c-.149-.078-.297-.16-.443-.245a81.44 81.44 0 00-1.034-.596 30.974 30.974 0 01-.501-.293c-.13-.077-.33-.19-.443-.252-.365-.194-.797-.452-.827-.492a1.69 1.69 0 00-.296-.168 7.634 7.634 0 01-.483-.259c-.51-.3-1.024-.594-1.542-.88a1.837 1.837 0 01-.26-.162 1.783 1.783 0 00-.295-.165 1.251 1.251 0 01-.254-.142 2.86 2.86 0 00-.355-.213 15.805 15.805 0 01-.531-.302 7.912 7.912 0 00-.414-.23 1.233 1.233 0 01-.236-.14 1.772 1.772 0 00-.266-.163 25.902 25.902 0 01-.59-.332 13.354 13.354 0 00-.503-.278.862.862 0 01-.177-.11 6.2 6.2 0 00-.531-.312 36.807 36.807 0 01-.798-.451 64.448 64.448 0 00-1.003-.571c-.39-.218-.723-.414-.739-.436a1.66 1.66 0 00-.295-.174 1.634 1.634 0 01-.295-.175c-.047-.065-.221-.117-.26-.078zM94.615 39.519c0 5.63.01 6.378.089 6.378.048 0 .088-.024.088-.053 0-.029.1-.097.222-.151.121-.054.487-.255.812-.446.701-.412 1.349-.786 2.867-1.653.332-.19.662-.38.991-.574.119-.073.323-.188.453-.258.13-.069.358-.196.507-.282.149-.086.388-.22.532-.297.143-.078.274-.162.29-.187.017-.025.143-.09.281-.146.137-.055.25-.122.25-.148 0-.026.093-.079.207-.116.113-.038.226-.101.251-.141.024-.04.133-.109.242-.153.108-.044.228-.108.267-.144.085-.078.442-.28.805-.455.146-.07.279-.148.295-.17.017-.024.123-.09.237-.148.114-.058.22-.122.236-.143.016-.02.143-.087.28-.148.139-.061.252-.131.252-.157 0-.025.089-.075.199-.11.497-.165.482-.332-.052-.606a1.327 1.327 0 01-.266-.165c-.016-.024-.149-.104-.295-.177a1.687 1.687 0 01-.295-.174 1.188 1.188 0 00-.236-.143c-.349-.175-.678-.36-.709-.399a2.704 2.704 0 00-.346-.207 23.984 23.984 0 01-.59-.33 16.89 16.89 0 00-.452-.254c-.17-.094-.337-.192-.502-.295a6.5 6.5 0 00-.529-.294.92.92 0 01-.237-.14c-.017-.026-.244-.162-.504-.304a6.08 6.08 0 01-.502-.291 1.78 1.78 0 00-.266-.151 1.677 1.677 0 01-.265-.152 1.194 1.194 0 00-.207-.126c-.417-.214-1.305-.728-1.374-.794a.991.991 0 00-.28-.148c-.114-.04-.207-.092-.207-.113 0-.02-.106-.086-.236-.144-.13-.059-.236-.127-.236-.152 0-.025-.12-.091-.266-.147-.146-.056-.265-.124-.265-.152 0-.028-.027-.051-.06-.051-.034 0-.173-.073-.31-.161a6.847 6.847 0 00-.457-.268 25.577 25.577 0 01-.414-.22 1.332 1.332 0 00-.25-.116c-.025-.002-.045 2.867-.045 6.376z" fill="#fff"/><path fill-rule="evenodd" clip-rule="evenodd" d="M118.209 3.2a3.64 3.64 0 01-.354.21c-.097.049-.31.166-.472.26l-.562.325-.561.321c-.164.094-.33.183-.5.266a.866.866 0 00-.236.146.991.991 0 01-.25.16c-.383.194-1.788.986-1.819 1.026a.409.409 0 01-.141.08c-.062.022-.102.05-.089.061.065.057 1.144.69 2.829 1.658l2.377 1.371c.024.015.044-1.33.044-2.99 0-1.658-.02-3.015-.044-3.015a.886.886 0 00-.222.121zm-.369 6.403c-.323.192-.647.38-.973.566-.236.134-.788.451-1.227.706-.438.255-1.01.585-1.269.734-.927.53-1.005.578-1.06.63-.063.06.074.187.351.326.097.049.323.178.502.288.178.11.431.255.561.323.13.067.369.203.532.3.546.325.512.32.862.143.175-.089.452-.246.614-.349.336-.203.675-.4 1.019-.589l.723-.402v-1.5c0-.824-.02-1.499-.046-1.499-.025 0-.29.146-.589.323z" fill="#fff"/><path fill-rule="evenodd" clip-rule="evenodd" d="M112.008 6.895a99.24 99.24 0 01-1.388.812c-.805.43-2.537 1.48-2.5 1.517.047.045.499.311 1.644.971l1.329.769c2.322 1.347 2.178 1.28 2.403 1.122.069-.048.36-.224.648-.391.546-.32 1.094-.637 1.644-.952 1.256-.72 2.29-1.32 2.498-1.446l.195-.12-.224-.134c-.297-.179-1.46-.855-2.38-1.385-1.715-.986-2.34-1.35-2.45-1.427-.15-.104-.003-.173-1.419.664zm10.897 2.783c-.54.318-1.082.634-1.624.948l-1.329.768c-.309.18-.753.435-.988.568l-.426.242-.033 6.137.325.173c.178.096.856.484 1.506.863 2.177 1.272 3.247 1.886 3.351 1.925.098.037.104-.275.104-6.05 0-3.35-.007-6.088-.015-6.085-.008.003-.4.233-.871.51" fill="#fff"/><path fill-rule="evenodd" clip-rule="evenodd" d="M118.475 6.097v3.018l-.266-.156c-.146-.086-.265-.143-.265-.127 0 .017.122.102.272.19l.273.16-.155.08c-.084.045-.154.095-.154.111 0 .017.051.002.114-.031a.576.576 0 01.147-.062c.018 0 .04.671.049 1.492.009.82.029-.575.045-3.1.016-2.526.009-4.593-.015-4.593-.025 0-.045 1.358-.045 3.018zm-4.99.155c.032.031.165.116.295.19.13.072.183.088.118.034-.132-.11-.506-.312-.413-.224zm.561.338c0 .016.079.07.177.121.097.05.177.079.177.063 0-.017-.08-.071-.177-.122-.098-.05-.177-.078-.177-.062zm.413.236c0 .017.08.071.177.122.098.05.178.078.178.062 0-.017-.08-.07-.178-.122-.097-.05-.177-.078-.177-.062zm.62.359c.065.053.172.122.236.154l.119.058-.119-.096a1.499 1.499 0 00-.236-.154l-.118-.058.118.096zm.502.29c0 .017.08.072.177.122.098.05.178.078.178.063 0-.017-.08-.071-.178-.122-.097-.05-.177-.078-.177-.062m.414.236c0 .017.079.071.177.121.097.05.177.079.177.063 0-.017-.08-.071-.177-.122-.098-.05-.177-.078-.177-.062zm.62.359c.065.053.171.122.236.154l.118.058-.118-.096a1.566 1.566 0 00-.236-.154l-.118-.059.118.097zm.502.29c0 .017.08.072.177.122.098.05.177.078.177.062s-.079-.07-.177-.12c-.097-.052-.177-.08-.177-.063m.413.236c0 .017.08.071.177.121.098.05.178.079.178.062 0-.016-.08-.07-.178-.12-.097-.051-.177-.08-.177-.063zm-.31 1.307c-.221.12-.207.17.015.055.097-.05.177-.104.177-.12 0-.038-.006-.036-.192.065zm-.413.236c-.221.12-.207.17.014.055.098-.05.178-.104.178-.12 0-.038-.007-.036-.192.065zm-.591.354c-.221.12-.207.17.015.055.098-.05.177-.104.177-.12 0-.037-.006-.035-.192.066m-.531.295c-.221.12-.208.17.015.055.097-.05.177-.105.177-.12 0-.038-.007-.036-.192.065zm-.414.236c-.221.12-.207.17.015.055.097-.05.177-.104.177-.12 0-.038-.006-.036-.192.065zm-.635.384l-.147.121.192-.094c.105-.051.191-.106.191-.122 0-.058-.093-.02-.236.095zm-.915.527c-.098.065-.151.117-.118.117.059-.001.38-.231.325-.233a.947.947 0 00-.207.116zm-13.673.266c0 3.498-.039 3.248.468 2.932.149-.093.523-.312.832-.487.308-.175.604-.346.656-.378.052-.032.225-.132.384-.222.127-.071.252-.144.377-.218l.473-.28a5.66 5.66 0 00.413-.255 1.77 1.77 0 01.281-.143c.138-.06.251-.127.251-.148 0-.02.073-.069.162-.107.179-.078.75-.404.967-.553.167-.115.117-.2-.224-.377a1.71 1.71 0 01-.256-.152 1.126 1.126 0 00-.206-.125 14.1 14.1 0 01-.532-.297 32.751 32.751 0 00-.558-.319 1.922 1.922 0 01-.276-.176 1.21 1.21 0 00-.268-.145 1.297 1.297 0 01-.256-.132c-.095-.082-.514-.327-.739-.432a.926.926 0 01-.236-.14 1.517 1.517 0 00-.29-.186 30.479 30.479 0 01-1.045-.598c-.151-.09-.298-.163-.326-.163-.029 0-.052 1.372-.052 3.101zm17.984.363c-.259.15-.552.32-.649.38-.098.06-.423.243-.722.409-.3.166-.561.327-.58.357-.019.03-.113.056-.209.056-.164 0-.829.325-.872.426-.01.026-.038.046-.062.046-.036 0-.916.495-1.528.86-.285.17-.152.34.518.657.09.043 1.197.683 1.358.785.438.26.882.513 1.329.758a.99.99 0 01.206.13c.017.022.264.17.55.33.286.16.618.348.738.418.46.27.425.502.425-2.875 0-1.656-.006-3.01-.014-3.01-.009.001-.228.124-.488.273zm-89.063 2.385a31.2 31.2 0 01-.708.41 28.36 28.36 0 00-.768.445c-.13.08-.323.191-.428.246l-.192.1v5.625c0 3.093.016 5.666.035 5.718.047.12 2.314.142 2.433.022.05-.05.071-.387.071-1.137v-1.066l.272-.295c.127-.136.247-.28.36-.428.107-.157.185-.17.236-.037.02.054.14.246.267.429.127.182.285.418.351.523.066.106.144.192.174.192.029 0 .053.027.053.06 0 .034.107.214.237.4.13.185.36.524.512.75.495.746.32.68 1.803.68 1.538 0 1.494.03.98-.676a9.85 9.85 0 01-.451-.66c-.044-.081-.117-.162-.163-.18-.046-.017-.083-.06-.083-.094s-.073-.157-.163-.273a4.49 4.49 0 01-.221-.31 15.57 15.57 0 00-.413-.582c-.16-.215-.314-.433-.464-.655-.06-.095-.133-.173-.162-.173-.03 0-.054-.03-.054-.068 0-.037-.081-.177-.18-.31-.629-.843-.686-.945-.59-1.05a8.41 8.41 0 00.247-.295c.166-.209.789-.954.937-1.122.049-.055.161-.188.25-.296l.288-.343.34-.411c.117-.145.254-.306.303-.359.049-.052.168-.195.266-.318.097-.123.217-.265.265-.316.21-.22.472-.58.472-.649 0-.057-.326-.073-1.441-.073h-1.442l-.17.221c-.093.122-.209.279-.256.348-.047.07-.246.332-.44.583-.19.245-.377.491-.561.74-.183.25-.741.99-.869 1.15-.026.032-.153.2-.283.372l-.236.314-.016-3.636c-.016-4.041.014-3.774-.398-3.516zm32.043-.026c-.113.049-.22.111-.237.138-.017.028-.124.095-.238.149a8.66 8.66 0 00-.502.271c-.162.096-.389.222-.502.28a5.864 5.864 0 00-.462.27l-.255.163.023 4.884c.024 5.222.026 5.254.32 5.727.144.23.53.59.685.638.072.022.146.063.164.09.113.176 2.268.167 2.445-.01a.264.264 0 01.163-.055c.098 0 .106-.075.106-.953v-.953l-.369.037c-.463.047-.781-.037-.916-.243-.095-.145-.104-.53-.119-5.342-.009-2.851-.035-5.184-.06-5.182a1.532 1.532 0 00-.246.091zm15.383.023c-.13.064-.343.182-.473.263-.13.081-.356.205-.502.276-.103.045-.202.1-.295.164a1.58 1.58 0 01-.265.155c-.13.065-.269.15-.31.188a.607.607 0 01-.194.107c-.117.037-.118.084-.102 5.748l.014 5.71h2.422l.032-2.203.407-.433.406-.433.125.146c.069.08.165.22.214.31.049.089.115.162.146.162a.06.06 0 01.058.06c0 .034.107.213.237.399.13.186.362.524.514.752.151.227.417.606.59.841l.314.428h1.3c1.568 0 1.59-.022.858-.841-.05-.057-.093-.124-.093-.148 0-.024-.086-.156-.192-.293a12.71 12.71 0 01-.339-.464 4.642 4.642 0 00-.236-.317 2.091 2.091 0 01-.148-.195c-.276-.43-.47-.695-.512-.695-.027 0-.049-.028-.049-.062 0-.035-.086-.18-.192-.323a20.908 20.908 0 01-.34-.475 4.746 4.746 0 00-.235-.317 1.968 1.968 0 01-.148-.198 8.942 8.942 0 00-.226-.33c-.19-.265-.181-.301.156-.687.113-.13.52-.608.905-1.062.262-.31.525-.618.789-.926.486-.564.964-1.135 1.434-1.712l.106-.139-1.433-.015c-1.683-.02-1.496-.063-1.871.439-.166.222-.343.456-.394.521-.051.065-.25.33-.444.591-.192.26-.391.525-.441.59l-.444.575c-.194.25-.352.47-.352.487a.431.431 0 01-.09.134c-.05.057-.155.184-.235.281l-.144.177-.002-3.676c0-2.022-.022-3.676-.046-3.675-.024 0-.15.052-.28.115zM.04 15.226c-.022.021-.04.513-.04 1.092v1.054h3.072v10.1h2.54v-10.1h1.53c1.34 0 1.533-.012 1.564-.094.047-.121.047-1.876 0-1.998-.037-.097-8.569-.15-8.665-.054m40.591 2.146h3.013v10.1h2.599v-10.1h3.07v-2.185h-8.681l-.001 2.185zm-30.475.886h2.48v-1.95h-2.48v1.95zm3.84 0h2.48v-1.95h-2.48v1.95zm73.588-.532c-.048.032-.2.058-.335.058-.285.001-1.072.157-1.166.231-.035.028-.17.083-.3.124-.13.041-.276.107-.325.146a1.871 1.871 0 01-.31.172c-.121.056-.221.125-.221.154 0 .028-.051.069-.114.088-.59.187-1.766 1.867-1.955 2.79-.038.188-.1.405-.136.481-.089.187-.09 1.66-.001 1.845.037.078.1.297.138.485.088.432.503 1.327.77 1.661.238.3 1.123 1.148 1.233 1.183.068.022.124.062.124.09 0 .026.12.097.265.158.147.06.266.126.266.148 0 .022.14.085.31.141.171.056.337.121.37.146.346.263 3.278.262 3.278 0 0-.026.082-.062.182-.082 1.07-.214 2.775-1.907 3.04-3.02a.837.837 0 01.091-.24c.269-.345.262-3.156-.007-3.156-.025 0-.064-.098-.086-.218-.167-.892-1.318-2.212-2.423-2.78-.68-.349-.89-.42-1.417-.488-.25-.03-.5-.07-.746-.122-.27-.069-.413-.067-.525.005zm-35.397.474c-.256.024-.522.07-.591.104-.07.032-.293.106-.496.163-.203.058-.37.124-.37.148 0 .024-.059.058-.132.077-1.242.317-2.518 2.49-2.518 4.29 0 2.098 1.41 4.004 3.275 4.43.16.037.337.091.392.12.326.175 2.852.18 3.085.007.035-.026.249-.08.476-.122.228-.042.507-.121.62-.177a4.31 4.31 0 01.457-.18c.146-.047.264-.126.285-.192.035-.11-.141-.696-.21-.696-.019 0-.084-.147-.145-.325-.061-.179-.129-.325-.15-.325-.023 0-.076-.106-.119-.236-.075-.228-.237-.32-.322-.181-.019.03-.187.098-.373.15-.186.052-.391.12-.456.15-.35.161-1.557.262-2.133.177-.996-.147-1.775-.802-1.995-1.68l-.038-.152h6.378l.038-.152c.061-.243-.005-2.155-.076-2.2-.035-.022-.082-.16-.105-.305-.023-.147-.133-.46-.244-.697-.207-.442-.233-.482-.511-.793-.09-.1-.163-.198-.163-.217 0-.16-1.074-.838-1.506-.951a1.62 1.62 0 01-.36-.128c-.068-.051-1.109-.17-1.382-.158a20.67 20.67 0 00-.611.051zm15.414.002c-.254.028-.494.075-.531.104-.037.029-.19.082-.34.119-.26.063-.995.397-1.057.479a1.615 1.615 0 01-.245.17c-.507.308-1.333 1.4-1.478 1.952a3 3 0 01-.136.391c-.286.639-.245 2.619.068 3.218.04.071.066.15.078.23 0 .118.339.702.586 1.012.325.407.802.847 1.03.952.086.039.156.087.156.107 0 .02.133.088.296.151.162.063.295.133.295.156 0 .022.206.089.458.147.251.058.47.125.488.148.124.175 2.86.167 3.035-.008.032-.033.12-.059.197-.059.183 0 .922-.184.96-.24.016-.023.136-.072.266-.107.496-.134.582-.276.386-.645-.096-.189-.186-.38-.271-.573-.374-.853-.47-.987-.583-.804-.018.029-.213.1-.432.159-.22.058-.413.124-.429.147-.034.046-.67.152-1.24.206-1.468.14-2.839-.736-2.893-1.848 0-.008 1.427-.022 3.173-.03l3.175-.015.017-.945c.016-.907-.082-1.772-.221-1.949a1.41 1.41 0 01-.12-.286c-.175-.543-1.008-1.524-1.513-1.782a1.698 1.698 0 01-.26-.152c-.045-.054-.597-.231-.719-.231-.06 0-.108-.024-.108-.054 0-.114-1.41-.196-2.088-.12zm31.151.004c-.176.03-.349.077-.384.106a1.21 1.21 0 01-.306.117 1.135 1.135 0 00-.378.183c-.075.065-.162.118-.194.118s-.199.147-.372.327l-.314.327-.068-.253a1.371 1.371 0 00-.114-.312.858.858 0 01-.088-.251l-.04-.192h-1.881v9.036h2.476l.034-6.054.157-.298c.522-.994 1.991-1.195 2.454-.337.057.106.12.192.142.192.104 0 .131.567.164 3.485l.036 3.16 1.173.016c.816.01 1.199-.005 1.256-.052.067-.056.081-.576.081-2.973 0-3.101.022-3.367.301-3.669.062-.067.113-.147.114-.177.005-.102.54-.397.817-.45.673-.13 1.34.16 1.525.66.054.146.12.295.147.33.026.036.055 1.471.063 3.19l.015 3.125h2.422l.016-3.13c.015-2.945-.018-3.823-.154-4.014a2.75 2.75 0 01-.155-.401c-.06-.187-.131-.34-.155-.34-.026 0-.063-.054-.084-.12-.063-.197-.633-.801-.812-.859-.056-.018-.103-.054-.103-.08 0-.026-.126-.092-.28-.147a3.717 3.717 0 01-.389-.16c-.327-.178-2.012-.177-2.253.001-.099.05-.204.09-.312.117-.419.12-.933.509-1.279.968-.187.248-.247.27-.298.112-.079-.25-.981-1.066-1.183-1.071a.857.857 0 01-.228-.09c-.344-.179-.987-.236-1.569-.14zm-74.657.107c-.05.027-.262.081-.473.12-.55.1-1.05.433-1.346.894l-.128.2-.002-1.151h-2.363v4.513c0 2.482.017 4.555.036 4.607.047.12 2.313.142 2.433.022.053-.053.071-.677.072-2.436.002-2.489.02-2.708.274-3.192.39-.744.976-1.076 2.021-1.144l.568-.038v-2.42l-.502-.013c-.276-.007-.542.01-.59.038zm-14.765 3.89c0 2.474.037 3.225.172 3.408.024.032.09.185.147.34.057.153.128.28.158.28s.054.037.054.082c0 .11.66.78.82.83.069.023.125.062.125.088 0 .025.153.094.34.152.186.057.367.126.401.153.222.173 1.947.177 2.176.005.036-.027.193-.096.348-.154.17-.063.422-.237.633-.438.396-.377.39-.38.538.197.116.453.104.448 1.128.43l.903-.016.03-8.003h-2.422v2.33c0 1.366-.023 2.386-.057 2.466a3.403 3.403 0 00-.12.382c-.313 1.247-2.132 1.484-2.716.354l-.178-.345v-5.187h-2.48v2.646zm79.436-1.933c1.578.547 2.338 2.441 1.58 3.934-.169.333-.729 1.023-.83 1.023-.02 0-.163.08-.317.177-.153.097-.32.177-.371.177a.794.794 0 00-.269.098c-.2.109-1.307.145-1.377.045-.022-.032-.193-.105-.38-.162-.187-.058-.34-.128-.34-.157 0-.029-.056-.07-.126-.092-.331-.105-.964-.876-1.114-1.356a1.33 1.33 0 00-.138-.316c-.084-.106-.088-1.265-.004-1.373.036-.046.11-.223.165-.395.107-.338.141-.386.63-.896.697-.727 1.95-1.034 2.891-.707zm-35.333-.007c.67.127 1.227.752 1.34 1.505l.04.27h-2.04c-2.325 0-2.151.05-1.87-.553.44-.937 1.453-1.426 2.53-1.222zm15.534.005c.59.136 1.094.641 1.235 1.238.138.589.348.531-1.937.531H66.25l.038-.19c.219-1.092 1.505-1.849 2.68-1.579zm10.704 12.873c0 2.168.013 2.599.081 2.599.113 0 .421-.147.805-.385.178-.11.424-.245.546-.299.121-.053.221-.117.221-.14 0-.025.1-.09.222-.144a7.06 7.06 0 00.517-.273l.56-.325c.147-.083.4-.229.562-.322a9.38 9.38 0 01.417-.23c.067-.03.22-.123.342-.205.12-.083.251-.16.29-.173.135-.045-.062-.19-.803-.587a1.95 1.95 0 01-.253-.157 2.74 2.74 0 00-.32-.195 31.51 31.51 0 01-.508-.286c-.14-.081-.461-.266-.714-.41a4.789 4.789 0 01-.489-.3 1.292 1.292 0 00-.266-.15c-.102-.046-.2-.1-.295-.16-.15-.121-.761-.457-.834-.457-.068 0-.081.43-.081 2.599z" fill="#fff"/><path fill-rule="evenodd" clip-rule="evenodd" d="M134.244 3.134c0 3.361-.01 3.255.296 3.016.081-.063.179-.116.217-.117.038 0 .105-.035.148-.077.042-.042.184-.125.314-.186.13-.06.249-.127.266-.149.028-.037.962-.57 1.329-.758.097-.05.19-.11.206-.133.016-.023.126-.092.243-.153.217-.112.552-.3 1.086-.611.156-.091.314-.18.473-.267 1.091-.585 1.095-.536-.08-1.181a1.655 1.655 0 01-.245-.152 1.199 1.199 0 00-.207-.124 21.172 21.172 0 01-.703-.394c-.288-.167-.547-.304-.575-.304a.046.046 0 01-.019-.004.046.046 0 01-.017-.01.04.04 0 01-.011-.017.043.043 0 01-.004-.019c0-.028-.113-.1-.251-.161a1.575 1.575 0 01-.28-.146 2.904 2.904 0 00-.325-.2 96.621 96.621 0 00-.975-.542 1.508 1.508 0 01-.236-.148c-.041-.05-.357-.207-.517-.256L134.244 0v3.134zm-16.197 9.37c-.221.12-.207.169.015.054.097-.05.177-.104.177-.12 0-.038-.006-.035-.192.066zm-.546.32c-.098.064-.151.117-.118.117.059-.002.38-.232.324-.233a.995.995 0 00-.206.116zm-.487.27c-.139.083-.251.163-.251.178 0 .043.46-.204.501-.27.052-.085.031-.077-.25.092zm-1.019.587c-.102.058-.118.085-.052.086a.252.252 0 00.17-.087c.09-.108.071-.107-.118.001z" fill="#fff"/></svg>