<svg xmlns="http://www.w3.org/2000/svg" xml:space="preserve" xmlns:vectornator="http://vectornator.io" viewBox="0 0 144 56" clip-rule="evenodd" stroke-linecap="round" stroke-linejoin="round"><g vectornator:layerName="Untitled"><path d="M9.349 12.042c0 .094.346.108 2.624.108s2.625-.014 2.625-.108c0-.093-.347-.107-2.625-.107s-2.624.014-2.624.107m6.15-.014c0 .051.04.128.088.17.06.052.079.966.062 2.885l-.026 2.81.246-.021.246-.021.023-2.725c.028-3.22.031-3.191-.355-3.191-.178 0-.283.035-.283.093M1.12 13.775c-.03.027-.055.107-.055.18 0 .072-.055.131-.123.131-.202 0-.181 2.342.02 2.389.138.03.138.033 0 .041-.176.01-.196.295-.02.295.099 0 .123.108.123.538v.538h3.691v3.872h5.085V17.89l1.243-.02c1.11-.017 1.245-.033 1.264-.145.019-.115-.087-.125-1.269-.125-1.176 0-1.305-.013-1.465-.144-.097-.079-.233-.143-.303-.143-.07 0-.126-.045-.126-.1 0-.054-.083-.118-.185-.142-.288-.067-2.086-.051-1.962.018.126.07-.252.154-.673.15-.532-.005-.543-.037-.543-1.632V14.17l-.252-.22-.253-.222h-2.07c-1.14 0-2.097.022-2.127.048m42.92.064c0 .062-.037.092-.082.068-.26-.141-.05.393.264.671l.346.306.183-.417c.297-.678.276-.74-.26-.74-.354 0-.45.025-.45.112m2.07.706c0 .135.043.187.154.187.099 0 .154.05.154.143 0 .196.295.19.353-.007.025-.083.025-.133 0-.11-.026.022-.119-.04-.207-.137-.088-.098-.198-.157-.244-.132-.047.025-.113.006-.147-.043-.039-.054-.063-.017-.063.099m-2.809.27c0 .21.207.849.275.849.04 0 .023.056-.038.125-.105.119-.102.119.058 0 .187-.139.191-.15.219-.663.019-.356.017-.359-.247-.381-.176-.015-.267.009-.267.07m1.722 1.235c0 .054.074.116.164.136.122.028.165.003.165-.099 0-.089-.058-.136-.165-.136-.09 0-.164.044-.164.099m2.514.886c-.093.491-.063.88.072.925.112.038.112.051.001.124-.285.185-.154.965.146.865.197-.067.18-1.881-.019-2.026-.077-.057-.083-.074-.015-.043.076.034.095.024.057-.03-.107-.151-.191-.087-.242.185m-4.726.124a.441.441 0 01-.278.11c-.257.002-.374.09-.359.27.022.256.45.224.52-.038a.578.578 0 01.18-.286c.07-.048.108-.106.084-.127-.024-.02-.09.011-.147.071m-34.673.16a1.333 1.333 0 01-.369 0c-.102-.017-.019-.03.185-.03.202 0 .285.013.184.03m10.744-.003c-.151.053-.125.152.063.24.225.106.35.029.242-.148-.087-.143-.127-.155-.305-.092m2.415.12c-.032.074.006.144.104.19.2.094.473.093.509 0 .045-.119.896.054 1.069.216.22.207 14.027.223 14.167.016.071-.106.094-.109.162-.018.044.058.103.085.132.06.029-.026-.04-.099-.15-.163-.24-.137-.55-.149-6.414-.254-9.822-.177-9.522-.175-9.579-.047m-12.031.476c.131.073.237 2.687.128 3.192l-.05.236-1.167-.024c-.423-.01-.846-.018-1.27-.024-.178.003-.706 0-1.004-.004-.544-.008-.553-.038-.5-1.617.005-.119-.014-.55-.04-.96-.04-.582-.026-.757.06-.805.152-.084 3.69-.078 3.843.006m37.89 1.472c0 .313.277.365.362.068.065-.225.005-.319-.203-.319-.127 0-.16.05-.16.25m-3.142-.072c-.214.137-.163.575.067.575.125 0 .17-.055.19-.232.036-.332-.064-.466-.257-.343m-32.02.557l-.264.161-.002 2.165c-.001 2.161.04 2.532.284 2.532.079 0 .125.066.125.18v.179h1.845c1.72 0 2.147.046 1.723.189-.068.022-.123.083-.123.135 0 .052-.036.105-.079.118-.043.013-.087.144-.098.29-.012.146-.037.252-.058.234-.126-.11-.258.173-.258.558 0 .368-.03.455-.204.597-.16.13-.205.237-.205.488 0 .252-.034.33-.155.364-.252.07-.263 2.928-.013 3.064.12.066.168.168.168.358 0 .248.097.377.287.38.045 0 .094.077.109.17a.267.267 0 00.184.206c.087.02.158.097.158.171 0 .096.059.135.205.135.15 0 .205.038.205.143 0 .08.037.148.082.153.045.005.119.017.164.027.045.01.178.022.295.027.138.005.227.059.255.152.039.128.649.212 1.108.153.032-.004.037.04.011.099a.196.196 0 01-.166.106c-.065 0-.095-.033-.065-.075.082-.116-.882-.062-1.018.057-.097.084-.088.105.058.138.095.022.194.1.22.173.1.272.942.263.942-.01 0-.077.028-.141.062-.144.536-.045.723-.093.82-.214a.456.456 0 01.316-.14c.29 0 .27-.78-.024-.893-.099-.038-.197-.127-.218-.197-.021-.07-.095-.129-.163-.129-.07 0-.137-.072-.152-.16-.01-.099-.099-.176-.21-.185-.122-.015-.185-.072-.185-.168-.001-.086-.069-.161-.164-.183-.236-.054-.255-2.205-.02-2.355.157-.101.16-.107.174-.565.009-.271.037-.32.194-.34.154-.02.19-.075.21-.328.02-.243.057-.305.18-.305.127 0 .16-.062.18-.34.017-.233.062-.341.14-.341.062 0 .154-.064.204-.143a.954.954 0 01.235-.236c.088-.059.143-.19.143-.342 0-.216.026-.247.205-.247.154 0 .205-.038.205-.15-.001-.088.067-.166.164-.188.091-.02.164-.098.164-.172 0-.127.08-.135 1.233-.135 1.047 0 1.24-.018 1.283-.113.146-.333.041-.342-4.174-.367-5.911-.035-5.67-.024-5.975-.277l-.253-.211.027-2.062c.02-1.586.004-2.062-.073-2.062-.143 0-.035-.2.127-.238.108-.025.11-.034.013-.04-.068-.005-.243.064-.388.153m31.286.493c-.092.045-.142.157-.142.317 0 .2-.032.247-.164.247-.102 0-.164.048-.164.128 0 .07-.062.205-.137.299-.1.124-.105.153-.02.107a.592.592 0 01.293-.043c.12.014.195-.028.232-.128a.464.464 0 01.212-.222c.12-.056.158-.15.158-.39 0-.35-.058-.418-.268-.315m-27.86.982c-.002.53.014.594.141.573.12-.02.144-.105.145-.501 0-.263-.025-.463-.057-.446-.031.017-.095-.026-.142-.096-.063-.094-.085.025-.087.47m58.978.147c-.296.224-.232.42.151.469l.656.084c.205.027.328.08.328.144 0 .06.084.1.207.1.189 0 .204-.022.175-.255-.07-.552-1.044-.9-1.517-.542m9.296-.075l.246.055-.328.05c-.443.067-.62.058-.41-.02.148-.057.143-.063-.05-.067-.249-.006-.483.192-.483.41 0 .108-.038.141-.124.112-.09-.03-.11-.009-.073.077.03.065.02.109-.02.097a.107.107 0 00-.112.044c-.022.036.038.075.135.088.12.016.189-.021.218-.118.037-.125.113-.142.655-.142 1.093 0 1.329-.109.952-.438-.105-.092-.307-.161-.513-.176-.284-.022-.3-.017-.093.028m-50.27.279c-.046.106-.065.109-.13.018-.065-.09-.077-.087-.078.016a.213.213 0 01-.096.172c-.064.035-.073.019-.027-.05.037-.054-.013-.038-.11.037-.393.3-.143.706.268.434a.818.818 0 01.382-.105c.123 0 .236-.03.251-.069.017-.041 1.28-.086 3.185-.112a254.53 254.53 0 003.568-.064c.293-.014.586-.025.879-.031.383-.009.46-.03.42-.12-.025-.06-.089-.104-.14-.098-.086.004-.172 0-.257-.01-.09-.011.02-.042.246-.07l.41-.049-.472-.01c-.37-.01-.471.011-.471.095 0 .129-.175.142-.31.024-.178-.156-7.45-.164-7.518-.008m9.079-.076c-.198.07-.118.312.102.312.164 0 .205-.036.205-.18 0-.172-.087-.21-.307-.132m21.737.007a41.23 41.23 0 001.723 0c.46-.013.061-.024-.886-.024-.948 0-1.324.01-.837.024m36.992 0c-.239.134-.158.33.135.33 1.198 0 1.417-.023 1.305-.141-.068-.072-.121-.086-.14-.036-.037.096-.238.106-.276.013-.015-.036-.083-.076-.15-.09a.364.364 0 01-.184-.094c-.037-.044-.061-.037-.061.02-.001.07-.042.074-.16.018-.186-.087-.337-.093-.469-.02m4.462.023c-.135.07-.144.478-.144 6.984 0 7.207-.003 7.137.266 7.137.257 0 .385-.198.273-.423-.105-.213-.035-12.775.074-13.184l.062-.232h1.101c.834 0 1.098.021 1.088.089-.043.295.019.47.179.507.1.023.148.073.116.119-.042.059-.088.058-.173-.004-.099-.072-.115.252-.11 2.273.003 1.314.036 2.294.073 2.214.207-.437.251-.879.279-2.777.03-2.07.013-2.421-.121-2.421-.107 0-.394-.269-.339-.317.026-.023.012-.042-.031-.042a.339.339 0 00-.175.083c-.069.06-.124.061-.203.004-.108-.078-.459-.076-.607.005-.043.023-.13.014-.193-.02-.067-.036-.18-.031-.273.012-.11.051-.175.05-.212-.001-.034-.048-.097-.052-.174-.008-.16.088-.266.086-.203-.003.067-.094-.366-.09-.553.005m12.158-.007c-.127.07-.238 13.731-.114 14.014.027.063.147.116.266.119.195.004.2.011.053.067-.126.047-.133.062-.03.066.185.007.305-.146.25-.318-.06-.183-.026-12.225.037-13.247l.048-.771-.193.001a.79.79 0 00-.317.07m1.398-.005c-.065.037-.148.052-.184.033-.036-.02-.066-.003-.066.038 0 .04-.05.057-.112.036a.133.133 0 00-.161.074c-.044.1.369.11 4.028.106 2.352-.002 4.008-.03 3.914-.066a1.382 1.382 0 00-.37-.068c-.12-.003-.165-.028-.11-.059.052-.029-.17-.052-.492-.051-.323 0-.609-.026-.636-.06-.027-.032-.267-.027-.533.013s-.871.058-1.345.04a57.798 57.798 0 00-3.116-.03 2.41 2.41 0 01-.534-.03.434.434 0 00-.283.024m8.261-.014c.147.016.368.016.492 0 .123-.017.002-.03-.268-.03-.271 0-.372.014-.224.03m3.668.003c-.155.1-.263 2.356-.119 2.482.025.022.531.043 1.124.049.899.007 1.097.029 1.185.128.091.101.089.107-.016.038a.38.38 0 00-.284-.03c-.32.102.481.145 2.723.146 2.398 0 2.468.012 2.03.345-.112.086-.205.205-.205.264.001.06-.054.107-.121.108-.138 0-.246.292-.184.5.023.076 0 .154-.052.173-.051.018.012.029.141.023.152-.007.257-.062.298-.156a.912.912 0 01.237-.282c.095-.075.173-.196.173-.27 0-.073.074-.188.165-.255.09-.068.163-.181.163-.252 0-.071.091-.165.201-.21.239-.094.327-.258.207-.385-.145-.153-.807-.189-4.076-.221-3.053-.031-3.138-.036-3.225-.178-.1-.163-.065-1.1.056-1.498.143-.47-.076-.74-.421-.52m.882-.005a.77.77 0 00.287 0c.079-.018.014-.032-.144-.032-.157 0-.222.014-.143.032m2.998.028c-.025.067-.193.098-.535.1-.275.001-.456.026-.405.055.056.031.061.06.013.07-.173.037 6.856.09 7.379.057.548-.036.55-.037.399-.183-.152-.148-.52-.221-.52-.104 0 .035-.109.03-.242-.01-.152-.046-.826-.058-1.824-.032-2.565.068-2.698.068-3.48.008-.598-.046-.755-.038-.785.04m7.457-.035c-.027.024-.012.129.033.233.045.104.108.432.138.728.053.513.066.538.261.538.204 0 .205-.005.193-.61-.016-.847-.019-.86-.171-.808-.087.029-.111.016-.071-.04.061-.088-.287-.125-.383-.04m-119.209.08c.393.014 1.057.014 1.476.001.42-.013.099-.024-.713-.024-.812 0-1.155.01-.763.024m35.578.126c-.084.088-.078.108.03.108.074 0 .134-.049.134-.108 0-.06-.014-.108-.031-.108s-.077.049-.133.108m29.486-.05c-.066.057.04.158.166.158.065 0 .118-.044.118-.096 0-.09-.201-.135-.284-.062m45.105.086c-.131.049-.102.063.148.066.188.003.292-.023.262-.066-.06-.085-.185-.085-.41 0m-107.709.29c-.014.164.016.212.134.212.187 0 .197-.179.018-.32-.12-.095-.135-.084-.152.107m63.709-.077c0 .078.11.24.246.361.135.121.246.28.246.353 0 .073.071.149.158.169.105.024.178.125.214.295.038.176.1.26.194.26.077 0 .188.04.247.088.09.074.093.063.016-.068-.051-.087-.088-.184-.082-.215.042-.221-.03-.398-.173-.43-.115-.027-.164-.098-.164-.24 0-.196-.18-.427-.334-.427-.042 0-.076-.064-.076-.143 0-.112-.055-.143-.246-.143-.19 0-.246.032-.246.14m10.98-.08a.292.292 0 00-.003.093c.003.025-.106.148-.242.273-.287.263-.297.529-.02.563.148.019.185-.023.233-.268.033-.172.101-.291.166-.291.119 0 .251-.27.167-.342-.073-.064-.29-.085-.301-.028m-28.985.837c-.031.289-.036.553-.012.588.151.214-.474.379-1.434.379-.545 0-.86.034-1.04.112-.14.062-.294.093-.34.068-.045-.025-.129-.02-.185.012-.116.064-.158.073-.395.086-.133.007-.16.043-.124.17.025.089.025.123 0 .076s-.105-.066-.177-.042c-.087.03-.11.016-.072-.04.04-.056-.015-.083-.17-.081-.218.002-.222.008-.076.104.36.239 3.382.255 3.36.019-.006-.069.022-.125.062-.125s.073.04.074.089c0 .062.02.065.061.01.033-.043.22-.096.416-.119.454-.052.419.015.436-.81.017-.817-.016-.98-.198-1.004-.104-.013-.14.086-.186.508m-25.818-.348c-.088.078-.063.383.032.383.048 0 .063.034.033.076-.03.043.021.036.114-.015.093-.05.153-.106.132-.124-.02-.017.008-.078.06-.133.142-.15-.211-.326-.37-.187m26.824.01c-.226.04-.207.66.02.66.1 0 .168.05.173.125l.02.303c.008.114.07.188.171.205a.718.718 0 01.312.18l.154.155-.1-.18c-.055-.098-.091-.188-.08-.198.079-.071-.11-.586-.22-.605-.083-.013-.166-.146-.22-.347-.066-.25-.119-.319-.23-.299M25.724 24c-.166 4.455-.06 7.63.255 7.734.203.068.472-.103.375-.24-.02-.03 0-.054.049-.054.059 0 .086-.642.086-2.008 0-1.42-.026-2.008-.09-2.008-.051 0-.068-.052-.038-.12.028-.065.005-.148-.053-.184-.084-.051-.084-.072-.003-.101.056-.02.102-.09.101-.156-.001-.104-.012-.105-.082-.012-.186.248-.242-.148-.251-1.757-.01-1.985-.028-2.229-.17-2.383-.094-.1-.093-.109.005-.058.078.042.096.034.056-.022-.15-.212-.19.018-.24 1.37m33.02-1.323c-.07.039-.095.255-.083.698l.019.643h.839c.596 0 .851-.027.88-.09.021-.05.111-.09.2-.09.09 0 .184-.03.21-.068.03-.041-.282-.068-.793-.07-.965 0-1.06-.05-1.038-.54.025-.545-.007-.61-.235-.483m26.754.089c-.067.185.049.307.258.271.098-.016.151-.087.152-.204.001-.24-.328-.294-.41-.067m-52.647.564c-.113.16-.006 2.851.119 2.983.157.167.226-.257.237-1.47.011-1.299-.118-1.85-.356-1.513m12.065-.017c-.03.026-.055.125-.055.22 0 .27.442.204.466-.071.016-.193-.25-.29-.411-.15m54.582.039c-.053.047-.098.062-.098.034 0-.029-.11-.002-.246.059-.193.087-.246.159-.246.334 0 .148-.072.281-.214.396-.118.096-.194.192-.17.213.025.022.014.111-.023.198-.063.144-.048.156.169.128.207-.027.238-.06.238-.265 0-.177.042-.244.17-.274a.314.314 0 00.215-.187.216.216 0 01.202-.149c.133 0 .155-.045.139-.287a2.416 2.416 0 00-.028-.286.94.94 0 00-.108.086m42.828.094c-.028.099-.103.205-.166.236-.215.105-.184.62.04.647.115.015.173-.005.142-.049-.028-.04-.011-.094.037-.12a.113.113 0 00.048-.142c-.023-.052.049-.153.159-.225.281-.185.279-.527-.004-.527-.149 0-.218.048-.256.18m-13.567.109c-.047.078-.136.14-.197.14-.164 0-.216.333-.054.344.44.027.651-.06.622-.256a9.861 9.861 0 01-.035-.24c-.016-.124-.258-.115-.336.012m-84.168.284c.05.165.232.192.297.043.055-.125-.01-.186-.197-.186-.102 0-.13.04-.1.143m40.18.018c-.121.397-.068.547.174.491.327-.076.394-.652.076-.652-.138 0-.215.05-.25.161m6.33.117c.021.103.108.274.192.378.084.105.152.222.152.26 0 .04.068.087.151.106.087.02.172.124.2.241.037.164.09.207.259.207.143 0 .198-.031.17-.096a.707.707 0 01-.042-.237c0-.078-.03-.126-.065-.106-.134.072-.249-.072-.28-.35-.025-.23-.067-.291-.212-.31-.16-.02-.215-.087-.194-.237.003-.024-.079-.044-.182-.044-.159 0-.182.03-.15.188m34.216-.078c-.248.01-1.41.043-2.583.071l-2.133.052.003 1.519c.001 1.553.025 1.688.268 1.554.122-.068.142-.246.162-1.414l.022-1.337 3.258-.007c1.792-.005 3.36-.002 3.484.005.159.01.226-.021.226-.102 0-.064.054-.134.119-.155.499-.168-1.023-.268-2.826-.186m-51.86.278c-.098.086-.057.363.068.453.288.21.512-.152.241-.388-.14-.122-.223-.14-.308-.065m-29.334.204c-.086.197-.532.609-.659.609-.043 0-.079.11-.079.246 0 .183-.042.258-.164.291-.214.06-.797.52-2.008 1.584-1.087.956-1.274 1.182-1.115 1.35.123.13.311.076.378-.108a.236.236 0 01.21-.137c.09 0 .186-.056.215-.125a.6.6 0 01.203-.22c.082-.05.149-.14.149-.197 0-.057.077-.103.172-.103.098.001.184-.055.212-.137a.29.29 0 01.197-.172c.093-.024.156-.097.157-.181 0-.096.062-.153.184-.168.102-.013.185-.063.185-.111 0-.049.083-.14.185-.202.101-.062.184-.16.184-.216 0-.057.075-.104.167-.104.091 0 .19-.056.22-.125.03-.07.12-.168.202-.22.082-.05.149-.14.149-.197 0-.057.074-.103.164-.103.11 0 .164-.048.164-.143 0-.08.054-.144.12-.144.151 0 .29-.22.29-.461 0-.135.043-.184.16-.184.206 0 .278-.109.215-.327-.068-.237-.353-.234-.457.005m-7.217.209c-.293.045-.524.105-.513.133.012.028.025.56.03 1.18.006.622.028 1.068.05.992a.574.574 0 01.145-.23c.12-.105.085-.533-.05-.606a.092.092 0 01-.031-.137c.047-.067.078-.065.132.01.043.06.071-.105.072-.423v-.52h.99c.59 0 .97.028.942.067-.19.27.533.133.914-.172.286-.23.29-.24.125-.317-.219-.102-2.09-.087-2.806.023m47.117.398c-.067.266-.001.365.222.335.309-.041.251-.549-.062-.549-.058 0-.13.096-.16.214m57.245.002a.441.441 0 01-.202.213c-.167.078-.272.698-.127.745.192.061.37-.108.37-.351 0-.17.038-.25.12-.25.154 0 .304-.242.24-.388-.07-.16-.339-.14-.401.03m-63.847.254c0 .197.032.249.157.249.284 0 .259-.358-.032-.456-.098-.032-.126.013-.126.207m20.368-.051a.295.295 0 01-.2.178c-.106.025-.157.101-.159.24-.002.203-.2.507-.306.473-.03-.01-.056.055-.056.143 0 .113.055.169.182.185.14.018.183-.013.183-.133 0-.094.064-.17.164-.192.09-.02.164-.076.164-.124 0-.047.094-.158.21-.246.159-.12.204-.215.184-.388-.03-.271-.297-.37-.366-.136m-59.782.17a3.141 3.141 0 00-.338.377c-.063.092-.101.11-.103.046-.002-.076-.047-.067-.18.036-.099.075-.148.09-.11.035.041-.062-.015-.048-.142.036-.116.075-.197.15-.179.167.018.016-.01.073-.061.128-.15.158.03.254.371.198.166-.027.298-.091.298-.144 0-.053.074-.141.164-.196.09-.055.14-.12.113-.144-.028-.024.056-.064.185-.09.4-.076.417-.087.459-.278.029-.13.006-.185-.08-.185-.073 0-.102-.042-.073-.108.078-.177-.07-.122-.324.123m36.134.057c0 .249.359.324.428.09.06-.202-.017-.305-.23-.305-.165 0-.198.035-.198.215m9.185.645c0 .182.032.215.206.215.239 0 .3-.31.075-.386-.231-.078-.28-.048-.28.171m53.492-.046c-.101.044-.184.12-.184.17 0 .05-.001.106-.003.124-.002.019-.112.13-.246.246-.27.236-.304.377-.121.51a.284.284 0 00.429-.124.53.53 0 01.161-.199c.059-.04.12-.24.136-.448a4.13 4.13 0 00.021-.367 2.42 2.42 0 01-.193.088m-62.268.014c0 .103.26.462.335.462.047 0 .062.033.034.072-.029.04.04.072.16.072.169 0 .21-.035.21-.18 0-.104-.048-.179-.114-.179-.17 0-.548-.186-.487-.24.03-.026.01-.047-.042-.047-.053 0-.096.018-.096.04m18.371.355c0 .241.031.322.125.322.069 0 .165.077.214.171.061.118.136.16.244.135.225-.052.227-.592.001-.592a.405.405 0 01-.256-.108c-.082-.087-.08-.108.01-.109.089 0 .087-.015-.01-.07-.248-.14-.328-.08-.328.25m47.342-.126c-.056.017-.102.087-.102.156 0 .068-.093.194-.205.28-.113.086-.206.233-.206.327 0 .108-.057.185-.153.207-.161.037-.278.48-.169.635.14.198.363.026.363-.279 0-.266.023-.303.184-.303.124 0 .198-.054.232-.172a.32.32 0 01.207-.209c.121-.028.157-.1.157-.321 0-.282-.099-.385-.308-.321m-76.867 2.667c0 1.384.028 2.515.062 2.515s.057.369.052.819c-.009.744.005.822.144.854.15.034.153-.07.133-3.31l-.022-3.346-.184-.023-.185-.023v2.514m19.57-2.391c-.11.25-.056.389.154.389.18 0 .205-.032.205-.251 0-.271-.258-.37-.36-.138m-19.43.299c-.02.07-.038.013-.038-.126 0-.137.017-.194.038-.125.02.083.02.168 0 .251m32.731.251c-.167.168-.305.374-.307.458-.002.101-.052.15-.147.144-.097-.007-.135.032-.117.122.014.073-.01.113-.055.09-.047-.026-.075.053-.067.19.018.31.347.382.43.094.029-.101.086-.184.127-.184.04 0 .138-.12.216-.269.079-.148.189-.295.245-.326.109-.06.146-.624.041-.624-.034 0-.198.138-.366.305m-5.925-.165c-.172.242-.08 8.148.097 8.334.08.084.08.127 0 .206-.055.055-.017.04.084-.034l.185-.135.011-3.7c.006-2.034.027-3.629.046-3.542.02.093.106.165.214.179.117.014.18.073.18.166 0 .094.063.15.184.166.157.02.185-.01.185-.197 0-.121-.037-.22-.083-.22-.045 0-.14-.126-.21-.28-.071-.155-.2-.296-.287-.316-.092-.023-.156-.095-.158-.179 0-.078-.055-.16-.123-.183-.068-.023-.123-.09-.123-.147 0-.133-.136-.212-.202-.118m9.438.107c-.147.197-.218 5.264-.086 6.207.019.138.04.3.046.358a.446.446 0 00.103.209c.164.182.282-4.998.146-6.41l-.055-.57-.154.206m26.873.021c.215.015.547.015.738 0 .19-.015.013-.027-.392-.027-.406 0-.562.012-.346.027m-51.265.105c-.18.157-.122.416.093.416.264 0 .3-.051.204-.293-.092-.23-.149-.253-.297-.123m18.272.194c0 .272.008.28.287.28.266 0 .392-.086.208-.142-.044-.013-.093-.102-.11-.197-.056-.324-.385-.274-.385.059m14.763.18c0 .234.007.24.204.16.285-.115.285-.405.001-.405-.179 0-.205.032-.205.244m-29.525.007c0 .06.06.108.133.108.109 0 .115-.02.03-.108-.055-.06-.115-.107-.132-.107s-.031.048-.031.107m56.745.014c-.086.096-.162.2-.226.309-.144.256-.27.432-.504.705-.288.336-.293.744-.009.714.144-.015.221-.08.265-.226a.638.638 0 01.231-.31c.093-.056.169-.149.169-.206 0-.057.074-.168.164-.247.166-.145.209-.484.094-.74-.057-.125-.063-.125-.184 0m-53.435.059c-.073.167.03.322.214.322.13 0 .167-.046.167-.215 0-.236-.289-.317-.381-.107m-49.394.717c-.014.608-.014.61.194.61.194 0 .209-.024.208-.341-.003-1.053-.38-1.304-.402-.269m66.423-.545c0 .042-.088.095-.196.12-.135.029-.211.11-.245.258a.67.67 0 01-.228.341c-.211.15-.157.364.093.364.11 0 .166-.047.166-.139 0-.089.066-.146.185-.161.115-.014.194-.08.21-.177.013-.085.099-.171.19-.192.213-.048.187-.43-.031-.465-.08-.014-.144.01-.144.051m28.835.06c-.15.132-.045 1.229.116 1.218.09-.006.167-.028.17-.05.104-.613-.077-1.35-.286-1.167m-52.044.409c0 .215.161.541.269.541.043 0 .033-.049-.024-.108-.083-.088-.078-.107.031-.107.18 0 .183-.399.004-.459-.225-.075-.28-.048-.28.133m5.78-.03c-.07.099.037.643.127.643.127 0 .325-.316.325-.518 0-.207-.33-.298-.452-.125m13.085.28c-.138.225-.104.434.07.434.118 0 .152-.049.144-.209-.005-.114-.044-.19-.086-.167-.043.023-.053-.011-.024-.078.072-.164 0-.15-.104.02m43.65.12c-.313.298-.352.888-.058.888.139 0 .198-.1.234-.402.018-.15.075-.214.206-.23.142-.02.175-.065.155-.216-.033-.253-.294-.273-.537-.04m-99.258.064c-.043.098-.115.179-.161.179-.086 0-.163.051-.641.431-.148.118-.34.214-.425.214a.233.233 0 00-.206.139c-.028.076-.132.149-.231.161-.24.03-.257.358-.02.388.203.026.393-.106.338-.233-.031-.07.045-.096.285-.096.27 0 .343-.032.42-.18.052-.098.162-.179.245-.179.093 0 .15-.052.15-.135 0-.099.08-.149.297-.184.179-.03.31-.098.333-.172.02-.069.117-.155.216-.193.356-.137.273-.32-.144-.32-.327 0-.388.024-.456.18m52.297.083c-.12.105-.051.396.102.432a.29.29 0 01.197.172c.028.082.115.138.213.137.129 0 .172.045.172.18 0 .222.29.251.369.036.062-.172-.007-.288-.17-.288-.07 0-.143-.094-.17-.217-.068-.29-.547-.596-.713-.452m-59.59.258c-.109.049-.214.134-.235.188-.026.068-.002.082.075.044.092-.046.094-.038.01.04-.164.155-.118.283.104.283.137 0 .207-.041.211-.126.004-.069.014-.214.023-.322.01-.109.016-.197.014-.196l-.201.089m44.773.444c0 .28.028.339.194.394.15.05.186.105.157.238-.035.163.108.365.301.422.051.016.085.75.092 1.96.01 1.925.03 2.138.21 2.168.28.045.222-4.087-.062-4.437-.085-.104-.155-.238-.155-.296 0-.059-.07-.123-.158-.143-.115-.026-.165-.11-.185-.313-.042-.455-.394-.449-.394.007m4.31-.003c-.039.228-.097.324-.214.35-.088.02-.16.097-.162.17 0 .072-.074.212-.162.31-.161.181-.256 2.047-.11 2.175.19.166.368-.293.355-.918-.022-.985-.015-1.027.157-1.074.116-.033.156-.111.156-.308 0-.145.041-.276.092-.29.369-.108.482-.69.138-.714-.172-.013-.202.024-.25.3m-49.977-.028c-.216.203-.146.5.118.5.135 0 .195-.041.195-.132 0-.072.026-.154.057-.181.088-.077.103-.267.018-.222-.041.023-.075.006-.075-.035 0-.12-.144-.089-.313.07m66.635.045c-.03.027-.055.105-.055.175 0 .07-.074.147-.164.172a.213.213 0 00-.164.22c0 .201.12.232.2.05.047-.106.066-.108.138-.017.063.08.07.066.03-.056-.04-.128-.018-.161.11-.161.158 0 .26-.13.26-.329 0-.103-.255-.142-.355-.054m36.555.079c-.05.029-.081.111-.068.182.018.106 0 .114-.096.044s-.109-.064-.066.032c.034.078.008.117-.076.117-.176 0-.382.28-.382.518 0 .27.374.29.489.028.041-.095.117-.185.169-.2.053-.015.1-.192.108-.402l.013-.373-.091.054m-13.525.475c-.15.096-.263 3.241-.122 3.365.233.204 7.721.114 7.509-.09-.07-.068-.106-.142-.079-.166.205-.18-.466-.226-3.678-.256l-3.341-.03-.002-1.049c-.001-.577-.035-1.17-.074-1.318-.046-.175-.042-.269.012-.269.053 0 .05-.035-.008-.096-.05-.053-.067-.118-.037-.143.096-.084-.019-.05-.18.052m16.855.037c0 .03-.092.092-.205.137-.195.078-.301.479-.159.603.094.083.364-.038.364-.163 0-.072.074-.15.164-.176.111-.03.164-.108.164-.24 0-.144-.043-.198-.164-.206-.09-.006-.164.014-.164.045m-45.024.132c.002.096.118.207.265.254.105.034.144.126.144.336 0 .21.034.288.124.288.068 0 .204.081.301.18.25.25.313.225.313-.126 0-.228-.041-.329-.164-.395-.09-.05-.164-.133-.164-.185 0-.053-.092-.132-.205-.177-.113-.045-.205-.115-.205-.155 0-.04-.092-.074-.205-.074-.113 0-.204.025-.204.054m4.428.169c0 .043-.114.171-.252.285-.184.15-.239.245-.2.35.072.198.452.204.452.008 0-.076.074-.16.164-.184.122-.034.164-.109.164-.292 0-.198-.032-.246-.164-.246-.09 0-.164.035-.164.079m-61.038.38c-.263.173-.186.414.123.388.234-.02.269-.05.291-.255.03-.259-.143-.314-.414-.134m97.144.366c-.056.056-.103.133-.103.172 0 .038-.113.146-.251.241-.347.238-.399.735-.076.735.15 0 .211-.043.231-.162a.362.362 0 01.186-.236c.125-.059.246-.897.123-.854a2.021 2.021 0 00-.11.104m-97.972.012c-.172.152-.047.361.212.354.383-.01.461-.401.08-.401-.13 0-.261.021-.292.047m73.705.365l.088.275c.027.082-.007.405-.075.717-.068.312-.124.651-.124.754v.186l1.086.04c.598.02 1.759.043 2.581.05.821.005 1.707.04 1.968.078.261.038.607.068.768.069.566 0 .897.965.576 1.68-.085.191-.013.471.122.471.43 0 .567-2.477.146-2.644-.272-.108-1.432-.109-1.261 0 .097.06.088.063-.041.016-.09-.033-.526-.052-.968-.042-.592.014-.834-.007-.916-.079-.084-.073-.544-.109-1.82-.142-.94-.024-1.782-.056-1.872-.071-.184-.03-.186-.043-.092-.704.069-.486.022-.78-.125-.78-.045 0-.063.057-.041.126m27.664-.078c-.03.027-.055.107-.055.18 0 .083-.06.13-.164.13-.121 0-.164.049-.164.184 0 .102-.09.255-.205.349-.113.091-.205.221-.205.29 0 .068-.074.14-.164.161a.197.197 0 00-.164.206c0 .102-.073.202-.185.254-.632.29-.356.388 1.026.361a62.36 62.36 0 013.178.063c1.06.048 2.178.094 2.485.103.751.02.808.078.815.835.003.33-.022.738-.055.906-.073.366.087.473.366.246.172-.14.235-2.34.071-2.483-.101-.087-1.4-.136-1.457-.055-.04.056-.163.058-.423.006-.208-.04-.658-.05-1.04-.023-.561.04-.695.03-.806-.067-.105-.092-.312-.116-1.008-.116-1.762-.001-2.229-.063-2.229-.292 0-.137.052-.215.164-.246.09-.025.164-.089.164-.142 0-.054.085-.19.189-.3.317-.34.195-.838-.134-.55m-42.506.324c-.024.034-.087.039-.14.012-.053-.027-.032.015.047.094s.143.212.143.297c0 .084.065.183.144.22.204.095 1.496.1 1.496.005 0-.042.043-.053.095-.025.057.031.073.02.04-.027-.032-.044.018-.115.11-.158.09-.042.166-.052.167-.021.003.136.16-.176.161-.32.002-.247-.367-.221-.508.036-.149.271-1.154.308-1.197.043-.026-.16-.468-.283-.558-.156m-58.08.36c-.12.105-.13.32-.018.38.353.19.596.016.408-.292-.118-.192-.24-.22-.39-.088m-14.022.499c-.148.13-.127.486.033.54.156.052.408-.072.378-.186-.011-.043.02-.079.067-.079.049 0 .076-.072.062-.161-.03-.186-.374-.259-.54-.114m109.984.165a.679.679 0 00-.14.293c-.043.207-.13.33-.13.184 0-.049-.037-.068-.083-.043-.046.024-.066.069-.045.098.021.03-.037.1-.129.157-.381.235-.5.802-.176.842.137.017.195-.022.235-.163a.458.458 0 01.208-.258c.085-.04.154-.136.154-.213 0-.077.074-.18.164-.23.127-.069.164-.167.164-.43 0-.353-.051-.407-.222-.237m-116.938.276c-.032.071-.099.116-.15.099-.287-.096-.435.077-.45.526-.014.37.005.438.107.404.07-.023.17.015.229.086.16.194.39.246.442.099.03-.083.069-.164.114-.242.039-.064.096-.233.126-.375.03-.143.082-.245.115-.227.033.017.06-.014.06-.07 0-.055-.032-.084-.069-.064-.038.02-.068-.015-.068-.08 0-.063-.04-.094-.088-.068-.048.026-.137-.012-.2-.085-.106-.128-.113-.128-.168-.003m4.793-.04a.358.358 0 00-.003.1c.003.024-.103.063-.237.087-.142.025-.243.088-.243.152 0 .14.815.16.83.02l.02-.198c.017-.163-.339-.32-.367-.161m116.673.018c-.028.04-.125.071-.215.071s-.141-.032-.113-.071c.028-.04.124-.072.215-.072.09 0 .141.032.113.072m-25.547.071a.691.691 0 01-.287.07.687.687 0 01-.287-.07c-.088-.05-.008-.069.287-.069.294 0 .375.02.287.07m16.21.01c-.108.054-.177.054-.242-.003-.066-.058-.025-.079.152-.077.212.002.223.012.09.08m10.403-.01c-.028.039-.104.071-.169.071-.065 0-.118-.032-.118-.072 0-.039.076-.071.169-.071.093 0 .146.032.118.071M33 33.321c-.21.211-.248.523-.07.583.191.064.285-.007.285-.217 0-.121.054-.194.163-.22.09-.02.164-.085.164-.145 0-.088-.023-.09-.123-.019-.067.05-.123.063-.123.03 0-.032-.044-.02-.098.028-.054.047-.13.086-.169.086-.12 0 .029-.15.214-.216.118-.04.134-.063.047-.066-.07-.003-.201.068-.29.157m95.862.244c-.141.05-.129.24.016.24a.242.242 0 00.177-.083c.039-.055.022-.063-.05-.024-.079.042-.095.026-.057-.061.029-.066.045-.117.035-.114l-.121.042m-104.259.89c0 .042.056.125.123.184.107.094.123.094.123.003 0-.122.221-.214.348-.145.052.028.064.013.03-.036-.075-.104-.624-.11-.624-.006m106.158.162c-.122.122-.102.85.027.967.24.22.322-.056.216-.73-.054-.348-.094-.386-.243-.236m-107.716.043c-.71.036-.78.053-.78.183 0 .203 1.896.264 1.984.064.054-.124-.173-.327-.338-.3-.048.006-.438.03-.866.053m-5.531.14a.21.21 0 00.104.046c.03.001.13.038.22.083.204.1.778.092.78-.01 0-.042.036-.027.08.032.064.086.08.075.08-.058.002-.16-.019-.164-.656-.151-.362.008-.636.034-.608.057m6.9.412c.035.081.022.105-.042.07-.051-.027-.03.048.048.168.17.26.49.294.716.076.424-.41.503-.076.567 2.435.059 2.302.062 2.33.252 2.113.101-.116.118-.523.102-2.54l-.019-2.403-.839-.02c-.761-.019-.834-.01-.786.101m-1.9.23c-.023.02-.04.264-.036.544.004.279.026.467.048.418a.173.173 0 01.144-.09c.11 0 .294-.294.294-.469 0-.057.032-.104.072-.104.04 0 .089-.074.108-.164.034-.155-.481-.266-.63-.136m10.398.044c-.072.072-.1.755-.105 2.557-.003 1.352-.02 2.472-.039 2.488-.018.016-.875.04-1.904.054-1.03.014-1.946.03-2.036.036-.09.006-.746-.013-1.456-.043-1.267-.053-1.292-.052-1.292.092 0 .22.266.24 3.432.27 2.627.022 3.455-.01 3.603-.14.068-.059.109-4.668.045-5.112-.046-.323-.09-.359-.248-.202m31.489.168c-.21.03-.235.105-.074.222.142.103 1.51.095 1.583-.009.154-.217-.668-.333-1.509-.213m14.29-.004a.87.87 0 00-.266.108c-.072.051-.102.045-.102-.02 0-.05-.024-.071-.053-.046-.029.026-.01.091.042.146.107.113 1.487.141 1.487.03 0-.034.037-.043.082-.019.045.024.082-.001.082-.057 0-.141-.839-.235-1.271-.142m9.645.071c-.093.062-.1.089-.024.09.059.001.086.032.06.07-.028.039.221.064.604.062.586-.003.65-.017.64-.138-.011-.137-.04-.143-.87-.164-.154-.004-.338.032-.41.08m12.485-.071c-.143.015-.281.076-.307.135-.026.061-.011.088.034.064.045-.024.081-.015.081.02 0 .036.296.066.656.066.361 0 .657-.029.657-.065 0-.036.037-.045.083-.02.047.025.075.003.062-.05-.037-.154-.607-.223-1.266-.15m6.431-.004c-.124.018-.226.068-.226.11 0 .046-.048.04-.125-.016-.152-.11-.221-.068-.12.074.079.111 6.48.195 6.477.085-.006-.252-.1-.26-2.967-.273-1.548-.007-2.915.002-3.039.02m12.056-.003c-.079.02-.144.071-.144.113 0 .044-.06.033-.143-.024-.131-.089-.133-.086-.03.028.088.099.139.108.227.044.09-.065.104-.06.066.027-.042.097.325.11 3.238.11 3.175.002 3.286-.003 3.286-.135 0-.075-.01-.137-.021-.138-.357-.028-6.38-.052-6.479-.025m15.664.01c-1.622.019-1.833.048-1.599.217.213.154 6.862.093 7.042-.065.152-.132.142-.135-.481-.136-.649-.004-1.299-.01-1.948-.018-1.004-.01-2.009-.008-3.014.002m-21.467.099c0 .171 1.158.188 1.319.02.098-.104.039-.113-.605-.09-.392.013-.713.044-.714.07m12.549 0c-.002.137 1.081.19 1.309.064.196-.108.055-.15-.248-.073-.351.088-.598.087-.364-.002.115-.043.037-.058-.266-.048-.237.007-.431.034-.431.059M22.566 37.269c-.12.126-.133 6.02-.015 6.215.056.09.057.152.002.181-.116.063-.102.152.044.28.124.108 13.386.172 13.704.065.061-.02.112-.098.112-.173 0-.131-.197-.136-6.787-.153l-6.786-.019.03-2.294c.029-2.312-.04-4.195-.154-4.195-.033 0-.1.042-.15.093" fill="#96badb"/><path d="M9.185 14.582c0 2.258-.01 2.436-.144 2.466-.137.032-.137.034 0 .041.079.005.144.057.144.116 0 .06.056.108.126.108s.206.064.303.143c.16.131.29.144 1.467.144 1.249 0 1.292.005 1.261.143-.03.14.013.144 1.598.144h1.63l.05-.377c.029-.207.04-1.49.027-2.85l-.024-2.474-3.22-.019-3.218-.019v2.434m35.566-.12c-.173.455-.157.75.045.796.228.052.225 2.7-.002 2.7-.12 0-.153.066-.17.34-.013.226-.072.382-.178.468-.177.144-.18.154-.192.662-.007.307-.032.359-.17.359-.343 0-.565.291-.546.714.015.323-.01.401-.144.465a.47.47 0 00-.216.223c-.037.1-.112.142-.232.128a.59.59 0 00-.292.043c-.084.046-.1.035-.055-.038.033-.056.005-.043-.061.028-.079.084-.302.15-.642.188-.287.033-.447.067-.357.077.085.01.171.012.257.008.051-.006.115.039.14.099.04.089-.038.11-.42.119-.293.006-.586.017-.88.03-.225.013-1.83.041-3.567.065-1.905.026-3.168.07-3.185.112-.015.038-.128.07-.25.07a.818.818 0 00-.383.105.69.69 0 01-.303.107c-.123.002-.143.075-.143.498 0 .446.014.492.151.46.187-.043.257.352.257 1.447 0 1.38-.117 1.9-.327 1.444-.046-.1-.073.139-.076.689-.005.777.006.843.148.843.171 0 .254.284.256.878 0 .316-.015.34-.204.34-.15 0-.205-.038-.205-.143 0-.185-.123-.183-.273.004a.463.463 0 01-.283.158c-.128.008-.152.043-.106.15.106.25.007.477-.21.477-.207 0-.256-.133-.1-.27.073-.064.04-.075-.141-.046-.3.048-.328.074-.207.2.066.07.07.118.011.15-.047.025-.086.109-.086.185 0 .1-.057.14-.205.14s-.205-.04-.205-.14c0-.093-.052-.135-.158-.128-.087.006-.141.034-.12.063.062.089-.336.237-.726.27-.034.004-.062.055-.062.114 0 .07-.08.107-.237.107-.137 0-.258.046-.285.109-.058.132-.475.28-.893.316-.034.003-.061.054-.061.113 0 .074-.086.108-.275.108a.785.785 0 00-.497.179.797.797 0 01-.47.18c-.185 0-.262.038-.295.15-.038.127-.09.145-.322.112-.153-.022-.261-.017-.242.011.096.135-.178.302-.383.234-.305-.101-.336-.671-.284-5.227.044-3.88.055-4.07.247-3.888.082.077.078.083-.022.035-.098-.049-.104-.04-.029.043a.735.735 0 01.134.247c.022.079.045-.042.05-.27.008-.367-.008-.411-.156-.411-.133 0-.162-.042-.147-.213.018-.2.028-.205.166-.096.135.107.146.106.146-.005 0-.066-.092-.15-.205-.188-.229-.076-.287-.165-.061-.094.079.024.123.025.099 0-.024-.024-1.353-.06-2.953-.08-1.684-.022-3.369-.05-5.053-.084l-2.146-.048-.028.17c-.08.493-.314.218-.314-.369 0-.582 0-.585.151-.423.151.163.152.161.169-.386.015-.512.005-.55-.152-.55-.096 0-.168-.047-.168-.11 0-.225-1.9-.326-3.079-.164-.168.023-.243.273-.082.273.058 0 .076.673.058 2.062l-.027 2.062.253.21c.304.254.064.243 5.967.278 4.082.024 4.209.033 4.209.311 0 .056-.056.12-.123.143-.107.036-.123.544-.123 3.977 0 2.576-.029 3.936-.082 3.936-.045 0-.073.036-.062.079.03.114-.222.238-.378.186a.21.21 0 01-.134-.185c0-.12-.053-.139-.37-.128-.202.007-.369.04-.369.074 0 .034-.054.043-.121.02-.07-.023-.114-.004-.103.043.021.09-.032.104-.476.117-.18.006-.286.043-.277.1.035.235-.016.268-.417.268-.467 0-.594-.187-.177-.26.128-.022.232-.084.232-.137 0-.066-.041-.078-.13-.036-.071.033-.314.083-.54.11-.225.029-.45.095-.498.148-.073.08-.303.13-.793.17-.034.003-.062.067-.062.144 0 .273-.842.282-.941.01-.027-.074-.13-.155-.23-.182-.111-.03-.142-.063-.08-.085.218-.08.085-.133-.328-.133-.237 0-.495-.025-.574-.056-.103-.04-.143-.025-.143.058 0 .063.03.097.068.077.037-.02.068.009.068.065 0 .055-.027.086-.059.069-.032-.018-.085.088-.117.236-.031.147-.085.3-.12.34-.22.251-.157.394.175.394.236 0 .367.043.47.154.119.128.254.16.792.188.357.019.703.07.768.115.083.057.102.057.064.001-.038-.055.145-.083.6-.093.609-.013.653-.004.653.133 0 .144.04.148 1.753.148h1.752l-.01-.162c-.01-.173 1.518-.326 1.851-.184.194.082.641.073.641-.013 0-.04-.037-.072-.082-.072-.045 0-.082-.048-.082-.107 0-.131.533-.152.623-.025.035.049.023.063-.029.036-.128-.07-.348.023-.348.147 0 .19.883.034.896-.158.002-.04.349-.088.776-.108.562-.026.814-.068.924-.155.095-.075.321-.127.603-.138.573-.023.656-.05.656-.217 0-.119.065-.135.533-.135.478 0 .533-.015.533-.144 0-.122.055-.143.364-.143.478 0 .815-.113.754-.252-.037-.085.03-.107.327-.107.298 0 .383-.027.415-.135.031-.103.139-.143.459-.17.275-.023.462-.081.546-.171.07-.075.276-.17.457-.21.18-.04.318-.111.307-.159-.012-.053.076-.087.226-.087.135 0 .246-.038.246-.083 0-.047.022-.065.05-.04.065.056.272-.111.223-.181-.02-.03.064-.054.188-.054.316 0 .757-.282.786-.501.021-.162.06-.18.372-.174.295.005.349-.016.349-.136 0-.078.065-.184.144-.237.166-.11.43-.13.43-.032 0 .037.074.062.164.056.15-.01.2-.07.174-.213-.006-.03.082-.054.195-.054.15 0 .205-.038.205-.144 0-.09.055-.143.147-.143.106 0 .146-.054.143-.197-.002-.15.04-.203.178-.22.1-.012.203-.085.23-.161a.233.233 0 01.207-.139c.086 0 .277-.096.425-.214.478-.38.555-.431.64-.431.047 0 .121-.084.165-.186.075-.17.115-.184.478-.162.354.022.388.012.313-.094-.162-.226 2.56-2.73 3.144-2.893.121-.034.163-.108.163-.291 0-.136.036-.246.08-.246.127 0 .572-.412.658-.609.083-.19.365-.249.438-.09.023.049.044.016.048-.072.004-.112.057-.162.17-.162.105 0 .162-.046.158-.125-.004-.075-.023-.09-.048-.036-.065.142-.25.104-.3-.061-.037-.125-.014-.146.134-.121.153.025.18-.003.18-.19 0-.186.034-.223.225-.242.124-.013.226-.067.226-.12 0-.054.083-.11.184-.123.101-.014.176-.063.165-.11-.011-.049.033-.068.103-.044.067.022.121.005.121-.039 0-.043-.027-.075-.06-.07-.211.028-.276-.025-.252-.207.022-.166.061-.195.251-.183.198.012.226-.012.226-.198 0-.126.04-.203.098-.192.055.01.1-.02.103-.066a.222.222 0 01.065-.137c.034-.03.062-.148.062-.262 0-.114.027-.192.061-.174.08.042.272-.14.207-.196-.027-.024-.006-.044.046-.044.059 0 .096-.124.096-.322 0-.275.024-.323.164-.323.153 0 .164-.048.164-.725v-.726l.213.036c.202.034.21.023.156-.189-.092-.355-.048-.79.09-.88.096-.065.1-.09.017-.115-.082-.024-.107-.286-.107-1.1 0-1.054-.003-1.07-.184-1.092-.143-.018-.185-.07-.185-.227 0-.277-.077-.432-.214-.432-.064 0-.115-.047-.114-.103 0-.057-.034-.121-.075-.143-.04-.023-.055.024-.031.103.033.11.002.143-.13.143-.12 0-.174-.045-.174-.143 0-.097-.055-.143-.168-.143-.092 0-.162-.04-.154-.09.03-.207-.018-.27-.212-.27-.15 0-.204-.037-.204-.143 0-.123-.055-.143-.393-.143h-.394l-.143.377m1.422-.05c0 .023.055.09.123.15.133.116.15.099.073-.077-.047-.106-.196-.161-.196-.072m-27.147.425a.11.11 0 01-.11.107c-.088 0-.115.241-.129 1.154-.017 1.125-.013 1.153.147 1.108.115-.032.19-.003.251.097.11.18-.012.258-.24.152-.1-.047-.165-.05-.165-.008 0 .038.065.086.144.107.246.065 2.585.025 2.45-.042-.074-.034-.106-.11-.076-.178.057-.127-.23-.128 9.579.048 6.125.11 6.185.113 6.45.284.212.137.48.136.48-.003 0-.034.987-.072 2.194-.082l2.194-.019-.025-.16c-.026-.16.109-.225.532-.253.098-.006.165-.031.148-.055-.018-.024.04-.098.128-.164s.16-.167.16-.224c0-.058.06-.134.132-.17.08-.038.149-.197.175-.4.024-.184.08-.355.127-.38.051-.027.058-.009.017.049-.047.066-.034.077.041.036.086-.047.083-.073-.014-.136-.067-.044-.172-.281-.235-.527l-.113-.448h-12.12c-10.72 0-12.122.012-12.122.107m26.327 1.248c0 .102-.043.127-.165.1-.09-.021-.164-.083-.164-.137 0-.055.074-.1.164-.1.107 0 .165.048.165.137M5.986 17.134c.108.113.462.137.898.061.406-.07.133-.167-.477-.168-.456 0-.51.013-.421.107m1.784.086c.102.017.267.017.369 0 .101-.017.018-.03-.184-.03-.204 0-.287.013-.185.03m14.127.307c0 .04.116.073.257.073.149 0 .301.052.36.122.084.1.126.107.227.033.1-.072.132-.071.167.003.033.074.043.074.048.001.008-.107-.226-.192-.71-.257-.216-.03-.35-.02-.35.025m-16.472.28c-.086.048-.1.223-.06.805.026.41.045.841.04.96-.053 1.579-.044 1.61.5 1.617.298.005.826.007 1.005.004.056 0 .627.01 1.269.023l1.166.025.051-.236c.109-.505.003-3.12-.128-3.192-.154-.084-3.69-.09-3.843-.006m77.777 3.521c.157.06.158.063.007.067-.086.003-.135.024-.11.047.026.022.226.016.445-.015.374-.052.383-.058.15-.104-.385-.077-.702-.074-.492.005m-43.057.198c.406.013.773.055.816.093.12.104.292.081.292-.04 0-.09-.15-.105-.923-.092l-.922.014.737.024m2.666.126c0 .144-.04.18-.205.18-.353 0-.256-.334.103-.353.056-.004.102.075.102.173m16.382-.125c-.083.02-.142.086-.143.161 0 .084-.07.142-.185.156-.164.02-.187.07-.21.442-.023.393-.014.415.144.371.186-.051.203-.002.18.504-.023.49.073.54 1.038.54.463.002.823.029.8.062-.062.086-.455.14-.455.062 0-.036-.037-.046-.083-.021-.317.171.2.25 1.635.25h1.482v1.179c0 1.167.002 1.178.185 1.2l.184.024.022 3.345.02 3.346-.177-.04-.178-.041.178.154c.166.146.176.223.176 1.308v1.153l.903-.05c.762-.042.933-.031 1.107.068.113.065.205.087.205.049 0-.039.157-.08.348-.092l.349-.022.02-5.79.022-5.79h.496c.358 0 .48.023.437.083-.04.058-.013.069.087.035.11-.037.133-.021.096.064-.03.066-.015.093.035.066.047-.025.062-.107.035-.183-.038-.104-.009-.14.12-.146.237-.013.279-.022.395-.086.056-.031.14-.037.185-.012.046.024.2-.006.34-.068.18-.078.495-.112 1.04-.112.96 0 1.585-.165 1.434-.379-.024-.035-.019-.305.013-.6l.058-.537.177.13c.167.123.167.12-.008-.053-.101-.101-.184-.254-.184-.34 0-.087-.037-.157-.082-.157-.045 0-.073-.037-.062-.081.011-.045-.072-.096-.184-.114-.252-.04-11.794-.077-11.995-.038m13.449.03a.212.212 0 01-.172.008c-.042-.024-.051-.005-.02.04.033.046.027.083-.013.083s-.08.165-.09.368c-.019.337-.007.365.144.33.143-.032.173.007.221.287.039.225.1.334.203.358.143.033.276.414.274.786 0 .086.031.14.07.118.04-.021.092.027.116.107.023.08.09.13.148.11.22-.073.381.187.325.52-.05.287-.04.315.119.315.1 0 .173.045.173.107 0 .067.078.108.205.108.22 0 .228.018.207.484-.01.195.021.304.084.304.076 0 .076.024.001.102-.078.084-.067.096.063.066.088-.02.184-.001.215.041.03.043.127.078.214.078.142 0 .16.053.16.48 0 .374.021.462.098.395.207-.18.455.192.284.428-.098.136.049.346.242.346.063 0 .113.03.113.064 0 .036.093.085.206.11.234.05.311.472.086.472a.24.24 0 00-.176.083c-.037.051-.023.063.036.03.053-.028.117-.001.145.062.027.061.137.112.245.112.14 0 .197.04.197.138 0 .09.065.147.184.162.15.018.19.075.21.3.02.201.07.286.185.312.087.02.158.084.158.143 0 .058.07.192.155.296.215.265.29 1.333.215 3.065-.057 1.334-.12 1.598-.302 1.249-.03-.06-.058.158-.062.483-.003.345.029.596.077.601.045.005.119.017.164.027.045.01.196.022.337.027.2.007.243.034.203.127-.041.093-.028.1.06.036.061-.044.142-.057.179-.028.037.03.042.015.011-.032-.068-.104.582-.204.847-.13.31.085 1.255.05 1.328-.051.162-.224.08-3.389-.083-3.224-.231.233-.258.138-.256-.914.001-.856.021-.996.162-1.153.088-.099.161-.239.162-.311.001-.073.074-.15.162-.17.117-.026.176-.123.215-.355.047-.271.08-.315.23-.296.127.015.181-.023.2-.14.017-.104.083-.162.184-.162.137 0 .155-.047.138-.341-.019-.323-.008-.342.207-.363.21-.021.225-.044.205-.323-.02-.263 0-.303.163-.323.102-.012.185-.066.185-.12 0-.054.082-.108.184-.12.156-.02.181-.063.165-.275-.03-.39.043-.573.226-.573.136 0 .162-.049.162-.295 0-.278.012-.292.206-.25.168.038.205.02.205-.1 0-.095.054-.144.159-.144.14 0 .157-.047.143-.388-.018-.443.047-.54.275-.415.132.071.16.069.16-.019 0-.058.075-.14.166-.183.123-.057.152-.12.114-.253-.097-.338.032-.678.258-.678.146 0 .201-.039.201-.144 0-.098.055-.143.175-.143.16 0 .171-.028.127-.306-.058-.374.027-.518.272-.462.177.04.181.028.15-.454-.041-.635-.079-.663-.947-.688-.396-.011-.674-.003-.618.018.483.184-.053.386-1.022.386-.544 0-.618.016-.656.144-.031.105-.094.135-.238.112-.175-.028-.196-.005-.196.214 0 .168-.051.274-.164.335-.11.06-.164.168-.164.324 0 .129-.039.234-.086.234-.048 0-.063.034-.033.076.032.046-.007.067-.098.054-.122-.018-.157.03-.177.248-.017.174-.083.303-.185.358-.105.057-.159.167-.159.32 0 .13-.039.234-.086.234-.048 0-.063.035-.033.077.032.046-.007.067-.098.054-.122-.019-.157.03-.177.248-.017.173-.084.302-.185.358-.087.047-.159.146-.159.218 0 .157-.2.35-.29.279-.036-.028-.04-.012-.009.034.03.047.018.105-.028.13-.045.025-.083.11-.083.19 0 .141-.234.414-.258.3-.007-.033-.035.086-.062.263-.027.178-.075.307-.107.287-.099-.06-.306.24-.308.449-.003.161-.04.197-.208.197-.186 0-.205-.029-.205-.294 0-.233-.034-.301-.164-.33-.1-.023-.167-.102-.165-.191-.002-.28-.095-.462-.253-.499-.118-.027-.156-.1-.156-.3 0-.204-.038-.273-.164-.302-.11-.025-.166-.1-.17-.226-.004-.104-.026-.148-.049-.1-.14.305-.356.08-.356-.371 0-.368-.03-.482-.15-.556-.084-.052-.178-.213-.209-.359-.037-.173-.112-.28-.217-.31-.113-.03-.162-.108-.162-.255a.447.447 0 00-.164-.334c-.09-.067-.164-.198-.164-.29 0-.091-.092-.241-.204-.332-.114-.092-.206-.22-.206-.284 0-.077-.07-.117-.205-.117-.122 0-.205-.041-.205-.101 0-.064-.123-.117-.328-.144l-.656-.084c-.28-.036-.328-.067-.328-.22 0-.178-1.28-.247-1.58-.085m15.315-.008c-.024.034-.094.045-.156.024a.161.161 0 00-.174.05c-.042.06-.025.072.053.038.063-.028.032.004-.07.07l-.184.119V35.67h.36c.296 0 .367.026.404.15.028.093.083.13.142.1.072-.04.071-.066-.006-.108-.14-.076.132-.18.453-.172.675.016.86.035.852.084-.034.19.025.22.174.09a.656.656 0 01.369-.144c.123 0 .205-.041.205-.103 0-.057.042-.127.094-.155.065-.035.073-.019.026.05-.06.086-.05.086.071 0 .142-.1.118-.187-.051-.187-.191 0-.225-.603-.244-4.388-.02-3.933.015-4.44.263-3.87.045.106.12.192.167.192.046 0 .084.067.084.15 0 .088.065.165.158.186.088.02.216.161.287.316.07.154.165.28.21.28.046 0 .083.144.083.32 0 .252.026.312.12.28.184-.062.591.231.644.464.03.128.112.223.215.246.149.034.162.076.116.368-.05.32-.045.33.165.33.119 0 .216.032.216.073 0 .04.092.11.205.155.113.045.205.123.205.173 0 .05.071.136.158.19.122.074.164.2.184.54.022.402.15.62.267.455.087-.124.53.004.555.16.043.265 1.048.228 1.197-.043.073-.133.172-.198.302-.198.107 0 .207-.034.223-.075.016-.042.102-.086.191-.098.093-.013.158-.074.15-.143-.01-.1.01-.104.12-.027.08.058.108.061.072.009a.072.072 0 01-.01-.07.087.087 0 01.056-.05c.056-.02.022-.039-.076-.042-.305-.01-.322-.267-.032-.502.138-.114.252-.242.252-.285 0-.044.074-.08.164-.08.126 0 .164-.047.164-.21 0-.144.05-.223.158-.254a.277.277 0 00.185-.202c.02-.12.08-.157.254-.155.165.002.215-.025.182-.1-.037-.084-.023-.086.08-.012.069.05.13.07.135.046l.022-.098a.548.548 0 01.08-.148c.037-.052.045-.203.017-.335-.042-.192-.018-.261.114-.343a.587.587 0 00.218-.328c.028-.124.1-.227.158-.227a.46.46 0 00.238-.114c.072-.063.186-.096.252-.074.093.031.122-.021.124-.226a.708.708 0 01.192-.47l.19-.202.056.755c.133 1.796-.001 6.38-.181 6.19-.06-.063-.09-.143-.067-.176.023-.033.008-.107-.033-.164-.048-.066-.076.29-.077.975 0 1.204.018 1.251.512 1.251.175 0 .3.024.28.054-.021.03.018.098.086.154.108.087.117.081.072-.044-.046-.127-.006-.15.335-.19.508-.061 1.217.018 1.098.122-.048.042-.087.109-.087.15 0 .04.055.003.124-.083.088-.109.228-.161.472-.177l.347-.022.021-6.907.02-6.907-.922.023c-.93.023-1.189-.083-.772-.316.061-.034.043-.053-.049-.054-.079 0-.144.04-.145.089-.001.064-.018.066-.061.007-.044-.059-.09-.054-.166.018-.087.082-.087.1 0 .101.08 0 .079.016-.007.064-.063.034-.088.099-.057.143.081.115-.027.366-.157.366-.065 0-.134.12-.167.294-.054.28-.068.292-.301.252-.227-.04-.534.097-.428.19.023.02-.051.1-.165.178-.114.078-.183.162-.155.187.028.025.094.014.145-.024.068-.049.1.012.114.216.016.239-.007.284-.139.284a.215.215 0 00-.202.149.314.314 0 01-.215.188c-.13.03-.17.096-.17.281 0 .25-.097.29-.594.246-.153-.013-.182.1-.149.584.014.206-.028.3-.194.425-.116.088-.211.2-.211.247 0 .048-.074.103-.164.124-.102.023-.164.098-.164.196 0 .132-.036.152-.215.123-.332-.056-.523.16-.523.589 0 .205-.043.379-.103.412-.056.031-.166.178-.245.326-.078.148-.175.27-.216.27-.041 0-.098.081-.127.181-.045.159-.09.18-.349.162-.308-.022-.632.278-.539.499.023.053-.031.09-.135.09-.197 0-.232-.2-.079-.45.07-.115.07-.16 0-.18-.051-.015-.094-.075-.094-.131 0-.057-.092-.134-.205-.172-.125-.041-.205-.124-.205-.213 0-.143-.174-.186-.594-.149-.116.01-.144-.044-.144-.279 0-.32.04-.347.254-.177.132.104.142.103.122-.013-.026-.159-.28-.243-.51-.168-.138.045-.191.02-.264-.118-.05-.095-.15-.174-.221-.174-.103 0-.128-.071-.118-.34.024-.61.01-.663-.165-.663-.12 0-.164-.048-.164-.175 0-.097-.037-.196-.083-.22-.046-.025-.065-.072-.042-.105.023-.032-.013-.078-.08-.1-.068-.023-.123-.018-.123.01 0 .175-.426.035-.47-.155-.027-.117-.112-.222-.198-.241-.084-.02-.152-.067-.152-.105 0-.039-.077-.165-.17-.28a.826.826 0 01-.172-.532c0-.182-.05-.366-.116-.424-.064-.055-.116-.142-.116-.192 0-.066-.025-.07-.09-.013-.065.057-.062.125.01.247.082.14.081.154-.009.08a.452.452 0 00-.247-.09c-.094 0-.156-.083-.194-.259-.036-.17-.11-.271-.214-.295-.087-.02-.159-.096-.159-.169 0-.073-.11-.232-.245-.353-.233-.208-.334-.501-.172-.501.085 0 .07-.184-.021-.265-.088-.076-1.52-.094-1.573-.02m13.986-.002c0 .044.034.061.075.039.041-.022.131.008.199.067.165.145.318.138.285-.012-.03-.138-.559-.227-.559-.094m4.674 0c0 .09.087.09.246 0 .1-.057.088-.07-.061-.07-.102-.002-.185.03-.185.07m.41-.044c0 .07.232.096.336.038.084-.046.054-.064-.11-.065-.124 0-.226.012-.226.027m.886.058c.077.067.12.067.197 0 .076-.067.055-.086-.099-.086-.152 0-.175.019-.098.086m.406-.044c-.056.05.233.317.343.317.042 0 .092.072.112.16.031.142.037.138.047-.031.006-.106-.027-.213-.073-.238a.082.082 0 01-.028-.123c.031-.044.017-.057-.034-.03-.049.027-.112.016-.141-.024-.057-.082-.153-.095-.226-.031m9.995.745c-.054.881-.094 13.003-.044 13.268.03.158.009.176-.191.156-.126-.013-.226.011-.226.056 0 .138.247.168.399.047.169-.133.711-.156.798-.033.039.054.022.063-.049.025-.071-.04-.087-.03-.048.025.033.047.091.068.129.047.038-.02.084.002.102.049.021.053.054.039.088-.04.033-.074.023-.107-.026-.081-.044.024-.081.011-.081-.029 0-.144 4.377-.197 6.623-.08.011 0 .021.066.021.144 0 .106.054.144.204.144.113 0 .205-.033.205-.072 0-.04-.037-.072-.082-.072-.312 0 .007-.11.35-.12.322-.01.389.003.266.054-.177.073.347.025.579-.053.065-.022.118 0 .118.049 0 .064.029.067.107.01.058-.042.436-.087.84-.098l.734-.02.023-1.038c.012-.57-.003-1.086-.034-1.147a.725.725 0 01-.064-.159c-.015-.097-.108-.127-.498-.16-.483-.042-.588.002-.412.172.128.123.08.13-1.071.181-1.185.052-6.352-.017-6.433-.085-.217-.187-.051-3.293.182-3.402.108-.05.148-.052.114-.004-.029.04-.015.093.031.119.052.028.084-.079.084-.282v-.327h3.52c3.137 0 3.536-.013 3.654-.116.166-.146.126-.357-.063-.329-.123.018-.14-.052-.14-.587 0-.57.086-.827.193-.581.026.06.083.107.126.107.116 0-.046-.449-.196-.545-.068-.044-.123-.131-.123-.194a.208.208 0 00-.097-.165c-.191-.103-6.787-.126-7.004-.025-.306.143-.317.089-.319-1.531l-.003-1.52 1.928-.051c4.928-.131 6.266-.104 5.614.115a.174.174 0 00-.11.168c.009.119.012.12.047.001.021-.068.091-.125.155-.125s.117-.034.117-.076c0-.042.031-.059.07-.038.038.02.053-.042.031-.139-.027-.125-.002-.177.084-.177.068 0 .175-.069.239-.153.109-.144.124-.146.256-.03.132.114.14.07.14-.782 0-.736-.023-.912-.123-.945-.067-.023-.097-.078-.066-.123.032-.047 0-.042-.076.011-.111.079-.145.074-.211-.03-.098-.153-3.625-.25-3.625-.1 0 .044.034.063.075.04.09-.048 1.262.088 1.511.176.105.037-1.498.064-3.9.067-3.659.004-4.072-.007-4.028-.107a.133.133 0 01.161-.074c.062.02.112.004.112-.036 0-.04.03-.058.066-.038.036.019.115.008.177-.026.067-.036-.087-.056-.386-.05l-.498.01-.046.754m1.28-.747c.09.079.626.102.815.036.15-.053.077-.068-.335-.072-.289-.002-.505.014-.48.036m2.77.03c.141.08 1.637.079 2.105 0 .198-.034-.156-.056-.957-.06-.838-.006-1.229.015-1.148.06m9.281.261c0 .166-.04.367-.089.447-.123.201-.113 1.174.014 1.322.092.107.429.123 3.219.15 3.25.032 3.912.068 4.057.221.12.127.032.29-.207.386-.11.044-.201.138-.201.209 0 .07-.073.184-.163.252-.091.067-.165.182-.165.255 0 .074-.078.195-.173.27a.925.925 0 00-.241.291c-.05.115-.129.15-.305.14-.319-.02-.385.066-.406.53-.012.255-.062.422-.144.474-.069.044-.125.113-.125.153 0 .16-.251.265-.417.175-.139-.076-.157-.066-.157.094 0 .132-.044.18-.165.18-.151 0-.16.032-.113.385.045.334.028.407-.122.538-.096.084-.174.195-.174.247 0 .052-.092.165-.205.25-.113.086-.205.22-.205.296 0 .175-.064.21-.432.231-.163.01-.277.044-.255.075.022.032.006.057-.036.057-.042 0-.077.185-.077.41 0 .252-.037.42-.097.438-.054.015-.131.105-.172.2-.052.118-.139.172-.282.172-.13 0-.207.04-.207.107 0 .06-.073.108-.164.108-.174 0-.191.063-.166.622.01.233-.023.316-.151.376a.364.364 0 00-.19.238c-.021.127-.082.163-.287.169-.394.01-.519.167-.519.652 0 .34-.03.434-.164.507-.09.05-.164.153-.164.23 0 .077-.069.173-.154.213a.464.464 0 00-.209.261c-.044.154-.092.183-.255.155-.135-.022-.202 0-.202.064 0 .054-.067.098-.15.098-.083 0-.151.048-.151.107 0 .13.109.143.16.019.083-.203.158.04.17.547l.012.54 5.798-.003 5.797-.003.058-.227c.032-.125.056-.513.054-.863-.004-.797-.055-.852-.815-.872-.829-.03-1.657-.064-2.485-.103a62.36 62.36 0 00-3.178-.063c-1.382.027-1.658-.07-1.026-.361.112-.052.185-.152.185-.254 0-.108.059-.182.164-.206.09-.02.164-.093.164-.161 0-.069.092-.199.205-.29.115-.094.205-.247.205-.35 0-.132.043-.182.158-.182.102 0 .168-.057.185-.161.01-.098.099-.176.211-.184.101-.013.184-.067.184-.12 0-.055.083-.11.185-.122.17-.02.182-.054.159-.434-.024-.382-.01-.418.185-.496.115-.046.209-.111.209-.145 0-.034.093-.047.205-.03.19.03.205.013.205-.249 0-.22.032-.282.144-.282.117 0 .143-.064.143-.34.001-.388.34-.778.622-.713.105.024.156-.011.174-.12.013-.084.08-.154.148-.154.119 0 .131-.054.156-.705.005-.14.059-.216.171-.242.107-.024.164-.098.164-.209 0-.094.093-.241.206-.327.112-.086.205-.215.205-.286 0-.125.083-.162.307-.136.056.006.103-.054.103-.135 0-.11.055-.148.225-.152.124-.003.189-.02.143-.036-.145-.054-.04-.67.127-.749a.446.446 0 00.202-.213c.057-.159.331-.196.397-.054.023.05.044.03.047-.046.004-.075.072-.177.15-.227.107-.068.145-.198.15-.5.004-.292.042-.426.134-.471a.431.431 0 00.18-.243c.038-.132.107-.18.254-.18.221 0 .231-.358.034-1.243-.042-.191-.055-.377-.029-.413.073-.105-.216-.168-.375-.082-.103.057-.167.056-.233-.002-.05-.043-.115-.059-.144-.034-.028.025.015.104.096.175.143.124.128.13-.409.165-.53.034-7.56-.02-7.387-.057.045-.01.026-.051-.041-.093-.095-.058-.08-.064.069-.027.249.061.915-.026.915-.12 0-.046-.605-.065-1.716-.051l-1.715.02v.3m4.344-.298c.078.069 1.599.105 1.834.043.177-.046-.052-.065-.813-.07-.583-.003-1.042.009-1.021.027m-102.9.096a1.24 1.24 0 00-.201.194c-.112.13-.111.134.007.054.072-.05.154-.069.183-.044.028.026.075-.008.105-.075.062-.142.02-.2-.093-.129m55.567.134c0 .106-.212.131-.28.034-.057-.08.002-.13.156-.13.068 0 .124.043.124.096m45.23.024c.03.043-.074.07-.262.066-.25-.003-.279-.017-.148-.066.225-.085.35-.085.41 0m-27.723.304c-.114.429-.179 12.973-.068 13.194.057.115.067.214.023.237-.185.1-.043.176.329.176.223 0 .431.035.462.08.039.055.077.05.125-.019.167-.237 6.099-.152 6.186.088.052.143.449.201.449.066 0-.04-.037-.072-.082-.072-.045 0-.082-.024-.082-.054.001-.029.318-.064.707-.077.493-.017.689-.001.651.054-.03.042-.018.077.027.077a.186.186 0 00.133-.071c.027-.04.194-.072.368-.072.245 0 .32-.029.327-.126l.054-.83c.054-.833-.074-1.051-.62-1.052-.161 0-.507-.031-.768-.069-.261-.037-1.147-.073-1.968-.079-.861-.007-1.721-.023-2.581-.05l-1.086-.04v-.185c0-.102.055-.44.123-.752.09-.41.102-.636.044-.821-.057-.178-.054-.271.007-.304.064-.034.063-.062-.002-.097-.062-.034-.09-.608-.09-1.838 0-1.834-.023-1.955-.312-1.702-.077.067-.098.027-.098-.18 0-.235.023-.265.205-.265h.205l-.017-1.631-.017-1.631-.051 1.254c-.045 1.123-.136 1.722-.277 1.847-.027.023-.048-1.016-.048-2.31 0-2.015.016-2.339.115-2.267.085.061.131.063.173.004.032-.046-.016-.096-.116-.12-.16-.036-.222-.211-.179-.506.01-.068-.254-.09-1.088-.09h-1.101l-.062.233m-6.061.167c-.075.066-.118.136-.096.155.023.02.103-.018.178-.083.075-.066.118-.136.096-.156-.023-.02-.103.018-.178.084m8.666 1.25c0 .138.016.194.037.125a.508.508 0 000-.25c-.021-.07-.037-.013-.037.125m-37.939.682c.036.08.008.097-.105.065-.121-.035-.129-.029-.033.03.065.04.148.058.184.038.093-.05.082-.242-.014-.242-.044 0-.058.05-.032.109m61.704-.04c0 .11.294.154.519.08.136-.046.231-.047.262-.003.027.038.003.07-.052.07-.056 0-.079.019-.051.042.1.088.235-.051.144-.147-.099-.104-.822-.14-.822-.041m-92.822.44c.165.077.161.087-.125.317-.337.27-.74.378-.92.247-.095-.069-.147-.068-.244.002-.153.111-.159.215-.01.215.075 0 .098.06.07.185-.042.19-.06.202-.459.279-.13.025-.213.065-.185.089.028.024-.023.089-.113.144-.09.055-.164.143-.164.196 0 .12-.565.22-.68.12-.057-.051-.048-.115.03-.203.061-.07.08-.105.04-.076-.038.029-.135-.013-.215-.093-.1-.102-.162-.12-.203-.063-.033.045-.018.104.033.133.136.073.171.501.05.607a.574.574 0 00-.144.229c-.022.076-.044-.37-.05-.991-.005-.621-.018-1.153-.03-1.181-.07-.176 2.97-.319 3.319-.156m53.537 1.75a.346.346 0 00.236.098c.112-.007.11-.013-.01-.04-.08-.019-.144-.063-.144-.1 0-.037-.041-.066-.092-.066-.064 0-.06.033.01.107m-67.165.18c-.002.326.124.514.241.358.118-.158.102-.251-.078-.44l-.161-.17-.002.251m37.413.215c0 .139.017.195.038.126a.522.522 0 000-.25c-.02-.07-.038-.013-.038.124m64.876 1.793c0 .178.016.25.036.162a.922.922 0 000-.323c-.02-.089-.036-.016-.036.161m5.663 1.195c.03.026.013.09-.037.143-.067.07-.067.096.001.096.05 0 .092-.034.092-.075 0-.042.031-.06.068-.04.037.02.068-.01.068-.067-.001-.059-.056-.105-.122-.105-.068 0-.099.022-.07.048m-36.423.313c-.118.166-.124.213-.027.213.067 0 .195-.292.147-.334-.011-.01-.065.045-.12.121m23.339.428c.02.119.051.216.068.216.017 0 .032-.097.032-.216 0-.118-.031-.215-.068-.215-.038 0-.052.097-.032.215m-57.55 1.345c.008.375.048.344.095-.072.017-.148.001-.269-.035-.269-.036 0-.063.154-.06.34m73.162.087c.019.047.06.083.093.08.098-.008.079-.107-.027-.137-.054-.016-.084.01-.066.057m-101.153.428c-.06.075-.246.159-.412.187-.192.03-.32.098-.351.185-.041.113-.373.196-.471.118-.048-.038-.286.2-.251.25.035.052-.22.085-.444.06-.056-.007-.103.026-.103.071 0 .048-.069.068-.16.047-.188-.043-.394.121-.25.199.05.026.143.01.21-.038.065-.048.119-.063.119-.033 0 .029.055.013.122-.037.1-.072.123-.069.123.02 0 .059-.07.123-.157.144-.1.022-.168.11-.184.24-.022.167-.064.203-.215.189-.187-.018-.188-.013-.176.806.01.737.075.996.181.735.133-.325.184.336.193 2.527.012 2.842.011 2.85-.287 2.923-.266.066-5.934.053-6.447-.014l-.37-.049-.003-.444c-.003-.404-.013-.431-.122-.305-.19.218-.193.188-.252-2.113-.064-2.51-.143-2.845-.567-2.435-.301.29-.792.105-.71-.27.011-.049-.02-.089-.07-.089s-.07.03-.043.067c.078.111-.065.142-.742.156-.357.008-.603.028-.547.045.122.036.14.306.02.306-.044 0-.081.047-.081.104 0 .18-.185.47-.3.47-.125 0-.132.026-.148.588-.01.333.008.395.097.33.212-.154.228.058.24 3.228l.013 3.203 6.774.019 6.774.018v-5.587c0-5.281-.008-5.586-.144-5.567-.218.03-.43-.093-.43-.25 0-.186-.282-.188-.429-.005m73.56.165c-.049.32-.012.444.112.376.097-.052.102-.678.006-.678-.04 0-.093.136-.118.302m-94.087.535c-.071.061-.107.132-.08.156.027.023.084-.005.126-.063.067-.092.076-.091.079.002.002.096.011.096.082 0 .053-.071.08-.077.08-.017.001.049.037.09.08.09.114 0 .013-.197-.123-.243-.063-.021-.173.012-.244.075m95.363-.068c.125.016.31.016.411-.001.1-.017-.002-.03-.227-.03-.226 0-.308.014-.184.03m25.854.093c-.028.04.023.071.113.071s.187-.032.215-.071c.028-.04-.023-.072-.113-.072-.091 0-.187.032-.215.072m-25.793.071c.067.039.197.07.287.07.09 0 .219-.031.287-.07.088-.05.008-.069-.287-.069s-.375.02-.287.07m16.542.007c.065.057.134.057.242.002.133-.067.122-.077-.09-.079-.177-.002-.218.019-.152.077m10.358-.008c0 .04.053.072.118.072s.141-.032.169-.072c.028-.039-.025-.071-.118-.071s-.169.032-.169.071m-119.62.106c-.136.09-.14.105-.025.107a.207.207 0 00.182-.105c.058-.134.041-.134-.158-.002m95.448-.054c.124.016.327.016.451 0 .124-.017.022-.03-.225-.03-.249 0-.35.013-.226.03m26.572 0c.124.016.327.016.451 0 .124-.017.023-.03-.225-.03s-.35.013-.226.03m1.463-.026c.092.069.567.106.567.044 0-.038-.135-.07-.301-.07-.165 0-.285.012-.266.026m-12.121.524c-.038.087-.022.103.057.06.072-.038.089-.03.05.025-.083.116-.295.103-.295-.019 0-.085.05-.125.223-.18.01-.003-.006.048-.035.114M17.632 34.883c0 .04.057.093.127.117.192.064.215-.005.033-.104-.101-.056-.16-.06-.16-.013m91.055 1.054c.205.016.41.016.615 0 .169-.015.031-.028-.307-.028-.339 0-.477.013-.308.028m2.707-.003a.765.765 0 00.287 0c.079-.018.014-.032-.144-.032s-.222.014-.143.032m9.842.002c.125.017.309.017.41 0 .101-.017-.001-.03-.226-.03-.226 0-.308.014-.184.03m2.337 0c.102.017.25.016.328-.002.079-.018-.004-.031-.185-.03-.181 0-.244.015-.143.032M28.376 40.62c.293.03.588.026.656-.008.075-.038-.132-.059-.533-.054l-.656.008.533.053m6.295 3.42c.102.017.25.016.328-.002.079-.018-.005-.032-.185-.031-.18 0-.245.016-.143.033" fill="#6191c4"/></g></svg>