<svg xmlns="http://www.w3.org/2000/svg" xml:space="preserve" xmlns:vectornator="http://vectornator.io" viewBox="0 0 144 56" clip-rule="evenodd" stroke-linecap="round" stroke-linejoin="round"><g fill-rule="evenodd" vectornator:layerName="Untitled"><path d="M25.636 12.148c0 .033-.04.06-.09.06-.065 0-.089.07-.089.268s.024.268.09.268c.062 0 .09.063.09.209 0 .145-.028.208-.09.208-.05 0-.09-.053-.09-.12 0-.065-.053-.165-.119-.221-.066-.056-.12-.137-.12-.179 0-.042-.04-.076-.088-.076a.09.09 0 01-.09-.09c0-.059-.06-.089-.179-.089s-.178.03-.178.09c0 .05-.04.09-.09.09-.06 0-.09.059-.09.178 0 .12.03.179.09.179s.09.06.09.18c0 .106.037.196.089.216.05.018.09.071.09.117 0 .046-.04.083-.09.083a.09.09 0 01-.09-.09.09.09 0 00-.089-.09.09.09 0 01-.09-.088.09.09 0 00-.089-.09.092.092 0 01-.089-.092c0-.074-.059-.09-.283-.075l-.283.018-.018.254c-.014.189.003.253.067.253.047 0 .102.06.122.134.055.203.047.223-.082.223-.066 0-.119-.04-.119-.09 0-.065-.07-.088-.268-.088h-.268v.297c0 .226.022.299.09.299a.09.09 0 01.089.089c0 .049.04.09.09.09.049 0 .088.04.088.089 0 .116-.155.116-.2 0-.025-.066-.13-.09-.394-.09h-.36v.269c0 .198.024.268.09.268.05 0 .09.04.09.09 0 .061.063.088.208.088.17 0 .209.023.209.12 0 .109-.04.119-.477.119h-.477v.536h.268c.2 0 .269.023.269.09 0 .061.062.089.201.089.152 0 .21.03.233.12.03.113.002.118-.563.118h-.593l.018.253.018.254.462.017c.603.023.69.191.099.191-.313 0-.368.017-.395.12-.017.065-.068.119-.113.119-.058 0-.085.085-.09.283-.003.156-.019.236-.034.178-.018-.069-.085-.104-.201-.104-.115 0-.175-.03-.175-.089a.09.09 0 00-.09-.09.09.09 0 01-.088-.089c0-.06-.06-.09-.18-.09-.112 0-.178.031-.178.083 0 .046-.054.097-.12.114-.099.026-.118.081-.118.34 0 .26.02.314.119.34.09.024.119.082.119.233 0 .162-.023.202-.12.202-.065 0-.118.04-.118.09 0 .055-.057.088-.151.088-.083 0-.166.04-.185.09-.045.116-.2.116-.2 0 0-.05.04-.09.089-.09.067 0 .09-.072.09-.297 0-.226.021-.298.089-.298.075 0 .089-.143.089-.924 0-.782-.014-.924-.09-.924a.09.09 0 01-.089-.09c0-.049-.037-.089-.082-.089-.046 0-.097-.053-.114-.119-.023-.086-.081-.12-.215-.12-.125 0-.185-.028-.185-.088 0-.05-.037-.09-.083-.09-.046 0-.099-.04-.117-.09-.023-.058-.116-.089-.275-.089-.174 0-.24-.024-.24-.089 0-.068-.073-.09-.298-.09-.225 0-.298-.021-.298-.089 0-.072-.093-.09-.477-.09s-.476.018-.476.09-.09.09-.447.09c-.358 0-.447.018-.447.089 0 .05-.053.09-.12.09-.096 0-.119-.04-.119-.21 0-.145.027-.207.09-.207.07 0 .09-.08.09-.358v-.358h-.18c-.119 0-.178-.03-.178-.089 0-.07-.08-.09-.358-.09-.278 0-.358.02-.358.09 0 .049-.037.09-.082.09-.179 0-.243 1.579-.067 1.646.052.02.09.11.09.21 0 .256.1.408.27.408.09 0 .147.034.147.09 0 .048.04.089.09.089a.09.09 0 110 .178c-.05 0-.09.053-.09.12 0 .08-.04.119-.12.119-.096 0-.119-.04-.119-.209 0-.138-.027-.208-.082-.208-.046 0-.099-.04-.118-.09-.019-.049-.102-.09-.185-.09-.128 0-.15-.026-.15-.178 0-.172-.01-.179-.27-.179-.197 0-.267.023-.267.09 0 .05-.053.089-.12.089-.112 0-.118.04-.118.7.001.774.033.969.155.969.046 0 .083.04.083.09 0 .048.04.088.09.088.049 0 .089.053.089.12 0 .066.04.119.089.119.05 0 .09.04.09.09 0 .048.04.088.089.088.05 0 .09.04.09.09 0 .074.112.09.655.09s.655-.016.655-.09c0-.055.056-.09.146-.09.08 0 .168-.035.194-.079a.342.342 0 01.152-.117c.057-.021.104-.08.104-.13s.04-.09.09-.09c.203 0 .118.758-.09.804-.225.05-.256.293-.044.35.344.092.948.042.98-.082.023-.084.082-.12.203-.12.113 0 .172-.03.172-.089a.09.09 0 01.09-.089c.07 0 .089-.085.089-.405v-.405l.209.024.208.024v.375c0 .278-.023.383-.09.409-.072.028-.088.169-.088.753s.016.725.089.753c.06.024.09.118.09.296 0 .193.023.262.089.262.062 0 .089.063.089.206v.206l-.462.017-.462.018-.017.432-.018.432h.602v.477c0 .384.017.477.089.477.059 0 .09.059.09.174 0 .144.03.18.178.213.098.021.179.077.179.124 0 .054.064.084.179.084.119 0 .178.03.178.09 0 .062.063.09.209.09s.209.026.209.089c0 .13 1.06.13 1.11 0 .02-.051.109-.09.207-.09.114 0 .172-.03.172-.09 0-.049.04-.088.09-.088.049 0 .089-.038.089-.084 0-.045.04-.098.09-.117.049-.019.089-.072.089-.118 0-.047.053-.099.12-.116.108-.029.118-.002.118.291 0 .247.021.322.09.322.05 0 .09.04.09.09 0 .116-.216.116-.26 0-.045-.115-.211-.116-.255-.003-.018.048-.084.104-.147.124-.152.048-.175.921-.024.921a.09.09 0 01.089.09c0 .075-.144.09-.942.09h-.943l-.19.169c-.148.131-.19.217-.19.387 0 .154-.025.218-.089.218-.062 0-.09.063-.09.208 0 .146-.026.21-.089.21-.06 0-.089.059-.089.178 0 .12-.03.179-.09.179s-.089.06-.089.179-.03.178-.09.178c-.062 0-.088.063-.088.209 0 .169-.023.208-.12.208-.08 0-.119-.04-.119-.119 0-.066-.04-.119-.09-.119-.055 0-.089-.056-.089-.15 0-.084-.04-.167-.09-.186-.048-.019-.089-.072-.089-.117 0-.046-.04-.083-.089-.083a.09.09 0 01-.09-.09c0-.05-.052-.089-.119-.089-.066 0-.119-.04-.119-.09a.09.09 0 00-.089-.089c-.05 0-.09-.053-.09-.12 0-.065-.039-.118-.089-.118a.09.09 0 01-.09-.09.09.09 0 00-.088-.089.09.09 0 01-.09-.09.09.09 0 00-.09-.089.09.09 0 01-.089-.09.09.09 0 00-.089-.089.09.09 0 01-.09-.089c0-.05-.052-.09-.119-.09-.08 0-.119-.04-.119-.118 0-.067-.04-.12-.09-.12a.09.09 0 01-.089-.09c0-.059.06-.089.18-.089.107 0 .196-.037.216-.089.027-.07.151-.09.594-.09.446 0 .56-.017.56-.085 0-.048.07-.093.164-.104.136-.016.167-.051.182-.213.012-.12.052-.193.104-.193.056 0 .086-.063.086-.179 0-.12-.03-.179-.09-.179-.069 0-.089-.08-.089-.357v-.358h-.857c-.807 0-.859-.007-.888-.12-.02-.078-.082-.118-.18-.118-.081 0-.163-.04-.182-.09-.025-.066-.13-.09-.394-.09h-.36v-.565c0-.464-.015-.566-.089-.566a.09.09 0 01-.09-.09c0-.06-.059-.09-.178-.09-.159 0-.179.02-.179.18 0 .119-.03.178-.09.178-.048 0-.088.051-.088.114 0 .084-.031.106-.12.083-.084-.023-.119-.082-.119-.204 0-.113-.03-.171-.089-.171a.092.092 0 01-.09-.094c0-.066-.046-.088-.164-.074l-.163.019-.016 1.117c-.014.939-.03 1.117-.105 1.117s-.088.184-.088 1.222c0 1.046.013 1.222.09 1.222.06 0 .09.06.09.18 0 .106.036.195.088.215.05.02.09.1.09.179 0 .08.039.16.085.177.047.019.103.111.124.207.022.096.077.174.123.174.047 0 .085.04.085.09 0 .048.04.089.09.089.067 0 .089.072.089.298 0 .225.021.298.089.298.07 0 .09.08.09.36 0 .264.023.368.089.393.13.05.13.947 0 .997-.069.026-.09.139-.09.483 0 .359-.018.448-.09.448-.065 0-.088.07-.088.268 0 .2-.023.269-.09.269s-.09.072-.09.29c0 .242-.02.297-.118.323-.109.028-.12.081-.12.573 0 .442-.016.542-.089.542-.067 0-.09.073-.09.298 0 .225-.021.298-.088.298-.06 0-.09.06-.09.179 0 .172-.01.178-.264.178-.201 0-.27.025-.29.105-.027.1-.028.1-.035 0-.005-.075-.058-.105-.186-.105-.119 0-.179-.03-.179-.089s-.059-.09-.171-.09c-.122 0-.181-.034-.203-.118-.023-.087-.082-.12-.216-.12-.124 0-.184-.029-.184-.089 0-.131-1.001-.131-1.051 0-.02.052-.11.09-.213.09-.128 0-.186.033-.209.119-.017.065-.068.119-.114.119-.045 0-.082.04-.082.089 0 .05-.04.09-.09.09a.09.09 0 00-.089.089c0 .05-.037.09-.082.09-.1 0-.154.181-.155.52 0 .186-.025.254-.09.254-.13 0-.13.822 0 .873.054.02.089.11.089.231 0 .257.052.386.155.386.053 0 .083.065.083.179 0 .119.03.179.09.179.066 0 .09.07.09.27 0 .184.027.28.089.304.073.028.089.181.089.862 0 .696.014.828.09.828a.09.09 0 01.089.09c0 .048.037.089.082.089.045 0 .097.056.115.123.068.26.366.127.387-.172.023-.318.17-.474.47-.499.226-.018.227-.02.245-.301.013-.2.044-.284.104-.284a.084.084 0 00.086-.082c0-.045.054-.096.12-.114.181-.047.181-1.05 0-1.097-.139-.036-.163-.196-.03-.196.05 0 .09-.034.09-.075 0-.042.055-.11.122-.152.216-.135.14-.513-.108-.537-.194-.019-.287-.19-.102-.19.05 0 .106-.04.125-.09.027-.07.148-.089.56-.089.45 0 .53-.015.553-.104.015-.057.03.372.034.954.006.903-.006 1.057-.082 1.057-.06 0-.09.06-.09.179 0 .12-.03.179-.089.179-.05 0-.09.034-.09.076 0 .042-.053.122-.119.178-.065.056-.119.156-.119.222 0 .067-.04.12-.09.12-.048 0-.089.037-.089.083 0 .046-.04.098-.089.117-.128.05-.128.694 0 .694.072 0 .09.09.09.448 0 .344.02.457.089.484.066.025.09.129.09.39 0 .308.016.362.118.389.066.017.12.068.12.113 0 .046.04.083.09.083.07 0 .088.083.088.387 0 .305.02.388.09.388.05 0 .09.04.09.089 0 .049.04.09.089.09.05 0 .09.04.09.089 0 .073.102.09.565.09h.566v-.358c0-.279-.02-.358-.09-.358-.067 0-.089-.073-.089-.298 0-.218-.022-.298-.084-.298-.047 0-.103-.08-.124-.179-.022-.098-.077-.179-.124-.179-.054 0-.085-.064-.085-.178 0-.12-.03-.18-.089-.18-.06 0-.09-.059-.09-.18 0-.105-.037-.195-.089-.215-.127-.049-.127-.617 0-.617a.09.09 0 00.09-.09.09.09 0 01.089-.089.09.09 0 00.09-.09c0-.05.052-.089.118-.089.067 0 .12-.04.12-.09a.09.09 0 01.089-.089c.05 0 .09-.04.09-.089 0-.052.054-.09.133-.09.138-.002.403-.232.403-.35 0-.037.04-.067.09-.067.048 0 .088-.04.088-.089 0-.05.053-.09.12-.09.066 0 .119-.04.119-.089 0-.05.04-.09.09-.09.048 0 .089-.036.089-.082 0-.046.04-.099.09-.117.048-.02.088-.1.088-.18 0-.079.04-.159.09-.178.069-.026.09-.14.09-.483 0-.41.01-.449.118-.449.067 0 .12.04.12.09 0 .049.04.089.09.089a.09.09 0 01.089.09c0 .048.04.089.089.089.066 0 .09.069.09.265 0 .17.03.283.086.314.066.037.092.2.105.673.017.616.019.625.166.645.082.012.17.059.197.105.03.052.147.083.312.083.196 0 .265.024.265.09 0 .062.063.09.21.09.145 0 .208.026.208.089 0 .049.04.089.09.089a.09.09 0 01.088.09c0 .06.06.089.18.089.138 0 .178.026.178.119s.04.12.179.12c.119 0 .179.029.179.089 0 .064-.067.09-.24.09-.16 0-.252.03-.275.088-.023.058-.114.09-.26.09-.126 0-.256.038-.298.09-.04.048-.111.089-.156.089s-.083.053-.083.119-.04.119-.089.119a.09.09 0 00-.09.09.09.09 0 01-.089.089c-.072 0-.09.099-.09.536 0 .437.018.536.09.536.063 0 .09.063.09.209s.027.209.089.209c.06 0 .09.06.09.178 0 .12.03.18.089.18.055 0 .09.055.09.145 0 .08.035.168.078.194a.34.34 0 01.117.152c.022.057.08.104.13.104.062 0 .091.058.091.179 0 .159.02.179.18.179.118 0 .178.03.178.09 0 .07.09.088.449.088.344 0 .457-.02.483-.089.025-.065.128-.09.385-.09.273 0 .352-.02.352-.089 0-.066.07-.09.27-.09.185 0 .28-.027.304-.088.026-.07.142-.09.505-.09.378 0 .47-.017.47-.09 0-.059.06-.089.179-.089s.179.03.179.09c0 .072.092.09.476.09s.477.016.477.089c0 .067.073.089.298.089.225 0 .298.022.298.09 0 .065.07.089.268.089.199 0 .268.023.268.09s.073.088.299.088c.163 0 .297.027.297.06 0 .038.735.06 2.086.06 1.35 0 2.086-.022 2.086-.06 0-.033.12-.06.268-.06.199 0 .268-.023.268-.089 0-.06.06-.09.18-.09.118 0 .178-.03.178-.089 0-.067.073-.09.298-.09.225 0 .298-.02.298-.088 0-.073.1-.09.538-.09.424 0 .545-.02.573-.09a.125.125 0 01.238 0c.026.069.137.09.468.09s.443.021.469.09c.025.065.129.089.394.089.28 0 .359.02.359.09 0 .07.083.089.387.089.305 0 .388.019.388.09 0 .068.08.088.357.088.279 0 .358-.02.358-.089 0-.057.057-.09.155-.09.194 0 .438-.223.44-.402 0-.079.037-.134.09-.134.05 0 .09-.053.09-.12 0-.065.04-.118.09-.118.059 0 .089-.06.089-.179s.03-.179.089-.179c.058 0 .09-.059.09-.172 0-.098.038-.187.089-.207.072-.028.09-.169.09-.751 0-.598-.016-.717-.09-.717a.087.087 0 01-.09-.085c0-.047-.08-.102-.178-.124-.099-.021-.18-.077-.18-.124 0-.062-.08-.084-.297-.084-.225 0-.298-.022-.298-.09 0-.066-.07-.089-.268-.089-.2 0-.269-.023-.269-.09 0-.056.057-.089.155-.089.104 0 .165-.038.186-.12.017-.065.068-.118.113-.118s.083-.04.083-.09c0-.06.06-.089.18-.089.106 0 .195-.037.215-.09.02-.05.109-.089.207-.089.113 0 .172-.03.172-.09 0-.065.07-.089.27-.089.185 0 .281-.028.305-.089.02-.051.108-.09.206-.09.133 0 .173-.027.173-.118 0-.067.04-.12.09-.12.075 0 .088-.132.088-.834s.015-.834.09-.834c.05 0 .09-.04.09-.09 0-.049.034-.089.076-.089.041 0 .129-.06.193-.134l.118-.134.018.223c.012.147.048.224.105.224.06 0 .085.07.085.24 0 .159.03.252.09.274.05.02.09.061.09.094 0 .084.253.343.336.344.037 0 .083.041.102.09.019.05.102.09.185.09.095 0 .151.033.151.09 0 .049.04.089.09.089a.09.09 0 01.089.089c0 .05.034.09.076.09.042 0 .122.053.178.119.056.065.156.119.222.119.067 0 .12.04.12.09 0 .048.04.089.089.089.05 0 .09.04.09.089 0 .049.04.09.089.09a.09.09 0 01.089.089c0 .049.04.09.09.09.07 0 .089.082.089.386 0 .305-.02.388-.09.388-.067 0-.089.073-.089.298 0 .225-.022.298-.09.298-.066 0-.089.07-.089.268 0 .199-.023.268-.09.268-.059 0-.089.06-.089.179 0 .12-.03.179-.089.179-.07 0-.09.082-.09.38 0 .335-.014.384-.123.413-.089.023-.118.071-.104.171.025.177 1.122.256 1.122.08 0-.05.04-.09.089-.09.05 0 .09-.038.09-.083 0-.045.053-.096.119-.114.078-.02.119-.081.119-.18 0-.08.04-.163.09-.181.06-.024.089-.12.089-.305 0-.2.023-.27.09-.27.07 0 .088-.083.088-.387 0-.305.02-.388.09-.388.073 0 .09-.102.09-.566 0-.463.015-.566.089-.566.071 0 .089-.09.089-.447s-.018-.447-.09-.447c-.062 0-.089-.063-.089-.208 0-.146-.027-.21-.09-.21a.09.09 0 01-.089-.089.09.09 0 00-.089-.089.09.09 0 01-.09-.09.09.09 0 00-.089-.089.09.09 0 01-.09-.09c0-.049-.052-.089-.118-.089-.114 0-.12-.04-.12-.863 0-.729-.014-.865-.089-.865-.062 0-.09-.062-.09-.203 0-.173.018-.198.12-.171.066.017.12.068.12.113 0 .064.118.083.535.083.457 0 .554.017.656.119.14.14.157.39.03.438-.062.024-.09.12-.09.305 0 .2-.023.27-.089.27-.125 0-.13.687-.004.735.047.018.093.108.104.2.015.132.053.171.183.186.094.011.164.056.164.104 0 .048.04.086.09.086a.09.09 0 01.089.09c0 .062.063.089.208.089h.209v1.132h.178c.12 0 .18-.03.18-.09a.09.09 0 01.089-.089c.05 0 .09-.033.092-.074.001-.041.082-.14.178-.221.21-.173.285-1.374.087-1.374a.088.088 0 01-.09-.084c0-.047-.046-.098-.103-.112-.058-.016.023-.03.179-.035l.282-.007v-.648c0-.599.01-.651.12-.68.094-.025.119-.081.119-.269 0-.156.03-.25.09-.272.07-.027.089-.159.089-.662 0-.518-.016-.627-.09-.627-.06 0-.09-.06-.09-.184 0-.135-.032-.194-.118-.216-.066-.017-.12-.068-.12-.114 0-.045-.04-.082-.089-.082a.09.09 0 01-.09-.09c0-.059-.058-.089-.172-.089-.098 0-.187-.038-.206-.09-.026-.068-.14-.089-.483-.089-.36 0-.45.018-.45.09 0 .07-.079.09-.357.09-.278 0-.357.019-.357.089 0 .06-.06.089-.181.089-.106 0-.195.037-.215.09-.049.126-.618.126-.618 0a.09.09 0 00-.089-.09.09.09 0 01-.09-.09.09.09 0 00-.089-.089c-.06 0-.09-.06-.09-.18 0-.106-.036-.196-.089-.216-.058-.022-.089-.115-.089-.268 0-.153-.03-.245-.09-.268-.06-.023-.089-.118-.089-.29s-.029-.266-.09-.29c-.064-.024-.089-.126-.089-.369 0-.285-.017-.34-.119-.366-.103-.027-.119-.082-.119-.412 0-.298-.019-.38-.089-.38-.077 0-.09-.165-.09-1.126 0-.946.015-1.131.09-1.16.052-.02.09-.11.09-.215 0-.117.03-.18.084-.18.047 0 .102-.081.124-.18.021-.098.077-.178.124-.178.046 0 .084-.051.084-.113 0-.062.04-.129.09-.147.049-.02.089-.1.089-.18 0-.079.04-.16.09-.178.064-.025.089-.126.089-.364 0-.253.02-.33.09-.33.075 0 .089-.155.089-1.043 0-.887-.014-1.042-.09-1.042s-.09-.176-.09-1.222v-1.222h-.178c-.119 0-.179.03-.179.09a.09.09 0 01-.09.089.09.09 0 00-.089.09.087.087 0 01-.085.089c-.052 0-.095.076-.11.194l-.024.193-.01-.194c-.005-.128-.039-.193-.098-.193-.06 0-.09-.06-.09-.18 0-.171-.01-.178-.268-.178h-.268v1.311h-.298c-.225 0-.298.022-.298.09 0 .064-.066.09-.24.09-.159 0-.252.03-.275.088-.025.066-.128.09-.387.09s-.362.024-.387.09c-.026.065-.13.089-.391.089-.307 0-.361.017-.388.119-.023.084-.081.12-.203.12h-.172v.535c0 .438.016.537.09.537.048 0 .09.033.09.074.003.255.26.343 1.005.343.602 0 .722.015.722.09 0 .048.04.089.09.089.059 0 .089.06.089.178 0 .12-.03.18-.09.18-.05 0-.09.052-.09.119 0 .066-.039.119-.089.119a.09.09 0 00-.089.089c0 .05-.053.09-.119.09-.067 0-.12.04-.12.089 0 .05-.04.09-.089.09a.09.09 0 00-.09.089.09.09 0 01-.089.089.09.09 0 00-.089.09.09.09 0 01-.09.089c-.05 0-.089.053-.089.119s-.04.12-.09.12a.09.09 0 00-.089.089.09.09 0 01-.089.089.09.09 0 00-.09.09c0 .05-.052.089-.118.089-.067 0-.12.04-.12.09a.09.09 0 01-.089.089.09.09 0 00-.09.089.09.09 0 01-.089.09.09.09 0 00-.09.089.09.09 0 01-.089.09c-.056 0-.089-.058-.089-.156 0-.104-.038-.164-.12-.185-.084-.022-.118-.081-.118-.203 0-.113-.031-.172-.09-.172-.06 0-.09-.06-.09-.179 0-.12-.029-.178-.088-.178-.05 0-.09-.053-.09-.12 0-.066-.04-.119-.09-.119-.064 0-.089-.066-.089-.235 0-.132-.034-.257-.079-.284a.342.342 0 01-.117-.151c-.025-.068-.101-.105-.219-.105-.12 0-.18-.03-.18-.09 0-.07-.09-.089-.448-.089-.357 0-.447.018-.447.09s-.09.09-.452.09c-.403 0-.456.012-.484.119-.025.098-.08.119-.322.119-.219 0-.291.022-.291.089 0 .06-.06.09-.179.09s-.179.03-.179.089c0 .06-.06.09-.178.09-.12 0-.18.029-.18.089 0 .05-.052.089-.118.089-.067 0-.12.04-.12.09 0 .07-.082.089-.387.089h-.387v-.358h.36c.264 0 .368-.023.393-.09.019-.048.072-.089.117-.089.046 0 .083-.053.083-.119s.04-.12.09-.12c.049 0 .089-.04.089-.088 0-.05.037-.09.083-.09.086 0 .153-.174.155-.402 0-.08.037-.134.09-.134.049 0 .09.04.09.09 0 .048.04.089.089.089a.09.09 0 01.089.089c0 .06.06.09.179.09.112 0 .179-.031.179-.083 0-.045.053-.096.119-.114.079-.02.12-.08.12-.18 0-.08.04-.163.089-.181.06-.024.089-.12.089-.305 0-.283.287-.42.379-.18.028.073.182.09.87.09.704 0 .837-.015.837-.09 0-.05.04-.09.089-.09.05 0 .09-.04.09-.09 0-.049.04-.088.089-.088.05 0 .09-.053.09-.12 0-.066.039-.119.089-.119.06 0 .089-.06.089-.179s.03-.178.09-.178c.073 0 .089-.103.089-.567 0-.412.02-.566.074-.567.233-.003.348-.276.33-.784l-.017-.496-.194-.019c-.235-.023-.294-.328-.074-.386.11-.029.12-.081.12-.782v-.75h.267c.199 0 .269.023.269.09 0 .072.092.089.476.089s.477-.017.477-.09a.09.09 0 01.09-.089c.07 0 .088-.083.088-.387v-.387h.21c.137 0 .208.027.208.082 0 .092.179.154.447.154s.447-.062.447-.154c0-.055.07-.082.208-.082.146 0 .209-.028.209-.09 0-.05.04-.09.09-.09a.09.09 0 00.089-.089c0-.06.06-.089.179-.089s.178-.03.178-.09c0-.05.053-.089.12-.089.066 0 .118-.04.118-.09a.09.09 0 01.09-.089c.05 0 .09-.037.09-.083 0-.045.04-.098.089-.117.07-.027.089-.15.089-.573 0-.438-.016-.538-.09-.538a.09.09 0 01-.089-.09c0-.062-.063-.089-.208-.089-.143 0-.209-.027-.209-.086 0-.052-.083-.102-.204-.125-.228-.043-.332-.004-.332.126 0 .055-.063.085-.179.085-.112 0-.179.03-.179.083 0 .045-.053.096-.119.113-.095.025-.12.082-.12.276 0 .177-.023.244-.088.244a.09.09 0 01-.09-.09.09.09 0 00-.09-.09.09.09 0 01-.089-.089c0-.049-.037-.089-.083-.089-.045 0-.098-.04-.117-.09-.026-.068.013-.089.172-.089.168 0 .207-.023.207-.119 0-.066.04-.12.09-.12.076 0 .089-.165.089-1.131v-1.133h-.268c-.229 0-.268.018-.268.12 0 .066-.04.119-.09.119a.09.09 0 00-.09.09.09.09 0 01-.089.089.09.09 0 00-.089.089c0 .049-.038.09-.085.09-.046 0-.102.08-.123.178-.022.098-.078.179-.125.179a.087.087 0 00-.084.09c0 .059-.06.089-.179.089-.14 0-.179.026-.179.119 0 .173-.389.173-.434 0-.048-.183-1.229-.183-1.277 0-.021.084-.08.119-.203.119-.113 0-.172.03-.172.09a.09.09 0 01-.089.089.09.09 0 00-.09.089c0 .05-.04.09-.089.09a.09.09 0 00-.089.089c0 .05-.034.09-.074.09-.091.002-.343.259-.343.35 0 .037-.04.066-.09.066a.09.09 0 00-.09.09c0 .05-.04.09-.088.09-.067 0-.09.069-.09.267 0 .2-.023.269-.09.269-.07 0-.089.082-.089.387 0 .304.02.387.09.387.065 0 .09.067.09.24 0 .223-.008.233-.12.164-.065-.041-.119-.109-.119-.15 0-.05-.092-.075-.268-.075-.199 0-.268.023-.268.09a.09.09 0 01-.09.089c-.07 0-.09.083-.09.387 0 .305-.018.387-.088.387-.05 0-.09.038-.09.084 0 .045-.04.098-.09.117-.051.02-.089.11-.089.215 0 .116-.03.18-.084.18-.047 0-.103.081-.125.18-.022.1-.077.178-.128.178-.073 0-.086.084-.07.477l.02.477h-.188c-.11 0-.2-.037-.221-.09-.024-.061-.12-.09-.304-.09-.291 0-.294-.003-.272-.401.008-.142-.015-.194-.083-.194a.092.092 0 01-.094-.09.09.09 0 00-.09-.089.09.09 0 01-.09-.09.09.09 0 00-.088-.089.09.09 0 01-.09-.09c0-.049-.053-.088-.119-.088-.086 0-.117-.038-.112-.135.005-.1.013-.108.034-.03.018.069.085.105.195.105.117 0 .177.035.198.12.027.1.081.118.365.118h.333V19.3c0-.225-.022-.298-.09-.298a.09.09 0 01-.089-.09c0-.059-.06-.089-.179-.089s-.178-.03-.178-.089c0-.067.073-.09.298-.09.23 0 .298.022.298.094 0 .285.327.058.346-.24.022-.344-.07-.449-.387-.449-.136 0-.198-.028-.198-.09 0-.07.083-.089.388-.089h.387v-.268c0-.189-.024-.268-.083-.268-.045 0-.096-.054-.113-.12-.027-.102-.081-.119-.394-.119-.284 0-.364-.02-.364-.089 0-.072.093-.09.477-.09h.477v-.536h-.59c-.561 0-.59-.006-.56-.119.026-.096.082-.12.293-.12.192 0 .261-.023.261-.089 0-.062.063-.09.209-.09.207 0 .208 0 .208-.267v-.268l-.491-.007c-.27-.004-.445-.02-.388-.035.058-.014.104-.065.104-.112 0-.046.04-.085.09-.085.05 0 .09-.04.09-.089 0-.05.04-.09.089-.09.066 0 .089-.069.089-.267v-.269h-.33c-.238 0-.339.025-.363.09-.02.049-.072.09-.118.09-.045 0-.083-.041-.083-.09 0-.05.04-.09.09-.09a.09.09 0 00.089-.089c0-.05.04-.09.09-.09.049 0 .089-.052.089-.119 0-.066.04-.119.089-.119.06 0 .09-.06.09-.179v-.178h-.358c-.247 0-.358.023-.358.074 0 .041-.093.105-.208.14-.115.036-.209.043-.209.015 0-.028.04-.05.09-.05.06 0 .09-.06.09-.18 0-.119.029-.178.089-.178.066 0 .089-.07.089-.268v-.269h-.268c-.199 0-.268.024-.268.09a.09.09 0 01-.09.09.09.09 0 00-.09.089.09.09 0 01-.089.089.092.092 0 01-.089-.094c0-.051.04-.133.09-.183.201-.202-.014-.678-.307-.676-.159.002-.379.258-.379.44 0 .098-.033.155-.09.155-.07 0-.089-.089-.089-.447v-.447h-.298c-.274 0-.298.012-.298.143 0 .078-.04.158-.09.177-.06.023-.089.12-.089.304 0 .2-.023.27-.089.27-.071 0-.09-.089-.09-.447v-.447h-.268c-.266 0-.268.002-.268.209a.475.475 0 01-.119.328c-.119.119-.119.119-.119-.06 0-.119-.03-.179-.09-.179-.055 0-.089-.056-.089-.148 0-.137-.021-.15-.268-.15h-.268l-.01.641c-.007.352-.022.512-.034.355-.014-.178-.055-.3-.108-.32-.048-.018-.087-.11-.087-.205 0-.114-.03-.173-.089-.173-.056 0-.09-.056-.09-.148 0-.126-.027-.15-.178-.15-.098 0-.179.027-.179.06m-1.49 1.813c0 .047.047.098.105.113.082.021.077.028-.023.034-.08.004-.139-.037-.159-.113-.017-.065-.006-.119.023-.119.03 0 .054.039.054.085m-7.985.958a.09.09 0 11-.179 0 .09.09 0 01.179 0m11.4.285c.105.013-.075.028-.4.034-.325.005-.576-.007-.557-.025.019-.019.184-.034.367-.034.333 0 .334 0 .343-.19l.01-.19.023.191c.02.163.052.194.215.214m10.768.192c0 .305-.02.387-.09.387a.09.09 0 00-.09.09c0 .073-.105.089-.595.089-.501 0-.596-.015-.596-.093 0-.067-.047-.088-.164-.075-.21.024-.287.495-.093.566a.35.35 0 01.156.119c.026.044.113.079.193.079.09 0 .146.034.146.09 0 .058.06.089.173.089.098 0 .187.038.207.09.02.051.109.089.215.089.12 0 .18.03.18.089 0 .049.04.09.09.09a.09.09 0 01.089.089c0 .06.06.09.179.09.139 0 .178.026.178.118 0 .066.038.12.083.12.046 0 .099.04.118.089.021.056.112.09.243.09.16 0 .2.02.174.089-.02.049-.073.09-.12.09-.046 0-.1.04-.119.089-.023.06-.117.089-.288.089-.154 0-.284-.036-.33-.09a.314.314 0 00-.215-.089c-.086 0-.142-.035-.142-.09a.09.09 0 00-.09-.089.09.09 0 01-.089-.089.09.09 0 00-.089-.09.09.09 0 01-.09-.089.09.09 0 00-.089-.09c-.049 0-.09-.033-.09-.074-.001-.09-.258-.342-.35-.342-.036 0-.066-.04-.066-.09a.09.09 0 00-.09-.09.09.09 0 01-.089-.089c0-.066-.07-.089-.268-.089h-.268v.33c0 .238.025.339.09.364.05.02.089.108.089.208 0 .1.038.189.09.209.066.025.089.131.089.415v.38h-.269c-.283 0-.424-.343-.178-.438.059-.022.089-.116.089-.274 0-.174-.025-.24-.09-.24-.069 0-.09-.079-.09-.343 0-.425-.048-.611-.155-.611-.045 0-.082-.04-.082-.09a.09.09 0 00-.09-.089.09.09 0 01-.09-.09c0-.049-.046-.092-.103-.095-.1-.007-.1-.009 0-.035.069-.018.104-.085.104-.201 0-.155.02-.175.179-.175.119 0 .178-.03.178-.09 0-.074.136-.089.865-.089.693 0 .864-.016.864-.081 0-.046.08-.098.18-.118.14-.028.188-.076.216-.216.07-.348.2-.213.2.207m-10.25.864c0 .225-.022.298-.09.298a.09.09 0 00-.09.09.09.09 0 11-.178 0c0-.05-.037-.09-.083-.09-.046 0-.098-.04-.117-.09a.147.147 0 00-.126-.089.09.09 0 01-.091-.09c0-.059-.06-.089-.179-.089-.139 0-.179-.026-.179-.119 0-.11.04-.12.566-.12h.566v.3m-2.53 1.012c.067 0 .087.088.087.387 0 .305.02.388.09.388.05 0 .089.053.089.119s-.04.12-.09.12a.09.09 0 01-.089-.092.147.147 0 00-.09-.126c-.05-.02-.089-.108-.089-.206 0-.133-.027-.173-.119-.173-.093 0-.12-.04-.12-.178 0-.179 0-.18-.371-.19l-.373-.012.373-.021.372-.022v-.44c0-.677.2-.692.226-.017.013.358.037.463.104.463m3.49-.694c.003.103 0 .302-.005.441l-.01.253.496.012.496.012-.491.02-.492.02v.177c0 .117-.03.176-.09.176-.058 0-.089.059-.089.173 0 .098-.038.187-.09.206-.068.027-.089-.012-.089-.165 0-.124.035-.214.09-.235.072-.028.09-.162.09-.69 0-.558.012-.65.089-.621.05.02.091.114.094.221m-9.28.068c.019.05.075.09.125.09s.092.04.092.09c0 .048.04.089.09.089.059 0 .089.059.089.178 0 .172-.004.175-.12.076-.065-.056-.119-.136-.119-.178 0-.045-.073-.076-.179-.076-.158 0-.178-.02-.178-.18 0-.19.138-.25.2-.089M48.58 20.7c0 3.483.01 3.963.09 3.963.065 0 .089.07.089.27 0 .185.027.28.089.304.05.02.09.109.09.207 0 .114.03.172.089.172.049 0 .09.05.09.11s.046.166.103.234c.058.068.155.192.217.277.062.085.15.154.194.154.044 0 .08.04.08.09 0 .048.038.089.084.089.046 0 .099.04.117.09.02.048.1.088.178.088.094 0 .155.042.176.12.02.081.08.119.19.119a.4.4 0 01.248.09c.054.054.2.089.377.089.2 0 .297.027.321.09.03.075.242.089 1.409.089s1.38-.014 1.409-.09c.022-.057.114-.09.259-.09.127 0 .257-.038.299-.089.04-.049.14-.089.22-.089.098 0 .159-.04.18-.12.021-.084.08-.119.202-.119.113 0 .172-.03.172-.089 0-.05.04-.09.09-.09a.09.09 0 00.09-.089.09.09 0 01.089-.089.09.09 0 00.089-.09c0-.049.03-.089.068-.089.117 0 .349-.298.349-.45 0-.09.034-.146.09-.146a.092.092 0 00.089-.093c0-.052.04-.134.089-.183.05-.05.09-.192.09-.317 0-.128.038-.259.089-.3.078-.065.09-.587.09-4.03v-3.956h-1.67v3.51c0 3.064-.01 3.513-.089 3.543-.065.026-.089.13-.089.394 0 .268-.021.36-.083.36-.046 0-.1.069-.122.152-.02.084-.164.279-.319.432-.26.258-.428.364-.862.539-.09.036-.164.093-.164.127 0 .128-1.237.075-1.37-.058a.473.473 0 00-.328-.12c-.146 0-.209-.027-.209-.09 0-.059-.06-.089-.178-.089-.12 0-.18-.03-.18-.089a.09.09 0 00-.089-.09.09.09 0 01-.089-.089.09.09 0 00-.09-.09.09.09 0 01-.089-.089c0-.05-.053-.089-.119-.089-.1 0-.12-.04-.12-.24 0-.159-.03-.252-.089-.274-.062-.024-.089-.121-.089-.32 0-.18-.032-.31-.09-.358-.077-.064-.089-.53-.089-3.523v-3.45H48.58V20.7m9.695-3.925c-.116.117-.044 10.266.074 10.329.197.105 1.528.079 1.639-.032.08-.081.093-.338.093-1.907 0-1.572.012-1.813.09-1.813a.09.09 0 00.089-.09c0-.05.053-.09.12-.09.066 0 .118-.039.118-.088 0-.05.04-.09.09-.09a.09.09 0 00.09-.09.09.09 0 01.089-.089c.05 0 .089-.053.089-.119 0-.093.04-.12.179-.12.119 0 .179-.029.179-.088 0-.05.038-.09.085-.09.047 0 .097-.047.112-.104.026-.1.027-.1.034 0 .004.057.04.105.081.105.042.001.136.135.21.298.075.164.162.297.194.297s.058.04.058.09c0 .049.04.089.09.089.056 0 .09.057.09.154 0 .105.038.165.118.186.066.017.12.069.12.114s.04.082.089.082c.059 0 .09.06.09.173 0 .098.038.187.088.206.052.022.086.07.09.126 0 .05.04.091.09.091a.09.09 0 01.089.09c0 .049.04.09.09.09.05 0 .089.052.089.119 0 .066.053.165.119.222.065.056.119.136.119.178 0 .042.04.076.09.076.055 0 .089.056.089.15 0 .084.04.167.09.186.048.019.089.071.089.117 0 .046.033.084.074.085.041 0 .126.115.19.253.13.285.325.518.436.519.043 0 .074.077.074.18 0 .119.03.178.09.178.049 0 .09.034.09.075.004.291 1.616.519 2.17.307.233-.09.007-.739-.257-.739-.037 0-.067-.08-.067-.179 0-.119-.03-.179-.09-.179a.09.09 0 01-.089-.089.09.09 0 00-.089-.09c-.049 0-.09-.05-.09-.111a.276.276 0 00-.089-.186c-.049-.041-.09-.105-.09-.142-.001-.085-.262-.335-.35-.335-.036 0-.066-.08-.066-.179 0-.12-.03-.179-.09-.179a.09.09 0 01-.089-.091.147.147 0 00-.09-.125c-.049-.02-.088-.07-.088-.111 0-.043-.04-.093-.09-.111-.05-.02-.09-.09-.09-.157 0-.068-.04-.139-.089-.158-.049-.019-.09-.071-.09-.117 0-.046-.04-.083-.088-.083-.05 0-.09-.034-.09-.075 0-.042-.053-.109-.12-.15a.285.285 0 01-.118-.223c0-.092-.034-.148-.09-.148a.09.09 0 01-.09-.09.09.09 0 00-.088-.089c-.056 0-.09-.056-.09-.15 0-.084-.04-.167-.09-.186-.049-.019-.089-.069-.089-.11 0-.043-.04-.093-.09-.112a.147.147 0 01-.088-.125c0-.05-.039-.092-.085-.092-.047 0-.102-.08-.124-.178-.022-.099-.078-.18-.124-.18a.087.087 0 01-.085-.089c0-.049-.037-.09-.083-.09-.045 0-.1-.066-.12-.148-.02-.082-.063-.149-.096-.149-.032 0-.058-.054-.058-.121s-.04-.136-.09-.155c-.13-.05-.11-.124.09-.32.098-.096.178-.202.178-.236 0-.034.04-.062.09-.062.05 0 .09-.04.09-.09 0-.048.026-.089.059-.089.083 0 .894-.802.894-.885 0-.037.04-.068.09-.068a.09.09 0 00.089-.09.09.09 0 01.09-.089.146.146 0 00.126-.09c.02-.048.072-.089.118-.089.045 0 .083-.04.083-.09a.09.09 0 01.09-.089c.048 0 .089-.037.089-.082 0-.046.04-.099.09-.118a.147.147 0 00.089-.125c0-.05.04-.091.089-.091a.09.09 0 00.09-.09c0-.05.04-.09.089-.09a.09.09 0 00.09-.089c0-.05.052-.089.118-.089s.12-.04.12-.09a.09.09 0 01.089-.089.09.09 0 00.089-.09.09.09 0 01.09-.089.09.09 0 00.089-.089c0-.05.04-.09.09-.09.049 0 .088-.052.088-.119 0-.065.034-.12.075-.121.148-.004.352-.23.332-.369-.025-.176-2.254-.253-2.254-.077 0 .05-.03.09-.066.09-.091 0-.349.252-.35.343 0 .041-.041.075-.09.075a.09.09 0 00-.09.09.09.09 0 01-.09.089.09.09 0 00-.088.089.09.09 0 01-.09.09.09.09 0 00-.09.089.09.09 0 01-.089.09c-.049 0-.089.025-.089.056 0 .074-.286.36-.36.36-.032 0-.057.04-.057.09a.09.09 0 01-.09.089.09.09 0 00-.09.09.09.09 0 01-.089.089.09.09 0 00-.089.09.09.09 0 01-.09.088.09.09 0 00-.089.09c0 .05-.033.09-.074.09-.09.002-.343.259-.343.35 0 .037-.04.067-.089.067a.09.09 0 00-.09.089.09.09 0 01-.089.09.09.09 0 00-.09.089.09.09 0 01-.089.09.09.09 0 00-.089.088.09.09 0 01-.09.09.09.09 0 00-.089.09c0 .048-.033.089-.074.09-.091 0-.343.258-.343.35 0 .036-.04.066-.09.066a.09.09 0 00-.089.09.09.09 0 01-.09.089.09.09 0 00-.089.09.09.09 0 01-.089.088.09.09 0 00-.09.09.09.09 0 01-.089.09c-.049 0-.095.046-.103.103-.008.058-.028-.914-.045-2.16l-.03-2.264-.868-.017c-.477-.009-.886.002-.909.025m15.49.056c-.02.052-.037.186-.037.298 0 .141-.027.204-.09.204-.058 0-.089.059-.089.172 0 .099-.038.187-.089.207-.061.023-.09.12-.09.304 0 .2-.023.27-.089.27-.062 0-.09.062-.09.201 0 .111-.04.235-.088.276-.05.04-.09.145-.09.232a.391.391 0 01-.119.26.395.395 0 00-.12.306c0 .125-.033.215-.089.236-.049.02-.09.1-.09.18 0 .079-.04.16-.088.178-.062.024-.09.12-.09.304 0 .201-.023.27-.09.27-.06 0-.089.06-.089.184 0 .1-.04.223-.09.272-.048.05-.088.181-.088.294 0 .142-.028.204-.09.204-.066 0-.09.069-.09.261 0 .211-.022.267-.118.293-.086.022-.12.081-.12.209 0 .103-.037.192-.089.212-.058.022-.09.115-.09.268 0 .153-.03.246-.089.268-.051.02-.089.11-.089.21 0 .099-.038.188-.09.208-.05.02-.089.108-.089.207 0 .096-.04.207-.09.248-.054.045-.089.176-.089.337 0 .178-.028.273-.089.297-.051.02-.09.108-.09.206 0 .108-.03.173-.083.173-.1 0-.155.129-.155.364 0 .101-.038.19-.09.21-.049.019-.089.1-.089.181 0 .081-.04.188-.089.237a.367.367 0 00-.09.226.31.31 0 01-.089.212c-.1.083-.118.399-.03.536.144.23 1.788.145 1.788-.093a.44.44 0 01.12-.264.474.474 0 00.118-.292c0-.098.04-.187.09-.206.061-.024.09-.12.09-.305 0-.2.023-.27.089-.27.06 0 .09-.06.09-.18 0-.106.036-.195.088-.215.06-.024.09-.118.09-.29s.03-.267.09-.29c.058-.022.089-.116.089-.274v-.24h3.993v.24c0 .158.03.252.089.274.055.022.09.112.09.237 0 .122.046.249.118.321.066.066.12.196.12.29 0 .095.04.206.09.247.048.04.089.164.089.275 0 .139.027.201.089.201.066 0 .09.069.09.261 0 .16.034.29.089.335.049.041.09.11.09.154 0 .193 1.476.31 1.79.142.15-.08.17-.636.027-.692-.052-.019-.09-.108-.09-.206a.475.475 0 00-.119-.292.474.474 0 01-.12-.33c0-.132-.032-.223-.089-.244-.05-.02-.089-.109-.089-.209 0-.1-.038-.189-.09-.208-.048-.02-.089-.107-.089-.196a.536.536 0 00-.087-.276.555.555 0 01-.09-.282c0-.091-.042-.18-.091-.2-.05-.019-.09-.107-.09-.2 0-.115-.035-.174-.118-.196-.1-.026-.12-.082-.12-.337 0-.216-.026-.315-.089-.34-.055-.02-.09-.111-.09-.236 0-.14-.027-.202-.089-.202s-.089-.063-.089-.204c0-.113-.04-.245-.09-.294a.449.449 0 01-.089-.273c0-.123-.03-.183-.09-.183s-.089-.06-.089-.18c0-.106-.037-.195-.089-.215-.058-.023-.09-.114-.09-.257 0-.147-.04-.26-.119-.331a.42.42 0 01-.119-.307c0-.138-.028-.2-.09-.2-.061 0-.089-.062-.089-.204 0-.112-.04-.244-.09-.293a.46.46 0 01-.088-.275c0-.11-.037-.199-.09-.219-.051-.02-.09-.109-.09-.207 0-.113-.03-.172-.089-.172-.063 0-.089-.065-.089-.225a.722.722 0 00-.082-.343 1.067 1.067 0 01-.125-.315c-.023-.109-.08-.212-.126-.23-.049-.019-.084-.115-.084-.228 0-.12-.035-.21-.09-.23-.049-.02-.09-.102-.09-.185v-.151h-1.006c-.863 0-1.011.013-1.043.094m28.821.815l.016.908.681.017c.83.021.778.088.779-.985v-.85h-1.492l.016.91m-76.191-.418c-.015.074-.027.027-.028-.104 0-.13.011-.192.026-.135a.658.658 0 01.002.239m-11.187.143c0 .047.04.1.09.119.062.024.089.122.089.326 0 .22-.022.291-.09.291-.05 0-.089-.053-.089-.119s-.04-.119-.09-.119c-.059 0-.089-.06-.089-.179s-.03-.178-.09-.178c-.107 0-.12-.218-.014-.254.123-.041.283.023.283.114m64.64 0c-.022.022-.04.532-.04 1.133v1.092h-.562c-.72 0-.75.026-.75.65s.044.662.765.662h.547v2.61c0 2.203.013 2.629.087 2.726a.462.462 0 01.09.22c0 .058.042.105.091.105.05 0 .09.04.09.09 0 .049.052.088.118.088.08 0 .12.04.12.12 0 .091.04.119.174.119.095 0 .184.033.198.074.026.08 1.655.147 1.92.08.234-.058.347-.37.321-.885-.03-.596-.078-.635-.79-.638-.745-.003-.687.204-.689-2.46l-.002-2.25h.64c.815-.002.814 0 .84-.586.033-.719.027-.725-.797-.725h-.683V18.6c-.002-1.393.084-1.266-.861-1.266-.433 0-.806.018-.828.04m-52.514.35c.284.282.3.563.032.563-.1 0-.18.033-.183.075-.004.06-.01.06-.035 0a.132.132 0 00-.114-.075c-.047 0-.085-.041-.085-.091a.147.147 0 00-.09-.126c-.048-.018-.088-.071-.088-.117 0-.046-.04-.083-.09-.083-.06 0-.09-.06-.09-.179 0-.284.447-.265.743.032m9.78.147c.047 0 .085.04.085.09 0 .049.038.089.084.089.045 0 .097.038.115.085.018.047.108.096.2.11.092.014-.014.03-.235.034l-.402.01.007-.314c.004-.172.02-.265.034-.208.015.057.066.104.112.104m-14.315.09c-.02.05-.108.089-.207.089-.094 0-.172.026-.172.058 0 .1-.166-.002-.197-.122-.027-.103.003-.115.29-.115.26 0 .314.017.286.09m5.878.268c0 .032-.04.06-.089.06-.066 0-.09.069-.09.267 0 .2.024.268.09.268.049 0 .09.04.09.09 0 .062-.063.09-.209.09-.227 0-.322-.302-.12-.38.052-.02.09-.108.09-.21 0-.118.035-.186.104-.204a1.7 1.7 0 00.12-.034c.008-.004.014.02.014.053m-8.7.29c0 .241-.02.297-.12.323-.11.029-.119.081-.119.752v.72h.298c.292 0 .298-.004.298-.178 0-.12.03-.18.09-.18.049 0 .09-.036.09-.082 0-.046.04-.099.089-.117a.147.147 0 00.089-.126c0-.05.04-.091.09-.091a.09.09 0 00.089-.09c0-.05.04-.09.09-.09.049 0 .088-.04.088-.089 0-.05.053-.089.12-.089.066 0 .119-.04.119-.09a.09.09 0 01.09-.089.09.09 0 00.088-.09.09.09 0 01.09-.089.09.09 0 010 .18c-.05 0-.09.037-.09.082 0 .046-.04.099-.089.118a.147.147 0 00-.09.125.09.09 0 01-.089.091c-.066 0-.09.07-.09.269 0 .256.009.268.174.268.098 0 .187.038.206.09.023.06.12.089.305.089.2 0 .27.023.27.089 0 .049-.043.09-.096.09-.052 0-.108.053-.125.119-.03.111-.082.119-.859.119-.696 0-.827.014-.827.09a.09.09 0 01-.09.089c-.059 0-.09.058-.09.171 0 .122-.034.181-.119.203-.088.024-.119.002-.119-.082 0-.062-.04-.113-.089-.113-.06 0-.09-.06-.09-.18 0-.119-.03-.178-.089-.178-.074 0-.09-.115-.09-.68 0-.548.018-.685.09-.712.066-.026.09-.13.09-.394v-.36h.178c.12 0 .18-.03.18-.089 0-.05.013-.09.029-.09s.03.132.03.292m6.019.068c0 .101.037.195.084.213.198.076.154.202-.071.202h-.222l.02-.298c.024-.337.189-.44.189-.117m-2.801.147c0 .06-.06.09-.181.09-.105 0-.195.037-.215.089-.018.05-.071.09-.117.09-.06 0-.083.082-.083.297v.298h.363c.313 0 .367-.016.394-.119.024-.09.078-.117.218-.112.103.003.14.019.082.034-.057.015-.104.065-.104.112a.088.088 0 01-.089.085.09.09 0 00-.09.09.09.09 0 01-.089.09c-.066 0-.09.068-.09.267v.268h.358c.27 0 .358.021.358.085 0 .048.06.097.134.112.083.016.05.029-.09.034-.155.005-.223.035-.223.097 0 .066-.07.09-.268.09-.199 0-.268.023-.268.09 0 .068-.08.088-.36.088-.264 0-.368.024-.393.09-.022.055-.112.09-.237.09-.14 0-.202-.028-.202-.09 0-.063.063-.09.209-.09.145 0 .208-.027.208-.089 0-.05.04-.09.09-.09.07 0 .089-.082.089-.387s-.02-.387-.09-.387a.09.09 0 01-.089-.09c0-.048-.027-.089-.06-.089-.134 0-.28-.212-.197-.29a.295.295 0 00.078-.19c0-.063.04-.116.09-.116.06 0 .09-.06.09-.179 0-.151.022-.179.15-.179.083 0 .166-.04.185-.089.021-.055.112-.09.236-.09.14 0 .203.028.203.09m51.693.417c.024.125.074.209.126.209.063 0 .087.073.087.27 0 .185.028.28.09.304.06.024.089.119.089.297 0 .192.023.261.089.261.06 0 .09.06.09.18 0 .107.037.196.089.216.062.024.09.12.09.322 0 .175.034.321.089.376.049.05.089.13.089.178 0 .154.07.277.156.277.058 0 .082.079.082.264 0 .202.025.27.105.291.057.015-.553.028-1.356.028s-1.413-.013-1.356-.028c.08-.02.105-.09.105-.284 0-.174.029-.269.089-.292.052-.02.09-.11.09-.215 0-.12.029-.18.089-.18.065 0 .09-.068.09-.247 0-.152.034-.272.09-.313.05-.037.108-.174.129-.304.021-.131.074-.274.118-.317.044-.044.08-.169.08-.277 0-.121.034-.212.089-.233.06-.023.09-.119.09-.304 0-.2.022-.27.088-.27.063 0 .09-.063.09-.209 0-.138.028-.208.082-.208.048 0 .1.089.122.208m-48.192.25c-.073.02-.104.087-.104.226 0 .169-.018.194-.12.167-.25-.065-.16-.435.105-.427.123.003.176.019.119.034m2.339.078c0 .066-.04.12-.09.12-.049 0-.089.052-.089.117 0 .08-.028.106-.09.082-.187-.071-.113-.438.09-.438.14 0 .179.026.179.12m56.338.029c-.021.054-.111.09-.23.09-.107 0-.228.04-.269.089a.278.278 0 01-.186.09c-.061 0-.112.04-.112.088 0 .05-.048.09-.107.09-.06 0-.21.094-.335.208-.126.115-.252.21-.28.21-.029 0-.052.036-.052.081 0 .045-.04.116-.09.156a.268.268 0 00-.089.18c0 .057-.054.119-.12.136a.16.16 0 00-.119.148c0 .065-.04.151-.089.192a.32.32 0 00-.09.22.38.38 0 01-.089.235c-.062.063-.09.215-.09.503 0 .327-.018.413-.088.413-.129 0-.13 1.174-.002 1.344.054.071.088.254.09.477 0 .222.034.405.088.476a.496.496 0 01.09.246.37.37 0 00.091.22c.05.048.09.117.09.152 0 .035.053.064.118.064.093 0 .12.04.12.181 0 .105.037.195.09.215.048.018.089.072.089.117 0 .046.04.083.09.083.049 0 .088.04.088.09 0 .049.04.089.09.089.05 0 .09.04.09.09 0 .05.052.089.118.089.067 0 .12.04.12.09 0 .058.058.088.171.088.122 0 .181.035.204.12a.158.158 0 00.158.119c.07 0 .19.042.268.093.176.115 2.807.106 2.88-.011.024-.037.13-.086.237-.11.108-.022.193-.078.193-.126 0-.046.04-.084.09-.084.05 0 .09-.04.09-.09 0-.06.059-.09.178-.09.12 0 .179-.029.179-.089 0-.049.033-.09.075-.09.076-.001.342-.253.342-.324 0-.023.04-.081.09-.13a.336.336 0 00.089-.205c0-.063.04-.115.09-.115.048 0 .089-.044.089-.098a.24.24 0 01.097-.168c.06-.044.109-.191.126-.38.02-.206.057-.307.112-.307.06 0 .082-.099.082-.384 0-.211.027-.4.06-.42.032-.021.059-.249.059-.507 0-.259-.027-.487-.06-.507-.032-.02-.06-.237-.06-.482 0-.34-.02-.453-.088-.48-.05-.018-.09-.091-.091-.161-.001-.222-.07-.397-.155-.397-.052 0-.082-.066-.082-.18 0-.106-.038-.195-.09-.215-.05-.019-.09-.072-.09-.117 0-.046-.04-.083-.089-.083-.049 0-.089-.034-.09-.075 0-.11-.396-.521-.502-.521a.091.091 0 01-.093-.09.09.09 0 00-.09-.09.09.09 0 01-.089-.088c0-.06-.06-.09-.179-.09s-.178-.03-.178-.09c0-.067-.073-.089-.298-.089-.226 0-.298-.021-.298-.09 0-.076-.17-.088-1.164-.088-.98 0-1.17.014-1.198.089m8.083 0c0 .065-.067.09-.24.09-.16 0-.252.03-.275.089-.019.049-.085.09-.147.09-.062 0-.113.04-.113.088a.09.09 0 01-.09.09.09.09 0 00-.089.09.09.09 0 01-.09.089c-.065 0-.088-.07-.088-.27v-.27l-.76.016-.76.017v3.705c0 2.037.022 3.727.05 3.754.072.073 1.305.094 1.41.024.077-.05.09-.372.09-2.281 0-1.713.016-2.233.074-2.27.04-.026.074-.156.074-.287 0-.134.04-.28.09-.33a.338.338 0 00.09-.204c0-.063.04-.114.088-.114.05 0 .09-.043.09-.094 0-.12.143-.264.264-.264a.092.092 0 00.093-.09c0-.05.053-.089.12-.089.066 0 .119-.04.119-.09 0-.073.106-.088.596-.088.35 0 .596.023.596.058 0 .032.067.075.149.096.082.02.148.068.148.106 0 .037.054.102.12.143.116.072.119.139.119 2.8v2.727l.151.163c.158.17.805.232 1.332.127l.186-.038v-2.46c0-2.13.012-2.463.09-2.493.058-.022.088-.116.088-.274 0-.174.025-.24.09-.24.06 0 .09-.06.09-.18 0-.15.022-.178.15-.178.083 0 .166-.04.185-.09.019-.049.085-.089.147-.089.062 0 .113-.04.113-.09 0-.073.112-.088.65-.088.521 0 .655.017.683.089.019.049.075.09.125.09s.092.04.092.089c0 .049.04.089.09.089.059 0 .088.06.088.18 0 .106.038.195.09.215.078.03.09.39.09 2.736V27.1l.252.037c.14.02.468.029.731.018l.476-.018.016-3.354c.013-2.944.004-3.358-.075-3.388-.05-.02-.09-.062-.09-.095 0-.078-.444-.523-.523-.523-.033 0-.075-.04-.094-.09-.023-.058-.116-.089-.275-.089-.174 0-.24-.024-.24-.09 0-.075-.16-.088-1.075-.088-.9 0-1.08.014-1.109.089-.02.055-.111.09-.236.09-.14 0-.202.027-.202.089a.09.09 0 01-.092.09c-.088 0-.376.18-.555.345-.046.043-.123.063-.17.045a.51.51 0 00-.142-.033c-.03 0-.054-.04-.054-.09a.09.09 0 00-.09-.09.09.09 0 01-.09-.088.09.09 0 00-.088-.09.09.09 0 01-.09-.09c0-.058-.059-.089-.172-.089-.099 0-.188-.038-.207-.09-.028-.074-.202-.088-1.05-.088-.862 0-1.014.013-1.014.089m13.766 0c-.043.051-.173.09-.307.09-.152 0-.245.03-.268.089-.018.049-.085.09-.148.09-.064 0-.13.04-.149.088-.019.05-.072.09-.118.09-.045 0-.083.04-.083.09 0 .048-.038.089-.084.089-.114 0-.512.392-.512.505 0 .05-.04.09-.089.09-.049 0-.089.038-.089.084 0 .045-.041.098-.09.117-.053.02-.089.11-.089.22a.45.45 0 01-.09.273.42.42 0 00-.089.258c0 .095-.039.183-.089.203-.077.029-.09.248-.09 1.468s.013 1.439.09 1.468c.058.022.089.115.089.268 0 .153.031.246.089.268.049.02.09.075.09.123 0 .19.391.733.528.733.037 0 .068.04.068.09 0 .049.04.089.089.089.05 0 .09.04.09.09 0 .048.04.089.089.089a.09.09 0 01.089.09c0 .058.059.088.172.088.122 0 .181.035.203.12.022.081.081.119.19.119.088 0 .199.04.248.09.133.132 2.592.132 2.725 0 .049-.05.16-.09.248-.09.109 0 .168-.038.19-.12.02-.077.081-.119.175-.119.079 0 .159-.04.178-.089.019-.05.072-.09.117-.09.046 0 .083-.04.083-.089a.09.09 0 01.09-.089.09.09 0 00.089-.09.09.09 0 01.089-.089c.05 0 .09-.034.09-.076 0-.042.053-.122.119-.178.066-.056.119-.156.119-.222 0-.067.04-.12.09-.12.059 0 .089-.058.089-.172 0-.098.038-.187.09-.207.062-.024.089-.122.089-.327 0-.187.032-.319.089-.367.132-.109.108-.308-.056-.463-.229-.217-1.483-.179-1.514.047-.011.081-.058.17-.104.196-.052.03-.084.148-.084.313 0 .184-.025.265-.081.265-.044 0-.132.07-.193.156-.165.23-.333.38-.422.38-.043 0-.078.04-.078.09 0 .062-.063.09-.204.09-.263 0-.392.05-.392.155 0 .14-.491.11-.583-.036-.054-.087-.139-.12-.312-.12-.172 0-.238-.024-.238-.09 0-.048-.033-.09-.074-.091-.041-.002-.14-.082-.221-.179-.08-.097-.181-.176-.223-.176-.043 0-.077-.067-.077-.151 0-.083-.041-.166-.09-.185-.051-.02-.089-.109-.089-.209 0-.1-.039-.189-.09-.208-.074-.029-.089-.194-.089-.975 0-.782.015-.947.089-.975.059-.023.09-.116.09-.275 0-.132.027-.24.061-.24s.079-.045.1-.1a.75.75 0 01.147-.209c.06-.06.109-.149.109-.198 0-.05.053-.089.121-.089.066 0 .136-.04.155-.09.019-.049.074-.089.122-.089s.127-.04.176-.09c.07-.069.248-.088.801-.088.592 0 .711.014.711.089 0 .049.041.09.091.09a.146.146 0 01.125.089c.019.049.072.089.118.089.045 0 .083.024.083.053 0 .03.079.138.175.241a.684.684 0 01.194.409l.018.22.819.017.82.017v-.501c0-.373-.023-.52-.089-.575a.315.315 0 01-.09-.218c0-.079-.04-.159-.089-.178-.05-.019-.09-.071-.09-.117 0-.046-.053-.083-.119-.083-.088 0-.119-.04-.119-.154 0-.117-.044-.171-.179-.222-.098-.037-.179-.102-.179-.144 0-.042-.037-.076-.083-.076-.045 0-.098-.04-.117-.09-.019-.048-.099-.089-.179-.089-.079 0-.16-.04-.179-.09-.021-.055-.111-.089-.237-.089-.112 0-.237-.04-.277-.09-.062-.073-.271-.088-1.192-.088-.921 0-1.131.015-1.192.089m-4.648 3.837c0 3.363.009 3.752.094 3.785.122.047 1.179.047 1.301 0 .085-.033.094-.422.094-3.785v-3.748h-1.489v3.748m-69.546-3.211c0 .119-.03.178-.09.178s-.089-.06-.089-.178c0-.12.03-.18.09-.18.059 0 .089.06.089.18m.774.089c0 .06.06.09.18.09.158 0 .178.02.178.178 0 .12.03.179.09.179.049 0 .089.053.089.119s-.04.12-.09.12a.09.09 0 00-.09.089c0 .073-.102.09-.565.09-.463 0-.566-.017-.566-.09 0-.06.06-.09.179-.09h.178v-.774h.209c.145 0 .208.026.208.089m-8.164.596a.09.09 0 01-.09.09.09.09 0 00-.089.089.09.09 0 01-.089.09.09.09 0 00-.09.089c0 .065-.068.089-.253.09-.139 0-.307.01-.372.02-.066.012-.086.01-.045-.004.041-.015.075-.064.075-.111s.04-.085.089-.085c.05 0 .09-.04.09-.09 0-.059.059-.088.178-.088.12 0 .179-.03.179-.09 0-.063.063-.09.209-.09.145 0 .208.027.208.09m7.032 0c0 .05-.053.09-.12.09-.065 0-.118-.04-.118-.09 0-.05.053-.09.119-.09s.12.04.12.09m54.549.179c.019.049.102.09.185.09s.151.027.151.06c0 .034.045.08.1.1.104.04.317.233.317.288 0 .017.08.11.179.207.119.116.179.234.179.35 0 .098.042.22.093.27.136.137.136 1.7 0 1.895a.612.612 0 00-.093.299c0 .107-.031.165-.09.165-.06 0-.09.06-.09.179 0 .12-.029.179-.088.179a.09.09 0 00-.09.09.09.09 0 01-.09.089.09.09 0 00-.089.089c0 .06-.06.09-.18.09-.106 0-.195.037-.215.089-.02.05-.108.09-.202.09-.228 0-.356.055-.356.155 0 .127-.339.102-.477-.036a.476.476 0 00-.3-.12c-.105 0-.194-.037-.215-.09-.02-.05-.108-.089-.206-.089-.114 0-.173-.03-.173-.089a.09.09 0 00-.09-.09.09.09 0 01-.089-.089.09.09 0 00-.089-.09.09.09 0 01-.09-.089.09.09 0 00-.089-.089c-.058 0-.09-.058-.09-.166a.587.587 0 00-.08-.282c-.044-.065-.097-.306-.118-.535-.024-.262-.07-.441-.126-.482-.076-.056-.076-.075 0-.15.052-.053.1-.273.125-.562.025-.3.069-.492.12-.523.044-.026.08-.126.08-.223 0-.103.032-.176.076-.176.042 0 .129-.12.194-.267.09-.204.15-.268.253-.269.075 0 .151-.04.17-.09a.16.16 0 01.14-.089.27.27 0 00.18-.09c.057-.067.211-.088.657-.088.462 0 .589.018.616.089m-55.307.566c.03.114.081.119 1.204.119s1.175-.005 1.204-.12c.025-.092.078-.117.248-.111.12.003.17.019.113.034-.058.015-.105.065-.105.112s-.04.085-.091.085a.147.147 0 00-.126.09c-.018.049-.071.089-.117.089-.045 0-.083.04-.083.09 0 .072-.103.088-.566.088-.463 0-.566-.016-.566-.089 0-.07-.083-.09-.388-.09-.304 0-.387.02-.387.09 0 .067-.07.09-.268.09-.215 0-.269.02-.27.104-.002.1-.005.1-.063 0-.041-.072-.134-.104-.296-.104-.17 0-.235-.026-.235-.09a.09.09 0 00-.09-.09c-.062 0-.09-.062-.09-.208v-.208h.47c.42 0 .474.012.502.119m-6.811.745c0 .06.06.09.179.09.158 0 .178.02.178.178 0 .12.03.179.09.179.05 0 .09.053.09.12 0 .065.039.118.088.118.05 0 .09.04.09.09 0 .049.04.089.09.089.059 0 .089.06.089.179s.03.178.09.178.088.06.088.185c0 .134.033.193.12.215.084.022.119.082.119.203 0 .113.03.172.09.172.067 0 .089.073.089.298 0 .225.022.298.09.298.069 0 .088.08.088.358 0 .278-.02.357-.089.357-.05 0-.09.053-.09.12 0 .066-.039.119-.089.119-.049 0-.089.037-.089.082 0 .045-.054.096-.12.114-.1.026-.119.081-.119.34s.02.314.12.34c.138.036.163.256.03.256a.09.09 0 00-.09.09c0 .062-.063.089-.209.089-.145 0-.208-.027-.208-.09 0-.049-.047-.092-.105-.096-.099-.007-.099-.008 0-.034.146-.038.16-1.33.015-1.33-.066 0-.089-.07-.089-.268s-.023-.268-.09-.268c-.059 0-.089-.06-.089-.179 0-.14-.026-.179-.119-.179-.102 0-.12-.04-.12-.27 0-.185-.027-.28-.088-.304-.051-.02-.09-.108-.09-.207 0-.113-.03-.172-.09-.172-.059 0-.089-.06-.089-.179 0-.12-.03-.179-.09-.179-.049 0-.088-.053-.088-.119s-.04-.12-.09-.12c-.052 0-.09-.054-.09-.133-.001-.134-.23-.402-.343-.402-.033 0-.073-.054-.09-.12-.029-.107-.003-.119.262-.119.207 0 .305-.026.33-.09.02-.054.111-.089.235-.089.14 0 .203.028.203.09m2.026-.006c0 .045-.04.098-.09.117a.146.146 0 00-.089.125.09.09 0 01-.09.092c-.062 0-.088-.063-.088-.209 0-.192.014-.209.178-.209.113 0 .18.031.18.084m7.389.304c0 .192-.014.208-.18.208-.115 0-.178-.03-.178-.085 0-.056-.08-.095-.224-.11-.203-.021-.197-.024.062-.033.191-.007.296-.04.32-.1.067-.175.2-.096.2.12m-14.78.357v.388h-.357v-.775h.357v.387m.775-.296c0 .05.04.107.09.126.162.062.1.2-.09.2-.165 0-.179-.016-.179-.208 0-.146.027-.21.09-.21a.09.09 0 01.09.092m12.514.028c0 .066.037.12.083.12.046 0 .098.04.117.089.02.049.102.09.185.09.095 0 .151.033.151.088 0 .05.053.09.12.09.065 0 .118.04.118.09 0 .071.093.089.477.089h.477v.596h-.209c-.145 0-.208.027-.208.09a.09.09 0 11-.18 0c0-.063-.062-.09-.207-.09-.146 0-.209-.027-.209-.09 0-.06-.06-.089-.179-.089-.12 0-.179-.03-.179-.09a.09.09 0 00-.089-.089c-.05 0-.09-.053-.09-.12 0-.065-.039-.118-.089-.118a.09.09 0 01-.09-.09c0-.049-.037-.09-.082-.09-.046 0-.099-.04-.118-.088a.147.147 0 00-.125-.09c-.065 0-.091-.061-.091-.208 0-.2.01-.21.208-.21.17 0 .209.024.209.12m-.575.834c.02.105.073.18.126.18.07 0 .091.07.091.297 0 .215-.023.298-.083.298-.09 0-.155.125-.155.303 0 .063-.04.114-.09.114-.074 0-.089-.116-.089-.685 0-.69.108-.965.2-.506m-8.21.178c.056 0 .084.068.084.209 0 .146.027.209.09.209.06 0 .089.059.089.178 0 .12.03.18.09.18.066 0 .088.069.088.269 0 .185.029.28.09.304.06.024.09.118.09.29s-.03.267-.09.29a.147.147 0 00-.09.125.09.09 0 01-.089.092c-.058 0-.09.059-.09.172 0 .098-.038.187-.089.207-.049.019-.089.102-.089.185 0 .184-.69.235-.834.061a.315.315 0 00-.216-.089c-.086 0-.142-.035-.142-.09a.09.09 0 00-.09-.089.09.09 0 01-.089-.09c0-.059-.06-.089-.178-.089-.12 0-.18-.03-.18-.089s-.058-.09-.171-.09c-.122 0-.181-.034-.203-.118-.023-.09-.002-.12.082-.12.063 0 .114-.04.114-.09 0-.059.06-.089.179-.089s.179-.03.179-.089c0-.05.04-.09.089-.09.05 0 .09-.04.09-.089 0-.05.04-.09.089-.09.05 0 .09-.04.09-.089 0-.049.042-.089.094-.089s.109-.054.126-.12c.017-.064.069-.118.114-.118.06 0 .082-.092.082-.353 0-.344.005-.354.18-.392.098-.022.178-.078.178-.124 0-.047.04-.085.09-.085.048 0 .092-.047.096-.104.006-.1.008-.1.034 0 .015.057.065.104.112.104m7.465.522c-.006.286-.02.42-.034.298-.014-.135-.055-.224-.102-.224-.046 0-.09-.083-.102-.194-.033-.287.005-.402.133-.402.105 0 .114.043.105.522m-.408.833c0 .256-.37.552-.689.552-.253 0-.264-.007-.264-.179 0-.159.02-.178.18-.178.106 0 .196-.038.216-.09.019-.049.071-.09.117-.09a.084.084 0 00.083-.084c0-.09.157-.149.283-.106.041.013.074.093.074.175m-6.025 1.372c-.004.221-.02.355-.034.297-.016-.057-.066-.104-.113-.104-.057 0-.085-.068-.085-.208 0-.146.027-.209.09-.209a.09.09 0 00.089-.09c0-.049.013-.089.03-.089.016 0 .026.181.023.403m8.707.223c0 .05.04.09.09.09.06 0 .089.06.089.18 0 .106.037.195.09.215.065.025.089.128.089.385 0 .273.02.352.09.352.069 0 .089.08.089.363 0 .313.016.367.119.394.096.026.119.081.119.294 0 .18.029.275.09.298.05.02.089.108.089.207 0 .113.03.172.09.172a.09.09 0 01.088.09c0 .048.04.089.09.089.05 0 .09.04.09.09 0 .048.04.089.089.089.05 0 .09.04.09.089 0 .1-.208.328-.299.328-.033 0-.06.04-.06.09a.09.09 0 01-.089.089.09.09 0 00-.09.089c0 .05-.04.09-.089.09a.09.09 0 00-.089.089c0 .05-.053.09-.12.09a.412.412 0 00-.238.118c-.065.066-.145.12-.178.12s-.06.04-.06.089c0 .05-.04.09-.09.09a.09.09 0 00-.089.088c0 .05-.04.09-.09.09-.058 0-.089.059-.089.172 0 .122-.034.18-.119.203-.113.03-.119.002-.119-.56 0-.484.016-.59.09-.59.077 0 .089-.271.089-2.086 0-2.046.002-2.085.12-2.085.065 0 .118.04.118.09m-12.872 2.264c0 1.894.012 2.175.09 2.175.07 0 .088.079.084.372-.002.205-.018.34-.035.298a.132.132 0 00-.114-.074.087.087 0 01-.085-.09.09.09 0 00-.089-.09.09.09 0 01-.09-.088c0-.06-.059-.09-.178-.09-.12 0-.179-.03-.179-.09a.09.09 0 00-.09-.089c-.049 0-.089-.03-.089-.067 0-.076-.277-.35-.354-.35-.027 0-.066-.04-.084-.089-.02-.05-.103-.09-.185-.09-.095 0-.151-.033-.151-.089a.09.09 0 00-.09-.09.09.09 0 01-.09-.088.09.09 0 00-.089-.09c-.069 0-.063-.026.03-.12a.444.444 0 01.268-.118c.126 0 .15-.028.15-.18 0-.118.029-.178.089-.178.067 0 .09-.072.09-.291 0-.241.02-.296.118-.322.101-.027.12-.081.12-.357 0-.217.03-.351.089-.4.064-.053.09-.193.09-.485 0-.324.018-.41.089-.41.05 0 .09-.052.09-.119 0-.066.039-.119.089-.119a.09.09 0 00.089-.09.09.09 0 01.09-.089.09.09 0 00.089-.09c0-.049.053-.088.119-.088.117 0 .119.04.119 2.175m3.776-1.669c.02.052.11.09.215.09.12 0 .18.029.18.089a.09.09 0 01-.09.09c-.051 0-.11.046-.13.103a.338.338 0 01-.118.152c-.043.027-.079.11-.079.188 0 .077-.04.155-.09.174-.048.019-.088.102-.088.185 0 .094-.034.15-.09.15a.09.09 0 01-.09-.089c0-.05-.052-.09-.118-.09-.067 0-.12-.039-.12-.088 0-.06-.06-.09-.178-.09-.14 0-.179-.026-.179-.119 0-.066.04-.12.09-.12.048 0 .089-.036.089-.082 0-.045.053-.096.119-.113a.16.16 0 00.119-.162.158.158 0 00-.12-.161c-.064-.017-.118-.068-.118-.114 0-.123.749-.117.796.007m4.15.09c0 .119-.03.178-.09.178-.062 0-.089.063-.089.209 0 .145-.027.208-.09.208-.059 0-.089.06-.089.18 0 .118-.03.178-.089.178-.06 0-.091.064-.096.194-.004.106-.02.146-.034.089-.015-.057-.066-.104-.113-.104-.055 0-.085-.064-.085-.18 0-.118-.03-.178-.09-.178a.09.09 0 01-.089-.09.09.09 0 00-.089-.089c-.062 0-.09-.063-.09-.208 0-.146-.026-.209-.089-.209-.06 0-.09-.06-.09-.178v-.18h1.312v.18m1.728 0c0 .119-.03.178-.09.178-.059 0-.089.06-.089.18 0 .118.03.178.09.178.05 0 .09.053.09.119s-.04.12-.09.12c-.05 0-.09.037-.09.082 0 .05-.082.093-.208.107-.17.02-.209.005-.209-.083 0-.059-.04-.107-.089-.107-.059 0-.09-.059-.09-.172 0-.099-.038-.187-.089-.207-.05-.019-.09-.103-.09-.187s-.04-.168-.089-.187c-.286-.11-.07-.2.477-.2h.566v.179m-8.343.447c0 .048.04.089.09.089.069 0 .062.026-.03.119-.173.172-.239.147-.239-.09 0-.145.027-.208.09-.208.05 0 .09.04.09.09m10.25.215c0 .088-.045.112-.21.112-.227 0-.313-.207-.104-.252.178-.038.313.023.313.14m-6.078.29c0 .14-.027.18-.12.18-.092 0-.119-.04-.119-.18 0-.138.027-.178.12-.178.092 0 .119.04.119.179m-4.172 1.52c0 .145-.027.208-.09.208-.062 0-.089-.063-.089-.209 0-.145.027-.208.09-.208.062 0 .09.063.09.208m1.821-.03c.047 0 .085.054.085.12 0 .096-.04.12-.209.12-.168 0-.208-.024-.208-.12 0-.066.04-.12.09-.12.048 0 .092-.046.096-.104.006-.099.008-.099.034 0 .015.058.065.105.112.105m5.303.179c.059 0 .086.067.086.208 0 .146.027.209.09.209.066 0 .089.07.089.268 0 .305-.157.391-.19.104-.037-.315-.585-.239-.585.082 0 .086-.035.142-.09.142-.06 0-.089.06-.089.178 0 .12-.03.18-.09.18-.059 0-.089.059-.089.178 0 .12-.03.179-.089.179-.062 0-.091.067-.096.223-.004.123-.02.177-.034.12-.015-.058-.066-.105-.113-.105s-.085-.053-.085-.119-.04-.12-.09-.12c-.059 0-.089-.059-.089-.178 0-.12-.03-.179-.089-.179-.06 0-.09-.06-.09-.179s-.03-.178-.089-.178c-.05 0-.09-.053-.09-.12 0-.065-.036-.119-.082-.119-.046 0-.1-.042-.119-.093-.06-.158-.36-.086-.385.093-.011.082-.058.17-.104.197-.046.026-.084.084-.084.128s-.04.095-.09.114c-.048.019-.088.1-.088.179 0 .08-.04.16-.09.179-.05.018-.09.102-.09.185 0 .11-.03.15-.119.15-.066 0-.119-.04-.119-.089a.09.09 0 00-.09-.09c-.059 0-.088-.059-.088-.178 0-.12-.03-.179-.09-.179-.063 0-.09-.063-.09-.208 0-.142-.027-.209-.085-.209-.049 0-.093-.07-.104-.164-.03-.268-.525-.285-.525-.018 0 .143-.026.182-.12.182-.092 0-.119-.04-.119-.179 0-.119.03-.178.09-.178.059 0 .089-.06.089-.172 0-.122.035-.181.12-.203.086-.023.118-.082.118-.216 0-.124.03-.184.09-.184.05 0 .09.04.09.09 0 .048.04.089.088.089.063 0 .09.063.09.208 0 .146.027.209.09.209.054 0 .089.056.089.146 0 .08.037.167.083.194.046.026.093.114.105.196.024.178.587.272.587.1 0-.048.04-.103.089-.122.049-.018.09-.099.09-.178 0-.08.04-.16.089-.18.052-.02.09-.108.09-.214 0-.12.028-.18.088-.18s.09-.06.09-.18c0-.139.026-.178.119-.178.066 0 .119.04.119.09 0 .048.04.089.09.089.062 0 .089.063.089.208 0 .146.027.209.09.209.055 0 .089.056.089.15 0 .084.04.167.089.186.05.019.09.072.09.117 0 .046.04.083.089.083.05 0 .09.04.09.09 0 .062.062.089.208.089s.208-.027.208-.09a.09.09 0 01.09-.089c.06 0 .09-.06.09-.179s.029-.178.089-.178.089-.06.089-.18c0-.119.03-.178.09-.178.062 0 .089-.063.089-.209 0-.145.027-.208.09-.208.048 0 .093-.047.098-.105.005-.057.02-.017.034.09.014.117.057.194.11.194m1.132-.18c.047 0 .085.054.085.12 0 .096-.04.12-.208.12-.17 0-.209-.024-.209-.12 0-.066.04-.12.09-.12.049 0 .092-.046.096-.104.006-.099.008-.099.034 0 .015.058.066.105.112.105m1.992.126c0 .088-.044.112-.209.112-.227 0-.313-.207-.104-.252.178-.038.313.023.313.14m16.118 1.08c-.016.041-.022 2.3-.013 5.022l.015 4.946 3.333.015 3.333.015.138-.13c.128-.12.14-.178.14-.745v-.615h-5.498l.047-.164c.076-.265.101-2.468.03-2.54-.035-.034-.063-.083-.063-.11 0-.025 1.083-.047 2.407-.047 2.824 0 2.55.091 2.527-.843l-.017-.676-2.459-.016c-2.263-.014-2.602-.037-2.398-.163.036-.023.06-.476.06-1.162 0-.687-.024-1.14-.06-1.162-.209-.13.137-.15 2.594-.15h2.654l-.017-.76-.017-.76-3.353-.015c-2.652-.012-3.36 0-3.383.06m45.562.045a.473.473 0 00-.12.292c0 .098-.038.187-.089.207-.049.018-.09.102-.09.185a.448.448 0 01-.118.27.471.471 0 00-.122.283.55.55 0 01-.09.28.537.537 0 00-.086.276c0 .089-.04.177-.09.195-.05.02-.09.109-.09.208 0 .096-.04.207-.088.248-.05.04-.09.162-.09.269 0 .118-.035.208-.09.229-.05.02-.089.109-.089.208 0 .1-.038.19-.088.209-.049.018-.105.14-.126.27-.021.131-.075.252-.12.27-.046.017-.084.105-.085.196a.558.558 0 01-.09.282.595.595 0 00-.087.306c0 .115-.035.205-.09.225-.048.02-.088.105-.088.19s-.04.195-.09.244c-.05.05-.09.179-.09.288 0 .12-.034.211-.089.232-.059.023-.089.116-.089.274 0 .166-.026.24-.083.24-.1 0-.156.13-.156.363 0 .115-.03.174-.089.174-.06 0-.09.06-.09.181 0 .105-.037.195-.089.215-.06.023-.09.118-.09.296 0 .193-.022.262-.089.262-.062 0-.089.063-.089.208 0 .146-.027.209-.09.209-.065 0-.089.07-.089.268 0 .2-.023.268-.09.268-.053 0-.106.074-.127.178a.51.51 0 01-.117.245c-.094.078-.11.456-.025.59.044.07.218.094.78.11l.721.02.173-.17a.487.487 0 00.174-.392c0-.158.027-.223.09-.223s.09-.062.09-.203c0-.124.034-.215.09-.236.058-.022.089-.115.089-.268 0-.153.031-.246.09-.268.052-.02.089-.11.089-.215a.48.48 0 01.119-.3c.08-.08.12-.199.12-.358v-.238h3.739l.035.179c.021.105.074.178.127.178.067 0 .09.067.09.263 0 .177.03.272.09.296.06.022.09.116.09.276 0 .16.03.253.089.276.051.02.09.109.09.209 0 .1.037.189.089.208.058.023.089.116.089.27 0 .215.16.536.328.66.151.11 1.515.05 1.639-.074.14-.14.156-.347.03-.395-.05-.02-.09-.106-.09-.192-.002-.25-.066-.426-.156-.426-.052 0-.082-.066-.082-.178 0-.12-.03-.18-.09-.18-.066 0-.089-.069-.089-.27 0-.184-.028-.28-.09-.304-.05-.02-.089-.108-.089-.207 0-.113-.03-.172-.09-.172-.065 0-.089-.07-.089-.27 0-.185-.028-.28-.089-.304-.05-.02-.09-.108-.09-.203a.42.42 0 00-.089-.257.378.378 0 01-.09-.235.583.583 0 00-.118-.297.593.593 0 01-.12-.307c0-.086-.04-.172-.089-.191-.054-.02-.09-.111-.09-.23 0-.107-.04-.228-.089-.269-.049-.04-.09-.151-.09-.247 0-.099-.037-.188-.089-.208-.049-.018-.09-.105-.09-.191a.539.539 0 00-.09-.274.551.551 0 01-.088-.284c0-.096-.039-.185-.09-.204-.05-.02-.088-.109-.088-.207a.474.474 0 00-.12-.291.48.48 0 01-.119-.298c0-.12-.03-.18-.09-.18-.064 0-.088-.066-.088-.24 0-.158-.03-.251-.09-.274-.055-.021-.09-.112-.09-.236 0-.14-.027-.203-.089-.203s-.089-.062-.089-.204c0-.113-.036-.24-.08-.284-.043-.043-.096-.184-.117-.313-.02-.13-.079-.258-.13-.286-.05-.028-.09-.13-.09-.227 0-.11-.031-.176-.083-.176-.045 0-.096-.053-.113-.119-.03-.111-.082-.119-.812-.119-.7 0-.792.012-.9.12m16.418-.074c-.196.143-.208.435-.204 5.053.006 5.473-.082 4.934.814 4.96.867.024.791.26.791-2.465 0-1.916.014-2.29.083-2.29.046 0 .101-.07.122-.156a.616.616 0 01.126-.243.337.337 0 00.087-.201c0-.063.04-.115.089-.115.05 0 .089-.053.089-.12 0-.092.04-.119.179-.119.119 0 .179-.03.179-.09 0-.067.072-.088.298-.088.225 0 .298-.022.298-.09 0-.067.072-.09.298-.09.225 0 .298.023.298.09 0 .06.059.09.178.09s.179.03.179.089c0 .05.04.09.09.09.049 0 .089.037.089.083 0 .045.037.097.084.115.046.017.101.112.123.21a.532.532 0 00.124.25c.072.06.086.466.086 2.53 0 2.188.011 2.464.094 2.496.215.082 1.206.039 1.302-.057.139-.139.143-5.672.004-5.725-.049-.019-.089-.105-.09-.192-.001-.25-.065-.426-.155-.426-.045 0-.082-.04-.082-.09a.09.09 0 00-.089-.089.09.09 0 01-.09-.089.09.09 0 00-.089-.09c-.05 0-.09-.052-.09-.118s-.037-.12-.083-.12c-.045 0-.098-.04-.117-.089-.019-.05-.109-.09-.2-.091a.56.56 0 01-.282-.09c-.172-.13-2.119-.129-2.119.002 0 .066-.07.09-.27.09-.185 0-.28.028-.304.09-.019.048-.072.088-.117.088-.046 0-.083.054-.083.12 0 .079-.04.119-.12.119-.116 0-.119-.04-.119-1.577 0-1.499-.005-1.58-.115-1.64-.13-.069-1.194-.082-1.286-.015m18.607-.005c-.096.026-.104.108-.089.932l.017.904.729.017.73.017v-.92c0-.783-.013-.924-.094-.955-.106-.04-1.131-.037-1.293.005m-106.94.66c.037.145-.009.253-.108.253-.054 0-.085-.064-.085-.18 0-.195.146-.252.192-.074m1.894.194c0 .033-.094.06-.209.06-.145 0-.208-.027-.208-.09 0-.05.04-.09.09-.09a.09.09 0 00.089-.089c0-.07.026-.063.119.03.065.066.119.146.119.18m6.436 0c0 .032-.094.058-.208.058-.231 0-.262-.065-.105-.223.109-.108.313-.001.313.164m1.822-.12c.047 0 .085.041.085.09 0 .063-.063.09-.209.09-.23 0-.26-.066-.104-.225.076-.077.11-.085.124-.03.01.041.057.076.104.076m74.829.07c-.05.05-.073.328-.074.91-.001 1.181.043 1.106-.631 1.106h-.56v1.31h.668c.519 0 .651.017.596.072-.093.093-.104 4.637-.012 4.637.032 0 .059.134.059.297 0 .226.022.299.09.299a.09.09 0 01.089.089c0 .049.051.09.112.09.062 0 .126.053.144.118a.158.158 0 00.158.12.6.6 0 01.27.094c.156.102 1.817.107 1.919.005.061-.062.104-1.063.054-1.263-.036-.145-.045-.147-.691-.147h-.655v-4.407l.671-.016.67-.017V33.81l-.669-.016-.669-.017-.016-1.026-.017-1.026-.716-.017c-.506-.012-.738.005-.79.057m24.936-.03c-.021.022-.039.49-.039 1.042v1.004h-1.132v1.31h1.132v2.476c0 2.145.012 2.48.089 2.509.05.019.09.098.09.177 0 .087.035.143.089.143a.09.09 0 01.089.089c0 .049.038.09.083.09.045 0 .096.053.114.118.021.082.081.12.19.12.087 0 .199.04.248.089.071.071.264.09.945.09 1.083 0 1.043.032 1.043-.84v-.65h-1.311v-2.143c0-1.977-.008-2.147-.105-2.203-.075-.044.111-.061.656-.063l.76-.002v-.411c0-.382.008-.41.119-.38.092.024.119.081.119.255 0 .126.039.257.089.298.05.041.09.152.09.246 0 .113.03.171.089.171.062 0 .089.063.089.205 0 .112.041.244.09.293a.4.4 0 01.089.245c0 .085.041.17.09.19.049.018.089.107.089.197 0 .09.054.212.119.27a.42.42 0 01.119.308c0 .138.028.2.09.2.06 0 .089.06.089.18 0 .106.037.195.09.215.058.023.089.115.089.268 0 .153.031.246.089.268.052.02.09.109.09.207 0 .114.03.172.089.172.066 0 .09.07.09.27 0 .186.028.281.089.305.049.019.089.1.089.182 0 .098.041.16.119.18.097.025.12.081.12.294 0 .179.028.274.089.297.051.02.09.109.09.207 0 .114.03.173.089.173.062 0 .089.063.089.208 0 .146-.027.209-.089.209s-.089.062-.089.202c0 .125-.035.215-.09.236-.059.023-.089.117-.089.275 0 .155-.027.24-.076.24-.042 0-.146.08-.232.177-.15.171-.171.177-.773.194l-.618.016-.017.586c-.025.85.001.872 1.039.874.642 0 .79-.015.817-.089.02-.052.11-.09.215-.09.121 0 .181-.029.181-.088 0-.05.04-.09.09-.09a.09.09 0 00.089-.09.09.09 0 01.089-.089c.049 0 .09-.034.09-.075 0-.041.053-.108.119-.15.07-.05.114-.13.119-.216 0-.078.04-.158.089-.176.05-.02.09-.072.09-.118 0-.047.04-.118.089-.159.049-.04.089-.161.089-.269 0-.118.036-.208.09-.229.056-.022.089-.113.089-.247s.034-.225.09-.246c.054-.021.089-.111.089-.23 0-.12.035-.21.089-.23.05-.02.09-.092.09-.161 0-.07.053-.195.119-.278a.648.648 0 00.119-.345c0-.107.041-.227.09-.267.049-.041.089-.152.089-.246 0-.113.031-.172.089-.172.062 0 .09-.062.09-.201 0-.11.04-.235.089-.275.049-.041.09-.165.09-.276 0-.14.027-.201.089-.201.065 0 .089-.067.089-.24 0-.16.031-.252.09-.275.055-.021.089-.112.089-.237 0-.132.029-.202.083-.202.085 0 .153-.174.155-.396 0-.07.041-.143.09-.162.049-.018.09-.104.09-.189s.04-.196.089-.245c.049-.049.089-.18.089-.293 0-.142.027-.205.09-.205.067 0 .089-.073.089-.297 0-.226.022-.299.089-.299.06 0 .09-.059.09-.178 0-.113.03-.18.082-.18.113 0 .154-.188.155-.701l.001-.434-.76.017-.76.016-.035.265c-.019.146-.066.276-.104.288-.038.013-.069.099-.069.19 0 .092-.041.2-.09.24-.05.043-.089.172-.089.299 0 .126-.039.256-.089.298-.049.04-.09.161-.09.269 0 .118-.035.208-.089.229-.054.02-.089.11-.089.225a.51.51 0 01-.092.293c-.051.055-.109.205-.129.332-.02.127-.072.252-.116.279-.045.026-.081.138-.081.248 0 .111-.04.242-.089.291-.05.05-.09.196-.09.332 0 .176-.024.243-.089.243-.06 0-.089.06-.089.183 0 .1-.04.223-.09.272-.079.08-.089.07-.089-.093a.48.48 0 00-.119-.303.477.477 0 01-.119-.3c0-.105-.037-.194-.09-.214-.057-.023-.089-.114-.089-.26 0-.126-.039-.256-.089-.298-.05-.04-.09-.165-.09-.276 0-.139-.027-.2-.089-.2-.065 0-.09-.066-.09-.232 0-.133-.038-.263-.089-.305-.049-.04-.089-.152-.089-.246a.471.471 0 00-.12-.29.476.476 0 01-.119-.33c0-.132-.033-.224-.089-.245-.055-.021-.09-.112-.09-.236 0-.14-.027-.203-.089-.203-.065 0-.089-.066-.089-.24 0-.158-.031-.252-.09-.274-.049-.02-.089-.085-.089-.148 0-.102-.05-.112-.547-.112-.301 0-.636-.033-.746-.072-.164-.06-.213-.057-.285.015-.068.068-.233.083-.774.068l-.687-.019v-.945c0-1.193.047-1.133-.889-1.133-.385 0-.718.018-.741.04m-95.925.228c0 .05.04.09.09.09.048 0 .089.042.089.094 0 .053.053.11.119.127.065.017.119.068.119.113s.04.082.089.082c.05 0 .09.04.09.09 0 .049.04.09.089.09.05 0 .09.04.09.089 0 .049.04.09.089.09.049 0 .089.04.089.088 0 .05.04.09.09.09a.09.09 0 01.089.09c0 .048.047.092.104.095.1.007.1.009 0 .035-.057.015-.104.065-.104.112 0 .061-.076.085-.268.085-.199 0-.269.023-.269.09a.09.09 0 01-.089.089.09.09 0 00-.09.09c0 .049-.052.089-.118.089s-.12.037-.12.083c0 .045-.04.098-.089.117a.147.147 0 00-.09.125.09.09 0 01-.089.092c-.077 0-.09.238-.09 1.787 0 1.55-.011 1.788-.089 1.788-.06 0-.089.06-.089.179 0 .16-.02.179-.18.179-.106 0-.196.037-.216.09-.018.049-.1.089-.182.089-.098 0-.159.04-.18.119-.021.084-.08.12-.202.12-.113 0-.172.03-.172.089 0 .06-.06.089-.179.089-.12 0-.179.03-.179.09 0 .049-.053.089-.119.089s-.12.04-.12.089c0 .05-.04.09-.089.09-.05 0-.09.052-.09.118 0 .067-.039.12-.088.12-.06 0-.09.06-.09.179s-.03.178-.09.178a.09.09 0 00-.089.09c0 .049-.037.09-.084.09-.047 0-.102.077-.123.173-.021.096-.078.19-.127.208-.065.025-.084.105-.071.288l.018.254.552.017.55.017v.353h-.387c-.304 0-.387-.019-.387-.09 0-.069-.08-.089-.358-.089-.278 0-.357-.02-.357-.09 0-.075-.156-.089-1.043-.089-.887 0-1.043.014-1.043.09 0 .07-.08.09-.36.09-.264 0-.368.023-.393.089-.02.05-.109.09-.207.09-.114 0-.172.03-.172.089 0 .066-.07.089-.262.089-.178 0-.273.029-.296.09-.019.049-.096.089-.17.09-.23 0-.405.068-.405.155 0 .061-.097.082-.387.082-.305 0-.387.02-.387.09 0 .058-.056.087-.164.084-.09-.002-.13-.018-.09-.034a.132.132 0 00.075-.115c0-.054.064-.085.179-.085.119 0 .178-.03.178-.089 0-.06.06-.09.18-.09.119 0 .178-.029.178-.089s.06-.09.18-.09c.106 0 .196-.036.216-.088.018-.05.071-.09.117-.09.046 0 .083-.04.083-.09 0-.051.054-.089.13-.089.078 0 .245-.119.417-.297.158-.164.314-.298.347-.298.033 0 .06-.04.06-.09 0-.05.04-.09.089-.09a.09.09 0 00.09-.089.09.09 0 01.089-.089.09.09 0 00.09-.09.09.09 0 01.089-.089c.05 0 .089-.053.089-.12 0-.065.03-.118.066-.118.118 0 .35-.265.35-.403 0-.079.038-.134.09-.134.05 0 .09-.04.09-.089 0-.05.04-.09.089-.09.063 0 .09-.062.09-.208s.027-.209.089-.209c.05 0 .09-.04.09-.089 0-.049.04-.09.089-.09.059 0 .089-.058.089-.171 0-.122.035-.181.12-.203.078-.02.119-.081.119-.18 0-.081.04-.163.089-.182.052-.02.09-.11.09-.215 0-.12.029-.18.089-.18s.089-.06.089-.18c0-.119.03-.178.09-.178.067 0 .089-.073.089-.298 0-.225.022-.298.09-.298.065 0 .089-.069.089-.261 0-.211.023-.267.119-.293.087-.023.12-.081.12-.215 0-.165.018-.185.178-.185.119 0 .179-.03.179-.09 0-.058.059-.088.178-.088.16 0 .18-.02.18-.18 0-.118.029-.178.089-.178.07 0 .089-.083.089-.387 0-.348.012-.388.12-.388.065 0 .118-.04.118-.089 0-.05.04-.09.09-.09.067 0 .089-.072.089-.297 0-.225.022-.298.09-.298.059 0 .089-.06.089-.18 0-.118.03-.178.09-.178a.09.09 0 00.089-.09.09.09 0 01.089-.089c.05 0 .09-.04.09-.09 0-.057.058-.089.163-.09.163 0 .432-.219.432-.35 0-.038.112-.066.269-.066.198 0 .268-.023.268-.09s.073-.088.297-.088c.226 0 .299.021.299.089m-17.802.209c.026.097.082.119.3.119.148 0 .278.027.29.06.01.034.127.078.258.1.13.02.26.073.285.117.026.044.073.08.105.08.074 0 .295.222.295.298 0 .033.026.06.059.06.074 0 .298.22.298.292 0 .029.04.068.09.087.056.022.089.113.089.251 0 .222.19.5.342.501.05 0 .075.101.075.3 0 .224.022.297.09.297.059 0 .089.06.089.179 0 .159.02.179.178.179.12 0 .18.03.18.089 0 .063.062.09.208.09.208 0 .209 0 .209.27 0 .184.028.28.089.304.051.02.09.108.09.207 0 .113.03.172.089.172.066 0 .09.07.09.27 0 .185.027.28.088.304.052.02.09.109.09.207 0 .114.03.173.09.173.059 0 .089.06.089.18 0 .106.037.195.089.215.049.019.09.1.09.182 0 .099.04.16.119.18.084.022.119.081.119.203 0 .113.03.172.09.172a.09.09 0 01.089.089c0 .05.04.09.09.09.061 0 .088.062.088.208s.027.209.09.209c.05 0 .09.04.09.089 0 .049.037.09.084.09.046 0 .102.08.124.178.021.099.077.179.124.179.046 0 .084.04.084.09 0 .048.04.089.09.089a.09.09 0 01.089.091.147.147 0 00.09.125c.049.02.089.072.089.118s.04.083.09.083a.09.09 0 01.088.09c0 .048.04.089.09.089.05 0 .09.04.09.09 0 .048.037.089.083.089.045 0 .098.04.117.089.021.051.07.086.125.09.05 0 .092.037.092.084 0 .047.08.102.178.124.099.021.18.077.18.124 0 .046.04.084.088.084.05 0 .09.04.09.09 0 .05.053.09.119.09s.12.039.12.089c0 .06.059.089.178.089.12 0 .179.03.179.09 0 .059.06.089.179.089.115 0 .178.03.178.086 0 .051.077.095.194.109.107.013-.024.029-.291.034-.439.008-.487-.002-.516-.11-.025-.095-.081-.12-.275-.12-.177 0-.244-.024-.244-.089 0-.062-.062-.09-.202-.09-.125 0-.216-.033-.237-.088-.022-.06-.115-.09-.274-.09-.174 0-.24-.025-.24-.09 0-.07-.083-.089-.388-.089-.304 0-.387-.019-.387-.09 0-.075-.152-.089-1.013-.089-.86 0-1.013.014-1.013.09 0 .07-.08.09-.355.09-.24 0-.37.026-.402.082-.077.134-.614.153-.614.022 0-.057-.04-.105-.09-.105-.062 0-.089-.063-.089-.208v-.209h.477c.384 0 .477-.017.477-.089 0-.05.04-.09.09-.09.055 0 .088-.056.088-.15 0-.083-.04-.166-.089-.185-.049-.02-.09-.072-.09-.118 0-.045-.053-.083-.118-.083-.093 0-.12-.04-.12-.178 0-.12-.03-.18-.089-.18a.09.09 0 01-.09-.09.147.147 0 00-.089-.126c-.049-.019-.089-.072-.089-.118 0-.045-.04-.083-.09-.083-.056 0-.089-.056-.089-.15 0-.083-.04-.167-.09-.186-.049-.018-.089-.071-.089-.117 0-.06-.082-.083-.298-.083-.258 0-.298-.016-.298-.119 0-.092-.04-.12-.172-.12-.098 0-.187-.038-.207-.089-.019-.049-.102-.09-.185-.09-.094 0-.15-.032-.15-.089 0-.05-.054-.089-.12-.089-.101 0-.12-.04-.12-.268 0-.213-.02-.27-.103-.275-.1-.006-.1-.008 0-.034.147-.039.162-2.82.014-2.82-.059 0-.089-.06-.089-.179s-.03-.178-.09-.178c-.048 0-.089-.03-.089-.066 0-.131-.27-.35-.432-.35-.105 0-.163-.033-.163-.09 0-.067-.07-.09-.269-.09-.266 0-.268-.001-.268-.209 0-.145.027-.208.09-.208a.09.09 0 00.089-.09c0-.05.04-.09.09-.09a.09.09 0 00.089-.089.09.09 0 01.09-.089c.058 0 .088-.059.088-.172 0-.122.035-.18.12-.203.086-.023.119-.081.119-.215 0-.234.494-.293.553-.065m76.655 1.013c.062 0 .085.08.085.297 0 .226.022.299.09.299.064 0 .089.066.089.24 0 .158.03.252.089.274.054.021.09.11.09.225a.6.6 0 00.087.307.535.535 0 01.09.268.53.53 0 00.089.268.533.533 0 01.09.269c0 .084.055.21.12.28.066.07.12.21.12.31 0 .121.029.18.089.18.05 0 .09.054.09.12 0 .115-.04.12-1.272.12h-1.27l.027-.195c.015-.106.064-.215.109-.24.047-.029.081-.148.081-.284 0-.161.026-.235.083-.235.1 0 .155-.128.155-.355 0-.092.04-.2.09-.241.05-.042.089-.172.089-.3 0-.144.032-.236.09-.258.05-.02.089-.109.089-.209 0-.1.038-.189.09-.209.058-.022.088-.116.088-.276 0-.16.03-.253.09-.276.06-.023.092-.125.096-.311.004-.152.02-.23.034-.173.015.058.066.105.113.105m-67.733.18c0 .106.037.195.09.215.049.02.089.072.089.117 0 .046.04.084.09.084.059 0 .089.06.089.178 0 .12.03.18.089.18.055 0 .09.055.09.146 0 .26.514.395.578.151.017-.065.069-.119.114-.119s.082.054.082.12c0 .065-.04.118-.09.118-.07 0-.089.09-.089.447 0 .358.018.447.09.447.05 0 .09.053.09.12 0 .096-.04.119-.21.119-.145 0-.208-.027-.208-.09a.09.09 0 00-.09-.09c-.06 0-.089-.059-.089-.18 0-.106-.037-.195-.09-.215-.048-.019-.089-.1-.089-.178 0-.08-.04-.16-.089-.18-.049-.018-.09-.071-.09-.117 0-.045-.04-.083-.089-.083-.06 0-.09-.06-.09-.179 0-.098-.028-.178-.064-.178-.036 0-.114-.06-.175-.135-.137-.166-.316-.086-.345.156-.01.088-.056.157-.104.157-.056 0-.086.064-.086.18 0 .119-.03.178-.09.178-.059 0-.088.06-.088.179 0 .12-.03.179-.09.179-.062 0-.09.063-.09.208 0 .146-.026.209-.089.209a.09.09 0 00-.089.09c0 .062-.063.089-.209.089-.216 0-.295-.133-.119-.2.069-.027.09-.14.09-.484 0-.36-.018-.449-.09-.449-.063 0-.09-.063-.09-.208 0-.146.027-.209.09-.209.06 0 .09.06.09.18 0 .118.036.195.104.22a.47.47 0 01.175.133c.099.13.28.012.305-.196.011-.089.057-.158.105-.158.055 0 .085-.063.085-.179 0-.12.03-.178.09-.178s.09-.06.09-.18c0-.119.029-.178.088-.178.063 0 .09-.063.09-.209 0-.169.022-.208.119-.208.093 0 .119.04.119.18m-5.125.237c0 .113-.03.179-.083.179-.1 0-.164-.146-.117-.268.062-.163.2-.1.2.089m1.907 0c0 .164-.017.179-.209.179-.231 0-.26-.063-.104-.234.166-.182.313-.156.313.055m6.436.119c0 .033-.094.06-.208.06-.231 0-.262-.066-.105-.224.109-.108.313-.001.313.164m1.907 0c0 .033-.094.06-.209.06-.23 0-.261-.066-.104-.224.109-.108.313-.001.313.164m25.945-.03c-.02.051-.108.09-.207.09-.113 0-.172.03-.172.09 0 .049-.053.088-.12.088-.066 0-.166.054-.222.12-.156.182-.254.148-.254-.09v-.208h-1.49v3.543c0 3.443.004 3.546.115 3.606.123.066 1.123.086 1.28.025.084-.032.095-.27.095-2.079 0-1.761.013-2.048.09-2.078.065-.025.089-.13.089-.395 0-.266.023-.37.09-.396.048-.019.089-.098.089-.177 0-.078.033-.143.074-.144.041 0 .142-.094.223-.207.094-.129.2-.206.285-.207.075-.001.152-.042.17-.091.024-.06.119-.09.297-.09.193 0 .262-.023.262-.089 0-.062.062-.09.202-.09.124 0 .215.035.236.09.024.062.12.09.305.09.2 0 .27.023.27.089 0 .05.04.09.09.09.055 0 .089.056.089.15 0 .083.04.166.089.185.078.03.09.367.09 2.534 0 3.06-.061 2.852.83 2.85.468-.002.594-.023.704-.114l.134-.112v-2.69c0-2.334-.012-2.692-.09-2.722-.06-.024-.089-.119-.089-.298 0-.18-.028-.275-.09-.298-.048-.02-.089-.1-.089-.179 0-.08-.04-.16-.089-.179-.05-.019-.09-.072-.09-.117 0-.046-.04-.083-.089-.083a.089.089 0 01-.09-.088c0-.049-.065-.105-.146-.126a.478.478 0 01-.216-.12c-.038-.046-.146-.083-.24-.083-.113 0-.172-.031-.172-.09 0-.076-.162-.09-1.105-.09-.926 0-1.11.015-1.138.09m6.474 0c-.04.05-.151.09-.246.09-.112 0-.17.03-.17.09s-.061.088-.185.088c-.134 0-.193.033-.216.12-.017.065-.068.119-.113.119-.046 0-.083.04-.083.089 0 .05-.04.09-.09.09a.09.09 0 00-.089.089c0 .05-.04.09-.09.09a.09.09 0 00-.088.089.09.09 0 01-.09.089.09.09 0 00-.09.09.09.09 0 01-.089.089c-.049 0-.089.05-.089.11s-.054.158-.12.218a.424.424 0 00-.118.277c0 .111-.031.17-.09.17-.06 0-.09.06-.09.183 0 .1-.04.223-.089.272-.072.073-.09.284-.09 1.12 0 .845.017 1.046.09 1.106.05.042.09.172.09.298 0 .123.037.255.083.293.046.038.1.162.122.276.021.113.07.207.11.207.04 0 .133.135.207.298.075.163.162.297.194.297s.059.04.059.09c0 .048.04.089.089.089.05 0 .09.04.09.09 0 .055.056.089.15.089.083 0 .166.04.185.089.019.049.086.09.147.09.063 0 .113.04.113.087 0 .049.074.107.164.129.09.022.217.076.281.12.181.124 2.55.116 2.675-.01a.313.313 0 01.183-.089c.052 0 .148-.053.213-.118.066-.066.146-.12.18-.12.032 0 .059-.04.059-.089 0-.053.054-.09.132-.09.153 0 .64-.508.641-.67 0-.057.042-.104.09-.104.06 0 .09-.06.09-.173 0-.1.039-.187.092-.207.074-.029.089-.122.075-.469l-.018-.432h-1.43l-.019.193c-.011.12-.051.194-.104.194-.055 0-.086.063-.086.179 0 .12-.03.178-.091.178a.147.147 0 00-.126.09c-.018.049-.072.09-.117.09-.046 0-.13.053-.186.118a.396.396 0 01-.268.12c-.107 0-.165.03-.165.09 0 .07-.082.089-.381.089-.284 0-.39-.023-.415-.09-.024-.061-.12-.09-.305-.09-.202 0-.27-.022-.27-.09 0-.054-.074-.106-.178-.127-.099-.02-.18-.073-.18-.118s-.04-.082-.089-.082c-.049 0-.09-.037-.09-.083 0-.045-.04-.098-.088-.117-.05-.019-.09-.102-.09-.185a.444.444 0 00-.12-.27c-.083-.084-.118-.199-.118-.388v-.268h5.125v-.745c0-.622-.015-.744-.09-.744-.067 0-.09-.073-.09-.299 0-.224-.021-.297-.089-.297-.055 0-.089-.056-.089-.148 0-.167-.223-.627-.304-.627-.03 0-.053-.04-.053-.09 0-.049-.054-.143-.12-.208-.065-.066-.119-.146-.119-.179s-.04-.06-.09-.06a.09.09 0 01-.088-.089.09.09 0 00-.09-.09c-.085 0-.23-.098-.456-.312-.067-.063-.203-.104-.348-.104-.173 0-.239-.025-.239-.09 0-.076-.158-.09-1.065-.09-.875 0-1.079.017-1.14.09m7.609-.002a.397.397 0 01-.247.092c-.085 0-.17.04-.189.09-.019.048-.072.088-.117.088-.046 0-.084.054-.084.12 0 .065-.036.119-.081.119-.046 0-.116.04-.157.089-.123.148-.178.102-.178-.147 0-.318-.098-.36-.835-.36-.936 0-.834-.43-.834 3.515v3.392l.14.152c.133.143.178.152.706.152.88 0 .823.16.823-2.285 0-1.73.012-2.014.089-2.043.055-.021.09-.112.09-.237 0-.135.027-.202.084-.202.047 0 .102-.08.124-.179.021-.098.077-.179.124-.179.046 0 .084-.04.084-.089 0-.05.04-.09.09-.09.05 0 .09-.04.09-.089 0-.056.056-.09.154-.09.104 0 .164-.038.185-.118.03-.11.082-.12.648-.12.765 0 .75.02.727-.938l-.017-.7-.663-.017c-.534-.014-.683 0-.756.074m3.356.002c0 .062-.062.09-.205.09-.112 0-.222.028-.244.063a.447.447 0 01-.182.118c-.079.03-.143.095-.143.145 0 .05-.04.09-.09.09a.09.09 0 00-.09.09c0 .05-.052.09-.118.09s-.12.04-.12.089c0 .05-.04.09-.089.09a.09.09 0 00-.09.089c0 .049-.04.089-.088.089a.092.092 0 00-.09.094.31.31 0 01-.09.183.337.337 0 00-.089.204c0 .063-.04.115-.09.115-.065 0-.088.069-.088.262 0 .178-.03.273-.09.296-.066.025-.09.13-.09.398 0 .244-.029.393-.089.453-.066.066-.089.228-.089.623 0 .42.019.542.09.569.068.026.089.138.089.474 0 .352.018.44.09.44.065 0 .089.07.089.271 0 .185.027.28.089.304.049.02.09.072.09.118s.04.083.089.083c.05 0 .09.053.09.121 0 .15.231.475.338.475.043 0 .078.04.078.09 0 .048.038.089.083.089.046 0 .099.04.118.089.018.049.099.09.178.09.093 0 .154.04.175.118.022.086.081.12.21.12.102 0 .191.037.211.089.05.13 2.191.133 2.321.003a.607.607 0 01.239-.125c.083-.02.166-.075.184-.122a.142.142 0 01.123-.084.09.09 0 00.091-.089c0-.05.039-.09.086-.09.075 0 .075.022 0 .164-.046.09-.085.305-.085.477 0 .239-.022.313-.09.313-.05 0-.09.053-.09.12 0 .065-.033.118-.075.118-.041 0-.102.059-.134.13a.486.486 0 01-.178.193.539.539 0 00-.167.14c-.026.04-.136.074-.246.074-.109 0-.231.04-.272.09-.048.057-.18.089-.37.089-.182 0-.328-.034-.384-.09-.052-.052-.197-.09-.347-.09-.174 0-.268-.028-.291-.089-.02-.049-.063-.09-.096-.09-.093 0-.3-.225-.3-.327a.087.087 0 00-.085-.09c-.05 0-.094-.07-.105-.163l-.018-.164-.597-.017c-.879-.026-.863-.034-.863.467 0 .316.021.426.089.452.05.02.09.109.09.207 0 .1.031.172.075.172.043 0 .107.08.144.18.037.097.117.196.177.218.06.022.131.076.158.12.03.045.08.074.134.078.047 0 .086.04.086.09 0 .058.059.09.172.09.099 0 .188.037.207.089.023.06.12.089.305.089.2 0 .27.023.27.09 0 .075.162.089 1.102.089.94 0 1.102-.014 1.102-.09 0-.067.073-.09.298-.09.226 0 .298-.02.298-.088 0-.06.06-.09.179-.09.113 0 .179-.03.179-.083 0-.046.07-.1.156-.122.19-.048.619-.492.619-.642 0-.058.04-.106.089-.106.06 0 .09-.06.09-.181 0-.106.037-.195.089-.215.06-.024.09-.12.09-.305 0-.188.03-.293.104-.346.097-.071.104-.32.104-3.76V33.81h-1.49l-.019.194c-.017.178-.19.294-.19.128 0-.128-.269-.35-.425-.35-.087 0-.173-.042-.192-.09-.029-.076-.209-.09-1.11-.09-.915 0-1.074.013-1.074.09m43.65-.003a.56.56 0 01-.282.09c-.091 0-.181.042-.2.091-.019.05-.101.09-.182.09-.099 0-.159.04-.18.119-.017.065-.068.119-.114.119-.045 0-.082.04-.082.089 0 .05-.04.09-.089.09a.09.09 0 00-.09.089c0 .05-.053.09-.119.09s-.119.039-.119.089a.09.09 0 01-.09.089c-.049 0-.089.038-.089.083 0 .046-.04.099-.089.118-.053.02-.09.109-.09.215 0 .12-.029.18-.089.18-.05 0-.09.05-.09.112a.272.272 0 01-.089.186c-.06.05-.089.185-.089.417 0 .232-.029.367-.09.417-.071.06-.089.233-.089.844 0 .629.016.776.089.803.068.026.09.136.09.447 0 .312.021.422.089.447.049.02.089.07.089.115 0 .138.205.5.284.501.04.001.074.055.074.121s.072.18.159.254c.087.073.213.194.279.267.066.074.169.135.228.135.06 0 .109.04.109.089 0 .053.055.09.134.09.074 0 .168.053.209.118.047.075.14.12.247.12.098 0 .186.038.206.089.029.076.229.09 1.29.09 1.06 0 1.26-.014 1.289-.09.02-.05.109-.09.207-.09.133 0 .172-.027.172-.118 0-.094.04-.12.181-.12.105 0 .195-.037.215-.089.019-.05.071-.09.117-.09.046 0 .083-.04.083-.089 0-.05.04-.09.089-.09.05 0 .09-.04.09-.089 0-.049.027-.089.059-.089.092 0 .298-.227.298-.328 0-.05.041-.09.091-.09.054 0 .106-.073.127-.178.02-.098.073-.179.118-.179.053 0 .082-.07.082-.202 0-.125.034-.215.089-.236.066-.026.089-.132.089-.417 0-.267.027-.404.09-.456.068-.057.089-.212.089-.665 0-.47-.018-.597-.089-.624-.067-.026-.09-.132-.09-.411 0-.256-.029-.406-.089-.466a.447.447 0 01-.089-.273c0-.123-.03-.183-.09-.183-.05 0-.089-.053-.089-.12 0-.066-.054-.165-.119-.221-.066-.057-.12-.137-.12-.179 0-.042-.04-.076-.089-.076a.09.09 0 01-.089-.09.09.09 0 00-.09-.089.09.09 0 01-.089-.09.09.09 0 00-.09-.089.09.09 0 01-.089-.089c0-.049-.034-.09-.076-.09-.042 0-.122-.053-.178-.118-.056-.066-.156-.12-.222-.12-.067 0-.12-.04-.12-.089 0-.066-.069-.09-.268-.09s-.268-.023-.268-.089c0-.13-2.184-.133-2.357-.002m8.018.002c-.041.05-.149.09-.241.09a.416.416 0 00-.257.09c-.049.048-.118.088-.153.088s-.064.054-.064.12c0 .079-.04.119-.119.119-.067 0-.119.04-.119.089 0 .246-.174.07-.191-.193l-.018-.284-.73-.016-.73-.017v7.152l.147.038c.284.07 1.224.002 1.285-.095.032-.051.056-.913.057-2.034.001-1.654.014-1.955.09-2.018.055-.045.09-.176.09-.335 0-.192.023-.261.089-.261.05 0 .089-.053.089-.12 0-.065.04-.119.089-.119.048 0 .104-.064.124-.143a.255.255 0 01.18-.18c.079-.02.144-.063.144-.095s.053-.058.119-.058c.079 0 .119-.04.119-.117 0-.109.049-.119.641-.135l.64-.016.017-.82.017-.82h-.62c-.479 0-.638.021-.695.09m-46.781.12c-.11.116-.125.166-.07.22.038.04.07.155.07.257 0 .102.04.237.088.3a.46.46 0 01.089.22c0 .058.056.158.121.224.066.066.12.197.12.29 0 .095.04.206.088.246.05.041.09.149.09.24 0 .092.04.18.09.2.051.019.089.108.089.21 0 .097.04.216.09.265a.46.46 0 01.088.275c0 .11.037.199.09.219.051.02.09.109.09.207 0 .095.025.172.057.172.031 0 .086.109.122.242.036.132.104.256.151.274.052.02.087.114.087.236 0 .14.027.202.089.202s.09.062.09.204c0 .112.04.245.089.294.049.049.09.172.09.272 0 .123.028.183.089.183.058 0 .089.059.089.168 0 .092.04.22.087.283a.497.497 0 01.09.245.376.376 0 00.097.225c.112.113.137.82.03.855-.036.012-.083.13-.104.26-.021.132-.075.253-.12.27-.044.017-.08.109-.08.204 0 .113-.03.172-.09.172a.09.09 0 00-.089.09c0 .073-.112.089-.657.089h-.658l.017.73.017.73.88.016c.745.014.886.003.915-.074.02-.05.073-.091.118-.091.046 0 .083-.04.083-.09 0-.053.055-.089.135-.089.165 0 .461-.302.461-.471 0-.071.039-.125.09-.125.059 0 .09-.06.09-.179s.029-.178.088-.178c.058 0 .09-.058.09-.165 0-.1.046-.194.119-.239a.266.266 0 00.119-.197c0-.068.04-.163.09-.213.049-.049.089-.178.089-.287 0-.12.035-.211.09-.232.048-.02.089-.104.089-.19 0-.085.04-.195.089-.244.05-.05.09-.179.09-.287 0-.121.034-.212.089-.233.05-.02.09-.108.09-.207 0-.096.04-.207.089-.248.049-.04.089-.151.089-.246 0-.094.053-.224.12-.29.065-.066.12-.166.12-.224a.464.464 0 01.09-.22.593.593 0 00.087-.305c0-.105.04-.224.09-.264.049-.041.089-.153.089-.248 0-.1.038-.188.09-.207.054-.021.089-.111.089-.23 0-.107.04-.228.09-.269.048-.04.088-.145.088-.232 0-.087.054-.205.12-.26a.395.395 0 00.119-.305c0-.126.034-.216.09-.237.048-.02.089-.1.089-.18 0-.079.04-.16.09-.178.06-.023.089-.12.089-.304 0-.2.022-.27.089-.27.062 0 .09-.063.09-.203 0-.124.033-.215.089-.236.05-.02.09-.108.09-.208 0-.095.04-.207.088-.247.159-.132.107-.322-.12-.444-.161-.087-.227-.097-.28-.043-.044.043-.28.07-.625.07-.514 0-.554.008-.554.119 0 .066-.04.119-.09.119-.065 0-.089.07-.089.268 0 .199-.023.268-.089.268-.065 0-.09.069-.09.255 0 .181-.034.285-.118.357a.352.352 0 00-.12.226.348.348 0 01-.09.214c-.051.052-.089.197-.089.347 0 .174-.029.268-.09.291-.048.02-.088.104-.088.19a.39.39 0 01-.09.244c-.049.05-.09.192-.09.317 0 .129-.038.258-.089.3-.049.041-.089.166-.089.276 0 .14-.028.201-.09.201-.066 0-.089.07-.089.268 0 .352-.152.534-.313.373a.415.415 0 01-.104-.255c0-.083-.04-.167-.09-.185-.058-.023-.088-.116-.088-.268 0-.153-.032-.246-.09-.269-.051-.02-.09-.108-.09-.206a.473.473 0 00-.119-.292c-.08-.08-.119-.199-.119-.36 0-.158-.03-.251-.09-.274-.054-.021-.089-.112-.089-.236 0-.14-.027-.203-.089-.203-.066 0-.09-.069-.09-.268s-.023-.268-.089-.268c-.064 0-.09-.065-.09-.231 0-.133-.037-.263-.088-.305-.05-.041-.09-.163-.09-.272 0-.108-.038-.235-.084-.281a.504.504 0 01-.105-.258l-.02-.173-.654-.017c-.36-.01-.68-.043-.712-.074-.093-.092-.183-.068-.332.092m18.847.008c-.122.05-.107 5.164.015 5.265.059.05.089.183.089.395 0 .245.02.32.09.32.048 0 .089.052.089.115.003.072.03.14.077.194a.633.633 0 01.118.183c.022.057.081.105.131.105s.091.04.091.089c0 .049.027.09.059.09.033 0 .114.053.179.118.066.066.161.12.213.12.051 0 .136.041.187.093.118.117 2.435.105 2.508-.014.024-.038.115-.088.202-.11.088-.022.174-.077.192-.124a.14.14 0 01.123-.084.09.09 0 00.091-.089c0-.05.04-.09.09-.09.059 0 .089.06.089.18 0 .364 1.017.62 1.43.358.078-.049.09-.514.09-3.59V33.81l-.76-.016-.76-.017v1.991c0 1.65-.015 2.021-.089 2.163-.049.093-.089.311-.089.483 0 .238-.022.313-.09.313-.049 0-.09.037-.09.083 0 .046-.04.098-.089.117-.049.02-.09.069-.09.111 0 .042-.094.137-.209.21-.114.075-.207.162-.207.195 0 .032-.121.059-.269.059-.198 0-.268.023-.268.09 0 .066-.072.089-.291.089-.205 0-.302-.027-.326-.09-.023-.059-.116-.09-.275-.09-.18 0-.24-.023-.24-.094 0-.053-.054-.11-.119-.127-.066-.017-.12-.08-.12-.14a.2.2 0 00-.088-.159c-.076-.043-.091-.415-.105-2.61l-.015-2.56-.745-.012c-.41-.006-.778.003-.82.02m29.485 3.505c0 4.113-.096 3.667.788 3.667.776 0 .701.393.701-3.676V33.78h-1.489v3.543m-62.893-2.322c.023.06.118.09.296.09.193 0 .262.023.262.089 0 .06.06.09.178.09.14 0 .18.026.18.119 0 .066.039.119.088.119.05 0 .09.04.09.09 0 .05.054.136.119.192.066.056.12.164.12.24 0 .075.04.153.089.172.049.018.09.085.09.146 0 .108-.073.113-1.73.113-1.893 0-1.879.003-1.608-.341.066-.083.12-.188.12-.233 0-.044.025-.081.057-.081.033 0 .076-.067.096-.15.021-.081.075-.148.12-.148.046 0 .084-.054.084-.12 0-.092.04-.119.178-.119.12 0 .18-.03.18-.09 0-.064.065-.088.24-.088.158 0 .251-.03.274-.09.021-.055.112-.09.238-.09.127 0 .217.035.239.09m11.165 0c0 .062.063.09.202.09.125 0 .216.034.237.089.019.05.102.09.185.09.111 0 .15.03.15.119 0 .066.04.119.09.119.05 0 .09.052.09.115 0 .064.024.131.054.15.287.177.477 2.473.214 2.574-.05.02-.09.108-.09.206 0 .114-.03.173-.089.173-.054 0-.09.055-.09.143 0 .078-.04.158-.089.177a.147.147 0 00-.09.125c0 .052-.051.091-.119.091-.066 0-.166.054-.222.12a.397.397 0 01-.267.119c-.108 0-.166.03-.166.09 0 .066-.072.089-.29.089-.186 0-.318-.033-.365-.09-.041-.05-.165-.09-.276-.09-.11 0-.201-.03-.201-.067 0-.08-.278-.35-.36-.35-.032 0-.057-.04-.057-.089a.09.09 0 00-.09-.09c-.059 0-.09-.06-.09-.178 0-.12-.029-.179-.088-.179-.07 0-.09-.082-.09-.38 0-.265-.027-.403-.09-.454-.063-.053-.089-.193-.089-.486 0-.311.022-.42.09-.446.065-.025.09-.129.09-.386 0-.272.02-.35.089-.35.06 0 .089-.06.089-.18 0-.119.03-.178.09-.178a.09.09 0 00.089-.09c0-.05.043-.09.095-.09.052 0 .109-.053.126-.118.018-.067.081-.12.145-.12.063 0 .13-.04.149-.09.02-.054.112-.088.236-.088.14 0 .202-.028.202-.09 0-.067.073-.09.298-.09.225 0 .298.023.298.09m43.585 0c.023.062.119.09.304.09.201 0 .27.023.27.089 0 .05.053.09.119.09.065 0 .152.053.193.119.041.065.108.119.15.119.041 0 .075.041.075.092 0 .126.242.444.339.444.055 0 .078.1.078.346 0 .212.034.391.087.462.124.163.125.895.002.942-.066.025-.089.13-.089.394 0 .273-.021.36-.087.36-.08 0-.22.195-.306.431-.021.058-.075.104-.121.104a.083.083 0 00-.082.085c0 .047-.081.102-.179.124-.098.022-.179.078-.179.124 0 .056-.067.085-.204.085-.112 0-.245.04-.294.09-.056.055-.202.089-.391.089-.229 0-.303-.022-.303-.09 0-.06-.059-.09-.179-.09-.098 0-.178-.027-.178-.06 0-.034-.074-.093-.164-.133a.588.588 0 01-.212-.148.177.177 0 00-.134-.076.088.088 0 01-.086-.089.09.09 0 00-.089-.09c-.06 0-.09-.06-.09-.178 0-.12-.03-.179-.089-.179-.063 0-.09-.063-.09-.208 0-.146-.027-.21-.089-.21-.075 0-.089-.135-.089-.863s.014-.864.089-.864c.059 0 .089-.06.089-.18 0-.118.03-.178.09-.178.059 0 .089-.06.089-.179s.03-.178.09-.178a.09.09 0 00.089-.09c0-.05.043-.09.095-.09.052 0 .109-.053.126-.118.022-.085.081-.12.203-.12.113 0 .172-.03.172-.09 0-.064.066-.088.24-.088.159 0 .252-.03.275-.09.02-.054.111-.09.23-.09.119 0 .209.036.23.09m-96.802.477c0 .199-.01.209-.209.209-.168 0-.208-.023-.208-.12 0-.066.04-.119.09-.119a.09.09 0 00.089-.09c0-.049.053-.089.119-.089.096 0 .119.04.119.21m6.436 0c0 .198-.01.208-.208.208-.17 0-.209-.023-.209-.12 0-.066.04-.119.09-.119a.09.09 0 00.089-.09c0-.049.053-.089.119-.089.097 0 .12.04.12.21m-3.219 1.34c0 .12.03.179.09.179.056 0 .089.056.089.15 0 .084.04.167.09.185.063.025.089.125.089.354 0 .26-.017.314-.09.286-.049-.02-.09-.072-.09-.117 0-.06-.082-.084-.297-.084-.291 0-.298.004-.298.179 0 .12-.03.179-.09.179-.07 0-.089-.083-.089-.387 0-.305.02-.388.09-.388.06 0 .09-.06.09-.178 0-.12.029-.18.088-.18.06 0 .09-.059.09-.178 0-.14.026-.179.119-.179s.119.04.119.179m-3.218.566c0 .169-.023.208-.12.208-.065 0-.118-.04-.118-.089 0-.049-.047-.092-.105-.096-.099-.006-.099-.008 0-.034.058-.015.105-.066.105-.113 0-.046.053-.084.119-.084.096 0 .119.04.119.208m1.848-.147c0 .034.06.086.134.115.102.042.11.055.03.058-.058.002-.105.044-.105.093 0 .05-.053.09-.12.09-.096 0-.118-.04-.118-.209 0-.146.026-.208.09-.208.048 0 .088.027.088.061m2.682.147c0 .169-.022.208-.119.208-.066 0-.12-.04-.12-.089 0-.049-.046-.092-.103-.096-.1-.006-.1-.008 0-.034.057-.015.104-.066.104-.113 0-.046.053-.084.12-.084.096 0 .118.04.118.208m1.907 0c0 .199-.01.208-.208.208-.2 0-.209-.01-.209-.208 0-.199.01-.208.209-.208.198 0 .208.01.208.208m-4.35 1.781c0 .076-.17.153-.343.155-.04 0-.074-.053-.074-.119 0-.096.04-.119.208-.119.138 0 .209.028.209.083m2.443.036c0 .125-.06.142-.283.082-.217-.058-.165-.2.075-.2.168 0 .208.022.208.118m-1.311 1.103c0 .05.047.093.104.096.1.007.1.009 0 .035-.057.014-.104.065-.104.112s-.054.085-.12.085c-.096 0-.118-.04-.118-.209 0-.168.022-.208.119-.208.066 0 .119.04.119.09m-7.968.386c.02.079.002.12-.055.12-.047 0-.1.04-.12.089-.018.05-.071.09-.117.09-.059 0-.083.078-.083.268v.268h-.298c-.225 0-.298-.022-.298-.09a.09.09 0 00-.09-.09.09.09 0 110-.178c.05 0 .09-.04.09-.09a.09.09 0 01.09-.089.09.09 0 00.089-.09c0-.06.06-.089.184-.089.134 0 .193-.032.216-.118.021-.084.081-.12.196-.12s.174.037.196.12m16.09 0c.023.085.082.118.21.118.103 0 .192.038.212.09.019.05.102.09.185.09.139 0 .15.02.15.268v.268h-.774v-.268c0-.199-.023-.269-.09-.269a.09.09 0 01-.089-.09c0-.048-.047-.091-.104-.095-.1-.007-.1-.008 0-.035.057-.014.104-.065.104-.112 0-.129.16-.101.196.035" fill="#1c1c1c"/><path d="M2.037 28.298v14.005h1.788v-28.01H2.037v14.005" fill="#04346c"/></g></svg>