<svg xmlns="http://www.w3.org/2000/svg" xml:space="preserve" xmlns:vectornator="http://vectornator.io" viewBox="0 0 144 56" clip-rule="evenodd" stroke-linecap="round" stroke-linejoin="round"><g fill-rule="evenodd" vectornator:layerName="Untitled"><path d="M138.953 12.472l-7.653 16.37-2.877-6.203h-3.112l4.732 10.146h2.515l9.485-20.313h-3.09z" fill="#d52b1e"/><path d="M106.126 42.868h6.161V31.592c0-2.58 1.492-4.391 3.709-4.391 2.131 0 3.24 1.492 3.24 3.645v12.022h6.16V29.673c0-4.476-2.686-7.63-7.034-7.63-2.771 0-4.711 1.193-6.161 3.367h-.127v-2.77h-5.969l.021 20.228zM94.019 22.085c-6.437 0-10.743 4.625-10.743 10.722 0 6.053 4.306 10.721 10.743 10.721s10.743-4.668 10.743-10.721c.022-6.097-4.306-10.722-10.743-10.722zm-.043 16.882c-2.92 0-4.476-2.451-4.476-6.16 0-3.752 1.535-6.16 4.477-6.16 2.92 0 4.54 2.408 4.54 6.16.021 3.709-1.599 6.16-4.54 6.16zm-28.264 3.9H83.02v-4.86h-9.805v-.127l9.379-10.509v-4.753H65.712v4.881h9.485v.128l-9.485 10.594v4.647zm-7.908 0h6.203V22.64h-6.203v20.229zm-14.388 0h6.181v-9.293c0-4.22 2.537-6.096 6.395-5.563h.128v-5.33c-.32-.127-.682-.149-1.258-.149-2.409 0-4.029 1.109-5.414 3.475h-.128v-3.368h-5.904v20.229zm-11.34-3.879c-2.729 0-4.391-1.769-4.711-4.497h14.58c.042-4.349-1.109-7.823-3.517-9.997-1.706-1.578-3.944-2.452-6.8-2.452-6.096 0-10.317 4.626-10.317 10.68 0 6.096 4.029 10.743 10.722 10.743 2.537 0 4.54-.683 6.203-1.812 1.77-1.215 3.048-3.006 3.39-4.775h-5.927c-.575 1.322-1.811 2.11-3.623 2.11zm-.32-12.533c2.174 0 3.666 1.62 3.922 3.986h-8.27c.49-2.388 1.79-3.986 4.348-3.986zM8.99 42.868h6.48l7.034-20.229h-6.203l-3.943 13.003h-.086L8.33 22.639H1.957L8.99 42.868zm48.813-27.434h6.203v5.5h-6.203v-5.5z" fill="#000"/></g></svg>