<svg xmlns="http://www.w3.org/2000/svg" xml:space="preserve" xmlns:vectornator="http://vectornator.io" viewBox="0 0 144 56" clip-rule="evenodd" stroke-linecap="round" stroke-linejoin="round"><path d="M12.961 32.944l7.092-16.254c.397-.909 1.022-1.477 2.27-1.477 1.363 0 2.382.968 2.382 2.444 0 .342-.054.625-.225 1.022l-9.363 20.689c-.395.852-1.132 1.421-2.156 1.421-1.02 0-1.757-.568-2.156-1.422L1.447 18.68a2.381 2.381 0 01-.228-1.023c0-1.475 1.022-2.443 2.382-2.443 1.247 0 1.873.568 2.272 1.477l7.09 16.254h-.002zm17.85 7.845c-1.589 0-2.667-1.194-2.667-2.671v-20.23c0-1.482 1.135-2.677 2.668-2.677 1.533 0 2.667 1.194 2.667 2.676v20.23c0 1.478-1.079 2.672-2.667 2.672m45.378.228c-3.576 0-6.754-1.138-9.021-2.9-.795-.623-1.135-1.476-1.135-2.216 0-1.138.907-1.876 2.044-1.876.907 0 1.474.34 2.097.797 1.533 1.136 3.69 2.216 6.411 2.216 3.064 0 4.71-1.138 4.71-2.899 0-1.932-1.589-2.672-5.559-3.752-6.98-1.874-9.533-4.26-9.533-8.356 0-4.263 3.914-7.048 10.042-7.048 2.327 0 4.936.57 7.035 1.592 1.534.74 2.61 1.65 2.61 2.786 0 1.023-.568 1.99-2.041 1.99-.74 0-1.476-.34-2.327-.793-1.588-.855-3.347-1.31-5.389-1.31-2.838 0-4.769.74-4.769 2.728 0 1.935 1.703 2.558 5.789 3.751 6.127 1.763 9.305 3.412 9.305 8.012 0 4.207-3.52 7.277-10.269 7.277m53.6-21.482c-4.995 0-7.662 3.865-7.662 8.467 0 4.605 2.667 8.466 7.662 8.466 4.989 0 7.657-3.861 7.657-8.466 0-4.602-2.668-8.466-7.657-8.466m0 21.48c-7.889 0-12.995-5.851-12.995-13.014 0-7.162 5.106-13.018 12.995-13.018 7.884 0 12.991 5.857 12.991 13.018 0 7.163-5.107 13.015-12.991 13.015m-25.479-10.16h3.397v4.175c-1.195.904-3.084 1.437-4.938 1.437-4.995 0-7.661-3.861-7.661-8.466 0-4.603 2.668-8.465 7.662-8.465 1.486 0 2.764.338 3.827.944 1.263.715 2.765.917 3.731-.054.969-.968.933-2.615-.286-3.402-1.998-1.29-4.458-2.042-7.272-2.042-7.889 0-12.995 5.86-12.995 13.02 0 7.16 5.106 13.013 12.994 13.013 3.247 0 6.385-.993 8.529-2.662.211-.164.565-.487.893-.819.669-.67.848-1.126.848-2.18v-6.187a2.626 2.626 0 00-2.624-2.631h-6.105c-1.189 0-2.214.794-2.214 2.1 0 1.31 1.024 2.218 2.214 2.218m-55.835-5.297c-1.192 0-2.21.804-2.21 2.11 0 1.309 1.018 2.218 2.21 2.218h11.95c1.533 0 2.045-.92 2.045-1.828 0-7.272-4.65-13.074-11.801-13.074-7.318 0-12.708 5.574-12.708 13.017 0 7.105 4.48 13.016 12.936 13.016 4.084 0 7.943-1.648 10.099-4.153.396-.45.682-.964.682-1.53 0-1.365-1.023-2.218-2.215-2.218-.678 0-1.303.397-1.76.853-1.87 1.762-3.63 2.784-6.58 2.784-4.708 0-7.333-2.96-7.658-6.877-.046-.532-.108-1.142-.108-2.137 0-.727.14-1.638.22-2.181.517-3.523 3.176-6.31 7.091-6.31 3.86 0 6.413 2.899 6.868 6.31h-9.061z" fill-rule="evenodd" fill="#e10000" vectornator:layerName="Untitled"/></svg>