<svg xmlns="http://www.w3.org/2000/svg" viewBox="0 0 144 56" clip-rule="evenodd" stroke-linecap="round" stroke-linejoin="round"><path d="M1.5 13.368h29.172v29.264H1.5V13.368zm8.557 7.12l5.057 9.463v6.145h1.945V30.05l5.056-9.56h-2.139l-2.917 5.95c-.195.293-.389.586-.486.878a2.095 2.095 0 01-.228.536 2.02 2.02 0 00-.161.342c-.049-.049-.073-.122-.098-.195-.024-.073-.048-.146-.097-.195a1.7 1.7 0 01-.097-.244 1.686 1.686 0 00-.097-.244v-.097l-.098-.098a1.895 1.895 0 01-.08-.186.487.487 0 00-.114-.204c-.097-.098-.194-.195-.194-.293l-2.918-5.95h-2.334zm33.938-1.462c1.458 0 2.723.39 3.695 1.17l-.972 1.17c-.876-.584-1.75-.975-2.82-.975-1.654 0-2.918.878-3.598 2.537-.39.975-.584 2.243-.584 3.902 0 1.268.195 2.34.486 3.121.778 1.854 2.042 2.731 3.987 2.731 1.07 0 2.042-.292 2.917-.975l.973 1.268a7.637 7.637 0 01-4.084 1.17c-1.75 0-3.21-.682-4.376-2.145-1.167-1.366-1.653-3.22-1.653-5.463 0-2.244.583-4 1.75-5.463 1.07-1.268 2.528-2.048 4.279-2.048zm5.542 9.657c0-1.756.39-3.122 1.265-4.098.875-.975 1.944-1.56 3.306-1.56 1.556 0 2.82.585 3.695 1.853.68.976.972 2.341.972 4 0 1.95-.583 3.511-1.653 4.487-.778.683-1.75 1.073-2.917 1.073-1.459 0-2.528-.488-3.403-1.56-.876-.976-1.265-2.44-1.265-4.195zm6.807-2.83c-.486-.877-1.166-1.365-2.236-1.365-1.07 0-1.75.39-2.237 1.17-.389.586-.486 1.561-.486 2.83 0 1.658.195 2.828.68 3.511.487.683 1.168 1.073 2.14 1.073 1.167 0 1.945-.585 2.334-1.658.194-.585.292-1.366.292-2.341.097-1.463-.098-2.537-.487-3.22zm5.543.196c0-1.073-.097-1.951-.389-2.634l1.653-.39c.292.488.39 1.073.39 1.56v.098c.388-.39.777-.78 1.36-1.073.681-.39 1.265-.585 1.848-.585.875 0 1.654.39 2.14 1.073.097.195.291.488.389.683 1.166-1.171 2.236-1.756 3.403-1.756.778 0 1.459.292 1.945.78.486.585.778 1.268.778 2.049v8.096h-1.75v-7.999c0-1.073-.487-1.56-1.362-1.56-.486 0-1.07.195-1.556.585-.195.195-.584.488-1.07.878l-.194.195v7.901h-1.848v-7.609c0-.683-.097-1.17-.291-1.365-.292-.293-.584-.39-1.07-.39-.778 0-1.653.487-2.723 1.463v7.999h-1.653v-8zm16.531-7.414l1.75-.39c.196.78.293 1.658.293 2.731v3.609c.972-.975 2.041-1.463 3.111-1.463 1.264 0 2.334.488 3.015 1.464.777.975 1.166 2.34 1.166 4 0 1.755-.389 3.12-1.166 4.194-.778 1.073-1.848 1.56-3.112 1.56-.583 0-1.07-.097-1.653-.39-.584-.293-.972-.585-1.264-.975a9.93 9.93 0 01-.292 1.17h-1.653c.194-.488.291-1.365.291-2.731V21.172c-.097-1.171-.194-2.049-.486-2.537zm2.82 6.633a2.966 2.966 0 00-.777.78v5.561c.68.878 1.555 1.268 2.625 1.268.875 0 1.556-.293 1.945-.975.486-.78.778-1.854.778-3.415 0-1.365-.194-2.34-.68-2.926-.39-.585-1.07-.878-2.043-.878-.584-.097-1.264.098-1.848.585zm9.042-5.267c0-.39.099-.683.39-.975.292-.293.583-.39.972-.39.39 0 .681.097.973.39.292.292.389.585.389.975s-.097.683-.39.976c-.29.292-.583.39-.972.39s-.68-.098-.972-.39c-.291-.293-.39-.586-.39-.976zm.39 14.047v-10.73l1.75-.293v11.023h-1.75zm5.543-7.999c0-.78 0-1.268-.097-1.463 0-.293-.195-.586-.389-1.073l1.653-.488c.292.585.39 1.073.39 1.658 1.069-1.073 2.236-1.658 3.402-1.658.584 0 1.071.097 1.557.39.486.293.875.683 1.069 1.17.194.39.292.78.292 1.269v8.194h-1.653v-7.316c0-.878-.097-1.464-.389-1.756a1.61 1.61 0 00-1.167-.488c-.389 0-.972.195-1.556.488a5.67 5.67 0 00-1.459 1.073v7.999h-1.653v-8zm11.767-.39l-.876-1.171c1.459-.976 2.918-1.463 4.473-1.463 1.557 0 2.529.585 3.015 1.658.194.39.194.976.194 1.854v.585l-.097 3.511v.488c0 .585 0 .976.097 1.268.097.39.389.683.778.878l-.875 1.17c-.778-.292-1.264-.78-1.458-1.56-.973.975-2.042 1.463-3.112 1.463-1.07 0-1.945-.292-2.625-.878-.584-.487-.876-1.268-.876-2.243 0-1.268.486-2.146 1.459-2.83.972-.682 2.431-.975 4.181-.975h.778v-.78c0-.878-.097-1.463-.389-1.658-.389-.39-.778-.585-1.458-.585-.584 0-1.265.195-2.043.487-.291.195-.68.488-1.166.78zm5.154 5.755l.097-2.829h-.876c-1.555 0-2.528.293-3.112.878-.388.39-.583.975-.583 1.756 0 1.268.583 1.95 1.848 1.95 1.167-.097 2.042-.682 2.626-1.755zm7.196-8.096h2.723l-.486 1.365h-2.237v6.926c0 .585.097.976.292 1.268.194.195.583.39 1.069.39.389 0 .778-.097 1.07-.195l.194 1.073c-.583.293-1.167.39-1.847.39-1.653 0-2.432-.78-2.432-2.438v-7.414h-1.458v-1.365h1.361v-.195c0-.196.097-.976.195-2.244v-.293l1.75-.39c-.194 1.17-.194 2.244-.194 3.122zm4.473 5.365c0-1.756.389-3.122 1.264-4.098.778-.975 1.945-1.56 3.306-1.56 1.557 0 2.82.585 3.695 1.853.682.976.973 2.341.973 4 0 1.95-.583 3.511-1.653 4.487-.778.683-1.75 1.073-2.917 1.073-1.459 0-2.529-.488-3.404-1.56-.777-.976-1.264-2.44-1.264-4.195zm6.904-2.83c-.486-.877-1.167-1.365-2.236-1.365-1.07 0-1.751.39-2.237 1.17-.389.586-.486 1.561-.486 2.83 0 1.658.194 2.828.68 3.511.487.683 1.168 1.073 2.14 1.073 1.167 0 1.945-.585 2.334-1.658.194-.585.291-1.366.291-2.341 0-1.463-.194-2.537-.486-3.22zm5.542.001c0-.976-.098-1.756-.389-2.341l1.653-.488c.292.585.389 1.073.389 1.658v.195c.875-1.17 1.848-1.756 3.014-1.756.195 0 .389 0 .584.098l-.681 1.853c-.194-.097-.389-.097-.486-.097-.389 0-.875.097-1.264.39-.389.293-.778.585-.973.975a3.656 3.656 0 00-.194 1.171v6.73h-1.653v-8.388z" fill-rule="evenodd" fill="#000"/></svg>