<svg xmlns="http://www.w3.org/2000/svg" xml:space="preserve" xmlns:vectornator="http://vectornator.io" viewBox="0 0 144 56" clip-rule="evenodd" stroke-linecap="round" stroke-linejoin="round"><path d="M57.667 14.738h5.261v26.519h-5.26v-26.52zm43.346 26.525h5.789L94.708 14.738h-8.683v26.519h5.273v-8.393h5.905l3.81 8.399zm-9.715-13.127v-8.225l3.741 8.231h-3.741v-.006zM76.223 14.743v-.005H65.567v26.525h10.65v-.006c4.292-.081 7.749-3.602 7.749-7.941 0-2.042-.766-3.91-2.042-5.313a7.858 7.858 0 002.042-5.313c.006-4.345-3.457-7.854-7.743-7.947zm-.093 5.238c1.45.029 2.616 1.224 2.616 2.703a2.704 2.704 0 01-2.587 2.691h-5.342v-5.394h5.313zm.006 16.032H70.81V30.62h5.336a2.694 2.694 0 012.599 2.691 2.695 2.695 0 01-2.61 2.703zm-28.271-21.27v-.005H37.198v26.519h10.661v-.006c4.292-.081 7.75-3.602 7.75-7.94 0-2.043-.778-3.91-2.043-5.314a7.914 7.914 0 002.042-5.313c.006-4.333-3.457-7.848-7.743-7.94zm-.105 5.238a2.687 2.687 0 012.628 2.703 2.7 2.7 0 01-2.587 2.691h-5.354v-5.394h5.313zm.006 16.032h-5.325V30.62h5.337a2.696 2.696 0 012.61 2.691 2.697 2.697 0 01-2.622 2.703z" vectornator:layerName="Untitled" fill-rule="evenodd" fill="#e2001a"/></svg>