<svg xmlns="http://www.w3.org/2000/svg" xml:space="preserve" xmlns:vectornator="http://vectornator.io" viewBox="0 0 144 56" clip-rule="evenodd" stroke-linecap="round" stroke-linejoin="round"><g fill-rule="evenodd" vectornator:layerName="Untitled"><path d="M43.934 4.255c-.41.25-.819.882-1.146 1.773a17.908 17.908 0 00-.493 1.526l-.116.48c-.047.195-.092.39-.133.585-.029.138-.067.307-.084.376-.103.4-.336 1.648-.46 2.465a30.59 30.59 0 00-.191 1.295c-.088.704-.13 1.032-.184 1.44-.025.196-.064.52-.086.721l-.082.752a98.676 98.676 0 00-.254 2.81c-.073.929-.096 2.89-.037 3.174.028.138.05.298.049.355-.008.267.24.915.495 1.295.15.222.755.836.825.836.019 0 .07.032.115.073.089.08.51.344.55.344.013 0 .12.063.237.14.193.128 1.237.654 1.297.654.013 0 .113.04.222.088.229.101.264.115.659.262.381.142.378.143.747-.089.353-.222.39-.282.302-.48l-.211-.463a2.82 2.82 0 01-.15-.368c0-.04-1.62-1.123-1.812-1.211-.06-.027-.11-.064-.11-.082 0-.018-.037-.044-.083-.059a.397.397 0 01-.136-.078 1.983 1.983 0 00-.261-.174 4.093 4.093 0 01-.25-.154 8.907 8.907 0 00-.314-.207 3.756 3.756 0 01-.386-.279l-.115-.105v-3.73l-.103-.055c-.315-.168-.294-.755.034-.958.605-.372 1.252.398.753.897l-.141.141v3.513l.198.123c.11.068.218.14.243.16.024.021.089.062.144.092.054.029.119.069.143.089.024.02.157.108.295.195.138.087.5.322.804.522.695.457.673.46.423-.086a296.376 296.376 0 00-.716-1.556 62.27 62.27 0 00-.472-1.02c-.05-.102-.06-.752-.06-4.232v-4.11l-.142-.135c-.453-.427-.072-1.126.55-1.01.46.087.597.789.202 1.047l-.109.071v4.048c0 3.894.004 4.054.08 4.224l.235.512c.085.183.182.397.215.475.078.18.104.154.37-.35a5.03 5.03 0 01.234-.416c.02-.022.036-1.041.036-2.265V15.91l-.106-.07c-.32-.208-.31-.74.018-.973.602-.429 1.296.494.715.952l-.126.099v4.552l-.119.215c-.065.118-.16.286-.209.372-.138.242-.231.409-.356.64l-.115.213.195.435c.119.263.239.524.361.785.24.507.41.882.41.902 0 .015.21.473.407.893.088.185.14.198.398.098.155-.058.311-.11.47-.157.368-.107.373-.114.318-.526-.046-.344-.1-1.117-.175-2.458-.06-1.085-.12-3.2-.166-5.765-.068-3.868-.164-5.46-.41-6.746l-.087-.46a20.854 20.854 0 00-.252-1.106c-.202-.735-.385-1.288-.544-1.65a3.067 3.067 0 01-.104-.272c-.343-1.141-1.5-2.02-2.143-1.628m11.604.381c-.228.063-.501.179-.501.213 0 .018-.023.032-.049.032-.043 0-.311.188-.619.435-.324.26-1.053 1.04-1.391 1.486-.09.12-.18.238-.272.355-.019.023-.135.192-.258.376a5.695 5.695 0 01-.25.355c-.023.02-.354.57-.59.982-.326.57-.703 1.31-1 1.963a31.34 31.34 0 01-.212.457.962.962 0 00-.08.201c0 .02-.047.14-.104.265a1.37 1.37 0 00-.105.281.16.16 0 01-.036.093c-.02.022-.115.256-.211.52-.096.264-.192.518-.213.564-.02.046-.069.187-.107.313-.038.127-.124.4-.19.606-.188.585-.196.611-.268.877l-.103.376c-.14.511-.249.966-.293 1.233a21.87 21.87 0 01-.087.501c-.334 1.763-.38 3.594-.174 7.097.02.344.08.446.23.398.051-.016.28-.041.509-.055l.415-.026.034-.125c.019-.069.054-.313.078-.543.114-1.099.139-1.338.25-2.36l.169-1.566c.022-.207.068-.658.102-1.003.034-.345.082-.805.105-1.024.042-.387.082-.762.161-1.524.05-.474.085-.688.132-.794.021-.046.159-.375.307-.73.397-.958.544-1.304.73-1.717.046-.105.125-.293.173-.418.048-.124.115-.287.148-.362.056-.126.09-.202.244-.564l.184-.428c.07-.16.214-.508.322-.772.107-.265.221-.534.252-.598.05-.104.048-.133-.024-.25-.396-.651.614-1.213 1.036-.577.21.316-.042.881-.393.881-.057 0-.106.056-.159.178-.278.642-.55 1.286-.82 1.932a43.857 43.857 0 01-.393.919c-.046.108-.094.216-.142.323-.048.11-.088.21-.088.224 0 .024-.046.134-.209.497a34.248 34.248 0 00-.585 1.385.935.935 0 01-.057.154c-.065.149-.128.648-.34 2.732-.025.238-.044.251.551-.363.506-.522.532-.557.709-.971.248-.583.243-.573.34-.786.177-.395.25-.567.28-.668.018-.057.075-.198.127-.313.113-.25.224-.5.331-.752.153-.366.15-.348.064-.491-.3-.493.326-1.088.826-.784.46.282.38.904-.144 1.095-.14.051-.154.071-.329.493-.1.245-.204.489-.31.731-.052.115-.12.27-.151.345l-.117.271-.151.366c-.134.33-.197.477-.449 1.044-.057.13-.332.443-.897 1.02l-.815.833-.026.316c-.032.369-.07.727-.237 2.259-.021.195-.068.656-.103 1.024l-.1 1.023c-.045.45-.053.435.28.499.154.03.383.082.51.117.48.131.468.134.6-.163.155-.347.205-.462.34-.787.062-.15.146-.347.186-.439.041-.092.126-.29.189-.439.063-.149.148-.346.189-.438.183-.41.208-.476.208-.53a.17.17 0 01.036-.099c.02-.022.124-.265.233-.54.109-.277.222-.558.251-.627.064-.148.202-.503.433-1.107l.28-.731c.132-.339.502-1.39.713-2.026a9.33 9.33 0 01.185-.522c.022-.046.106-.3.188-.564a138.9 138.9 0 01.47-1.504 10.383 10.383 0 00.175-.595l.08-.282c.142-.5.655-2.509.716-2.8l.126-.584c.108-.5.18-.875.268-1.378.038-.219.086-.482.106-.585.02-.104.058-.338.085-.522.025-.18.054-.357.086-.535.285-1.48-.484-2.583-1.59-2.279m39.098 23.345v3.3h1.546V28.9h2.423v-1.337h-2.423v-1.504h3.258v-.663c0-.653-.001-.664-.094-.69-.052-.013-1.132-.024-2.402-.025h-2.308v3.3m5.522-.22c.01 2.255.027 3.109.063 3.185.027.058.06.156.073.22l.025.115h1.679l-.061-.094a2.823 2.823 0 01-.162-.345l-.1-.25-.012-2.956-.013-2.956h-1.505l.013 3.081m3.856-1.406c-1.146.255-1.61.975-1.607 2.49.003 1.818.719 2.6 2.38 2.6 1.02 0 2.137-.531 2.039-.97-.007-.03.032-.149.086-.262.149-.31.161-.348.211-.674.198-1.311-.142-2.525-.818-2.922-.454-.266-1.654-.403-2.291-.262m3.405.14c0 .034.017.105.038.157.022.053.127.378.234.723.154.495.532 1.682.897 2.82l.19.595.157.49h1.816l.022-.114c.012-.064.041-.181.064-.261.022-.08.08-.288.126-.46a147.942 147.942 0 01.378-1.368c.123-.444.152-.48.205-.258.025.102.085.326.135.498.2.697.234.82.328 1.177.046.176.114.425.152.553l.067.234h1.781l.085-.22a5.26 5.26 0 00.128-.365c.08-.274.678-2.165 1.131-3.572l.189-.595.028-.094h-1.546l-.091.303c-.05.166-.125.406-.165.533-.05.16-.099.32-.145.48-.071.252-.146.502-.225.752l-.214.68c-.143.457-.156.472-.21.253-.039-.152-.08-.303-.124-.453a16.07 16.07 0 01-.13-.48 12.21 12.21 0 00-.128-.46 64.434 64.434 0 01-.393-1.369l-.067-.241-.653.012-.653.011-.14.48c-.15.517-.222.773-.344 1.233-.053.195-.109.39-.166.584a23.18 23.18 0 00-.166.578c-.082.303-.127.39-.127.246a.605.605 0 00-.039-.185c-.046-.112-.219-.671-.565-1.83-.239-.798-.284-.943-.319-1.033-.046-.12-1.541-.152-1.541-.033m-2.208 1.043c.355.148.496.767.403 1.775-.059.653-.176.837-.584.92-.877.18-1.236-.425-1.083-1.82.065-.592.143-.762.401-.876.168-.074.686-.074.863 0m-60.096 2.759c-.137.05-.306.114-.375.142-.07.028-.182.071-.251.096-.279.103-.439.178-.439.207 0 .017-.057.043-.128.059-.268.059-1.698.855-1.835 1.02a3.27 3.27 0 01-.239.184c-.279.203-.51.465-.675.767-.074.133-.167.299-.208.367-.076.127-.09.169-.19.543-.162.599-.192 2.303-.07 3.843.154 1.932.315 3.493.502 4.888.022.16.06.47.084.689.024.218.062.5.083.627.022.126.06.361.085.522l.105.647.084.502a77.295 77.295 0 00.439 2.193c.027.137.076.349.108.47l.123.459a20.47 20.47 0 00.445 1.389 8.7 8.7 0 01.079.188c.59 1.485 1.202 1.988 1.981 1.63.187-.085.815-.698.815-.795 0-.034.015-.062.034-.062.16 0 .857-1.863 1.133-3.029l.086-.355c.02-.08.057-.259.081-.397s.062-.335.085-.438c.238-1.08.349-2.881.418-6.788.076-4.237.204-7.233.362-8.443l.022-.171-.526-.173c-.653-.215-.616-.217-.734.046l-.222.49c-.126.279-.251.557-.375.836-.035.08-.16.349-.277.596a9.049 9.049 0 00-.213.469c0 .01-.057.137-.126.283l-.127.264.142.27c.164.314.336.624.514.93l.14.242v4.558l.101.079c.351.276.322.76-.06.992-.605.37-1.2-.488-.669-.965l.127-.114v-4.378l-.167-.308c-.087-.16-.173-.322-.258-.485-.05-.097-.105-.177-.122-.177-.032 0-.296.535-.465.94a1.563 1.563 0 01-.123.248c-.05.058-.045 8.21.006 8.21.022 0 .08.043.128.095a.596.596 0 01-.658.97c-.398-.158-.461-.827-.098-1.021.086-.046.086-.053.086-4.176 0-3.979.003-4.136.08-4.29.044-.09.112-.237.152-.329.04-.092.143-.317.228-.5.15-.327.3-.654.448-.983l.22-.48c.34-.73.335-.711.146-.624-.117.053-2.11 1.344-2.224 1.44-.04.034-.052.446-.052 1.797v1.754l.127.114c.297.266.216.774-.151.948-.606.288-1.141-.476-.666-.95l.147-.147v-1.834c0-1.404.012-1.85.052-1.901.049-.063 2.351-1.583 2.58-1.703a.643.643 0 00.125-.08c.046-.056.291-.213.332-.213.024 0 .044-.017.044-.037 0-.02.058-.061.13-.09.128-.053.207-.191.518-.897.14-.32.135-.333-.246-.564-.13-.078-.235-.157-.235-.175 0-.06-.268-.025-.523.069m5.849.983c-.177.046-.354.088-.532.125-.298.06-.286.034-.238.505l.102 1.02c.033.345.08.806.104 1.024.024.218.062.566.083.773l.084.773c.024.218.059.543.076.721l.032.325.604.612c1.135 1.152 1.02 1.015 1.18 1.391.034.08.111.255.171.388.06.132.109.25.109.26 0 .023.183.459.652 1.555l.117.272.15.355c.059.136.12.22.162.22.444 0 .662.688.323 1.02-.477.468-1.285-.118-.941-.683.068-.112.077-.161.043-.23-.082-.18-.161-.363-.237-.546a164.8 164.8 0 00-.247-.585 24.33 24.33 0 01-.147-.355l-.15-.366-.252-.584a16.07 16.07 0 00-.141-.324 86.01 86.01 0 01-.149-.334c-.068-.155-1.034-1.19-1.11-1.19-.033 0-.024.152.049.803l.08.731.088.804c.026.242.074.498.106.57a.875.875 0 01.058.158c0 .014.04.114.089.223l.142.323.145.335c.117.263.175.401.459 1.086.041.1.115.275.293.689l.188.439.142.323c.048.109.088.209.088.222 0 .013.047.127.104.252.058.126.105.237.105.247 0 .01.049.127.109.26.06.132.133.297.162.367l.142.323c.048.109.088.217.088.24 0 .024.102.088.227.144.37.163.51.557.305.863-.417.624-1.423.06-1.033-.58.093-.151.11-.078-.162-.687a1.726 1.726 0 01-.089-.222c0-.014-.047-.127-.104-.253a2.655 2.655 0 01-.105-.246c0-.01-.049-.127-.109-.26s-.132-.298-.161-.367l-.607-1.441a68.147 68.147 0 00-.31-.731l-.16-.355a4.2 4.2 0 01-.136-.334 4.165 4.165 0 00-.135-.334c-.09-.201-.178-.403-.263-.606-.044-.107-.07-.274-.126-.794l-.085-.793c-.064-.592-.126-1.184-.184-1.776-.06-.602-.122-1.205-.187-1.806a210.26 210.26 0 00-.17-1.546c-.058-.523-.113-1.047-.165-1.571-.052-.517-.1-.695-.172-.65-.026.015-.25-.006-.499-.047-.554-.093-.583-.08-.583.276 0 .133-.017.38-.038.548-.308 2.432-.011 6.479.624 8.514.018.057.074.245.124.418.147.504.175.594.254.814.04.115.112.331.157.48.085.275.276.829.34.982.02.046.074.173.123.282.048.109.087.222.087.253 0 .03.016.072.035.094a.86.86 0 01.09.186c.15.398.338.811.762 1.67.255.517.475.95.488.961.027.023.204.341.274.49.024.053.057.095.075.095.017 0 .03.029.03.063s.017.062.038.062c.02 0 .046.036.057.08.02.078.671 1.063.771 1.166.03.03.054.068.054.084a.63.63 0 00.115.155c.063.07.18.21.26.313.46.594 1.125 1.233 1.645 1.58 1.493.998 2.665.031 2.327-1.919a33.97 33.97 0 01-.088-.54 19.829 19.829 0 00-.082-.5c-.02-.104-.055-.301-.08-.44a44.925 44.925 0 00-.295-1.545 8.613 8.613 0 01-.084-.376 4.915 4.915 0 00-.084-.355 5.268 5.268 0 01-.085-.355c-.035-.16-.072-.321-.113-.48a21.09 21.09 0 01-.096-.376 9.944 9.944 0 00-.082-.314 6.462 6.462 0 01-.087-.355 7.45 7.45 0 00-.127-.48l-.173-.585a38.1 38.1 0 00-.322-1.065 66.302 66.302 0 00-.81-2.49 33.1 33.1 0 01-.215-.601 26.947 26.947 0 00-.355-.982 37.806 37.806 0 01-.167-.438c-.06-.162-.123-.322-.19-.48a4.964 4.964 0 01-.124-.335 5.447 5.447 0 00-.124-.334 8.99 8.99 0 01-.124-.314 9.708 9.708 0 00-.268-.636 1.123 1.123 0 01-.089-.253.166.166 0 00-.035-.094.856.856 0 01-.09-.186 24.57 24.57 0 00-.318-.783c-.04-.098-.093-.178-.115-.178-.022 0-.028-.012-.013-.027.015-.015.006-.053-.02-.085a.272.272 0 01-.053-.129.962.962 0 00-.077-.229 13.598 13.598 0 01-.13-.292l-.282-.658c-.283-.664-.244-.639-.767-.502" fill="#64bc44"/><path d="M121.426 23.185c-.189.091-.178.674.014.746.406.155.682.004.682-.373 0-.387-.316-.557-.696-.373M54.18 24.517c-.898.198-1.64.8-1.343 1.09.126.122.306.27.445.367.08.056.156.112.167.125.052.057.419.292.627.402.126.067.239.132.25.144.048.053 1.105.542 1.17.542.022 0 .177.044.344.098.582.188.658.207.844.211.564.012.397-1.396-.26-2.179-.516-.617-1.494-.965-2.244-.8m7.916.042c-1.627.084-2.324.719-2.57 2.336-.11.728-.061 2.019.1 2.631.398 1.524 1.595 2.11 3.806 1.86 1.03-.116 1.103-.138 1.066-.329-.163-.84-.273-1.284-.312-1.26-.405.25-2.088.206-2.487-.066-.71-.483-.805-2.78-.142-3.424.377-.366 1.392-.438 2.552-.18.121.027.124.02.243-.507l.087-.376c.096-.4.077-.494-.108-.53a8.513 8.513 0 00-2.235-.155m55.494.05c-.588.097-.794.172-.784.283.026.256.145.546.215.518.8-.326 2.084-.288 2.413.072.205.224.377 1.038.219 1.036-.032 0-.246-.028-.476-.062-1.863-.27-2.695.213-2.693 1.563 0 .741.218 1.213.647 1.4.375.165.411.17 1.295.168.91-.001 1.209-.044 1.765-.255l.177-.068v-1.7c0-1.817-.013-1.944-.237-2.361-.283-.528-1.385-.785-2.541-.594m3.781 2.474v2.401h.668V24.68h-.668v2.403m-38.39-1.864c-.102.04-.26.104-.349.143a1.53 1.53 0 01-.178.07c-.009 0-.096.036-.193.08-.118.053-.236.104-.355.154l-.177.075v.694h-.752v1.295h.752v1.096c0 1.205.04 1.561.223 1.953.29.623 1.263.819 2.596.523.39-.087.383-.073.272-.564-.033-.15-.063-.302-.091-.453-.046-.256-.052-.264-.156-.238-1.195.294-1.34.148-1.34-1.34v-.977h1.503v-1.295h-1.504v-.647c0-.357-.013-.646-.03-.644a2.217 2.217 0 00-.22.075m-34.4.01a7.463 7.463 0 00-1.065.25 6.87 6.87 0 00-.48.162c-.046.022-.19.085-.32.14-1.896.818-2.36 2.794-.905 3.854.123.089.256.191.296.228.04.038.126.094.188.126a.904.904 0 01.135.08c.05.052.684.335.749.335a.33.33 0 01.119.037c.04.02.157.06.26.089.104.027.235.066.293.084.057.019.236.055.396.082l.519.086c1.244.213 2.581-.147 3.31-.892.377-.385.376-.381.203-.844-.198-.529-.26-1.098-.165-1.517.102-.45.14-.58.213-.727.124-.25.102-.33-.182-.637-.235-.256-.643-.565-.745-.565a.041.041 0 01-.04-.042c0-.023-.034-.042-.076-.042a.193.193 0 01-.115-.038c-.244-.231-1.84-.384-2.587-.248M42.4 26.293c-.137.008-.415.037-.616.064l-.366.049.01 1.589.012 1.59.376.055c.691.103 2.453.028 2.83-.12.143-.057.142-.068-.01-.328a1.74 1.74 0 01-.126-.236.959.959 0 00-.056-.154c-.264-.617-.182-1.481.19-2.025.145-.21.133-.279-.057-.314a51.718 51.718 0 01-.432-.085c-.302-.061-1.312-.11-1.755-.085m24.008.102c-.999.258-1.36.843-1.418 2.29-.077 1.925.634 2.761 2.348 2.761 1.663 0 2.402-.802 2.402-2.606 0-1.525-.459-2.221-1.637-2.486-.329-.074-1.345-.05-1.695.041m10.977-.02c-.685.115-.862.149-.982.187l-.314.098-.188.059-.01 2.28-.011 2.282h1.505V27.74l.185-.047c.258-.065.737-.058.907.013.38.158.41.316.41 2.123l.001 1.452h1.504l-.001-1.515c-.002-1.432-.038-2.016-.145-2.307-.105-.29-.268-.562-.436-.728-.187-.186-.239-.21-.813-.385-.174-.052-1.244-.034-1.612.028m9.478-.002c-.939.205-1.37.797-1.498 2.055-.243 2.385 1.144 3.448 3.716 2.85.103-.024.241-.054.306-.067.131-.026.134-.094.022-.619-.125-.591-.116-.574-.283-.547-1.636.261-2.218.108-2.218-.582v-.145h2.978l-.025-.762c-.05-1.47-.366-1.98-1.362-2.188-.335-.07-1.307-.067-1.636.005m5.956-.021l-.225.088a1.07 1.07 0 00-.26.153l-.12.101v-.258H90.71v4.846h1.504v-3.238l.094-.104c.242-.268.88-.367 1.462-.227l.114.028v-1.43l-.49.003c-.27.001-.529.018-.575.038m-22.285 1.744c0 1.829.019 2.023.245 2.492.385.797 1.283 1.02 2.95.732.252-.044.4-.077.71-.16l.345-.088.178-.044v-4.592H73.5l-.011 1.786-.011 1.785-.327.058c-.385.067-.745.014-.912-.135-.215-.192-.22-.227-.236-1.917l-.015-1.577h-1.455v1.66m-29.997-1.558c-.012.012-.208.06-.437.108a43.432 43.432 0 00-1.036.227c-.43.093-.402.017-.402 1.13 0 1.088-.02 1.02.334 1.1l.418.095c.775.176 1.118.246 1.21.246.116 0 .116-2.892-.001-2.915-.036-.007-.074-.002-.086.01m-17.31.208c-1.014.302-1.566.99-1.27 1.581.298.592 1.082.985 1.97.989l.407.001v-2.631l-.47.005c-.259.003-.545.028-.637.055m1.827 1.239l.01 1.312.252-.01c.854-.034 1.688-.088 1.728-.113.07-.043.066-2.296-.005-2.352-.03-.023-.288-.053-.575-.067a90.051 90.051 0 01-.971-.054l-.45-.028.01 1.312m2.738-1.109c-.018.018-.032.516-.032 1.106 0 1.194.002 1.2.264 1.152.076-.015.42-.045.762-.067.343-.022.714-.052.823-.067l.198-.028v-.973c0-.906-.005-.975-.076-.998a7.516 7.516 0 00-.679-.064 71.76 71.76 0 01-.916-.066c-.172-.015-.327-.013-.344.005m91.773.208l.177.028v1.7l-.156.038-.387.093c-.334.08-1.353.068-1.553-.018-.337-.145-.51-.656-.412-1.219.076-.436.132-.504.545-.66.081-.03 1.553.001 1.786.038m-89.037.005c-.04.016-.053.234-.053.89 0 .644.014.88.053.911.05.042.915.013 1.67-.056l.324-.03v-.807c0-.804 0-.809-.094-.83-.212-.048-1.812-.113-1.9-.078m7.04.037c-.012.012-.349.04-.748.063-.4.023-.76.052-.8.064-.068.022-.073.086-.063.762l.011.738.857.056c.47.031.922.06 1.002.063l.146.007.012-.888.011-.888h-.203a.699.699 0 00-.225.023m-4.312.093c-.013.013-.024.368-.024.79v.765h.974c.701 0 .987-.014 1.023-.05.09-.09.069-1.4-.023-1.447-.08-.041-1.912-.096-1.95-.058m54.928.327c.14.092.198.203.23.445l.026.198h-.765c-.49 0-.766-.015-.766-.042 0-.278.247-.622.482-.67.24-.05.668-.013.793.07m-20.444-.019c.362.125.43.334.431 1.33.002 1.096-.072 1.264-.606 1.375-.251.052-.604.003-.773-.108-.39-.255-.421-2.122-.042-2.501.136-.136.711-.192.99-.096M56.331 28.55c-.668.179-1.539.523-2.026.801-.351.201-1.049.653-1.107.717a4.94 4.94 0 01-.219.183c-.275.22-.281.405-.023.631 1.277 1.12 3.385.612 3.895-.937.041-.127.092-.273.112-.326.02-.053.037-.289.037-.525 0-.618-.097-.697-.669-.544" fill="#233343"/><path d="M49.324 31.477c.04.01.106.01.146 0 .04-.011.008-.02-.073-.02-.08 0-.113.009-.073.02m-8.309 1.496c-.026.057-.031.093-.01.08.055-.033.13-.185.091-.185-.018 0-.054.048-.08.105" fill="#70ad5a"/></g></svg>