<svg xmlns="http://www.w3.org/2000/svg" xml:space="preserve" xmlns:vectornator="http://vectornator.io" viewBox="0 0 144 56" clip-rule="evenodd" stroke-linecap="round" stroke-linejoin="round"><path d="M11.333 15.058c-4.831 1.575-8.207 5.262-9.3 10.157-.217.97-.222 2.61-.009 2.742.092.057.166-.014.166-.156 0-.143.084-.259.186-.259.103 0 .148.146.1.326-.046.18.02.413.147.52.275.227.315.554.048.39-.102-.064-.25-.012-.33.114-.109.171-.146.137-.148-.135-.001-.2-.077-.41-.169-.467-.88-.544.615 5.181 1.736 6.652.234.306.425.624.425.706 0 .083.505.678 1.122 1.323 4.103 4.29 9.702 5.458 14.665 3.06.403-.195.8-.354.88-.354.459 0 3.453-2.507 3.442-2.883-.003-.106-.105-.061-.226.099-.279.367-.416.37-.363.008.023-.155.148-.316.276-.36.13-.042.335-.195.457-.34.2-.238.212-.236.13.027-.19.604.208.253.85-.749 5.09-7.943 1.084-18.527-7.747-20.468-1.719-.377-5.112-.352-6.338.047m5.823 2.011c.1 0 .134.076.077.17a.201.201 0 01-.278.06c-.095-.058-.22-.037-.28.05-.058.084-.242.014-.409-.158-.293-.303-.292-.316.042-.403.19-.05.35-.175.355-.278.006-.104.078-.02.161.185.083.206.232.374.332.374m-5.892.104c-.04.377-.135.444-.695.494-.464.04-.578.011-.4-.104.207-.134.211-.186.025-.307-.283-.182.01-.393.36-.26.136.053.296.016.357-.082.202-.327.4-.182.353.259m10.917 1.725c.166 0 .246.141.23.404-.02.356-.054.376-.286.166-.144-.13-.342-.238-.44-.238-.097 0-.165-.188-.152-.418.02-.349.054-.377.208-.166.102.138.3.252.44.252m-5.184.498c.176 0 .32.075.32.167 0 .09-.186.166-.415.166-.309 0-.415.088-.415.342 0 .188-.068.3-.151.25-.083-.052-.112-.242-.064-.424.062-.238-.024-.375-.307-.488-.391-.157-.39-.158.064-.168.312-.008.465-.104.48-.302.015-.193.047-.165.095.083.045.234.192.374.393.374m-2.736.216c.39.225.264.494-.178.383-.306-.077-.454-.019-.588.231-.258.481-.557.422-.43-.085.073-.294.03-.449-.148-.517-.447-.17-.272-.4.274-.359.343.026.558-.046.616-.205.065-.183.104-.16.155.087.037.183.172.392.299.465m-4.424.915c0 .073-.08.213-.178.311-.127.127-.052.21.26.289.246.061.408.2.366.312-.079.216-.156.22-.739.043-.273-.083-.374-.045-.374.138 0 .276-.3.525-.45.374-.053-.053.005-.217.128-.365.192-.231.166-.315-.185-.599l-.407-.329.456.073c.263.041.536-.024.644-.154.206-.249.48-.302.48-.093m11.635.286c0 .14.188.325.416.412.495.188.571.57.083.415-.276-.087-.337-.025-.357.363l-.025.469-.068-.439c-.05-.328-.189-.462-.556-.536-.606-.12-.646-.438-.056-.438.316 0 .407-.067.337-.25-.052-.137-.023-.249.066-.249.088 0 .16.114.16.253m53.126.064c-.235.26-3.754 11.817-3.754 12.33 0 .084.4.153.887.153.989 0 .89.136 1.434-1.953l.185-.707h4.107l.111.457c.062.252.225.85.363 1.33l.25.873h.903c.496 0 .902-.041.902-.092 0-.652-3.575-12.185-3.85-12.417-.45-.383-1.18-.37-1.538.026m-38.87.029c-.27.157-.292.638-.292 6.32v6.151l.873-.05.872-.05.046-2.697.046-2.696 2.281-.047 2.282-.046v-1.496l-2.286-.046-2.285-.046v-3.806l2.535-.046 2.535-.046.05-.79.05-.789-3.208.005c-1.869.003-3.33.076-3.5.175m8.22.693l.05.873h1.496l.05-.873.05-.873h-1.697l.05.873m41.977-.77c-.065.066-.118.937-.118 1.938 0 1.59-.034 1.806-.264 1.717-1.571-.603-3.699-.073-4.266 1.063-.428.856-.428 5.799 0 6.638.622 1.22 2.393 1.704 4.102 1.122.444-.151.793-.193.85-.102.053.085.391.155.753.155h.657l-.044-6.275-.043-6.276-.754-.049c-.415-.027-.808.004-.873.07m-60.355.986c.021.345.005.35-.255.09-.153-.152-.279-.44-.279-.637 0-.501.5.012.534.547m-6.921-.092c0 .392.073.498.34.498.381 0 1.04.678 1.334 1.372.107.251.32.457.474.457.466 0 .678.362.675 1.155-.004 1.272-.131 1.533-.726 1.483-.366-.03-.652.08-.973.38-.46.429-.452.637.025.642.575.005.773.282.454.635-.387.428-1.772.791-1.946.51-.182-.295-.655-.047-.655.343 0 .187-.11.338-.245.338-.181 0-.22-.125-.15-.475.085-.427.042-.485-.42-.578-.759-.152-.695-.618.067-.494.577.093.827-.152.345-.337-.13-.05-.262-.298-.291-.551-.08-.684-1.536-.8-1.703-.136-.06.237-.183.376-.281.315-.096-.06-.129-.29-.073-.512.085-.34.022-.432-.402-.58-.73-.254-.673-.645.069-.478.537.121.58.1.678-.351.059-.264.175-.438.259-.386.084.051.152-.087.152-.31 0-.569.606-1.278 1.093-1.278.222 0 .403-.083.403-.185 0-.111.2-.156.499-.112.428.063.499.02.499-.302 0-.263-.112-.391-.374-.428-.503-.072-.381-.394.134-.355.328.026.406-.046.406-.374 0-.223.075-.405.166-.405.092 0 .167.224.167.499m-13.789.315c-.128.24-.11.34.077.411.136.052.247.174.247.272 0 .124-.097.125-.324.004-.254-.136-.36-.11-.494.119-.153.263-.17.264-.175.015a2.017 2.017 0 00-.117-.57c-.087-.227-.048-.267.173-.182.177.067.32.016.379-.138.052-.135.164-.246.249-.246.09 0 .083.132-.015.315m57.12-.038c-.061.06-.111.617-.111 1.236 0 1.103-.009 1.125-.457 1.177-.742.085-.79 1.3-.052 1.3h.509v2.997c0 4.01.283 4.641 2.112 4.705l.797.027v-.746c0-.614-.058-.756-.333-.807-.716-.133-.747-.273-.747-3.288v-2.889h1.828v-1.33h-1.828v-1.047c0-1.263-1.007-2.046-1.718-1.335m52.363 0c-.061.06-.111.617-.111 1.236 0 1.103-.009 1.125-.457 1.177-.742.085-.79 1.3-.052 1.3h.509v3.133c0 3.929.508 4.876 2.488 4.645.572-.066.651-1.498.089-1.602-.716-.133-.748-.273-.748-3.288v-2.889h1.828v-1.33h-1.828v-1.047c0-1.263-1.007-2.046-1.718-1.335m-95.694 1.053c0 .41.327.775.334.374a3.32 3.32 0 01.103-.5c.073-.274.029-.373-.169-.373-.188 0-.268.15-.268.499m-5.24.348c-.096.435-.064.483.322.483.276 0 .43.091.43.257 0 .202-.121.234-.57.15-.532-.1-.573-.076-.623.366-.03.26-.13.436-.22.39-.092-.045-.157-.12-.145-.166.013-.046.07-.241.13-.435.088-.294.022-.37-.397-.453-.277-.056-.503-.186-.503-.29 0-.124.191-.153.56-.084.524.099.567.072.663-.408.061-.305.175-.468.28-.403.104.063.134.313.073.593m1.473.524c-.141.48-.298.91-.347.956-.124.114.061-.814.274-1.371.296-.778.344-.504.073.415m62.006 4.82l.115.458h-1.583c-.87 0-1.582-.048-1.582-.108 0-.059.337-1.331.748-2.828.411-1.496.754-2.776.76-2.843.011-.11 1.267 4.224 1.542 5.322m-52.95-4.78c.104.23.303.416.442.416.14 0 .253.075.253.167 0 .09-.158.166-.35.166-.291 0-.333.07-.247.415.058.23.034.416-.053.416s-.182-.165-.211-.367a.56.56 0 00-.437-.457c-.51-.12-.546-.409-.058-.478.292-.041.37-.136.307-.374-.12-.46.131-.392.354.097m26.614.472a5.19 5.19 0 00-.993.496c-.523.366-.623.352-.686-.096-.043-.3-.176-.384-.677-.425l-.623-.052v8.997h1.662v-6.287l.507-.426c.48-.404 1.227-.68 2.153-.798.374-.047.415-.128.415-.8 0-.86-.547-1.05-1.758-.609m4.75-.077c-1.31.34-1.817 1.162-1.713 2.782.106 1.68.715 2.133 3.343 2.49.958.13 1.28.413 1.278 1.118-.006 1.133-.642 1.384-2.788 1.102-1.731-.226-1.679-.242-1.805.537-.116.713.432.94 2.615 1.084 2.61.17 3.52-.48 3.616-2.588.088-1.947-.387-2.404-2.966-2.853-1.205-.21-1.662-.516-1.662-1.112 0-1.056.606-1.311 2.484-1.045 1.35.192 1.45.153 1.604-.616.099-.496.072-.532-.538-.691-.922-.242-2.884-.36-3.467-.208m44.051-.036c-1.687.259-1.908.438-1.585 1.286l.16.42 1.645-.1c1.951-.12 2.357.098 2.357 1.257v.646l-1.621.07c-2.568.111-3.257.701-3.264 2.794-.008 2.344 1.892 3.457 4.395 2.574.487-.172.771-.199.886-.084.093.094.454.17.801.17h.632l-.008-3.117c-.013-5.507-.735-6.478-4.398-5.916m8.444.286c-.836.4-.868.402-.967.092-.075-.236-.254-.322-.672-.322h-.571v8.977h1.656l.045-3.431.045-3.432.444-.331c.616-.46 1.714-.446 2.188.028.342.34.362.53.411 3.762l.051 3.404h1.643v-3.522c0-3.169-.033-3.589-.329-4.2-.641-1.326-2.373-1.775-3.944-1.025m12.881-.18c-1.162.244-1.325.39-1.151 1.035l.133.494 1.697-.061c2.036-.074 2.35.09 2.35 1.232v.703l-1.621.07c-2.581.112-3.2.663-3.2 2.848 0 2.296 1.895 3.366 4.434 2.504.55-.186.808-.211.851-.083.034.102.36.185.724.185h.663l-.053-3.729c-.058-4.078-.075-4.15-1.17-4.968-.541-.403-2.302-.514-3.657-.23m8.247-.036c-1.445.42-1.776 1.378-1.701 4.925.063 2.998.171 3.32 1.315 3.923.59.312 2.654.327 3.381.025.501-.209.236 1.358-.325 1.917-.388.387-.532.417-2.014.417-1.66 0-2.111.253-1.817 1.018.241.627 3.379.773 4.54.211 1.405-.68 1.452-.898 1.51-7.088l.05-5.362h-.66c-.363 0-.687.083-.721.184-.042.127-.334.102-.958-.083-.98-.291-1.801-.319-2.6-.087m8.765-.023c-1.723.438-2.042 1.193-1.98 4.694.053 3.026.112 3.225 1.193 4.032 1.017.76 4.789.448 4.888-.405.099-.843-.238-1.018-1.621-.844-2.127.269-2.671-.035-2.798-1.564l-.075-.907 2.472-.047 2.472-.046-.031-1.532c-.059-2.889-1.684-4.104-4.52-3.381m-93.664.12c-.061.061-.111 2.081-.111 4.489v4.377h1.662v-8.977h-.72c-.396 0-.77.05-.831.111m44.938.19c0 .281.84 3.23 2.014 7.063l.498 1.628 1.111-.05 1.112-.048 1.273-4.322c1.425-4.838 1.406-4.572.322-4.572h-.799l-.593 2.037c-.327 1.12-.763 2.625-.969 3.344l-.375 1.308-.611-2.139a354.422 354.422 0 00-.974-3.344l-.36-1.206h-.825c-.685 0-.824.051-.824.302m-73.475 1.028c0 .188.111.333.255.333.204 0 .22-.067.078-.333-.098-.183-.213-.332-.255-.332-.043 0-.078.15-.078.332m115.856.18l.839.18v5.758l-1.004.117c-2.037.236-2.397-.303-2.297-3.441.084-2.651.454-3.044 2.462-2.614m-124.24.569c-.1.538-.078.581.305.581.438 0 .709.245.45.405-.086.053-.348.023-.582-.066-.39-.148-.44-.117-.581.373l-.154.535-.016-.604c-.01-.457-.095-.625-.347-.69-.183-.049-.332-.171-.332-.273 0-.112.156-.146.394-.086.324.081.414.022.502-.33.168-.668.49-.53.361.155m78.7 2.317c0 3.24.065 3.08-1.3 3.204-1.595.144-1.762-.102-1.83-2.697-.085-3.23.013-3.406 1.896-3.406h1.235v2.899m54.252-2.555c.355.28.438.483.438 1.08v.737h-3.159v-.673c0-1.34 1.61-2.018 2.721-1.144M17.983 27.939c0 .128.112.275.249.328.17.065.25-.01.25-.232 0-.18-.113-.327-.25-.327s-.25.104-.25.232m5.538 1.068c.58.067.495.457-.091.417-.335-.023-.453.077-.588.499l-.17.527-.017-.52c-.014-.438-.094-.535-.516-.619-.686-.137-.628-.44.083-.44.52 0 .584-.05.602-.457l.02-.457.105.498c.083.391.207.51.572.552m78.41 1.427v1.23l-.523.183c-1.436.5-2.44.134-2.585-.942-.171-1.28.284-1.635 2.152-1.68l.956-.022v1.23m21.777 0v1.231l-.524.183c-1.417.494-2.403.108-2.565-1.002-.17-1.172.386-1.595 2.133-1.625l.956-.017v1.23m-109.32-.084c-.084.419-.04.48.421.572.728.145.675.513-.057.394-.49-.08-.58-.043-.623.256-.029.192-.133.376-.232.408-.11.037-.152-.126-.108-.427.063-.431.013-.5-.443-.6-.284-.062-.516-.214-.516-.338 0-.174.121-.19.54-.07.296.085.552.155.568.155.016 0 .079-.225.14-.5.138-.63.437-.485.31.15m-5.632.026c-.1.457-.06.527.402.702.664.25.667.513.004.368-.428-.094-.525-.056-.601.236-.05.192-.16.348-.242.348-.082 0-.103-.185-.046-.411.083-.333.02-.45-.33-.609-.566-.258-.553-.501.025-.44.366.038.468-.028.51-.327.03-.206.129-.374.221-.374.101 0 .124.203.057.508m18.288.488c-.134.217-.749.218-.749.002 0-.092.075-.167.166-.167.092 0 .167-.117.167-.26 0-.238.024-.238.26-.002.142.143.213.335.156.427m-7.015.583c-.088.542-.064.582.343.582.24 0 .438.075.438.166 0 .092-.256.167-.57.167-.496 0-.582.063-.677.498-.157.712-.48.64-.345-.076.102-.542.076-.585-.439-.733l-.546-.158.628-.015c.404-.01.657-.105.707-.265l.156-.498c.156-.501.398-.238.305.332m-8.975 1.156c-.083.514-.048.584.343.683.6.15.55.365-.063.275-.445-.066-.498-.027-.498.36 0 .24-.075.435-.167.435-.09 0-.166-.223-.166-.495 0-.39-.088-.518-.416-.6-.582-.146-.525-.451.061-.322.43.094.486.055.578-.403.14-.704.443-.643.328.067m-6.369.838c0 .125.15.276.332.334.183.058.333.183.333.278 0 .095-.113.13-.252.076-.2-.077-.228-.007-.142.34.078.306.053.4-.08.318a.466.466 0 01-.191-.359c0-.133-.15-.37-.332-.526-.34-.29-.468-.646-.167-.46.092.056.167-.018.167-.166 0-.148.074-.223.166-.166.091.056.166.205.166.33m13.101.792c-.046.482-.002.546.408.593.253.029.419.12.368.202-.051.082-.307.107-.57.054-.373-.075-.517-.019-.664.255-.103.193-.262.35-.354.35-.11 0-.11-.103 0-.31.202-.377.083-.521-.431-.521-.214 0-.388-.085-.388-.188 0-.121.202-.155.57-.095.515.083.586.045.74-.394.224-.645.387-.618.321.054m3.757.54c-.08.314-.04.416.163.416.147 0 .267.074.267.166 0 .091-.165.166-.368.166-.202 0-.544.206-.761.457-.37.43-.394.36-.116-.332.095-.236.029-.291-.344-.291-.253 0-.409-.053-.344-.117.064-.065.32-.12.568-.125.304-.005.504-.13.615-.382.222-.505.45-.475.32.042m-13.966.82c.055.223.25.452.433.51.42.133.44.482.02.373-.246-.065-.295-.008-.236.271.073.346.07.347-.187.03-.145-.177-.262-.383-.262-.457 0-.073-.103-.134-.23-.134-.125 0-.331-.125-.456-.277-.206-.25-.184-.266.213-.167.382.095.43.066.355-.222-.048-.182-.012-.331.08-.331.093 0 .214.181.27.404m7.963.918c-.064.245.021.351.348.433.615.155.55.47-.07.346-.43-.085-.528-.04-.661.312-.222.584-.511.52-.39-.086.085-.426.05-.499-.244-.499-.189 0-.39-.075-.446-.166-.061-.099.139-.166.494-.166.377 0 .632-.092.693-.25.14-.367.375-.303.276.076m-3.62 1.866c.296.129.292.136-.045.072-.282-.053-.374.007-.374.246 0 .174-.08.317-.179.317-.098 0-.152-.131-.12-.291.037-.183-.098-.366-.362-.492l-.42-.201.457.095c.394.08.46.039.474-.298l.017-.392.111.4c.062.22.26.465.441.544M20 39.4c-.102.123-.144.264-.095.313.05.05-.172.121-.493.159-.644.075-.642.05.025-.377.554-.355.816-.4.563-.095" fill-rule="evenodd" fill="#2537a5" vectornator:layerName="svgg"/></svg>