<svg xmlns="http://www.w3.org/2000/svg" xml:space="preserve" xmlns:vectornator="http://vectornator.io" viewBox="0 0 144 56" clip-rule="evenodd" stroke-linecap="round" stroke-linejoin="round"><g fill-rule="evenodd" vectornator:layerName="Layer 1"><path d="M23.235 19.02c-1.21.658-1.047 3.506.233 4.04.621.26 3.273.266 3.89.008 1.338-.559 1.496-3.396.223-4.054-.554-.286-3.815-.282-4.346.007m9.663-.032c-1.143.448-1.905 1.134-2.347 2.11-.265.587-.275.854-.277 8.385l-.003 7.778h6.06v-6.606c0-8.524-.249-7.94 3.402-7.94h2.287l.523.523.523.522v13.5h6.062v-7.694c0-8.79.04-8.436-1.073-9.555-1.222-1.23-1.034-1.204-8.413-1.192-4.519.007-6.457.056-6.744.169m20.45.103c-.853.328-1.724 1.148-2.112 1.986-.284.616-.29.77-.33 8.406l-.04 7.778h6.208l.005-6.7c.006-8.464-.254-7.844 3.295-7.845 3.66 0 3.435-.525 3.435 8.009v6.537h6.068l-.038-7.914-.037-7.913-.368-.625c-.445-.758-1.024-1.264-1.922-1.684l-.674-.315-6.397.006c-6.054.006-6.435.02-7.094.274m20.487.102c-2.122 1.01-2.214 1.379-2.214 8.842 0 7.482.107 7.9 2.276 8.872l.81.364 6.572-.04c6.142-.035 6.603-.054 7.043-.291.904-.488 1.469-1.04 1.845-1.806l.377-.769v-12.66l-.377-.769c-.376-.766-.94-1.318-1.845-1.806-.44-.237-.9-.256-7.071-.29l-6.6-.036-.816.388m18.53 7.395v7.778l.316.678c.771 1.656 1.973 2.22 4.723 2.215 3.312-.005 2.931.368 7.486-7.337.569-.963 1.62-2.737 2.336-3.94l2.587-4.36a152.5 152.5 0 011.497-2.493l.21-.32h-4.947l-.737 1.246c-.406.685-1.711 2.883-2.9 4.883a4539.982 4539.982 0 00-3.304 5.56l-1.141 1.924-.035-6.806-.035-6.807h-6.058l.001 7.78m21.902-7.582c-1.221.436-1.082.235-6.616 9.568a3845.77 3845.77 0 01-3.663 6.168c-.696 1.17-1.301 2.216-1.342 2.324-.064.166.286.195 2.348.195h2.422l.737-1.246c.937-1.582 5.242-8.836 6.455-10.876l.921-1.549v2.39l.001 2.391h.476c.983 0 2.193.834 2.64 1.818.886 1.95-.645 4.378-2.761 4.378h-.355v2.694h6.061l-.003-7.845c-.004-8.86.045-8.428-1.073-9.513-1.067-1.035-4.484-1.525-6.248-.896m-30.6 3.97c.731.481.74.544.745 5.031.007 5.583.153 5.347-3.322 5.347-3.472-.002-3.407.1-3.407-5.32 0-5.427-.07-5.32 3.434-5.32 1.904 0 2.201.032 2.55.262m-61.207 7.886v6.398h6.061V24.467h-6.06v6.397" fill="#0c5c9c"/><path d="M116.995 29.194c2.28 1.204 1.615 4.628-.95 4.893-1.684.174-2.986-.95-2.986-2.578 0-1.996 2.148-3.26 3.936-2.315" fill="#ec1c2c"/></g></svg>