<svg width="145" height="34" viewBox="0 0 145 34" fill="none" xmlns="http://www.w3.org/2000/svg"><path d="M6.026 15.77h6.52c1.321 0 2.312-.317 2.972-.953.66-.636.99-1.506.99-2.611 0-1.105-.33-1.976-.99-2.611-.66-.663-1.65-.995-2.971-.995H6.026v7.17zm0 5.554v11.15H0V3.045h12.547c3.356 0 5.86.843 7.511 2.528 1.65 1.686 2.476 3.896 2.476 6.632 0 2.708-.853 4.904-2.559 6.59-1.678 1.685-4.154 2.528-7.428 2.528H6.026zM37.88 10.59v5.512a5.895 5.895 0 00-1.155-.124c-1.734 0-3.04.455-3.92 1.367-.854.912-1.28 2.349-1.28 4.31v10.818h-5.86V10.755h5.406v2.819c1.238-2.017 3.274-3.026 6.108-3.026l.701.041zm22.394 12.724H44.591c.192 1.492.743 2.638 1.65 3.44.909.773 2.105 1.16 3.591 1.16.935 0 1.775-.193 2.518-.58.77-.415 1.32-1.009 1.65-1.782h5.903c-.633 2.21-1.885 4.006-3.756 5.388-1.844 1.354-4.004 2.03-6.48 2.03-3.192 0-5.805-1.063-7.841-3.19-2.037-2.128-3.054-4.864-3.054-8.207 0-3.233 1.017-5.927 3.054-8.082 2.036-2.156 4.636-3.233 7.8-3.233 3.164 0 5.736 1.077 7.718 3.233 2.008 2.127 3.012 4.821 3.012 8.082l-.082 1.74zm-10.69-8.331c-1.32 0-2.407.373-3.26 1.119-.853.718-1.403 1.713-1.65 2.984h9.822c-.22-1.243-.757-2.238-1.61-2.984-.853-.746-1.953-1.12-3.301-1.12zm29.714-1.907V1.388h5.86v31.086h-5.406V29.82c-1.43 2.1-3.714 3.15-6.851 3.15-3.054 0-5.476-1.078-7.264-3.233-1.789-2.155-2.683-4.863-2.683-8.124 0-3.26.894-5.968 2.683-8.123 1.788-2.155 4.21-3.233 7.264-3.233 1.43 0 2.696.276 3.797.829 1.128.525 1.995 1.188 2.6 1.99zm-1.32 12.973c.99-1.16 1.485-2.639 1.485-4.435 0-1.796-.495-3.274-1.486-4.434-.963-1.16-2.242-1.741-3.838-1.741s-2.89.58-3.88 1.74c-.963 1.161-1.444 2.64-1.444 4.435 0 1.796.481 3.275 1.444 4.435.99 1.16 2.284 1.741 3.88 1.741s2.875-.58 3.838-1.74zM96.002 6.942c-.66.663-1.513.995-2.558.995-1.046 0-1.899-.332-2.56-.995-.66-.663-.99-1.506-.99-2.528s.33-1.865.99-2.528c.661-.691 1.514-1.036 2.56-1.036 1.045 0 1.898.345 2.558 1.036.661.663.991 1.506.991 2.528s-.33 1.865-.99 2.528zm-5.489 25.532V10.755h5.86v21.718h-5.86zm51.233-2.544c-2.089 2.197-4.824 3.295-8.204 3.295-3.38 0-6.115-1.099-8.204-3.295-2.088-2.224-3.133-4.935-3.133-8.132s1.045-5.894 3.133-8.09c2.089-2.224 4.824-3.336 8.204-3.336 3.38 0 6.115 1.112 8.204 3.336 2.088 2.196 3.133 4.893 3.133 8.09s-1.045 5.908-3.133 8.132zm-12.161-12.677c-1.017 1.112-1.526 2.627-1.526 4.545 0 1.918.509 3.434 1.526 4.546 1.044 1.112 2.363 1.668 3.957 1.668 1.594 0 2.899-.556 3.916-1.668 1.045-1.112 1.567-2.628 1.567-4.546 0-1.918-.522-3.433-1.567-4.545-1.017-1.113-2.322-1.669-3.916-1.669-1.594 0-2.913.556-3.957 1.669z" fill="#fff"/><path fill-rule="evenodd" clip-rule="evenodd" d="M115.491 22.388a.63.63 0 00-1.014-.03l-2.663 3.392a.631.631 0 00-.032.733l4.198 6.44a.504.504 0 00.423.23h5.577a.504.504 0 00.414-.791l-6.903-9.974zm-7.339 4.811c-.128.163-.349.273-.507.14a.494.494 0 01-.174-.375l-.043-2.635a.504.504 0 00-.89-.316l-3.995 4.742a.504.504 0 01-.89-.325V3.004c0-.278.226-.504.504-.504h4.75c.279 0 .504.226.504.504v17.018c0 .477.601.687.898.314l6.696-8.41c.095-.12.24-.19.394-.19h2.777c.68 0 .877.929.257 1.206l-2.33 1.039c-.342.152-.277.66.093.721l.515.084a.63.63 0 01.394 1.01L108.152 27.2z" fill="#fff"/></svg>