<svg xmlns="http://www.w3.org/2000/svg" xml:space="preserve" xmlns:vectornator="http://vectornator.io" viewBox="0 0 144 56" clip-rule="evenodd" stroke-linecap="round" stroke-linejoin="round"><g fill-rule="evenodd" vectornator:layerName="Untitled"><path d="M81.656 13.513c-.011.03-.025.801-.03 1.715l-.011 1.662-1.873.022-1.872.02v4.082l1.882.011 1.882.011.013 9.184c.012 8.68.017 9.2.088 9.499.301 1.25.915 2.078 1.926 2.597l.31.159 3.166.011c2.543.01 3.167.001 3.168-.042.025-1.075-.014-3.76-.055-3.786-.028-.018-.854-.032-1.836-.032-1.414.002-1.792-.01-1.82-.052-.043-.07-.045-17.458 0-17.528.025-.04.467-.054 1.882-.063l1.849-.01.01-2.031.012-2.03h-3.744l-.026-.104c-.015-.057-.02-.829-.012-1.715l.015-1.611-2.452-.01c-1.94-.01-2.457 0-2.472.041M21.849 16.92c-.038.038-.048.54-.04 2.051l.01 2.001.021-2.02.021-2.02 27.237-.01 27.237-.01-.012 2.03-.01 2.03-27.205.021-27.204.021 27.214.011 27.214.01.023-.094c.013-.052.018-.985.011-2.073l-.011-1.978-27.228-.01c-21.142-.008-27.239 0-27.278.04m85.224-.019l15.127.01v4.082h-15.145c-10.3 0-15.152-.013-15.166-.043-.012-.023-.017-.019-.011.01.009.044 2.92.054 15.177.054h15.166V16.89H91.945l15.128.011M91.88 18.889c0 1.1.006 1.55.012 1 .007-.667.007-1.333 0-1.999-.006-.55-.012-.1-.012 1m-67.849 4.146c-1.12.273-1.86.963-2.123 1.98-.174.674-.214 4.15-.054 4.709.21.734.63 1.27 1.215 1.552.597.287.395.277 5.527.278 3.545 0 4.643.012 4.682.05.035.036.05.276.05.813 0 .536-.015.776-.05.812-.04.039-1.372.05-5.745.05H21.84l.012 1.79.01 1.789 7.034-.001c4.17 0 7.117-.017 7.238-.04 1.13-.218 1.88-1.128 2.075-2.515.087-.623.057-3.613-.041-4.096-.188-.923-.62-1.545-1.303-1.874-.48-.232-.371-.227-5.2-.228-3.414 0-4.475-.012-4.513-.05-.053-.054-.076-1.52-.025-1.651.023-.06.553-.067 5.565-.067 3.047 0 5.563-.016 5.593-.035.041-.026.05-.389.042-1.672l-.011-1.638-7.027-.006c-5.706-.005-7.07.005-7.257.05m36.923.02c-1.55.316-2.416 1.036-2.782 2.314-.085.295-.15 11.371-.067 11.454.019.019 1.085.035 2.367.035h2.333l.02-5.25.022-5.25 1.904-.012 1.904-.01v10.519l2.307.011c1.27.006 2.34.005 2.378-.002.065-.013.07-.399.08-5.26l.011-5.247h3.661l.01 5.214c.007 3.056.027 5.233.05 5.26.027.033.73.043 2.42.035l2.38-.011V25.547l-.107-.37c-.346-1.193-1.154-1.895-2.463-2.139-.544-.101-6.458-.1-6.91 0-.582.131-1.334.613-1.334.856 0 .096-.111.032-.231-.133-.25-.341-.721-.596-1.338-.724-.518-.107-6.078-.091-6.615.018m47.512-.015c-1.297.2-2.106 1.012-2.43 2.435-.047.204-.057 1.065-.057 4.502v4.25l.101.358c.338 1.19 1.005 1.87 2.129 2.172.455.122 11.238.123 11.698 0 1.053-.279 1.82-.962 2.142-1.908.172-.505.199-.933.185-2.936l-.013-1.852-2.367-.01-2.367-.011v1.568c-.001.862-.016 1.591-.035 1.62-.026.042-.671.05-3.081.042l-3.048-.01-.011-3.462-.011-3.461 3.083.01 3.082.011.011 1.218c.009.911.025 1.227.064 1.252.09.058 4.593.042 4.651-.016.079-.08.07-3.192-.01-3.612-.167-.869-.628-1.505-1.339-1.846-.657-.316-.632-.313-2.724-.327-5.351-.039-9.358-.033-9.653.013m-68.337.04c-.014.036-.026.745-.026 1.574 0 .83.012 1.538.026 1.575.023.06.553.067 5.565.067 3.046 0 5.563.016 5.592.035.042.026.051.246.043.956l-.012.923-4.502.024c-4.84.026-4.666.017-5.185.251-.653.295-1.18 1.023-1.354 1.871a5.38 5.38 0 01-.091.382c-.053.172-.05 3.247.002 3.595.206 1.343.832 2.112 1.957 2.404.279.073.658.077 7.183.077l6.889.001.012-5.544c.009-3.914-.001-5.643-.034-5.88-.174-1.246-.924-2.063-2.125-2.316-.464-.097-13.903-.093-13.94.005m50.47-.038c-1.21.202-2.023 1.015-2.277 2.275-.11.548-.124 8.422-.016 8.994.255 1.35.93 2.136 2.076 2.421.328.082.477.083 7.103.073l6.768-.01V33.3l-5.554-.021c-3.055-.012-5.56-.026-5.565-.032-.056-.053-.002-1.645.057-1.667.037-.015 2.53-.026 5.541-.025 3.011 0 5.49-.016 5.51-.035.079-.08.016-6.231-.068-6.53-.291-1.041-.962-1.718-1.898-1.915-.279-.058-11.337-.09-11.677-.034m8.685 3.279c.1.038.1 1.72 0 1.758-.154.06-6.064.028-6.114-.032-.034-.04-.045-.308-.037-.873l.011-.816 2.251-.021c1.239-.012 2.605-.026 3.037-.032.433-.005.816.002.852.016m-47.946 6.303c0 .743-.009.861-.066.883-.087.034-5.966.034-6.053 0-.058-.022-.066-.14-.066-.883v-.858h6.185v.858m-.287 6.032l29.233.01.027.088c.015.048.037.078.048.067.012-.011 0-.06-.026-.109l-.047-.087-29.233.01-29.233.01 29.231.011m40.83.021c-.012.029-.016.867-.01 1.862l.012 1.81.01-1.841.01-1.841H122.2v3.829l-15.127.01-15.128.011h30.276v-3.871l-15.16-.011c-12.106-.008-15.165 0-15.18.042M21.818 40.58c0 1.042.005 1.462.012.934.007-.631.007-1.263 0-1.894-.007-.513-.012-.081-.012.96m58.492.106c0 .99.014 1.78.03 1.753.04-.066.043-3.51.002-3.535-.017-.01-.032.791-.032 1.782m-43.833 1.84c8.039.006 21.18.006 29.203 0 8.024-.005 1.447-.01-14.615-.01s-22.626.005-14.588.01" fill="#f3731b"/><path d="M21.86 16.964c-.011.03-.015.947-.01 2.041l.011 1.988H49.06c14.959 0 27.215-.01 27.236-.023.021-.014.037-.888.037-2.041v-2.017H49.108c-21.743 0-27.231.01-27.247.052m70.033 1.947a75.097 75.097 0 00.003 2.04c.01.028 5.126.042 15.159.042H122.2v-4.081H91.904l-.01 1.998M21.84 40.581v1.915h29.22c25.675 0 29.222-.008 29.243-.062.032-.083.033-3.62 0-3.702-.022-.059-2.907-.065-29.244-.065H21.84v1.914m70.053-.052a63.127 63.127 0 00.004 1.914c.012.042 3.08.053 15.159.053H122.2v-3.83H91.905l-.012 1.863" fill="#060606"/></g></svg>