<svg width="234" height="29" viewBox="0 0 234 29" fill="none" xmlns="http://www.w3.org/2000/svg"><path fill-rule="evenodd" clip-rule="evenodd" d="M0 0h15.818v.926h-1.24a1.855 1.855 0 00-1.861 1.85v7.096h1.86v.926h-1.86v17.277h3.101V29H0v-.925h3.102V10.797H1.24v-.926H3.1V2.777A1.856 1.856 0 001.242.926H0V0zm6.203 28.075h3.412V.925H6.203v27.15z" fill="#E6E6E6"/><path d="M37.263 21.963c2.857 0 4.613-1.36 4.613-3.632 0-1.91-1.257-3.046-4.252-3.752-1.841-.43-2.478-.895-2.478-1.635 0-.792.706-1.274 1.859-1.274 1.256 0 2.014.655 2.014 1.739h2.633c0-2.427-1.825-3.976-4.682-3.976-2.77 0-4.492 1.36-4.492 3.563 0 1.962 1.325 3.132 4.148 3.735 1.704.361 2.479.86 2.479 1.704 0 .809-.723 1.273-1.86 1.273-1.325 0-2.185-.671-2.185-1.824h-2.685c0 2.495 1.859 4.079 4.888 4.079zm12.678 0c2.22 0 3.976-1.136 4.768-3.047h-2.65c-.43.603-1.206.947-2.066.947-1.188 0-2.117-.671-2.358-1.91h7.246c.155-3.305-1.807-5.508-4.905-5.508-2.926 0-4.94 1.945-4.94 4.75 0 2.823 1.997 4.768 4.905 4.768zM47.652 16.3c.293-1.101 1.188-1.772 2.341-1.772 1.205 0 2.065.67 2.358 1.772h-4.699zm15.222 5.663c2.547 0 4.458-1.498 4.94-3.873h-2.547c-.362.981-1.257 1.618-2.358 1.618-1.412 0-2.393-1.032-2.393-2.513 0-1.48.981-2.513 2.393-2.513 1.032 0 1.876.551 2.306 1.463h2.513c-.413-2.237-2.34-3.7-4.854-3.7-2.891 0-4.94 1.98-4.94 4.75 0 2.789 2.032 4.768 4.94 4.768zm13.053 0c2.995 0 5.06-1.945 5.06-4.768 0-2.805-2.065-4.75-5.06-4.75-3.012 0-5.077 1.945-5.077 4.75 0 2.823 2.065 4.768 5.077 4.768zm-2.496-4.768c0-1.48 1.033-2.513 2.496-2.513s2.479 1.033 2.479 2.513-1.016 2.513-2.479 2.513-2.496-1.032-2.496-2.513zm11.257 4.527h2.616v-4.733c0-1.429.791-2.307 1.996-2.307 1.119 0 1.79.792 1.79 2.117v4.923h2.616v-5.198c0-2.496-1.428-4.079-3.786-4.079-1.205 0-2.29.413-3.012 1.256l-.276-1.015h-1.944v9.036zm17.142.241c1.308 0 2.427-.465 3.236-1.274l.31 1.033h1.945V8.986h-2.616v4.406c-.775-.603-1.756-.947-2.875-.947-2.685 0-4.595 1.98-4.595 4.75 0 2.806 1.91 4.768 4.595 4.768zm-2.013-4.768c0-1.463 1.015-2.513 2.495-2.513 1.463 0 2.479 1.05 2.479 2.513 0 1.48-1.016 2.513-2.479 2.513-1.48 0-2.495-1.032-2.495-2.513zm17.754 4.527h2.736v-4.148h4.372v-2.41h-4.372v-3.011h4.819V9.674h-7.555v12.048zm15.386.241c2.994 0 5.06-1.945 5.06-4.768 0-2.805-2.066-4.75-5.06-4.75-3.012 0-5.078 1.945-5.078 4.75 0 2.823 2.066 4.768 5.078 4.768zm-2.496-4.768c0-1.48 1.033-2.513 2.496-2.513s2.478 1.033 2.478 2.513-1.015 2.513-2.478 2.513c-1.463 0-2.496-1.032-2.496-2.513zm14.853 4.768c1.188 0 2.255-.413 2.978-1.257l.275 1.016h1.945v-9.036h-2.616v4.716c0 1.428-.775 2.306-1.962 2.306-1.102 0-1.773-.774-1.773-2.1v-4.922h-2.616v5.18c0 2.514 1.428 4.097 3.769 4.097zm9.537-.241h2.616v-4.733c0-1.429.792-2.307 1.996-2.307 1.119 0 1.79.792 1.79 2.117v4.923h2.616v-5.198c0-2.496-1.428-4.079-3.786-4.079-1.205 0-2.289.413-3.012 1.256l-.275-1.015h-1.945v9.036zm17.142.241c1.309 0 2.427-.465 3.236-1.274l.31 1.033h1.945V8.986h-2.616v4.406c-.775-.603-1.756-.947-2.875-.947-2.684 0-4.595 1.98-4.595 4.75 0 2.806 1.911 4.768 4.595 4.768zm-2.013-4.768c0-1.463 1.015-2.513 2.495-2.513 1.463 0 2.479 1.05 2.479 2.513 0 1.48-1.016 2.513-2.479 2.513-1.48 0-2.495-1.032-2.495-2.513zm14.856 4.699c1.343 0 2.444-.43 3.219-1.222l.292 1.05h1.945v-5.439c0-2.392-1.618-3.838-4.32-3.838-2.306 0-3.821 1.102-4.148 3.064h2.513c.155-.637.809-1.067 1.652-1.067 1.033 0 1.739.585 1.739 1.48v.413h-3.271c-1.876 0-3.08 1.084-3.08 2.754 0 1.738 1.325 2.805 3.459 2.805zm-.878-2.909c0-.62.517-1.015 1.308-1.015h2.479c-.052 1.222-.998 2.048-2.306 2.048-.895 0-1.481-.413-1.481-1.033zm14.598 2.737h1.652V19.45h-1.084c-1.033 0-1.515-.5-1.515-1.549v-3.08h2.479v-2.135h-2.479v-2.34h-2.031l-.154 1.17c-.138.93-.396 1.17-1.377 1.17h-.809v2.134h1.755v3.477c0 2.203 1.274 3.425 3.563 3.425zm5.401 0h2.616v-9.036h-2.616v9.036zm-.379-11.962c0 .964.689 1.635 1.687 1.635.998 0 1.687-.671 1.687-1.635s-.689-1.635-1.687-1.635c-.998 0-1.687.671-1.687 1.635zm11.768 12.203c2.995 0 5.06-1.945 5.06-4.768 0-2.805-2.065-4.75-5.06-4.75-3.012 0-5.078 1.945-5.078 4.75 0 2.823 2.066 4.768 5.078 4.768zm-2.496-4.768c0-1.48 1.033-2.513 2.496-2.513s2.478 1.033 2.478 2.513-1.015 2.513-2.478 2.513c-1.463 0-2.496-1.032-2.496-2.513zm11.256 4.527h2.616v-4.733c0-1.429.792-2.307 1.997-2.307 1.119 0 1.79.792 1.79 2.117v4.923h2.616v-5.198c0-2.496-1.429-4.079-3.786-4.079-1.205 0-2.29.413-3.012 1.256l-.276-1.015h-1.945v9.036z" fill="#fff"/></svg>