<svg width="140" height="36" viewBox="0 0 140 36" fill="none" xmlns="http://www.w3.org/2000/svg"><path d="M1.437 19.314l4.783-.45c.295 1.608.881 2.79 1.76 3.547.885.752 2.08 1.125 3.582 1.125 1.585 0 2.784-.34 3.597-1.004.806-.684 1.203-1.463 1.203-2.352 0-.578-.17-1.082-.504-1.488-.34-.396-.93-.757-1.771-1.042-.58-.22-1.894-.575-3.942-1.096-2.641-.649-4.495-1.463-5.55-2.419-1.498-1.357-2.249-3.012-2.249-4.951 0-1.248.344-2.428 1.061-3.503.699-1.091 1.722-1.922 3.054-2.497 1.327-.556 2.918-.846 4.813-.846 3.062 0 5.368.679 6.923 2.025 1.55 1.372 2.359 3.173 2.435 5.434l-4.952.167c-.219-1.234-.657-2.143-1.358-2.701-.688-.554-1.729-.83-3.107-.83-1.43 0-2.552.294-3.356.893-.528.386-.787.88-.787 1.512 0 .59.241 1.076.732 1.49.617.536 2.132 1.08 4.527 1.639 2.401.571 4.171 1.162 5.315 1.774 1.148.612 2.051 1.444 2.7 2.508.644 1.037.979 2.362.979 3.918 0 1.402-.394 2.73-1.171 3.953-.778 1.221-1.881 2.145-3.303 2.744-1.426.584-3.2.896-5.323.896-3.093 0-5.475-.723-7.129-2.168-1.652-1.44-2.64-3.533-2.962-6.278z" fill="#fff"/><path d="M20.7 9.514h4.966l4.242 12.63 4.133-12.63h4.841l-6.221 17.101-1.14 3.121c-.411 1.043-.799 1.83-1.17 2.377a4.918 4.918 0 01-1.283 1.34 5.97 5.97 0 01-1.78.789 9.186 9.186 0 01-2.395.299c-.897 0-1.783-.107-2.655-.299l-.388-3.693c.728.154 1.389.23 1.975.23 1.082 0 1.887-.32 2.404-.957.523-.654.921-1.479 1.198-2.471L20.7 9.514zm34.465 17.791h-4.676v-9.056c0-1.907-.098-3.138-.303-3.706-.206-.562-.522-1-.983-1.312-.451-.309-1.006-.467-1.641-.467-.822 0-1.551.228-2.207.675a3.329 3.329 0 00-1.341 1.753c-.236.743-.362 2.092-.362 4.083v8.029h-4.666V9.514h4.322v2.606c1.555-1.97 3.508-2.943 5.863-2.943 1.046 0 1.994.19 2.856.549.863.384 1.52.848 1.953 1.435.438.581.746 1.237.921 1.966.173.724.263 1.789.263 3.154v11.024h.001zm.027-9.083c0-1.577.389-3.075 1.159-4.546.767-1.456 1.858-2.574 3.271-3.349 1.412-.774 2.989-1.149 4.728-1.149 2.696 0 4.896.87 6.61 2.618 1.722 1.748 2.585 3.957 2.585 6.621 0 2.691-.871 4.91-2.606 6.684-1.734 1.764-3.924 2.66-6.557 2.66-1.626 0-3.178-.377-4.661-1.111-1.479-.738-2.602-1.816-3.369-3.246-.771-1.416-1.16-3.144-1.16-5.182zm4.786.237c0 1.775.416 3.133 1.261 4.055.84.949 1.873 1.422 3.107 1.422 1.233 0 2.265-.473 3.105-1.422.828-.922 1.244-2.295 1.244-4.077 0-1.757-.416-3.102-1.244-4.032-.84-.93-1.872-1.413-3.105-1.413-1.234 0-2.267.483-3.107 1.413-.845.93-1.261 2.289-1.261 4.054z" fill="#fff"/><path d="M79.282.395v22.967c0 1.096.08 1.818.233 2.168.16.363.401.629.727.809.33.184.944.277 1.83.277v.689h-8.488v-.689c.796 0 1.337-.08 1.641-.254.281-.17.508-.428.674-.814.165-.375.241-1.104.241-2.186V7.688c0-1.972-.04-3.179-.125-3.635-.08-.451-.224-.753-.412-.915a1.058 1.058 0 00-.723-.264c-.318 0-.724.118-1.212.31l-.322-.673L78.444.395h.838zm11.213 9.063c2.633 0 4.74.997 6.334 2.991 1.35 1.697 2.024 3.649 2.024 5.853 0 1.557-.366 3.125-1.113 4.705-.746 1.586-1.77 2.785-3.084 3.59-1.309.809-2.757 1.213-4.36 1.213-2.625 0-4.703-1.041-6.24-3.115-1.302-1.748-1.954-3.715-1.954-5.901 0-1.592.395-3.159 1.182-4.721.796-1.582 1.833-2.729 3.124-3.499 1.285-.738 2.65-1.116 4.087-1.116zm-.58 1.274c-.67 0-1.34.174-2.017.58-.675.402-1.224 1.086-1.64 2.071-.416 1.004-.626 2.273-.626 3.833 0 2.517.511 4.665 1.506 6.505 1.006 1.809 2.325 2.729 3.962 2.729 1.232 0 2.238-.514 3.024-1.51.8-1.004 1.2-2.73 1.2-5.188 0-3.072-.664-5.472-1.986-7.237-.898-1.199-2.038-1.783-3.423-1.783zm12.737 10.223c-1.054-.537-1.855-1.244-2.425-2.168a5.839 5.839 0 01-.842-3.063c0-1.717.636-3.197 1.923-4.411 1.29-1.233 2.945-1.854 4.956-1.854 1.644 0 3.07.387 4.275 1.197h3.663c.545 0 .857.017.953.049.08.041.136.098.182.16.07.118.114.318.114.604 0 .33-.034.573-.098.687a.319.319 0 01-.198.147c-.096.038-.408.054-.958.054h-2.258c.715.912 1.069 2.077 1.069 3.492 0 1.609-.626 2.998-1.852 4.141-1.233 1.148-2.886 1.727-4.951 1.727a8.731 8.731 0 01-2.629-.406c-.526.496-.886.908-1.064 1.268-.189.369-.286.67-.286.912 0 .23.104.43.317.643.202.193.614.342 1.216.424.345.066 1.234.113 2.638.154 2.588.082 4.269.182 5.026.311 1.173.158 2.112.602 2.81 1.295.697.701 1.045 1.557 1.045 2.578 0 1.404-.671 2.742-2 3.979-1.95 1.82-4.508 2.732-7.658 2.732-2.423 0-4.471-.533-6.142-1.627-.942-.633-1.407-1.279-1.407-1.965 0-.289.067-.598.196-.9.21-.475.645-1.096 1.295-1.928.085-.121.722-.795 1.887-2.033-.648-.406-1.111-.75-1.375-1.068a1.57 1.57 0 01-.407-1.053c0-.449.173-.963.526-1.555.36-.603 1.182-1.451 2.459-2.523zm-.155 6.35c-.576.625-1.007 1.225-1.306 1.789-.299.527-.438 1.043-.438 1.494 0 .619.359 1.137 1.087 1.588 1.261.77 3.08 1.17 5.453 1.17 2.26 0 3.924-.4 5.005-1.195 1.081-.789 1.613-1.631 1.613-2.529 0-.641-.321-1.104-.965-1.383-.656-.277-1.952-.438-3.902-.479-2.837-.086-5.023-.25-6.547-.455zm3.451-16.89c-.932 0-1.698.387-2.331 1.125-.623.738-.933 1.846-.933 3.379 0 1.975.424 3.505 1.274 4.598.655.824 1.474 1.236 2.471 1.236.952 0 1.739-.363 2.345-1.076.613-.714.918-1.827.918-3.345 0-2-.424-3.549-1.288-4.673-.647-.816-1.461-1.244-2.456-1.244zm10.041-.452h8.104v.692h-.394c-.572 0-.997.134-1.282.368-.282.253-.42.557-.42.914 0 .502.2 1.177.625 2.044l4.225 8.765 3.865-9.575a4.023 4.023 0 00.322-1.555c0-.223-.054-.389-.134-.5a.992.992 0 00-.475-.326c-.209-.085-.593-.134-1.13-.134v-.693h5.605v.692c-.467.049-.827.156-1.078.304-.256.156-.531.433-.831.839-.117.183-.342.658-.649 1.455l-7.021 17.271c-.685 1.686-1.579 2.943-2.69 3.801-1.109.865-2.178 1.279-3.205 1.279-.747 0-1.358-.199-1.847-.641-.478-.424-.719-.912-.719-1.475 0-.523.173-.934.521-1.262.35-.334.837-.482 1.44-.482.42 0 .998.137 1.717.404.505.174.827.285.956.285.38 0 .787-.207 1.243-.594.447-.387.896-1.139 1.351-2.25l1.223-3.018-6.234-13.031c-.19-.395-.496-.876-.906-1.462-.318-.437-.577-.736-.779-.898-.29-.188-.761-.372-1.403-.527v-.69zm18.88-1.149V5.346h1.523c.31 0 .541.04.707.113a.73.73 0 01.38.312c.098.17.142.342.142.523 0 .254-.075.46-.241.622-.15.172-.396.285-.728.33.125.058.215.121.271.17.134.12.262.272.376.45l.604.948h-.569l-.459-.716c-.135-.196-.247-.366-.332-.473a1.58 1.58 0 00-.232-.246c-.062-.041-.133-.057-.203-.08a1.046 1.046 0 00-.262-.023h-.522v1.538h-.455zm.455-1.93h.978c.207 0 .373-.013.488-.072a.439.439 0 00.268-.201.541.541 0 00.096-.317.507.507 0 00-.18-.398c-.115-.104-.304-.157-.554-.157h-1.096v1.145z" fill="#fff"/><path d="M138.73 6.95c0 1.386-1.127 2.525-2.507 2.525a2.528 2.528 0 01-2.519-2.525 2.51 2.51 0 012.519-2.512 2.508 2.508 0 012.507 2.512z" stroke="#fff" stroke-width=".25"/></svg>