<svg width="651" height="109" viewBox="0 0 651 109" fill="none" xmlns="http://www.w3.org/2000/svg"><path d="M51.203 36.655l.053 39.245-.045 24.122h31.091l.138-73.96 17.8.029c3.392-7.494 8.57-13.63 15.533-18.347A63.081 63.081 0 01131.489 0H0l14.825 25.937 36.379.067-.002 10.65zm280.29 12.74c-6.211-4.431-14.998-8.734-27.224-8.734l-41.814-.054c-4.662.18-8.32-2.288-8.314-4.806.004-2.526 1.494-6.681 8.34-6.681l64.921.112 1.029-1.819h.014l.862-1.546-.012-.004 12.739-22.068-77.177-.015c-7.38-.01-13.715.704-19.011 2.147-4.389 1.205-8.105 2.812-11.159 4.817-.56.37-.766.492-1.28.887l.015.004c-.119.086-.243.164-.357.252 9.417 7.802 14.73 18.857 15.854 32.95.154 1.93.232 3.915.23 5.955-.01 3.639-.054 5.27-.55 8.538-.853 3.235 4.084 5.023 10.908 4.755l41.814.053c3.564.035 10.328.366 10.328 4.955 0 4.107-3.144 5.923-6.287 6.661-1.334.306-2.698.46-4.067.46l-38.664-.05-6.514-.017-50.89-.089 18.642 25.167 72.573.024c9.853.023 16.191-.693 21.487-2.141 5.066-1.387 9.253-3.352 12.589-5.896.149-.115.309-.23.459-.348a25.02 25.02 0 002.134-1.91 23.613 23.613 0 005.31-8.12c1.559-3.982 2.349-8.445 2.354-13.402.02-8.93-3.077-15.607-9.282-20.038z" fill="#fff"/><path d="M242.925 41.556c-1.779-12.73-7.503-22.387-17.164-28.961-2.547-1.734-5.382-3.268-8.464-4.627-11.326-5-26.281-7.525-44.895-7.56-.776-.003-1.525.01-2.289.019-.696.006-1.403.008-2.093.021h.004c-.048.003-.095 0-.143.003l.007.004-.01-.004c-21.536.445-37.86 4.429-48.949 11.944-7.069 4.793-12.017 11.248-14.883 19.353-1.945 5.496-2.945 11.75-2.956 18.777-.01 5.21.52 9.987 1.558 14.364 1.792 7.546 5.133 13.852 10.046 18.913a39.127 39.127 0 006.02 5.056c11.16 7.654 27.748 11.703 49.763 12.146v.038l3.756.003 13.393.025 6.013 6.99 29.7-.008-29.285-41.347h-30.406l7.368 8.947-.494.016c-5.96-.098-11.132-.41-15.48-.947-5.244-.64-9.49-1.884-12.742-3.733-3.247-1.853-5.595-4.4-7.048-7.66-1.448-3.258-2.171-7.503-2.16-12.75.008-4.388.533-8.074 1.564-11.07a19.31 19.31 0 01.642-1.67c1.467-3.25 3.824-5.77 7.08-7.56 3.258-1.787 7.504-2.993 12.75-3.615 5.245-.623 11.653-.927 19.226-.914 7.574.012 13.984.342 19.223.986 5.244.638 9.488 1.86 12.737 3.662 3.251 1.803 5.601 4.332 7.055 7.586 1.446 3.258 2.173 7.504 2.16 12.746-.011 4.057-.456 7.505-1.334 10.37a19.68 19.68 0 01-.88 2.37c-1.458 3.252-3.817 5.796-7.076 7.634-.092.053-.19.1-.286.153l36.004.06c.129-.312.233-.643.353-.964-.12.32.267-.645.537-1.472 1.77-5.339 2.671-11.361 2.683-18.09a65.531 65.531 0 00-.605-9.233" fill="#fff"/><path d="M160.989 54.79l-2.372-1.643-3.515-.328-.526.798-.71-.221-.349-1.227-1.053-.07.437-1.164-.879-.078-.884.65-.61-.82.529-1.39 2.373-.33.436 1.146.618-.076v-1.07l1.67-2.126 2.114-1.07 2.721-1.142-1.932-4.02-.88.49-.701-1.795-1.674.076-.437 3.2-.617.08-2.554-2.539.53-1.314 2.641-.49.515-7.1-2.096.21-.974 1.668-1.398.32-1.84-1.606-2.5.095-1.732 2.07-1.583 1.39-4.311-2.21-2.373 1.311.877 1.232h-.972l-.258.9 1.317.162-1.317.98.433 1.398 1.149.243-1.848 1.395 2.903-1.31 1.579-.818 2.554 1.474 2.027 3.196v2.873l1.227 2.125 2.02 2.95 2.466.82 1.058.49 1.229 1.474.859-.121-.946 1.436.788 2.95 1.675 1.39-2.027 7.62.708 1.64 2.022.49-1.231-1.227 1.671-2.951 3.605-2.87.264-1.306 1.763-.252 1.757-3.356-3.079-1.392-.357-1.31zm38.426 2.346l-.177 1.484-1.184-.453.216-.805-1.299-.117-1.686 1.667-1.787.687.435 2.576-.163.516.651.4 2.653-.697 1.023.634.486-.29.33 1.043 1.354.402.97-.627.544-3.093-1.462-1.551-.904-1.776zm-6.549-2.297l1.404.29.656-2.121-.382-.348-1.896 1.263.218.916zm-19.74-21.64l1.207-.772-1.009-1.978-.516.018-.48 2.226.798.507zm26.871 32.397l.734-.779-1.327-.305.593 1.084zm1.04-9.21l-.488-1.093-2.216-1.14-1.14.112 1.461 1.607.836.059.356-.347 1.191.802zm-1.191-15.147h-.377l-.056 2.066-.972 2.181-1.247.974-.053.858 2.272-1.433.112-1.493.756-.747-.598-.517.324-1.199-.161-.69zm5.957 21.217l.19 1.826-1.912 1.894 1.234.136 1.104-1.768.862-1.24-.554-.063-.924-.785zm-36.507-22.484v1.67l1.093-.506.311-.513-1.184-2.414-.7.51.045.646-.659.843-.046.88h.79l.35-1.116zm10.121 17.637l-.048 1.861.707.32.7-2.23-.176-.925-1.183.974z" fill="#fff"/><path d="M180.296 45.44l.213-.89-.48-1.297 1.357-.788v.694l-.526.236.442.693.212 1.44-1.218-.088zm-1.583-.793l-.961-.28-1.315.234-.307-.601.7-1.307 2.283 1.263-.4.69zm26.493-6.854l1.947-1.144-.543-1.61-3.776-.563-2.582.337L198.974 33l-2.097.584-4.621-.693-2.888-1.947-.042 2.277-4.748-.005-5.821 1.193-4.156-.816-1.669.978-.656 1.716-.791.653-.044 1.436.439.279.918-.556.44 1.484.787-.323.529-1.49-.528-.6.48-1.114.571-.747.341.059-.317.872-.373.277.138.356-.026.058.045.009.325.83.92-.275.318.397-1.02.347.221.88-.657-.232-.486 1.3-1.708-.047-.306-.93-.394.56.132.605-.616.048-.742 1.065-1.36.467.356.79.564.976-1.794-.138.088 1.858 1.4.23.92-1.531 1.316-.704.57.704.784 1.112.573-.702-1.093-.78-.046-.745.523.276.88.746-.047.737.66.887.31-1.12.352.19.476.884 1.485.262-.243.864-.557.352-2.149-.589-.544.804-1.406-.975-.214-.974-3.464.63-1.784 2.3-.331 3.1 1.847 1.89 3.3-.23.969 3.213-.376 1.839 1.568 4.013 1.789-.342 1.787-3.56.972-.802-.268-2.467 1.732-1.664.54-2.01-1.733.86-1.77-4.293.366-.067 1.733 3.62 3.355-2.127-1.138-.92-.869.464-.54-1.383.38-.224.756.68 2.6.52 1.077 1.377.984 2.582.755-.796v-.979l2.112-1.55.757 1.722.623-.173.131 1.724.65 1.264-1.404-.75 1.027 1.546 1.137 1.147 2.707.52-1.467-.627-1.08-.405-.384-1.84-.861-1.031.036-1.035.993 1.09.976-.858-.92-1.43.427-.754 2.007-.11.918-1.782-.645-1.95.809-.92.596.86.216 1.092.703-.398-.272-1.208.603-.917.973-.175 1.132-3.325-.974-.743 1.351-1.386 1.787.12 1.462-1.263 1.138-.17-1.842 2.358.056 2.06 1.407-1.836-.051-1.323 1.459-.344zm-42.4-7.358l-2.116-.522-2.613 2.532 3.363 7.927 1.584.363.13-2.584 1.071-.592.065-.983 1.11-1.893-.774-1.43-1.82-2.818zm415.585-19.807c-2.078 0-3.726-1.573-3.726-3.436 0-1.935 1.648-3.516 3.726-3.516 2.006 0 3.653 1.581 3.653 3.516 0 1.863-1.647 3.436-3.653 3.436zm-213.792 6.808h6.02v36.888h-6.02V17.436zm3.009-7.12c-1.984 0-3.556-1.505-3.556-3.284 0-1.85 1.572-3.356 3.556-3.356 1.916 0 3.495 1.507 3.495 3.356 0 1.779-1.579 3.284-3.495 3.284zm32.21 44.008V27.836c0-3.423-1.438-7.183-7.736-7.183-3.422 0-5.062.476-6.978 1.299v32.373h-6.021V19.352c3.284-1.573 7.596-2.603 13.483-2.603 10.266 0 13.274 5.68 13.274 10.952v26.623h-6.022zm25.212.341c-6.703 0-9.17-4.794-9.17-9.305V21.2h-4.24v-3.764h4.24V9.983l6.027-2.884v10.337h6.429V21.2h-6.429v24.02c0 2.94 1.295 5.337 4.649 5.337.616 0 1.163-.141 1.78-.27v3.83c-.685.207-1.78.548-3.286.548zm22.657-34.013c-5.337 0-9.305 4.308-9.165 14.301l17.653-2.666c0-8.351-3.217-11.635-8.487-11.635m-8.961 17.52c.685 8.348 4.583 12.453 11.221 12.453 4.178 0 7.187-1.026 9.102-2.123l1.57 3.97c-2.257 1.368-6.153 2.533-11.152 2.533-9.648 0-16.424-6.093-16.424-19.23 0-12.528 6.16-19.027 14.851-19.027 8.831 0 14.168 5.748 14.027 18.068l-23.195 3.356zm49.35-16.765c-1.368-.754-3.144-1.031-5.268-1.031-7.461 0-10.679 6.23-10.679 15.947 0 9.509 3.084 14.847 10.133 14.847 2.325 0 4.378-.613 5.813-1.506l.001-28.257zm-8.35 46.309c-4.854 0-8.963-1.023-11.428-2.53l1.852-4.037c2.053 1.166 5.269 2.187 8.552 2.187 6.777 0 9.373-4.107 9.373-9.65v-.526c-1.637.957-4.173 1.57-7.391 1.57-8.826 0-14.506-6.98-14.506-18.203 0-11.7 5.68-19.778 16.765-19.778 5.133 0 8.832 1.235 10.951 2.604v33.653c0 9.307-5.336 14.71-14.168 14.71zm36.73-46.31c-3.014-.893-6.436-.62-8.421.68v32.24h-6.02V19.418c3.627-1.848 7.112-2.807 15.873-2.6l-1.432 4.588zm24.563 11.977c-9.305 1.16-14.848 3.142-14.848 10.604 0 5.34 3.283 7.527 8.757 7.527 2.326 0 4.583-.41 6.091-1.226V33.383zm-6.571 21.62c-9.58 0-14.025-4.172-14.025-10.88 0-9.784 9.168-12.656 20.596-13.824v-2.254c0-5.68-3.421-7.328-8.144-7.328-3.559 0-6.845 1.304-8.899 2.327l-1.433-3.555c2.12-1.166 6.229-2.741 11.291-2.741 6.84 0 12.866 2.948 12.866 11.976v23.685c-2.808 1.57-7.117 2.596-12.25 2.596m30.185-.34c-6.703 0-9.168-4.794-9.168-9.305V21.2h-4.245v-3.764h4.245V9.983l6.02-2.884v10.337h6.429V21.2h-6.429v24.02c0 2.94 1.297 5.337 4.653 5.337.615 0 1.163-.141 1.776-.27v3.83c-.68.207-1.776.548-3.28.548m10.543-37.229h6.027v36.888h-6.027V17.436zm27.489 3.145c-7.049 0-8.414 7.874-8.414 15.33 0 7.458 1.502 14.92 8.413 14.92 7.049 0 8.35-7.527 8.35-14.92 0-7.392-1.301-15.33-8.349-15.33zm0 34.423c-10.061 0-14.441-8.28-14.441-19.093 0-11.016 4.447-19.162 14.373-19.162 10.127 0 14.438 8.146 14.438 19.163 0 10.812-4.379 19.092-14.37 19.092zm41.792-.68V27.836c0-3.423-1.441-7.184-7.737-7.184-3.419 0-5.064.477-6.982 1.3v32.373h-6.02V19.352c3.284-1.573 7.596-2.604 13.487-2.604 10.264 0 13.273 5.681 13.273 10.953v26.623h-6.021zM377.367 90.382l-3.749-9.35-3.779 9.35h7.528zm.716 1.818h-8.96l-2.316 5.706h-2.208l7.943-19.3h2.149l7.916 19.3h-2.233l-2.291-5.706zm17.385 4.812a9.366 9.366 0 01-3.666-3.61c-.872-1.538-1.311-3.249-1.311-5.145 0-1.91.432-3.63 1.297-5.154a9.346 9.346 0 013.627-3.6c1.549-.874 3.34-1.31 5.363-1.31 1.138 0 2.36.19 3.666.567A13.56 13.56 0 01408 80.347l-1.874 3.693a9.47 9.47 0 00-2.427-1.243 7.791 7.791 0 00-2.511-.44c-1.212 0-2.272.256-3.182.77a5.329 5.329 0 00-2.096 2.112c-.488.893-.73 1.898-.73 3.018 0 1.14.246 2.156.743 3.05a5.34 5.34 0 002.152 2.109c.937.51 2.056.768 3.363.768.697 0 1.476-.136 2.33-.412.85-.272 1.661-.65 2.414-1.128L408 96.172a13.959 13.959 0 01-3.446 1.613 12.84 12.84 0 01-3.75.536c-1.985 0-3.765-.435-5.336-1.31zm23.808-3.652c.552-.624.828-1.407.828-2.344 0-.92-.276-1.694-.828-2.316-.55-.624-1.24-.94-2.066-.94-.808 0-1.488.316-2.042.94-.549.624-.825 1.396-.825 2.316 0 .937.276 1.72.825 2.344.554.624 1.234.937 2.042.937.826 0 1.516-.313 2.066-.937zm-5.828 4.01a6.907 6.907 0 01-2.662-2.618c-.644-1.112-.966-2.36-.966-3.736 0-1.362.318-2.598.951-3.71a6.834 6.834 0 012.648-2.62c1.131-.633 2.395-.95 3.791-.95s2.661.317 3.792.95a6.96 6.96 0 012.661 2.62c.643 1.112.964 2.347.964 3.71 0 1.377-.321 2.624-.964 3.736a6.94 6.94 0 01-2.661 2.618c-1.131.634-2.396.952-3.792.952-1.379 0-2.634-.32-3.762-.952zm22.594-4.148c.552-.606.828-1.36.828-2.26 0-.904-.276-1.657-.827-2.26a2.642 2.642 0 00-2.04-.914c-.827 0-1.513.3-2.053.896-.544.598-.814 1.357-.814 2.277 0 .917.27 1.677.814 2.275.54.594 1.226.893 2.053.893.808 0 1.488-.3 2.04-.907m5.24-9.074v13.016c0 1.342-.3 2.537-.899 3.584-.596 1.048-1.448 1.869-2.55 2.469-1.102.596-2.39.896-3.859.896-1.233 0-2.34-.125-3.323-.373-.984-.248-2.073-.66-3.266-1.227l1.21-3.253c.976.533 1.822.906 2.539 1.117.761.218 1.55.325 2.343.317 1.106 0 1.944-.304 2.521-.91.58-.607.871-1.427.871-2.454v-.717a5.684 5.684 0 01-1.723 1.13 5.316 5.316 0 01-2.083.414c-1.25 0-2.362-.295-3.336-.881-.976-.588-1.738-1.416-2.29-2.483-.551-1.067-.826-2.299-.826-3.693 0-1.364.275-2.604.827-3.724.551-1.12 1.32-2.008 2.303-2.662a5.886 5.886 0 013.322-.978c.79 0 1.548.17 2.278.51a5.516 5.516 0 011.832 1.365l.58-1.462 3.529-.001zm14.42.279a5.056 5.056 0 012.04 1.97c.499.853.745 1.84.745 2.964v8.547h-4.413v-7.555c0-.937-.223-1.673-.675-2.207-.449-.529-1.06-.8-1.833-.8-.808 0-1.453.278-1.929.83-.48.55-.716 1.296-.716 2.233v7.499h-4.414v-13.76h3.503l.524 1.573c1.083-1.324 2.511-1.987 4.273-1.987 1.067 0 2.031.231 2.894.693m5.956-.278h4.411v13.759h-4.411V84.149zm.388-2.357a2.107 2.107 0 01-.719-1.64c0-.68.24-1.243.719-1.683.476-.442 1.082-.662 1.818-.662.734 0 1.347.22 1.835.662a2.172 2.172 0 01.729 1.683c0 .661-.244 1.208-.729 1.64-.488.43-1.101.648-1.835.648-.736 0-1.342-.218-1.818-.648zM480.602 94.6v3.31h-11.747v-2.428l6.037-7.998h-5.733v-3.336h11.389v2.426l-6.066 8.027 6.12-.001zm9.842-.124c.499-.507.745-1.128.745-1.862v-.329a6.132 6.132 0 00-1.904-.279c-.845 0-1.506.134-1.984.4-.477.267-.72.658-.72 1.175 0 .44.196.827.582 1.156.391.334.892.511 1.406.497.754 0 1.379-.253 1.875-.758zm1.725-10.023a5.512 5.512 0 012.235 2.027c.539.873.812 1.88.812 3.018v8.41h-3.504l-.411-1.186c-1.104 1.067-2.401 1.6-3.889 1.6-.955 0-1.816-.193-2.579-.58a4.335 4.335 0 01-1.778-1.6c-.423-.68-.634-1.449-.634-2.316 0-1.416.551-2.493 1.654-3.238 1.102-.746 2.657-1.116 4.66-1.116a9.581 9.581 0 012.453.301v-.607c0-.608-.28-1.116-.84-1.529-.56-.413-1.217-.62-1.971-.62a6.748 6.748 0 00-2.041.288c-.605.193-1.307.52-2.093.979l-1.107-2.979c1.051-.585 2.005-.995 2.869-1.223.864-.233 1.839-.346 2.92-.346 1.216 0 2.298.24 3.244.717zm17.356-.026a5.06 5.06 0 012.04 1.97c.498.853.746 1.84.746 2.964v8.547h-4.415v-7.555c0-.937-.223-1.673-.673-2.207-.45-.529-1.063-.8-1.834-.8-.81 0-1.453.278-1.929.83-.48.55-.716 1.296-.716 2.233v7.499h-4.413v-13.76h3.502l.524 1.573c1.083-1.324 2.507-1.987 4.274-1.987 1.066 0 2.03.231 2.893.693m8.108 12.611c-.884-.853-1.324-1.989-1.324-3.402v-6.152h-2.207v-3.336h2.208v-4.052h4.414v4.053h3.141v3.335h-3.141v5.682c0 .515.136.92.412 1.215.274.29.662.44 1.158.44.406 0 .872-.083 1.406-.25l.44 3.146c-.425.22-.879.378-1.35.467a8.665 8.665 0 01-1.628.136c-1.47 0-2.644-.424-3.529-1.28m20.129-.139a9.223 9.223 0 01-3.557-3.584c-.848-1.515-1.268-3.213-1.268-5.087 0-1.893.417-3.593 1.253-5.1a9.034 9.034 0 013.528-3.545c1.518-.854 3.242-1.281 5.171-1.281 1.103 0 2.235.176 3.393.522 1.132.34 2.209.843 3.198 1.491l-.911 1.766a9.388 9.388 0 00-2.632-1.326 9.364 9.364 0 00-2.881-.47c-1.563 0-2.942.343-4.135 1.02a7.085 7.085 0 00-2.773 2.828c-.654 1.205-.976 2.569-.976 4.095 0 1.507.328 2.872.99 4.096a7.25 7.25 0 002.811 2.88c1.213.7 2.621 1.048 4.221 1.048.919 0 1.856-.152 2.812-.454a9.623 9.623 0 002.647-1.31l.884 1.708a11.6 11.6 0 01-6.592 2.014c-1.929 0-3.657-.436-5.183-1.31zm22.97-1.296c.697-.45 1.244-1.072 1.637-1.861.396-.79.595-1.67.595-2.647 0-.973-.199-1.852-.595-2.633a4.648 4.648 0 00-1.637-1.848 4.241 4.241 0 00-2.344-.674 4.241 4.241 0 00-2.346.674 4.677 4.677 0 00-1.64 1.848c-.396.781-.594 1.66-.594 2.633 0 .976.198 1.857.594 2.647a4.644 4.644 0 001.64 1.861 4.22 4.22 0 002.346.676c.862 0 1.646-.224 2.344-.676zm-5.779 1.683a6.49 6.49 0 01-2.399-2.55c-.578-1.086-.868-2.298-.868-3.64 0-1.344.29-2.552.868-3.628a6.535 6.535 0 012.399-2.536c1.02-.616 2.165-.924 3.435-.924 1.268 0 2.41.308 3.43.924a6.508 6.508 0 012.402 2.55c.577 1.085.865 2.29.865 3.613 0 1.343-.288 2.555-.865 3.64a6.485 6.485 0 01-2.402 2.55c-1.02.615-2.162.925-3.43.925-1.27 0-2.415-.31-3.435-.924zm31.572-12.615a4.658 4.658 0 011.795 1.888c.429.819.646 1.779.646 2.88v8.467h-2.097v-8.05c0-1.288-.315-2.29-.951-3.006-.634-.718-1.493-1.076-2.578-1.076-1.067 0-1.934.405-2.604 1.213-.672.807-1.007 1.875-1.007 3.199v7.72h-2.097v-8.05c0-1.288-.315-2.29-.951-3.006-.635-.718-1.493-1.076-2.579-1.076-1.066 0-1.933.405-2.604 1.213-.672.807-1.006 1.875-1.006 3.199v7.72h-2.096V84.316h1.68l.222 1.845a4.725 4.725 0 011.834-1.597c.744-.37 1.594-.553 2.549-.553 1.012 0 1.909.237 2.689.705a4.499 4.499 0 011.779 1.997 4.871 4.871 0 011.931-1.997c.826-.468 1.781-.707 2.866-.707.955 0 1.816.223 2.579.664zm15.428 10.932c.68-.45 1.217-1.072 1.613-1.861.394-.79.591-1.67.591-2.647 0-.973-.197-1.857-.591-2.647a4.685 4.685 0 00-1.613-1.86 4.025 4.025 0 00-2.262-.677 4.067 4.067 0 00-2.289.676 4.576 4.576 0 00-1.598 1.861c-.387.79-.58 1.674-.58 2.647 0 .976.192 1.857.58 2.647.386.79.92 1.413 1.6 1.861.677.45 1.474.686 2.287.676.827 0 1.579-.224 2.262-.676zm1.294-10.67c.938.617 1.68 1.462 2.22 2.535.542 1.076.815 2.284.815 3.627s-.269 2.555-.8 3.64c-.533 1.085-1.272 1.935-2.22 2.55a5.68 5.68 0 01-3.157.925c-2.224 0-3.852-.763-4.88-2.29v7.778h-2.096V84.316h1.682l.303 2.15c1.014-1.636 2.667-2.454 4.964-2.454 1.178 0 2.232.308 3.169.924m12.518 10.973a3.816 3.816 0 001.38-1.42 3.752 3.752 0 00.497-1.876v-.715a10.098 10.098 0 00-2.785-.388c-1.343 0-2.388.222-3.131.663-.744.44-1.116 1.03-1.116 1.765 0 .734.297 1.338.897 1.806.595.47 1.344.702 2.247.702.753 0 1.423-.18 2.011-.537zm2.33-10.575c1 .883 1.504 2.06 1.504 3.53v9.045h-1.682l-.222-1.656a4.904 4.904 0 01-1.792 1.464c-.697.328-1.561.493-2.593.493-1.396 0-2.548-.386-3.459-1.156-.91-.773-1.363-1.773-1.363-3.006 0-1.304.541-2.334 1.628-3.087 1.082-.755 2.57-1.133 4.465-1.133 1.104 0 2.124.12 3.061.358v-1.073c0-.956-.345-1.73-1.036-2.316-.689-.588-1.567-.884-2.633-.884a6.666 6.666 0 00-2.163.332c-.706.247-1.371.6-1.972 1.047l-.552-1.766c.752-.533 1.522-.92 2.304-1.155.779-.24 1.657-.36 2.633-.36 1.582 0 2.872.442 3.872 1.323zm14.96-.62a5.008 5.008 0 011.904 1.971c.459.848.687 1.819.687 2.924v8.297h-2.095v-7.882c0-1.307-.341-2.34-1.02-3.106-.681-.758-1.6-1.14-2.757-1.14-1.16 0-2.099.435-2.827 1.308-.729.872-1.089 1.971-1.089 3.295v7.525h-2.093V84.314h1.68l.218 1.958a5.096 5.096 0 011.918-1.667c.781-.399 1.678-.593 2.689-.593 1.049 0 1.977.234 2.785.702zm10.064 13.084l-5.57-13.484h2.205l4.329 11.167 4.218-11.166h2.181l-7.667 19.386h-2.04l2.344-5.903z" fill="#fff"/></svg>