<svg width="114" height="32" viewBox="0 0 114 32" fill="none" xmlns="http://www.w3.org/2000/svg"><path fill-rule="evenodd" clip-rule="evenodd" d="M.925 8.02h6.672l3.885 9.94 3.936-9.94h6.496l-9.782 23.531H5.594l2.678-6.235L.925 8.02zm27.757-.395c-5.013 0-8.183 4.496-8.183 8.973 0 5.038 3.475 9.033 8.088 9.033 3.44 0 4.738-2.097 4.738-2.097v1.633h5.82V8.02h-5.82v1.559s-1.447-1.955-4.643-1.955v.001zm1.238 5.51c2.313 0 3.506 1.83 3.506 3.482 0 1.778-1.278 3.523-3.506 3.523-1.847 0-3.516-1.509-3.516-3.447 0-1.967 1.342-3.558 3.516-3.558zm11.229 12.032V.45h6.086v9.19s1.446-2.012 4.474-2.012c3.704 0 5.874 2.76 5.874 6.703v10.837H51.54v-9.353c0-1.334-.636-2.623-2.076-2.623-1.466 0-2.23 1.309-2.23 2.623v9.353H41.15l-.001-.001zM67.96 7.627c-5.742 0-9.16 4.365-9.16 9.042 0 5.323 4.139 8.962 9.18 8.962 4.888 0 9.165-3.474 9.165-8.872 0-5.907-4.478-9.132-9.185-9.132zm.054 5.559c2.028 0 3.43 1.689 3.43 3.49 0 1.536-1.306 3.43-3.43 3.43-1.945 0-3.406-1.56-3.406-3.447 0-1.818 1.214-3.473 3.406-3.473zm19.27-5.56c-5.74 0-9.16 4.366-9.16 9.043 0 5.323 4.14 8.962 9.183 8.962 4.887 0 9.163-3.474 9.163-8.872 0-5.907-4.477-9.132-9.185-9.132v-.001zm.056 5.56c2.028 0 3.43 1.689 3.43 3.49 0 1.536-1.307 3.43-3.43 3.43-1.946 0-3.406-1.56-3.406-3.447 0-1.818 1.214-3.473 3.406-3.473zm9.89 8.304a4.042 4.042 0 118.086 0 4.042 4.042 0 01-8.085 0zm9.413-5.527h-7.276L105.826.449h7.249l-6.431 15.514z" fill="#5F01D1"/></svg>