<svg version="1.0" viewBox="0 0 111.16 112.39" xmlns="http://www.w3.org/2000/svg"><defs><linearGradient id="linearGradient1475" x1="150.96" x2="112.03" y1="192.35" y2="137.27" gradientTransform="matrix(.56254 0 0 .56797 -9.4 -5.305)" gradientUnits="userSpaceOnUse"><stop stop-color="#ffd43b" offset="0"/><stop stop-color="#ffe873" offset="1"/></linearGradient><linearGradient id="linearGradient1478" x1="26.649" x2="135.67" y1="20.604" y2="114.4" gradientTransform="matrix(.56254 0 0 .56797 -9.4 -5.305)" gradientUnits="userSpaceOnUse"><stop stop-color="#5a9fd4" offset="0"/><stop stop-color="#306998" offset="1"/></linearGradient></defs><path d="M60.51 6.398c-4.584.021-8.96.412-12.812 1.094-11.346 2.004-13.406 6.2-13.406 13.938v10.219h26.812v3.406H24.229c-7.793 0-14.616 4.684-16.75 13.594-2.462 10.213-2.571 16.586 0 27.25 1.906 7.938 6.457 13.594 14.25 13.594h9.219v-12.25c0-8.85 7.657-16.656 16.75-16.656h26.78c7.456 0 13.407-6.138 13.407-13.625V21.431c0-7.266-6.13-12.725-13.406-13.938-4.606-.767-9.385-1.115-13.97-1.094zm-14.5 8.219c2.77 0 5.031 2.298 5.031 5.125 0 2.816-2.262 5.094-5.031 5.094-2.78 0-5.031-2.278-5.031-5.094 0-2.827 2.252-5.125 5.031-5.125z" fill="url(#linearGradient1478)" transform="translate(-5.591 -6.397)"/><path d="M91.229 35.054V46.96c0 9.23-7.826 17-16.75 17H47.698c-7.336 0-13.406 6.279-13.406 13.625v25.531c0 7.266 6.319 11.54 13.406 13.625 8.487 2.496 16.626 2.947 26.781 0 6.75-1.954 13.406-5.888 13.406-13.625V92.897H61.104v-3.406h40.188c7.793 0 10.696-5.436 13.406-13.594 2.8-8.4 2.68-16.476 0-27.25-1.926-7.758-5.604-13.594-13.406-13.594zM76.167 99.71c2.78 0 5.031 2.277 5.031 5.094 0 2.826-2.252 5.125-5.031 5.125-2.77 0-5.031-2.299-5.031-5.125 0-2.817 2.262-5.094 5.031-5.094z" fill="url(#linearGradient1475)" transform="translate(-5.591 -6.397)"/></svg>