<svg width="881" height="687" viewBox="0 0 881 687" fill="none" xmlns="http://www.w3.org/2000/svg"><style type="text/css">.mono{font-family:SFMono-Regular,Menlo,Monaco,Consolas,&quot;Liberation Mono&quot;,&quot;Courier New&quot;,monospace}</style><g filter="url(#filter0_d)"><path d="M17 52h847v490a6 6 0 01-6 6H23a6 6 0 01-6-6V52z" fill="#282A36"/></g><path d="M17 29a6 6 0 016-6h835a6 6 0 016 6v23H17V29z" fill="#2F313C"/><circle cx="35.253" cy="37.603" r="4.868" fill="#6422F1"/><circle cx="48.883" cy="37.603" r="4.868" fill="#F46591"/><circle cx="62.513" cy="37.603" r="4.868" fill="#2BD38D"/><rect x="472" width="359" height="400" rx="16" fill="#3D3F4D"/><text fill="#FF7CCA" xml:space="preserve" style="white-space:pre" class="mono" font-size="20" font-style="italic" font-weight="500" letter-spacing="0em"><tspan x="546" y="91.5">select</tspan></text><text fill="#909194" xml:space="preserve" style="white-space:pre" class="mono" font-size="20" font-weight="500" letter-spacing="0em"><tspan x="509" y="91.5">1</tspan></text><text fill="#A0E7FA" xml:space="preserve" style="white-space:pre" class="mono" font-size="20" font-style="italic" font-weight="500" letter-spacing="0em"><tspan x="546" y="128.5">timestamp</tspan></text><text fill="#fff" xml:space="preserve" style="white-space:pre" class="mono" font-size="20" font-style="italic" font-weight="500" letter-spacing="0em"><tspan x="653.93" y="128.5">,</tspan></text><text fill="#909194" xml:space="preserve" style="white-space:pre" class="mono" font-size="20" font-weight="500" letter-spacing="0em"><tspan x="509" y="128.5">2</tspan></text><text fill="#A0E7FA" xml:space="preserve" style="white-space:pre" class="mono" font-size="20" font-style="italic" font-weight="500" letter-spacing="0em"><tspan x="546" y="165.5">min</tspan></text><text fill="#fff" xml:space="preserve" style="white-space:pre" class="mono" font-size="20" font-style="italic" font-weight="500" letter-spacing="0em"><tspan x="581.977" y="165.5">(tempF) lo,</tspan></text><text fill="#909194" xml:space="preserve" style="white-space:pre" class="mono" font-size="20" font-weight="500" letter-spacing="0em"><tspan x="509" y="165.5">3</tspan></text><text fill="#A0E7FA" xml:space="preserve" style="white-space:pre" class="mono" font-size="20" font-style="italic" font-weight="500" letter-spacing="0em"><tspan x="546" y="202.5">avg</tspan><tspan x="677.914" y="202.5">avg</tspan></text><text fill="#fff" xml:space="preserve" style="white-space:pre" class="mono" font-size="20" font-style="italic" font-weight="500" letter-spacing="0em"><tspan x="581.977" y="202.5">(tempF) </tspan><tspan x="713.891" y="202.5">,</tspan></text><text fill="#909194" xml:space="preserve" style="white-space:pre" class="mono" font-size="20" font-weight="500" letter-spacing="0em"><tspan x="509" y="202.5">4</tspan></text><text fill="#A0E7FA" xml:space="preserve" style="white-space:pre" class="mono" font-size="20" font-style="italic" font-weight="500" letter-spacing="0em"><tspan x="546" y="239.5">max</tspan></text><text fill="#fff" xml:space="preserve" style="white-space:pre" class="mono" font-size="20" font-style="italic" font-weight="500" letter-spacing="0em"><tspan x="581.977" y="239.5">(tempF) hi</tspan></text><text fill="#909194" xml:space="preserve" style="white-space:pre" class="mono" font-size="20" font-weight="500" letter-spacing="0em"><tspan x="509" y="239.5">5</tspan></text><text fill="#fff" xml:space="preserve" style="white-space:pre" class="mono" font-size="20" font-style="italic" font-weight="500" letter-spacing="0em"><tspan x="605" y="276.5">weather</tspan></text><text fill="#FF7CCA" xml:space="preserve" style="white-space:pre" class="mono" font-size="20" font-style="italic" font-weight="500" letter-spacing="0em"><tspan x="546" y="276.5">from</tspan></text><text fill="#909194" xml:space="preserve" style="white-space:pre" class="mono" font-size="20" font-weight="500" letter-spacing="0em"><tspan x="509" y="276.5">6</tspan></text><text fill="#FF7CCA" xml:space="preserve" style="white-space:pre" class="mono" font-size="20" font-style="italic" font-weight="500" letter-spacing="0em"><tspan x="546" y="313.5">sample by</tspan></text><text fill="#fff" xml:space="preserve" style="white-space:pre" class="mono" font-size="20" font-style="italic" font-weight="500" letter-spacing="0em"><tspan x="665.922" y="313.5">1M;</tspan></text><text fill="#909194" xml:space="preserve" style="white-space:pre" class="mono" font-size="20" font-weight="500" letter-spacing="0em"><tspan x="509" y="313.5">7</tspan></text><text fill="#909194" xml:space="preserve" style="white-space:pre" class="mono" font-size="20" font-weight="500" letter-spacing="0em"><tspan x="509" y="350.5">8</tspan></text><rect x="509" y="16" width="81" height="33" rx="7" fill="#fff" fill-opacity=".05"/><text fill="#85F689" xml:space="preserve" style="white-space:pre" class="mono" font-size="14" font-weight="600" letter-spacing="0em"><tspan x="545.846" y="38.091">Run</tspan></text><mask id="mask0" mask-type="alpha" maskUnits="userSpaceOnUse" x="138" y="427" width="521" height="260"><rect x="138" y="427" width="521" height="260" rx="16" fill="#3D3F4D"/></mask><g mask="url(#mask0)"><path d="M138 441c0-8.837 7.163-16 16-16h489c8.837 0 16 7.163 16 16v230c0 8.837-7.163 16-16 16H154c-8.837 0-16-7.163-16-16V441z" fill="#3D3F4D"/><rect x="155" y="650" width="19" height="9" rx="4.5" fill="#fff" fill-opacity=".95"/><rect x="185" y="650" width="19" height="9" rx="4.5" fill="#fff" fill-opacity=".95"/><rect x="216" y="650" width="19" height="9" rx="4.5" fill="#fff" fill-opacity=".95"/><rect x="247" y="650" width="19" height="9" rx="4.5" fill="#fff" fill-opacity=".95"/><rect x="278" y="650" width="19" height="9" rx="4.5" fill="#fff" fill-opacity=".95"/><rect x="309" y="650" width="19" height="9" rx="4.5" fill="#fff" fill-opacity=".95"/><rect x="340" y="650" width="19" height="9" rx="4.5" fill="#fff" fill-opacity=".95"/><rect x="371" y="650" width="19" height="9" rx="4.5" fill="#fff" fill-opacity=".95"/><rect x="401" y="650" width="19" height="9" rx="4.5" fill="#fff" fill-opacity=".95"/><rect x="431" y="650" width="19" height="9" rx="4.5" fill="#fff" fill-opacity=".95"/><rect x="460" y="650" width="19" height="9" rx="4.5" fill="#fff" fill-opacity=".95"/><rect x="490" y="650" width="19" height="9" rx="4.5" fill="#fff" fill-opacity=".95"/><rect x="522" y="650" width="19" height="9" rx="4.5" fill="#fff" fill-opacity=".95"/><rect x="552" y="650" width="19" height="9" rx="4.5" fill="#fff" fill-opacity=".95"/><rect x="582" y="650" width="19" height="9" rx="4.5" fill="#fff" fill-opacity=".95"/><rect x="612" y="650" width="19" height="9" rx="4.5" fill="#fff" fill-opacity=".95"/><path fill-rule="evenodd" clip-rule="evenodd" d="M131 617h8a1 1 0 011 1v25h-10v-25a1 1 0 011-1zm30-25h8a1 1 0 011 1v50h-10v-50a1 1 0 011-1zm30-46h8a1 1 0 011 1v96h-10v-96a1 1 0 011-1zm30 50h9a1 1 0 011 1v46h-11v-46a1 1 0 011-1zm31-27h9a1 1 0 011 1v73h-11v-73a1 1 0 011-1zm31 27h9a1 1 0 011 1v46h-11v-46a1 1 0 011-1zm31 21h9a1 1 0 011 1v25h-11v-25a1 1 0 011-1zm31-51h9a1 1 0 011 1v76h-11v-76a1 1 0 011-1zm31-16h8a1 1 0 011 1v92h-10v-92a1 1 0 011-1zm30 42h8a1 1 0 011 1v50h-10v-50a1 1 0 011-1z" fill="#ECBDCC"/><path fill-rule="evenodd" clip-rule="evenodd" d="M436 518h8a1 1 0 011 1v124h-10V519a1 1 0 011-1z" fill="#D14671"/><path fill-rule="evenodd" clip-rule="evenodd" d="M466 561h8a1 1 0 011 1v81h-10v-81a1 1 0 011-1zm30 22h8a1 1 0 011 1v59h-10v-59a1 1 0 011-1zm30 18h8a1 1 0 011 1v41h-10v-41a1 1 0 011-1zm30 3h8a1 1 0 011 1v38h-10v-38a1 1 0 011-1zm30-17h8a1 1 0 011 1v55h-10v-55a1 1 0 011-1zm30-37h8a1 1 0 011 1v92h-10v-92a1 1 0 011-1zm30 61h9a1 1 0 011 1v31h-11v-31a1 1 0 011-1z" fill="#ECBDCC"/><path d="M446 397c0-8.837 7.163-16 16-16h181c8.837 0 16 7.163 16 16v272c0 8.837-7.163 16-16 16H462c-8.837 0-16-7.163-16-16V397z" fill="url(#paint0_linear)"/><path d="M348 398c0-8.837-7.163-16-16-16H151c-8.837 0-16 7.163-16 16v272c0 8.837 7.163 16 16 16h181c8.837 0 16-7.163 16-16V398z" fill="url(#paint1_linear)"/></g><rect x="237" y="442" width="68.932" height="26.451" rx="7" fill="#fff" fill-opacity=".95"/><rect x="159.642" y="443" width="68.932" height="26.451" rx="7" fill="#fff" fill-opacity=".05"/><text fill="#fff" xml:space="preserve" style="white-space:pre" class="mono" font-size="12" font-weight="600" letter-spacing="0em"><tspan x="193.496" y="461.024">Grid</tspan></text><text fill="#fff" xml:space="preserve" style="white-space:pre" class="mono" font-size="12" font-weight="600" letter-spacing="0em"><tspan x="265.164" y="460.513">Chart</tspan></text><g clip-path="url(#clip0)" stroke="#fff" stroke-width="2" stroke-miterlimit="10" stroke-linecap="round" stroke-linejoin="round"><path d="M182.188 456.16h-11.376m11.376-4.5h-11.376m11.376 9.5h-11.376"/></g><rect x="70" y="76" width="371" height="324.354" rx="7" fill="#323441"/><text fill="#fff" xml:space="preserve" style="white-space:pre" class="mono" font-size="14" font-weight="600" letter-spacing="0em"><tspan x="117.514" y="109.448">Tables</tspan></text><g clip-path="url(#clip1)" fill="#fff"><path d="M96.035 95.888c-3.326 0-6.87.904-6.87 2.531 0 1.627 3.543 2.531 6.87 2.531s6.871-.904 6.871-2.53c0-1.628-3.544-2.532-6.87-2.532z"/><path d="M96.035 101.674c-2.133 0-5.424-.398-6.87-1.736v4.267c0 1.627 3.543 2.531 6.87 2.531s6.871-.904 6.871-2.531v-4.267c-1.447 1.338-4.737 1.736-6.87 1.736z"/><path d="M96.035 107.459c-2.133 0-5.424-.398-6.87-1.736v4.267c0 1.627 3.543 2.531 6.87 2.531s6.871-.904 6.871-2.531v-4.267c-1.447 1.338-4.737 1.736-6.87 1.736z"/></g><rect x="406.287" y="112.883" width="10.848" height="267.944" rx="5.424" fill="#3A3D4C"/><rect x="406.287" y="89.017" width="10.848" height="85.699" rx="5.424" fill="#505364"/><rect x="118.817" y="146.512" width="60.748" height="14.102" rx="7.051" fill="#fff" fill-opacity=".95"/><rect x="90.026" y="144.842" width="17.442" height="17.442" rx="1.5" stroke="#A0E7FA"/><line x1="90.265" y1="150.481" x2="107.231" y2="150.481" stroke="#A0E7FA"/><line x1="95.928" y1="150.243" x2="95.928" y2="162.784" stroke="#A0E7FA"/><line x1="101.831" y1="150.243" x2="101.831" y2="162.784" stroke="#A0E7FA"/><rect x="118.817" y="215.939" width="60.748" height="14.102" rx="7.051" fill="#fff" fill-opacity=".95"/><rect x="90.026" y="214.269" width="17.442" height="17.442" rx="1.5" stroke="#A0E7FA"/><line x1="90.265" y1="219.908" x2="107.231" y2="219.908" stroke="#A0E7FA"/><line x1="95.928" y1="219.67" x2="95.928" y2="232.21" stroke="#A0E7FA"/><line x1="101.831" y1="219.67" x2="101.831" y2="232.21" stroke="#A0E7FA"/><rect x="118.817" y="285.365" width="79.19" height="14.102" rx="7.051" fill="#fff" fill-opacity=".95"/><rect x="90.026" y="283.696" width="17.442" height="17.442" rx="1.5" stroke="#A0E7FA"/><line x1="90.265" y1="289.335" x2="107.231" y2="289.335" stroke="#A0E7FA"/><line x1="95.928" y1="289.097" x2="95.928" y2="301.637" stroke="#A0E7FA"/><line x1="101.831" y1="289.097" x2="101.831" y2="301.637" stroke="#A0E7FA"/><rect x="118.817" y="181.225" width="84.614" height="14.102" rx="7.051" fill="#fff" fill-opacity=".95"/><rect x="90.026" y="179.556" width="17.442" height="17.442" rx="1.5" stroke="#A0E7FA"/><line x1="90.265" y1="185.194" x2="107.231" y2="185.194" stroke="#A0E7FA"/><line x1="95.928" y1="184.957" x2="95.928" y2="197.497" stroke="#A0E7FA"/><line x1="101.831" y1="184.957" x2="101.831" y2="197.497" stroke="#A0E7FA"/><rect x="118.817" y="250.652" width="72.681" height="14.102" rx="7.051" fill="#fff" fill-opacity=".95"/><rect x="90.026" y="248.982" width="17.442" height="17.442" rx="1.5" stroke="#A0E7FA"/><line x1="90.265" y1="254.621" x2="107.231" y2="254.621" stroke="#A0E7FA"/><line x1="95.928" y1="254.384" x2="95.928" y2="266.924" stroke="#A0E7FA"/><line x1="101.831" y1="254.384" x2="101.831" y2="266.924" stroke="#A0E7FA"/><rect x="118.817" y="320.079" width="49.901" height="14.102" rx="7.051" fill="#fff" fill-opacity=".95"/><rect x="90.026" y="318.409" width="17.442" height="17.442" rx="1.5" stroke="#A0E7FA"/><line x1="90.265" y1="324.048" x2="107.231" y2="324.048" stroke="#A0E7FA"/><line x1="95.928" y1="323.811" x2="95.928" y2="336.351" stroke="#A0E7FA"/><line x1="101.831" y1="323.811" x2="101.831" y2="336.351" stroke="#A0E7FA"/><rect x="118.817" y="354.792" width="56.409" height="14.102" rx="7.051" fill="#fff" fill-opacity=".95"/><rect x="90.026" y="353.123" width="17.442" height="17.442" rx="1.5" stroke="#A0E7FA"/><line x1="90.265" y1="358.762" x2="107.231" y2="358.762" stroke="#A0E7FA"/><line x1="95.928" y1="358.524" x2="95.928" y2="371.064" stroke="#A0E7FA"/><line x1="101.831" y1="358.524" x2="101.831" y2="371.064" stroke="#A0E7FA"/><g filter="url(#filter1_d)"><rect x="298" y="264" width="199" height="53" rx="5" fill="#141725"/></g><rect x="317.75" y="280.75" width="19.5" height="19.5" rx="1.25" stroke="#A0E7FA" stroke-width="1.5"/><line x1="317.84" y1="286.81" x2="337.16" y2="286.81" stroke="#A0E7FA" stroke-width="1.5"/><line x1="324.469" y1="286.72" x2="324.469" y2="301" stroke="#A0E7FA" stroke-width="1.5"/><line x1="331.191" y1="286.72" x2="331.191" y2="301" stroke="#A0E7FA" stroke-width="1.5"/><text fill="#fff" xml:space="preserve" style="white-space:pre" class="mono" font-size="20" font-weight="500" letter-spacing="0em"><tspan x="358" y="297.5">trips.csv</tspan></text><path d="M481.154 308.183l-7.81-1.242a3.75 3.75 0 00-4.339 3.708l.005 5.351a.375.375 0 01-.75 0v-4.125h-.385a2.625 2.625 0 00-2.625 2.625v3.75c0 1.939 1.264 3.378 2.325 4.491 1.011 1.061 1.305 1.906 1.39 2.332a.375.375 0 00.368.302h13.589a.375.375 0 00.372-.324l1.611-11.816a4.5 4.5 0 00-3.751-5.052zm-7.654 11.942a.375.375 0 01-.75 0v-6a.375.375 0 01.75 0v6zm3.375 0a.375.375 0 01-.75 0v-6a.375.375 0 01.75 0v6zm3.375 0a.375.375 0 01-.75 0v-6a.375.375 0 01.75 0v6z" fill="#fff"/><path d="M527.475 27.45a.443.443 0 00-.375-.037c-.15.075-.225.187-.225.337v10.5c0 .15.075.263.187.337a.34.34 0 00.188.038c.075 0 .15-.038.225-.075l7.5-5.25a.342.342 0 00.15-.3c0-.112-.075-.225-.15-.3l-7.5-5.25z" fill="#85F689"/><path d="M252.109 450.625v5.484h-5.484a5.489 5.489 0 003.386 5.067 5.48 5.48 0 005.976-1.189 5.48 5.48 0 001.189-5.976 5.482 5.482 0 00-5.067-3.386z" fill="#fff"/><path d="M250.891 449.406c-1.455 0-2.85.578-3.878 1.607a5.481 5.481 0 00-1.607 3.878h5.485v-5.485z" fill="#fff"/><defs><linearGradient id="paint0_linear" x1="643.26" y1="510.941" x2="493" y2="510.941" gradientUnits="userSpaceOnUse"><stop stop-color="#3D3F4D"/><stop offset=".635" stop-color="#3D3F4D" stop-opacity=".29"/><stop offset="1" stop-color="#3D3F4D" stop-opacity="0"/></linearGradient><linearGradient id="paint1_linear" x1="150.74" y1="511.941" x2="301" y2="511.941" gradientUnits="userSpaceOnUse"><stop stop-color="#3D3F4D"/><stop offset=".635" stop-color="#3D3F4D" stop-opacity=".29"/><stop offset="1" stop-color="#3D3F4D" stop-opacity="0"/></linearGradient><clipPath id="clip0"><rect width="13" height="16" fill="#fff" transform="translate(170 448.16)"/></clipPath><clipPath id="clip1"><rect width="17.357" height="17.357" fill="#fff" transform="translate(87.357 95.526)"/></clipPath><filter id="filter0_d" x="0" y="47" width="881" height="530" filterUnits="userSpaceOnUse" color-interpolation-filters="sRGB"><feFlood flood-opacity="0" result="BackgroundImageFix"/><feColorMatrix in="SourceAlpha" type="matrix" values="0 0 0 0 0 0 0 0 0 0 0 0 0 0 0 0 0 0 127 0"/><feOffset dy="12"/><feGaussianBlur stdDeviation="8.5"/><feColorMatrix type="matrix" values="0 0 0 0 0.0715719 0 0 0 0 0.109795 0 0 0 0 0.16713 0 0 0 0.05 0"/><feBlend mode="normal" in2="BackgroundImageFix" result="effect1_dropShadow"/><feBlend mode="normal" in="SourceGraphic" in2="effect1_dropShadow" result="shape"/></filter><filter id="filter1_d" x="294" y="264" width="207" height="61" filterUnits="userSpaceOnUse" color-interpolation-filters="sRGB"><feFlood flood-opacity="0" result="BackgroundImageFix"/><feColorMatrix in="SourceAlpha" type="matrix" values="0 0 0 0 0 0 0 0 0 0 0 0 0 0 0 0 0 0 127 0"/><feOffset dy="4"/><feGaussianBlur stdDeviation="2"/><feColorMatrix type="matrix" values="0 0 0 0 0 0 0 0 0 0 0 0 0 0 0 0 0 0 0.17 0"/><feBlend mode="normal" in2="BackgroundImageFix" result="effect1_dropShadow"/><feBlend mode="normal" in="SourceGraphic" in2="effect1_dropShadow" result="shape"/></filter></defs></svg>