<svg width="176" height="113" viewBox="0 0 176 113" fill="none" xmlns="http://www.w3.org/2000/svg"><path d="M.756 9.45h176v100.355a3.822 3.822 0 01-3.822 3.822H4.578a3.822 3.822 0 01-3.822-3.822V9.45z" fill="#fff"/><path d="M10.292 29.701v-.71h1.498v-3.998h-.06l-1.24 1.322-.527-.474 1.36-1.475h1.323v4.625h1.292v.71h-3.646zm3.493 18.235h-3.684v-.818l1.743-1.521c.275-.245.486-.476.634-.696.153-.219.23-.45.23-.695v-.084c0-.28-.077-.495-.23-.642-.153-.153-.374-.23-.665-.23-.295 0-.525.08-.688.237-.158.158-.272.36-.344.604l-.749-.283a1.96 1.96 0 01.222-.481c.097-.158.219-.298.367-.42.153-.123.33-.22.535-.291a2.22 2.22 0 01.718-.107c.275 0 .52.04.734.122.22.077.403.184.55.321.148.138.26.303.337.497.076.189.114.398.114.627 0 .214-.033.413-.099.596-.061.178-.15.352-.268.52a3.126 3.126 0 01-.405.474 7.911 7.911 0 01-.52.459l-1.291 1.085h2.76v.726zm-2.095 15.1c.342 0 .595-.072.758-.214a.703.703 0 00.252-.55v-.054c0-.245-.082-.43-.245-.558-.158-.133-.372-.199-.642-.199-.26 0-.481.059-.665.176a1.467 1.467 0 00-.45.481l-.582-.496a2.48 2.48 0 01.283-.337 1.65 1.65 0 01.367-.275 1.81 1.81 0 01.474-.191 2.2 2.2 0 01.604-.076c.25 0 .481.03.695.091.214.061.4.153.558.275a1.234 1.234 0 01.497 1.009c0 .169-.028.322-.084.46a1.124 1.124 0 01-.55.618 1.6 1.6 0 01-.405.146v.038c.152.03.298.081.435.153a1.257 1.257 0 01.62.657c.06.148.091.318.091.512 0 .234-.046.448-.137.642a1.405 1.405 0 01-.398.49 1.836 1.836 0 01-.611.32c-.24.072-.507.107-.803.107-.25 0-.471-.028-.665-.084a2.045 2.045 0 01-.505-.206 2.154 2.154 0 01-.39-.306 3.003 3.003 0 01-.282-.36l.634-.488c.133.214.288.39.467.527.183.133.433.199.749.199.336 0 .593-.077.772-.23.178-.157.267-.374.267-.65v-.06c0-.275-.094-.484-.283-.627-.183-.148-.45-.222-.802-.222h-.574v-.718h.55zm.696 20.192v-1.04H9.85v-.734l2.232-3.562h1.123v3.623h.75v.673h-.75v1.04h-.818zm-1.811-1.713h1.811V78.68h-.045l-1.766 2.835zm2.95 13h-2.423l-.137 1.895h.06a1.56 1.56 0 01.444-.496c.173-.128.41-.192.711-.192.23 0 .44.039.635.115a1.466 1.466 0 01.856.856c.086.204.13.436.13.696 0 .265-.044.51-.13.734-.087.219-.212.41-.375.573a1.759 1.759 0 01-.604.374c-.24.087-.512.13-.818.13a2.256 2.256 0 01-1.139-.29 2.037 2.037 0 01-.374-.306 3.016 3.016 0 01-.283-.36l.627-.488c.066.102.135.198.206.29.077.087.16.163.252.23.092.066.197.117.314.152.122.036.26.054.413.054.33 0 .583-.09.756-.268.174-.183.26-.43.26-.741v-.061c0-.311-.089-.553-.267-.726-.174-.174-.423-.26-.75-.26-.239 0-.428.043-.565.13a1.866 1.866 0 00-.36.29l-.71-.1.199-2.973h3.072v.742z" fill="#000"/><path d="M.756 4.449A3.822 3.822 0 014.578.627h168.356a3.822 3.822 0 013.822 3.822v5h-176v-5z" fill="#EAEAEA"/><ellipse cx="6.77" cy="5.039" rx="1.583" ry="1.47" fill="#6422F1"/><ellipse cx="11.202" cy="5.039" rx="1.583" ry="1.47" fill="#F46591"/><ellipse cx="15.634" cy="5.039" rx="1.583" ry="1.47" fill="#2BD38D"/><path d="M21.32 47.936l.887-5.335h3.486l-.138.818h-2.507l-.229 1.406h2.255l-.138.818h-2.255l-.382 2.293h-.978zm5.555 0h-.979l.887-5.335h1.926c.47 0 .82.124 1.055.374s.352.581.352.994c0 .494-.12.897-.36 1.208-.239.31-.575.51-1.008.596l.795 2.163h-1.04l-.68-2.08h-.604l-.344 2.08zm1.292-2.859c.27 0 .471-.05.604-.153.137-.102.226-.267.267-.496l.038-.23a.446.446 0 00.016-.122c.005-.051.007-.097.007-.138 0-.178-.056-.31-.168-.397-.107-.092-.265-.138-.474-.138h-.825l-.283 1.674h.818zm4.102 2.95c-.607 0-1.05-.17-1.33-.511-.28-.347-.421-.826-.421-1.437 0-.418.04-.839.122-1.262.087-.428.222-.812.405-1.154a2.47 2.47 0 01.734-.833c.306-.214.68-.321 1.124-.321.606 0 1.05.173 1.33.52.28.341.42.818.42 1.43 0 .417-.043.84-.13 1.268a3.87 3.87 0 01-.405 1.147 2.371 2.371 0 01-.733.833c-.301.214-.673.32-1.116.32zm.015-.81c.346 0 .609-.13.787-.39.184-.264.314-.634.39-1.108l.153-.894c.03-.204.046-.398.046-.58 0-.291-.061-.518-.184-.681-.122-.163-.318-.245-.588-.245-.347 0-.612.133-.795.398-.179.26-.306.626-.383 1.1l-.152.895a3.964 3.964 0 00-.046.58c0 .291.06.518.183.68.122.164.319.245.589.245zm5.928-1.765l.298-1.544h-.06l-1.507 2.744-.58-2.744H36.3l-.214 1.544-.412 2.484h-.864l.887-5.335h1.146l.42 1.98h.062l1.078-1.98h1.146l-.887 5.335H37.8l.412-2.484zm32.095 14.794h1.789c.453 0 .797.112 1.032.337.24.219.36.517.36.894 0 .367-.093.665-.276.894-.183.224-.451.382-.803.474l-.007.03c.27.062.479.176.627.345.152.168.229.397.229.688a1.7 1.7 0 01-.13.672c-.082.204-.199.38-.352.528a1.68 1.68 0 01-.558.351 2.09 2.09 0 01-.734.123h-2.063l.886-5.336zm.963 4.617c.27 0 .487-.05.65-.153a.631.631 0 00.298-.481l.03-.214a1.294 1.294 0 00.031-.268c0-.357-.234-.535-.703-.535h-.795l-.275 1.651h.764zm.26-2.339c.276 0 .484-.046.627-.138.143-.091.235-.252.275-.481l.039-.206a.416.416 0 00.015-.115.945.945 0 00.007-.115c0-.183-.058-.313-.175-.39-.117-.076-.283-.114-.497-.114h-.665l-.26 1.559h.634zm3.666 3.058l.322-1.942-1.178-3.394h1.047l.42 1.3.299 1.1h.061l.68-1.1.834-1.3h1.108l-2.285 3.363-.33 1.973h-.978zm-52.14-35.789c-.448 0-.84-.076-1.177-.23-.331-.152-.579-.361-.742-.626l.642-.611c.159.219.355.382.59.489.233.107.483.16.748.16.331 0 .584-.076.757-.23.178-.157.267-.374.267-.649 0-.193-.053-.339-.16-.436-.102-.101-.275-.18-.52-.236l-.543-.123c-.397-.086-.688-.244-.871-.474a1.373 1.373 0 01-.268-.856c0-.26.046-.494.138-.703.097-.209.232-.387.405-.535.179-.148.39-.26.635-.336a2.66 2.66 0 01.833-.123c.413 0 .77.074 1.07.222.3.143.525.331.673.566l-.658.58a1.313 1.313 0 00-.474-.412 1.334 1.334 0 00-.657-.153c-.31 0-.548.071-.71.214-.164.143-.245.336-.245.58 0 .18.053.317.16.414.112.091.296.168.55.229l.52.13c.398.102.686.262.864.482.183.219.275.504.275.856 0 .27-.048.517-.145.741-.092.22-.23.408-.413.566a1.965 1.965 0 01-.657.374 2.8 2.8 0 01-.887.13zm2.848-.092l.887-5.335h3.37l-.137.818h-2.392l-.23 1.406h2.293l-.137.818h-2.293l-.245 1.476h2.393l-.138.817h-3.37zm4.729 0l.886-5.335h.979l-.75 4.518h2.378l-.138.817h-3.355zm4.438 0l.886-5.335h3.371l-.137.818h-2.393l-.229 1.406h2.293l-.138.818h-2.293l-.244 1.476h2.392l-.137.817H35.07zm6.486.092c-.606 0-1.052-.173-1.337-.52-.286-.351-.428-.846-.428-1.482 0-.505.056-.971.168-1.4.112-.432.272-.804.481-1.115.21-.316.467-.56.772-.734a2.01 2.01 0 011.032-.268c.28 0 .52.038.719.115.204.071.372.173.504.306.138.132.242.288.314.466.071.178.114.37.13.573l-.933.214a2.28 2.28 0 00-.069-.344.69.69 0 00-.13-.275.534.534 0 00-.229-.176.838.838 0 00-.36-.068.94.94 0 00-.81.405c-.188.265-.323.632-.405 1.1l-.137.803a3.084 3.084 0 00-.061.627c0 .295.066.53.198.703.133.173.352.26.658.26a.84.84 0 00.642-.26 2.47 2.47 0 00.45-.688l.834.275c-.102.24-.217.451-.344.635a2.122 2.122 0 01-.436.466 1.687 1.687 0 01-.542.29 2.33 2.33 0 01-.68.092zm5.577-4.61l-.749 4.518h-.978l.749-4.517h-1.613l.138-.818h4.211l-.137.818h-1.62z" fill="#6422F1"/><rect x="53.303" y="23.642" width="64.576" height="7.058" rx="3.529" fill="#D7D7D7"/><rect x="44.44" y="41.877" width="55.712" height="7.058" rx="3.529" fill="#EAEAEA"/><rect x="23.547" y="59.523" width="39.885" height="7.058" rx="3.529" fill="#D7D7D7"/><rect x="23.547" y="76.58" width="39.885" height="7.058" rx="3.529" fill="#EAEAEA"/><rect x="67.231" y="76.58" width="35.453" height="7.058" rx="3.529" fill="#D7D7D7"/><rect x="106.483" y="76.58" width="24.058" height="7.058" rx="3.529" fill="#EAEAEA"/><rect x="85.591" y="59.523" width="39.885" height="7.058" rx="3.529" fill="#EAEAEA"/><g filter="url(#filter0_d)"><rect x="23.547" y="92.461" width="2.532" height="7.058" fill="#0CC0DF"/></g><defs><filter id="filter0_d" x="19.547" y="92.461" width="10.532" height="15.058" filterUnits="userSpaceOnUse" color-interpolation-filters="sRGB"><feFlood flood-opacity="0" result="BackgroundImageFix"/><feColorMatrix in="SourceAlpha" type="matrix" values="0 0 0 0 0 0 0 0 0 0 0 0 0 0 0 0 0 0 127 0"/><feOffset dy="4"/><feGaussianBlur stdDeviation="2"/><feColorMatrix type="matrix" values="0 0 0 0 0 0 0 0 0 0 0 0 0 0 0 0 0 0 0.25 0"/><feBlend mode="normal" in2="BackgroundImageFix" result="effect1_dropShadow"/><feBlend mode="normal" in="SourceGraphic" in2="effect1_dropShadow" result="shape"/></filter></defs></svg>